<svg width="200" height="200" viewBox="0 0 200 200" fill="none" xmlns="http://www.w3.org/2000/svg">
<circle cx="100" cy="100" r="100" fill="#F2F2F2"/>
<path d="M111 160C155.183 160 191 157.882 191 155.27C191 152.658 155.183 150.541 111 150.541C66.8172 150.541 31 152.658 31 155.27C31 157.882 66.8172 160 111 160Z" fill="#F5F5F5"/>
<path d="M108.831 156.008H110.325L113.009 116.723H111.028L108.831 156.008Z" fill="#263238"/>
<path d="M97.1873 156.008H98.9874L99.2812 116.723H96.8936L97.1873 156.008Z" fill="#263238"/>
<path opacity="0.7" d="M96.8936 116.723L96.9413 123.069L97.1869 156.008H98.9878L99.2334 123.069L99.2812 116.723H96.8936Z" fill="white"/>
<path opacity="0.2" d="M96.8936 116.723L96.9413 123.371H99.2334L99.2812 116.723H96.8936Z" fill="black"/>
<path d="M80.7773 156.008H82.2712L84.9557 116.723H82.9742L80.7773 156.008Z" fill="#263238"/>
<path opacity="0.7" d="M80.7773 156.008H82.2712L84.8253 118.612L84.9557 116.723H82.9742L82.8665 118.612L80.7773 156.008Z" fill="white"/>
<path opacity="0.2" d="M83.165 118.536H84.844L84.9558 116.723H83.2574L83.165 118.536Z" fill="black"/>
<path d="M126.822 156.008H128.529L126.018 116.723H123.754L126.822 156.008Z" fill="#263238"/>
<path opacity="0.7" d="M123.754 116.723L123.903 118.612L126.824 156.008H128.529L126.143 118.612L126.02 116.723H123.754Z" fill="white"/>
<path opacity="0.2" d="M126.018 116.723H123.754L123.903 118.536H126.142L126.018 116.723Z" fill="black"/>
<path d="M126.689 117.328H82.0105C81.8415 117.328 81.6794 117.266 81.5599 117.154C81.4404 117.043 81.3733 116.892 81.3733 116.735V115.515H127.335V116.735C127.335 116.813 127.318 116.891 127.286 116.964C127.253 117.036 127.205 117.102 127.145 117.157C127.085 117.212 127.014 117.256 126.935 117.285C126.857 117.315 126.773 117.329 126.689 117.328Z" fill="#3450A1"/>
<path opacity="0.6" d="M126.689 117.328H82.0105C81.8415 117.328 81.6794 117.266 81.5599 117.154C81.4404 117.043 81.3733 116.892 81.3733 116.735V115.515H127.335V116.735C127.335 116.813 127.318 116.891 127.286 116.964C127.253 117.036 127.205 117.102 127.145 117.157C127.085 117.212 127.014 117.256 126.935 117.285C126.857 117.315 126.773 117.329 126.689 117.328Z" fill="white"/>
<path opacity="0.2" d="M81.3743 116.723H127.336V115.514H81.3743V116.723Z" fill="black"/>
<path d="M80.1381 116.119H128.571C128.718 116.119 128.859 116.055 128.964 115.942C129.068 115.829 129.126 115.675 129.126 115.515C129.125 115.355 129.067 115.201 128.963 115.088C128.859 114.975 128.718 114.911 128.571 114.91H80.1381C79.9909 114.91 79.8497 114.974 79.7456 115.087C79.6415 115.201 79.583 115.354 79.583 115.515C79.583 115.675 79.6415 115.829 79.7456 115.942C79.8497 116.055 79.9909 116.119 80.1381 116.119Z" fill="#3450A1"/>
<path opacity="0.6" d="M80.1381 116.119H128.571C128.718 116.119 128.859 116.055 128.964 115.942C129.068 115.829 129.126 115.675 129.126 115.515C129.125 115.355 129.067 115.201 128.963 115.088C128.859 114.975 128.718 114.911 128.571 114.91H80.1381C79.9909 114.91 79.8497 114.974 79.7456 115.087C79.6415 115.201 79.583 115.354 79.583 115.515C79.583 115.675 79.6415 115.829 79.7456 115.942C79.8497 116.055 79.9909 116.119 80.1381 116.119Z" fill="white"/>
<path d="M173.209 40H96.2721C95.5647 40 94.9912 40.5807 94.9912 41.297V97.4956C94.9912 98.2119 95.5647 98.7926 96.2721 98.7926H173.209C173.916 98.7926 174.49 98.2119 174.49 97.4956V41.297C174.49 40.5807 173.916 40 173.209 40Z" fill="#3450A1"/>
<path opacity="0.4" d="M174.49 43.1777H94.9912V96.2453H174.49V43.1777Z" fill="black"/>
<path d="M172.629 42.3047C173.042 42.3047 173.377 41.9659 173.377 41.5479C173.377 41.1299 173.042 40.791 172.629 40.791C172.216 40.791 171.882 41.1299 171.882 41.5479C171.882 41.9659 172.216 42.3047 172.629 42.3047Z" fill="white"/>
<path d="M170.107 42.3047C170.52 42.3047 170.854 41.9659 170.854 41.5479C170.854 41.1299 170.52 40.791 170.107 40.791C169.694 40.791 169.359 41.1299 169.359 41.5479C169.359 41.9659 169.694 42.3047 170.107 42.3047Z" fill="white"/>
<path d="M167.586 42.3047C167.999 42.3047 168.334 41.9659 168.334 41.5479C168.334 41.1299 167.999 40.791 167.586 40.791C167.174 40.791 166.839 41.1299 166.839 41.5479C166.839 41.9659 167.174 42.3047 167.586 42.3047Z" fill="white"/>
<path opacity="0.5" d="M172.102 46.6113H97.4893V92.5455H172.102V46.6113Z" fill="white"/>
<path d="M155.278 92.4031C154.088 89.1018 152.899 86.3066 152.899 86.3066L147.925 90.7163L148.793 92.4031H155.278Z" fill="#E4897B"/>
<path d="M120.159 92.4036C121.349 90.9457 122.188 89.8734 122.188 89.8734L117.327 85.7891C117.327 85.7891 114.947 89.5059 113.008 92.4156L120.159 92.4036Z" fill="#E4897B"/>
<path d="M121.349 92.4046L124.235 90.3564L123.116 76.7539C119.439 77.3563 114.097 88.1998 114.097 88.1998L118.261 92.4167L121.349 92.4046Z" fill="#44AFF1"/>
<path opacity="0.2" d="M118.267 92.4035H121.349L123.419 90.9336L124.235 90.3312L123.116 76.7227C119.439 77.3612 114.097 88.1685 114.097 88.1685L117.773 91.8613L118.267 92.4035Z" fill="white"/>
<path d="M119.172 92.4033L114.097 87.0117L113.223 88.4937L117.286 92.4033H119.172Z" fill="#44AFF1"/>
<path opacity="0.2" d="M121.349 92.4027L123.419 90.9328L122.438 85.0352C122.438 85.0352 118.594 87.493 117.773 91.9027L118.267 92.4027H121.349Z" fill="black"/>
<path d="M148.246 92.4034C149.472 84.7407 150.668 78.9093 150.668 78.9093C138.894 76.0297 123.086 76.7526 123.086 76.7526C121.848 81.2226 121.117 86.7949 120.706 92.4154L148.246 92.4034Z" fill="#44AFF1"/>
<path opacity="0.2" d="M148.246 92.4034C148.329 91.8672 148.413 91.3371 148.496 90.819C149.632 83.9515 150.668 78.9093 150.668 78.9093C138.894 76.0297 123.086 76.7526 123.086 76.7526C121.848 81.2226 121.123 86.7949 120.706 92.4154L148.246 92.4034Z" fill="white"/>
<path opacity="0.2" d="M148.247 92.4029C148.33 91.8668 148.413 91.3367 148.496 90.8186L146.759 89.168C146.338 90.2009 146.07 91.2909 145.962 92.4029H148.247Z" fill="black"/>
<path d="M129.791 92.4035H131.659C131.863 88.9555 132.347 85.5303 133.105 82.1625L136.407 79.4275L133.807 78.5781L131.427 78.7107L132.064 81.8733C132.064 81.8733 130.933 86.7167 129.791 92.4035Z" fill="#263238"/>
<path d="M141.322 77.2942C139.145 79.3003 133.802 78.5593 133.802 78.5593C133.802 78.5593 130.47 77.6316 131.172 76.5774C133.136 76.252 134.088 75.3243 134.474 74.1677C134.691 73.4319 134.759 72.6597 134.677 71.8966C134.645 71.472 134.589 71.0497 134.51 70.6315L141.114 65.6797C140.251 68.9146 139.192 74.9267 141.322 77.2942Z" fill="#EB996E"/>
<path opacity="0.2" d="M139.59 68.7949C139.328 72.807 136.074 73.9094 134.479 74.1383C134.696 73.4025 134.765 72.6304 134.682 71.8672L139.59 68.7949Z" fill="black"/>
<path d="M140.351 74.748L134.044 77.6336L133.675 75.3203L131.355 76.1456C130.95 76.2898 130.606 76.5681 130.377 76.9355C130.148 77.3029 130.048 77.7378 130.094 78.1698L130.356 80.7059L133.556 78.8987L135.151 81.1818L142.725 77.489L140.351 74.748Z" fill="#44AFF1"/>
<path opacity="0.3" d="M140.351 74.748L134.044 77.6336L133.675 75.3203L131.355 76.1456C130.95 76.2898 130.606 76.5681 130.377 76.9355C130.148 77.3029 130.048 77.7378 130.094 78.1698L130.356 80.7059L133.556 78.8987L135.151 81.1818L142.725 77.489L140.351 74.748Z" fill="white"/>
<path d="M127.584 56.3672C127.584 56.3672 126.602 62.801 129.963 65.289C133.325 67.7769 133.367 55.7949 133.367 55.7949L127.584 56.3672Z" fill="#263238"/>
<path d="M139.751 70.4505C139.04 71.508 138.006 72.3003 136.808 72.7062C135.61 73.112 134.313 73.1089 133.117 72.6975C131.565 72.1982 130.258 71.1219 129.458 69.6854C129.347 69.4899 129.246 69.2889 129.155 69.083C127.507 65.1432 126.995 58.2395 131.112 55.6973C132.02 55.1324 133.054 54.8111 134.119 54.7639C135.183 54.7167 136.242 54.9451 137.195 55.4275C138.148 55.9099 138.963 56.6304 139.565 57.5209C140.166 58.4114 140.533 59.4425 140.631 60.5167C141.143 65.0287 141.648 67.7155 139.751 70.4505Z" fill="#EB996E"/>
<path d="M132.306 66.6167C132.076 66.6087 131.847 66.6314 131.623 66.6841C131.522 66.7115 131.416 66.7086 131.379 66.641C131.338 66.5343 131.331 66.4178 131.357 66.3073C131.379 66.0134 131.403 65.7189 131.433 65.4229C131.529 64.1506 131.563 63.1166 131.515 63.1124C131.467 63.1082 131.348 64.1364 131.255 65.4081L131.195 66.3023C131.167 66.4489 131.19 66.6015 131.259 66.7339C131.284 66.767 131.316 66.7937 131.353 66.8122C131.39 66.8307 131.43 66.8404 131.47 66.8407C131.532 66.8391 131.593 66.8303 131.652 66.8144C131.878 66.7783 132.098 66.7118 132.306 66.6167Z" fill="#263238"/>
<path d="M134.021 62.8732C134.11 63.2407 133.943 63.578 133.7 63.6202C133.456 63.6624 133.218 63.3913 133.152 63.0178C133.087 62.6443 133.235 62.3129 133.473 62.2768C133.711 62.2407 133.955 62.4997 134.021 62.8732Z" fill="#263238"/>
<path d="M129.875 63.5792C129.965 63.9466 129.792 64.284 129.554 64.3262C129.316 64.3683 129.066 64.0912 129.007 63.7237C128.947 63.3563 129.09 63.0189 129.328 62.9768C129.566 62.9346 129.816 63.2237 129.875 63.5792Z" fill="#263238"/>
<path d="M128.042 62.048C128.079 62.0593 128.119 62.0613 128.157 62.054C128.195 62.0466 128.231 62.0301 128.262 62.0058C128.464 61.8186 128.706 61.681 128.969 61.6037C129.232 61.5264 129.51 61.5114 129.779 61.56C129.807 61.5682 129.836 61.5705 129.865 61.567C129.893 61.5635 129.921 61.5541 129.946 61.5395C129.971 61.5249 129.993 61.5053 130.01 61.4819C130.028 61.4585 130.04 61.4318 130.047 61.4034C130.062 61.3475 130.055 61.2879 130.027 61.2373C129.999 61.1868 129.953 61.1491 129.898 61.1323C129.559 61.0608 129.208 61.0721 128.873 61.1654C128.539 61.2586 128.232 61.431 127.977 61.6684C127.936 61.7102 127.913 61.7664 127.913 61.8251C127.913 61.8837 127.936 61.94 127.977 61.9817C127.994 62.0077 128.016 62.0302 128.042 62.048Z" fill="#263238"/>
<path d="M134.568 61.0532C134.61 61.0443 134.65 61.0234 134.681 60.993C134.71 60.9423 134.719 60.8821 134.706 60.8249C134.693 60.7677 134.658 60.7179 134.609 60.6858C134.316 60.498 133.982 60.3847 133.636 60.3553C133.29 60.3259 132.943 60.3814 132.622 60.5171C132.571 60.543 132.531 60.5885 132.512 60.6437C132.493 60.6989 132.496 60.7595 132.521 60.8123C132.548 60.8636 132.593 60.9023 132.648 60.9203C132.702 60.9383 132.761 60.9341 132.813 60.9087C133.069 60.812 133.344 60.7764 133.617 60.8046C133.889 60.8328 134.151 60.924 134.383 61.0713C134.414 61.0825 134.446 61.0866 134.478 61.0835C134.51 61.0804 134.54 61.07 134.568 61.0532Z" fill="#263238"/>
<path d="M136.4 55.3066V57.3609C136.758 57.4827 137.056 57.7364 137.237 58.0713C137.418 58.4062 137.468 58.7978 137.376 59.1681C136.93 60.9452 138.197 63.4754 139.607 64.373C139.607 64.373 139.565 63.626 140.202 63.7284C140.839 63.8308 141.124 67.6923 140.137 69.6742C140.137 69.6742 141.755 67.7947 142.308 63.6501C142.814 59.8007 142.57 56.6801 141.642 55.3307L136.4 55.3066Z" fill="#263238"/>
<path d="M143.243 63.8251C142.914 64.9427 142.161 65.8828 141.149 66.4396C139.804 67.1685 138.799 66.0239 138.894 64.5661C138.995 63.2709 139.798 61.289 141.274 61.1745C142.749 61.06 143.63 62.4697 143.243 63.8251Z" fill="#EB996E"/>
<path d="M132.29 68.1748C132.608 68.6653 132.891 69.1788 133.135 69.711L133.432 69.6266C134.765 69.2351 135.253 68.6025 135.39 68.0302C135.453 67.7467 135.453 67.4523 135.39 67.1688C135.352 67.0085 135.292 66.8544 135.211 66.7109C134.497 67.3253 133.661 67.7772 132.76 68.0363C132.469 68.1326 132.29 68.1748 132.29 68.1748Z" fill="#263238"/>
<path d="M132.742 68.0421L133.004 68.4879C134.259 68.1144 135.086 67.6807 135.384 67.1746C135.346 67.0143 135.286 66.8602 135.205 66.7168C134.488 67.3327 133.648 67.7847 132.742 68.0421Z" fill="white"/>
<path d="M133.432 69.6257C134.764 69.2341 135.252 68.6016 135.389 68.0293C134.885 68.1866 134.413 68.4357 133.997 68.7642C133.724 68.9847 133.527 69.2859 133.432 69.6257Z" fill="#DE5753"/>
<path d="M139.115 62.8066L138.52 62.4512C138.52 62.4512 138.894 64.915 138.121 65.6078C138.121 65.6078 135.444 65.897 134.51 66.15C133.869 66.4021 133.339 66.8788 133.016 67.4934C133.016 67.4934 130.916 67.0416 130.006 68.638C129.25 67.9552 128.653 67.1118 128.257 66.1681C128.257 66.1681 128.328 70.6741 130.821 73.0717C133.314 75.4693 137.365 74.2766 139.269 72.4031C141.173 70.5295 139.115 62.8066 139.115 62.8066ZM137.33 69.9091C137.169 70.1504 136.949 70.345 136.691 70.4736C136.433 70.6021 136.147 70.6602 135.86 70.6419C135.573 70.6236 135.296 70.5297 135.056 70.3694C134.816 70.2092 134.621 69.9882 134.492 69.7283L133.659 70.1922C133.659 70.1922 134.575 70.9753 133.879 71.6982C133.183 72.4211 131.029 72.1621 130.809 70.0838C130.589 68.0054 133.189 67.7705 133.189 67.7705C133.513 67.439 133.9 67.177 134.326 67C134.752 66.823 135.209 66.7347 135.67 66.7404C136.028 66.7551 136.377 66.8641 136.681 67.0567C136.985 67.2493 137.234 67.5188 137.404 67.8386C137.574 68.1584 137.659 68.5175 137.65 68.8806C137.641 69.2437 137.539 69.5981 137.354 69.9091H137.33Z" fill="#263238"/>
<path d="M136.395 57.3608C136.395 57.3608 126.28 60.8548 127.47 53.9512C127.47 53.9512 132.926 50.6981 137.68 51.6078C142.433 52.5174 142.064 57.5115 142.064 57.5115L136.395 57.3608Z" fill="#263238"/>
<path d="M156.583 92.4042C155.988 90.4404 152.65 79.9584 150.669 78.9102C149.499 80.0276 148.559 81.3687 147.903 82.856C146.552 85.6391 146.261 91.2175 146.261 91.2175L147.135 92.4223L156.583 92.4042Z" fill="#44AFF1"/>
<path opacity="0.2" d="M156.583 92.4042C155.988 90.4404 152.65 79.9584 150.669 78.9102C149.499 80.0276 148.559 81.3687 147.903 82.856C146.552 85.6391 146.261 91.2175 146.261 91.2175L147.135 92.4223L156.583 92.4042Z" fill="white"/>
<path d="M103.379 114.867H91.4835C91.4098 114.867 91.3368 114.852 91.2688 114.824C91.2007 114.795 91.1388 114.754 91.0867 114.701C91.0346 114.648 90.9933 114.585 90.9651 114.516C90.9369 114.447 90.9224 114.374 90.9224 114.299V113.848H103.379V114.867Z" fill="#263238"/>
<path opacity="0.2" d="M103.379 114.867H91.4835C91.4098 114.867 91.3368 114.852 91.2688 114.824C91.2007 114.795 91.1388 114.754 91.0867 114.701C91.0346 114.648 90.9933 114.585 90.9651 114.516C90.9369 114.447 90.9224 114.374 90.9224 114.299V113.848H103.379V114.867Z" fill="white"/>
<path d="M110.802 114.867H101.089C100.94 114.867 100.797 114.807 100.692 114.701C100.587 114.594 100.528 114.45 100.528 114.299V113.848H110.802V114.867Z" fill="#263238"/>
<path opacity="0.5" d="M110.802 114.867H101.089C100.94 114.867 100.797 114.807 100.692 114.701C100.587 114.594 100.528 114.45 100.528 114.299V113.848H110.802V114.867Z" fill="white"/>
<path d="M108.528 114.535H109.535V114.172H108.528V114.535Z" fill="#263238"/>
<path d="M106.96 114.535H107.967V114.172H106.96V114.535Z" fill="#263238"/>
<path d="M110.12 113.847H110.789L111.482 104.635H110.809L110.12 113.847Z" fill="#263238"/>
<path opacity="0.3" d="M110.12 113.847H110.789L111.482 104.635H110.809L110.12 113.847Z" fill="white"/>
<path d="M110.363 113.847H98.5996L99.2928 104.635H111.056L110.363 113.847Z" fill="#3450A1"/>
<path opacity="0.4" d="M110.363 113.847H98.5996L99.2928 104.635H111.056L110.363 113.847Z" fill="white"/>
<path d="M82.5875 98.3442C82.2245 99.6519 82.1337 101.056 83.9904 101.565C83.9904 101.565 85.7233 104.039 83.6438 105.697C82.3266 103.941 80.6647 102.481 78.7627 101.407C79.9716 100.312 79.7364 97.1912 79.4559 95.4824L82.5875 98.3442Z" fill="#CE7A63"/>
<path d="M84.8952 91.5493C85.0355 91.5117 85.2088 91.6454 85.2789 91.8626C85.3491 92.0799 85.2789 92.3096 85.1469 92.3431C85.0148 92.3765 84.8333 92.2512 84.7632 92.0297C84.693 91.8083 84.7508 91.5827 84.8952 91.5493Z" fill="#2E353A"/>
<path d="M85.3075 91.2578L84.833 91.5795C85.1713 91.7591 85.3075 91.2578 85.3075 91.2578Z" fill="#2E353A"/>
<path d="M85.4186 93.9163C85.5634 93.9059 85.704 93.863 85.8303 93.7907C85.9566 93.7185 86.0654 93.6186 86.1489 93.4985C85.6854 93.176 85.2687 92.7893 84.9111 92.3496L85.4186 93.9163Z" fill="#BA4D3C"/>
<path d="M84.3791 90.1096C84.2401 90.2063 84.126 90.3352 84.0463 90.4857C83.9667 90.6362 83.9237 90.8037 83.9211 90.9744C83.9216 90.992 83.9188 91.0095 83.9126 91.0259C83.9065 91.0424 83.8972 91.0574 83.8853 91.0702C83.8735 91.083 83.8592 91.0933 83.8434 91.1005C83.8276 91.1078 83.8105 91.1118 83.7932 91.1123C83.776 91.1129 83.7589 91.1099 83.7429 91.1037C83.7269 91.0974 83.7124 91.088 83.7 91.0759C83.6877 91.0638 83.6779 91.0493 83.6712 91.0333C83.6646 91.0173 83.6611 91.0002 83.6611 90.9828C83.6615 90.7672 83.713 90.5548 83.8114 90.3636C83.9098 90.1724 84.0521 90.0079 84.2264 89.884C84.2551 89.8638 84.2904 89.8556 84.325 89.861C84.3596 89.8665 84.3908 89.8852 84.4121 89.9133C84.4241 89.9334 84.4304 89.9566 84.4304 89.9801C84.4304 90.0037 84.4241 90.0268 84.4121 90.047C84.408 90.0709 84.3964 90.0929 84.3791 90.1096Z" fill="#2E353A"/>
<path d="M76.8076 91.69C76.8947 90.6701 77.3783 89.7269 78.152 89.068C78.9258 88.4091 79.9264 88.0884 80.9336 88.1764C83.8879 88.3978 85.5259 92.2874 85.724 94.8986C85.9468 97.8021 82.9637 99.6529 80.2735 98.2408C78.4704 97.2966 78.1238 96.1519 77.084 93.5073C76.8508 92.9323 76.7561 92.3094 76.8076 91.69Z" fill="#CE7A63"/>
<path opacity="0.21" d="M75.3673 95.1224C71.497 90.1717 76.2502 88.747 76.2502 88.747C77.7397 86.6581 80.1947 86.2403 82.4393 87.1051C84.6839 87.9699 84.0237 89.5074 83.2026 89.6578C84.7375 91.7133 83.8587 92.7368 83.3512 92.8831C84.1558 98.0552 79.2293 100.073 75.3673 95.1224Z" fill="#263238"/>
<path d="M78.7713 116.986C78.0112 116.887 77.2596 116.731 76.5226 116.518C76.413 116.481 76.3056 116.438 76.2008 116.389L76.1678 115.841C76.0811 114.204 76.0481 112.532 76.011 110.857L75.9285 105.844H73.0732C73.0732 107.552 73.1062 109.245 73.1805 110.945C73.2548 112.645 73.3538 114.346 73.5436 116.067L73.6426 116.719L73.6921 117.045C73.7012 117.146 73.7164 117.246 73.7375 117.345C73.7686 117.441 73.8058 117.535 73.8489 117.625C73.9265 117.777 74.0236 117.917 74.1378 118.043C74.2959 118.209 74.4782 118.35 74.6783 118.461C74.8218 118.543 74.9707 118.616 75.1239 118.678C75.3739 118.774 75.6304 118.853 75.8913 118.912C76.777 119.095 77.6777 119.193 78.5815 119.204C80.2866 119.244 81.9922 119.161 83.6854 118.954L83.6566 117.538C82.0185 117.383 80.364 117.233 78.7713 116.986Z" fill="#CE7A63"/>
<path d="M78.3713 104.907C78.3713 106.657 77.3315 109.92 77.3315 109.92L73.0404 107.263C72.8465 105.02 73.3045 102.137 75.4294 101.435C76.8776 100.963 78.3548 103.044 78.3713 104.907Z" fill="#3450A1"/>
<path opacity="0.6" d="M75.2882 103.651L74.3021 104.637L74.1123 107.933L77.3306 109.934C77.3306 109.934 78.3704 106.659 78.3704 104.921C78.3603 104.466 78.2781 104.016 78.127 103.588L76.6457 103.137L75.2882 103.651Z" fill="black"/>
<path d="M87.5922 118.314C87.6208 118.247 87.636 118.175 87.637 118.102C87.638 118.029 87.6246 117.956 87.5978 117.888C87.571 117.82 87.5311 117.758 87.4806 117.706C87.4301 117.654 87.3699 117.612 87.3034 117.583L86.0862 117.061C85.8246 116.952 85.5351 116.931 85.261 117.003L82.6121 117.725L82.2861 118.632C82.6987 119.672 84.4523 119.467 84.4523 119.467L85.7108 119.86C85.8699 119.91 86.0401 119.91 86.1992 119.86C86.3583 119.81 86.4987 119.713 86.602 119.58L87.5221 118.431C87.5511 118.396 87.5747 118.357 87.5922 118.314Z" fill="#CE7A63"/>
<path d="M85.6606 101.394C85.1119 101.298 84.5342 101.21 83.9731 101.143C82.2461 100.965 80.5087 100.912 78.7743 100.984C77.9202 100.984 77.0826 101.064 76.3481 101.143H76.2904C75.652 101.23 75.0736 101.569 74.6822 102.087C74.2907 102.604 74.1182 103.258 74.2026 103.905C75.2424 111.425 75.6962 114.613 75.395 118.903L86.8737 119.254C88.2105 112.252 88.7552 108.078 88.9367 105.622C89.0089 104.631 88.7131 103.648 88.1071 102.866C87.5011 102.084 86.6287 101.559 85.6606 101.394Z" fill="#3450A1"/>
<path d="M98.9854 144.489L101.696 144.23L103.524 150.99L100.813 151.249L98.9854 144.489Z" fill="#CE7A63"/>
<path d="M79.2872 118.898C74.926 124.747 75.2725 129.732 79.7782 129.732C83.7928 129.732 88.7977 129.974 94.2194 129.623C95.4118 138.476 99.9669 148.791 99.9669 148.791L102.975 148.507C102.975 148.507 100.231 135.555 100.021 126.51C99.8886 121.042 84.6387 121.497 84.6387 121.497C84.6387 121.497 81.965 118.915 79.2872 118.898Z" fill="#263238"/>
<path opacity="0.3" d="M79.2872 118.898C74.926 124.747 75.2725 129.732 79.7782 129.732C83.7928 129.732 88.7977 129.974 94.2194 129.623C95.4118 138.476 99.9669 148.791 99.9669 148.791L102.975 148.507C102.975 148.507 100.231 135.555 100.021 126.51C99.8886 121.042 84.6387 121.497 84.6387 121.497C84.6387 121.497 81.965 118.915 79.2872 118.898Z" fill="white"/>
<path opacity="0.2" d="M100.379 131.805C100.202 129.979 100.074 128.178 100.037 126.511C99.9049 121.043 84.655 121.498 84.655 121.498C84.318 121.188 83.9639 120.898 83.5946 120.629C83.0046 120.704 82.6662 120.754 82.6662 120.754C82.6662 120.754 80.3639 120.717 78.0698 120.7C75.0454 125.713 75.7468 129.724 79.778 129.724C82.1629 129.724 84.9067 129.808 87.8774 129.803C91.9127 128.688 96.0883 127.297 97.9821 126.687C98.6092 128.47 99.4124 130.185 100.379 131.805Z" fill="black"/>
<path d="M75.4328 118.126L87.06 118.477C87.1714 118.477 87.2498 118.543 87.2498 118.614L87.1178 119.667C87.1178 119.73 87.0188 119.776 86.9156 119.776L75.1027 119.425C74.9707 119.425 74.8799 119.337 74.9212 119.258L75.2471 118.226C75.2653 118.193 75.2924 118.166 75.3254 118.148C75.3583 118.13 75.3956 118.123 75.4328 118.126Z" fill="#3450A1"/>
<path d="M103.751 150.805C104.394 151.469 105.492 152.409 106.565 152.676C107.25 152.848 107.671 153.972 106.367 153.838C105.063 153.704 103.672 153.42 102.905 153.336C101.667 153.169 101.222 153.24 100.223 153.14C100.104 153.123 99.9976 153.058 99.9257 152.961C99.8539 152.864 99.8228 152.742 99.8393 152.622L100.273 150.387C100.282 150.339 100.309 150.297 100.348 150.269C100.387 150.241 100.435 150.229 100.483 150.237L103.334 150.617C103.49 150.631 103.636 150.697 103.751 150.805Z" fill="#263238"/>
<path d="M83.1816 89.6624C83.1816 89.6624 84.5927 91.2834 83.6561 93.034C83.6561 93.034 82.7937 94.1285 83.1816 96.4264C83.5694 98.7242 85.3065 100.575 81.4033 100.554C77.7311 100.533 73.1223 101.285 73.638 97.6546C73.638 97.6546 71.9629 96.0629 73.8485 94.3625C73.8485 94.3625 72.425 92.3655 74.1827 90.7863C74.1827 90.7863 73.2749 87.5234 76.419 87.6863C76.419 87.6863 77.1204 84.4401 80.4708 86.2617C80.4708 86.2617 81.8901 83.9722 84.0398 86.2617C84.0398 86.2617 87.5387 86.55 85.0713 88.6096C85.0713 88.618 85.191 90.2891 83.1816 89.6624Z" fill="#263238"/>
<path d="M85.8303 93.0294C85.7467 93.0289 85.6661 92.9977 85.6034 92.9417C85.2898 92.6743 85.1619 91.8095 85.1248 91.4502L83.4743 92.2398L83.3877 92.0476L85.6777 90.9656C85.7336 90.9356 85.7959 90.9199 85.8592 90.9199C85.9225 90.9199 85.9848 90.9356 86.0407 90.9656C86.0965 90.9952 86.1448 91.0373 86.182 91.0887C86.2192 91.1401 86.2442 91.1995 86.2553 91.2622C86.3461 91.8179 86.3997 92.5406 86.1604 92.8582C86.126 92.904 86.0825 92.9422 86.0328 92.9702C85.9831 92.9982 85.9282 93.0156 85.8716 93.0211L85.8303 93.0294ZM85.3228 91.3583C85.3599 91.7427 85.4879 92.5699 85.7354 92.783C85.7638 92.8083 85.8007 92.8218 85.8386 92.8206C85.8678 92.8184 85.8963 92.8098 85.9219 92.7953C85.9476 92.7809 85.9698 92.761 85.9871 92.737C86.1356 92.5406 86.1563 92.0184 86.0366 91.304C86.0328 91.2728 86.0214 91.2431 86.0034 91.2176C85.9854 91.1921 85.9613 91.1715 85.9335 91.1578C85.9053 91.1435 85.8742 91.136 85.8427 91.136C85.8112 91.136 85.7801 91.1435 85.7519 91.1578L85.3228 91.3583Z" fill="#44AFF1"/>
<path d="M82.1175 93.0378C82.1019 92.9077 82.1119 92.7758 82.1469 92.6496C82.1819 92.5234 82.2412 92.4055 82.3213 92.3027C82.4014 92.1998 82.5009 92.1139 82.6139 92.0501C82.7269 91.9862 82.8512 91.9456 82.9798 91.9306C83.7307 91.8512 84.3084 92.7662 84.4734 93.397C84.655 94.1156 84.2589 94.7757 83.5244 94.5418C82.9699 94.3568 82.5101 93.9573 82.2454 93.4305C82.1747 93.3107 82.131 93.1766 82.1175 93.0378Z" fill="#CE7A63"/>
<path d="M107.365 138.413L109.663 136.207L112.737 140.936L110.897 142.549L107.365 138.413Z" fill="#CE7A63"/>
<path d="M76.4809 118.996C76.2087 118.993 75.9436 119.083 75.7281 119.251C75.5126 119.419 75.3592 119.656 75.2926 119.923C73.7412 126.048 75.4906 129.749 79.7776 129.749C83.7922 129.749 94.7469 126.119 98.188 124.991C101.076 133.422 109.39 140.971 109.39 140.971L111.573 138.945C111.573 138.945 106.729 129.499 103.379 121.097C101.456 116.272 82.8721 119.058 82.8721 119.058C82.8721 119.058 79.1752 118.996 76.4809 118.996Z" fill="#263238"/>
<path opacity="0.3" d="M76.4809 118.996C76.2087 118.993 75.9436 119.083 75.7281 119.251C75.5126 119.419 75.3592 119.656 75.2926 119.923C73.7412 126.048 75.4906 129.749 79.7776 129.749C83.7922 129.749 94.7469 126.119 98.188 124.991C101.076 133.422 109.39 140.971 109.39 140.971L111.573 138.945C111.573 138.945 106.729 129.499 103.379 121.097C101.456 116.272 82.8721 119.058 82.8721 119.058C82.8721 119.058 79.1752 118.996 76.4809 118.996Z" fill="white"/>
<path d="M112.77 139.888C113.686 139.817 115.011 139.111 115.844 138.375C116.479 137.807 117.214 138.459 116.578 139.34C115.943 140.222 114.561 141.475 114.029 142.048C113.158 142.979 112.997 143.43 112.275 144.137C112.185 144.217 112.068 144.258 111.948 144.252C111.829 144.246 111.717 144.192 111.635 144.103L110.2 142.311C110.184 142.292 110.171 142.271 110.164 142.247C110.156 142.224 110.153 142.199 110.155 142.175C110.157 142.15 110.164 142.126 110.175 142.104C110.186 142.083 110.201 142.063 110.22 142.048L112.341 140.08C112.459 139.969 112.61 139.901 112.77 139.888Z" fill="#263238"/>
<path d="M79.721 146.08V130.334H77.2454V146.118L70.9449 147.789C70.4165 147.93 69.949 148.244 69.6154 148.683C69.2817 149.121 69.1007 149.659 69.1006 150.212V150.726C69.1006 150.975 69.1984 151.214 69.3725 151.391C69.5466 151.567 69.7827 151.666 70.0289 151.666C70.2752 151.666 70.5113 151.567 70.6854 151.391C70.8595 151.214 70.9573 150.975 70.9573 150.726C70.9561 150.433 71.0512 150.148 71.2274 149.916C71.4037 149.684 71.6512 149.518 71.9311 149.443L77.2454 148.023V150.726C77.2454 150.975 77.3432 151.214 77.5173 151.391C77.6914 151.567 77.9276 151.666 78.1738 151.666H78.7886C79.0348 151.666 79.2709 151.567 79.445 151.391C79.6191 151.214 79.7169 150.975 79.7169 150.726V148.006L85.0065 149.489C85.285 149.568 85.5299 149.737 85.7031 149.972C85.8763 150.206 85.968 150.492 85.9638 150.785C85.9616 151.034 86.0571 151.275 86.2296 151.453C86.402 151.632 86.6373 151.734 86.8839 151.737C87.0058 151.738 87.1267 151.715 87.2398 151.669C87.3528 151.622 87.4558 151.554 87.5427 151.468C87.6297 151.381 87.699 151.278 87.7467 151.164C87.7943 151.051 87.8194 150.929 87.8205 150.805V150.292C87.8266 149.738 87.6518 149.199 87.3235 148.757C86.9951 148.315 86.5315 147.995 86.005 147.847L79.721 146.08Z" fill="#263238"/>
<path d="M68.501 153.416C68.5002 153.114 68.5879 152.818 68.7531 152.567C68.9182 152.316 69.1534 152.12 69.4288 152.004C69.7041 151.888 70.0073 151.857 70.2998 151.916C70.5923 151.975 70.861 152.12 71.0719 152.333C71.2828 152.547 71.4263 152.819 71.4843 153.115C71.5422 153.411 71.5121 153.718 71.3976 153.997C71.2831 154.276 71.0894 154.514 70.8411 154.681C70.5928 154.849 70.3011 154.937 70.0029 154.937C69.6049 154.935 69.2235 154.775 68.9421 154.49C68.6607 154.205 68.5021 153.819 68.501 153.416Z" fill="#FFE0B9"/>
<path d="M85.419 153.416C85.4181 153.114 85.5058 152.819 85.6708 152.567C85.8357 152.316 86.0707 152.12 86.3458 152.004C86.6209 151.888 86.9238 151.857 87.2162 151.916C87.5086 151.974 87.7774 152.119 87.9884 152.332C88.1994 152.545 88.3433 152.817 88.4017 153.113C88.4602 153.409 88.4306 153.715 88.3167 153.994C88.2029 154.273 88.0098 154.512 87.7621 154.679C87.5143 154.847 87.223 154.937 86.925 154.937C86.5263 154.937 86.1438 154.776 85.8615 154.491C85.5792 154.206 85.42 153.82 85.419 153.416Z" fill="#FFE0B9"/>
<path d="M76.9648 153.416C76.964 153.114 77.0517 152.819 77.2167 152.567C77.3816 152.316 77.6166 152.12 77.8917 152.004C78.1668 151.888 78.4697 151.857 78.7621 151.916C79.0545 151.974 79.3233 152.119 79.5343 152.332C79.7453 152.545 79.8892 152.817 79.9476 153.113C80.0061 153.409 79.9765 153.715 79.8626 153.994C79.7488 154.273 79.5557 154.512 79.308 154.679C79.0602 154.847 78.7689 154.937 78.4709 154.937C78.0725 154.935 77.6907 154.775 77.4086 154.49C77.1265 154.205 76.967 153.819 76.9648 153.416Z" fill="#FFE0B9"/>
<path opacity="0.6" d="M79.7205 130.346H77.249V133.901H79.7205V130.346Z" fill="black"/>
<path opacity="0.6" d="M75.4053 148.54L76.9649 148.123V146.205L75.4053 146.623V148.54Z" fill="black"/>
<path opacity="0.6" d="M81.5354 146.589L79.9717 146.15V148.076L81.5354 148.515V146.589Z" fill="black"/>
<path d="M80.5 129.289H95.5188C95.9755 129.29 96.4131 129.475 96.7357 129.802C97.0582 130.129 97.2394 130.573 97.2394 131.035H80.5V129.289Z" fill="#FFE0B9"/>
<path opacity="0.5" d="M80.5 129.289H95.5188C95.9755 129.29 96.4131 129.475 96.7357 129.802C97.0582 130.129 97.2394 130.573 97.2394 131.035H80.5V129.289Z" fill="black"/>
<path d="M69.8423 106.938C64.5651 106.938 60.8062 110.923 61.0827 116.229L61.6892 127.827C61.7334 128.685 62.0998 129.493 62.7135 130.087C63.3271 130.68 64.1415 131.013 64.99 131.019H86.1979L81.8161 116.229C80.2647 110.94 75.1236 106.938 69.8423 106.938Z" fill="#FFE0B9"/>
<path opacity="0.1" d="M69.8423 106.938C64.5651 106.938 60.8062 110.923 61.0827 116.229L61.6892 127.827C61.7334 128.685 62.0998 129.493 62.7135 130.087C63.3271 130.68 64.1415 131.013 64.99 131.019H86.1979L81.8161 116.229C80.2647 110.94 75.1236 106.938 69.8423 106.938Z" fill="black"/>
<path opacity="0.3" d="M68.7776 107.014C64.0656 107.515 60.8267 111.304 61.0825 116.247L61.689 127.828C61.7332 128.686 62.0997 129.494 62.7133 130.087C63.3269 130.681 64.1414 131.014 64.9899 131.02H84.0605L79.6786 116.23C78.2345 111.3 73.667 107.507 68.7776 107.014Z" fill="black"/>
<path d="M88.6077 130.534C88.454 130.377 88.3677 130.165 88.3677 129.945C88.3677 129.724 88.454 129.512 88.6077 129.356L93.1009 124.806C93.1663 124.74 93.2108 124.656 93.2289 124.564C93.2469 124.472 93.2377 124.377 93.2024 124.291C93.167 124.205 93.1071 124.131 93.0303 124.079C92.9535 124.027 92.8632 123.999 92.7708 124H83.1406C82.9218 124 82.7119 123.912 82.5571 123.755C82.4024 123.598 82.3154 123.386 82.3154 123.164C82.3154 122.942 82.4024 122.73 82.5571 122.573C82.7119 122.417 82.9218 122.329 83.1406 122.329H92.6801C93.0751 122.321 93.4648 122.421 93.8082 122.619C94.1516 122.817 94.4361 123.105 94.6317 123.452C94.8492 123.859 94.9309 124.325 94.8647 124.782C94.7985 125.239 94.5879 125.662 94.2645 125.988L89.7712 130.534C89.6166 130.689 89.4074 130.777 89.1894 130.777C88.9714 130.777 88.7623 130.689 88.6077 130.534Z" fill="#263238"/>
<path opacity="0.2" d="M94.6317 123.452C94.4361 123.105 94.1516 122.817 93.8082 122.619C93.4648 122.421 93.0751 122.321 92.6801 122.329H83.1406C82.9218 122.329 82.7119 122.417 82.5571 122.573C82.4024 122.73 82.3154 122.942 82.3154 123.164C82.3154 123.386 82.4024 123.598 82.5571 123.755C82.7119 123.912 82.9218 124 83.1406 124H92.7708C92.8445 123.998 92.9172 124.017 92.9813 124.054H94.8421C94.8025 123.844 94.7315 123.641 94.6317 123.452Z" fill="white"/>
<path d="M108.83 156.008H110.324L112.878 118.612L113.008 116.723H111.027L110.919 118.612L108.83 156.008Z" fill="#BEC1C3"/>
<path opacity="0.2" d="M110.92 118.536H112.879L113.009 116.723H111.028L110.92 118.536Z" fill="black"/>
<path d="M94.6186 114.608C93.3807 114.771 92.0934 114.93 90.8597 115.026C90.2674 115.084 89.6722 115.106 89.0773 115.093C88.9153 115.089 88.754 115.072 88.5945 115.043C88.4886 114.577 88.4155 114.103 88.3758 113.627C88.3305 113.038 88.3181 112.444 88.3305 111.851C88.3428 111.258 88.3965 110.631 88.4584 110.03C88.4873 109.725 88.5244 109.407 88.5698 109.119C88.6152 108.83 88.6605 108.5 88.7059 108.254L85.9209 107.652C85.8383 108.037 85.7806 108.358 85.731 108.705C85.6815 109.052 85.6444 109.382 85.6073 109.741C85.5384 110.435 85.5067 111.133 85.5124 111.83C85.501 113.292 85.7325 114.745 86.1973 116.129L86.2427 116.263L86.2798 116.355L86.3293 116.472C86.3666 116.544 86.4079 116.613 86.4531 116.681C86.6052 116.902 86.8039 117.086 87.0349 117.22C87.3068 117.374 87.605 117.474 87.9137 117.516C88.3238 117.575 88.7392 117.585 89.1515 117.545C89.8463 117.485 90.5359 117.373 91.2146 117.211C92.5059 116.905 93.7732 116.502 95.0064 116.008L94.6186 114.608Z" fill="#CE7A63"/>
<path d="M97.5657 112.318C97.6428 112.326 97.7176 112.35 97.7856 112.388C97.8536 112.426 97.9135 112.477 97.9619 112.538C98.0102 112.6 98.0461 112.67 98.0673 112.746C98.0886 112.821 98.0948 112.9 98.0856 112.978L97.9453 114.557C97.9348 114.676 97.89 114.788 97.8166 114.881C97.7433 114.974 97.6445 115.043 97.5327 115.08L96.1133 115.497C96.1133 115.497 93.4933 117.169 92.6475 116.446L93.6253 115.075L95.4119 113.012C95.6131 112.776 95.8861 112.616 96.1876 112.556L97.3842 112.314C97.4445 112.306 97.5058 112.307 97.5657 112.318Z" fill="#CE7A63"/>
<path d="M84.1477 104.549C83.24 105.836 85.0554 109.345 85.0554 109.345L88.6451 109.116C88.6451 109.116 89.5817 104.604 87.9313 102.648C87.0401 101.604 85.105 103.208 84.1477 104.549Z" fill="#3450A1"/>
</svg>
