<svg width="200" height="200" viewBox="0 0 200 200" fill="none" xmlns="http://www.w3.org/2000/svg">
<circle cx="100" cy="100" r="100" fill="#F2F2F2"/>
<path d="M132.589 69.2207H118.347V89.8647H132.589V69.2207Z" fill="#E0E0E0"/>
<path d="M131.876 69.2207H117.634V89.8647H131.876V69.2207Z" fill="#C1C1C1"/>
<path d="M130.107 71.4551H119.403V87.6289H130.107V71.4551Z" fill="white"/>
<path d="M130.104 87.6256C130.104 87.6256 130.104 87.6001 130.104 87.549V87.3189C130.104 87.1145 130.104 86.8191 130.104 86.4328C130.104 85.6575 130.104 84.5272 130.104 83.0987C130.104 80.2587 130.104 76.2089 130.087 71.4547L130.121 71.4888H119.42L119.46 71.449C119.46 77.5493 119.46 83.1754 119.46 87.62L119.429 87.5916H127.221H129.371H130.104H129.917H129.349H127.202H119.392H119.36V87.5603C119.36 83.1157 119.36 77.4897 119.36 71.3894V71.3496H130.138V71.3865C130.138 76.1521 130.124 80.1905 130.121 83.0561C130.121 84.4761 130.121 85.6121 130.121 86.3789C130.121 86.7623 130.121 87.0577 130.121 87.2593V87.4836C130.12 87.5315 130.115 87.579 130.104 87.6256Z" fill="#E0E0E0"/>
<path d="M131.916 69.2207C131.843 69.3511 131.759 69.4746 131.664 69.5899C131.499 69.8086 131.263 70.1096 130.996 70.4419C130.729 70.7742 130.476 71.0553 130.292 71.2598C130.196 71.3753 130.09 71.4827 129.977 71.5807C130.062 71.4555 130.157 71.3369 130.261 71.2257L130.948 70.3936L131.632 69.5615C131.717 69.4398 131.812 69.3257 131.916 69.2207Z" fill="#E0E0E0"/>
<path d="M130.161 87.5762C130.695 88.4219 131.321 89.2049 132.03 89.9107L130.161 87.5762Z" fill="white"/>
<path d="M132.03 89.9103C131.911 89.8278 131.801 89.7326 131.703 89.6263C131.455 89.3733 131.22 89.1079 130.999 88.8311C130.778 88.5583 130.571 88.2739 130.38 87.9791C130.294 87.8594 130.22 87.7309 130.161 87.5957C130.259 87.7051 130.348 87.8229 130.425 87.9479C130.581 88.1694 130.803 88.4704 131.059 88.7999C131.314 89.1293 131.564 89.4048 131.743 89.6064C131.846 89.7005 131.942 89.8021 132.03 89.9103Z" fill="#E0E0E0"/>
<path d="M117.634 89.8473L119.497 87.5469L117.634 89.8473Z" fill="white"/>
<path d="M119.497 87.5469C119.217 87.9532 118.917 88.3447 118.597 88.7198C118.08 89.356 117.648 89.8558 117.634 89.8558C117.913 89.4482 118.213 89.0557 118.534 88.68C118.836 88.2863 119.157 87.9081 119.497 87.5469Z" fill="#E0E0E0"/>
<path d="M117.634 69.2207C117.956 69.5641 118.258 69.9253 118.54 70.3027C118.843 70.6664 119.128 71.0456 119.392 71.4387C119.07 71.0954 118.767 70.7341 118.486 70.3567C118.181 69.9942 117.896 69.6149 117.634 69.2207Z" fill="#E0E0E0"/>
<path d="M126.773 74.7383H123.188V84.914H126.773V74.7383Z" fill="#C1C1C1"/>
<path d="M104.26 126.98C103.612 127.194 103.014 127.537 102.502 127.987C101.989 128.437 101.573 128.987 101.278 129.602C100.696 130.837 100.404 132.189 100.426 133.555C100.392 136.188 101.531 138.993 102.854 141.268C105.282 139.638 106.208 136.378 106.575 134.694C107.143 132.03 106.575 126.87 104.263 126.98" fill="#F5F5F5"/>
<path d="M99.7704 145.234C100.014 144.51 100.063 143.735 99.91 142.987C99.7573 142.238 99.4093 141.544 98.9013 140.974C98.3854 140.414 97.763 139.962 97.0706 139.645C96.3782 139.328 95.6296 139.152 94.8685 139.128C94.167 139.091 93.3889 139.199 92.9174 139.721C92.7122 139.979 92.5796 140.287 92.5331 140.613C92.4867 140.939 92.5282 141.271 92.6533 141.576C92.9125 142.183 93.328 142.712 93.8575 143.107C95.5984 144.527 97.5495 145.597 99.7704 145.228" fill="#F5F5F5"/>
<path d="M101.591 151.561C101.624 150.98 101.597 150.398 101.511 149.823C101.442 149.19 101.297 148.569 101.08 147.971C100.836 147.236 100.545 146.518 100.208 145.821C99.5858 144.541 98.657 143.435 97.5042 142.6C97.1475 142.357 96.7668 142.15 96.3682 141.984C96.226 141.916 96.0733 141.872 95.9166 141.854C95.8939 141.902 96.5272 142.138 97.3707 142.768C98.4488 143.627 99.322 144.716 99.9267 145.954C100.257 146.64 100.55 147.344 100.804 148.062C101.026 148.64 101.188 149.24 101.287 149.851C101.463 150.905 101.545 151.566 101.591 151.561Z" fill="#E0E0E0"/>
<path d="M104.348 130.957C104.257 131.235 104.19 131.52 104.149 131.809C104.041 132.377 103.896 133.172 103.726 134.169C103.382 136.157 102.942 138.923 102.527 141.985C102.113 145.046 101.82 147.827 101.65 149.846C101.565 150.854 101.505 151.669 101.474 152.234C101.44 152.527 101.434 152.821 101.457 153.115C101.525 152.829 101.569 152.539 101.587 152.246C101.658 151.629 101.749 150.826 101.871 149.866C102.096 147.855 102.422 145.08 102.834 142.025C103.246 138.969 103.655 136.254 103.945 134.2C104.081 133.24 104.192 132.44 104.277 131.829C104.325 131.541 104.349 131.249 104.348 130.957Z" fill="#E0E0E0"/>
<path d="M102.939 146.648C103.61 145.188 104.619 143.908 105.883 142.915C107.147 141.923 108.629 141.245 110.207 140.94C111.008 140.792 111.996 140.82 112.436 141.508C112.876 142.195 112.49 143.109 112.005 143.78C110.965 145.131 109.549 146.144 107.935 146.693C106.321 147.241 104.581 147.3 102.934 146.861" fill="#F5F5F5"/>
<path d="M109.088 143.055C108.933 143.062 108.781 143.095 108.636 143.151C108.352 143.231 107.94 143.37 107.443 143.555C106.129 144.032 104.914 144.749 103.859 145.667C103.291 146.193 102.811 146.806 102.439 147.485C102.142 148.042 101.923 148.637 101.789 149.254C101.698 149.667 101.645 150.087 101.63 150.51C101.604 150.663 101.604 150.819 101.63 150.973C101.69 150.973 101.712 150.317 101.976 149.306C102.323 147.989 103.043 146.8 104.05 145.883C105.083 144.991 106.253 144.27 107.514 143.748C108.494 143.324 109.111 143.1 109.088 143.055Z" fill="#E0E0E0"/>
<path d="M158.388 77.2124C158.388 77.2124 155.412 76.3348 154.208 83.1764C153.004 90.0179 152.907 93.7866 152.907 93.7866C152.907 93.7866 152.489 95.2719 151.388 94.721C150.286 94.17 148.414 92.2303 147.093 93.088C145.722 93.9769 145.742 95.8058 146.784 98.1801C147.826 100.554 149.908 105.848 150.101 106.325C150.294 106.802 150.226 107.589 149.417 107.336C148.607 107.083 143.453 103.977 142.118 106.533C140.783 109.089 144.776 115.212 145.199 115.905C145.622 116.597 145.574 116.944 145.279 117.234C144.983 117.523 143.348 116.316 141.842 115.493C140.337 114.669 138.449 113.979 137.807 115.507C137.165 117.035 138.375 122.187 145.708 128.92L149.303 131.817L153.657 130.215C162.765 126.217 165.585 121.741 165.477 120.085C165.369 118.429 163.352 118.461 161.663 118.745C159.973 119.029 158.033 119.65 157.846 119.278C157.658 118.906 157.732 118.551 158.354 118.046C158.976 117.54 164.738 113.019 164.304 110.188C163.869 107.356 157.979 108.626 157.13 108.603C156.281 108.58 156.485 107.811 156.809 107.427C157.133 107.044 160.833 102.707 162.589 100.796C164.344 98.8844 164.954 97.1634 163.946 95.8768C162.975 94.6358 160.572 95.8768 159.354 96.0302C158.135 96.1836 158.218 94.6556 158.218 94.6556C158.218 94.6556 159.354 91.0602 160.424 84.1931C161.495 77.326 158.323 77.2067 158.323 77.2067" fill="#B6C5E0"/>
<path d="M157.299 83.3438C157.299 83.3438 157.299 83.392 157.285 83.4886L157.226 83.9117C157.169 84.2895 157.086 84.8376 156.984 85.5362C156.771 86.9562 156.45 88.9897 156.044 91.5002C155.232 96.5412 154.056 103.494 152.724 111.17C151.392 118.847 150.197 125.796 149.359 130.831C148.941 133.345 148.603 135.375 148.371 136.795C148.254 137.494 148.163 138.039 148.087 138.417C148.055 138.596 148.033 138.735 148.013 138.837C147.993 138.94 147.981 138.979 147.981 138.979C147.981 138.979 147.981 138.931 147.998 138.835C148.016 138.738 148.033 138.593 148.055 138.411C148.112 138.034 148.194 137.486 148.297 136.787C148.51 135.367 148.831 133.333 149.237 130.823C150.049 125.782 151.225 118.827 152.56 111.15C153.894 103.474 155.096 96.527 155.948 91.4803C156.362 88.9669 156.7 86.9363 156.936 85.5163L157.206 83.8947L157.28 83.4744C157.284 83.4305 157.291 83.3869 157.299 83.3438Z" fill="#E0E0E0"/>
<path d="M149.604 95.916C149.681 95.9961 149.75 96.0847 149.808 96.1801C149.933 96.3562 150.092 96.6147 150.314 96.9356C150.731 97.5803 151.285 98.4834 151.876 99.4916L153.378 102.084L153.835 102.865C153.9 102.953 153.953 103.048 153.991 103.149C153.912 103.071 153.843 102.983 153.784 102.888C153.662 102.712 153.5 102.454 153.284 102.13C152.872 101.48 152.33 100.568 151.739 99.5597L150.22 96.9782C150.038 96.6715 149.882 96.4102 149.757 96.1972C149.694 96.1106 149.642 96.0161 149.604 95.916Z" fill="#E0E0E0"/>
<path d="M154.423 103.123C154.398 103.086 156.212 101.865 158.476 100.391C160.739 98.9173 162.588 97.7557 162.614 97.7898C162.639 97.8239 160.822 99.0508 158.561 100.522C156.3 101.993 154.446 103.155 154.423 103.123Z" fill="#E0E0E0"/>
<path d="M151.85 114.815C151.952 114.764 152.06 114.725 152.171 114.698L153.057 114.428C153.804 114.198 154.837 113.88 155.962 113.485C157.087 113.091 158.098 112.707 158.827 112.42L159.679 112.083C159.783 112.032 159.893 111.996 160.006 111.975C159.912 112.039 159.811 112.094 159.705 112.136C159.506 112.233 159.219 112.367 158.853 112.523C158.137 112.835 157.132 113.241 156.013 113.633C154.894 114.025 153.843 114.332 153.088 114.533C152.707 114.633 152.401 114.71 152.185 114.758C152.076 114.79 151.963 114.809 151.85 114.815Z" fill="#E0E0E0"/>
<path d="M146.057 109.258C146.147 109.312 146.231 109.377 146.307 109.451C146.46 109.582 146.681 109.775 146.948 110.019C147.488 110.505 148.224 111.18 149.03 111.933C149.837 112.686 150.561 113.376 151.081 113.881C151.339 114.131 151.546 114.339 151.688 114.483C151.767 114.554 151.837 114.633 151.899 114.719C151.807 114.668 151.722 114.604 151.649 114.529C151.492 114.398 151.274 114.202 151.004 113.961C150.467 113.478 149.729 112.802 148.922 112.047C148.116 111.291 147.391 110.604 146.875 110.101C146.613 109.849 146.406 109.644 146.264 109.496C146.185 109.426 146.115 109.346 146.057 109.258Z" fill="#E0E0E0"/>
<path d="M142.473 119.295C142.587 119.366 142.694 119.45 142.791 119.545L143.617 120.269C144.31 120.885 145.259 121.743 146.304 122.7C147.349 123.657 148.292 124.529 148.959 125.165L149.752 125.926C149.855 126.011 149.951 126.106 150.036 126.21C149.922 126.137 149.816 126.053 149.717 125.96L148.891 125.236C148.198 124.62 147.25 123.759 146.204 122.805C145.159 121.851 144.216 120.976 143.552 120.34L142.751 119.596C142.648 119.506 142.555 119.405 142.473 119.295Z" fill="#E0E0E0"/>
<path d="M149.894 126.004C150.022 125.941 150.156 125.888 150.294 125.848L151.407 125.465C152.344 125.141 153.64 124.689 155.057 124.153C156.474 123.616 157.743 123.099 158.658 122.718L159.746 122.267C159.876 122.205 160.012 122.156 160.152 122.119C160.032 122.201 159.905 122.269 159.771 122.324C159.521 122.446 159.158 122.608 158.703 122.818C157.797 123.227 156.531 123.761 155.111 124.297C153.691 124.834 152.39 125.277 151.441 125.561C150.967 125.709 150.589 125.822 150.305 125.896C150.172 125.946 150.034 125.982 149.894 126.004Z" fill="#E0E0E0"/>
<path d="M58.4907 137.871C65.0483 134.128 67.1783 126.267 67.5788 119.062C67.6469 117.857 67.894 116.608 67.4197 115.503C66.9454 114.398 65.6816 113.558 64.5627 113.964C63.634 114.302 63.1427 115.301 62.5747 116.114C61.8039 117.195 60.7437 118.036 59.516 118.542C58.7151 118.868 57.7495 119.022 57.0338 118.542C56.0512 117.874 56.0597 116.435 56.1818 115.245C56.4071 113.018 56.6239 110.795 56.8322 108.576C56.9486 107.386 57.0651 106.168 56.7981 105.004C56.5312 103.839 55.807 102.709 54.7022 102.288C53.5974 101.868 52.132 102.391 51.7855 103.538C51.6435 104.015 51.6946 104.526 51.618 105.018C51.5413 105.509 51.2573 106.037 50.766 106.134C50.2746 106.23 49.8316 105.85 49.5078 105.466C48.3718 104.149 47.6931 102.521 47.0541 100.905C46.4151 99.2894 45.8016 97.6451 44.8048 96.2279C43.808 94.8108 42.3596 93.6322 40.6612 93.3879C38.9629 93.1437 37.0459 94.0241 36.4609 95.6599C35.8758 97.2958 36.6966 99.0963 37.6395 100.556C39.0458 102.716 40.756 104.663 42.7174 106.335C43.0696 106.637 43.4501 106.963 43.5694 107.418C43.754 108.235 42.9276 108.957 42.121 109.147C41.2037 109.36 40.2466 109.178 39.3094 109.204C38.3722 109.229 37.3214 109.545 36.8926 110.394C36.2905 111.567 37.1936 112.95 38.1194 113.867C39.9749 115.728 42.1376 117.255 44.5123 118.38C45.3643 118.78 46.256 119.147 46.9064 119.828C47.5568 120.51 47.8862 121.62 47.3835 122.421C46.8808 123.222 45.7562 123.393 44.8531 123.137C43.95 122.881 43.1746 122.308 42.3283 121.899C40.7464 121.129 38.6193 121.047 37.4407 122.367C36.6654 123.236 36.4864 124.526 36.7335 125.667C36.9806 126.809 37.5997 127.831 38.27 128.791C40.613 132.114 43.7483 134.903 47.4318 136.57C51.1153 138.237 54.6 138.916 58.5078 137.882" fill="#B6C5E0"/>
<path d="M58.0988 143.204C58.0687 139.843 57.7178 136.491 57.0508 133.196C56.2156 129.173 55.1507 125.201 53.8615 121.3L52.8561 118.23C52.5267 117.221 52.2001 116.222 51.8195 115.262C51.0879 113.423 50.2545 111.626 49.3232 109.88C48.4456 108.207 47.5539 106.651 46.7075 105.202C45.8612 103.754 45.0405 102.419 44.2453 101.226C42.9973 99.3547 41.6032 97.5846 40.0761 95.9327C39.5365 95.3476 39.1049 94.9074 38.8067 94.6121L38.4659 94.2798C38.4282 94.2406 38.3873 94.2045 38.3438 94.1719C38.3757 94.2151 38.4109 94.2559 38.4488 94.294L38.7754 94.6433C39.0594 94.9472 39.4854 95.3988 40.0137 95.9923C41.5132 97.6649 42.885 99.4478 44.1175 101.326C44.9041 102.51 45.7107 103.848 46.5513 105.302C47.392 106.756 48.2781 108.312 49.1471 109.982C50.0714 111.721 50.9009 113.508 51.6321 115.336C52.007 116.29 52.3308 117.281 52.6574 118.292C52.984 119.303 53.3162 120.325 53.6542 121.365C54.9389 125.257 56.0065 129.217 56.852 133.228C57.5255 136.509 57.8906 139.846 57.9426 143.196" fill="#E0E0E0"/>
<path d="M51.7686 115.248C51.844 115.09 51.8993 114.923 51.9333 114.751C52.027 114.427 52.1434 113.956 52.2826 113.368C52.5666 112.195 52.8875 110.565 53.2425 108.764C53.5975 106.964 53.9468 105.342 54.2422 104.178C54.387 103.61 54.5092 103.124 54.6 102.8C54.6555 102.634 54.6936 102.463 54.7136 102.289C54.6295 102.443 54.5637 102.606 54.5177 102.775C54.4041 103.093 54.2564 103.559 54.0917 104.138C53.7566 105.294 53.3817 106.918 53.0267 108.722L52.1292 113.348C52.0185 113.902 51.9248 114.37 51.8452 114.745C51.8039 114.91 51.7782 115.078 51.7686 115.248Z" fill="#E0E0E0"/>
<path d="M36.6992 110.979C36.8968 111.039 37.0992 111.082 37.3041 111.107C37.6961 111.178 38.2612 111.277 38.9542 111.425C40.3458 111.709 42.2514 112.158 44.3331 112.751C46.4149 113.345 48.2751 113.97 49.6099 114.455C50.2773 114.694 50.814 114.901 51.1832 115.043C51.3712 115.129 51.5671 115.197 51.7683 115.245C51.5944 115.132 51.4099 115.037 51.2173 114.961C50.8566 114.793 50.3284 114.563 49.6638 114.305C48.3404 113.777 46.483 113.132 44.3928 112.533C42.6124 112.017 40.8066 111.593 38.9826 111.263C38.2839 111.138 37.7131 111.062 37.3183 111.016C37.1138 110.983 36.9063 110.971 36.6992 110.979Z" fill="#E0E0E0"/>
<path d="M56.8857 132.899C56.9351 132.846 56.9763 132.785 57.0079 132.72L57.3231 132.189C57.6071 131.729 57.9649 131.053 58.4137 130.201C59.3139 128.514 60.4869 126.143 61.7421 123.507C62.9974 120.872 64.1448 118.492 65.011 116.788L66.0391 114.771L66.3231 114.22C66.358 114.157 66.3857 114.091 66.4054 114.021C66.3575 114.075 66.3164 114.134 66.2833 114.198L65.9709 114.729C65.7011 115.192 65.3291 115.865 64.8775 116.717C63.9772 118.406 62.8071 120.778 61.549 123.413C60.2909 126.049 59.1464 128.426 58.283 130.133L57.2521 132.149L56.9681 132.7C56.9316 132.762 56.9039 132.829 56.8857 132.899Z" fill="#E0E0E0"/>
<path d="M37.1143 124.465C37.1743 124.508 37.2403 124.543 37.3102 124.567L37.8782 124.82L39.994 125.729C41.7832 126.493 44.254 127.58 46.952 128.784C49.65 129.989 52.1322 131.056 53.9384 131.784C54.8387 132.15 55.5714 132.437 56.0826 132.636L56.6705 132.851C56.738 132.879 56.8086 132.899 56.8807 132.911C56.822 132.867 56.7568 132.833 56.6875 132.809L56.1195 132.556L53.9924 131.639C52.2032 130.872 49.7324 129.784 47.0344 128.58C44.3364 127.376 41.8514 126.308 40.048 125.581C39.1477 125.217 38.415 124.928 37.9038 124.729L37.3159 124.516C37.2509 124.491 37.1832 124.474 37.1143 124.465Z" fill="#E0E0E0"/>
<path d="M78.6553 52.2031V75.6445H44.9899L43.7744 52.3678L78.6553 52.2031Z" fill="#E0E0E0"/>
<path d="M43.7744 52.3702V75.5957H77.4398V52.3702H43.7744Z" fill="#F7B36F"/>
<path d="M77.6005 75.7554H43.6143V52.209H77.6005V75.7554ZM43.9352 75.4345H77.2796V52.5271H43.9352V75.4345Z" fill="#E0E0E0"/>
<path d="M73.7931 55.2539H47.4209V72.7085H73.7931V55.2539Z" fill="white"/>
<path d="M73.7956 55.2528H73.665H73.3043H71.8559L66.4201 55.2727L47.4347 55.3096L47.5114 55.2329C47.5114 60.5665 47.5114 66.4765 47.5114 72.6876L47.4262 72.6052L73.8013 72.6223L73.7331 72.6876C73.7501 67.3768 73.7615 63.0316 73.77 59.9899C73.77 58.4734 73.77 57.2891 73.7871 56.4769C73.7871 56.0764 73.7871 55.7669 73.7871 55.5539C73.7871 55.3409 73.7871 55.2329 73.7871 55.2329C73.7871 55.2329 73.7871 55.3352 73.7871 55.5396C73.7871 55.7441 73.7871 56.0537 73.7871 56.4513C73.7871 57.2579 73.7871 58.4393 73.8041 59.9473C73.8041 62.989 73.824 67.3597 73.8382 72.6876V72.7557H73.7729L47.3978 72.7728H47.3154V72.6876C47.3154 66.4765 47.3154 60.5665 47.3154 55.2329V55.1562H47.3893L66.4173 55.196L71.836 55.2159H73.256H73.6224L73.7956 55.2528Z" fill="#E0E0E0"/>
<path d="M43.768 52.3027C43.9712 52.4053 44.1618 52.5311 44.336 52.6776C44.6825 52.9275 45.1511 53.2797 45.6566 53.6858C46.1622 54.0919 46.608 54.4725 46.9233 54.7593C47.1038 54.9028 47.2651 55.0689 47.4032 55.2535C47.372 55.2904 46.5512 54.623 45.5516 53.8136C44.5519 53.0042 43.7453 52.3425 43.768 52.3027Z" fill="#E0E0E0"/>
<path d="M77.4425 52.3672C76.8886 52.9116 76.2963 53.4156 75.6703 53.8752C75.0794 54.3788 74.453 54.8391 73.7959 55.2526C74.3534 54.7089 74.9485 54.205 75.5766 53.7446C76.165 53.2417 76.7886 52.7814 77.4425 52.3672Z" fill="#E0E0E0"/>
<path d="M77.4138 75.5992L73.6621 72.5547L77.4138 75.5992Z" fill="white"/>
<path d="M73.662 72.5547C74.336 72.9975 74.9802 73.4842 75.5904 74.0116C76.2343 74.4978 76.8435 75.0283 77.4136 75.5992C76.7388 75.1574 76.0946 74.6707 75.4853 74.1422C74.4402 73.3044 73.6308 72.5916 73.662 72.5547Z" fill="#E0E0E0"/>
<path d="M43.7686 75.5953C44.3171 75.0561 44.9037 74.5569 45.5237 74.1015C46.1089 73.6039 46.7287 73.1484 47.3782 72.7383C46.831 73.278 46.2454 73.7772 45.6259 74.2321C45.0397 74.7298 44.4191 75.1853 43.7686 75.5953Z" fill="#E0E0E0"/>
<path d="M52.7764 60.6943V66.5391H69.3705V60.6943H52.7764Z" fill="#E0E0E0"/>
<path d="M156.392 46.7559H138.392V72.8469H156.392V46.7559Z" fill="#E0E0E0"/>
<path d="M155.491 46.7559H137.491V72.8469H155.491V46.7559Z" fill="#455A64"/>
<path d="M153.253 49.582H139.726V70.0215H153.253V49.582Z" fill="white"/>
<path d="M153.256 70.021C153.256 70.021 153.256 69.9869 153.256 69.9216V69.6376C153.256 69.3791 153.256 69.0042 153.256 68.5158C153.256 67.536 153.256 66.1103 153.256 64.3069C153.256 60.7029 153.241 55.5966 153.233 49.5872L153.278 49.6326H139.726L139.777 49.5843C139.777 57.2949 139.777 64.4034 139.777 70.0323L139.737 69.9926L149.583 70.0153H152.304H153.02H153.267H153.028H152.321H149.609L139.737 70.0352H139.7V69.9954C139.7 64.375 139.7 57.2665 139.7 49.5474V49.5332H153.332V49.5786C153.332 55.6023 153.318 60.7143 153.312 64.3268C153.312 66.1245 153.312 67.5502 153.298 68.5271C153.298 69.0099 153.298 69.3791 153.298 69.6376V69.9216C153.256 69.9897 153.256 70.021 153.256 70.021Z" fill="#E0E0E0"/>
<path d="M155.542 46.7559C155.45 46.9213 155.343 47.0773 155.221 47.2216C155.011 47.5056 154.715 47.8833 154.369 48.2951C154.022 48.7069 153.713 49.0705 153.477 49.3289C153.36 49.4744 153.231 49.6094 153.091 49.7322C153.192 49.5728 153.307 49.4227 153.434 49.2835L154.301 48.2327C154.627 47.8322 154.925 47.4715 155.167 47.179C155.28 47.0276 155.405 46.886 155.542 46.7559Z" fill="#E0E0E0"/>
<path d="M153.324 69.9551C153.998 71.0239 154.79 72.0137 155.684 72.9058L153.324 69.9551Z" fill="white"/>
<path d="M155.684 72.9058C155.534 72.7954 155.396 72.6697 155.272 72.531C155.031 72.2867 154.704 71.9374 154.38 71.5284C154.102 71.1782 153.841 70.8142 153.599 70.4379C153.489 70.287 153.393 70.1253 153.315 69.9551C153.438 70.0948 153.549 70.2439 153.648 70.401C153.847 70.685 154.125 71.0598 154.449 71.466C154.772 71.8721 155.085 72.2299 155.315 72.4827C155.448 72.6147 155.571 72.7561 155.684 72.9058Z" fill="#E0E0E0"/>
<path d="M137.488 72.8261L139.845 69.918L137.488 72.8261Z" fill="white"/>
<path d="M139.846 69.918C139.494 70.433 139.115 70.9288 138.71 71.4033C138.056 72.2042 137.511 72.8432 137.491 72.8233C137.844 72.3087 138.223 71.8129 138.627 71.338C139.008 70.8438 139.415 70.3699 139.846 69.918Z" fill="#E0E0E0"/>
<path d="M137.488 46.7559C137.891 47.1914 138.27 47.6484 138.624 48.1247C139.005 48.5788 139.362 49.0528 139.692 49.5447C139.288 49.11 138.909 48.653 138.556 48.1759C138.175 47.7218 137.819 47.2478 137.488 46.7559Z" fill="#E0E0E0"/>
<path d="M149.042 53.7305H144.512V66.59H149.042V53.7305Z" fill="#B6C5E0"/>
<path d="M160.188 153.109C160.188 153.152 132.521 153.183 98.4041 153.183C64.2872 153.183 36.6143 153.163 36.6143 153.109C36.6143 153.055 64.273 153.035 98.4041 153.035C132.535 153.035 160.188 153.081 160.188 153.109Z" fill="#263238"/>
<path d="M125.475 103.975C125.686 104.832 125.661 105.731 125.404 106.576C125.146 107.42 124.666 108.18 124.012 108.774C123.146 109.541 122.024 109.984 121.229 110.828C120.737 111.388 120.398 112.067 120.247 112.798C120.095 113.529 120.135 114.286 120.363 114.997C120.604 115.702 120.986 116.351 121.485 116.905C121.985 117.458 122.591 117.905 123.268 118.217C124.19 118.648 125.2 118.854 126.217 118.82C127.234 118.785 128.228 118.511 129.119 118.018C131.314 116.777 132.592 114.287 132.916 111.785C133.239 109.283 132.731 106.749 132.064 104.315" fill="#263238"/>
<path d="M153.162 148.095C155.434 147.723 157.564 148.416 159.813 148.913C160.411 149.09 161.043 149.125 161.657 149.013C162.631 148.763 163.324 147.814 163.474 146.82C163.596 145.949 163.394 145.064 162.906 144.332C162.711 144.017 162.444 143.751 162.128 143.557C161.789 143.387 161.419 143.29 161.04 143.273C159.662 143.162 158.279 143.423 157.036 144.028C155.796 144.631 154.672 145.446 153.713 146.437C153.236 146.914 153.378 147.462 153.168 148.104" fill="#263238"/>
<path d="M107.1 111.425C106.736 109.259 106.78 107.043 107.231 104.893C107.421 103.842 107.807 102.835 108.367 101.925C108.558 101.586 108.848 101.313 109.199 101.144C109.454 101.06 109.727 101.047 109.988 101.109C110.25 101.171 110.489 101.304 110.679 101.493C110.921 101.746 111.108 102.047 111.225 102.377C111.343 102.707 111.389 103.058 111.36 103.408C111.31 104.106 111.139 104.79 110.855 105.43C109.977 107.673 108.583 109.536 107.092 111.422" fill="#263238"/>
<path d="M151.12 119.635C151.634 120.001 163.048 144.587 163.048 144.587C162.13 144.195 161.113 144.096 160.137 144.303L159.518 144.468C158.409 144.766 157.359 145.245 156.408 145.888L153.15 148.092C153.021 148.017 152.912 147.914 152.832 147.789C152.751 147.664 152.702 147.521 152.687 147.373V147.279L143.838 132.091L151.12 119.635Z" fill="#FF725E"/>
<path d="M108.261 80.4941L111.305 97.7983C112.285 100.127 123.711 114.236 123.711 114.236L119.933 126.374L104.927 105.855C103.533 104.365 102.775 102.391 102.814 100.351L103.399 81.863L108.261 80.4941Z" fill="#FFBE9D"/>
<path d="M124.463 111.523L132.299 112.117L139.132 113.176C139.132 113.176 151.12 116.326 151.12 117.638C151.12 118.075 147.848 128.495 146.008 134.738C145.557 136.254 145.189 137.793 144.906 139.35L151.12 153.107H121.632V140.494C121.632 140.494 119.644 123.929 119.993 121.665C120.343 119.402 124.463 111.523 124.463 111.523Z" fill="#FF725E"/>
<path d="M104.544 73.5025C104.59 71.74 104.77 69.9836 105.084 68.2485C105.126 68.0014 105.228 67.7032 105.475 67.6805C105.782 67.6408 105.938 68.0355 105.978 68.3422C106.25 70.4347 106.163 72.5584 105.72 74.6215" fill="#EB996E"/>
<path d="M108.037 110.144C111.399 107.139 111.513 101.933 111.226 97.7899C111.17 97.4873 111.216 97.1746 111.357 96.901C111.678 96.4437 112.459 96.617 112.777 97.077C113.095 97.5371 113.061 98.142 113.044 98.6987C113.217 98.2272 113.955 98.2301 114.302 98.5936C114.648 98.9571 114.708 99.5052 114.748 100.014L114.858 101.4L124.682 110.772C124.682 110.772 124.952 109.92 125.673 110.411C126.394 110.902 126.86 111.939 126.86 111.939L119.939 127.045L107.094 111.425C107.341 110.952 107.659 110.52 108.037 110.144Z" fill="#FF725E"/>
<path d="M121.368 120.598C120.343 121.905 119.578 123.396 119.113 124.991C118.65 126.596 118.701 128.306 119.258 129.882C119.689 130.971 120.396 131.931 121.308 132.667C122.22 133.402 123.308 133.889 124.464 134.079" fill="#FF725E"/>
<path d="M153.162 148.095L152.79 153.108H160.069L161.773 144.233C159.556 144.109 157.369 144.794 155.619 146.161L153.162 148.095Z" fill="#FFBE9D"/>
<path d="M111.459 109.034C111.5 108.896 111.553 108.762 111.618 108.634C111.732 108.384 111.885 108.015 112.058 107.554C112.231 107.094 112.416 106.538 112.589 105.913C112.769 105.231 112.912 104.54 113.018 103.843C113.116 103.145 113.176 102.442 113.197 101.738C113.197 101.088 113.197 100.503 113.157 100.011C113.118 99.5201 113.081 99.1253 113.044 98.8527C113.019 98.711 113.006 98.5676 113.004 98.4238C113.05 98.5603 113.082 98.7012 113.101 98.8441C113.174 99.2274 113.228 99.6141 113.262 100.003C113.318 100.58 113.342 101.161 113.333 101.741C113.312 103.164 113.106 104.577 112.72 105.947C112.561 106.505 112.372 107.054 112.152 107.591C111.965 108.051 111.797 108.415 111.666 108.659C111.607 108.789 111.537 108.915 111.459 109.034Z" fill="#263238"/>
<path d="M113.598 106.394C113.69 106.15 113.796 105.911 113.916 105.679C114.413 104.526 114.701 103.294 114.768 102.041C114.767 101.78 114.782 101.519 114.81 101.26C114.866 101.517 114.887 101.781 114.873 102.044C114.863 103.317 114.572 104.573 114.021 105.721C113.912 105.965 113.77 106.191 113.598 106.394Z" fill="#263238"/>
<path d="M125.134 114.251C125.112 114.237 125.231 114.053 125.299 113.717C125.379 113.279 125.353 112.829 125.225 112.402C125.09 111.973 124.926 111.554 124.734 111.147C124.644 110.979 124.577 110.799 124.535 110.613C124.648 110.765 124.743 110.929 124.819 111.102C125.044 111.502 125.226 111.924 125.362 112.363C125.497 112.811 125.508 113.289 125.393 113.743C125.357 113.934 125.267 114.11 125.134 114.251Z" fill="#263238"/>
<path d="M123.427 134.256C123.383 134.238 123.341 134.214 123.302 134.185L122.967 133.963C122.683 133.768 122.26 133.481 121.766 133.092C121.182 132.642 120.647 132.13 120.172 131.567C119.588 130.868 119.167 130.048 118.94 129.167C118.723 128.285 118.667 127.371 118.775 126.469C118.862 125.737 119.025 125.017 119.261 124.319C119.417 123.849 119.598 123.387 119.803 122.936C119.877 122.777 119.934 122.652 119.976 122.572C119.995 122.528 120.019 122.486 120.047 122.447C119.994 122.621 119.93 122.792 119.857 122.958C119.729 123.282 119.545 123.754 119.36 124.35C119.142 125.045 118.992 125.759 118.911 126.483C118.813 127.368 118.87 128.264 119.082 129.13C119.303 129.992 119.711 130.795 120.277 131.481C120.742 132.042 121.263 132.554 121.831 133.009C122.314 133.407 122.72 133.705 123.001 133.918L123.319 134.162C123.393 134.219 123.43 134.25 123.427 134.256Z" fill="#263238"/>
<path d="M139.516 137.065C139.477 137.085 139.435 137.101 139.391 137.11C139.306 137.133 139.184 137.175 139.022 137.207C138.564 137.306 138.098 137.362 137.63 137.374C136.07 137.422 134.53 137.002 133.211 136.167C131.891 135.332 130.852 134.122 130.226 132.691C130.036 132.263 129.886 131.818 129.781 131.362C129.741 131.2 129.727 131.078 129.71 130.987C129.7 130.943 129.695 130.898 129.695 130.854C129.753 131.014 129.801 131.178 129.837 131.345C130.289 133.06 131.302 134.574 132.713 135.647C134.125 136.721 135.854 137.292 137.627 137.269C138.091 137.267 138.553 137.227 139.011 137.15C139.177 137.113 139.346 137.084 139.516 137.065Z" fill="#263238"/>
<path d="M144.034 142.6C143.994 142.6 144.369 141.018 144.886 139.093C145.403 137.167 145.829 135.614 145.866 135.625C145.903 135.636 145.531 137.204 145.028 139.13C144.525 141.055 144.074 142.6 144.034 142.6Z" fill="#263238"/>
<path d="M147.996 139.252C147.962 139.272 146.82 137.406 145.44 135.083C144.06 132.76 142.981 130.86 143.018 130.84C143.054 130.82 144.193 132.683 145.574 135.006C146.954 137.329 148.044 139.229 147.996 139.252Z" fill="#263238"/>
<path d="M158.899 143.849C158.899 143.878 158.484 143.912 157.837 144.076C157.458 144.172 157.087 144.295 156.726 144.443C156.286 144.629 155.86 144.849 155.454 145.102C155.053 145.36 154.673 145.649 154.318 145.968C154.028 146.232 153.758 146.517 153.508 146.82C153.082 147.334 152.872 147.694 152.847 147.672C152.881 147.58 152.926 147.492 152.98 147.41C153.112 147.178 153.261 146.956 153.426 146.746C153.669 146.432 153.936 146.138 154.224 145.866C154.581 145.535 154.967 145.236 155.377 144.974C155.791 144.717 156.226 144.496 156.678 144.315C157.046 144.169 157.426 144.054 157.814 143.971C158.074 143.911 158.337 143.871 158.603 143.852C158.701 143.837 158.801 143.836 158.899 143.849Z" fill="#263238"/>
<path d="M160.29 142.139C160.29 142.17 159.833 142.113 159.103 142.176C158.677 142.214 158.255 142.288 157.842 142.397C156.828 142.666 155.881 143.141 155.059 143.792C154.724 144.058 154.413 144.351 154.127 144.669C153.641 145.215 153.414 145.612 153.389 145.598C153.427 145.497 153.477 145.402 153.539 145.314C153.6 145.204 153.668 145.099 153.744 144.999C153.838 144.861 153.94 144.728 154.048 144.601C154.327 144.268 154.637 143.962 154.973 143.687C155.39 143.353 155.839 143.062 156.314 142.818C156.792 142.584 157.292 142.399 157.808 142.267C158.23 142.161 158.662 142.095 159.097 142.071C159.263 142.062 159.429 142.062 159.594 142.071C159.72 142.071 159.846 142.079 159.972 142.093C160.079 142.095 160.186 142.11 160.29 142.139Z" fill="#263238"/>
<g opacity="0.3">
<path d="M129.999 131.459C129.332 132.726 129.889 134.271 130.499 135.568C130.973 136.574 131.502 137.593 132.365 138.295C132.789 138.642 133.281 138.897 133.808 139.045C134.336 139.193 134.888 139.23 135.431 139.154C135.974 139.079 136.495 138.891 136.962 138.605C137.429 138.318 137.831 137.938 138.144 137.488C136.334 137.461 134.574 136.887 133.096 135.842C131.618 134.796 130.491 133.328 129.863 131.629" fill="black"/>
</g>
<g opacity="0.3">
<path d="M143.038 130.838C142.526 132.056 142.913 133.723 143.447 134.93C143.981 136.137 144.549 137.486 144.12 138.739C144.009 138.961 143.952 139.206 143.952 139.454C143.981 139.699 144.236 139.934 144.466 139.821C144.585 139.737 144.667 139.611 144.696 139.469C145.1 138.253 145.504 137.039 145.909 135.825" fill="black"/>
</g>
<path d="M116.171 114.795C116.217 114.032 116.312 113.274 116.455 112.523C116.551 111.769 116.697 111.021 116.889 110.285C116.847 111.048 116.752 111.807 116.605 112.557C116.51 113.312 116.365 114.059 116.171 114.795Z" fill="#FAFAFA"/>
<path d="M113.181 114.168C113.144 114.191 112.655 113.509 111.979 112.725C111.303 111.941 110.707 111.354 110.735 111.322C111.245 111.695 111.701 112.134 112.093 112.629C112.521 113.092 112.886 113.61 113.181 114.168Z" fill="#FAFAFA"/>
<path d="M115.747 106.853C115.662 107.036 115.554 107.208 115.427 107.364C115.211 107.668 114.895 108.074 114.529 108.5C114.163 108.926 113.811 109.31 113.546 109.571C113.414 109.723 113.262 109.856 113.095 109.968C113.064 109.94 113.686 109.267 114.415 108.404C115.145 107.54 115.713 106.816 115.747 106.853Z" fill="#FAFAFA"/>
<path d="M114.745 103.276C114.703 103.293 114.541 102.932 114.228 102.572C113.916 102.211 113.581 102.004 113.604 101.961C113.899 102.046 114.158 102.227 114.339 102.475C114.558 102.691 114.7 102.972 114.745 103.276Z" fill="#FAFAFA"/>
<path d="M112.155 105.481C111.923 105.59 111.672 105.655 111.416 105.671C111.168 105.736 110.91 105.752 110.655 105.717C111.135 105.543 111.644 105.463 112.155 105.481Z" fill="#FAFAFA"/>
<path d="M118.69 108.636C118.697 108.194 118.666 107.752 118.597 107.315C118.479 106.889 118.324 106.474 118.134 106.074C118.456 106.405 118.667 106.828 118.739 107.284C118.86 107.729 118.843 108.201 118.69 108.636Z" fill="#FAFAFA"/>
<path d="M122.18 112.39C121.656 111.554 120.953 110.845 120.121 110.314C120.591 110.497 121.017 110.776 121.372 111.133C121.726 111.491 122.002 111.919 122.18 112.39Z" fill="#FAFAFA"/>
<path d="M116.577 118.905C115.731 119.222 114.795 119.19 113.973 118.817C113.987 118.774 114.541 118.953 115.271 118.973C116 118.993 116.566 118.863 116.577 118.905Z" fill="#FAFAFA"/>
<path d="M119.207 120.255C119.167 120.238 119.389 119.584 119.573 118.755C119.758 117.926 119.84 117.238 119.883 117.244C119.912 117.764 119.856 118.285 119.718 118.786C119.628 119.3 119.455 119.796 119.207 120.255Z" fill="#FAFAFA"/>
<path d="M124.952 120.473C124.503 120.093 124.088 119.675 123.711 119.223C123.296 118.805 122.916 118.352 122.575 117.871C123.023 118.253 123.437 118.672 123.813 119.124C124.229 119.542 124.61 119.993 124.952 120.473Z" fill="#FAFAFA"/>
<path d="M127.628 127.111C127.287 126.864 126.976 126.578 126.702 126.259C126.394 125.973 126.119 125.653 125.884 125.305C126.224 125.552 126.535 125.838 126.81 126.157C127.12 126.44 127.395 126.761 127.628 127.111Z" fill="#FAFAFA"/>
<path d="M122.655 127.744C122.329 128.092 121.944 128.38 121.519 128.596C121.119 128.863 120.675 129.055 120.207 129.164C120.207 129.125 120.775 128.88 121.445 128.48C122.116 128.079 122.627 127.71 122.655 127.744Z" fill="#FAFAFA"/>
<path d="M124.943 134.056C124.901 134.056 125.071 133.3 125.156 132.366C125.241 131.432 125.216 130.662 125.258 130.662C125.363 131.224 125.378 131.799 125.304 132.366C125.276 132.945 125.154 133.516 124.943 134.056Z" fill="#FAFAFA"/>
<path d="M133.552 128.926C133.083 128.638 132.666 128.272 132.322 127.844C131.942 127.447 131.635 126.987 131.416 126.483C131.453 126.458 131.842 127.074 132.433 127.747C133.023 128.42 133.58 128.889 133.552 128.926Z" fill="#FAFAFA"/>
<path d="M136.695 131.603C136.661 131.578 137.093 130.987 137.576 130.229C138.058 129.47 138.413 128.834 138.45 128.854C138.266 129.37 138.013 129.859 137.698 130.308C137.425 130.784 137.088 131.22 136.695 131.603Z" fill="#FAFAFA"/>
<path d="M136.236 125.048C135.266 124.887 134.314 124.63 133.396 124.281C133.885 124.34 134.368 124.444 134.838 124.594C135.318 124.698 135.786 124.85 136.236 125.048Z" fill="#FAFAFA"/>
<path d="M133.944 136.584C133.894 136.137 133.894 135.685 133.944 135.238C133.948 134.788 133.999 134.34 134.097 133.9C134.148 134.348 134.148 134.799 134.097 135.247C134.095 135.697 134.043 136.145 133.944 136.584Z" fill="#FAFAFA"/>
<path d="M135.926 140.535C136.075 140.076 136.194 139.609 136.284 139.135C136.323 138.654 136.331 138.171 136.306 137.689C136.453 138.162 136.495 138.661 136.429 139.151C136.363 139.642 136.192 140.112 135.926 140.529V140.535Z" fill="#FAFAFA"/>
<path d="M130.788 139.662C130.643 138.681 130.836 137.68 131.333 136.822C131.373 136.839 131.112 137.439 130.964 138.225C130.817 139.012 130.831 139.659 130.788 139.662Z" fill="#FAFAFA"/>
<path d="M126.102 141.664C125.639 141.343 125.193 140.997 124.767 140.628C124.311 140.297 123.872 139.944 123.452 139.568C123.963 139.823 124.44 140.139 124.872 140.511C125.326 140.846 125.738 141.233 126.102 141.664Z" fill="#FAFAFA"/>
<path d="M129.275 136.094C128.188 136.783 127.049 137.386 125.867 137.897C126.402 137.529 126.964 137.203 127.548 136.92C128.102 136.601 128.679 136.324 129.275 136.094Z" fill="#FAFAFA"/>
<path d="M139.132 148.597C139.072 148.616 139.01 148.632 138.947 148.642C138.825 148.665 138.646 148.71 138.413 148.742C137.756 148.842 137.091 148.885 136.425 148.869C134.707 148.844 133.014 148.455 131.457 147.728C129.9 147 128.516 145.951 127.394 144.649C126.743 143.9 126.185 143.074 125.733 142.19C125.425 141.597 125.17 140.979 124.972 140.341C124.895 140.116 124.858 139.938 124.824 139.818C124.805 139.757 124.793 139.694 124.787 139.631C124.814 139.688 124.836 139.748 124.852 139.81C124.895 139.926 124.94 140.094 125.026 140.324C125.57 141.881 126.409 143.318 127.496 144.558C128.621 145.83 129.993 146.859 131.529 147.583C133.064 148.306 134.732 148.708 136.428 148.764C137.092 148.789 137.757 148.762 138.416 148.685C138.652 148.662 138.831 148.625 138.953 148.614C139.012 148.601 139.072 148.596 139.132 148.597Z" fill="#263238"/>
<path d="M130.646 147.126C130.549 146.675 130.596 146.206 130.779 145.783C130.918 145.343 131.193 144.958 131.563 144.684C131.313 145.047 131.097 145.433 130.919 145.837C130.789 146.257 130.697 146.689 130.646 147.126Z" fill="#FAFAFA"/>
<path d="M128.31 146.15C128.04 146.359 127.792 146.595 127.571 146.855C127.387 147.141 127.231 147.444 127.105 147.761C127.115 147.401 127.236 147.053 127.452 146.764C127.667 146.476 127.967 146.261 128.31 146.15Z" fill="#FAFAFA"/>
<path d="M137.297 151.5C136.833 151.463 136.384 151.314 135.988 151.067C135.593 150.82 135.263 150.482 135.025 150.08C135.643 150.747 136.427 151.237 137.297 151.5Z" fill="#FAFAFA"/>
<path d="M138.695 143.633C138.636 144.05 138.459 144.442 138.187 144.764C137.914 145.086 137.556 145.324 137.153 145.45C137.485 145.221 137.793 144.96 138.073 144.669C138.316 144.346 138.524 143.999 138.695 143.633Z" fill="#FAFAFA"/>
<path d="M142.668 149.499C142.634 149.47 143.009 148.996 143.355 148.343C143.702 147.69 143.886 147.113 143.923 147.127C143.762 148.03 143.321 148.86 142.662 149.499H142.668Z" fill="#FAFAFA"/>
<path d="M147.919 150.268C147.936 150.31 147.419 150.515 146.899 150.943C146.38 151.372 146.067 151.832 146.03 151.795C146.193 151.404 146.462 151.065 146.806 150.816C147.119 150.533 147.504 150.343 147.919 150.268Z" fill="#FAFAFA"/>
<path d="M143.915 143.546C143.87 143.56 143.631 142.731 143.1 141.811C142.569 140.891 142.001 140.243 142.038 140.215C142.194 140.325 142.331 140.459 142.444 140.612C143.042 141.311 143.497 142.119 143.784 142.992C143.856 143.169 143.9 143.356 143.915 143.546Z" fill="#FAFAFA"/>
<path d="M144.699 135.09C143.815 135.395 142.901 135.606 141.973 135.717C142.857 135.413 143.771 135.203 144.699 135.09Z" fill="#FAFAFA"/>
<path d="M142.282 132.564C141.958 132.262 141.666 131.927 141.413 131.564C141.124 131.23 140.871 130.865 140.66 130.477C140.987 130.774 141.279 131.109 141.529 131.473C141.821 131.807 142.074 132.173 142.282 132.564Z" fill="#FAFAFA"/>
<path d="M148.28 131.046C147.36 131.024 146.455 130.809 145.622 130.416C146.072 130.493 146.517 130.596 146.954 130.726C147.402 130.806 147.845 130.913 148.28 131.046Z" fill="#FAFAFA"/>
<path d="M152.54 130.969C152.662 130.567 152.807 130.173 152.975 129.788C153.094 129.384 153.24 128.989 153.409 128.604C153.386 129.029 153.29 129.446 153.125 129.839C152.998 130.247 152.8 130.63 152.54 130.969Z" fill="#FAFAFA"/>
<path d="M151.569 136.741C150.688 136.544 149.892 136.073 149.297 135.395C149.325 135.361 149.774 135.752 150.396 136.119C151.018 136.485 151.583 136.698 151.569 136.741Z" fill="#FAFAFA"/>
<path d="M154.335 136.566C154.392 135.995 154.496 135.431 154.647 134.879C154.75 134.317 154.9 133.765 155.096 133.229C154.936 134.362 154.679 135.479 154.326 136.568L154.335 136.566Z" fill="#FAFAFA"/>
<path d="M152.026 143.017C151.317 142.215 150.684 141.349 150.135 140.43C150.507 140.815 150.843 141.233 151.14 141.679C151.476 142.097 151.773 142.545 152.026 143.017Z" fill="#FAFAFA"/>
<path d="M155.968 140.549C155.928 140.569 155.67 140.055 155.261 139.481C154.852 138.908 154.457 138.49 154.488 138.459C154.845 138.709 155.149 139.028 155.383 139.396C155.654 139.737 155.853 140.129 155.968 140.549Z" fill="#FAFAFA"/>
<path d="M159.665 139.994C159.341 139.614 159.038 139.217 158.756 138.804C158.434 138.424 158.13 138.028 157.848 137.617C158.603 138.283 159.221 139.091 159.665 139.994Z" fill="#FAFAFA"/>
<path d="M158.788 142.447C158.737 142.105 158.622 141.777 158.45 141.478C158.242 141.202 157.985 140.967 157.691 140.785C157.691 140.768 157.822 140.785 158.001 140.873C158.232 140.996 158.427 141.176 158.569 141.396C158.714 141.615 158.8 141.867 158.822 142.129C158.85 142.316 158.813 142.447 158.788 142.447Z" fill="#FAFAFA"/>
<path d="M155.914 145.806C155.891 145.806 155.899 145.729 155.877 145.63C155.85 145.502 155.781 145.387 155.681 145.303C155.576 145.226 155.447 145.187 155.317 145.193C155.215 145.193 155.15 145.218 155.138 145.193C155.127 145.167 155.181 145.116 155.303 145.082C155.383 145.061 155.467 145.059 155.549 145.076C155.63 145.092 155.706 145.128 155.772 145.179C155.837 145.23 155.89 145.296 155.926 145.37C155.962 145.445 155.98 145.527 155.979 145.61C155.976 145.747 155.931 145.812 155.914 145.806Z" fill="#FAFAFA"/>
<path d="M126.367 151.176C125.836 150.972 125.354 150.659 124.951 150.259C124.548 149.858 124.233 149.377 124.026 148.848C124.606 149.806 125.409 150.609 126.367 151.188V151.176Z" fill="#FAFAFA"/>
<path d="M108.29 80.6875C107.833 76.3678 107.006 72.3038 106.782 68.0693C106.791 67.9632 106.777 67.8563 106.743 67.7556C106.708 67.6548 106.653 67.5625 106.58 67.4843C106.518 67.4482 106.45 67.425 106.379 67.4161C106.308 67.4073 106.235 67.413 106.167 67.433C106.098 67.4529 106.034 67.4866 105.978 67.532C105.923 67.5775 105.878 67.6337 105.845 67.6973C105.721 67.9631 105.672 68.2577 105.703 68.5493C105.707 70.8012 105.323 73.037 104.567 75.158C104.081 76.5354 103.431 77.856 103.067 79.2675C102.704 80.6789 103.388 81.1589 104.024 82.4738" fill="#FFBE9D"/>
<path d="M104.033 82.469C103.47 82.0374 103.034 81.4625 102.769 80.8045C102.505 80.1465 102.423 79.4296 102.53 78.7287C102.675 77.8767 103.098 77.1042 103.433 76.309C103.769 75.5138 104.027 74.6306 103.823 73.7928C103.709 73.4818 103.633 73.1587 103.595 72.83C103.595 72.5006 103.808 72.1314 104.138 72.1172C104.262 72.1272 104.383 72.1661 104.49 72.2306C104.597 72.2952 104.687 72.3837 104.754 72.4892C105.308 73.1737 105.751 75.173 105.473 76.6669" fill="#FFBE9D"/>
<path d="M105.473 76.667C105.473 76.667 105.501 76.437 105.518 76.0223C105.536 75.4375 105.487 74.8525 105.373 74.2786C105.297 73.8833 105.183 73.4962 105.032 73.1227C104.953 72.9194 104.846 72.7283 104.714 72.5547C104.655 72.4615 104.577 72.3815 104.486 72.3194C104.395 72.2574 104.292 72.2147 104.183 72.194C104.072 72.1993 103.965 72.2411 103.879 72.3129C103.793 72.3847 103.734 72.4826 103.709 72.5916C103.648 72.8337 103.664 73.0888 103.754 73.3215C103.85 73.5813 103.917 73.8508 103.953 74.1252C103.981 74.4093 103.97 74.6958 103.922 74.9772C103.723 76.1302 103.11 77.0618 102.786 77.9848C102.626 78.416 102.541 78.8711 102.533 79.3309C102.532 79.7314 102.591 80.1298 102.709 80.5124C102.881 81.0706 103.172 81.585 103.561 82.0204C103.845 82.3243 104.03 82.4578 104.021 82.472C103.971 82.4462 103.923 82.4148 103.879 82.3782C103.751 82.2806 103.631 82.1733 103.519 82.0573C103.104 81.6292 102.793 81.1112 102.61 80.5436C102.48 80.1523 102.413 79.7431 102.411 79.3309C102.414 78.8564 102.497 78.3857 102.658 77.9393C102.971 76.9964 103.576 76.0649 103.763 74.9545C103.811 74.6846 103.822 74.4093 103.794 74.1366C103.76 73.8699 103.696 73.608 103.604 73.3556C103.506 73.0947 103.492 72.8096 103.564 72.5405C103.606 72.4061 103.684 72.2855 103.789 72.1912C103.841 72.1424 103.903 72.1048 103.97 72.0809C104.037 72.057 104.109 72.0471 104.18 72.052C104.311 72.0692 104.436 72.1138 104.547 72.1828C104.659 72.2518 104.754 72.3437 104.828 72.4524C104.966 72.6404 105.077 72.8469 105.157 73.0659C105.308 73.4473 105.418 73.8432 105.487 74.2473C105.594 74.8296 105.628 75.4231 105.586 76.0138C105.576 76.1741 105.555 76.3335 105.524 76.4909C105.515 76.5517 105.498 76.611 105.473 76.667Z" fill="#EB996E"/>
<path d="M142.6 99.7288C142.693 100.135 142.913 100.501 143.228 100.774C143.543 101.047 143.937 101.212 144.353 101.245C144.769 101.266 145.184 101.18 145.558 100.996C145.932 100.812 146.253 100.537 146.491 100.195C146.963 99.4991 147.153 98.6504 147.022 97.8203C146.86 96.6247 146.065 95.4745 144.912 95.1195C143.759 94.7645 142.325 95.4035 142.007 96.5622L140.678 98.4167L142.6 99.7288Z" fill="#263238"/>
<path d="M141.029 96.0864C141.158 95.0586 141.079 94.0155 140.797 93.0188C140.515 92.0221 140.036 91.0922 139.388 90.2843C138.74 89.4764 137.936 88.807 137.024 88.3157C136.112 87.8244 135.111 87.5213 134.08 87.4244C129.959 87.0324 126.292 90.1025 125.676 94.1978C125.134 97.7875 124.668 101.411 124.685 102.718C124.736 106.694 127.056 108.233 127.999 108.682C128.338 108.804 128.688 108.89 129.044 108.94C129.048 108.941 129.051 108.942 129.054 108.944C129.057 108.946 129.059 108.949 129.061 108.952C129.063 108.954 129.064 108.958 129.065 108.961C129.065 108.965 129.065 108.968 129.064 108.971L128.184 113.515C127.783 116.5 129.451 119.164 132.43 119.599C135.409 120.033 137.758 117.741 138.215 114.754L141.029 96.0864Z" fill="#FFBE9D"/>
<path d="M126.361 96.517C126.426 96.6107 126.949 96.3295 127.622 96.4289C128.295 96.5283 128.735 96.9373 128.82 96.8635C128.863 96.8322 128.803 96.676 128.613 96.4886C128.352 96.2443 128.021 96.0866 127.667 96.037C127.318 95.9862 126.961 96.0468 126.648 96.2103C126.412 96.3381 126.327 96.4744 126.361 96.517Z" fill="#263238"/>
<path d="M132.336 97.812C132.401 97.9057 132.927 97.6246 133.597 97.724C134.267 97.8234 134.713 98.2323 134.798 98.1585C134.838 98.1272 134.781 97.971 134.588 97.7808C134.327 97.5379 133.998 97.3813 133.645 97.332C133.296 97.281 132.939 97.3417 132.626 97.5053C132.396 97.6331 132.305 97.7694 132.336 97.812Z" fill="#263238"/>
<path d="M130.013 100.989C129.675 100.827 129.318 100.707 128.951 100.634C128.78 100.591 128.624 100.531 128.613 100.412C128.624 100.233 128.689 100.062 128.8 99.9207L129.499 98.6882C130.473 96.9302 131.203 95.4761 131.135 95.4364C131.066 95.3966 130.214 96.7911 129.24 98.5604L128.562 99.8015C128.426 99.9943 128.359 100.228 128.374 100.463C128.392 100.526 128.423 100.583 128.466 100.633C128.509 100.682 128.562 100.721 128.621 100.747C128.712 100.786 128.808 100.814 128.905 100.83C129.266 100.929 129.638 100.983 130.013 100.989Z" fill="#263238"/>
<path d="M129.07 108.968C129.07 108.968 131.626 109.559 135.162 108.082C135.162 108.082 133.639 111.362 128.834 110.195L129.07 108.968Z" fill="#EB996E"/>
<path d="M130.061 102.649C130.212 102.511 130.395 102.412 130.593 102.363C130.792 102.313 130.999 102.314 131.197 102.365C131.344 102.401 131.481 102.466 131.602 102.556C131.723 102.646 131.825 102.759 131.902 102.888C131.975 103.013 132.009 103.157 131.997 103.302C131.985 103.446 131.929 103.583 131.836 103.694C131.712 103.8 131.558 103.865 131.395 103.882C131.232 103.899 131.068 103.866 130.925 103.788C130.623 103.631 130.357 103.415 130.141 103.152C130.072 103.088 130.016 103.011 129.976 102.925C129.956 102.884 129.95 102.838 129.957 102.794C129.964 102.749 129.985 102.708 130.016 102.675" fill="#EB996E"/>
<path d="M131.921 101.741C131.814 101.718 131.706 102.448 131.007 102.877C130.308 103.306 129.542 103.11 129.522 103.212C129.505 103.257 129.675 103.379 130.002 103.436C130.428 103.504 130.864 103.419 131.234 103.198C131.589 102.984 131.848 102.641 131.956 102.241C132.027 101.937 131.973 101.744 131.921 101.741Z" fill="#263238"/>
<path d="M132.799 95.6252C132.838 95.8183 133.523 95.8297 134.295 96.0399C135.068 96.25 135.678 96.5567 135.806 96.4091C135.863 96.3381 135.778 96.1506 135.548 95.9348C135.236 95.668 134.868 95.4756 134.471 95.3723C134.074 95.269 133.658 95.2574 133.256 95.3384C132.944 95.4122 132.785 95.5343 132.799 95.6252Z" fill="#263238"/>
<path d="M127.04 94.4467C127.133 94.6171 127.622 94.5262 128.176 94.6C128.73 94.6739 129.19 94.8499 129.312 94.7079C129.371 94.6369 129.312 94.4722 129.133 94.299C128.882 94.0849 128.573 93.9505 128.245 93.9131C127.917 93.8756 127.585 93.9368 127.293 94.0888C127.085 94.2166 126.997 94.3643 127.04 94.4467Z" fill="#263238"/>
<path d="M124.899 93.3076C125.719 94.5601 128.327 93.7848 129.9 92.9242C130.722 93.4485 131.716 93.6314 132.67 93.4341C133.625 93.2368 134.465 92.6749 135.012 91.8678C135.912 93.0038 137.744 92.6346 138.42 91.3424C139.096 90.0502 138.704 88.2695 137.795 87.1392C136.886 86.0088 135.54 85.4352 134.217 85.1938C131.078 84.6258 127.662 85.8299 125.785 88.6671C124.919 89.9763 124.399 91.74 124.913 93.3076" fill="#263238"/>
<path d="M133.572 85.6411C133.572 85.6979 132.831 85.5559 131.666 85.749C130.154 86.0006 128.767 86.7467 127.724 87.8705C126.742 89.0471 126.093 90.4651 125.844 91.9772C125.758 92.6075 125.725 93.244 125.745 93.88C125.684 93.7158 125.649 93.5435 125.64 93.3688C125.59 92.8962 125.598 92.4195 125.662 91.9488C125.868 90.378 126.521 88.8995 127.543 87.6888C128.622 86.5195 130.077 85.765 131.655 85.5559C132.126 85.4926 132.602 85.485 133.075 85.5332C133.245 85.5435 133.413 85.5799 133.572 85.6411Z" fill="#455A64"/>
<path d="M129.329 91.4803C129.282 91.3365 129.261 91.1856 129.267 91.0344C129.252 90.6225 129.295 90.2104 129.394 89.8104C129.546 89.1395 129.834 88.5068 130.24 87.9513C130.645 87.3957 131.16 86.929 131.753 86.58C132.346 86.231 133.004 86.0069 133.686 85.9217C134.369 85.8364 135.061 85.8918 135.722 86.0843C136.12 86.1936 136.503 86.356 136.858 86.5671C136.995 86.6384 137.117 86.7347 137.219 86.8511C136.723 86.6167 136.208 86.4266 135.679 86.2831C134.393 85.9555 133.029 86.1495 131.886 86.823C130.742 87.4965 129.911 88.5948 129.573 89.8786C129.295 90.8271 129.383 91.4803 129.329 91.4803Z" fill="#455A64"/>
<path d="M136.858 90.1155C136.55 91.2271 136.373 92.3708 136.33 93.5235C136.287 94.6826 136.647 95.8206 137.349 96.744C138.445 98.0646 140.274 98.4679 141.961 98.7888C142.864 96.5376 143.136 94.083 142.748 91.6888C142.555 90.5273 142.18 89.343 141.362 88.4967C140.754 87.8968 139.964 87.5156 139.116 87.4128C138.268 87.31 137.41 87.4915 136.676 87.9287" fill="#263238"/>
<path d="M137.795 95.6152C137.352 96.5752 137.383 97.6856 137.536 98.7392C137.69 99.7929 137.957 100.824 137.945 101.88C137.934 102.937 137.599 104.059 136.77 104.72C136.518 104.888 136.282 105.078 136.065 105.288C135.958 105.395 135.886 105.532 135.86 105.681C135.834 105.83 135.854 105.983 135.918 106.12C136.077 106.376 136.557 106.37 136.625 106.078L136.582 106.152C136.54 106.222 136.518 106.303 136.517 106.385C136.516 106.467 136.537 106.548 136.577 106.62C136.617 106.692 136.676 106.751 136.746 106.793C136.817 106.835 136.898 106.858 136.98 106.859C137.27 106.845 137.554 106.772 137.815 106.644C138.076 106.516 138.308 106.336 138.496 106.115C139.039 105.487 139.255 104.644 139.397 103.843C139.834 101.335 139.749 98.7307 140.442 96.2855" fill="#263238"/>
<path d="M128.165 112.083C128.36 112.937 128.737 113.74 129.27 114.435C129.803 115.131 130.48 115.704 131.254 116.115C132.028 116.526 132.881 116.766 133.756 116.818C134.631 116.87 135.507 116.733 136.324 116.417C137.795 115.849 138.982 114.741 140.127 113.659C140.332 114.891 140.275 116.152 139.961 117.361C139.647 118.569 139.083 119.698 138.304 120.675C137.526 121.651 136.551 122.453 135.443 123.028C134.334 123.603 133.117 123.939 131.871 124.014C129.988 124.127 127.966 123.554 126.782 122.086C125.955 121.063 125.623 119.708 125.646 118.394C125.703 117.077 125.954 115.775 126.39 114.531C126.725 113.458 127.256 112.259 128.341 111.961" fill="#FF725E"/>
<path d="M141.637 98.8642C142.773 99.4748 143.381 100.753 143.599 102.014C143.818 103.275 143.707 104.57 143.761 105.845C143.815 107.12 144.059 108.461 144.869 109.452C145.721 110.508 147.07 111.008 148.277 111.653C150.924 113.073 153.105 115.495 153.9 118.398C154.695 121.3 153.974 124.646 151.801 126.733C149.813 128.625 146.945 129.289 144.207 129.289C142.256 129.289 140.112 128.869 138.893 127.344C137.675 125.819 137.757 123.68 138.183 121.8C138.609 119.92 139.39 118.094 139.422 116.165C139.13 117.359 138.622 118.489 137.922 119.5C137.72 119.784 137.377 120.096 137.07 119.931C136.763 119.767 136.857 119.236 137.016 118.881C139.368 113.646 138.55 103.096 139.944 97.3164" fill="#263238"/>
<path d="M139.7 98.269C139.771 98.2463 142.517 97.7266 142.162 100.442C141.807 103.157 139.157 102.242 139.163 102.165C139.169 102.089 139.7 98.269 139.7 98.269Z" fill="#FFBE9D"/>
<path d="M140.127 101.246C140.127 101.246 140.169 101.283 140.246 101.332C140.352 101.394 140.478 101.413 140.598 101.386C140.899 101.317 141.2 100.891 141.277 100.406C141.313 100.173 141.297 99.9359 141.232 99.71C141.217 99.6218 141.182 99.5384 141.128 99.4671C141.074 99.3958 141.003 99.3388 140.922 99.3011C140.871 99.283 140.815 99.2824 140.764 99.2994C140.713 99.3163 140.668 99.3499 140.638 99.3948C140.593 99.4658 140.601 99.5226 140.587 99.5254C140.573 99.5283 140.536 99.4715 140.57 99.3635C140.594 99.298 140.64 99.2428 140.701 99.2073C140.743 99.182 140.79 99.1656 140.839 99.1592C140.888 99.1529 140.937 99.1567 140.985 99.1704C141.093 99.2072 141.191 99.271 141.268 99.356C141.345 99.441 141.399 99.5443 141.425 99.6561C141.509 99.9064 141.531 100.173 141.49 100.434C141.402 100.98 141.056 101.454 140.638 101.516C140.562 101.528 140.485 101.523 140.412 101.501C140.338 101.479 140.271 101.44 140.215 101.388C140.124 101.312 140.118 101.249 140.127 101.246Z" fill="#EB996E"/>
<path d="M125.358 117.934C125.492 117.644 125.645 117.364 125.818 117.096C126.214 116.441 126.543 115.747 126.798 115.026C127.047 114.304 127.13 113.535 127.043 112.777C126.987 112.465 126.915 112.157 126.827 111.854C126.88 111.923 126.922 112 126.949 112.084C127.041 112.301 127.108 112.529 127.148 112.762C127.267 113.537 127.196 114.33 126.94 115.071C126.683 115.804 126.336 116.502 125.909 117.15C125.75 117.4 125.625 117.599 125.52 117.732C125.415 117.866 125.367 117.94 125.358 117.934Z" fill="#263238"/>
<path d="M126.741 114.801C126.701 114.801 126.624 114.568 126.38 114.406C126.136 114.244 125.892 114.244 125.886 114.202C125.88 114.159 125.946 114.153 126.056 114.15C126.203 114.152 126.346 114.198 126.465 114.284C126.586 114.368 126.679 114.485 126.732 114.622C126.769 114.727 126.761 114.795 126.741 114.801Z" fill="#FAFAFA"/>
<path d="M128.497 114.797C128.284 114.558 128.05 114.338 127.798 114.141C127.519 113.984 127.224 113.857 126.918 113.76C127.087 113.737 127.259 113.747 127.424 113.792C127.589 113.836 127.743 113.913 127.878 114.018C128.178 114.187 128.4 114.466 128.497 114.797Z" fill="#FAFAFA"/>
<path d="M129.599 120.558C129.605 120.167 129.661 119.778 129.763 119.4C129.818 119.009 129.922 118.628 130.073 118.264C130.066 118.656 130.011 119.046 129.908 119.425C129.853 119.814 129.749 120.195 129.599 120.558Z" fill="#FAFAFA"/>
<path d="M134.029 121.428C133.958 120.612 133.984 119.792 134.106 118.982C134.181 119.798 134.155 120.619 134.029 121.428Z" fill="#FAFAFA"/>
<path d="M43.5717 134.049L39.1924 153.119L48.4536 153.148L52.7307 136.378L43.5717 134.049Z" fill="#B78876"/>
<path d="M89.051 110.621C88.1706 109.442 87.1596 108.309 86.6966 106.912C86.4723 106.236 86.3842 105.52 86.1457 104.85C85.9071 104.18 85.4726 103.526 84.808 103.274C84.1435 103.021 83.638 103.274 83.2063 103.751L80.0283 113.046L81.8601 120.186C83.6891 119.774 85.9781 119.285 87.6878 118.516C89.3975 117.746 90.5278 116.514 90.6471 114.642C90.7294 113.174 89.9314 111.802 89.051 110.621Z" fill="#263238"/>
<path d="M60.1314 108.978C60.1314 108.978 49.0838 113.786 47.7035 115.956C46.3233 118.126 41.7793 133.595 41.7793 133.595L53.4233 137.003L53.2245 153.109H81.7665L81.5308 124.709L77.9524 109.015C77.9524 109.015 71.6504 108.609 71.0654 108.322C70.4803 108.035 60.1314 108.978 60.1314 108.978Z" fill="#3450A1"/>
<path d="M99.3914 69.6132C99.4823 68.9628 99.025 68.2472 99.3545 67.6763C99.5724 67.3821 99.8838 67.1708 100.238 67.0771C100.409 66.9987 100.595 66.9553 100.783 66.9493C100.877 66.9478 100.969 66.9739 101.049 67.0244C101.128 67.0748 101.191 67.1475 101.229 67.2333C101.249 67.3419 101.24 67.454 101.201 67.5576C101.163 67.6612 101.097 67.7523 101.01 67.8212C100.837 67.9571 100.692 68.1249 100.581 68.3153C100.504 68.7828 100.54 69.2619 100.686 69.7126C101.065 70.7043 101.379 71.7193 101.626 72.7514" fill="#B78876"/>
<path d="M97.0605 69.8337C97.1003 68.8482 97.9125 64.9659 97.9409 63.9805C98.6083 64.1849 98.9946 64.8949 99.1195 65.5822C99.2445 66.2695 99.1792 66.9767 99.2985 67.6639C99.4575 68.5869 99.9375 69.4191 100.42 70.2199C100.903 71.0208 101.409 71.8359 101.627 72.7447C101.846 73.6535 102.67 76.0164 102.028 76.698" fill="#B78876"/>
<path d="M96.876 76.4805L92.9256 95.2472C92.7864 96.0992 77.9531 109.035 77.9531 109.035L80.8812 120.733L100.193 101.839C101.588 100.348 102.346 98.3729 102.309 96.3321L101.98 78.7241L96.876 76.4805Z" fill="#B78876"/>
<path d="M96.2002 69.9539L96.8761 76.4859L101.988 78.7351C101.988 78.7351 102.051 78.2722 102.272 76.0087C102.513 73.5152 99.8325 72.4445 98.6369 70.6127C98.1257 69.8261 98.2592 68.3777 97.8644 66.5828C97.819 66.3755 97.535 65.1202 97.3816 64.4471C97.3009 64.0731 97.0818 63.7434 96.7682 63.5241C96.5353 63.3707 96.274 63.2941 96.0837 63.5241C95.8934 63.7541 96.2002 69.9539 96.2002 69.9539Z" fill="#B78876"/>
<path d="M99.392 77.5655C99.96 77.0742 100.096 76.1938 99.8833 75.4639C99.6225 74.7452 99.211 74.0906 98.6763 73.5441C98.1423 72.9989 97.6933 72.3767 97.3443 71.6981C97.1285 71.2096 97.0263 70.67 96.7763 70.19C96.5264 69.7101 96.1033 69.2699 95.5693 69.25C95.9982 71.9508 95.9868 73.51 96.8644 76.4693" fill="#B78876"/>
<path d="M96.1004 72.3346C96.1004 72.3346 96.0805 72.2608 96.0493 72.1188C96.018 71.9768 95.9641 71.741 95.9129 71.4996C95.7908 70.9316 95.6289 70.2074 95.4614 69.3753L95.4443 69.2958H95.5267C95.7015 69.2894 95.8759 69.3178 96.0396 69.3792C96.2034 69.4406 96.3534 69.5339 96.4809 69.6536C96.8709 70.0247 97.1485 70.4981 97.2818 71.0197C97.3951 71.425 97.5443 71.8194 97.7277 72.1983C97.8667 72.4471 98.0344 72.6788 98.2275 72.8884C98.298 72.9689 98.3555 73.06 98.3979 73.1582C98.3202 73.0861 98.248 73.0083 98.1821 72.9253C97.9707 72.7256 97.7873 72.4983 97.6368 72.2494C97.4362 71.8693 97.2726 71.4708 97.1483 71.0594C97.0163 70.564 96.7511 70.1142 96.3815 69.7587C96.1512 69.5426 95.8453 69.4253 95.5295 69.4321L95.5977 69.3469C95.9413 71.0566 96.1629 72.3374 96.1004 72.3346Z" fill="#7C5142"/>
<path d="M98.3976 70.6728C98.1915 69.7942 98.0341 68.9049 97.9262 68.0089C97.7684 67.12 97.6594 66.2231 97.5996 65.3223C97.8072 66.2015 97.9646 67.0919 98.0711 67.989C98.2287 68.877 98.3378 69.7729 98.3976 70.6728Z" fill="#7C5142"/>
<path d="M100.025 70.8946C100.025 70.8946 100.045 70.923 100.062 70.994H100.019C99.8082 70.3863 99.6356 69.766 99.5025 69.1366C99.3804 68.5885 99.2924 68.0887 99.2384 67.7166C99.1946 67.522 99.1774 67.3223 99.1873 67.123C99.2299 67.123 99.4031 68.0063 99.6474 69.111C99.8433 69.9943 100.025 70.7384 100.062 70.9883H100.019C100.017 70.9286 100.017 70.8946 100.025 70.8946Z" fill="#7C5142"/>
<path d="M101.033 74.4919C101.01 74.4919 100.908 74.3443 100.704 74.1256C100.163 73.5516 99.4301 73.1976 98.6446 73.1316C98.4803 73.133 98.3161 73.1226 98.1533 73.1003C98.3105 73.0394 98.4793 73.0141 98.6475 73.0265C99.0568 73.0316 99.46 73.1266 99.8285 73.3048C100.197 73.4829 100.522 73.7399 100.78 74.0574C100.897 74.1811 100.983 74.3297 101.033 74.4919Z" fill="#7C5142"/>
<path d="M97.3388 76.9963C97.1984 76.7519 97.085 76.4928 97.0009 76.2238C96.7674 75.5865 96.5721 74.936 96.4158 74.2755C96.2569 73.6206 96.1375 72.9568 96.058 72.2875C96.0115 72.0061 95.9944 71.7206 96.0069 71.4355C96.0781 71.7069 96.1294 71.9831 96.1602 72.262C96.2454 72.7703 96.3761 73.4747 96.5578 74.25C96.7396 75.0253 96.9441 75.7041 97.1003 76.1982C97.1982 76.4584 97.2779 76.725 97.3388 76.9963Z" fill="#7C5142"/>
<path d="M74.4854 109.372C74.7384 108.985 75.1309 108.71 75.5815 108.604C76.032 108.498 76.506 108.57 76.905 108.804C78.9896 107.1 81.1224 105.447 83.207 103.752C82.5254 107.16 82.071 111.911 83.5961 115.03C83.5961 115.03 85.5187 118.602 88.5803 118.057L85.8482 120.732L81.5399 124.728" fill="#3450A1"/>
<path d="M73.8096 110.964C73.8128 110.507 73.9522 110.061 74.21 109.683C74.4277 109.28 74.7597 108.95 75.1643 108.734C74.5226 109.344 74.0549 110.113 73.8096 110.964Z" fill="#263238"/>
<path d="M76.0616 113.066C75.9433 112.877 75.8624 112.667 75.823 112.447C75.7004 111.92 75.6858 111.374 75.78 110.842C75.8742 110.309 76.0753 109.801 76.3711 109.348C76.4839 109.155 76.6323 108.984 76.8085 108.846C76.8284 108.863 76.6636 109.056 76.462 109.414C76.1997 109.866 76.0181 110.361 75.9252 110.876C75.8363 111.392 75.8363 111.92 75.9252 112.435C75.9962 112.805 76.0843 113.043 76.0616 113.066Z" fill="#263238"/>
<path d="M86.4958 120.359C86.2862 120.49 86.0571 120.585 85.8171 120.643C85.161 120.801 84.4745 120.781 83.8291 120.583C82.8732 120.28 82.0368 119.684 81.4378 118.879C80.7183 117.893 80.2327 116.756 80.0178 115.554C79.6167 113.39 79.5021 111.182 79.677 108.988C79.7423 108.136 79.836 107.471 79.9155 107C79.9525 106.767 79.9865 106.588 80.0121 106.466C80.0209 106.403 80.0362 106.341 80.0575 106.281C80.0595 106.345 80.0538 106.409 80.0405 106.472L79.9723 107.008C79.9127 107.474 79.8332 108.144 79.7821 108.996C79.6368 111.181 79.7646 113.375 80.1626 115.528C80.3753 116.699 80.8458 117.808 81.54 118.774C82.1143 119.571 82.9238 120.167 83.8546 120.478C84.4831 120.681 85.1534 120.717 85.8 120.583C86.0367 120.524 86.2692 120.449 86.4958 120.359Z" fill="#3450A1"/>
<path d="M53.4772 141.798C53.4374 141.798 53.4033 137.759 53.4033 132.781C53.4033 127.802 53.4374 123.764 53.4772 123.764C53.5169 123.764 53.551 127.799 53.551 132.781C53.551 137.762 53.5198 141.798 53.4772 141.798Z" fill="#263238"/>
<path d="M53.2507 120.647C53.2195 120.647 53.228 120.244 53.0888 119.617C53.0059 119.25 52.887 118.892 52.7338 118.549C52.543 118.131 52.3078 117.735 52.0323 117.367C51.7492 117.005 51.4284 116.674 51.0753 116.379C50.7845 116.141 50.4716 115.932 50.1409 115.754C49.5729 115.456 49.1781 115.357 49.1867 115.328C49.2836 115.333 49.3793 115.352 49.4707 115.385C49.5783 115.412 49.6837 115.447 49.7859 115.49C49.9252 115.538 50.0609 115.596 50.192 115.663C50.5332 115.83 50.8551 116.034 51.1519 116.271C51.5165 116.569 51.847 116.906 52.1374 117.276C52.4209 117.653 52.6592 118.062 52.8474 118.495C53.0021 118.848 53.1173 119.218 53.1911 119.597C53.2202 119.741 53.2401 119.887 53.2507 120.034C53.264 120.144 53.2697 120.255 53.2677 120.366C53.2729 120.46 53.2672 120.555 53.2507 120.647Z" fill="#263238"/>
<path d="M72.7015 108.854C72.7251 108.932 72.7413 109.013 72.7498 109.095C72.7881 109.325 72.8128 109.558 72.8237 109.791C72.8576 110.652 72.7374 111.513 72.4687 112.333C72.0685 113.554 71.3592 114.652 70.4097 115.519C69.2187 116.56 67.7231 117.187 66.146 117.308C64.569 117.429 62.9952 117.036 61.6596 116.189C60.592 115.475 59.7271 114.496 59.1491 113.349C58.7619 112.579 58.5147 111.746 58.4192 110.89C58.3961 110.658 58.3857 110.424 58.3879 110.191C58.3811 110.11 58.3811 110.028 58.3879 109.947C58.4013 110.027 58.4079 110.107 58.4078 110.188C58.4151 110.42 58.4341 110.651 58.4646 110.881C58.581 111.726 58.8403 112.544 59.2314 113.301C59.8109 114.425 60.6683 115.382 61.7221 116.081C63.0335 116.906 64.5748 117.288 66.1195 117.172C67.6643 117.056 69.1311 116.448 70.3046 115.437C71.2438 114.588 71.9497 113.512 72.3551 112.313C72.6272 111.505 72.7616 110.657 72.7527 109.805C72.7527 109.504 72.7271 109.271 72.7044 109.112C72.6817 108.953 72.6987 108.856 72.7015 108.854Z" fill="#263238"/>
<path d="M53.2331 133.492C53.2331 133.532 50.8731 132.791 47.9933 131.839C45.1136 130.888 42.7876 130.084 42.8018 130.044C42.816 130.005 45.159 130.746 48.0416 131.697C50.9242 132.649 53.2445 133.452 53.2331 133.492Z" fill="#3450A1"/>
<path d="M81.2552 129.552C81.2552 129.595 74.993 129.654 67.2682 129.686C59.5434 129.717 53.2783 129.711 53.2783 129.686C53.2783 129.66 59.5405 129.583 67.2682 129.552C74.9958 129.521 81.2552 129.512 81.2552 129.552Z" fill="#455A64"/>
<path d="M81.3972 132.025C81.3972 132.065 75.1009 132.099 67.3392 132.099C59.5774 132.099 53.2783 132.065 53.2783 132.025C53.2783 131.985 59.5718 131.951 67.3392 131.951C75.1066 131.951 81.3972 131.982 81.3972 132.025Z" fill="#455A64"/>
<path d="M77.541 135.029C77.5217 135.108 77.4951 135.185 77.4614 135.259C77.399 135.418 77.3138 135.634 77.2087 135.907L77.0212 136.373C76.9474 136.543 76.8594 136.722 76.7685 136.918C76.581 137.304 76.3879 137.753 76.1181 138.224L75.7092 138.968C75.5672 139.227 75.3968 139.482 75.232 139.755C74.9083 140.303 74.5107 140.854 74.096 141.442C73.1738 142.691 72.158 143.868 71.0572 144.964C69.9408 146.044 68.7436 147.037 67.476 147.934C66.8796 148.332 66.3201 148.721 65.772 149.033C65.488 149.192 65.2381 149.357 64.9768 149.496L64.2157 149.888C63.7414 150.147 63.287 150.334 62.8979 150.513C62.702 150.598 62.5202 150.683 62.3498 150.754L61.8784 150.933L61.228 151.175C61.153 151.207 61.075 151.232 60.9951 151.249C61.066 151.208 61.1401 151.174 61.2166 151.146L61.8585 150.879L62.3214 150.689C62.4918 150.615 62.6707 150.527 62.8638 150.436C63.2501 150.252 63.6988 150.059 64.1674 149.794L64.9143 149.397C65.1728 149.255 65.4312 149.087 65.7038 148.928C66.252 148.613 66.8058 148.221 67.4078 147.824C69.9375 146.039 72.1624 143.857 73.9966 141.363C74.4084 140.78 74.8089 140.226 75.1326 139.69C75.3002 139.42 75.4734 139.167 75.6183 138.912L76.0301 138.173C76.3141 137.71 76.5044 137.264 76.6975 136.881C76.7912 136.688 76.8849 136.512 76.9616 136.344C77.0383 136.177 77.1008 136.023 77.1604 135.884C77.2768 135.617 77.3706 135.407 77.4444 135.248C77.4728 135.173 77.5051 135.1 77.541 135.029Z" fill="#263238"/>
<g opacity="0.3">
<path d="M76.3882 137.488C74.4797 139.811 72.4803 141.496 69.6773 142.58C68.3339 143.097 66.9281 143.452 65.6274 144.069C64.3267 144.685 63.0998 145.614 62.5034 146.928C62.0519 147.945 62.2705 149.484 63.3554 149.706C63.7769 149.758 64.2044 149.692 64.5908 149.516C70.143 147.502 73.7924 142.416 76.3711 137.488" fill="black"/>
</g>
<path d="M56.5277 86.959C55.3292 87.899 55.2497 89.657 55.3093 91.1792C55.369 92.7015 55.386 94.4339 54.2756 95.4847C53.3668 96.3509 51.7764 96.6718 51.5151 97.9015C51.449 98.1912 51.4754 98.4944 51.5907 98.7683C51.706 99.0422 51.9043 99.2731 52.1577 99.4283C52.4111 99.5836 52.7068 99.6554 53.0032 99.6337C53.2996 99.612 53.5817 99.4978 53.8098 99.3073C53.4236 100.27 53.5997 101.503 54.4204 102.147C55.2412 102.792 56.6754 102.485 56.9764 101.497C56.9299 101.66 56.917 101.832 56.9387 102C56.9603 102.169 57.016 102.331 57.1023 102.478C57.1886 102.624 57.3038 102.752 57.4408 102.852C57.5778 102.953 57.7338 103.025 57.8994 103.063C58.065 103.102 58.2367 103.106 58.404 103.076C58.5714 103.047 58.7309 102.983 58.873 102.89C59.0151 102.796 59.1367 102.675 59.2306 102.533C59.3244 102.392 59.3884 102.232 59.4188 102.065" fill="#263238"/>
<path d="M73.9196 97.9824C73.9767 98.1819 74.0742 98.3675 74.2061 98.5277C74.338 98.6879 74.5014 98.8193 74.6862 98.9137C74.871 99.0081 75.0732 99.0635 75.2803 99.0764C75.4874 99.0894 75.6949 99.0596 75.89 98.989C76.0852 98.9184 76.2637 98.8084 76.4145 98.6659C76.5653 98.5233 76.6852 98.3513 76.7667 98.1605C76.8483 97.9697 76.8897 97.7642 76.8885 97.5567C76.8873 97.3492 76.8434 97.1441 76.7596 96.9543C76.5238 96.3636 75.9076 95.9177 75.8934 95.2844C75.8564 94.5176 76.663 94.0092 77.3702 93.711C78.0773 93.4128 78.9066 93.0152 79.0174 92.257C79.1281 91.4987 78.4948 90.9165 77.9666 90.3968C77.4383 89.877 76.93 89.0875 77.302 88.4457C77.4923 88.1191 77.87 87.943 78.1142 87.6562C78.6652 87.02 78.4437 85.9522 77.8075 85.4097C77.1714 84.8673 76.2597 84.7423 75.4276 84.8417C74.5955 84.9411 73.8003 85.2535 72.9852 85.4552C71.6336 85.7814 70.229 85.8236 68.8603 85.5792C67.4915 85.3348 66.1884 84.809 65.0332 84.0352" fill="#263238"/>
<path d="M57.343 92.815L60.2654 109.753C60.3865 110.462 60.6467 111.14 61.031 111.747C61.4153 112.355 61.9161 112.881 62.5046 113.295C63.093 113.708 63.7575 114.001 64.4596 114.156C65.1618 114.312 65.8878 114.327 66.5958 114.2C67.9372 113.96 69.14 113.226 69.9673 112.143C70.7947 111.061 71.1866 109.707 71.0659 108.35C70.9324 106.847 70.8188 105.603 70.8188 105.603C70.8188 105.603 75.0618 104.513 74.6954 100.207C74.5165 98.1229 73.8037 93.8601 73.1107 90.0091C72.7514 88.0159 71.6549 86.231 70.0393 85.0096C68.4238 83.7881 66.4076 83.2197 64.3919 83.4174L63.9773 83.4572C62.921 83.6227 61.9086 83.9982 60.9997 84.5614C60.0909 85.1246 59.3041 85.8641 58.6857 86.7363C58.0674 87.6085 57.63 88.5958 57.3994 89.6398C57.1688 90.6838 57.1496 91.7634 57.343 92.815Z" fill="#B78876"/>
<path d="M72.2048 92.79C72.2233 92.9502 72.178 93.1113 72.0786 93.2383C71.9792 93.3654 71.8337 93.4482 71.6737 93.4688C71.5962 93.4829 71.5166 93.4814 71.4397 93.4642C71.3628 93.447 71.2901 93.4146 71.226 93.3687C71.1619 93.3229 71.1076 93.2646 71.0665 93.1974C71.0253 93.1302 70.9981 93.0554 70.9865 92.9774C70.968 92.8172 71.0133 92.6561 71.1127 92.5291C71.2121 92.402 71.3576 92.3193 71.5176 92.2987C71.5951 92.2845 71.6747 92.286 71.7516 92.3032C71.8285 92.3204 71.9012 92.3529 71.9653 92.3987C72.0294 92.4445 72.0837 92.5028 72.1248 92.57C72.166 92.6372 72.1932 92.712 72.2048 92.79Z" fill="#263238"/>
<path d="M72.3925 92.2032C72.3243 92.2884 71.8245 91.9902 71.1627 92.0555C70.501 92.1209 70.0466 92.5014 69.9671 92.4276C69.9302 92.3935 69.9927 92.243 70.1886 92.0669C70.4561 91.8399 70.7876 91.7019 71.1372 91.6721C71.4812 91.6378 71.8271 91.7134 72.1255 91.888C72.3442 92.0243 72.4265 92.1634 72.3925 92.2032Z" fill="#263238"/>
<path d="M65.7296 93.5482C65.7457 93.7081 65.699 93.8681 65.5994 93.9942C65.4998 94.1203 65.355 94.2028 65.1956 94.2241C65.1181 94.2379 65.0387 94.236 64.9619 94.2187C64.8852 94.2013 64.8126 94.1688 64.7486 94.1231C64.6846 94.0773 64.6303 94.0192 64.5891 93.9522C64.5478 93.8851 64.5204 93.8105 64.5084 93.7328C64.4913 93.5728 64.5373 93.4125 64.6364 93.2858C64.7355 93.1591 64.8801 93.076 65.0394 93.054C65.1173 93.0402 65.1971 93.0421 65.2742 93.0596C65.3513 93.0771 65.4242 93.1099 65.4885 93.1559C65.5528 93.2019 65.6072 93.2603 65.6486 93.3277C65.69 93.3951 65.7175 93.47 65.7296 93.5482Z" fill="#263238"/>
<path d="M65.8964 92.9587C65.8282 93.0468 65.3284 92.7486 64.6667 92.8139C64.0049 92.8792 63.5534 93.2598 63.471 93.1859C63.4341 93.1519 63.4966 93.0013 63.6925 92.8253C63.9606 92.5992 64.2918 92.4614 64.6411 92.4305C64.9851 92.3948 65.3316 92.4705 65.6294 92.6463C65.8481 92.7827 65.9191 92.9218 65.8964 92.9587Z" fill="#263238"/>
<path d="M68.7796 97.6359C68.7796 97.5962 69.1772 97.4854 69.8332 97.3349C70.0008 97.3008 70.1598 97.2525 70.1768 97.1332C70.1721 96.958 70.1157 96.7881 70.015 96.6448L69.3873 95.4065C68.5154 93.64 67.8679 92.1831 67.9389 92.149C68.0099 92.115 68.7739 93.5179 69.6429 95.273L70.2478 96.5226C70.3737 96.7157 70.427 96.9472 70.3984 97.1758C70.3813 97.2396 70.3496 97.2985 70.3057 97.3478C70.2618 97.3971 70.207 97.4355 70.1456 97.4598C70.0539 97.4934 69.9586 97.5163 69.8616 97.528C69.5066 97.6078 69.1433 97.644 68.7796 97.6359Z" fill="#263238"/>
<path d="M65.8146 90.3444C65.7663 90.5319 65.0989 90.5091 64.3321 90.6795C63.5653 90.8499 62.9547 91.1226 62.8382 90.9635C62.7843 90.8925 62.8752 90.7108 63.1222 90.512C63.4377 90.2628 63.8074 90.0916 64.2014 90.0121C64.5945 89.9256 65.0025 89.9344 65.3914 90.0377C65.6782 90.1314 65.8344 90.2592 65.8146 90.3444Z" fill="#263238"/>
<path d="M71.9636 90.3082C71.8614 90.4701 71.3956 90.3593 70.8276 90.4048C70.2596 90.4502 69.8251 90.6064 69.6916 90.4587C69.6377 90.3877 69.6916 90.2287 69.8848 90.0668C70.1392 89.8657 70.4498 89.7486 70.7737 89.7317C71.0964 89.7053 71.4192 89.7808 71.6967 89.9475C71.9267 90.0839 72.0062 90.2315 71.9636 90.3082Z" fill="#263238"/>
<path d="M61.5575 87.6347L61.5348 87.6575C60.9019 88.2648 60.5276 89.0928 60.4897 89.9692C60.4897 90.0005 60.4897 90.0317 60.4897 90.0573C60.4414 91.304 60.5919 92.5508 60.5323 93.7947C60.4727 95.0386 60.1688 96.328 59.3423 97.2623C59.0044 97.6457 58.3682 97.9496 58.0217 97.5719C57.9012 97.4128 57.8283 97.2227 57.8116 97.0238C57.2947 94.0815 56.2269 91.5284 55.9315 88.4243C55.8891 88.0092 55.9467 87.5899 56.0993 87.2016C56.252 86.8133 56.4953 86.4671 56.8091 86.192C57.4111 85.6609 58.1581 85.1015 58.9135 85.3741C59.6689 85.6467 60.7339 86.9049 61.3502 87.4217" fill="#263238"/>
<path d="M58.9847 94.622C58.908 94.5992 55.9402 94.0369 56.3208 96.9706C56.7014 99.9044 59.5698 98.9189 59.5641 98.8337C59.5584 98.7485 58.9847 94.622 58.9847 94.622Z" fill="#B78876"/>
<path d="M58.5356 97.8393C58.5356 97.8393 58.4902 97.8819 58.4078 97.9301C58.3514 97.9646 58.2888 97.9876 58.2235 97.9979C58.1582 98.0081 58.0915 98.0054 58.0272 97.9898C57.7035 97.9159 57.3769 97.4559 57.2945 96.9305C57.2542 96.6791 57.2707 96.422 57.3428 96.1779C57.359 96.0825 57.3979 95.9925 57.4562 95.9154C57.5145 95.8383 57.5906 95.7763 57.6779 95.7348C57.7346 95.7126 57.7972 95.7106 57.8552 95.7293C57.9131 95.7479 57.9629 95.786 57.996 95.8371C58.0471 95.9137 58.0358 95.9762 58.0528 95.9791C58.0698 95.9819 58.1096 95.9223 58.0698 95.803C58.0442 95.732 57.9951 95.6719 57.9307 95.6326C57.8441 95.5849 57.7426 95.5717 57.6467 95.5957C57.529 95.6354 57.4235 95.7045 57.34 95.7965C57.2565 95.8884 57.1978 96.0001 57.1696 96.1211C57.0773 96.3951 57.0529 96.6875 57.0986 96.9731C57.1951 97.5609 57.57 98.075 58.0102 98.1431C58.092 98.1564 58.1757 98.1508 58.255 98.1266C58.3342 98.1025 58.4069 98.0606 58.4674 98.004C58.5356 97.9103 58.5356 97.8421 58.5356 97.8393Z" fill="#7C5142"/>
<path d="M58.8539 85.8401C58.0019 84.7325 59.8365 82.8468 61.2452 82.2475C62.6538 81.6483 64.639 82.168 66.1328 82.506C67.0728 82.7218 68.0242 83.0541 68.9728 82.9206C69.6088 82.7935 70.2224 82.5724 70.7932 82.2646C71.3635 81.9516 71.9917 81.7583 72.6392 81.6966C72.9636 81.6719 73.2885 81.7363 73.5788 81.883C73.8692 82.0297 74.1139 82.2529 74.2864 82.5287C74.5875 83.0967 74.3177 83.9487 73.6872 84.1049C73.8811 83.9714 74.1045 83.8871 74.3382 83.859C74.5719 83.831 74.8089 83.8601 75.0289 83.9439C75.2489 84.0276 75.4452 84.1636 75.6011 84.34C75.757 84.5163 75.8677 84.7279 75.9237 84.9565C75.9798 85.1852 75.9795 85.424 75.9229 85.6524C75.8663 85.8809 75.755 86.0922 75.5988 86.2682C75.4425 86.4442 75.2458 86.5797 75.0256 86.6629C74.8054 86.7461 74.5684 86.7747 74.3347 86.7461C74.7238 86.3882 75.4168 86.8512 75.4168 87.3766C75.4168 87.902 74.9766 88.3336 74.5165 88.5921C73.3407 89.251 71.8923 89.2169 70.5802 88.913C69.2682 88.6091 68.0242 88.061 66.7178 87.7202C65.4114 87.3794 63.2218 86.766 62.0006 87.3368C61.1032 87.7543 60.5636 88.9386 60.0126 88.7568C59.7519 88.6486 59.5202 88.4807 59.3362 88.2666C59.1522 88.0525 59.0211 87.7983 58.9533 87.5242C58.8264 86.9734 58.79 86.4055 58.8454 85.843" fill="#263238"/>
<path d="M59.0215 95.1255C59.0581 96.6854 59.2368 98.2387 59.5554 99.7661C59.8738 101.299 60.601 102.717 61.6598 103.87C63.0798 105.327 64.9429 106.71 66.9593 107.054C69.1603 107.417 71.8526 106.957 73.6446 105.634C74.4966 105.006 75.1129 103.646 74.8488 102.617C75.2095 102.447 75.5182 102.184 75.7429 101.854C75.9676 101.525 76.1001 101.141 76.1268 100.743C76.1722 99.9479 75.6866 98.9539 75.059 98.8488C75.5304 98.7693 75.6667 98.0195 75.4878 97.5963C75.3089 97.1732 74.6869 97.0454 74.2155 97.1363C73.7495 97.2582 73.3161 97.4812 72.946 97.7895C72.578 98.0981 72.1628 98.3454 71.7163 98.5222C70.194 99.0163 68.6519 97.6702 67.053 97.7355C65.6074 97.7923 64.3209 98.9936 62.8867 98.792C62.4886 98.7161 62.1109 98.5573 61.7782 98.3258C61.4454 98.0944 61.1652 97.7955 60.9555 97.4487C60.5125 96.7699 60.7056 94.2622 60.5324 93.4727" fill="#263238"/>
<g opacity="0.6">
<path d="M70.6224 101.887C70.5027 101.859 70.3851 101.823 70.2703 101.779C69.9921 101.7 69.6994 101.685 69.4147 101.737C69.1301 101.789 68.8611 101.905 68.6287 102.077C68.447 102.208 68.3447 102.313 68.3447 102.299C68.3447 102.285 68.4015 102.16 68.5748 102.015C68.808 101.81 69.093 101.672 69.3988 101.617C69.7047 101.562 70.0198 101.591 70.31 101.702C70.5202 101.773 70.6309 101.873 70.6224 101.887Z" fill="#455A64"/>
</g>
<path d="M67.513 98.6233C67.6209 98.6063 67.6919 99.3248 68.365 99.7593C69.0381 100.194 69.785 100.058 69.8021 100.157C69.8163 100.2 69.6459 100.313 69.3221 100.353C68.9025 100.402 68.4791 100.302 68.1265 100.069C67.7887 99.8433 67.5523 99.4948 67.4676 99.0976C67.4023 98.8079 67.4647 98.6233 67.513 98.6233Z" fill="white"/>
<path d="M65.377 106.573C65.4412 106.587 65.5032 106.61 65.5616 106.641C65.6837 106.686 65.8626 106.749 66.0983 106.814C66.7663 106.995 67.4519 107.102 68.1431 107.135C68.6165 107.163 69.0913 107.153 69.5631 107.106C70.1073 107.058 70.645 106.953 71.1677 106.794C71.7448 106.622 72.2953 106.37 72.8036 106.047C73.3562 105.714 73.8385 105.276 74.2236 104.758C74.6809 104.148 74.8845 103.385 74.7916 102.628V102.568L74.8427 102.545C75.1959 102.381 75.5018 102.13 75.7316 101.816C75.8431 101.667 75.9383 101.507 76.0156 101.338C76.0834 101.175 76.1256 101.001 76.1406 100.824C76.1715 100.504 76.1258 100.182 76.0072 99.883C75.8887 99.5842 75.7008 99.3179 75.459 99.1062L75.4164 99.0721L75.4504 99.0295C75.5785 98.867 75.6621 98.6739 75.693 98.4692C75.7239 98.2646 75.7009 98.0554 75.6265 97.8623C75.5681 97.7158 75.4799 97.5831 75.3675 97.4726C75.255 97.3621 75.1208 97.2762 74.9733 97.2204C74.7851 97.1453 74.5814 97.117 74.3798 97.1381C74.2406 97.1551 74.1724 97.1807 74.1696 97.1722C74.2351 97.141 74.305 97.1199 74.3769 97.1097C74.6467 97.066 74.9233 97.1128 75.1638 97.2427C75.4042 97.3727 75.5948 97.5786 75.706 97.8282C75.7901 98.0364 75.8186 98.2629 75.7888 98.4855C75.7589 98.708 75.6717 98.919 75.5356 99.0977V99.021C75.7951 99.2425 75.9979 99.5227 76.1273 99.8383C76.2568 100.154 76.309 100.496 76.2797 100.836C76.2652 101.031 76.2201 101.223 76.1462 101.404C76.0639 101.582 75.964 101.751 75.848 101.909C75.6063 102.246 75.2815 102.516 74.9052 102.69L74.9478 102.605C75.0618 103.4 74.8577 104.209 74.3798 104.854C73.9834 105.388 73.4865 105.838 72.9172 106.181C72.3986 106.511 71.8353 106.764 71.2444 106.933C70.7125 107.093 70.1651 107.196 69.6114 107.24C69.1303 107.278 68.6469 107.278 68.1658 107.24C67.4692 107.196 66.7801 107.072 66.1125 106.868C65.9315 106.812 65.7542 106.744 65.5814 106.666C65.5101 106.642 65.4416 106.611 65.377 106.573Z" fill="#455A64"/>
<path d="M52.5032 99.0776C52.4489 99.0627 52.3978 99.0376 52.3527 99.0038C52.2248 98.9079 52.1263 98.778 52.0687 98.6289C51.9728 98.389 51.952 98.1255 52.0091 97.8735C52.0987 97.5398 52.299 97.2464 52.5771 97.0413C52.9038 96.7951 53.2683 96.6032 53.6563 96.4733C54.0911 96.3367 54.5115 96.1579 54.9116 95.9394C55.3325 95.6729 55.6624 95.2846 55.8573 94.8261C56.0711 94.3327 56.185 93.8018 56.1924 93.2641C56.2151 92.1537 55.9595 91.1001 55.9311 90.1203C55.9027 89.1405 56.0731 88.226 56.519 87.6125C56.853 87.1208 57.36 86.773 57.939 86.6384C58.096 86.6071 58.2568 86.5995 58.4161 86.6157C58.4717 86.6221 58.5268 86.6326 58.5809 86.6469C58.3704 86.6369 58.1596 86.6531 57.9532 86.6952C57.3951 86.8426 56.9108 87.1904 56.5929 87.6722C56.1782 88.2686 56.005 89.1547 56.0561 90.1146C56.1072 91.0745 56.3401 92.1281 56.3401 93.2698C56.3283 93.828 56.2057 94.3782 55.9794 94.8886C55.7706 95.3724 55.4188 95.7807 54.9712 96.0587C54.5602 96.2812 54.1272 96.4601 53.679 96.5926C53.302 96.7118 52.9464 96.8901 52.6254 97.1209C52.3617 97.3076 52.1686 97.5777 52.0772 97.8877C52.0154 98.1239 52.0262 98.3734 52.1085 98.6033C52.1833 98.8011 52.3223 98.9681 52.5032 99.0776Z" fill="#455A64"/>
<path d="M73.7951 84.0579C73.8354 84.0334 73.8782 84.0134 73.9229 83.9982C73.9768 83.9741 74.0329 83.9551 74.0904 83.9414C74.1675 83.9187 74.2463 83.9025 74.3261 83.8931C74.5912 83.8643 74.8593 83.8961 75.1102 83.9861C75.3612 84.0762 75.5883 84.2221 75.7745 84.4129C75.9608 84.6626 76.0956 84.9469 76.1711 85.2491C76.2467 85.5514 76.2615 85.8656 76.2147 86.1737C76.159 86.5557 76.0273 86.9227 75.8273 87.2529C75.6273 87.5832 75.3631 87.87 75.0503 88.0963C74.3303 88.6206 73.4697 88.9174 72.5795 88.9483C71.6145 88.9863 70.6491 88.883 69.714 88.6416C68.2285 88.277 66.8191 87.6531 65.5505 86.7985C65.0083 86.4257 64.4387 86.0944 63.8465 85.8073C63.3279 85.5673 62.7695 85.4249 62.1993 85.387C61.3687 85.3296 60.5372 85.484 59.7825 85.8357C59.2514 86.0856 58.9987 86.3015 58.9873 86.2844C59.2205 86.0836 59.4793 85.9146 59.7569 85.7817C60.5161 85.4063 61.3595 85.2341 62.205 85.2819C62.7937 85.3121 63.3715 85.4517 63.909 85.6937C64.5097 85.9801 65.0878 86.3114 65.6386 86.6849C66.8981 87.5226 68.2933 88.1356 69.7623 88.4968C70.683 88.7384 71.6338 88.8456 72.5852 88.8149C73.4483 88.7846 74.2832 88.5001 74.985 87.9969C75.2863 87.7815 75.5418 87.5084 75.7368 87.1934C75.9318 86.8785 76.0624 86.528 76.121 86.1623C76.1711 85.8663 76.162 85.5633 76.0942 85.2708C76.0264 84.9783 75.9014 84.7022 75.7263 84.4583C75.5501 84.2736 75.3352 84.1303 75.0971 84.0384C74.8589 83.9466 74.6034 83.9086 74.3489 83.9272C74.1612 83.9565 73.976 84.0001 73.7951 84.0579Z" fill="#455A64"/>
<path d="M72.29 81.5547C72.2897 81.7782 72.2443 81.9994 72.1565 82.205C71.9103 82.7701 71.4825 83.2368 70.941 83.5313C70.5754 83.7441 70.1741 83.8884 69.7567 83.9573C69.2783 84.0271 68.7924 84.0271 68.314 83.9573C67.3001 83.8295 66.2522 83.4319 65.1502 83.0883C64.0483 82.7446 62.9379 82.5402 61.9609 82.7503C61.0952 82.9394 60.3112 83.3965 59.7202 84.0567C59.3176 84.4971 59.0093 85.0151 58.8142 85.579C58.6836 85.9822 58.658 86.218 58.641 86.2151C58.634 86.1585 58.634 86.1013 58.641 86.0447C58.6637 85.8814 58.6988 85.72 58.746 85.5619C58.9225 84.9786 59.2239 84.4407 59.6293 83.9857C60.2261 83.2962 61.0285 82.8164 61.9183 82.6168C62.9294 82.3925 64.071 82.5998 65.1786 82.9463C66.2862 83.2928 67.3257 83.6904 68.3168 83.821C68.783 83.8891 69.2565 83.8891 69.7226 83.821C70.1276 83.7598 70.5182 83.626 70.8757 83.4262C71.405 83.1486 71.8303 82.7073 72.0884 82.1681C72.1718 81.9693 72.2392 81.7642 72.29 81.5547Z" fill="#455A64"/>
<path d="M93.786 63.58C93.7604 63.6112 92.1643 62.3134 90.2189 60.6804C88.2735 59.0474 86.72 57.6842 86.7484 57.6643C86.7768 57.6444 88.3701 58.9309 90.3155 60.5668C92.2609 62.2026 93.8144 63.5488 93.786 63.58Z" fill="#263238"/>
<path d="M101.885 61.6349C101.846 61.6349 101.684 59.113 101.528 55.9975C101.371 52.882 101.275 50.3544 101.315 50.3516C101.354 50.3487 101.516 52.8735 101.675 55.9918C101.834 59.1101 101.925 61.6349 101.885 61.6349Z" fill="#263238"/>
<path d="M96.7277 59.8316C96.6879 59.8316 96.1909 58.4116 95.6144 56.6139C95.0379 54.8162 94.6034 53.3649 94.6431 53.3536C94.6829 53.3422 95.1799 54.7736 95.7564 56.5685C96.3329 58.3633 96.7646 59.8203 96.7277 59.8316Z" fill="#263238"/>
<path d="M92.1302 66.244C91.3823 65.9809 90.6511 65.6727 89.9405 65.321C89.2091 65.0127 88.4978 64.6589 87.8105 64.2617C88.5584 64.5248 89.2896 64.833 90.0002 65.1847C90.7313 65.4937 91.4426 65.8475 92.1302 66.244Z" fill="#263238"/>
<path d="M84.6637 62.9808C84.6637 63.0206 84.4223 63.0262 84.1354 62.9808C83.8486 62.9354 83.6214 62.8842 83.6271 62.8445C83.6327 62.8047 83.8685 62.799 84.1525 62.8445C84.4365 62.8899 84.6637 62.941 84.6637 62.9808Z" fill="#263238"/>
<path d="M94.8277 51.519C94.7851 51.519 94.7539 51.289 94.7539 51.0021C94.7539 50.7153 94.7851 50.4824 94.8277 50.4824C94.8703 50.4824 94.9016 50.7153 94.9016 51.0021C94.9016 51.289 94.8675 51.519 94.8277 51.519Z" fill="#263238"/>
<path d="M111.928 55.5296C111.959 55.558 110.647 57.0604 109.002 58.8865C107.358 60.7126 106.001 62.1724 105.964 62.144C105.927 62.1156 107.244 60.6161 108.889 58.7871C110.533 56.9581 111.899 55.5041 111.928 55.5296Z" fill="#263238"/>
<path d="M114.015 53.4649C114.043 53.4933 113.893 53.6921 113.677 53.908C113.461 54.1238 113.265 54.2715 113.237 54.2431C113.208 54.2147 113.359 54.0159 113.575 53.8029C113.791 53.5899 113.987 53.4252 114.015 53.4649Z" fill="#263238"/>
<path d="M119.076 60.7344C118.954 60.8221 118.825 60.8991 118.69 60.9644C118.437 61.1036 118.068 61.2995 117.608 61.5324C116.685 61.9982 115.393 62.6059 113.939 63.2109C112.484 63.8158 111.141 64.2986 110.158 64.6309C109.67 64.7927 109.272 64.9149 108.994 64.9972C108.853 65.0484 108.708 65.0855 108.56 65.108C108.694 65.0415 108.834 64.9864 108.977 64.9433L110.113 64.5315C111.084 64.1821 112.416 63.6795 113.87 63.0831C115.324 62.4867 116.617 61.8874 117.562 61.4472L118.664 60.9247C118.797 60.8512 118.934 60.7875 119.076 60.7344Z" fill="#263238"/>
<path d="M114.924 67.7266C114.681 67.8346 114.428 67.9174 114.168 67.9736C113.697 68.1043 113.032 68.2576 112.3 68.3854C111.567 68.5132 110.88 68.5842 110.4 68.6183C110.137 68.6518 109.871 68.6565 109.607 68.6325C109.865 68.5731 110.127 68.5332 110.391 68.5132C110.874 68.4536 111.541 68.3627 112.274 68.2292C113.007 68.0958 113.669 67.968 114.146 67.8657C114.4 67.7955 114.661 67.7489 114.924 67.7266Z" fill="#263238"/>
<path d="M118.698 67.0289C118.158 67.1274 117.603 67.1274 117.062 67.0289C117.603 66.9305 118.158 66.9305 118.698 67.0289Z" fill="#263238"/>
<path d="M97.3534 137.488C97.7531 137.556 98.1351 137.704 98.4766 137.923C98.8181 138.141 99.1122 138.426 99.3414 138.761C99.7938 139.436 100.085 140.207 100.193 141.013C100.452 142.558 100.034 144.313 99.4606 145.773C97.8844 145.031 97.0438 143.197 96.6774 142.237C96.1094 140.723 95.9646 137.63 97.3392 137.488" fill="#44AFF1"/>
<path d="M101.798 147.957C101.561 147.57 101.43 147.126 101.42 146.673C101.409 146.219 101.519 145.77 101.738 145.372C101.963 144.978 102.264 144.633 102.624 144.357C102.984 144.081 103.396 143.88 103.834 143.765C104.03 143.69 104.241 143.659 104.45 143.673C104.66 143.688 104.863 143.748 105.047 143.85C105.2 143.973 105.318 144.134 105.387 144.317C105.457 144.5 105.477 144.699 105.445 144.892C105.374 145.279 105.204 145.64 104.95 145.94C104.127 147.002 103.138 147.877 101.798 147.957Z" fill="#44AFF1"/>
<path d="M101.4 152.852C101.368 152.747 101.349 152.638 101.346 152.529C101.327 152.318 101.298 152.012 101.278 151.634C101.207 150.646 101.267 149.653 101.457 148.68C101.661 147.698 102.125 146.789 102.801 146.048C103.009 145.83 103.244 145.639 103.499 145.48C103.585 145.414 103.681 145.364 103.783 145.332C103.46 145.574 103.158 145.843 102.88 146.136C102.25 146.878 101.817 147.767 101.619 148.72C101.431 149.679 101.355 150.657 101.392 151.634C101.419 152.04 101.422 152.446 101.4 152.852Z" fill="#263238"/>
<path d="M97.7275 139.842C97.8072 140.005 97.8736 140.174 97.9263 140.347C98.0428 140.677 98.2103 141.154 98.3978 141.747C98.7869 142.935 99.2952 144.587 99.8178 146.419C100.34 148.251 100.761 149.927 101.05 151.142C101.195 151.75 101.306 152.241 101.377 152.585C101.424 152.76 101.457 152.938 101.473 153.119C101.404 152.952 101.35 152.779 101.312 152.602C101.212 152.233 101.084 151.75 100.931 151.182C100.61 149.975 100.164 148.308 99.6474 146.476C99.1305 144.644 98.642 142.989 98.2842 141.793L97.8667 140.373C97.8057 140.2 97.7591 140.022 97.7275 139.842Z" fill="#263238"/>
<path d="M99.6989 149.417C99.3024 148.549 98.7054 147.787 97.9568 147.194C97.2083 146.602 96.3297 146.196 95.3934 146.009C94.9163 145.918 94.3284 145.93 94.0615 146.339C93.7945 146.748 94.0245 147.293 94.3114 147.685C94.9234 148.498 95.7628 149.111 96.7233 149.446C97.6838 149.782 98.7223 149.825 99.7074 149.57" fill="#44AFF1"/>
<path d="M95.9161 147.368C96.0222 147.364 96.1285 147.375 96.2313 147.402C96.3532 147.419 96.4738 147.444 96.592 147.479C96.7516 147.516 96.909 147.563 97.0634 147.618C97.4669 147.759 97.8551 147.941 98.2222 148.16C99.1282 148.697 99.895 149.439 100.46 150.327C100.687 150.686 100.877 151.066 101.028 151.463C101.089 151.615 101.142 151.771 101.184 151.929C101.224 152.047 101.254 152.167 101.275 152.29C101.305 152.391 101.318 152.497 101.315 152.602C101.284 152.602 101.196 152.168 100.914 151.512C100.747 151.128 100.547 150.76 100.315 150.412C100.028 149.989 99.7002 149.595 99.3354 149.237C98.9658 148.884 98.5625 148.568 98.1313 148.294C97.7755 148.072 97.4011 147.882 97.0123 147.726C96.3534 147.476 95.9104 147.402 95.9161 147.368Z" fill="#263238"/>
</svg>
