<svg width="200" height="200" viewBox="0 0 200 200" fill="none" xmlns="http://www.w3.org/2000/svg">
<circle cx="100" cy="100" r="100" fill="#F2F2F2"/>
<g clip-path="url(#clip0_5167_49673)">
<path d="M127.781 116.85C121.743 112.921 120.371 105.579 120.613 98.9935C120.651 97.8965 120.522 96.7373 121.082 95.7713C121.642 94.8052 122.944 94.1503 123.994 94.612C124.869 94.9952 125.247 95.9448 125.744 96.7307C126.395 97.778 127.35 98.6316 128.498 99.1933C129.247 99.5568 130.171 99.7794 130.909 99.3963C131.924 98.8756 132.043 97.5658 132.036 96.472L131.994 90.3582C131.994 89.2678 131.994 88.1511 132.344 87.1131C132.694 86.075 133.51 85.1122 134.619 84.8208C135.729 84.5294 137.108 85.1286 137.342 86.1994C137.386 86.6512 137.396 87.1053 137.374 87.5584C137.409 88.0136 137.633 88.5146 138.095 88.6423C138.557 88.77 139.029 88.4589 139.375 88.1413C140.583 87.0377 141.402 85.6133 142.175 84.2117C142.949 82.8102 143.684 81.3497 144.776 80.1446C145.868 78.9395 147.383 77.9866 149.056 77.8982C150.729 77.8098 152.514 78.7758 152.937 80.3116C153.361 81.8474 152.388 83.4094 151.338 84.6538C149.786 86.5047 147.957 88.1359 145.906 89.497C145.508 89.7076 145.192 90.031 145.003 90.4205C144.748 91.1507 145.486 91.8744 146.256 92.1135C147.128 92.3853 148.073 92.3001 148.983 92.4016C149.892 92.5032 150.879 92.8765 151.226 93.682C151.702 94.7987 150.704 95.9743 149.721 96.7373C147.753 98.2742 145.516 99.4828 143.11 100.31C142.249 100.605 141.36 100.86 140.66 101.427C139.96 101.993 139.547 102.972 139.96 103.745C140.373 104.518 141.454 104.76 142.354 104.603C143.253 104.446 144.062 103.991 144.919 103.689C146.522 103.123 148.598 103.224 149.626 104.524C150.302 105.376 150.361 106.565 150.018 107.583C149.626 108.585 149.024 109.503 148.248 110.285C145.703 113.144 142.393 115.321 138.655 116.592C134.931 117.8 131.48 118.127 127.781 116.86" fill="#C1C1C1"/>
<path d="M151.233 78.8066C151.199 78.843 151.161 78.877 151.121 78.9082L150.771 79.1996C150.467 79.4517 150.015 79.8251 149.448 80.3195C147.843 81.7157 146.352 83.2218 144.986 84.8255C144.115 85.8406 143.212 86.9867 142.267 88.2344C141.322 89.482 140.324 90.8279 139.33 92.2753C138.277 93.7807 137.314 95.3396 136.446 96.945C135.995 97.78 135.596 98.6543 135.183 99.5483C134.77 100.442 134.364 101.343 133.944 102.256C132.349 105.689 130.96 109.201 129.783 112.778C128.834 115.704 128.181 118.707 127.833 121.747C127.608 123.798 127.571 120.649 127.725 122.705C127.788 123.432 127.847 123.999 127.9 124.379C127.924 124.562 127.942 124.706 127.956 124.814C127.961 124.864 127.961 124.915 127.956 124.965C127.94 124.916 127.929 124.867 127.921 124.817C127.903 124.709 127.879 124.569 127.847 124.385C127.777 124.005 127.704 123.442 127.63 122.712C127.445 120.651 127.459 123.793 127.672 121.734C128 118.68 128.64 115.662 129.583 112.722C130.751 109.136 132.138 105.615 133.738 102.178L134.98 99.4665C135.389 98.5757 135.795 97.6949 136.247 96.8467C137.123 95.2363 138.093 93.6719 139.152 92.1607C140.153 90.7133 141.161 89.374 142.109 88.1263C143.058 86.8787 143.978 85.7358 144.857 84.7272C146.241 83.1316 147.759 81.6413 149.396 80.2704C149.97 79.7858 150.446 79.419 150.747 79.1767L151.097 78.9016C151.139 78.8659 151.185 78.8341 151.233 78.8066Z" fill="#263238"/>
<path d="M136.325 96.8455C136.268 96.695 136.229 96.539 136.21 96.3805C136.15 96.0792 136.077 95.6371 135.993 95.0935C135.828 94.0064 135.643 92.4967 135.471 90.8365C135.3 89.1762 135.09 87.6666 134.908 86.5794C134.82 86.0391 134.743 85.597 134.684 85.299C134.644 85.1434 134.622 84.9842 134.617 84.8242C134.686 84.9709 134.735 85.1248 134.764 85.2827C134.848 85.5807 134.95 86.0129 135.058 86.5532C135.279 87.6371 135.499 89.1435 135.685 90.8103C135.87 92.4771 136.035 93.9441 136.143 95.0673C136.203 95.5782 136.252 96.0105 136.294 96.3576C136.324 96.5186 136.334 96.6823 136.325 96.8455Z" fill="#263238"/>
<path d="M151.339 94.221C151.141 94.2618 150.939 94.2848 150.737 94.2898C150.352 94.3225 149.795 94.3651 149.109 94.4404C147.73 94.5779 145.837 94.8333 143.761 95.1968C141.686 95.5603 139.831 95.9893 138.494 96.3168C137.822 96.4772 137.283 96.6213 136.909 96.7196C136.719 96.7827 136.523 96.8277 136.324 96.8538C136.504 96.7694 136.692 96.6993 136.884 96.6442C137.252 96.5231 137.784 96.3561 138.452 96.176C139.786 95.8092 141.647 95.3769 143.73 95.0036C145.505 94.684 147.297 94.4501 149.099 94.3029C149.799 94.2472 150.352 94.2243 150.74 94.2177C150.939 94.2024 151.14 94.2035 151.339 94.221Z" fill="#263238"/>
<path d="M129.778 112.462C129.736 112.41 129.701 112.353 129.677 112.292L129.421 111.784C129.197 111.342 128.896 110.694 128.536 109.888C127.811 108.277 126.884 106.024 125.897 103.526C124.91 101.027 124.011 98.7675 123.321 97.1432C122.971 96.3573 122.705 95.7089 122.502 95.2243C122.411 95.0147 122.341 94.8444 122.282 94.7036C122.251 94.6436 122.23 94.5795 122.219 94.5137C122.262 94.5664 122.296 94.6249 122.32 94.6872C122.39 94.8215 122.474 94.9918 122.576 95.1948C122.8 95.6369 123.101 96.2853 123.461 97.0908C124.186 98.6987 125.113 100.952 126.1 103.453C127.087 105.955 127.986 108.212 128.676 109.833L129.495 111.751C129.586 111.961 129.656 112.135 129.715 112.275C129.746 112.335 129.767 112.397 129.778 112.462Z" fill="#263238"/>
<path d="M149.74 106.441C149.678 106.475 149.612 106.502 149.544 106.52L148.963 106.7L146.828 107.355C145.022 107.902 142.537 108.688 139.797 109.556C137.056 110.423 134.547 111.193 132.741 111.701C131.831 111.956 131.096 112.156 130.582 112.287L129.99 112.431C129.857 112.464 129.784 112.477 129.78 112.467C129.843 112.434 129.91 112.409 129.98 112.391L130.561 112.211L132.696 111.556C134.502 111.01 136.983 110.224 139.727 109.356C142.471 108.488 144.977 107.719 146.782 107.211C147.689 106.956 148.427 106.752 148.938 106.625L149.53 106.481C149.598 106.459 149.668 106.446 149.74 106.441Z" fill="#263238"/>
<path d="M132.59 115.494C133.201 115.493 133.802 115.342 134.33 115.054C134.859 114.767 135.297 114.353 135.6 113.856C135.893 113.355 136.077 112.804 136.14 112.236C136.203 111.667 136.144 111.093 135.967 110.546C135.813 110.038 135.533 109.511 135.015 109.301C134.767 109.217 134.499 109.197 134.239 109.242C133.98 109.288 133.738 109.398 133.538 109.56C133.144 109.89 132.85 110.311 132.684 110.782C132.044 112.366 131.74 114.004 132.59 115.497" fill="#EBEBEB"/>
<path d="M131.939 118.538C133.228 118.495 134.509 118.741 135.677 119.253C136.845 119.765 137.866 120.531 138.655 121.485C139.05 121.973 139.386 122.644 139.054 123.172C138.721 123.699 137.923 123.751 137.279 123.646C135.934 123.411 134.694 122.807 133.715 121.912C132.736 121.017 132.063 119.87 131.781 118.617" fill="#EBEBEB"/>
<path d="M147.607 114.298C147.279 113.888 146.866 113.545 146.393 113.289C145.92 113.033 145.396 112.869 144.853 112.808C143.765 112.69 142.662 112.808 141.63 113.152C139.621 113.757 137.78 115.244 136.38 116.734C138.242 118.067 140.958 117.939 142.33 117.795C144.499 117.566 148.279 115.919 147.579 114.298" fill="#EBEBEB"/>
<path d="M127.189 118.71C127.534 118.633 127.873 118.537 128.204 118.422C129.431 117.93 130.581 117.286 131.624 116.506C132.673 115.711 133.473 114.664 133.937 113.477C134.069 113.116 134.154 112.741 134.189 112.361C134.212 112.222 134.212 112.08 134.189 111.941C134.095 112.443 133.961 112.936 133.787 113.418C133.289 114.555 132.495 115.557 131.477 116.333C130.446 117.096 129.326 117.748 128.138 118.275" fill="#263238"/>
<path d="M127.144 118.718L129.087 118.315C130.728 117.972 132.996 117.503 135.505 117.006C138.015 116.508 140.297 116.108 141.949 115.814L143.905 115.46C144.143 115.428 144.377 115.375 144.605 115.303C144.361 115.31 144.117 115.334 143.877 115.375C143.412 115.434 142.74 115.532 141.91 115.66C140.248 115.915 137.962 116.315 135.449 116.789C132.937 117.264 130.669 117.772 129.038 118.152C128.222 118.342 127.564 118.502 127.109 118.62" fill="#263238"/>
<path d="M136.64 121.604C136.58 121.485 136.501 121.374 136.406 121.277C136.311 121.149 136.206 121.029 136.091 120.917C135.946 120.76 135.792 120.611 135.629 120.471C135.211 120.101 134.753 119.772 134.264 119.489C133.663 119.146 133.023 118.864 132.357 118.651C131.685 118.447 130.991 118.311 130.288 118.244C129.715 118.195 129.138 118.2 128.566 118.261C128.346 118.279 128.128 118.311 127.912 118.356C127.748 118.38 127.587 118.416 127.429 118.464C127.166 118.536 127.114 118.628 127.117 118.641C127.6 118.541 128.089 118.466 128.58 118.415C129.143 118.379 129.707 118.39 130.267 118.447C131.64 118.588 132.965 119.002 134.152 119.662C134.636 119.932 135.093 120.243 135.517 120.589C136.245 121.175 136.609 121.63 136.64 121.604Z" fill="#263238"/>
<path d="M75.9621 41.1625C76.8167 40.9269 77.732 40.8073 78.6555 40.8106L124.524 40.9382C125.445 40.939 126.356 41.0618 127.206 41.2997C128.057 41.5376 128.829 41.8859 129.479 42.3247C130.129 42.7635 130.644 43.2842 130.995 43.857C131.346 44.4299 131.526 45.0437 131.524 45.6633L131.046 121.381C131.046 122.003 130.864 122.618 130.509 123.192C130.154 123.766 129.635 124.287 128.98 124.726C128.325 125.164 127.548 125.511 126.694 125.746C125.839 125.982 124.924 126.102 124 126.098L78.1154 125.954C77.1947 125.951 76.2838 125.827 75.4346 125.587C74.5855 125.348 73.8148 124.998 73.1667 124.558C72.5185 124.118 72.0055 123.596 71.6571 123.022C71.3086 122.449 71.1315 121.835 71.1358 121.215L71.6099 45.5274C71.6099 44.9059 71.7924 44.2905 72.1469 43.7166C72.5015 43.1427 73.021 42.6216 73.6758 42.1833C74.3305 41.7449 75.1075 41.398 75.9621 41.1625Z" fill="#F5F5F5"/>
<path d="M85.2549 57.5508C85.335 57.5526 85.4148 57.5624 85.4927 57.5801C85.5646 57.5624 85.6386 57.5525 85.713 57.5508H85.2549Z" fill="#455A64"/>
<path d="M123.31 60.2431C123.31 60.2431 123.412 60.2431 123.601 60.207C123.881 60.1528 124.14 60.0257 124.346 59.8403C124.512 59.6901 124.64 59.5073 124.722 59.3051C124.803 59.103 124.835 58.8864 124.815 58.6712C124.815 58.1506 124.815 57.5513 124.815 56.88C124.815 55.5308 124.815 53.8837 124.798 51.968C124.798 51.4899 124.798 50.9856 124.798 50.4813C124.812 50.2271 124.751 49.9742 124.622 49.7501C124.493 49.526 124.301 49.3395 124.066 49.2107C123.583 48.9258 122.953 49.0503 122.348 49.0241H120.465L80.2104 49.0503C79.981 49.0511 79.755 49.1029 79.5512 49.2014C79.3473 49.2999 79.1714 49.4423 79.0378 49.6168C78.9047 49.7913 78.8193 49.9937 78.7893 50.2062C78.7714 50.4241 78.7656 50.6427 78.7718 50.8612V58.8481C78.7819 59.0503 78.8407 59.2478 78.9437 59.4258C79.0468 59.6038 79.1914 59.7578 79.3668 59.8763C79.5401 59.9947 79.7401 60.0742 79.9514 60.1088C80.1721 60.1332 80.3945 60.1408 80.6165 60.1317H88.5483L106.642 60.1514L118.837 60.1809L122.155 60.1972H123.016C123.212 60.1972 123.31 60.1972 123.31 60.1972H123.016H122.155L118.837 60.2169L106.642 60.2463L88.5483 60.266H80.6165C80.3827 60.2734 80.1487 60.2646 79.9164 60.2398C79.5518 60.1786 79.2202 60.0033 78.976 59.7427C78.7318 59.4821 78.5894 59.1517 78.5723 58.8055C78.5723 57.0699 78.5723 55.306 78.5723 53.5136V50.8088C78.5723 50.5796 78.5723 50.3602 78.5723 50.1146C78.6103 49.8784 78.7075 49.654 78.8558 49.4596C79.007 49.2581 79.2076 49.0934 79.4409 48.9795C79.6742 48.8655 79.9333 48.8056 80.1964 48.8047L120.451 48.8309H123.251C123.558 48.8201 123.862 48.8929 124.126 49.0405C124.379 49.1806 124.586 49.3829 124.725 49.6253C124.864 49.8678 124.929 50.1411 124.913 50.4158C124.913 50.9267 124.913 51.4244 124.913 51.9025C124.913 53.8149 124.913 55.4621 124.896 56.8145C124.896 57.4858 124.896 58.0851 124.896 58.6057C124.912 58.828 124.875 59.0507 124.788 59.2579C124.701 59.4652 124.565 59.6518 124.392 59.8043C124.177 59.9898 123.91 60.1137 123.622 60.1612C123.523 60.2027 123.418 60.2303 123.31 60.2431Z" fill="#455A64"/>
<path d="M85.6631 57.5966C85.6631 57.5737 85.9502 57.5966 86.4402 57.4525C86.8657 57.3403 87.2615 57.1462 87.6022 56.8827C87.9429 56.6191 88.221 56.2919 88.4188 55.922C88.6165 55.5521 88.7294 55.1476 88.7504 54.7345C88.7713 54.3214 88.6998 53.9087 88.5404 53.5229C88.4338 53.2583 88.2838 53.0109 88.0959 52.7894C87.9039 52.5541 87.6736 52.3486 87.4133 52.1803C86.8653 51.8223 86.2097 51.6366 85.5415 51.6502C84.8732 51.6637 84.2269 51.8758 83.6959 52.2556C83.4434 52.4339 83.2225 52.6483 83.0414 52.8909C82.8635 53.1197 82.7242 53.3726 82.6283 53.6408C82.4866 54.0328 82.4335 54.4481 82.4724 54.8603C82.5113 55.2725 82.6414 55.6726 82.8543 56.0353C83.0673 56.398 83.3584 56.7153 83.7094 56.9672C84.0603 57.219 84.4634 57.3999 84.893 57.4984C85.3901 57.6097 85.6806 57.5868 85.6771 57.6097C85.4102 57.635 85.1407 57.6195 84.879 57.5638C84.1511 57.421 83.4982 57.0474 83.0309 56.5061C82.707 56.1324 82.4815 55.6927 82.3728 55.2225C82.2478 54.6784 82.2817 54.1128 82.4708 53.5851C82.681 53.0033 83.0692 52.492 83.5874 52.1148C84.1467 51.7098 84.8302 51.4836 85.5373 51.4695C86.2443 51.4553 86.9376 51.654 87.5148 52.0362C87.7901 52.217 88.0324 52.4382 88.2324 52.6912C88.4301 52.9266 88.5872 53.1896 88.6979 53.4705C88.9127 53.9917 88.9719 54.5576 88.8695 55.1079C88.7633 55.6868 88.481 56.2248 88.0563 56.6575C87.6317 57.0902 87.0827 57.3992 86.4752 57.5475C86.2094 57.6067 85.9348 57.6233 85.6631 57.5966Z" fill="#455A64"/>
<path d="M103.1 51.9629H91.7305V52.7619H103.1V51.9629Z" fill="#455A64"/>
<path d="M111.647 56.4668H91.7305V57.2658H111.647V56.4668Z" fill="#455A64"/>
<path d="M120.594 54.1602H91.7305V54.9592H120.594V54.1602Z" fill="#455A64"/>
<path d="M85.2549 85.7676C85.4087 85.7871 85.4927 85.7871 85.4927 85.8002C85.5646 85.7824 85.6386 85.7726 85.713 85.7708L85.2549 85.7676Z" fill="#455A64"/>
<path d="M88.0102 81.0365C87.8267 80.7971 87.6019 80.588 87.3451 80.4176C86.8089 80.0474 86.1599 79.8477 85.4935 79.8477C84.827 79.8477 84.1781 80.0474 83.6418 80.4176C83.1405 80.7588 82.7591 81.2318 82.5462 81.7765C82.3636 82.2385 82.3076 82.7359 82.3834 83.2233C82.4593 83.7106 82.6644 84.1725 82.9802 84.5666L83.0992 84.7008C83.2279 84.3091 83.4759 83.9611 83.8129 83.6993C84.1499 83.4376 84.5612 83.2735 84.9964 83.2272C84.7246 83.1161 84.4938 82.9327 84.3326 82.6998C84.1714 82.4669 84.087 82.1948 84.0898 81.9174C84.0761 81.7349 84.1027 81.5518 84.1679 81.3794C84.2331 81.207 84.3356 81.0489 84.4689 80.9152C84.6022 80.7814 84.7635 80.6747 84.9428 80.6018C85.1221 80.5288 85.3155 80.4912 85.511 80.4912C85.7065 80.4912 85.8999 80.5288 86.0791 80.6018C86.2584 80.6747 86.4197 80.7814 86.553 80.9152C86.6863 81.0489 86.7888 81.207 86.854 81.3794C86.9192 81.5518 86.9458 81.7349 86.9321 81.9174C86.9343 82.1943 86.8501 82.4657 86.6896 82.6984C86.5292 82.9311 86.2996 83.1149 86.029 83.2272C86.4586 83.275 86.8639 83.4393 87.1948 83.7C87.5257 83.9607 87.7678 84.3064 87.8912 84.6943L88.0067 84.5666C88.3225 84.1725 88.5277 83.7106 88.6035 83.2233C88.6793 82.7359 88.6234 82.2385 88.4408 81.7765C88.3385 81.5107 88.1933 81.2612 88.0102 81.0365Z" fill="#FAFAFA"/>
<path d="M85.3272 85.8505C85.3272 85.8276 85.6142 85.8505 86.1043 85.7064C86.5298 85.5942 86.9256 85.4002 87.2663 85.1366C87.607 84.873 87.8851 84.5458 88.0828 84.1759C88.2805 83.806 88.3935 83.4015 88.4144 82.9884C88.4354 82.5753 88.3639 82.1626 88.2045 81.7768C88.0978 81.5122 87.9479 81.2648 87.7599 81.0433C87.568 80.808 87.3376 80.6025 87.0774 80.4342C86.5293 80.0762 85.8738 79.8906 85.2055 79.9041C84.5373 79.9176 83.8909 80.1297 83.36 80.5095C83.1075 80.6878 82.8866 80.9022 82.7054 81.1448C82.5276 81.3736 82.3883 81.6265 82.2924 81.8947C82.1507 82.2867 82.0976 82.702 82.1365 83.1142C82.1754 83.5264 82.3054 83.9265 82.5184 84.2892C82.7313 84.6519 83.0225 84.9692 83.3735 85.2211C83.7244 85.473 84.1275 85.6538 84.5571 85.7523C85.0542 85.8636 85.3447 85.8407 85.3412 85.8636C85.0743 85.8889 84.8047 85.8734 84.5431 85.8178C83.8152 85.6749 83.1623 85.3013 82.6949 84.76C82.371 84.3863 82.1456 83.9466 82.0369 83.4764C81.9119 82.9323 81.9457 82.3667 82.1349 81.839C82.345 81.2572 82.7333 80.7459 83.2515 80.3687C83.8107 79.9637 84.4943 79.7375 85.2013 79.7234C85.9084 79.7092 86.6016 79.9079 87.1789 80.2901C87.4541 80.4709 87.6964 80.6921 87.8965 80.9451C88.0942 81.1805 88.2512 81.4435 88.362 81.7244C88.5767 82.2456 88.636 82.8115 88.5335 83.3618C88.4273 83.9407 88.145 84.4787 87.7204 84.9114C87.2958 85.3441 86.7468 85.6531 86.1393 85.8014C85.8735 85.8606 85.5989 85.8772 85.3272 85.8505Z" fill="#455A64"/>
<path d="M123.313 88.4557C123.313 88.4557 123.414 88.4557 123.603 88.4197C123.884 88.3655 124.142 88.2384 124.349 88.0529C124.515 87.9024 124.644 87.7191 124.725 87.5163C124.806 87.3135 124.838 87.0963 124.818 86.8806C124.818 86.3632 124.818 85.764 124.818 85.0894C124.818 83.7435 124.818 82.0931 124.8 80.1774C124.8 79.6993 124.8 79.195 124.8 78.694C124.814 78.4394 124.754 78.186 124.625 77.9614C124.496 77.7369 124.303 77.5496 124.069 77.4201C123.586 77.1352 122.956 77.2597 122.35 77.2335H120.467L80.2128 77.2629C79.9832 77.263 79.7569 77.3144 79.5529 77.413C79.3489 77.5115 79.1731 77.6543 79.0402 77.8295C78.9066 78.0025 78.8212 78.204 78.7916 78.4156C78.7738 78.6335 78.768 78.8521 78.7741 79.0706V87.0738C78.7848 87.2759 78.8438 87.4733 78.9468 87.6512C79.0497 87.8292 79.1941 87.9832 79.3692 88.1021C79.5424 88.2204 79.7424 88.3 79.9538 88.3346C80.1746 88.3573 80.3968 88.3649 80.6188 88.3575H88.5506L106.644 88.3771L118.839 88.4099H122.158H123.019C123.215 88.4099 123.313 88.4099 123.313 88.4099C123.313 88.4099 123.215 88.4099 123.019 88.4099H122.158L118.839 88.4263L106.644 88.459L88.5506 88.4786H80.6188C80.3852 88.4872 80.1512 88.4795 79.9188 88.4557C79.5636 88.3961 79.2395 88.2282 78.997 87.9783C78.7545 87.7283 78.6072 87.4103 78.5781 87.0738C78.5781 85.3383 78.5781 83.5743 78.5781 81.782V79.0771C78.5781 78.8479 78.5781 78.6318 78.5781 78.3829C78.6135 78.141 78.7108 77.9107 78.8617 77.7116C79.0132 77.5104 79.214 77.3461 79.4472 77.2322C79.6803 77.1183 79.9392 77.0581 80.2023 77.0566L120.456 77.0828H123.257C123.48 77.0747 123.703 77.1104 123.91 77.1876C124.118 77.2648 124.306 77.3817 124.463 77.531C124.62 77.6802 124.741 77.8585 124.82 78.0542C124.898 78.25 124.932 78.459 124.919 78.6678C124.919 79.1786 124.919 79.6731 124.919 80.1512C124.919 82.0636 124.919 83.714 124.902 85.0632C124.902 85.7378 124.902 86.337 124.902 86.8544C124.918 87.0767 124.881 87.2995 124.794 87.5067C124.707 87.714 124.571 87.9006 124.398 88.0529C124.183 88.2392 123.916 88.3642 123.628 88.4132C123.525 88.4416 123.419 88.4559 123.313 88.4557Z" fill="#455A64"/>
<path d="M103.102 80.1758H91.7324V80.9748H103.102V80.1758Z" fill="#455A64"/>
<path d="M111.649 84.6875H91.7324V85.4865H111.649V84.6875Z" fill="#455A64"/>
<path d="M120.596 82.377H91.7324V83.176H120.596V82.377Z" fill="#455A64"/>
<path d="M78.7808 64.0644L78.7548 72.7717C78.7527 73.4824 79.3669 74.0602 80.1266 74.0622L123.552 74.1756C124.312 74.1776 124.929 73.603 124.931 72.8923L124.957 64.185C124.959 63.4742 124.345 62.8965 123.586 62.8945L80.1603 62.781C79.4005 62.779 78.7829 63.3536 78.7808 64.0644Z" fill="#3450A1"/>
<path d="M103.214 65.7699L91.8447 65.7402L91.8423 66.5392L103.211 66.569L103.214 65.7699Z" fill="#FAFAFA"/>
<path d="M111.749 70.2981L91.832 70.2461L91.8296 71.0451L111.747 71.0971L111.749 70.2981Z" fill="#FAFAFA"/>
<path d="M120.703 68.0168L91.8389 67.9414L91.8365 68.7404L120.7 68.8158L120.703 68.0168Z" fill="#FAFAFA"/>
<path d="M85.6631 71.3505C85.6631 71.3276 85.9502 71.3505 86.4402 71.2064C86.8657 71.0942 87.2615 70.9002 87.6022 70.6366C87.9429 70.373 88.221 70.0458 88.4188 69.6759C88.6165 69.306 88.7294 68.9015 88.7504 68.4884C88.7713 68.0753 88.6998 67.6626 88.5404 67.2768C88.4338 67.0122 88.2838 66.7648 88.0959 66.5433C87.9039 66.308 87.6736 66.1025 87.4133 65.9342C86.8653 65.5762 86.2097 65.3906 85.5415 65.4041C84.8732 65.4176 84.2269 65.6297 83.6959 66.0095C83.4434 66.1878 83.2225 66.4022 83.0414 66.6448C82.8635 66.8736 82.7242 67.1265 82.6283 67.3947C82.4866 67.7867 82.4335 68.202 82.4724 68.6142C82.5113 69.0264 82.6414 69.4265 82.8543 69.7892C83.0673 70.1519 83.3584 70.4692 83.7094 70.7211C84.0603 70.973 84.4634 71.1538 84.893 71.2523C85.3901 71.3636 85.6806 71.3407 85.6771 71.3636C85.4102 71.3889 85.1407 71.3734 84.879 71.3178C84.1511 71.1749 83.4982 70.8013 83.0309 70.26C82.707 69.8863 82.4815 69.4466 82.3728 68.9764C82.2478 68.4323 82.2817 67.8667 82.4708 67.339C82.681 66.7572 83.0692 66.2459 83.5874 65.8687C84.1467 65.4637 84.8302 65.2375 85.5373 65.2234C86.2443 65.2092 86.9376 65.4079 87.5148 65.7901C87.7901 65.9709 88.0324 66.1921 88.2324 66.4451C88.4301 66.6805 88.5872 66.9435 88.6979 67.2244C88.9127 67.7456 88.9719 68.3115 88.8695 68.8618C88.7633 69.4407 88.481 69.9787 88.0563 70.4114C87.6317 70.8441 87.0827 71.1531 86.4752 71.3014C86.2094 71.3606 85.9348 71.3772 85.6631 71.3505Z" fill="#FAFAFA"/>
<path d="M85.2549 100.406C85.4087 100.426 85.4927 100.426 85.4927 100.439C85.4927 100.452 85.5696 100.439 85.713 100.41L85.2549 100.406Z" fill="#455A64"/>
<path d="M85.6641 100.245C85.6641 100.222 85.9511 100.245 86.4412 100.101C86.8667 99.9888 87.2625 99.7947 87.6032 99.5311C87.9439 99.2676 88.222 98.9404 88.4197 98.5704C88.6174 98.2005 88.7304 97.796 88.7513 97.3829C88.7723 96.9698 88.7008 96.5571 88.5414 96.1714C88.4348 95.9068 88.2848 95.6593 88.0969 95.4378C87.9049 95.2026 87.6745 94.997 87.4143 94.8287C86.8663 94.4707 86.2107 94.2851 85.5425 94.2986C84.8742 94.3122 84.2279 94.5242 83.6969 94.9041C83.4444 95.0823 83.2235 95.2967 83.0423 95.5393C82.8645 95.7681 82.7252 96.021 82.6293 96.2892C82.4876 96.6812 82.4345 97.0965 82.4734 97.5087C82.5123 97.9209 82.6424 98.321 82.8553 98.6837C83.0682 99.0464 83.3594 99.3638 83.7104 99.6156C84.0613 99.8675 84.4644 100.048 84.894 100.147C85.3911 100.258 85.6816 100.235 85.6781 100.258C85.4112 100.283 85.1416 100.268 84.88 100.212C84.1521 100.069 83.4992 99.6958 83.0318 99.1546C82.7079 98.7809 82.4825 98.3411 82.3738 97.8709C82.2488 97.3268 82.2827 96.7612 82.4718 96.2336C82.6819 95.6517 83.0702 95.1404 83.5884 94.7633C84.1477 94.3583 84.8312 94.132 85.5382 94.1179C86.2453 94.1037 86.9385 94.3024 87.5158 94.6847C87.791 94.8655 88.0333 95.0866 88.2334 95.3396C88.4311 95.5751 88.5882 95.838 88.6989 96.119C88.9136 96.6401 88.9729 97.2061 88.8704 97.7563C88.7643 98.3352 88.4819 98.8732 88.0573 99.3059C87.6327 99.7386 87.0837 100.048 86.4762 100.196C86.2104 100.255 85.9358 100.272 85.6641 100.245Z" fill="#455A64"/>
<path d="M123.31 103.165C123.31 103.165 123.412 103.165 123.601 103.129C123.881 103.075 124.14 102.948 124.346 102.762C124.513 102.612 124.641 102.428 124.722 102.226C124.803 102.023 124.835 101.806 124.815 101.59C124.815 101.069 124.815 100.473 124.815 99.7987C124.815 98.4495 124.815 96.8023 124.798 94.8867C124.798 94.4086 124.798 93.9043 124.798 93.4032C124.812 93.1487 124.751 92.8953 124.622 92.6707C124.493 92.4461 124.301 92.2589 124.066 92.1294C123.583 91.8445 122.953 91.9689 122.348 91.9427H120.465L80.2104 91.9722C79.9807 91.9714 79.7541 92.0225 79.55 92.1212C79.3458 92.2198 79.1701 92.363 79.0378 92.5387C78.9038 92.7116 78.8183 92.9131 78.7893 93.1249C78.7715 93.3428 78.7656 93.5614 78.7718 93.7798V101.786C78.7819 101.989 78.8407 102.187 78.9437 102.366C79.0467 102.544 79.1913 102.699 79.3668 102.818C79.5401 102.936 79.7401 103.016 79.9514 103.05C80.1723 103.071 80.3945 103.079 80.6165 103.073H88.5483L106.642 103.093L118.837 103.126L122.155 103.142H123.016C123.212 103.142 123.31 103.142 123.31 103.142H123.016H122.155H118.837L106.642 103.172L88.5483 103.194H80.6165C80.3827 103.204 80.1486 103.195 79.9164 103.168C79.6746 103.132 79.4454 103.042 79.2478 102.906C79.0475 102.772 78.8825 102.596 78.7654 102.393C78.6484 102.19 78.5823 101.965 78.5723 101.734C78.5723 99.9875 78.5723 98.2235 78.5723 96.4421V93.7373C78.5723 93.508 78.5723 93.2919 78.5723 93.043C78.6076 92.8012 78.7049 92.5709 78.8558 92.3717C79.0082 92.1714 79.2091 92.0076 79.4421 91.8938C79.6751 91.7799 79.9336 91.7193 80.1964 91.7168L120.451 91.7463H123.251C123.558 91.7385 123.861 91.8111 124.126 91.9558C124.379 92.0968 124.586 92.2997 124.725 92.5426C124.864 92.7856 124.929 93.0594 124.913 93.3345C124.913 93.8453 124.913 94.3398 124.913 94.8179C124.913 96.7303 124.913 98.3775 124.896 99.7299C124.896 100.404 124.896 101 124.896 101.521C124.912 101.743 124.875 101.966 124.788 102.173C124.701 102.381 124.566 102.567 124.392 102.72C124.177 102.906 123.91 103.031 123.622 103.08C123.523 103.123 123.418 103.151 123.31 103.165Z" fill="#455A64"/>
<path d="M103.1 94.8125H91.7305V95.6115H103.1V94.8125Z" fill="#455A64"/>
<path d="M111.647 99.3223H91.7305V100.121H111.647V99.3223Z" fill="#455A64"/>
<path d="M120.594 97.0156H91.7305V97.8146H120.594V97.0156Z" fill="#455A64"/>
<path d="M85.2549 114.742C85.4087 114.758 85.4927 114.762 85.4927 114.775C85.4927 114.788 85.5696 114.758 85.713 114.745L85.2549 114.742Z" fill="#455A64"/>
<path d="M123.311 117.503C123.311 117.503 123.413 117.503 123.602 117.467C123.97 117.394 124.297 117.197 124.521 116.913C124.744 116.63 124.85 116.279 124.816 115.928C124.816 115.408 124.816 114.812 124.816 114.137C124.816 112.788 124.816 111.141 124.799 109.225C124.799 108.747 124.799 108.243 124.799 107.742C124.812 107.485 124.749 107.229 124.616 107.004C124.483 106.778 124.286 106.592 124.046 106.465C123.563 106.18 122.933 106.304 122.328 106.278H120.444L80.1904 106.304C79.9606 106.305 79.7342 106.357 79.5302 106.456C79.3263 106.555 79.1506 106.698 79.0178 106.874C78.8837 107.047 78.7983 107.248 78.7693 107.46C78.7514 107.678 78.7456 107.897 78.7518 108.115V116.125C78.7619 116.327 78.8207 116.525 78.9237 116.703C79.0267 116.881 79.1714 117.035 79.3468 117.153C79.5197 117.273 79.7198 117.353 79.9314 117.389C80.1523 117.41 80.3745 117.417 80.5964 117.409H88.5283L106.622 117.428L118.817 117.458L122.135 117.477H122.996H123.29C123.29 117.477 123.192 117.477 122.996 117.477H122.135L118.817 117.497L106.622 117.526L88.5283 117.546H80.6174C80.3837 117.553 80.1497 117.545 79.9174 117.52C79.6753 117.482 79.4462 117.391 79.2488 117.255C79.0485 117.121 78.8835 116.946 78.7665 116.743C78.6494 116.541 78.5833 116.316 78.5732 116.086C78.5732 114.35 78.5732 112.586 78.5732 110.794V108.089C78.5732 107.86 78.5732 107.643 78.5732 107.395C78.6086 107.153 78.7059 106.922 78.8568 106.723C79.0086 106.522 79.2093 106.358 79.4425 106.244C79.6756 106.13 79.9344 106.07 80.1974 106.068L120.451 106.098H123.252C123.559 106.09 123.862 106.163 124.127 106.307C124.38 106.448 124.587 106.651 124.726 106.894C124.865 107.137 124.93 107.411 124.914 107.686C124.914 108.197 124.914 108.691 124.914 109.169C124.914 111.082 124.914 112.729 124.897 114.081C124.897 114.756 124.897 115.352 124.897 115.873C124.913 116.095 124.876 116.318 124.789 116.525C124.702 116.732 124.566 116.919 124.393 117.071C124.179 117.258 123.911 117.382 123.623 117.428C123.524 117.468 123.419 117.493 123.311 117.503Z" fill="#455A64"/>
<path d="M85.6641 114.634C85.6641 114.611 85.9511 114.634 86.4412 114.49C86.8667 114.377 87.2625 114.183 87.6032 113.92C87.9439 113.656 88.222 113.329 88.4197 112.959C88.6174 112.589 88.7304 112.185 88.7513 111.772C88.7723 111.358 88.7008 110.946 88.5414 110.56C88.4348 110.295 88.2848 110.048 88.0969 109.827C87.9049 109.591 87.6745 109.386 87.4143 109.217C86.8663 108.859 86.2107 108.674 85.5425 108.687C84.8742 108.701 84.2279 108.913 83.6969 109.293C83.4444 109.471 83.2235 109.685 83.0423 109.928C82.8645 110.157 82.7252 110.41 82.6293 110.678C82.4876 111.07 82.4345 111.485 82.4734 111.897C82.5123 112.31 82.6424 112.71 82.8553 113.072C83.0682 113.435 83.3594 113.752 83.7104 114.004C84.0613 114.256 84.4644 114.437 84.894 114.535C85.3911 114.647 85.6816 114.624 85.6781 114.647C85.4112 114.672 85.1416 114.657 84.88 114.601C84.1521 114.458 83.4992 114.085 83.0318 113.543C82.7079 113.17 82.4825 112.73 82.3738 112.26C82.2488 111.715 82.2827 111.15 82.4718 110.622C82.6819 110.04 83.0702 109.529 83.5884 109.152C84.1477 108.747 84.8312 108.521 85.5382 108.507C86.2453 108.492 86.9385 108.691 87.5158 109.073C87.791 109.254 88.0333 109.475 88.2334 109.728C88.4311 109.964 88.5882 110.227 88.6989 110.508C88.9136 111.029 88.9729 111.595 88.8704 112.145C88.7643 112.724 88.4819 113.262 88.0573 113.695C87.6327 114.127 87.0837 114.436 86.4762 114.585C86.2104 114.644 85.9358 114.66 85.6641 114.634Z" fill="#455A64"/>
<path d="M103.101 109.152H91.7314V109.951H103.101V109.152Z" fill="#455A64"/>
<path d="M111.648 113.658H91.7314V114.457H111.648V113.658Z" fill="#455A64"/>
<path d="M120.595 111.354H91.7314V112.153H120.595V111.354Z" fill="#455A64"/>
<path d="M123.448 65.897C124.736 65.897 125.78 64.9206 125.78 63.7161C125.78 62.5116 124.736 61.5352 123.448 61.5352C122.161 61.5352 121.117 62.5116 121.117 63.7161C121.117 64.9206 122.161 65.897 123.448 65.897Z" fill="#263238"/>
<path d="M122.304 63.5359L123.284 64.3415L124.589 63.084" stroke="#FAFAFA" stroke-linecap="round" stroke-linejoin="round"/>
<path d="M91.7446 168.121C126.95 168.121 155.489 166.516 155.489 164.536C155.489 162.556 126.95 160.951 91.7446 160.951C56.5394 160.951 28 162.556 28 164.536C28 166.516 56.5394 168.121 91.7446 168.121Z" fill="#F5F5F5"/>
<path d="M58.8449 160.818L58.2744 163.919L63.3842 164.27L63.4017 161.221L58.8449 160.818Z" fill="#FF725E"/>
<path d="M61.1478 160.859C61.1339 161.807 61.0166 162.75 60.7978 163.676C60.7781 163.201 60.8086 162.726 60.8888 162.258C60.9252 161.785 61.0119 161.316 61.1478 160.859Z" fill="#263238"/>
<path d="M63.3829 163.931C63.1355 163.934 62.8883 163.917 62.6444 163.878L60.87 163.695C60.17 163.62 59.547 163.541 59.0956 163.469C58.8491 163.443 58.6063 163.392 58.3711 163.318C58.6184 163.31 58.866 163.327 59.1096 163.368L60.8875 163.554C61.5874 163.626 62.2069 163.708 62.6584 163.78C62.9048 163.807 63.1476 163.857 63.3829 163.931Z" fill="#263238"/>
<path d="M77.2883 162.508V159.725L71.7236 159.676L71.6641 163.746L72.014 163.769C73.5505 163.861 79.8292 164.142 80.8581 163.861C82.0096 163.546 77.2883 162.508 77.2883 162.508Z" fill="#FF725E"/>
<g opacity="0.38">
<path opacity="0.38" d="M73.6898 163.725C73.6115 163.285 73.3622 162.888 72.9898 162.609C72.6246 162.331 72.1615 162.191 71.6914 162.216V163.673L73.6898 163.725Z" fill="black"/>
</g>
<g opacity="0.38">
<path opacity="0.38" d="M79.5916 163.09C79.5916 163.09 81.2435 163.552 81.0335 163.807C80.8235 164.062 74.4678 164 71.668 163.745V163.627L79.0806 163.755C79.0806 163.755 79.2696 163.116 79.5916 163.09Z" fill="black"/>
</g>
<path d="M71.5938 163.627H71.6882L71.9612 163.647L72.9727 163.696C73.8301 163.732 75.0096 163.768 76.315 163.781C77.6205 163.794 78.7999 163.781 79.6574 163.764L80.6688 163.735H80.9453C80.9766 163.739 81.0085 163.739 81.0398 163.735H80.6688H79.6574C78.7999 163.735 77.6205 163.735 76.315 163.735C75.0096 163.735 73.8301 163.692 72.9762 163.666L71.9647 163.637H71.6882L71.5938 163.627Z" fill="#263238"/>
<path d="M79.0924 163.835C79.1389 163.679 79.2046 163.529 79.2882 163.387C79.3911 163.256 79.5083 163.136 79.6379 163.027C79.4648 163.087 79.3207 163.203 79.2322 163.355C79.1244 163.493 79.0747 163.665 79.0924 163.835Z" fill="#263238"/>
<path d="M77.4582 163.044C77.4582 163.044 77.5526 162.965 77.6365 162.848C77.6963 162.78 77.7382 162.701 77.7589 162.615C77.7589 162.615 77.661 162.694 77.5806 162.812C77.5002 162.929 77.4442 163.034 77.4582 163.044Z" fill="#263238"/>
<path d="M77.0089 162.817C77.0089 162.817 77.1103 162.775 77.2082 162.696C77.3061 162.618 77.3726 162.542 77.3586 162.529C77.3446 162.516 77.2607 162.569 77.1628 162.65C77.0648 162.732 76.9984 162.791 77.0089 162.817Z" fill="#263238"/>
<path d="M76.7285 162.324C76.9197 162.363 77.1178 162.363 77.309 162.324C77.309 162.304 77.1796 162.288 77.0222 162.285C76.9225 162.278 76.8223 162.292 76.7285 162.324Z" fill="#263238"/>
<path d="M76.6348 161.979C76.7313 162.038 76.8443 162.07 76.96 162.07C77.078 162.091 77.2004 162.078 77.3096 162.031C77.2013 162.012 77.0911 162.004 76.9809 162.008C76.867 161.987 76.7509 161.977 76.6348 161.979Z" fill="#263238"/>
<path d="M77.6533 162.592C77.7691 162.609 77.8872 162.609 78.003 162.592C78.132 162.576 78.2595 162.551 78.3841 162.516C78.4596 162.497 78.5323 162.47 78.6009 162.434C78.6228 162.424 78.6421 162.409 78.6577 162.391C78.6733 162.373 78.685 162.352 78.6919 162.33C78.6971 162.305 78.695 162.28 78.6857 162.256C78.6765 162.232 78.6605 162.211 78.6394 162.196C78.504 162.131 78.3484 162.112 78.2 162.144C78.0516 162.176 77.92 162.255 77.8282 162.369C77.7707 162.432 77.73 162.507 77.7093 162.588C77.7093 162.647 77.7093 162.68 77.7093 162.68C77.7448 162.576 77.8005 162.48 77.8736 162.395C77.9554 162.308 78.0622 162.244 78.1813 162.212C78.3226 162.17 78.4758 162.182 78.6079 162.245C78.6639 162.284 78.6394 162.346 78.5765 162.382C78.5123 162.413 78.4457 162.439 78.3772 162.461C78.2563 162.498 78.1323 162.527 78.0065 162.546C77.7897 162.582 77.6533 162.582 77.6533 162.592Z" fill="#263238"/>
<path d="M77.7439 162.605C77.7439 162.605 77.8033 162.526 77.7893 162.376C77.7775 162.288 77.744 162.204 77.6914 162.13C77.6628 162.08 77.6207 162.038 77.5692 162.007C77.5177 161.977 77.4586 161.959 77.3977 161.957C77.3795 161.96 77.3622 161.967 77.3467 161.976C77.3312 161.986 77.3179 161.998 77.3075 162.012C77.2971 162.026 77.2898 162.042 77.2861 162.059C77.2823 162.076 77.2823 162.094 77.2858 162.111C77.2933 162.163 77.3136 162.214 77.3452 162.258C77.3914 162.332 77.4466 162.402 77.5096 162.464C77.5651 162.524 77.6345 162.571 77.7124 162.602C77.7124 162.602 77.6425 162.539 77.5446 162.435C77.4903 162.371 77.4413 162.303 77.3977 162.232C77.3487 162.16 77.3173 162.032 77.3977 162.019C77.4781 162.006 77.576 162.094 77.632 162.163C77.6815 162.229 77.7149 162.303 77.7299 162.382C77.742 162.456 77.7467 162.53 77.7439 162.605Z" fill="#263238"/>
<path d="M71.7246 162.2C71.7246 162.2 71.8821 162.2 72.1341 162.216C72.4611 162.256 72.7699 162.38 73.0265 162.573C73.2816 162.769 73.4731 163.028 73.5795 163.32C73.6202 163.442 73.6541 163.565 73.681 163.69C73.687 163.655 73.687 163.62 73.681 163.585C73.6713 163.49 73.6513 163.395 73.6215 163.304C73.5229 162.998 73.3291 162.726 73.065 162.524C72.7998 162.322 72.4752 162.2 72.1341 162.174C72.0329 162.163 71.9308 162.163 71.8296 162.174C71.7932 162.176 71.7576 162.185 71.7246 162.2Z" fill="#263238"/>
<path d="M72.3206 160.037C72.279 160.392 72.2591 160.748 72.2611 161.105C72.2398 161.461 72.2398 161.819 72.2611 162.175C72.3028 161.821 72.3227 161.465 72.3206 161.108C72.342 160.751 72.342 160.394 72.3206 160.037Z" fill="#263238"/>
<path d="M74.3936 163.223C74.6593 163.283 74.9322 163.311 75.2055 163.305C75.4786 163.321 75.7528 163.303 76.021 163.253C76.021 163.233 75.671 163.253 75.209 163.253C74.747 163.253 74.3971 163.204 74.3936 163.223Z" fill="#263238"/>
<path d="M73.292 163.209C73.292 163.209 73.32 163.281 73.3549 163.36C73.3899 163.438 73.4109 163.507 73.4319 163.507C73.4528 163.507 73.4598 163.425 73.4319 163.334C73.4039 163.242 73.3165 163.196 73.292 163.209Z" fill="#263238"/>
<path d="M72.8994 162.727C72.8994 162.727 72.9203 162.793 72.9761 162.848C73.0318 162.904 73.091 162.936 73.105 162.926C73.1189 162.917 73.0806 162.858 73.0248 162.802C72.9691 162.747 72.9099 162.714 72.8994 162.727Z" fill="#263238"/>
<path d="M72.3107 162.5C72.3107 162.517 72.3876 162.517 72.4715 162.546C72.5554 162.575 72.6114 162.614 72.6254 162.601C72.6394 162.588 72.5939 162.52 72.4925 162.487C72.3911 162.455 72.3072 162.484 72.3107 162.5Z" fill="#263238"/>
<path d="M71.8926 162.392C71.8926 162.392 71.917 162.437 71.9623 162.453C72.0076 162.469 72.0494 162.453 72.0563 162.453C72.0633 162.453 72.0319 162.411 71.9867 162.395C71.9414 162.379 71.8926 162.375 71.8926 162.392Z" fill="#263238"/>
<path d="M68.8468 77.9959C68.8888 77.1805 68.9833 76.257 68.9833 76.257C68.9833 76.257 71.1392 76.0376 71.2686 73.9648C71.3981 71.8919 71.2686 67.088 71.2686 67.088L67.3418 65.2051L63.0195 68.3946L63.674 78.8178L67.6498 79.0536C67.8032 79.0597 67.9563 79.0371 68.1001 78.9869C68.2439 78.9367 68.3755 78.86 68.4871 78.7614C68.5987 78.6628 68.6881 78.5442 68.7498 78.4127C68.8116 78.2812 68.8446 78.1395 68.8468 77.9959Z" fill="#FFBE9D"/>
<path d="M69.2357 72.3049C69.2357 72.3049 69.2357 72.3409 69.2007 72.3933C69.1712 72.427 69.1337 72.4537 69.0911 72.4714C69.0486 72.489 69.0022 72.497 68.9557 72.4949C68.7037 72.4949 68.4622 72.2263 68.3747 71.9087C68.3347 71.7571 68.3347 71.5986 68.3747 71.447C68.3795 71.3779 68.4038 71.3112 68.4449 71.2537C68.4861 71.1962 68.5428 71.1499 68.6092 71.1195C68.6352 71.109 68.6632 71.1035 68.6915 71.1035C68.7198 71.1035 68.7478 71.109 68.7737 71.1195C68.8136 71.1362 68.845 71.1667 68.8612 71.2046C68.8927 71.2636 68.8612 71.3029 68.8612 71.2996C68.8612 71.2963 68.8612 71.2636 68.8192 71.2276C68.7993 71.2004 68.7691 71.1812 68.7347 71.1739C68.7003 71.1666 68.6643 71.1718 68.6337 71.1883C68.587 71.217 68.5484 71.2558 68.521 71.3014C68.4936 71.3469 68.4782 71.398 68.4762 71.4502C68.4491 71.5873 68.4551 71.7283 68.4937 71.8628C68.5707 72.1477 68.7807 72.377 68.9662 72.3999C69.0034 72.4044 69.0412 72.4018 69.0773 72.3923C69.1134 72.3827 69.1471 72.3663 69.1762 72.3442C69.2147 72.3311 69.2287 72.3017 69.2357 72.3049Z" fill="#EB996E"/>
<path d="M69.221 73.5918C69.249 73.5165 69.2666 73.4346 69.2911 73.356C69.3155 73.2774 69.3225 73.2447 69.3435 73.1857C69.381 73.0143 69.4009 72.84 69.403 72.6651C69.2113 72.7346 69.002 72.75 68.801 72.7092C68.6001 72.6685 68.4163 72.5734 68.2726 72.4359C68.1278 72.2924 68.0268 72.1153 67.98 71.923C67.9332 71.7306 67.9424 71.53 68.0066 71.3421C68.0986 71.1362 68.2359 70.9508 68.4095 70.7979C68.5832 70.645 68.7894 70.5281 69.0146 70.4547C69.4485 70.2844 69.914 70.1993 70.341 70.0093C71.244 69.6098 71.8669 68.7748 72.2939 67.9004C72.5914 67.2881 72.8154 66.5906 72.6124 65.9357C72.3114 64.9762 71.2125 64.5014 70.229 64.2361C68.7171 63.8366 67.0792 63.6598 65.6022 64.1673C64.1253 64.6749 62.3509 65.5722 62.3509 67.0982C61.4794 67.0294 60.9824 67.7531 60.636 68.6307C60.4655 69.1804 60.3368 69.7406 60.251 70.3073" fill="#263238"/>
<path d="M63.5417 76.6675C62.4521 75.9643 61.576 75.0087 60.9988 73.8942C60.4216 72.7796 60.163 71.5441 60.2483 70.3081C60.4723 65.9332 69.2219 73.5828 69.2219 73.5828C69.2219 73.5828 67.5455 78.7371 63.7202 76.6577" fill="#263238"/>
<path d="M62.2418 72.3076C62.2173 72.288 62.3923 72.1341 62.5358 71.8164C62.6338 71.6146 62.6853 71.3958 62.6871 71.1742C62.6889 70.9525 62.6409 70.733 62.5462 70.5298C62.4515 70.3267 62.3122 70.1444 62.1374 69.9949C61.9625 69.8453 61.7561 69.7318 61.5313 69.6617C61.1813 69.5438 60.9434 69.5602 60.9434 69.5307C61.1484 69.4716 61.3686 69.4774 61.5698 69.5471C61.8194 69.6129 62.0507 69.7287 62.2478 69.8864C62.4448 70.0442 62.6028 70.2401 62.7108 70.4607C62.813 70.6843 62.8607 70.9264 62.8504 71.1694C62.8401 71.4124 62.7721 71.6502 62.6513 71.8655C62.4658 72.1963 62.2523 72.3207 62.2418 72.3076Z" fill="#44AFF1"/>
<path d="M60.4399 69.6252C60.3607 69.6347 60.2804 69.6185 60.2124 69.5794C60.0158 69.4892 59.8543 69.3438 59.7504 69.1635C59.6052 68.8935 59.5526 68.5881 59.5999 68.2892C59.6406 67.9277 59.7597 67.5778 59.9499 67.2609C60.1443 66.9362 60.4501 66.6824 60.8178 66.5405C61.123 66.424 61.4647 66.424 61.7698 66.5405C61.9716 66.6193 62.1426 66.7542 62.2598 66.9269C62.3333 67.0513 62.3438 67.1332 62.3333 67.1332C62.1908 66.9152 61.9756 66.7471 61.7208 66.6551C61.4462 66.5663 61.1456 66.5792 60.8808 66.6911C60.5539 66.8251 60.2824 67.055 60.1074 67.346C59.7329 67.9715 59.6279 68.6887 59.8554 69.1045C59.9804 69.3358 60.1868 69.5197 60.4399 69.6252Z" fill="#263238"/>
<path d="M100.182 71.1022C100.024 70.9516 99.6395 71.0236 99.6395 71.0236C99.6763 70.8132 99.6763 70.5987 99.6395 70.3883C99.5695 70.182 99.076 70.2213 99.076 70.2213C99.0526 70.0484 99.0526 69.8735 99.076 69.7006C99.0786 69.6628 99.0689 69.6251 99.0483 69.5924C99.0277 69.5597 98.9972 69.5335 98.9605 69.5173C98.7273 69.429 98.4771 69.3866 98.2256 69.3928C97.9211 69.1898 99.1425 67.5918 99.5975 67.0809C100.052 66.5701 99.9685 66.1738 99.566 66.1738C99.2895 66.1738 97.8651 67.7096 97.4276 68.2238C96.9901 68.7379 95.8282 70.1722 95.7897 69.0293C95.7512 67.8865 95.2577 67.0187 94.9497 66.8713C94.6418 66.724 94.3128 67.0711 94.4843 67.3887C94.6302 67.7495 94.7221 68.1275 94.7572 68.5119C94.7965 68.8211 94.7811 69.1342 94.7117 69.4387C94.5841 69.9968 94.4086 70.5443 94.1868 71.076L94.1553 71.0596C94.1553 71.0596 85.6262 78.7125 85.0102 79.2463C84.4572 79.7375 73.3733 78.6634 71.1544 78.444C70.3974 78.3432 69.6335 78.2951 68.869 78.2999C67.9065 78.3392 67.735 78.4669 66.7691 78.4767C64.4755 78.484 62.1862 78.6636 59.9234 79.0138C57.708 79.3642 56.49 80.9786 55.8076 82.9859C53.5642 89.5352 47.5025 104.926 46.596 113.637C45.9203 114.785 45.3093 115.965 44.7656 117.173C44.1391 118.775 44.2931 118.83 44.5031 118.866C45.0701 118.965 45.7211 116.093 45.966 116.784C46.211 117.475 44.7341 120.212 45.3326 120.291C46.1095 120.396 46.7325 117.376 46.806 117.124C46.8795 116.872 47.2715 116.964 47.191 117.186C47.079 117.514 45.98 120.92 46.743 121.031C47.1665 121.09 47.212 120.376 47.212 120.376C47.212 120.376 47.9889 117.101 48.3494 117.177C48.7099 117.252 48.3284 119.171 48.1464 119.813C47.9644 120.455 48.2199 120.795 48.5839 120.625C48.8359 120.517 49.4344 118.562 49.5989 117.923C49.7634 117.285 50.1693 115.526 50.7223 116.548C51.2753 117.57 52.1223 118.159 52.4722 118.185C52.5528 118.182 52.6302 118.155 52.6932 118.108C52.7563 118.061 52.8018 117.996 52.8231 117.923C52.8445 117.851 52.8407 117.773 52.8122 117.703C52.7838 117.632 52.7321 117.572 52.6647 117.53C52.3686 117.26 52.1142 116.953 51.9088 116.617C51.7329 116.352 51.6051 116.062 51.5308 115.759C51.3758 115.152 51.2855 114.532 51.2613 113.909L51.1948 113.532C52.0698 109.478 55.0446 95.6588 58.6599 88.0551L59.7099 92.8492L60.3574 94.9744L56.3781 104.176L73.3418 103.967L70.8114 94.85L73.8842 85.3535C77.2126 85.4223 85.7522 85.5402 87.1836 84.9376C88.972 84.191 98.2361 73.2667 98.2361 73.2667C98.846 72.8283 99.4302 72.3593 99.986 71.8619C99.986 71.8619 100.521 71.4297 100.182 71.1022Z" fill="#FFBE9D"/>
<path d="M55.6396 97.4067C56.1295 95.8348 58.6564 88.0608 58.6564 88.0608C58.6564 88.0608 59.8989 94.3973 59.5734 95.1603C59.2725 95.8149 58.9156 96.4457 58.5059 97.0465C55.6396 101.133 56.0141 103.177 56.0141 103.177L73.3417 102.682C73.3837 100.416 71.9418 95.1504 71.6478 94.3023C71.3538 93.4542 72.3478 90.7002 72.3478 90.7002C72.3478 90.7002 74.3077 88.8402 74.2307 87.884C74.1899 87.025 74.0728 86.1706 73.8807 85.3297L86.7146 85.559L85.2797 79.0326L72.9043 78.1844L68.7885 77.8242C66.7165 79.4615 63.6122 77.8242 63.6122 77.8242C59.6644 78.1844 59.0869 78.7771 57.4665 80.2933C55.5416 82.0878 50.3408 95.8185 50.3408 95.8185L55.6396 97.4067Z" fill="#44AFF1"/>
<path d="M65.8868 95.8271C65.5853 95.8762 65.2785 95.8905 64.9733 95.8696C64.4063 95.8696 63.6294 95.8336 62.7719 95.755C61.9145 95.6764 61.1445 95.5585 60.5915 95.457C60.2879 95.4217 59.9903 95.3501 59.7061 95.2442C60.0104 95.243 60.3141 95.2705 60.6125 95.326C61.1725 95.3915 61.939 95.4832 62.7929 95.5651C63.6469 95.647 64.4168 95.6994 64.9768 95.7354C65.2827 95.7367 65.5876 95.7675 65.8868 95.8271Z" fill="#263238"/>
<path d="M67.0697 94.4453C66.7695 94.5826 66.452 94.6838 66.1247 94.7466C65.3466 94.9394 64.5548 95.0805 63.7554 95.169C62.9565 95.2588 62.1518 95.295 61.3475 95.2771C61.0137 95.2864 60.6799 95.2578 60.3535 95.1919C60.6826 95.1482 61.0153 95.1317 61.3475 95.1428C61.9599 95.1232 62.8034 95.0839 63.7344 94.9791C64.6653 94.8743 65.4843 94.7335 66.0932 94.6156C66.4127 94.5319 66.7395 94.4749 67.0697 94.4453Z" fill="#263238"/>
<path d="M72.9005 88.2988C72.8967 88.5774 72.8567 88.8545 72.7815 89.124C72.68 89.6316 72.5225 90.3258 72.323 91.0888C72.1235 91.8518 71.9206 92.5362 71.7596 93.0307C71.6924 93.3022 71.5901 93.565 71.4551 93.8134C71.4762 93.5355 71.5314 93.2608 71.6196 92.9947C71.7666 92.4249 71.9381 91.77 72.1235 91.0463C72.309 90.3226 72.491 89.6676 72.6415 89.0815C72.6963 88.8123 72.7831 88.5498 72.9005 88.2988Z" fill="#263238"/>
<path d="M55.8969 103.291L73.2211 102.797L80.7597 130.343L79.3598 161.94H70.1902L71.3347 131.028L64.6325 111.838L65.6509 162.268L56.3904 162.396L55.4419 115.047C55.4034 113.708 54.9309 110.682 55.0919 109.353L55.8969 103.291Z" fill="#455A64"/>
<path d="M66.9437 112.224C66.6593 112.243 66.3735 112.228 66.0933 112.178C65.5718 112.119 64.8543 112.018 64.0704 111.871C63.2864 111.723 62.5794 111.543 62.0755 111.422C61.7962 111.366 61.5257 111.277 61.2705 111.157C61.2705 111.104 62.5444 111.389 64.1089 111.684C65.6733 111.979 66.9507 112.169 66.9437 112.224Z" fill="#263238"/>
<path d="M79.2872 160.204C79.2872 160.257 77.2118 160.299 74.6499 160.299C72.0881 160.299 70.2646 160.224 70.2646 160.172C70.2646 160.119 72.0881 160.109 74.6499 160.109C77.2118 160.109 79.2872 160.168 79.2872 160.204Z" fill="#263238"/>
<path d="M65.5225 160.3C65.5225 160.352 63.5066 160.395 61.0217 160.395C58.5368 160.395 56.5244 160.352 56.5244 160.3C56.5244 160.248 58.5368 160.205 61.0217 160.205C63.5066 160.205 65.5225 160.248 65.5225 160.3Z" fill="#263238"/>
<path d="M64.3904 160.298C64.3344 160.298 64.0894 149.396 63.8444 135.947C63.5994 122.498 63.4489 111.597 63.4944 111.594C63.5399 111.59 63.8059 122.508 64.0509 135.934C64.2959 149.36 64.4464 160.294 64.3904 160.298Z" fill="#263238"/>
<path d="M78.0551 160.204C78.0513 160.154 78.0513 160.104 78.0551 160.053C78.0551 159.945 78.0551 159.801 78.0551 159.615C78.0551 159.222 78.0831 158.655 78.1076 157.931C78.1601 156.461 78.2406 154.349 78.3351 151.742C78.5485 146.503 78.846 139.299 79.1715 131.322C79.1715 131.246 79.1715 131.174 79.1715 131.105V131.132C77.1171 123.439 75.2622 116.484 73.9218 111.441L72.3643 105.481C72.1858 104.784 72.0459 104.24 71.9514 103.844C71.907 103.667 71.872 103.526 71.8464 103.421C71.8332 103.374 71.8238 103.326 71.8184 103.277C71.8405 103.322 71.857 103.37 71.8674 103.418C71.8954 103.52 71.9374 103.657 71.9899 103.834C72.0948 104.214 72.2488 104.757 72.4413 105.452C72.8298 106.863 73.3863 108.893 74.0723 111.399C75.4337 116.438 77.3096 123.387 79.3885 131.076V131.105C79.3885 131.171 79.3885 131.246 79.3885 131.318C79.0385 139.289 78.7235 146.503 78.4925 151.736C78.3701 154.355 78.2686 156.455 78.1986 157.925C78.1601 158.649 78.1286 159.212 78.1076 159.608C78.1076 159.791 78.0866 159.935 78.0796 160.044C78.0773 160.098 78.069 160.151 78.0551 160.204Z" fill="#263238"/>
<path d="M75.0666 130.469C74.4073 130.671 73.7287 130.812 73.0402 130.891C72.2002 131.025 71.4722 131.117 71.1538 131.137V131.061C71.2588 131.088 71.3148 131.111 71.3113 131.124C71.3078 131.137 71.2483 131.124 71.1398 131.124H70.9053L71.1398 131.058C71.4443 130.973 72.1652 130.836 73.0087 130.698C73.685 130.559 74.3743 130.482 75.0666 130.469Z" fill="#263238"/>
<path d="M74.8908 131.517C74.2817 131.54 73.6717 131.514 73.0674 131.438C72.4574 131.424 71.8498 131.361 71.251 131.252C71.8594 131.174 72.4764 131.174 73.0849 131.252C73.697 131.263 74.3046 131.352 74.8908 131.517Z" fill="#263238"/>
<path d="M55.8213 103.871C56.2378 104.424 56.8362 104.618 57.5292 104.722C58.2276 104.8 58.9342 104.788 59.6291 104.686C64.1019 104.221 68.8407 103.792 73.219 102.797C67.5492 103.092 61.5645 102.993 55.8948 103.291C55.8948 103.291 55.8458 103.655 55.8353 103.743" fill="#263238"/>
<path d="M61.665 111.348L64.8569 122.95L64.6329 111.836L61.665 111.348Z" fill="#263238"/>
<path d="M61.0216 69.7628C59.7897 69.455 58.5017 70.683 58.4597 71.875C58.4597 72.2025 58.4982 72.6085 58.2392 72.8574C57.9802 73.1063 57.5183 73.0375 57.1298 73.067C56.733 73.1039 56.3616 73.2666 56.0771 73.5281C55.7926 73.7895 55.612 74.134 55.5654 74.5045C55.5094 75.035 55.7369 75.6048 55.4989 76.0895C55.2609 76.5741 54.7114 76.7706 54.3299 77.1308C54.0985 77.376 53.9244 77.6638 53.8189 77.9756C53.7134 78.2875 53.6789 78.6166 53.7174 78.9417C53.8002 79.5916 53.9829 80.2269 54.2599 80.8279C54.4839 81.3879 54.7779 82.0101 55.3799 82.2098H60.5561L60.9446 80.3825L61.5781 82.2098H62.4215L61.9666 70.3457C61.9666 70.3457 61.9631 69.9953 61.0216 69.7628Z" fill="#263238"/>
<path d="M53.9419 75.4271C53.9419 75.4271 53.8859 75.4271 53.8019 75.4533C53.7418 75.484 53.6959 75.5345 53.6733 75.595C53.6507 75.6555 53.6528 75.7217 53.6794 75.7808C53.7444 75.9145 53.8614 76.0199 54.0067 76.0756C54.152 76.1313 54.3145 76.1329 54.461 76.0803C54.6076 76.0276 54.7271 75.9246 54.7952 75.7922C54.8633 75.6599 54.8748 75.5082 54.8274 75.3682C54.7535 75.211 54.6582 75.0635 54.5439 74.9294C54.2787 74.5985 54.1642 74.183 54.2254 73.7734C54.2567 73.5463 54.3438 73.3292 54.4798 73.1388C54.6158 72.9485 54.7971 72.7902 55.0093 72.6764C55.2365 72.5519 55.492 72.4796 55.7548 72.4654C56.0176 72.4512 56.2803 72.4954 56.5213 72.5945C56.9973 72.7877 57.4102 73.0726 57.8687 73.0137C57.9721 73.0099 58.0727 72.9818 58.1614 72.932C58.2501 72.8822 58.324 72.8123 58.3762 72.7288C58.4499 72.5427 58.4739 72.3426 58.4462 72.1459C58.4186 71.7701 58.477 71.3931 58.6177 71.0402C58.7583 70.6872 58.9778 70.3664 59.2616 70.0992C59.6612 69.749 60.1912 69.5587 60.7386 69.5687C60.8837 69.5726 61.0274 69.5957 61.1656 69.6375C61.2152 69.6488 61.2625 69.6676 61.3055 69.6932C61.1185 69.6598 60.9289 69.6401 60.7386 69.6342C60.2137 69.6455 59.7131 69.8434 59.3386 70.1877C59.074 70.4476 58.8714 70.7572 58.7441 71.0959C58.6168 71.4346 58.5677 71.7947 58.6002 72.1524C58.6314 72.3739 58.6025 72.5991 58.5162 72.8074C58.4517 72.9161 58.3588 73.0076 58.2462 73.0735C58.1335 73.1394 58.0049 73.1774 57.8722 73.184C57.6128 73.2072 57.3516 73.1641 57.1162 73.0595C56.8783 72.9646 56.6613 72.8434 56.4373 72.755C56.2221 72.6667 55.9877 72.627 55.7531 72.6389C55.5184 72.6509 55.2901 72.7142 55.0863 72.8237C54.8967 72.926 54.7348 73.0678 54.6134 73.2383C54.492 73.4087 54.4143 73.603 54.3864 73.8061C54.3262 74.1795 54.4269 74.5599 54.6664 74.8639C54.7859 75.009 54.8836 75.1687 54.9568 75.3387C54.9898 75.4233 55.0043 75.5133 54.9995 75.6033C54.9947 75.6933 54.9707 75.7815 54.9288 75.8626C54.8564 76.0065 54.7326 76.1223 54.5789 76.1901C54.4382 76.2487 54.2812 76.2636 54.1309 76.2327C54.0112 76.2113 53.9 76.1598 53.8093 76.0836C53.7186 76.0074 53.6519 75.9095 53.6164 75.8004C53.5908 75.7304 53.5946 75.6538 53.6271 75.5863C53.6596 75.5188 53.7183 75.4654 53.7914 75.4369C53.8929 75.3911 53.9454 75.4271 53.9419 75.4271Z" fill="#263238"/>
<path d="M73.9918 85.2275C73.8594 85.2447 73.7252 85.2447 73.5928 85.2275C73.2286 85.1864 72.874 85.0902 72.5428 84.9426C72.0488 84.7258 71.608 84.4159 71.2479 84.0323C70.7907 83.5677 70.4826 82.992 70.3588 82.3712C70.235 81.7503 70.3006 81.1094 70.5479 80.5218C70.7392 80.0434 71.0348 79.6073 71.4159 79.2415C71.6687 78.9933 71.9631 78.7854 72.2874 78.6258C72.4022 78.5614 72.5275 78.5149 72.6583 78.4883C72.2352 78.7141 71.8486 78.9953 71.5104 79.3233C71.1568 79.6867 70.8832 80.1118 70.7054 80.5742C70.475 81.1355 70.4141 81.7453 70.5296 82.3368C70.645 82.9283 70.9323 83.4786 71.3599 83.9275C71.7018 84.301 72.1178 84.609 72.5848 84.8346C73.0327 85.0243 73.506 85.1565 73.9918 85.2275Z" fill="#263238"/>
<path d="M38.8233 127.563C37.1224 127.818 36.3735 129.773 36.5135 131.381C36.6534 132.989 37.3674 134.554 37.1784 136.155C36.9369 138.192 35.2955 139.911 35.103 141.948C34.879 144.352 36.6954 146.487 37.2379 148.845C37.5004 149.994 37.4654 151.209 37.9379 152.303C38.3287 153.232 39.0514 154.006 39.9832 154.493C40.9149 154.98 41.9982 155.151 43.0489 154.975C44.0996 154.799 45.0529 154.289 45.7468 153.53C46.4408 152.771 46.8325 151.811 46.8555 150.813C46.894 148.966 45.676 147.227 45.8055 145.383C45.9175 144.024 46.768 142.734 46.586 141.382C46.369 139.771 44.7731 138.624 44.2096 137.089C43.6461 135.553 44.1886 133.86 43.9926 132.245C43.6426 129.351 41.9277 127.333 38.8233 127.563Z" fill="#F5F5F5"/>
<path d="M30.1394 141.584C29.8489 144.266 31.1193 147.423 32.5893 149.741C34.0835 152.072 36.3315 153.898 39.0079 154.954C39.3089 155.072 39.6834 155.171 39.9354 154.977C40.0248 154.885 40.0919 154.776 40.1324 154.657C40.1728 154.539 40.1856 154.413 40.1699 154.29C40.1901 151.442 39.2232 148.664 37.4142 146.373C35.6052 144.083 33.0515 142.402 30.1359 141.584" fill="#EBEBEB"/>
<path d="M42.6295 160.563C42.5971 160.516 42.5701 160.465 42.549 160.413C42.4965 160.298 42.4265 160.154 42.346 159.974C42.171 159.591 41.9155 159.04 41.5865 158.363C40.7323 156.599 39.7814 154.877 38.7377 153.205C37.6914 151.534 36.5548 149.914 35.3323 148.352C34.8633 147.753 34.4784 147.271 34.2054 146.944L33.8974 146.561C33.8582 146.517 33.8242 146.47 33.7959 146.42C33.8428 146.456 33.8851 146.496 33.9219 146.541L34.2544 146.905C34.5414 147.232 34.9543 147.694 35.4268 148.286C36.6798 149.835 37.8333 151.453 38.8812 153.13C39.9237 154.806 40.8586 156.539 41.681 158.32C41.996 159.001 42.2375 159.561 42.381 159.957C42.4545 160.141 42.5105 160.285 42.5595 160.409C42.5912 160.457 42.6148 160.509 42.6295 160.563Z" fill="#E0E0E0"/>
<path d="M40.7862 134.984C40.7862 134.984 40.7862 135.073 40.8177 135.243C40.8492 135.413 40.8492 135.669 40.8737 135.98C40.9192 136.635 40.9822 137.562 41.0592 138.698C41.2167 140.99 41.4337 144.167 41.6962 147.667C41.9587 151.168 42.2212 154.338 42.3962 156.633C42.4871 157.769 42.5641 158.693 42.6166 159.348C42.6411 159.659 42.6586 159.905 42.6726 160.088C42.6811 160.174 42.6811 160.261 42.6726 160.347C42.6501 160.263 42.636 160.177 42.6306 160.091L42.5466 159.354C42.4801 158.699 42.3892 157.776 42.2737 156.64C42.0532 154.347 41.7767 151.181 41.5142 147.677C41.2517 144.173 41.0487 141.003 40.9262 138.704C40.8667 137.568 40.8212 136.641 40.7897 135.983C40.7897 135.672 40.7687 135.426 40.7617 135.243C40.7614 135.156 40.7696 135.07 40.7862 134.984Z" fill="#E0E0E0"/>
<path d="M38.1475 156.738H45.3291V161.67C45.3291 162.525 44.9659 163.346 44.3194 163.951C43.6729 164.556 42.7961 164.895 41.8818 164.895C40.9993 164.896 40.1504 164.58 39.5097 164.012C38.869 163.444 38.4854 162.668 38.4379 161.843L38.1475 156.738Z" fill="#E0E0E0"/>
</g>
<defs>
<clipPath id="clip0_5167_49673">
<rect width="200" height="136" fill="white" transform="translate(0 32)"/>
</clipPath>
</defs>
</svg>
