<svg viewBox="0 0 38 37" fill="#3450A1" stroke="#3450A1" xmlns="http://www.w3.org/2000/svg">
<path d="M8.97768 29.3799L8.82661 29.5508L9.0381 29.6361C10.1319 30.0774 11.0688 30.8338 11.7293 31.8087C12.3898 32.7836 12.7438 33.9327 12.7462 35.1092V35.8686C12.7462 36.0273 12.683 36.1795 12.5704 36.2918C12.4578 36.4041 12.305 36.4673 12.1455 36.4673H1.48053C1.32109 36.4673 1.16827 36.4041 1.05565 36.2918C0.943055 36.1795 0.879877 36.0273 0.879877 35.8686V35.109C0.882298 33.9326 1.23632 32.7836 1.89676 31.8087C2.55724 30.8338 3.49419 30.0774 4.58796 29.6361L4.79944 29.5508L4.64838 29.3799C4.28105 28.9645 4.04175 28.4523 3.95913 27.9047C3.87652 27.3571 3.95408 26.7974 4.18254 26.2926C4.411 25.7878 4.78068 25.3595 5.24727 25.059C5.71386 24.7585 6.25753 24.5986 6.81303 24.5986C7.36853 24.5986 7.91219 24.7585 8.37879 25.059C8.84538 25.3595 9.21505 25.7878 9.44352 26.2926C9.67198 26.7974 9.74954 27.3571 9.66692 27.9047C9.5843 28.4523 9.34501 28.9645 8.97768 29.3799ZM2.08119 35.1089V35.27H2.24232H11.3837H11.5449L11.5449 35.1089C11.5449 33.857 11.0462 32.6565 10.1588 31.7714C9.27137 30.8863 8.06785 30.3892 6.81303 30.3892C5.55821 30.3892 4.35469 30.8863 3.46727 31.7714C2.57983 32.6565 2.08119 33.857 2.08119 35.1089ZM5.41236 26.5774C5.22719 26.8538 5.12833 27.1788 5.12833 27.5113C5.12833 27.9572 5.30593 28.3847 5.62192 28.6998C5.93789 29.015 6.36636 29.1919 6.81303 29.1919C7.14613 29.1919 7.47179 29.0934 7.74883 28.9088C8.02587 28.7242 8.24186 28.4617 8.36943 28.1546C8.49699 27.8474 8.53038 27.5094 8.46534 27.1833C8.4003 26.8572 8.23978 26.5578 8.00414 26.3227C7.7685 26.0877 7.46833 25.9277 7.14162 25.8629C6.8149 25.7981 6.47625 25.8314 6.16846 25.9585C5.86067 26.0857 5.59753 26.301 5.41236 26.5774Z" fill="current" stroke="current" stroke-width="0.322253"/>
<path d="M33.3527 29.3799L33.2016 29.5508L33.4131 29.6361C34.5069 30.0774 35.4438 30.8338 36.1043 31.8087C36.7648 32.7836 37.1188 33.9327 37.1212 35.1092V35.8686C37.1212 36.0273 37.058 36.1795 36.9454 36.2918C36.8328 36.4041 36.68 36.4673 36.5205 36.4673H25.8555C25.6961 36.4673 25.5433 36.4041 25.4307 36.2918C25.3181 36.1795 25.2549 36.0273 25.2549 35.8686V35.109C25.2573 33.9326 25.6113 32.7836 26.2718 31.8087C26.9322 30.8338 27.8692 30.0774 28.963 29.6361L29.1744 29.5508L29.0234 29.3799C28.6561 28.9645 28.4168 28.4523 28.3341 27.9047C28.2515 27.3571 28.3291 26.7974 28.5575 26.2926C28.786 25.7878 29.1557 25.3595 29.6223 25.059C30.0889 24.7585 30.6325 24.5986 31.188 24.5986C31.7435 24.5986 32.2872 24.7585 32.7538 25.059C33.2204 25.3595 33.5901 25.7878 33.8185 26.2926C34.047 26.7974 34.1245 27.3571 34.0419 27.9047C33.9593 28.4523 33.72 28.9645 33.3527 29.3799ZM26.4562 35.1089V35.27H26.6173H35.7587H35.9199V35.1089C35.9199 33.857 35.4212 32.6565 34.5338 31.7714C33.6464 30.8863 32.4429 30.3892 31.188 30.3892C29.9332 30.3892 28.7297 30.8863 27.8423 31.7714C26.9548 32.6565 26.4562 33.857 26.4562 35.1089ZM29.7874 26.5774C29.6022 26.8538 29.5033 27.1788 29.5033 27.5113C29.5033 27.9572 29.6809 28.3847 29.9969 28.6998C30.3129 29.015 30.7414 29.1919 31.188 29.1919C31.5211 29.1919 31.8468 29.0934 32.1238 28.9088C32.4009 28.7242 32.6169 28.4617 32.7444 28.1546C32.872 27.8474 32.9054 27.5094 32.8403 27.1833C32.7753 26.8572 32.6148 26.5578 32.3791 26.3227C32.1435 26.0877 31.8433 25.9277 31.5166 25.8629C31.1899 25.7981 30.8513 25.8314 30.5435 25.9585C30.2357 26.0857 29.9725 26.301 29.7874 26.5774Z" fill="current" stroke="current" stroke-width="0.322253"/>
<path d="M21.1652 5.06743L21.0141 5.23827L21.2256 5.32359C22.3194 5.76486 23.2563 6.52131 23.9168 7.49621C24.5773 8.47111 24.9313 9.62021 24.9337 10.7967V11.5561C24.9337 11.7148 24.8705 11.867 24.7579 11.9793C24.6453 12.0916 24.4925 12.1548 24.333 12.1548H13.668C13.5086 12.1548 13.3558 12.0916 13.2432 11.9793C13.1306 11.867 13.0674 11.7148 13.0674 11.5561V10.7965C13.0698 9.62011 13.4238 8.47106 14.0843 7.49621C14.7447 6.52131 15.6817 5.76486 16.7755 5.32359L16.9869 5.23827L16.8359 5.06743C16.4686 4.65203 16.2293 4.13979 16.1466 3.59219C16.064 3.0446 16.1416 2.48485 16.37 1.9801C16.5985 1.47535 16.9682 1.04699 17.4348 0.746494C17.9014 0.445992 18.445 0.286127 19.0005 0.286127C19.556 0.286127 20.0997 0.445992 20.5663 0.746494C21.0329 1.04699 21.4026 1.47534 21.631 1.9801C21.8595 2.48485 21.937 3.0446 21.8544 3.59219C21.7718 4.13979 21.5325 4.65203 21.1652 5.06743ZM23.5712 10.9575H23.7324V10.7964C23.7324 9.5445 23.2337 8.34399 22.3463 7.45891C21.4589 6.57384 20.2554 6.0767 19.0005 6.0767C17.7457 6.0767 16.5422 6.57384 15.6548 7.45891C14.7673 8.34399 14.2687 9.5445 14.2687 10.7964V10.9575H14.4298H23.5712ZM17.5999 2.26491C17.4147 2.5413 17.3158 2.8663 17.3158 3.19879C17.3158 3.64467 17.4934 4.07219 17.8094 4.38734C18.1254 4.70247 18.5539 4.87944 19.0005 4.87944C19.3336 4.87944 19.6593 4.78092 19.9363 4.59631C20.2134 4.41169 20.4294 4.14923 20.5569 3.84209C20.6845 3.53494 20.7179 3.19693 20.6528 2.87083C20.5878 2.54474 20.4273 2.24526 20.1916 2.01025C19.956 1.77524 19.6558 1.61524 19.3291 1.55043C19.0024 1.48561 18.6637 1.51887 18.356 1.64602C18.0482 1.77317 17.785 1.98853 17.5999 2.26491Z" fill="current" stroke="current" stroke-width="0.322253"/>
<path d="M34.2632 11.1094C32.5024 7.4368 29.4701 4.52296 25.7253 2.90464C25.614 2.82614 25.5328 2.71216 25.4951 2.58141C25.4561 2.4462 25.4661 2.30162 25.5234 2.17303C25.5807 2.04443 25.6817 1.93999 25.8086 1.87815C25.9319 1.81814 26.0719 1.80202 26.2054 1.83226C30.2105 3.56659 33.4531 6.6848 35.3367 10.6135C37.2214 14.5444 37.6187 19.0219 36.4557 23.2216C36.4033 23.361 36.3006 23.4761 36.1675 23.5443C36.0326 23.6133 35.8764 23.6289 35.7304 23.588C35.5843 23.547 35.4594 23.4525 35.3804 23.3236C35.3024 23.1962 35.275 23.0445 35.3034 22.8982C36.3947 18.9723 36.0253 14.785 34.2632 11.1094Z" fill="current" stroke="current" stroke-width="0.322253"/>
<path d="M3.73811 11.1094C1.97597 14.785 1.60654 18.9723 2.69791 22.8982C2.72628 23.0445 2.69886 23.1963 2.62085 23.3236C2.5419 23.4525 2.41692 23.547 2.27089 23.588C2.12486 23.6289 1.9687 23.6133 1.83377 23.5443C1.70064 23.4761 1.59797 23.361 1.54561 23.2216C0.382551 19.0218 0.779856 14.5444 2.66455 10.6135C4.54819 6.6848 7.7908 3.56659 11.7958 1.83226C11.9294 1.80202 12.0694 1.81814 12.1926 1.87815C12.3196 1.93999 12.4206 2.04443 12.4779 2.17303C12.5352 2.30162 12.5452 2.44621 12.5062 2.58141C12.4685 2.71216 12.3872 2.82614 12.2759 2.90464C8.53121 4.52296 5.49885 7.4368 3.73811 11.1094Z" fill="current" stroke="current" stroke-width="0.322253"/>
<path d="M14.589 35.3117C14.6318 35.1369 14.6931 35.0376 14.7631 34.978C14.8329 34.9186 14.9306 34.882 15.0796 34.8715C15.2306 34.8607 15.4199 34.8776 15.6597 34.9131C15.8149 34.9361 15.9845 34.9657 16.1732 34.9987C16.2762 35.0167 16.385 35.0357 16.5001 35.0552C17.798 35.2744 19.7749 35.5252 22.6677 34.8653C22.8093 34.857 22.9493 34.8989 23.063 34.9838L23.1592 34.855L23.063 34.9838C23.1796 35.0709 23.2605 35.1972 23.2905 35.3392C23.3206 35.4812 23.298 35.6292 23.2267 35.7558C23.1568 35.8799 23.0449 35.9751 22.911 36.0244C20.3208 36.617 17.6296 36.6163 15.0396 36.0223C14.8855 35.9865 14.7518 35.8916 14.6676 35.7583C14.5836 35.6254 14.5554 35.465 14.589 35.3117Z" fill="current" stroke="current" stroke-width="0.322253"/>
<path d="M25.3659 28.8058L25.3651 28.8062C25.2439 28.8675 25.1559 28.8848 25.0505 28.8644C24.9331 28.8417 24.7794 28.7694 24.5372 28.6095C24.2454 28.4168 23.8557 28.1185 23.2864 27.6828C22.9088 27.3938 22.4523 27.0445 21.8931 26.6254L21.8501 26.5932H21.7965H17.4772C17.3177 26.5932 17.1649 26.53 17.0523 26.4177C16.9397 26.3054 16.8765 26.1532 16.8765 25.9946V23.7153V23.5542H16.7154H11.3829C11.2234 23.5542 11.0706 23.491 10.958 23.3787C10.8454 23.2664 10.7822 23.1142 10.7822 22.9555V16.8775C10.7822 16.7188 10.8454 16.5666 10.958 16.4543C11.0706 16.342 11.2234 16.2788 11.3829 16.2788H12.6551H12.7092L12.7523 16.2461C13.1301 15.96 13.4615 15.7075 13.7533 15.4852C14.6286 14.8184 15.1475 14.423 15.4931 14.2044C15.7238 14.0586 15.8548 14.0067 15.948 13.9956C16.0314 13.9856 16.1017 14.0059 16.2253 14.0666C16.3431 14.1245 16.4087 14.1781 16.4512 14.2394C16.4944 14.3016 16.5252 14.3881 16.5431 14.5325C16.5612 14.6784 16.5645 14.8685 16.5627 15.1303C16.5621 15.2201 16.5609 15.3183 16.5596 15.4251C16.5571 15.625 16.5542 15.8553 16.5542 16.1177V16.2788H16.7154H20.5243C20.6837 16.2788 20.8366 16.342 20.9492 16.4543C21.0618 16.5666 21.125 16.7188 21.125 16.8775V19.1567V19.3179H21.2861H26.6186C26.778 19.3179 26.9308 19.381 27.0435 19.4934C27.1561 19.6057 27.2192 19.7579 27.2192 19.9165V25.9946C27.2192 26.1532 27.1561 26.3054 27.0435 26.4177C26.9308 26.53 26.778 26.5932 26.6186 26.5932H25.8568H25.6957V26.7543C25.6957 27.0128 25.6999 27.2417 25.7035 27.4425C25.705 27.5217 25.7063 27.5965 25.7073 27.667C25.7109 27.9193 25.7097 28.1142 25.6928 28.2708C25.676 28.4267 25.6447 28.5316 25.5971 28.6096C25.5513 28.6847 25.4823 28.7478 25.3659 28.8058ZM11.9835 22.1958V22.3569H12.1447H16.7154H16.8765V22.1958V19.9165C16.8765 19.7579 16.9397 19.6057 17.0523 19.4934C17.1649 19.381 17.3177 19.3179 17.4772 19.3179H19.7625H19.9236V19.1567V17.6372V17.4761H19.7625H15.9536C15.7941 17.4761 15.6413 17.4129 15.5287 17.3006C15.4161 17.1883 15.3529 17.0361 15.3529 16.8775V16.1177V15.7955L15.0952 15.9888C14.7087 16.2785 14.3999 16.515 14.15 16.7064C14.0232 16.8036 13.9116 16.889 13.8128 16.9639C13.5147 17.1897 13.3361 17.3163 13.1943 17.3896C13.0622 17.4579 12.9632 17.4793 12.8206 17.4845C12.7451 17.4873 12.6588 17.4854 12.5472 17.4825C12.541 17.4824 12.5347 17.4822 12.5284 17.4821C12.422 17.4793 12.2961 17.4761 12.1447 17.4761H11.9835V17.6372V22.1958ZM24.2367 26.8834L24.4943 27.0761V26.7543V25.9946C24.4943 25.8359 24.5575 25.6837 24.6701 25.5714C24.7827 25.4591 24.9356 25.3959 25.095 25.3959H25.8568H26.0179V25.2348V20.6763V20.5151H25.8568H18.2389H18.0778V20.6763V25.2348V25.3959H18.2389C19.0882 25.3959 19.7558 25.3937 20.2831 25.3919C21.0306 25.3893 21.4965 25.3877 21.7993 25.3949C22.0599 25.4011 22.1829 25.4138 22.2557 25.4325C22.3149 25.4477 22.3387 25.4651 22.407 25.5147L22.4084 25.5158L22.4101 25.517L24.2367 26.8834Z" fill="current" stroke="current" stroke-width="0.322253"/>
<path d="M20.1006 22.5319C20.2132 22.4196 20.366 22.3564 20.5255 22.3564C20.6849 22.3564 20.8377 22.4196 20.9503 22.5319C21.0629 22.6442 21.1261 22.7964 21.1261 22.9551C21.1261 23.1137 21.0629 23.2659 20.9503 23.3782C20.8377 23.4905 20.6849 23.5537 20.5255 23.5537C20.366 23.5537 20.2132 23.4905 20.1006 23.3782C19.988 23.2659 19.9248 23.1137 19.9248 22.9551C19.9248 22.7964 19.988 22.6442 20.1006 22.5319Z" fill="current" stroke="current" stroke-width="0.322253"/>
<path d="M23.1455 22.5319C23.2581 22.4196 23.4109 22.3564 23.5704 22.3564C23.7298 22.3564 23.8827 22.4196 23.9953 22.5319C24.1079 22.6442 24.171 22.7964 24.171 22.9551C24.171 23.1137 24.1079 23.2659 23.9953 23.3782C23.8827 23.4905 23.7298 23.5537 23.5704 23.5537C23.4109 23.5537 23.2581 23.4905 23.1455 23.3782C23.0329 23.2659 22.9697 23.1137 22.9697 22.9551C22.9697 22.7964 23.0329 22.6442 23.1455 22.5319Z" fill="current" stroke="current" stroke-width="0.322253"/>
</svg>
