<svg width="40" height="34" viewBox="0 0 40 34" fill="#3450A1" stroke="#3450A1" xmlns="http://www.w3.org/2000/svg">
<path d="M38.4914 1.59242V1.43129H38.3303H1.67143H1.51031V1.59242V5.99468V6.15581H1.67143H38.3303H38.4914V5.99468V1.59242ZM1.51031 32.4083V32.5694H1.67143H38.3303H38.4914V32.4083V7.4621V7.30098H38.3303H1.67143H1.51031V7.4621V32.4083ZM0.938255 0.286127H39.0635C39.3797 0.286127 39.6355 0.542475 39.6355 0.85871V33.142C39.6355 33.4588 39.3798 33.7146 39.0635 33.7146H0.938255C0.622535 33.7146 0.366205 33.4587 0.366205 33.142V0.85871C0.366205 0.54258 0.62264 0.286127 0.938255 0.286127Z" fill="current" stroke="current" stroke-width="0.322253"/>
<path d="M13.2171 20.0495L13.3309 19.9356L13.2171 19.8217L7.86999 14.4708C7.64619 14.2468 7.64619 13.8851 7.86999 13.6611C8.09373 13.4372 8.45502 13.4372 8.67876 13.6611L14.5442 19.5308C14.768 19.7547 14.768 20.1165 14.5442 20.3404L8.67876 26.2101C8.56714 26.3218 8.42094 26.3779 8.27438 26.3779C8.12781 26.3779 7.98161 26.3218 7.86999 26.2101C7.64619 25.9862 7.64619 25.6244 7.86999 25.4004L13.2171 20.0495Z" fill="current" stroke="current" stroke-width="0.322253"/>
<path d="M15.6043 25.2353H22.936C23.2524 25.2353 23.5081 25.4911 23.5081 25.8079C23.5081 26.1248 23.2524 26.3805 22.936 26.3805H15.6043C15.2885 26.3805 15.0322 26.1247 15.0322 25.8079C15.0322 25.4912 15.2885 25.2353 15.6043 25.2353Z" fill="current" stroke="current" stroke-width="0.322253"/>
</svg>
