<svg width="37" height="37" viewBox="0 0 37 37" fill="#3450A1" stroke="#3450A1" xmlns="http://www.w3.org/2000/svg">
<mask id="path-1-inside-1_1102_6687" fill="white">
<path d="M34.6307 23.7326C34.4508 23.3018 34.5464 22.8121 34.8736 22.4845L35.7378 21.6204L33.2172 19.1017L32.3518 19.9658C32.0246 20.2934 31.534 20.3884 31.0802 20.1984C30.6538 20.0228 30.3782 19.6109 30.3782 19.1492V17.9295H29.1601C29.106 16.9723 28.9284 16.047 28.6338 15.1704L35.5068 8.30263C36.4125 7.39756 36.9114 6.19457 36.9114 4.91502C36.9114 2.27401 34.7608 0.125 32.1178 0.125C30.8373 0.125 29.6334 0.623527 28.7283 1.528L21.8625 8.38928C20.9745 8.09135 20.0332 7.91805 19.0609 7.86642C18.2413 6.43552 16.7012 5.46636 14.9361 5.46636C14.4841 5.46636 14.0482 5.53402 13.633 5.65212C12.6079 3.72627 10.6164 2.49894 8.40288 2.49894C5.12796 2.49894 2.4636 5.16131 2.4636 8.43379C2.4636 8.8884 2.51943 9.33588 2.62099 9.77388C1.15696 10.2166 0.0878906 11.5763 0.0878906 13.1817C0.0878906 15.1455 1.68615 16.7426 3.65146 16.7426H7.95981C7.86122 17.3295 7.80895 17.9254 7.80895 18.523C7.80895 19.8293 8.05068 20.8922 8.44089 21.8003L3.14246 27.0953L0.194204 34.7548C0.123526 34.9376 0.0878906 35.1299 0.0878906 35.3264C0.0878906 36.2059 0.804168 36.9211 1.68377 36.9211C1.88036 36.9211 2.0728 36.8849 2.25632 36.8148L9.92155 33.8688L13.7957 29.9969C13.7666 30.1245 13.7482 30.2562 13.7482 30.3927C13.7482 30.8503 13.927 31.264 14.2115 31.5797C13.9264 31.8954 13.7482 32.3091 13.7482 32.7667C13.7482 33.5916 14.3154 34.2812 15.0786 34.4818C15.5847 35.9299 16.94 36.9211 18.4996 36.9211C20.0593 36.9211 21.4146 35.9299 21.9207 34.4818C22.6839 34.2812 23.2511 33.5916 23.2511 32.7667C23.2511 32.7222 23.241 32.6806 23.238 32.6373L23.9757 33.3744L24.841 32.5103C25.1683 32.1827 25.6571 32.0871 26.112 32.2764C26.5385 32.4539 26.8146 32.8658 26.8146 33.3275V34.5471H30.3782V33.3275C30.3782 32.8658 30.6544 32.4533 31.104 32.2675C31.5352 32.0883 32.0252 32.1827 32.3524 32.5103L33.2172 33.3744L35.7378 30.8556L34.8736 29.9915C34.5464 29.6639 34.4508 29.1743 34.6402 28.7209C34.8166 28.2948 35.2288 28.0188 35.6909 28.0188H36.9114V24.4579H35.6909C35.2288 24.4579 34.8166 24.1819 34.6307 23.7326ZM25.7313 25.4822C26.3793 24.8502 27.0285 24.2045 27.5885 23.4579C27.9116 23.3403 28.2478 23.2709 28.5964 23.2709C30.2339 23.2709 31.5661 24.6021 31.5661 26.2383C31.5661 27.8746 30.2339 29.2058 28.5964 29.2058C26.959 29.2058 25.6268 27.8746 25.6268 26.2383C25.6268 25.9814 25.6666 25.7285 25.7313 25.4822ZM26.4446 11.4238L29.1903 8.67949L31.3202 10.8077L28.148 13.9775C27.7032 13.0446 27.1282 12.1864 26.4446 11.4238ZM27.0605 4.87288L28.0025 3.93161L33.102 9.02727L32.16 9.96854L27.0605 4.87288ZM32.1178 1.31197C34.1057 1.31197 35.7236 2.92862 35.7236 4.91502C35.7236 5.87706 35.3488 6.78212 34.6675 7.46285L33.9418 8.18808L28.8423 3.09242L29.5681 2.36719C30.2493 1.68705 31.1545 1.31197 32.1178 1.31197ZM26.2207 5.71207L28.3505 7.8403L25.606 10.5828C24.8434 9.8991 23.9852 9.32402 23.0515 8.8789L26.2207 5.71207ZM28.0025 18.523C28.0025 21.6109 26.4464 23.1279 24.7988 24.7333C23.6644 25.8389 22.4992 26.982 21.8209 28.6479C21.7075 28.6247 21.5899 28.6123 21.4693 28.6123H19.0936V25.6448C19.0936 24.6632 18.2942 23.8644 17.3118 23.8644H16.1239C15.7967 23.8644 15.53 23.5985 15.53 23.2709C15.53 22.9433 15.7967 22.6774 16.1239 22.6774H22.0632C23.0456 22.6774 23.845 21.8786 23.845 20.897C23.845 19.9153 23.0456 19.1165 22.0632 19.1165H17.3118C16.9845 19.1165 16.7179 18.8506 16.7179 18.523V16.7426H19.6875C21.325 16.7426 22.6571 15.4114 22.6571 13.7752C22.6571 12.1389 21.325 10.8077 19.6875 10.8077C19.6709 10.8077 19.6554 10.8125 19.6388 10.8125C19.6643 10.6143 19.6875 10.416 19.6875 10.2142C19.6875 9.8261 19.6352 9.45043 19.5473 9.08899C24.2821 9.61601 28.0025 13.6766 28.0025 18.523ZM14.9361 30.3927C14.9361 30.0651 15.2028 29.7992 15.53 29.7992H21.4693C21.7965 29.7992 22.0632 30.0651 22.0632 30.3927C22.0632 30.7203 21.7965 30.9862 21.4693 30.9862H15.53C15.2028 30.9862 14.9361 30.7203 14.9361 30.3927ZM7.46091 30.3927L11.8269 26.03C12.5574 26.7541 13.2357 27.4864 13.7358 28.3784L9.59073 32.521L7.46091 30.3927ZM1.27575 13.1817C1.27575 11.8724 2.34125 10.8077 3.65146 10.8077C4.96166 10.8077 6.02717 11.8724 6.02717 13.1817H7.21502C7.21502 11.2695 5.69754 9.70859 3.8035 9.62847C3.70253 9.24033 3.65146 8.83973 3.65146 8.43379C3.65146 5.81593 5.78306 3.68591 8.40288 3.68591C10.1401 3.68591 11.7081 4.62955 12.542 6.11979C11.2757 6.86224 10.3813 8.16969 10.2144 9.69554C9.17736 9.95073 8.40288 10.8807 8.40288 11.9947H9.59073C9.59073 11.3401 10.1235 10.8077 10.7786 10.8077C11.4337 10.8077 11.9664 11.3401 11.9664 11.9947H13.1543C13.1543 10.9057 12.4131 9.99584 11.4111 9.7169C11.6546 7.98867 13.14 6.65333 14.9361 6.65333C16.9014 6.65333 18.4996 8.2504 18.4996 10.2142C18.4996 10.5264 18.4486 10.8321 18.369 11.13C17.3949 11.6172 16.7179 12.6143 16.7179 13.7752H17.9057C17.9057 12.7935 18.7051 11.9947 19.6875 11.9947C20.6699 11.9947 21.4693 12.7935 21.4693 13.7752C21.4693 14.7568 20.6699 15.5556 19.6875 15.5556H3.65146C2.34125 15.5556 1.27575 14.4909 1.27575 13.1817ZM15.53 16.7426V18.523C15.53 19.5047 16.3294 20.3035 17.3118 20.3035H22.0632C22.3905 20.3035 22.6571 20.5694 22.6571 20.897C22.6571 21.2246 22.3905 21.4905 22.0632 21.4905H16.1239C15.1416 21.4905 14.3422 22.2893 14.3422 23.2709C14.3422 24.2525 15.1416 25.0514 16.1239 25.0514H17.3118C17.639 25.0514 17.9057 25.3172 17.9057 25.6448V28.6123H15.53C15.4094 28.6123 15.2918 28.6247 15.1784 28.6479C14.5001 26.982 13.3349 25.8389 12.2005 24.7333C10.5529 23.1279 8.99681 21.6109 8.99681 18.523C8.99681 17.923 9.06867 17.3283 9.17974 16.7426H15.53ZM10.9787 25.1991L6.6211 29.5535L4.49127 27.4253L9.02294 22.897C9.58064 23.7718 10.272 24.5018 10.9787 25.1991ZM3.87774 28.4906L8.52463 33.134L4.59046 34.6462L2.36442 32.4218L3.87774 28.4906ZM1.83047 35.7068C1.5733 35.8065 1.27575 35.6017 1.27575 35.3264C1.27575 35.2759 1.28525 35.2267 1.30247 35.1804L1.89759 33.6337L3.37706 35.1121L1.83047 35.7068ZM18.4996 35.7341C17.6224 35.7341 16.8402 35.2676 16.4066 34.5471H20.5926C20.1591 35.2676 19.3769 35.7341 18.4996 35.7341ZM21.4693 33.3601H15.53C15.2028 33.3601 14.9361 33.0943 14.9361 32.7667C14.9361 32.4391 15.2028 32.1732 15.53 32.1732H21.4693C21.7965 32.1732 22.0632 32.4391 22.0632 32.7667C22.0632 33.0943 21.7965 33.3601 21.4693 33.3601ZM35.7236 26.8318H35.6909C34.7459 26.8318 33.9026 27.3956 33.5343 28.287C33.1685 29.1636 33.3645 30.1619 34.0332 30.8307L34.0582 30.8556L33.2172 31.696L33.1922 31.6711C32.5223 31.0016 31.5221 30.8052 30.6271 31.1803C29.7546 31.5411 29.1903 32.3833 29.1903 33.3275V33.3601H28.0025V33.3275C28.0025 32.3833 27.4383 31.5405 26.5462 31.172C25.6678 30.8058 24.6688 31.0022 24 31.6711L23.9751 31.696L23.1703 30.8918C23.2178 30.7322 23.2511 30.5672 23.2511 30.3927C23.2511 29.9714 23.0978 29.5891 22.8519 29.2835C23.2214 28.287 23.8005 27.49 24.4746 26.7541C24.73 28.8016 26.4791 30.3927 28.5964 30.3927C30.889 30.3927 32.7539 28.5286 32.7539 26.2383C32.7539 23.9481 30.889 22.0839 28.5964 22.0839C28.5382 22.0839 28.4818 22.0899 28.4242 22.0922C28.8263 21.2584 29.1024 20.2916 29.1719 19.1165H29.1903V19.1492C29.1903 20.0934 29.7546 20.9367 30.6461 21.3041C31.5227 21.6709 32.5229 21.475 33.1922 20.8056L33.2172 20.7806L34.0582 21.621L34.0332 21.6459C33.3645 22.3148 33.1685 23.3136 33.5421 24.2086C33.9026 25.081 34.7459 25.6448 35.6909 25.6448H35.7236V26.8318Z"/>
</mask>
<path d="M34.6307 23.7326C34.4508 23.3018 34.5464 22.8121 34.8736 22.4845L35.7378 21.6204L33.2172 19.1017L32.3518 19.9658C32.0246 20.2934 31.534 20.3884 31.0802 20.1984C30.6538 20.0228 30.3782 19.6109 30.3782 19.1492V17.9295H29.1601C29.106 16.9723 28.9284 16.047 28.6338 15.1704L35.5068 8.30263C36.4125 7.39756 36.9114 6.19457 36.9114 4.91502C36.9114 2.27401 34.7608 0.125 32.1178 0.125C30.8373 0.125 29.6334 0.623527 28.7283 1.528L21.8625 8.38928C20.9745 8.09135 20.0332 7.91805 19.0609 7.86642C18.2413 6.43552 16.7012 5.46636 14.9361 5.46636C14.4841 5.46636 14.0482 5.53402 13.633 5.65212C12.6079 3.72627 10.6164 2.49894 8.40288 2.49894C5.12796 2.49894 2.4636 5.16131 2.4636 8.43379C2.4636 8.8884 2.51943 9.33588 2.62099 9.77388C1.15696 10.2166 0.0878906 11.5763 0.0878906 13.1817C0.0878906 15.1455 1.68615 16.7426 3.65146 16.7426H7.95981C7.86122 17.3295 7.80895 17.9254 7.80895 18.523C7.80895 19.8293 8.05068 20.8922 8.44089 21.8003L3.14246 27.0953L0.194204 34.7548C0.123526 34.9376 0.0878906 35.1299 0.0878906 35.3264C0.0878906 36.2059 0.804168 36.9211 1.68377 36.9211C1.88036 36.9211 2.0728 36.8849 2.25632 36.8148L9.92155 33.8688L13.7957 29.9969C13.7666 30.1245 13.7482 30.2562 13.7482 30.3927C13.7482 30.8503 13.927 31.264 14.2115 31.5797C13.9264 31.8954 13.7482 32.3091 13.7482 32.7667C13.7482 33.5916 14.3154 34.2812 15.0786 34.4818C15.5847 35.9299 16.94 36.9211 18.4996 36.9211C20.0593 36.9211 21.4146 35.9299 21.9207 34.4818C22.6839 34.2812 23.2511 33.5916 23.2511 32.7667C23.2511 32.7222 23.241 32.6806 23.238 32.6373L23.9757 33.3744L24.841 32.5103C25.1683 32.1827 25.6571 32.0871 26.112 32.2764C26.5385 32.4539 26.8146 32.8658 26.8146 33.3275V34.5471H30.3782V33.3275C30.3782 32.8658 30.6544 32.4533 31.104 32.2675C31.5352 32.0883 32.0252 32.1827 32.3524 32.5103L33.2172 33.3744L35.7378 30.8556L34.8736 29.9915C34.5464 29.6639 34.4508 29.1743 34.6402 28.7209C34.8166 28.2948 35.2288 28.0188 35.6909 28.0188H36.9114V24.4579H35.6909C35.2288 24.4579 34.8166 24.1819 34.6307 23.7326ZM25.7313 25.4822C26.3793 24.8502 27.0285 24.2045 27.5885 23.4579C27.9116 23.3403 28.2478 23.2709 28.5964 23.2709C30.2339 23.2709 31.5661 24.6021 31.5661 26.2383C31.5661 27.8746 30.2339 29.2058 28.5964 29.2058C26.959 29.2058 25.6268 27.8746 25.6268 26.2383C25.6268 25.9814 25.6666 25.7285 25.7313 25.4822ZM26.4446 11.4238L29.1903 8.67949L31.3202 10.8077L28.148 13.9775C27.7032 13.0446 27.1282 12.1864 26.4446 11.4238ZM27.0605 4.87288L28.0025 3.93161L33.102 9.02727L32.16 9.96854L27.0605 4.87288ZM32.1178 1.31197C34.1057 1.31197 35.7236 2.92862 35.7236 4.91502C35.7236 5.87706 35.3488 6.78212 34.6675 7.46285L33.9418 8.18808L28.8423 3.09242L29.5681 2.36719C30.2493 1.68705 31.1545 1.31197 32.1178 1.31197ZM26.2207 5.71207L28.3505 7.8403L25.606 10.5828C24.8434 9.8991 23.9852 9.32402 23.0515 8.8789L26.2207 5.71207ZM28.0025 18.523C28.0025 21.6109 26.4464 23.1279 24.7988 24.7333C23.6644 25.8389 22.4992 26.982 21.8209 28.6479C21.7075 28.6247 21.5899 28.6123 21.4693 28.6123H19.0936V25.6448C19.0936 24.6632 18.2942 23.8644 17.3118 23.8644H16.1239C15.7967 23.8644 15.53 23.5985 15.53 23.2709C15.53 22.9433 15.7967 22.6774 16.1239 22.6774H22.0632C23.0456 22.6774 23.845 21.8786 23.845 20.897C23.845 19.9153 23.0456 19.1165 22.0632 19.1165H17.3118C16.9845 19.1165 16.7179 18.8506 16.7179 18.523V16.7426H19.6875C21.325 16.7426 22.6571 15.4114 22.6571 13.7752C22.6571 12.1389 21.325 10.8077 19.6875 10.8077C19.6709 10.8077 19.6554 10.8125 19.6388 10.8125C19.6643 10.6143 19.6875 10.416 19.6875 10.2142C19.6875 9.8261 19.6352 9.45043 19.5473 9.08899C24.2821 9.61601 28.0025 13.6766 28.0025 18.523ZM14.9361 30.3927C14.9361 30.0651 15.2028 29.7992 15.53 29.7992H21.4693C21.7965 29.7992 22.0632 30.0651 22.0632 30.3927C22.0632 30.7203 21.7965 30.9862 21.4693 30.9862H15.53C15.2028 30.9862 14.9361 30.7203 14.9361 30.3927ZM7.46091 30.3927L11.8269 26.03C12.5574 26.7541 13.2357 27.4864 13.7358 28.3784L9.59073 32.521L7.46091 30.3927ZM1.27575 13.1817C1.27575 11.8724 2.34125 10.8077 3.65146 10.8077C4.96166 10.8077 6.02717 11.8724 6.02717 13.1817H7.21502C7.21502 11.2695 5.69754 9.70859 3.8035 9.62847C3.70253 9.24033 3.65146 8.83973 3.65146 8.43379C3.65146 5.81593 5.78306 3.68591 8.40288 3.68591C10.1401 3.68591 11.7081 4.62955 12.542 6.11979C11.2757 6.86224 10.3813 8.16969 10.2144 9.69554C9.17736 9.95073 8.40288 10.8807 8.40288 11.9947H9.59073C9.59073 11.3401 10.1235 10.8077 10.7786 10.8077C11.4337 10.8077 11.9664 11.3401 11.9664 11.9947H13.1543C13.1543 10.9057 12.4131 9.99584 11.4111 9.7169C11.6546 7.98867 13.14 6.65333 14.9361 6.65333C16.9014 6.65333 18.4996 8.2504 18.4996 10.2142C18.4996 10.5264 18.4486 10.8321 18.369 11.13C17.3949 11.6172 16.7179 12.6143 16.7179 13.7752H17.9057C17.9057 12.7935 18.7051 11.9947 19.6875 11.9947C20.6699 11.9947 21.4693 12.7935 21.4693 13.7752C21.4693 14.7568 20.6699 15.5556 19.6875 15.5556H3.65146C2.34125 15.5556 1.27575 14.4909 1.27575 13.1817ZM15.53 16.7426V18.523C15.53 19.5047 16.3294 20.3035 17.3118 20.3035H22.0632C22.3905 20.3035 22.6571 20.5694 22.6571 20.897C22.6571 21.2246 22.3905 21.4905 22.0632 21.4905H16.1239C15.1416 21.4905 14.3422 22.2893 14.3422 23.2709C14.3422 24.2525 15.1416 25.0514 16.1239 25.0514H17.3118C17.639 25.0514 17.9057 25.3172 17.9057 25.6448V28.6123H15.53C15.4094 28.6123 15.2918 28.6247 15.1784 28.6479C14.5001 26.982 13.3349 25.8389 12.2005 24.7333C10.5529 23.1279 8.99681 21.6109 8.99681 18.523C8.99681 17.923 9.06867 17.3283 9.17974 16.7426H15.53ZM10.9787 25.1991L6.6211 29.5535L4.49127 27.4253L9.02294 22.897C9.58064 23.7718 10.272 24.5018 10.9787 25.1991ZM3.87774 28.4906L8.52463 33.134L4.59046 34.6462L2.36442 32.4218L3.87774 28.4906ZM1.83047 35.7068C1.5733 35.8065 1.27575 35.6017 1.27575 35.3264C1.27575 35.2759 1.28525 35.2267 1.30247 35.1804L1.89759 33.6337L3.37706 35.1121L1.83047 35.7068ZM18.4996 35.7341C17.6224 35.7341 16.8402 35.2676 16.4066 34.5471H20.5926C20.1591 35.2676 19.3769 35.7341 18.4996 35.7341ZM21.4693 33.3601H15.53C15.2028 33.3601 14.9361 33.0943 14.9361 32.7667C14.9361 32.4391 15.2028 32.1732 15.53 32.1732H21.4693C21.7965 32.1732 22.0632 32.4391 22.0632 32.7667C22.0632 33.0943 21.7965 33.3601 21.4693 33.3601ZM35.7236 26.8318H35.6909C34.7459 26.8318 33.9026 27.3956 33.5343 28.287C33.1685 29.1636 33.3645 30.1619 34.0332 30.8307L34.0582 30.8556L33.2172 31.696L33.1922 31.6711C32.5223 31.0016 31.5221 30.8052 30.6271 31.1803C29.7546 31.5411 29.1903 32.3833 29.1903 33.3275V33.3601H28.0025V33.3275C28.0025 32.3833 27.4383 31.5405 26.5462 31.172C25.6678 30.8058 24.6688 31.0022 24 31.6711L23.9751 31.696L23.1703 30.8918C23.2178 30.7322 23.2511 30.5672 23.2511 30.3927C23.2511 29.9714 23.0978 29.5891 22.8519 29.2835C23.2214 28.287 23.8005 27.49 24.4746 26.7541C24.73 28.8016 26.4791 30.3927 28.5964 30.3927C30.889 30.3927 32.7539 28.5286 32.7539 26.2383C32.7539 23.9481 30.889 22.0839 28.5964 22.0839C28.5382 22.0839 28.4818 22.0899 28.4242 22.0922C28.8263 21.2584 29.1024 20.2916 29.1719 19.1165H29.1903V19.1492C29.1903 20.0934 29.7546 20.9367 30.6461 21.3041C31.5227 21.6709 32.5229 21.475 33.1922 20.8056L33.2172 20.7806L34.0582 21.621L34.0332 21.6459C33.3645 22.3148 33.1685 23.3136 33.5421 24.2086C33.9026 25.081 34.7459 25.6448 35.6909 25.6448H35.7236V26.8318Z" fill="current" stroke="current" stroke-width="0.644506" mask="url(#path-1-inside-1_1102_6687)"/>
</svg>
