<svg width="1440" height="520" viewBox="0 0 1440 520" fill="none" xmlns="http://www.w3.org/2000/svg">
<g clip-path="url(#clip0_5167_50852)">
<path opacity="0.5" d="M644 374.717C999.77 437.091 1245.5 429.53 1441 355L1441 785L-3.75918e-05 785L-3.45772e-06 394.552C-3.45772e-06 394.552 426.5 336.584 644 374.717Z" fill="url(#paint0_linear_5167_50852)"/>
<path d="M915.783 410.283C449.407 347.909 127.28 355.47 -129 430V0H1760V390.448C1760 390.448 1200.9 448.416 915.783 410.283Z" fill="#FFE0B9"/>
<path opacity="0.5" d="M797 410.283C441.23 347.909 195.5 355.47 0 430V0H1441V390.448C1441 390.448 1014.5 448.416 797 410.283Z" fill="#FFEFDB"/>
<path d="M1109.32 168.244H1049.74V254.6H1109.32V168.244Z" fill="#E0E0E0"/>
<path d="M1106.34 168.244H1046.76V254.6H1106.34V168.244Z" fill="#E0E0E0"/>
<path d="M1098.94 177.594H1054.16V245.25H1098.94V177.594Z" fill="white"/>
<path d="M1098.93 245.239C1098.93 245.239 1098.93 245.132 1098.93 244.918V243.956C1098.93 243.1 1098.93 241.865 1098.93 240.249C1098.93 237.006 1098.93 232.278 1098.93 226.302C1098.93 214.422 1098.93 197.481 1098.86 177.594L1099 177.736H1054.23L1054.4 177.57C1054.4 203.088 1054.4 226.623 1054.4 245.215L1054.27 245.096H1086.87H1095.86H1098.93H1098.14H1095.77H1086.79H1054.12H1053.99V244.965C1053.99 226.373 1053.99 202.839 1053.99 177.321V177.154H1099.07V177.309C1099.07 197.243 1099.01 214.137 1099 226.124C1099 232.064 1099 236.816 1099 240.023C1099 241.627 1099 242.863 1099 243.706V244.645C1099 244.845 1098.97 245.044 1098.93 245.239V245.239Z" fill="#E0E0E0"/>
<path d="M1106.51 168.244C1106.2 168.789 1105.85 169.306 1105.45 169.789C1104.76 170.703 1103.78 171.963 1102.66 173.353C1101.54 174.743 1100.48 175.919 1099.71 176.774C1099.31 177.257 1098.87 177.706 1098.39 178.116C1098.75 177.593 1099.15 177.096 1099.58 176.631L1102.46 173.151L1105.32 169.67C1105.67 169.161 1106.07 168.683 1106.51 168.244Z" fill="#E0E0E0"/>
<path d="M1099.17 245.025C1101.4 248.563 1104.02 251.839 1106.98 254.791Z" fill="white"/>
<path d="M1106.98 254.79C1106.48 254.445 1106.03 254.046 1105.62 253.602C1104.58 252.543 1103.59 251.433 1102.67 250.275C1101.74 249.134 1100.88 247.944 1100.08 246.711C1099.72 246.21 1099.41 245.673 1099.17 245.107C1099.58 245.565 1099.95 246.058 1100.27 246.581C1100.92 247.507 1101.85 248.766 1102.92 250.145C1103.99 251.523 1105.03 252.675 1105.78 253.518C1106.21 253.912 1106.61 254.337 1106.98 254.79Z" fill="#E0E0E0"/>
<path d="M1046.76 254.529L1054.56 244.906Z" fill="white"/>
<path d="M1054.56 244.906C1053.39 246.606 1052.13 248.244 1050.79 249.813C1048.63 252.474 1046.82 254.565 1046.76 254.565C1047.93 252.86 1049.19 251.218 1050.53 249.646C1051.79 248 1053.13 246.417 1054.56 244.906V244.906Z" fill="#E0E0E0"/>
<path d="M1046.76 168.244C1048.11 169.68 1049.38 171.192 1050.55 172.77C1051.82 174.292 1053.01 175.878 1054.12 177.522C1052.77 176.086 1051.5 174.575 1050.33 172.996C1049.05 171.48 1047.86 169.893 1046.76 168.244V168.244Z" fill="#E0E0E0"/>
<path d="M1084.99 191.326H1070V233.892H1084.99V191.326Z" fill="#C1C1C1"/>
<path d="M990.82 409.859C988.11 410.754 985.609 412.186 983.466 414.07C981.322 415.954 979.581 418.252 978.346 420.824C975.911 425.992 974.692 431.649 974.782 437.361C974.639 448.374 979.403 460.111 984.939 469.627C995.097 462.808 998.97 449.17 1000.5 442.125C1002.88 430.982 1000.5 409.396 990.832 409.859" fill="#F5F5F5"/>
<path d="M972.038 486.212C973.059 483.185 973.26 479.942 972.622 476.812C971.983 473.682 970.528 470.777 968.403 468.392C966.244 466.049 963.641 464.16 960.745 462.834C957.848 461.508 954.717 460.773 951.533 460.67C948.599 460.516 945.343 460.967 943.371 463.153C942.513 464.231 941.958 465.518 941.764 466.882C941.57 468.245 941.743 469.636 942.267 470.911C943.351 473.453 945.089 475.662 947.304 477.314C954.586 483.254 962.748 487.733 972.038 486.188" fill="#F5F5F5"/>
<path d="M979.653 512.682C979.789 510.253 979.678 507.817 979.32 505.411C979.03 502.767 978.424 500.166 977.514 497.666C976.496 494.592 975.278 491.587 973.867 488.673C971.265 483.318 967.38 478.691 962.557 475.201C961.065 474.182 959.473 473.318 957.805 472.623C957.211 472.337 956.572 472.152 955.917 472.076C955.822 472.278 958.471 473.264 961.999 475.902C966.509 479.495 970.162 484.049 972.691 489.231C974.074 492.1 975.3 495.043 976.362 498.046C977.291 500.464 977.968 502.973 978.382 505.53C979.118 509.938 979.463 512.706 979.653 512.682Z" fill="#E0E0E0"/>
<path d="M991.188 426.492C990.807 427.654 990.529 428.846 990.356 430.056C989.905 432.432 989.299 435.759 988.586 439.928C987.149 448.244 985.307 459.816 983.573 472.622C981.838 485.429 980.615 497.059 979.902 505.506C979.545 509.723 979.296 513.133 979.165 515.497C979.024 516.72 979 517.953 979.094 519.18C979.381 517.986 979.564 516.77 979.64 515.545C979.937 512.967 980.318 509.605 980.828 505.589C981.767 497.178 983.133 485.571 984.856 472.789C986.578 460.006 988.289 448.648 989.501 440.059C990.071 436.044 990.534 432.694 990.891 430.139C991.094 428.934 991.194 427.714 991.188 426.492V426.492Z" fill="#E0E0E0"/>
<path d="M985.295 492.129C988.102 486.02 992.323 480.667 997.61 476.515C1002.9 472.362 1009.1 469.529 1015.7 468.25C1019.05 467.632 1023.18 467.751 1025.02 470.626C1026.86 473.501 1025.25 477.326 1023.22 480.13C1018.87 485.782 1012.95 490.022 1006.19 492.316C999.442 494.61 992.162 494.854 985.271 493.02" fill="#F5F5F5"/>
<path d="M1011.02 477.102C1010.37 477.132 1009.73 477.269 1009.13 477.505C1007.94 477.838 1006.22 478.42 1004.14 479.192C998.638 481.191 993.555 484.187 989.144 488.031C986.766 490.228 984.76 492.795 983.204 495.634C981.96 497.964 981.044 500.455 980.484 503.036C980.102 504.762 979.879 506.52 979.818 508.287C979.709 508.927 979.709 509.582 979.818 510.223C980.068 510.223 980.163 507.479 981.268 503.249C982.719 497.742 985.731 492.771 989.94 488.934C994.264 485.202 999.157 482.186 1004.43 480C1008.53 478.23 1011.11 477.292 1011.02 477.102Z" fill="#E0E0E0"/>
<path d="M1217.24 201.674C1217.24 201.674 1204.79 198.004 1199.75 226.622C1194.72 255.241 1194.31 271.006 1194.31 271.006C1194.31 271.006 1192.57 277.219 1187.96 274.915C1183.35 272.61 1175.52 264.496 1169.99 268.084C1164.26 271.802 1164.34 279.453 1168.7 289.385C1173.06 299.316 1181.77 321.461 1182.58 323.456C1183.38 325.452 1183.1 328.743 1179.71 327.686C1176.33 326.628 1154.76 313.632 1149.18 324.324C1143.6 335.016 1160.3 360.629 1162.07 363.528C1163.84 366.426 1163.64 367.876 1162.4 369.087C1161.17 370.299 1154.32 365.25 1148.03 361.805C1141.73 358.36 1133.83 355.473 1131.15 361.864C1128.46 368.256 1133.52 389.806 1164.2 417.974L1179.24 430.091L1197.45 423.391C1235.55 406.664 1247.34 387.941 1246.89 381.015C1246.44 374.089 1238.01 374.22 1230.94 375.408C1223.87 376.596 1215.76 379.197 1214.97 377.641C1214.19 376.085 1214.5 374.6 1217.1 372.485C1219.7 370.371 1243.8 351.458 1241.99 339.613C1240.17 327.769 1215.53 333.079 1211.98 332.984C1208.43 332.889 1209.28 329.67 1210.64 328.066C1211.99 326.462 1227.47 308.321 1234.81 300.326C1242.15 292.331 1244.71 285.131 1240.49 279.75C1236.43 274.558 1226.38 279.75 1221.28 280.391C1216.18 281.033 1216.53 274.641 1216.53 274.641C1216.53 274.641 1221.28 259.601 1225.76 230.876C1230.24 202.15 1216.97 201.651 1216.97 201.651" fill="#B6C5E0"/>
<path d="M1212.69 227.324C1212.69 227.324 1212.69 227.526 1212.63 227.93L1212.38 229.7C1212.14 231.28 1211.8 233.573 1211.37 236.496C1210.48 242.436 1209.14 250.942 1207.44 261.444C1204.04 282.531 1199.12 311.613 1193.55 343.724C1187.98 375.836 1182.98 404.906 1179.47 425.97C1177.73 436.483 1176.31 444.978 1175.34 450.918C1174.85 453.84 1174.47 456.121 1174.15 457.701C1174.02 458.45 1173.93 459.032 1173.84 459.459C1173.76 459.887 1173.71 460.053 1173.71 460.053C1173.71 460.053 1173.71 459.851 1173.78 459.448C1173.85 459.044 1173.93 458.438 1174.02 457.677C1174.26 456.097 1174.6 453.805 1175.03 450.882C1175.92 444.942 1177.26 436.436 1178.96 425.934C1182.36 404.847 1187.28 375.753 1192.86 343.641C1198.45 311.53 1203.47 282.471 1207.04 261.36C1208.77 250.847 1210.18 242.352 1211.17 236.412L1212.3 229.629L1212.61 227.871C1212.63 227.687 1212.65 227.505 1212.69 227.324V227.324Z" fill="#E0E0E0"/>
<path d="M1180.5 279.916C1180.82 280.251 1181.11 280.622 1181.35 281.021C1181.87 281.757 1182.54 282.839 1183.47 284.181C1185.21 286.878 1187.53 290.656 1190 294.873L1196.28 305.719L1198.2 308.986C1198.47 309.35 1198.69 309.75 1198.85 310.174C1198.52 309.845 1198.23 309.478 1197.98 309.081C1197.47 308.345 1196.8 307.264 1195.89 305.909C1194.17 303.189 1191.9 299.375 1189.43 295.158L1183.07 284.359C1182.31 283.076 1181.66 281.983 1181.14 281.092C1180.87 280.73 1180.66 280.335 1180.5 279.916V279.916Z" fill="#E0E0E0"/>
<path d="M1200.66 310.068C1200.55 309.913 1208.14 304.805 1217.61 298.639C1227.08 292.473 1234.81 287.614 1234.92 287.757C1235.03 287.9 1227.42 293.032 1217.97 299.186C1208.51 305.339 1200.75 310.198 1200.66 310.068Z" fill="#E0E0E0"/>
<path d="M1189.89 358.966C1190.32 358.755 1190.77 358.591 1191.24 358.479L1194.94 357.35C1198.07 356.388 1202.39 355.057 1207.09 353.406C1211.8 351.755 1216.03 350.151 1219.08 348.951L1222.65 347.537C1223.08 347.326 1223.54 347.175 1224.01 347.086C1223.62 347.356 1223.2 347.583 1222.75 347.763C1221.92 348.167 1220.72 348.725 1219.19 349.379C1216.19 350.686 1211.99 352.384 1207.31 354.024C1202.63 355.663 1198.23 356.946 1195.07 357.79C1193.48 358.206 1192.2 358.526 1191.29 358.728C1190.84 358.863 1190.37 358.943 1189.89 358.966V358.966Z" fill="#E0E0E0"/>
<path d="M1165.66 335.729C1166.04 335.954 1166.39 336.226 1166.7 336.536C1167.35 337.083 1168.27 337.891 1169.39 338.912C1171.65 340.944 1174.72 343.771 1178.1 346.919C1181.47 350.068 1184.5 352.955 1186.67 355.069C1187.75 356.115 1188.62 356.982 1189.22 357.588C1189.54 357.884 1189.84 358.214 1190.1 358.574C1189.71 358.359 1189.36 358.091 1189.05 357.778C1188.4 357.231 1187.48 356.412 1186.35 355.402C1184.11 353.382 1181.02 350.555 1177.65 347.395C1174.27 344.235 1171.24 341.36 1169.08 339.257C1167.99 338.2 1167.12 337.344 1166.53 336.726C1166.19 336.433 1165.9 336.097 1165.66 335.729V335.729Z" fill="#E0E0E0"/>
<path d="M1150.67 377.713C1151.15 378.012 1151.59 378.363 1152 378.758L1155.45 381.788C1158.35 384.366 1162.32 387.953 1166.69 391.957C1171.06 395.961 1175.01 399.608 1177.8 402.269L1181.11 405.453C1181.55 405.808 1181.95 406.206 1182.3 406.641C1181.83 406.332 1181.38 405.983 1180.97 405.595L1177.51 402.566C1174.62 399.988 1170.65 396.388 1166.28 392.397C1161.9 388.405 1157.96 384.746 1155.18 382.085L1151.83 378.972C1151.4 378.594 1151.01 378.172 1150.67 377.713Z" fill="#E0E0E0"/>
<path d="M1181.71 405.773C1182.25 405.507 1182.81 405.288 1183.38 405.12L1188.04 403.516C1191.96 402.162 1197.38 400.273 1203.31 398.028C1209.23 395.782 1214.54 393.62 1218.37 392.028L1222.92 390.139C1223.47 389.882 1224.03 389.675 1224.62 389.521C1224.12 389.862 1223.59 390.149 1223.03 390.377C1221.98 390.888 1220.46 391.565 1218.56 392.444C1214.77 394.155 1209.47 396.388 1203.53 398.633C1197.59 400.879 1192.15 402.732 1188.18 403.92C1186.2 404.538 1184.62 405.013 1183.43 405.322C1182.87 405.529 1182.3 405.68 1181.71 405.773Z" fill="#E0E0E0"/>
<path d="M799.362 455.419C826.793 439.761 835.703 406.877 837.378 376.737C837.663 371.7 838.696 366.473 836.712 361.852C834.728 357.23 829.442 353.714 824.761 355.413C820.876 356.827 818.821 361.008 816.445 364.406C813.221 368.928 808.786 372.449 803.65 374.563C800.3 375.93 796.261 376.571 793.267 374.563C789.157 371.772 789.192 365.748 789.703 360.771C790.646 351.457 791.553 342.159 792.424 332.877C792.911 327.899 793.398 322.802 792.281 317.931C791.164 313.061 788.135 308.332 783.514 306.574C778.892 304.816 772.762 307.002 771.313 311.801C770.719 313.797 770.933 315.936 770.612 317.991C770.291 320.046 769.103 322.256 767.048 322.66C764.993 323.064 763.14 321.472 761.785 319.868C757.033 314.356 754.194 307.548 751.521 300.789C748.848 294.029 746.282 287.15 742.112 281.222C737.942 275.294 731.883 270.364 724.779 269.342C717.675 268.321 709.656 272.003 707.209 278.846C704.761 285.689 708.195 293.221 712.139 299.327C718.022 308.364 725.176 316.506 733.38 323.503C734.853 324.762 736.445 326.129 736.944 328.029C737.716 331.451 734.259 334.468 730.885 335.264C727.048 336.155 723.045 335.395 719.124 335.502C715.204 335.609 710.808 336.928 709.014 340.48C706.496 345.386 710.274 351.172 714.146 355.009C721.908 362.793 730.955 369.179 740.888 373.886C744.452 375.561 748.183 377.094 750.903 379.945C753.624 382.796 755.002 387.441 752.899 390.792C750.796 394.142 746.092 394.854 742.314 393.785C738.536 392.716 735.293 390.316 731.753 388.606C725.135 385.386 716.237 385.042 711.307 390.566C708.064 394.201 707.315 399.595 708.349 404.37C709.383 409.146 711.972 413.423 714.776 417.438C724.577 431.338 737.693 443.004 753.101 449.978C768.509 456.951 783.086 459.791 799.433 455.466" fill="#B6C5E0"/>
<path d="M797.722 477.729C797.597 463.667 796.129 449.648 793.339 435.864C789.844 419.035 785.39 402.419 779.997 386.099L775.792 373.257C774.414 369.039 773.047 364.857 771.456 360.842C768.395 353.15 764.909 345.634 761.013 338.329C757.342 331.332 753.612 324.822 750.072 318.763C746.531 312.704 743.098 307.121 739.772 302.131C734.551 294.301 728.72 286.897 722.332 279.987C720.075 277.539 718.269 275.698 717.021 274.462L715.596 273.073C715.438 272.908 715.267 272.757 715.085 272.621C715.219 272.802 715.366 272.973 715.525 273.132L716.891 274.593C718.079 275.864 719.861 277.753 722.07 280.236C728.343 287.233 734.081 294.691 739.237 302.547C742.528 307.501 745.902 313.096 749.418 319.179C752.935 325.261 756.641 331.772 760.276 338.757C764.143 346.029 767.613 353.504 770.671 361.151C772.24 365.143 773.594 369.289 774.96 373.518C776.326 377.747 777.716 382.024 779.13 386.372C784.504 402.653 788.97 419.219 792.507 435.995C795.324 449.722 796.851 463.682 797.069 477.694" fill="#E0E0E0"/>
<path d="M771.242 360.783C771.558 360.121 771.789 359.423 771.931 358.704C772.323 357.349 772.81 355.377 773.392 352.918C774.58 348.012 775.923 341.193 777.408 333.661C778.893 326.129 780.354 319.345 781.59 314.474C782.196 312.098 782.706 310.067 783.087 308.713C783.318 308.018 783.478 307.302 783.562 306.574C783.21 307.217 782.935 307.899 782.742 308.606C782.267 309.936 781.649 311.885 780.96 314.308C779.558 319.143 777.99 325.939 776.505 333.482L772.751 352.835C772.288 355.152 771.896 357.112 771.563 358.68C771.39 359.369 771.283 360.073 771.242 360.783V360.783Z" fill="#E0E0E0"/>
<path d="M708.206 342.927C709.033 343.178 709.879 343.357 710.736 343.462C712.376 343.759 714.74 344.175 717.639 344.793C723.46 345.981 731.431 347.858 740.139 350.34C748.848 352.823 756.629 355.437 762.213 357.468C765.004 358.466 767.25 359.334 768.794 359.928C769.58 360.288 770.4 360.57 771.241 360.771C770.514 360.3 769.742 359.902 768.937 359.583C767.428 358.882 765.218 357.92 762.438 356.839C756.902 354.629 749.133 351.932 740.389 349.426C732.942 347.267 725.388 345.495 717.758 344.115C714.835 343.593 712.447 343.272 710.796 343.082C709.94 342.943 709.072 342.891 708.206 342.927Z" fill="#E0E0E0"/>
<path d="M792.649 434.617C792.856 434.394 793.028 434.142 793.16 433.868L794.479 431.647C795.667 429.722 797.164 426.895 799.041 423.331C802.807 416.274 807.713 406.354 812.964 395.33C818.215 384.305 823.015 374.349 826.638 367.221L830.939 358.787L832.127 356.482C832.273 356.219 832.389 355.94 832.471 355.65C832.271 355.873 832.099 356.121 831.96 356.387L830.654 358.608C829.525 360.545 827.969 363.36 826.08 366.924C822.314 373.993 817.419 383.913 812.156 394.938C806.894 405.962 802.106 415.906 798.494 423.046L794.182 431.48L792.994 433.785C792.841 434.045 792.725 434.325 792.649 434.617V434.617Z" fill="#E0E0E0"/>
<path d="M709.94 399.334C710.192 399.515 710.468 399.659 710.76 399.762L713.136 400.819L721.987 404.621C729.471 407.816 739.807 412.366 751.093 417.403C762.379 422.441 772.762 426.907 780.318 429.949C784.084 431.481 787.149 432.681 789.287 433.513L791.746 434.416C792.029 434.532 792.324 434.616 792.625 434.665C792.38 434.482 792.107 434.337 791.817 434.237L789.441 433.18L780.543 429.343C773.059 426.135 762.723 421.585 751.437 416.548C740.151 411.511 729.756 407.044 722.212 404.003C718.447 402.482 715.381 401.27 713.243 400.439L710.784 399.548C710.512 399.444 710.229 399.372 709.94 399.334V399.334Z" fill="#E0E0E0"/>
<path d="M883.71 97.0586V195.116H742.884L737.8 97.7476L883.71 97.0586Z" fill="#E0E0E0"/>
<path d="M737.8 97.7594V194.914H878.625V97.7594L737.8 97.7594Z" fill="#F7B36F"/>
<path d="M879.302 195.579H737.134V97.082H879.302V195.579ZM738.476 194.237H877.959V98.4126H738.476V194.237Z" fill="#E0E0E0"/>
<path d="M863.371 109.818H753.054V182.833H863.371V109.818Z" fill="white"/>
<path d="M863.383 109.818H862.837H861.328H855.269L832.531 109.901L753.113 110.056L753.434 109.735C753.434 132.045 753.434 156.768 753.434 182.749L753.078 182.405L863.407 182.476L863.122 182.749C863.193 160.534 863.241 142.357 863.276 129.634C863.276 123.29 863.276 118.336 863.348 114.938C863.348 113.263 863.348 111.968 863.348 111.077C863.348 110.186 863.348 109.735 863.348 109.735C863.348 109.735 863.348 110.163 863.348 111.018C863.348 111.873 863.348 113.168 863.348 114.831C863.348 118.205 863.348 123.147 863.419 129.456C863.419 142.179 863.502 160.462 863.562 182.749V183.034H863.288L752.959 183.106H752.614V182.749C752.614 156.768 752.614 132.045 752.614 109.735V109.414H752.923L832.519 109.58L855.186 109.664H861.126H862.659L863.383 109.818Z" fill="#E0E0E0"/>
<path d="M737.775 97.4746C738.625 97.9038 739.423 98.4301 740.151 99.0428C741.601 100.088 743.561 101.561 745.676 103.26C747.79 104.959 749.655 106.551 750.974 107.751C751.729 108.351 752.404 109.046 752.982 109.818C752.851 109.972 749.418 107.181 745.236 103.795C741.054 100.409 737.68 97.6409 737.775 97.4746Z" fill="#E0E0E0"/>
<path d="M878.637 97.748C876.32 100.025 873.842 102.134 871.224 104.056C868.752 106.163 866.131 108.088 863.383 109.818C865.715 107.544 868.204 105.436 870.832 103.51C873.293 101.406 875.901 99.4807 878.637 97.748V97.748Z" fill="#E0E0E0"/>
<path d="M878.518 194.927L862.824 182.191Z" fill="white"/>
<path d="M862.825 182.191C865.644 184.044 868.339 186.08 870.891 188.286C873.585 190.32 876.133 192.539 878.518 194.927C875.696 193.079 873.001 191.043 870.452 188.832C866.08 185.328 862.694 182.346 862.825 182.191Z" fill="#E0E0E0"/>
<path d="M737.775 194.914C740.07 192.658 742.524 190.57 745.117 188.665C747.565 186.584 750.158 184.678 752.875 182.963C750.586 185.22 748.136 187.309 745.545 189.212C743.093 191.294 740.497 193.199 737.775 194.914V194.914Z" fill="#E0E0E0"/>
<path d="M775.459 132.58V157.029H844.874V132.58H775.459Z" fill="#E0E0E0"/>
<path d="M1208.89 74.2734H1133.59V183.415H1208.89V74.2734Z" fill="#E0E0E0"/>
<path d="M1205.12 74.2734H1129.83V183.415H1205.12V74.2734Z" fill="#455A64"/>
<path d="M1195.76 86.0938H1139.18V171.594H1195.76V86.0938Z" fill="white"/>
<path d="M1195.77 171.593C1195.77 171.593 1195.77 171.45 1195.77 171.177V169.989C1195.77 168.908 1195.77 167.34 1195.77 165.297C1195.77 161.198 1195.77 155.234 1195.77 147.69C1195.77 132.615 1195.71 111.254 1195.68 86.1163L1195.87 86.3064H1139.18L1139.39 86.1045C1139.39 118.359 1139.39 148.094 1139.39 171.64L1139.22 171.474L1180.41 171.569H1191.79H1194.79H1195.82H1194.82H1191.87H1180.52L1139.22 171.652H1139.07V171.486C1139.07 147.976 1139.07 118.24 1139.07 85.95V85.8906H1196.09V86.0807C1196.09 111.278 1196.03 132.662 1196.01 147.774C1196.01 155.294 1196.01 161.257 1195.95 165.344C1195.95 167.364 1195.95 168.908 1195.95 169.989V171.177C1195.77 171.462 1195.77 171.593 1195.77 171.593Z" fill="#E0E0E0"/>
<path d="M1205.34 74.2734C1204.95 74.9655 1204.5 75.6181 1203.99 76.2218C1203.11 77.4098 1201.88 78.9898 1200.43 80.7124C1198.98 82.435 1197.69 83.9556 1196.7 85.0367C1196.21 85.6455 1195.67 86.21 1195.08 86.7237C1195.51 86.0571 1195.99 85.429 1196.52 84.8466L1200.14 80.451C1201.51 78.776 1202.76 77.2672 1203.77 76.0436C1204.24 75.4101 1204.76 74.8179 1205.34 74.2734Z" fill="#E0E0E0"/>
<path d="M1196.06 171.32C1198.88 175.791 1202.19 179.932 1205.93 183.664Z" fill="white"/>
<path d="M1205.93 183.664C1205.3 183.201 1204.73 182.676 1204.21 182.095C1203.2 181.074 1201.83 179.613 1200.48 177.902C1199.31 176.437 1198.22 174.914 1197.21 173.34C1196.75 172.709 1196.35 172.032 1196.02 171.32C1196.53 171.905 1197 172.528 1197.41 173.185C1198.24 174.373 1199.41 175.942 1200.76 177.64C1202.12 179.339 1203.42 180.836 1204.39 181.894C1204.94 182.446 1205.46 183.037 1205.93 183.664V183.664Z" fill="#E0E0E0"/>
<path d="M1129.82 183.331L1139.68 171.166Z" fill="white"/>
<path d="M1139.68 171.166C1138.2 173.321 1136.62 175.395 1134.92 177.379C1132.19 180.729 1129.91 183.402 1129.83 183.319C1131.3 181.167 1132.89 179.093 1134.58 177.106C1136.17 175.039 1137.88 173.056 1139.68 171.166V171.166Z" fill="#E0E0E0"/>
<path d="M1129.82 74.2734C1131.5 76.0955 1133.09 78.007 1134.57 79.9996C1136.16 81.899 1137.65 83.8818 1139.03 85.9396C1137.34 84.121 1135.76 82.2093 1134.28 80.2134C1132.69 78.3141 1131.2 76.3313 1129.82 74.2734V74.2734Z" fill="#E0E0E0"/>
<path d="M1178.14 103.451H1159.2V157.244H1178.14V103.451Z" fill="#B6C5E0"/>
<path d="M1224.77 519.157C1224.77 519.335 1109.04 519.465 966.324 519.465C823.609 519.465 707.851 519.382 707.851 519.157C707.851 518.931 823.55 518.848 966.324 518.848C1109.1 518.848 1224.77 519.038 1224.77 519.157Z" fill="#263238"/>
<path d="M1079.56 313.633C1080.45 317.22 1080.34 320.979 1079.27 324.513C1078.19 328.047 1076.18 331.224 1073.45 333.71C1069.82 336.918 1065.13 338.771 1061.8 342.299C1059.74 344.646 1058.33 347.485 1057.69 350.542C1057.06 353.598 1057.23 356.767 1058.18 359.739C1059.19 362.69 1060.79 365.405 1062.88 367.721C1064.96 370.036 1067.5 371.904 1070.33 373.211C1074.19 375.012 1078.42 375.876 1082.67 375.732C1086.92 375.587 1091.08 374.438 1094.81 372.379C1103.99 367.188 1109.34 356.769 1110.69 346.303C1112.04 335.837 1109.92 325.24 1107.13 315.058" fill="#263238"/>
<path d="M1195.38 498.187C1204.89 496.63 1213.8 499.529 1223.2 501.608C1225.71 502.35 1228.35 502.492 1230.91 502.024C1234.99 500.979 1237.89 497.011 1238.52 492.853C1239.03 489.21 1238.18 485.507 1236.14 482.446C1235.32 481.126 1234.21 480.016 1232.89 479.202C1231.47 478.492 1229.92 478.088 1228.34 478.014C1222.57 477.55 1216.79 478.641 1211.59 481.175C1206.4 483.696 1201.7 487.105 1197.69 491.249C1195.69 493.245 1196.28 495.537 1195.41 498.222" fill="#263238"/>
<path d="M1002.7 344.793C1001.18 335.731 1001.36 326.463 1003.25 317.469C1004.04 313.071 1005.65 308.86 1008 305.054C1008.8 303.635 1010.01 302.495 1011.48 301.787C1012.54 301.433 1013.69 301.383 1014.78 301.641C1015.87 301.899 1016.87 302.455 1017.67 303.249C1018.68 304.305 1019.46 305.566 1019.95 306.946C1020.45 308.326 1020.64 309.795 1020.52 311.256C1020.31 314.176 1019.59 317.038 1018.4 319.714C1014.73 329.099 1008.9 336.893 1002.66 344.781" fill="#263238"/>
<path d="M1186.84 379.139C1188.99 380.671 1236.74 483.516 1236.74 483.516C1232.9 481.876 1228.64 481.461 1224.56 482.328L1221.97 483.017C1217.33 484.263 1212.94 486.271 1208.96 488.957L1195.33 498.176C1194.8 497.866 1194.34 497.432 1194 496.909C1193.66 496.386 1193.46 495.79 1193.4 495.171V494.779L1156.38 431.244L1186.84 379.139Z" fill="#FF725E"/>
<path d="M1007.56 215.408L1020.29 287.793C1024.39 297.535 1072.19 356.554 1072.19 356.554L1056.39 407.33L993.611 321.497C987.782 315.264 984.612 307.005 984.772 298.473L987.22 221.134L1007.56 215.408Z" fill="#FFBE9D"/>
<path d="M1075.33 345.209L1108.11 347.692L1136.69 352.123C1136.69 352.123 1186.84 365.298 1186.84 370.787C1186.84 372.616 1173.15 416.204 1165.46 442.316C1163.57 448.658 1162.03 455.099 1160.85 461.609L1186.84 519.156H1063.49V466.397C1063.49 466.397 1055.17 397.101 1056.64 387.632C1058.1 378.164 1075.33 345.209 1075.33 345.209Z" fill="#FF725E"/>
<path d="M992.008 186.159C992.201 178.786 992.955 171.439 994.265 164.181C994.443 163.147 994.871 161.9 995.904 161.805C997.187 161.638 997.841 163.29 998.007 164.573C999.146 173.326 998.781 182.209 996.926 190.839" fill="#EB996E"/>
<path d="M1006.62 339.436C1020.69 326.867 1021.16 305.091 1019.96 287.758C1019.73 286.492 1019.92 285.184 1020.51 284.04C1021.85 282.127 1025.12 282.852 1026.45 284.776C1027.78 286.701 1027.64 289.231 1027.56 291.56C1028.29 289.588 1031.38 289.599 1032.83 291.12C1034.28 292.641 1034.53 294.934 1034.69 297.06L1035.16 302.858L1076.25 342.062C1076.25 342.062 1077.38 338.498 1080.39 340.553C1083.41 342.608 1085.36 346.944 1085.36 346.944L1056.41 410.134L1002.68 344.794C1003.71 342.817 1005.04 341.01 1006.62 339.436V339.436Z" fill="#FF725E"/>
<path d="M1062.38 383.166C1058.1 388.635 1054.9 394.873 1052.95 401.544C1051.01 408.26 1051.23 415.413 1053.56 422.002C1055.36 426.561 1058.31 430.574 1062.13 433.652C1065.95 436.729 1070.5 438.765 1075.33 439.56" fill="#FF725E"/>
<path d="M1195.38 498.187L1193.83 519.155H1224.27L1231.4 482.03C1222.13 481.512 1212.98 484.379 1205.66 490.097L1195.38 498.187Z" fill="#FFBE9D"/>
<path d="M1020.94 334.79C1021.11 334.213 1021.33 333.652 1021.6 333.115C1022.08 332.069 1022.72 330.525 1023.44 328.6C1024.17 326.676 1024.94 324.347 1025.66 321.734C1026.42 318.881 1027.02 315.99 1027.46 313.073C1027.87 310.155 1028.12 307.216 1028.21 304.27C1028.21 301.55 1028.21 299.102 1028.04 297.047C1027.87 294.992 1027.72 293.341 1027.56 292.2C1027.46 291.607 1027.41 291.008 1027.4 290.406C1027.59 290.977 1027.73 291.566 1027.8 292.164C1028.11 293.768 1028.34 295.385 1028.48 297.012C1028.71 299.428 1028.81 301.855 1028.78 304.282C1028.69 310.233 1027.82 316.147 1026.21 321.876C1025.55 324.212 1024.75 326.508 1023.83 328.755C1023.05 330.679 1022.35 332.2 1021.8 333.222C1021.55 333.766 1021.26 334.29 1020.94 334.79Z" fill="#263238"/>
<path d="M1029.88 323.752C1030.27 322.731 1030.71 321.731 1031.21 320.759C1033.29 315.937 1034.5 310.784 1034.78 305.54C1034.77 304.449 1034.83 303.358 1034.95 302.273C1035.19 303.35 1035.28 304.453 1035.21 305.552C1035.17 310.88 1033.96 316.134 1031.65 320.937C1031.2 321.955 1030.6 322.903 1029.88 323.752Z" fill="#263238"/>
<path d="M1078.14 356.613C1078.04 356.553 1078.54 355.781 1078.83 354.379C1079.16 352.547 1079.05 350.662 1078.52 348.879C1077.95 347.084 1077.27 345.329 1076.46 343.628C1076.09 342.924 1075.81 342.173 1075.63 341.395C1076.1 342.03 1076.5 342.715 1076.82 343.438C1077.76 345.111 1078.52 346.879 1079.09 348.713C1079.66 350.589 1079.7 352.586 1079.22 354.486C1079.07 355.284 1078.69 356.022 1078.14 356.613Z" fill="#263238"/>
<path d="M1071 440.295C1070.81 440.218 1070.64 440.119 1070.47 439.998L1069.07 439.072C1067.88 438.252 1066.11 437.052 1064.05 435.425C1061.6 433.543 1059.37 431.404 1057.38 429.045C1054.94 426.125 1053.18 422.695 1052.23 419.007C1051.32 415.317 1051.09 411.493 1051.54 407.721C1051.9 404.661 1052.58 401.647 1053.57 398.727C1054.22 396.76 1054.98 394.829 1055.84 392.942C1056.15 392.277 1056.39 391.754 1056.56 391.421C1056.64 391.236 1056.74 391.061 1056.86 390.898C1056.64 391.626 1056.37 392.34 1056.06 393.037C1055.53 394.391 1054.76 396.363 1053.99 398.858C1053.07 401.764 1052.44 404.752 1052.11 407.78C1051.69 411.484 1051.94 415.232 1052.82 418.852C1053.75 422.458 1055.45 425.817 1057.82 428.689C1059.77 431.033 1061.94 433.174 1064.32 435.08C1066.34 436.743 1068.04 437.991 1069.22 438.882L1070.55 439.903C1070.85 440.141 1071.01 440.272 1071 440.295Z" fill="#263238"/>
<path d="M1138.3 452.046C1138.13 452.133 1137.96 452.197 1137.78 452.236C1137.42 452.331 1136.91 452.509 1136.23 452.64C1134.32 453.055 1132.37 453.29 1130.41 453.341C1123.88 453.541 1117.44 451.783 1111.92 448.291C1106.4 444.8 1102.05 439.735 1099.44 433.751C1098.64 431.961 1098.02 430.099 1097.57 428.191C1097.41 427.514 1097.35 427.003 1097.28 426.623C1097.24 426.44 1097.22 426.252 1097.22 426.064C1097.46 426.736 1097.66 427.422 1097.81 428.12C1099.7 435.292 1103.94 441.627 1109.84 446.117C1115.74 450.608 1122.98 452.995 1130.4 452.901C1132.34 452.892 1134.27 452.725 1136.18 452.402C1136.88 452.247 1137.59 452.128 1138.3 452.046V452.046Z" fill="#263238"/>
<path d="M1157.2 475.199C1157.03 475.199 1158.6 468.582 1160.76 460.527C1162.93 452.473 1164.71 445.974 1164.86 446.022C1165.02 446.069 1163.46 452.627 1161.36 460.682C1159.25 468.736 1157.37 475.199 1157.2 475.199Z" fill="#263238"/>
<path d="M1173.77 461.193C1173.63 461.276 1168.85 453.471 1163.08 443.753C1157.31 434.035 1152.79 426.088 1152.95 426.005C1153.1 425.921 1157.86 433.715 1163.64 443.433C1169.41 453.15 1173.97 461.098 1173.77 461.193Z" fill="#263238"/>
<path d="M1219.38 480.427C1219.38 480.546 1217.64 480.689 1214.94 481.378C1213.35 481.78 1211.8 482.292 1210.29 482.91C1208.45 483.69 1206.67 484.612 1204.97 485.666C1203.29 486.746 1201.7 487.958 1200.22 489.29C1199.01 490.397 1197.87 491.588 1196.83 492.854C1195.05 495.004 1194.17 496.513 1194.06 496.418C1194.21 496.033 1194.39 495.666 1194.62 495.325C1195.17 494.352 1195.79 493.423 1196.49 492.545C1197.5 491.232 1198.62 490.001 1199.82 488.862C1201.32 487.478 1202.93 486.23 1204.65 485.132C1206.38 484.057 1208.2 483.134 1210.09 482.376C1211.63 481.767 1213.22 481.286 1214.84 480.938C1215.93 480.687 1217.03 480.52 1218.14 480.439C1218.55 480.376 1218.97 480.372 1219.38 480.427V480.427Z" fill="#263238"/>
<path d="M1225.2 473.276C1225.2 473.407 1223.29 473.169 1220.23 473.431C1218.45 473.591 1216.69 473.901 1214.96 474.357C1210.72 475.483 1206.76 477.468 1203.32 480.19C1201.92 481.303 1200.62 482.531 1199.42 483.861C1197.39 486.142 1196.44 487.805 1196.33 487.746C1196.49 487.325 1196.7 486.926 1196.96 486.558C1197.22 486.099 1197.5 485.659 1197.82 485.239C1198.21 484.664 1198.64 484.109 1199.09 483.576C1200.26 482.182 1201.55 480.901 1202.96 479.751C1204.7 478.354 1206.58 477.136 1208.57 476.115C1210.57 475.137 1212.66 474.364 1214.82 473.811C1216.59 473.367 1218.39 473.092 1220.21 472.991C1220.9 472.956 1221.6 472.956 1222.29 472.991C1222.82 472.993 1223.35 473.025 1223.87 473.086C1224.32 473.093 1224.77 473.157 1225.2 473.276V473.276Z" fill="#263238"/>
<g opacity="0.3">
<path d="M1098.49 428.594C1095.7 433.892 1098.03 440.355 1100.58 445.784C1102.56 449.99 1104.77 454.255 1108.38 457.189C1110.16 458.64 1112.21 459.708 1114.42 460.326C1116.63 460.945 1118.94 461.101 1121.21 460.784C1123.48 460.467 1125.66 459.685 1127.61 458.485C1129.57 457.286 1131.25 455.696 1132.56 453.815C1124.99 453.703 1117.63 451.301 1111.44 446.927C1105.26 442.553 1100.54 436.41 1097.92 429.307" fill="black"/>
</g>
<g opacity="0.3">
<path d="M1153.03 426.004C1150.89 431.1 1152.51 438.074 1154.74 443.123C1156.97 448.172 1159.35 453.815 1157.56 459.054C1157.09 459.984 1156.85 461.009 1156.85 462.048C1156.97 463.07 1158.04 464.056 1159.01 463.58C1159.5 463.231 1159.85 462.703 1159.97 462.107C1161.65 457.023 1163.35 451.942 1165.04 446.865" fill="black"/>
</g>
<path d="M1040.64 358.895C1040.84 355.705 1041.23 352.53 1041.83 349.391C1042.24 346.234 1042.84 343.107 1043.65 340.029C1043.47 343.221 1043.07 346.396 1042.46 349.533C1042.06 352.69 1041.46 355.818 1040.64 358.895V358.895Z" fill="#FAFAFA"/>
<path d="M1028.14 356.269C1027.98 356.364 1025.94 353.513 1023.11 350.234C1020.28 346.955 1017.79 344.496 1017.91 344.365C1020.04 345.923 1021.95 347.761 1023.59 349.83C1025.37 351.77 1026.9 353.934 1028.14 356.269V356.269Z" fill="#FAFAFA"/>
<path d="M1038.87 325.666C1038.52 326.431 1038.07 327.15 1037.53 327.804C1036.63 329.075 1035.31 330.774 1033.78 332.556C1032.25 334.338 1030.77 335.942 1029.67 337.035C1029.11 337.67 1028.48 338.229 1027.78 338.698C1027.65 338.579 1030.25 335.764 1033.3 332.152C1036.36 328.541 1038.73 325.511 1038.87 325.666Z" fill="#FAFAFA"/>
<path d="M1034.68 310.709C1034.5 310.781 1033.83 309.272 1032.52 307.763C1031.21 306.254 1029.81 305.387 1029.9 305.209C1031.14 305.565 1032.22 306.321 1032.98 307.359C1033.9 308.263 1034.49 309.438 1034.68 310.709V310.709Z" fill="#FAFAFA"/>
<path d="M1023.85 319.929C1022.88 320.386 1021.83 320.656 1020.76 320.725C1019.72 320.996 1018.64 321.061 1017.57 320.915C1019.58 320.186 1021.71 319.852 1023.85 319.929V319.929Z" fill="#FAFAFA"/>
<path d="M1051.18 333.126C1051.21 331.277 1051.08 329.429 1050.79 327.602C1050.3 325.818 1049.65 324.081 1048.85 322.41C1050.2 323.794 1051.08 325.563 1051.38 327.471C1051.89 329.333 1051.82 331.305 1051.18 333.126V333.126Z" fill="#FAFAFA"/>
<path d="M1065.78 348.833C1063.59 345.335 1060.65 342.368 1057.17 340.148C1059.13 340.911 1060.92 342.078 1062.4 343.574C1063.88 345.07 1065.04 346.862 1065.78 348.833Z" fill="#FAFAFA"/>
<path d="M1042.34 376.085C1038.81 377.41 1034.89 377.278 1031.45 375.717C1031.51 375.539 1033.83 376.287 1036.88 376.37C1039.93 376.453 1042.3 375.907 1042.34 376.085Z" fill="#FAFAFA"/>
<path d="M1053.34 381.728C1053.18 381.656 1054.1 378.924 1054.88 375.455C1055.65 371.986 1055.99 369.111 1056.17 369.135C1056.29 371.308 1056.06 373.487 1055.48 375.586C1055.1 377.735 1054.38 379.809 1053.34 381.728Z" fill="#FAFAFA"/>
<path d="M1077.38 382.644C1075.5 381.056 1073.76 379.307 1072.19 377.417C1070.45 375.667 1068.86 373.775 1067.43 371.762C1069.31 373.358 1071.04 375.111 1072.61 377.001C1074.35 378.751 1075.94 380.638 1077.38 382.644V382.644Z" fill="#FAFAFA"/>
<path d="M1088.57 410.407C1087.14 409.373 1085.84 408.177 1084.7 406.843C1083.41 405.647 1082.26 404.307 1081.27 402.852C1082.7 403.885 1084 405.081 1085.15 406.416C1086.45 407.601 1087.6 408.942 1088.57 410.407V410.407Z" fill="#FAFAFA"/>
<path d="M1067.77 413.056C1066.4 414.51 1064.79 415.716 1063.01 416.62C1061.34 417.734 1059.48 418.538 1057.53 418.996C1057.53 418.83 1059.9 417.808 1062.71 416.133C1065.51 414.458 1067.65 412.913 1067.77 413.056Z" fill="#FAFAFA"/>
<path d="M1077.34 439.464C1077.16 439.464 1077.88 436.304 1078.23 432.396C1078.59 428.487 1078.48 425.268 1078.66 425.268C1079.1 427.619 1079.16 430.024 1078.85 432.396C1078.73 434.818 1078.22 437.205 1077.34 439.464V439.464Z" fill="#FAFAFA"/>
<path d="M1113.35 417.997C1111.39 416.796 1109.65 415.265 1108.21 413.471C1106.62 411.813 1105.33 409.886 1104.42 407.781C1104.57 407.674 1106.2 410.252 1108.67 413.067C1111.14 415.883 1113.47 417.843 1113.35 417.997Z" fill="#FAFAFA"/>
<path d="M1126.5 429.201C1126.36 429.094 1128.16 426.623 1130.18 423.451C1132.2 420.279 1133.69 417.618 1133.84 417.701C1133.07 419.861 1132.01 421.907 1130.69 423.784C1129.55 425.775 1128.14 427.598 1126.5 429.201Z" fill="#FAFAFA"/>
<path d="M1124.58 401.782C1120.52 401.108 1116.54 400.034 1112.7 398.574C1114.74 398.818 1116.77 399.256 1118.73 399.881C1120.74 400.316 1122.7 400.953 1124.58 401.782V401.782Z" fill="#FAFAFA"/>
<path d="M1114.99 450.037C1114.78 448.166 1114.78 446.277 1114.99 444.406C1115.01 442.523 1115.22 440.648 1115.63 438.811C1115.85 440.682 1115.85 442.571 1115.63 444.442C1115.62 446.324 1115.4 448.201 1114.99 450.037V450.037Z" fill="#FAFAFA"/>
<path d="M1123.28 466.564C1123.9 464.645 1124.4 462.689 1124.78 460.707C1124.94 458.696 1124.98 456.676 1124.87 454.66C1125.49 456.637 1125.66 458.724 1125.39 460.776C1125.11 462.827 1124.39 464.794 1123.28 466.54V466.564Z" fill="#FAFAFA"/>
<path d="M1101.79 462.915C1101.19 458.811 1101.99 454.623 1104.07 451.035C1104.24 451.106 1103.15 453.613 1102.53 456.904C1101.91 460.195 1101.97 462.903 1101.79 462.915Z" fill="#FAFAFA"/>
<path d="M1082.19 471.291C1080.25 469.945 1078.39 468.498 1076.6 466.955C1074.7 465.573 1072.86 464.093 1071.1 462.523C1073.24 463.587 1075.24 464.912 1077.04 466.468C1078.94 467.869 1080.67 469.488 1082.19 471.291V471.291Z" fill="#FAFAFA"/>
<path d="M1095.46 447.982C1090.91 450.867 1086.15 453.39 1081.2 455.526C1083.44 453.987 1085.79 452.621 1088.24 451.44C1090.55 450.103 1092.97 448.947 1095.46 447.982V447.982Z" fill="#FAFAFA"/>
<path d="M1136.69 500.29C1136.44 500.373 1136.18 500.436 1135.92 500.48C1135.41 500.575 1134.66 500.766 1133.69 500.896C1130.94 501.317 1128.16 501.496 1125.37 501.431C1118.19 501.326 1111.1 499.699 1104.59 496.656C1098.08 493.613 1092.29 489.223 1087.59 483.777C1084.87 480.642 1082.54 477.187 1080.64 473.489C1079.36 471.011 1078.29 468.423 1077.46 465.755C1077.14 464.817 1076.99 464.068 1076.84 463.569C1076.76 463.314 1076.71 463.051 1076.69 462.785C1076.8 463.026 1076.89 463.276 1076.96 463.534C1077.14 464.021 1077.33 464.722 1077.69 465.684C1079.96 472.196 1083.47 478.21 1088.02 483.397C1092.72 488.718 1098.46 493.023 1104.89 496.048C1111.31 499.073 1118.29 500.755 1125.38 500.991C1128.16 501.094 1130.94 500.983 1133.7 500.659C1134.69 500.564 1135.44 500.409 1135.95 500.362C1136.19 500.31 1136.44 500.286 1136.69 500.29V500.29Z" fill="#263238"/>
<path d="M1101.2 494.137C1100.79 492.251 1100.99 490.286 1101.75 488.517C1102.33 486.677 1103.48 485.068 1105.03 483.92C1103.98 485.439 1103.08 487.054 1102.34 488.743C1101.79 490.502 1101.41 492.308 1101.2 494.137V494.137Z" fill="#FAFAFA"/>
<path d="M1091.42 490.051C1090.29 490.924 1089.26 491.911 1088.33 492.997C1087.56 494.193 1086.91 495.463 1086.38 496.787C1086.42 495.281 1086.93 493.824 1087.83 492.618C1088.73 491.412 1089.99 490.515 1091.42 490.051Z" fill="#FAFAFA"/>
<path d="M1129.02 512.432C1127.08 512.277 1125.2 511.656 1123.54 510.622C1121.89 509.588 1120.51 508.172 1119.52 506.492C1122.1 509.282 1125.38 511.332 1129.02 512.432V512.432Z" fill="#FAFAFA"/>
<path d="M1134.86 479.523C1134.62 481.27 1133.88 482.91 1132.74 484.255C1131.59 485.601 1130.1 486.596 1128.41 487.127C1129.8 486.168 1131.09 485.074 1132.26 483.86C1133.28 482.508 1134.15 481.055 1134.86 479.523V479.523Z" fill="#FAFAFA"/>
<path d="M1151.48 504.056C1151.34 503.937 1152.91 501.953 1154.36 499.22C1155.81 496.488 1156.58 494.076 1156.74 494.136C1156.06 497.914 1154.22 501.385 1151.46 504.056H1151.48Z" fill="#FAFAFA"/>
<path d="M1173.45 507.275C1173.52 507.454 1171.36 508.309 1169.19 510.103C1167.01 511.897 1165.71 513.821 1165.55 513.667C1166.23 512.028 1167.36 510.609 1168.79 509.568C1170.1 508.387 1171.72 507.593 1173.45 507.275V507.275Z" fill="#FAFAFA"/>
<path d="M1156.7 479.156C1156.51 479.215 1155.51 475.746 1153.29 471.897C1151.07 468.048 1148.69 465.34 1148.85 465.221C1149.5 465.68 1150.07 466.242 1150.55 466.884C1153.05 469.805 1154.95 473.187 1156.15 476.839C1156.45 477.579 1156.64 478.36 1156.7 479.156Z" fill="#FAFAFA"/>
<path d="M1159.98 443.789C1156.28 445.066 1152.46 445.946 1148.57 446.415C1152.27 445.141 1156.1 444.261 1159.98 443.789V443.789Z" fill="#FAFAFA"/>
<path d="M1149.87 433.216C1148.51 431.955 1147.29 430.553 1146.23 429.034C1145.02 427.635 1143.97 426.11 1143.09 424.484C1144.46 425.729 1145.68 427.128 1146.72 428.654C1147.94 430.049 1149 431.58 1149.87 433.216V433.216Z" fill="#FAFAFA"/>
<path d="M1174.96 426.872C1171.11 426.776 1167.32 425.878 1163.84 424.234C1165.72 424.556 1167.58 424.988 1169.41 425.529C1171.29 425.864 1173.14 426.312 1174.96 426.872V426.872Z" fill="#FAFAFA"/>
<path d="M1192.78 426.552C1193.29 424.872 1193.9 423.222 1194.6 421.61C1195.1 419.922 1195.71 418.268 1196.42 416.656C1196.32 418.434 1195.92 420.182 1195.23 421.824C1194.7 423.532 1193.87 425.133 1192.78 426.552Z" fill="#FAFAFA"/>
<path d="M1188.72 450.691C1185.03 449.868 1181.7 447.896 1179.21 445.059C1179.33 444.917 1181.21 446.556 1183.81 448.089C1186.41 449.621 1188.78 450.512 1188.72 450.691Z" fill="#FAFAFA"/>
<path d="M1200.29 449.955C1200.53 447.571 1200.96 445.21 1201.59 442.898C1202.02 440.549 1202.65 438.24 1203.47 435.996C1202.8 440.737 1201.73 445.412 1200.25 449.967L1200.29 449.955Z" fill="#FAFAFA"/>
<path d="M1190.63 476.946C1187.66 473.59 1185.02 469.967 1182.72 466.123C1184.27 467.735 1185.68 469.484 1186.92 471.35C1188.33 473.097 1189.57 474.97 1190.63 476.946V476.946Z" fill="#FAFAFA"/>
<path d="M1207.12 466.623C1206.95 466.706 1205.87 464.555 1204.16 462.156C1202.45 459.756 1200.8 458.01 1200.93 457.879C1202.42 458.926 1203.7 460.258 1204.67 461.799C1205.81 463.224 1206.64 464.865 1207.12 466.623V466.623Z" fill="#FAFAFA"/>
<path d="M1222.59 464.305C1221.23 462.714 1219.96 461.053 1218.79 459.327C1217.43 457.737 1216.17 456.08 1214.98 454.361C1218.14 457.146 1220.73 460.525 1222.59 464.305V464.305Z" fill="#FAFAFA"/>
<path d="M1218.92 474.558C1218.7 473.131 1218.22 471.757 1217.5 470.507C1216.63 469.354 1215.56 468.371 1214.33 467.609C1214.33 467.537 1214.88 467.609 1215.62 467.977C1216.59 468.491 1217.41 469.244 1218 470.163C1218.61 471.079 1218.97 472.134 1219.06 473.228C1219.18 474.012 1219.02 474.558 1218.92 474.558Z" fill="#FAFAFA"/>
<path d="M1206.89 488.612C1206.8 488.612 1206.83 488.292 1206.74 487.876C1206.63 487.341 1206.34 486.86 1205.92 486.51C1205.48 486.185 1204.94 486.022 1204.4 486.046C1203.97 486.046 1203.7 486.153 1203.65 486.046C1203.6 485.939 1203.83 485.726 1204.34 485.583C1204.67 485.495 1205.03 485.486 1205.37 485.557C1205.71 485.627 1206.03 485.775 1206.3 485.988C1206.57 486.202 1206.79 486.476 1206.94 486.789C1207.09 487.102 1207.17 487.446 1207.17 487.793C1207.15 488.363 1206.96 488.636 1206.89 488.612Z" fill="#FAFAFA"/>
<path d="M1083.29 511.078C1081.08 510.223 1079.06 508.915 1077.37 507.238C1075.69 505.56 1074.37 503.551 1073.5 501.336C1075.93 505.343 1079.29 508.702 1083.29 511.125V511.078Z" fill="#FAFAFA"/>
<path d="M1007.68 216.216C1005.76 198.146 1002.31 181.146 1001.37 163.433C1001.41 162.989 1001.35 162.542 1001.2 162.12C1001.06 161.699 1000.83 161.312 1000.53 160.986C1000.27 160.834 999.98 160.737 999.683 160.7C999.385 160.664 999.084 160.687 998.796 160.771C998.508 160.854 998.24 160.995 998.008 161.185C997.777 161.375 997.586 161.611 997.448 161.877C996.93 162.988 996.725 164.221 996.854 165.441C996.875 174.86 995.267 184.213 992.102 193.085C990.071 198.847 987.35 204.371 985.83 210.276C984.309 216.18 987.172 218.188 989.833 223.688" fill="#FFBE9D"/>
<path d="M989.869 223.666C987.516 221.861 985.691 219.456 984.585 216.703C983.479 213.951 983.134 210.952 983.585 208.02C984.191 204.456 985.961 201.225 987.363 197.898C988.765 194.572 989.846 190.877 988.99 187.372C988.517 186.072 988.198 184.72 988.04 183.345C988.04 181.967 988.931 180.423 990.309 180.363C990.83 180.405 991.334 180.568 991.781 180.838C992.229 181.108 992.607 181.478 992.887 181.92C995.203 184.783 997.057 193.146 995.892 199.395" fill="#FFBE9D"/>
<path d="M995.893 199.394C995.893 199.394 996.011 198.432 996.083 196.697C996.157 194.251 995.954 191.804 995.477 189.403C995.157 187.749 994.679 186.13 994.051 184.568C993.721 183.718 993.273 182.918 992.721 182.192C992.473 181.802 992.148 181.467 991.766 181.208C991.384 180.948 990.953 180.77 990.499 180.683C990.032 180.705 989.585 180.88 989.227 181.18C988.868 181.481 988.618 181.89 988.515 182.346C988.26 183.359 988.327 184.426 988.705 185.399C989.105 186.486 989.383 187.614 989.537 188.761C989.652 189.95 989.608 191.149 989.406 192.325C988.575 197.149 986.008 201.045 984.654 204.906C983.987 206.71 983.629 208.614 983.597 210.537C983.59 212.213 983.838 213.879 984.333 215.48C985.053 217.815 986.269 219.966 987.897 221.788C989.085 223.059 989.858 223.617 989.822 223.677C989.61 223.569 989.41 223.438 989.228 223.285C988.692 222.876 988.187 222.428 987.719 221.942C985.983 220.151 984.682 217.985 983.918 215.61C983.376 213.973 983.095 212.262 983.086 210.537C983.096 208.552 983.446 206.584 984.119 204.716C985.426 200.772 987.957 196.875 988.741 192.23C988.944 191.102 988.988 189.95 988.871 188.809C988.729 187.694 988.462 186.598 988.076 185.542C987.665 184.451 987.607 183.258 987.909 182.132C988.086 181.57 988.41 181.066 988.848 180.671C989.067 180.467 989.325 180.31 989.607 180.21C989.889 180.11 990.189 180.069 990.487 180.089C991.031 180.161 991.554 180.348 992.021 180.636C992.488 180.925 992.888 181.309 993.196 181.764C993.773 182.55 994.237 183.414 994.574 184.33C995.202 185.926 995.664 187.582 995.952 189.272C996.402 191.708 996.542 194.191 996.368 196.662C996.326 197.332 996.239 197.999 996.106 198.657C996.071 198.912 995.999 199.16 995.893 199.394V199.394Z" fill="#EB996E"/>
<path d="M1151.2 295.871C1151.59 297.57 1152.51 299.102 1153.83 300.242C1155.14 301.383 1156.79 302.074 1158.53 302.215C1160.27 302.3 1162.01 301.941 1163.57 301.173C1165.14 300.404 1166.48 299.25 1167.48 297.819C1169.45 294.91 1170.24 291.36 1169.7 287.887C1169.02 282.886 1165.69 278.075 1160.87 276.59C1156.05 275.105 1150.05 277.778 1148.72 282.625L1143.16 290.382L1151.2 295.871Z" fill="#263238"/>
<path d="M1144.63 280.629C1145.17 276.33 1144.84 271.966 1143.66 267.797C1142.48 263.628 1140.48 259.738 1137.76 256.359C1135.05 252.979 1131.69 250.179 1127.88 248.123C1124.06 246.068 1119.87 244.8 1115.56 244.395C1098.32 242.756 1082.98 255.598 1080.41 272.729C1078.14 287.745 1076.19 302.904 1076.26 308.369C1076.47 325.001 1086.18 331.44 1090.12 333.317C1091.54 333.827 1093.01 334.19 1094.5 334.398C1094.51 334.401 1094.52 334.406 1094.54 334.415C1094.55 334.423 1094.56 334.433 1094.57 334.445C1094.57 334.458 1094.58 334.471 1094.58 334.486C1094.58 334.5 1094.58 334.515 1094.58 334.529L1090.9 353.537C1089.22 366.022 1096.2 377.166 1108.66 378.984C1121.12 380.801 1130.94 371.214 1132.86 358.716L1144.63 280.629Z" fill="#FFBE9D"/>
<path d="M1083.27 282.434C1083.54 282.826 1085.73 281.65 1088.55 282.066C1091.36 282.482 1093.2 284.193 1093.56 283.884C1093.74 283.753 1093.49 283.1 1092.69 282.316C1091.6 281.294 1090.22 280.634 1088.74 280.427C1087.27 280.214 1085.78 280.468 1084.47 281.151C1083.48 281.686 1083.13 282.256 1083.27 282.434Z" fill="#263238"/>
<path d="M1108.27 287.853C1108.54 288.245 1110.74 287.069 1113.54 287.484C1116.34 287.9 1118.21 289.611 1118.57 289.302C1118.73 289.171 1118.49 288.518 1117.69 287.722C1116.6 286.706 1115.22 286.051 1113.74 285.845C1112.28 285.632 1110.79 285.885 1109.48 286.57C1108.51 287.104 1108.13 287.675 1108.27 287.853Z" fill="#263238"/>
<path d="M1098.55 301.133C1097.13 300.456 1095.64 299.957 1094.1 299.648C1093.39 299.47 1092.74 299.22 1092.69 298.722C1092.74 297.973 1093.01 297.256 1093.47 296.666L1096.4 291.51C1100.47 284.157 1103.53 278.074 1103.24 277.908C1102.96 277.741 1099.39 283.575 1095.32 290.976L1092.48 296.167C1091.91 296.974 1091.63 297.95 1091.69 298.935C1091.77 299.197 1091.9 299.439 1092.08 299.644C1092.26 299.849 1092.48 300.013 1092.73 300.123C1093.11 300.286 1093.51 300.401 1093.91 300.468C1095.42 300.885 1096.98 301.108 1098.55 301.133V301.133Z" fill="#263238"/>
<path d="M1094.6 334.517C1094.6 334.517 1105.3 336.988 1120.09 330.811C1120.09 330.811 1113.72 344.532 1093.62 339.649L1094.6 334.517Z" fill="#EB996E"/>
<path d="M1098.75 308.082C1099.38 307.503 1100.14 307.091 1100.97 306.883C1101.8 306.676 1102.67 306.68 1103.5 306.894C1104.11 307.045 1104.69 307.316 1105.19 307.692C1105.7 308.067 1106.13 308.539 1106.45 309.08C1106.76 309.602 1106.9 310.207 1106.85 310.811C1106.8 311.415 1106.56 311.989 1106.17 312.454C1105.65 312.896 1105.01 313.17 1104.33 313.24C1103.65 313.309 1102.96 313.172 1102.36 312.846C1101.1 312.189 1099.98 311.284 1099.08 310.185C1098.79 309.917 1098.56 309.594 1098.39 309.235C1098.31 309.064 1098.28 308.873 1098.31 308.686C1098.34 308.499 1098.43 308.326 1098.56 308.189" fill="#EB996E"/>
<path d="M1106.53 304.281C1106.08 304.186 1105.63 307.24 1102.71 309.033C1099.78 310.827 1096.58 310.008 1096.49 310.435C1096.42 310.625 1097.13 311.136 1098.5 311.374C1100.28 311.656 1102.11 311.303 1103.66 310.376C1105.14 309.482 1106.22 308.047 1106.67 306.372C1106.97 305.101 1106.74 304.293 1106.53 304.281Z" fill="#263238"/>
<path d="M1110.2 278.704C1110.37 279.512 1113.23 279.559 1116.46 280.438C1119.69 281.317 1122.25 282.6 1122.78 281.983C1123.02 281.686 1122.66 280.902 1121.7 279.999C1120.4 278.883 1118.86 278.078 1117.2 277.646C1115.53 277.214 1113.8 277.165 1112.11 277.504C1110.81 277.813 1110.14 278.324 1110.2 278.704Z" fill="#263238"/>
<path d="M1086.11 273.773C1086.5 274.486 1088.54 274.106 1090.86 274.415C1093.18 274.723 1095.1 275.46 1095.61 274.866C1095.86 274.569 1095.61 273.88 1094.86 273.155C1093.81 272.26 1092.52 271.698 1091.15 271.541C1089.78 271.384 1088.39 271.64 1087.17 272.276C1086.3 272.811 1085.93 273.428 1086.11 273.773Z" fill="#263238"/>
<path d="M1077.15 269.011C1080.59 274.25 1091.49 271.007 1098.07 267.407C1101.51 269.6 1105.67 270.365 1109.66 269.54C1113.66 268.715 1117.17 266.364 1119.46 262.988C1123.22 267.74 1130.88 266.195 1133.71 260.79C1136.54 255.384 1134.9 247.936 1131.1 243.207C1127.3 238.479 1121.67 236.079 1116.13 235.07C1103 232.694 1088.71 237.731 1080.86 249.599C1077.23 255.076 1075.06 262.453 1077.21 269.011" fill="#263238"/>
<path d="M1113.43 236.934C1113.43 237.171 1110.33 236.577 1105.46 237.385C1099.13 238.438 1093.34 241.559 1088.97 246.26C1084.87 251.181 1082.15 257.113 1081.11 263.438C1080.75 266.075 1080.61 268.737 1080.69 271.398C1080.44 270.711 1080.29 269.99 1080.25 269.259C1080.04 267.283 1080.08 265.288 1080.35 263.319C1081.21 256.749 1083.94 250.564 1088.21 245.499C1092.73 240.608 1098.81 237.452 1105.41 236.577C1107.38 236.312 1109.38 236.281 1111.35 236.482C1112.07 236.526 1112.77 236.678 1113.43 236.934V236.934Z" fill="#455A64"/>
<path d="M1095.68 261.36C1095.49 260.759 1095.4 260.127 1095.42 259.495C1095.36 257.772 1095.54 256.048 1095.96 254.375C1096.59 251.568 1097.8 248.922 1099.49 246.598C1101.19 244.274 1103.34 242.322 1105.82 240.862C1108.3 239.402 1111.06 238.464 1113.91 238.108C1116.77 237.751 1119.66 237.983 1122.43 238.788C1124.09 239.245 1125.69 239.925 1127.18 240.808C1127.75 241.106 1128.26 241.509 1128.69 241.996C1126.62 241.015 1124.46 240.22 1122.25 239.62C1116.87 238.249 1111.16 239.061 1106.38 241.878C1101.59 244.696 1098.12 249.29 1096.71 254.66C1095.54 258.628 1095.91 261.36 1095.68 261.36Z" fill="#455A64"/>
<path d="M1127.18 255.657C1125.89 260.307 1125.15 265.092 1124.97 269.913C1124.79 274.762 1126.3 279.522 1129.23 283.385C1133.82 288.909 1141.47 290.596 1148.53 291.939C1152.3 282.522 1153.44 272.254 1151.82 262.239C1151.01 257.38 1149.44 252.426 1146.02 248.886C1143.48 246.376 1140.17 244.782 1136.63 244.352C1133.08 243.922 1129.49 244.681 1126.42 246.51" fill="#263238"/>
<path d="M1131.1 278.656C1129.25 282.672 1129.38 287.317 1130.02 291.724C1130.66 296.132 1131.78 300.444 1131.73 304.864C1131.68 309.283 1130.28 313.975 1126.81 316.744C1125.76 317.445 1124.77 318.24 1123.86 319.12C1123.42 319.566 1123.12 320.14 1123.01 320.762C1122.89 321.385 1122.98 322.027 1123.25 322.6C1123.91 323.67 1125.92 323.646 1126.2 322.422L1126.03 322.731C1125.85 323.027 1125.76 323.364 1125.75 323.708C1125.75 324.051 1125.84 324.39 1126 324.69C1126.17 324.99 1126.42 325.24 1126.71 325.415C1127.01 325.59 1127.35 325.685 1127.69 325.689C1128.9 325.631 1130.09 325.325 1131.18 324.79C1132.27 324.254 1133.24 323.501 1134.03 322.577C1136.3 319.951 1137.21 316.423 1137.8 313.073C1139.63 302.583 1139.27 291.689 1142.17 281.46" fill="#263238"/>
<path d="M1090.81 347.55C1091.63 351.123 1093.21 354.479 1095.44 357.389C1097.67 360.299 1100.5 362.695 1103.74 364.415C1106.97 366.135 1110.54 367.137 1114.2 367.356C1117.86 367.574 1121.53 367.002 1124.94 365.679C1131.1 363.303 1136.06 358.67 1140.85 354.143C1141.71 359.296 1141.47 364.571 1140.16 369.627C1138.85 374.683 1136.49 379.406 1133.23 383.49C1129.97 387.574 1125.89 390.928 1121.26 393.334C1116.62 395.741 1111.53 397.146 1106.32 397.458C1098.44 397.933 1089.98 395.533 1085.03 389.391C1081.57 385.114 1080.18 379.448 1080.28 373.947C1080.52 368.438 1081.56 362.994 1083.39 357.79C1084.79 353.3 1087.01 348.286 1091.55 347.039" fill="#FF725E"/>
<path d="M1147.17 292.248C1151.92 294.802 1154.47 300.148 1155.38 305.423C1156.3 310.698 1155.83 316.115 1156.06 321.449C1156.28 326.783 1157.31 332.391 1160.69 336.537C1164.26 340.956 1169.9 343.047 1174.95 345.744C1186.02 351.684 1195.14 361.817 1198.47 373.959C1201.8 386.1 1198.78 400.095 1189.69 408.826C1181.37 416.739 1169.38 419.518 1157.92 419.518C1149.76 419.518 1140.79 417.76 1135.7 411.381C1130.6 405.001 1130.94 396.055 1132.73 388.191C1134.51 380.326 1137.78 372.688 1137.91 364.621C1136.69 369.615 1134.56 374.342 1131.63 378.568C1130.79 379.756 1129.35 381.063 1128.07 380.374C1126.79 379.685 1127.18 377.463 1127.84 375.978C1137.68 354.083 1134.26 309.949 1140.09 285.773" fill="#263238"/>
<path d="M1139.07 289.766C1139.37 289.671 1150.86 287.497 1149.37 298.854C1147.89 310.211 1136.8 306.386 1136.83 306.065C1136.85 305.744 1139.07 289.766 1139.07 289.766Z" fill="#FFBE9D"/>
<path d="M1140.85 302.214C1140.85 302.214 1141.03 302.369 1141.35 302.571C1141.8 302.832 1142.32 302.913 1142.82 302.796C1144.08 302.511 1145.34 300.729 1145.66 298.698C1145.81 297.725 1145.75 296.732 1145.47 295.787C1145.41 295.418 1145.26 295.069 1145.04 294.771C1144.81 294.473 1144.52 294.234 1144.18 294.076C1143.97 294.001 1143.73 293.998 1143.52 294.069C1143.3 294.14 1143.12 294.281 1142.99 294.469C1142.8 294.766 1142.84 295.003 1142.78 295.015C1142.72 295.027 1142.56 294.789 1142.71 294.338C1142.81 294.064 1143 293.833 1143.25 293.684C1143.43 293.578 1143.63 293.51 1143.83 293.483C1144.03 293.457 1144.24 293.473 1144.44 293.53C1144.9 293.684 1145.3 293.951 1145.63 294.306C1145.95 294.662 1146.17 295.094 1146.28 295.561C1146.63 296.609 1146.73 297.725 1146.56 298.817C1146.19 301.098 1144.74 303.082 1142.99 303.343C1142.67 303.394 1142.35 303.372 1142.04 303.279C1141.74 303.187 1141.46 303.026 1141.22 302.808C1140.84 302.488 1140.82 302.226 1140.85 302.214Z" fill="#EB996E"/>
<path d="M1079.08 372.021C1079.63 370.809 1080.28 369.637 1081 368.516C1082.66 365.776 1084.03 362.874 1085.1 359.856C1086.14 356.835 1086.49 353.62 1086.12 350.447C1085.89 349.145 1085.59 347.856 1085.22 346.586C1085.44 346.875 1085.61 347.201 1085.73 347.548C1086.12 348.459 1086.4 349.412 1086.56 350.388C1087.06 353.63 1086.76 356.945 1085.69 360.046C1084.62 363.109 1083.17 366.03 1081.38 368.742C1080.72 369.788 1080.19 370.619 1079.75 371.178C1079.31 371.736 1079.11 372.045 1079.08 372.021Z" fill="#263238"/>
<path d="M1084.86 358.918C1084.7 358.918 1084.37 357.944 1083.35 357.266C1082.33 356.589 1081.31 356.589 1081.29 356.411C1081.26 356.233 1081.54 356.209 1082 356.197C1082.61 356.203 1083.21 356.398 1083.71 356.756C1084.21 357.107 1084.6 357.599 1084.83 358.169C1084.98 358.609 1084.94 358.894 1084.86 358.918Z" fill="#FAFAFA"/>
<path d="M1092.2 358.894C1091.31 357.894 1090.34 356.975 1089.28 356.15C1088.11 355.495 1086.88 354.962 1085.6 354.558C1086.31 354.46 1087.03 354.506 1087.72 354.691C1088.41 354.877 1089.05 355.199 1089.61 355.639C1090.87 356.344 1091.8 357.513 1092.2 358.894V358.894Z" fill="#FAFAFA"/>
<path d="M1096.81 382.999C1096.84 381.361 1097.07 379.733 1097.5 378.152C1097.73 376.52 1098.17 374.923 1098.8 373.4C1098.77 375.042 1098.54 376.675 1098.11 378.259C1097.88 379.888 1097.44 381.48 1096.81 382.999V382.999Z" fill="#FAFAFA"/>
<path d="M1115.35 386.635C1115.05 383.225 1115.16 379.791 1115.67 376.406C1115.98 379.816 1115.87 383.251 1115.35 386.635Z" fill="#FAFAFA"/>
<path d="M736.957 439.43L718.638 519.204L757.378 519.323L775.27 449.171L736.957 439.43Z" fill="#B78876"/>
<path d="M927.203 341.42C923.52 336.49 919.291 331.75 917.354 325.905C916.416 323.077 916.047 320.084 915.049 317.28C914.052 314.476 912.234 311.744 909.454 310.687C906.674 309.629 904.559 310.687 902.754 312.683L889.46 351.566L897.123 381.432C904.773 379.709 914.349 377.666 921.5 374.447C928.652 371.227 933.38 366.071 933.879 358.242C934.224 352.1 930.886 346.362 927.203 341.42Z" fill="#263238"/>
<path d="M806.229 334.553C806.229 334.553 760.015 354.666 754.242 363.743C748.468 372.819 729.46 437.529 729.46 437.529L778.168 451.785L777.336 519.157H896.73L895.744 400.357L880.776 334.708C880.776 334.708 854.414 333.009 851.967 331.809C849.519 330.609 806.229 334.553 806.229 334.553Z" fill="#3450A1"/>
<path d="M970.458 169.886C970.838 167.165 968.925 164.172 970.303 161.784C971.215 160.553 972.518 159.669 973.998 159.277C974.715 158.949 975.491 158.767 976.279 158.742C976.672 158.736 977.058 158.845 977.39 159.057C977.721 159.268 977.984 159.572 978.144 159.93C978.23 160.385 978.19 160.854 978.029 161.287C977.867 161.72 977.591 162.102 977.229 162.39C976.506 162.958 975.897 163.66 975.436 164.457C975.113 166.412 975.264 168.416 975.875 170.302C977.458 174.45 978.771 178.696 979.807 183.013" fill="#B78876"/>
<path d="M960.704 170.811C960.87 166.688 964.268 150.449 964.387 146.326C967.179 147.182 968.794 150.152 969.317 153.026C969.84 155.901 969.567 158.86 970.066 161.735C970.731 165.596 972.739 169.076 974.758 172.427C976.778 175.777 978.892 179.186 979.807 182.988C980.722 186.789 984.167 196.674 981.482 199.525" fill="#B78876"/>
<path d="M959.933 198.609L943.408 277.112C942.826 280.676 880.776 334.79 880.776 334.79L893.025 383.724L973.809 304.686C979.642 298.45 982.816 290.188 982.659 281.651L981.281 207.995L959.933 198.609Z" fill="#B78876"/>
<path d="M957.105 171.31L959.932 198.634L981.316 208.043C981.316 208.043 981.578 206.107 982.504 196.638C983.514 186.208 972.299 181.729 967.298 174.066C965.159 170.776 965.718 164.717 964.067 157.209C963.876 156.341 962.688 151.091 962.047 148.275C961.709 146.71 960.793 145.331 959.481 144.414C958.507 143.772 957.414 143.452 956.618 144.414C955.822 145.376 957.105 171.31 957.105 171.31Z" fill="#B78876"/>
<path d="M970.458 203.148C972.834 201.093 973.404 197.41 972.513 194.357C971.423 191.35 969.701 188.612 967.464 186.326C965.231 184.045 963.353 181.442 961.893 178.604C960.99 176.56 960.562 174.303 959.517 172.296C958.471 170.288 956.701 168.446 954.468 168.363C956.262 179.661 956.214 186.183 959.885 198.562" fill="#B78876"/>
<path d="M956.69 181.266C956.69 181.266 956.606 180.957 956.476 180.363C956.345 179.769 956.119 178.783 955.906 177.773C955.395 175.397 954.718 172.368 954.017 168.887L953.945 168.554H954.29C955.021 168.528 955.75 168.646 956.436 168.903C957.121 169.16 957.748 169.55 958.282 170.051C959.913 171.604 961.074 173.584 961.632 175.766C962.106 177.461 962.73 179.111 963.497 180.696C964.078 181.737 964.78 182.706 965.588 183.583C965.882 183.92 966.123 184.3 966.301 184.711C965.975 184.41 965.673 184.084 965.398 183.737C964.513 182.902 963.746 181.951 963.117 180.91C962.277 179.32 961.593 177.653 961.073 175.932C960.521 173.859 959.411 171.978 957.866 170.491C956.902 169.587 955.623 169.096 954.302 169.125L954.587 168.768C956.024 175.92 956.951 181.278 956.69 181.266Z" fill="#7C5142"/>
<path d="M966.3 174.316C965.438 170.64 964.78 166.92 964.328 163.172C963.668 159.454 963.212 155.702 962.962 151.934C963.83 155.612 964.489 159.336 964.934 163.089C965.594 166.803 966.05 170.551 966.3 174.316V174.316Z" fill="#7C5142"/>
<path d="M973.107 175.241C973.107 175.241 973.19 175.36 973.261 175.657H973.083C972.2 173.116 971.478 170.521 970.921 167.888C970.41 165.595 970.042 163.504 969.816 161.948C969.633 161.134 969.561 160.298 969.602 159.465C969.78 159.465 970.505 163.16 971.527 167.781C972.347 171.476 973.107 174.588 973.261 175.634H973.083C973.071 175.384 973.071 175.241 973.107 175.241Z" fill="#7C5142"/>
<path d="M977.325 190.295C977.23 190.295 976.802 189.677 975.947 188.763C973.687 186.362 970.619 184.881 967.334 184.605C966.646 184.611 965.959 184.567 965.278 184.474C965.936 184.219 966.642 184.113 967.345 184.165C969.058 184.187 970.744 184.584 972.286 185.329C973.828 186.074 975.187 187.149 976.267 188.478C976.754 188.995 977.115 189.617 977.325 190.295V190.295Z" fill="#7C5142"/>
<path d="M961.869 200.773C961.281 199.75 960.807 198.667 960.455 197.541C959.478 194.876 958.661 192.154 958.008 189.392C957.343 186.652 956.843 183.875 956.511 181.076C956.316 179.898 956.245 178.704 956.297 177.512C956.595 178.647 956.809 179.802 956.938 180.969C957.295 183.095 957.841 186.042 958.602 189.285C959.362 192.528 960.217 195.367 960.871 197.434C961.28 198.523 961.614 199.638 961.869 200.773V200.773Z" fill="#7C5142"/>
<path d="M866.271 336.204C867.329 334.583 868.971 333.432 870.856 332.989C872.74 332.547 874.723 332.847 876.392 333.828C885.112 326.7 894.034 319.786 902.754 312.693C899.903 326.949 898.002 346.825 904.382 359.869C904.382 359.869 912.424 374.814 925.231 372.533L913.802 383.724L895.78 400.439" fill="#3450A1"/>
<path d="M863.443 342.857C863.457 340.944 864.04 339.079 865.118 337.499C866.029 335.812 867.418 334.432 869.11 333.531C866.426 336.081 864.47 339.3 863.443 342.857Z" fill="#263238"/>
<path d="M872.864 351.648C872.369 350.856 872.03 349.977 871.866 349.058C871.353 346.855 871.292 344.57 871.686 342.343C872.08 340.115 872.921 337.991 874.159 336.097C874.63 335.287 875.251 334.573 875.988 333.994C876.071 334.065 875.382 334.873 874.539 336.37C873.441 338.264 872.682 340.334 872.293 342.488C871.921 344.646 871.921 346.852 872.293 349.01C872.59 350.555 872.959 351.553 872.864 351.648Z" fill="#263238"/>
<path d="M916.511 382.157C915.634 382.702 914.676 383.103 913.672 383.345C910.927 384.007 908.056 383.92 905.356 383.095C901.357 381.825 897.858 379.332 895.353 375.967C892.343 371.841 890.312 367.083 889.413 362.056C887.735 353.002 887.256 343.768 887.987 334.589C888.26 331.025 888.652 328.245 888.985 326.273C889.139 325.299 889.282 324.551 889.389 324.04C889.426 323.777 889.49 323.518 889.579 323.268C889.587 323.535 889.563 323.802 889.508 324.064L889.223 326.309C888.973 328.257 888.641 331.061 888.427 334.625C887.819 343.764 888.354 352.943 890.019 361.949C890.908 366.847 892.876 371.485 895.78 375.528C898.183 378.858 901.569 381.351 905.463 382.656C908.092 383.503 910.895 383.654 913.6 383.095C914.591 382.848 915.563 382.534 916.511 382.157V382.157Z" fill="#3450A1"/>
<path d="M778.394 471.838C778.228 471.838 778.085 454.945 778.085 434.119C778.085 413.294 778.228 396.4 778.394 396.4C778.56 396.4 778.703 413.282 778.703 434.119C778.703 454.957 778.572 471.838 778.394 471.838Z" fill="#263238"/>
<path d="M777.443 383.368C777.313 383.368 777.348 381.681 776.766 379.056C776.419 377.522 775.922 376.026 775.281 374.589C774.483 372.841 773.499 371.185 772.347 369.647C771.162 368.131 769.82 366.745 768.343 365.513C767.127 364.519 765.818 363.643 764.435 362.899C762.059 361.652 760.407 361.236 760.443 361.117C760.848 361.138 761.249 361.218 761.631 361.355C762.081 361.467 762.522 361.614 762.95 361.794C763.532 361.995 764.1 362.237 764.648 362.519C766.076 363.218 767.422 364.07 768.664 365.061C770.189 366.307 771.572 367.717 772.786 369.267C773.972 370.844 774.969 372.554 775.756 374.363C776.403 375.842 776.885 377.388 777.194 378.973C777.316 379.577 777.399 380.188 777.443 380.802C777.499 381.263 777.523 381.728 777.515 382.192C777.536 382.586 777.512 382.98 777.443 383.368V383.368Z" fill="#263238"/>
<path d="M858.81 334.031C858.908 334.361 858.976 334.699 859.012 335.041C859.172 336.004 859.275 336.976 859.321 337.952C859.463 341.556 858.96 345.157 857.836 348.584C856.162 353.696 853.195 358.287 849.223 361.914C844.241 366.267 837.984 368.893 831.387 369.398C824.791 369.903 818.207 368.261 812.62 364.717C808.154 361.729 804.537 357.636 802.118 352.837C800.499 349.616 799.465 346.132 799.065 342.549C798.969 341.578 798.925 340.603 798.935 339.627C798.906 339.287 798.906 338.945 798.935 338.605C798.99 338.939 799.018 339.277 799.018 339.615C799.048 340.584 799.127 341.552 799.255 342.514C799.742 346.045 800.827 349.468 802.463 352.635C804.887 357.337 808.473 361.341 812.882 364.266C818.367 367.715 824.815 369.315 831.276 368.829C837.738 368.344 843.874 365.799 848.783 361.569C852.712 358.017 855.665 353.518 857.36 348.501C858.499 345.122 859.061 341.576 859.024 338.011C859.024 336.752 858.917 335.778 858.822 335.112C858.727 334.447 858.798 334.043 858.81 334.031Z" fill="#263238"/>
<path d="M777.373 437.101C777.373 437.267 767.501 434.166 755.454 430.186C743.408 426.207 733.678 422.845 733.738 422.678C733.797 422.512 743.598 425.613 755.656 429.592C767.714 433.572 777.42 436.934 777.373 437.101Z" fill="#3450A1"/>
<path d="M894.592 420.612C894.592 420.79 868.397 421.039 836.083 421.17C803.77 421.301 777.562 421.277 777.562 421.17C777.562 421.063 803.758 420.742 836.083 420.612C868.409 420.481 894.592 420.445 894.592 420.612Z" fill="#455A64"/>
<path d="M895.186 430.959C895.186 431.126 868.848 431.268 836.38 431.268C803.912 431.268 777.562 431.126 777.562 430.959C777.562 430.793 803.889 430.65 836.38 430.65C868.872 430.65 895.186 430.781 895.186 430.959Z" fill="#455A64"/>
<path d="M879.054 443.529C878.973 443.86 878.862 444.182 878.721 444.492C878.46 445.157 878.103 446.06 877.664 447.2L876.88 449.149C876.571 449.861 876.202 450.61 875.822 451.429C875.038 453.045 874.23 454.922 873.102 456.894L871.391 460.007C870.797 461.088 870.084 462.157 869.395 463.298C868.041 465.59 866.378 467.895 864.643 470.354C860.786 475.58 856.536 480.505 851.932 485.086C847.262 489.603 842.253 493.757 836.951 497.512C834.456 499.175 832.116 500.803 829.823 502.11C828.635 502.775 827.59 503.464 826.497 504.046L823.313 505.685C821.329 506.767 819.428 507.551 817.8 508.299C816.981 508.655 816.22 509.012 815.508 509.309L813.535 510.057L810.815 511.067C810.501 511.202 810.175 511.305 809.841 511.376C810.137 511.208 810.447 511.065 810.767 510.948L813.452 509.832L815.389 509.036C816.102 508.727 816.85 508.358 817.658 507.978C819.274 507.206 821.151 506.398 823.111 505.293L826.235 503.63C827.316 503.036 828.397 502.335 829.538 501.67C831.831 500.351 834.147 498.712 836.666 497.049C847.248 489.582 856.555 480.455 864.227 470.022C865.95 467.586 867.625 465.27 868.979 463.024C869.68 461.896 870.405 460.838 871.011 459.769L872.734 456.68C873.922 454.744 874.717 452.879 875.525 451.275C875.917 450.467 876.309 449.731 876.63 449.03C876.951 448.329 877.212 447.687 877.462 447.105C877.949 445.988 878.341 445.109 878.65 444.444C878.769 444.132 878.904 443.827 879.054 443.529Z" fill="#263238"/>
<g opacity="0.3">
<path d="M874.23 453.816C866.247 463.534 857.883 470.579 846.158 475.117C840.539 477.279 834.658 478.764 829.217 481.342C823.776 483.92 818.644 487.805 816.149 493.306C814.26 497.559 815.175 503.998 819.713 504.924C821.476 505.14 823.264 504.865 824.881 504.128C848.106 495.705 863.372 474.428 874.159 453.816" fill="black"/>
</g>
<path d="M791.153 242.447C786.14 246.38 785.807 253.733 786.057 260.101C786.306 266.469 786.378 273.715 781.732 278.111C777.931 281.734 771.278 283.077 770.185 288.221C769.908 289.433 770.019 290.701 770.501 291.847C770.984 292.993 771.813 293.958 772.873 294.608C773.933 295.257 775.17 295.558 776.41 295.467C777.65 295.376 778.83 294.898 779.784 294.101C778.168 298.129 778.905 303.285 782.338 305.981C785.772 308.678 791.771 307.395 793.03 303.261C792.836 303.945 792.782 304.661 792.872 305.367C792.963 306.072 793.196 306.752 793.557 307.364C793.918 307.977 794.4 308.51 794.973 308.931C795.546 309.352 796.199 309.652 796.891 309.813C797.584 309.974 798.302 309.993 799.002 309.868C799.702 309.743 800.37 309.477 800.964 309.087C801.558 308.696 802.067 308.189 802.46 307.596C802.852 307.003 803.12 306.337 803.247 305.637" fill="#263238"/>
<path d="M863.906 288.554C864.145 289.388 864.553 290.165 865.105 290.835C865.656 291.505 866.34 292.054 867.113 292.449C867.886 292.844 868.732 293.076 869.598 293.13C870.464 293.184 871.332 293.06 872.149 292.764C872.965 292.469 873.711 292.009 874.342 291.413C874.973 290.816 875.475 290.097 875.816 289.299C876.157 288.501 876.33 287.641 876.325 286.773C876.32 285.905 876.136 285.047 875.786 284.253C874.8 281.782 872.222 279.917 872.163 277.268C872.008 274.06 875.382 271.934 878.34 270.686C881.298 269.439 884.767 267.775 885.231 264.604C885.694 261.432 883.045 258.996 880.835 256.822C878.625 254.648 876.499 251.345 878.055 248.661C878.851 247.294 880.431 246.558 881.453 245.358C883.757 242.697 882.831 238.23 880.17 235.961C877.509 233.692 873.695 233.169 870.214 233.585C866.733 234.001 863.407 235.307 859.997 236.151C854.344 237.516 848.468 237.692 842.742 236.67C837.017 235.647 831.566 233.448 826.733 230.211" fill="#263238"/>
<path d="M794.562 266.945L806.787 337.797C807.293 340.762 808.382 343.598 809.989 346.141C811.597 348.684 813.692 350.883 816.154 352.613C818.615 354.342 821.395 355.567 824.332 356.217C827.269 356.868 830.306 356.93 833.267 356.401V356.401C838.879 355.396 843.91 352.327 847.371 347.797C850.832 343.268 852.471 337.606 851.967 331.928C851.408 325.644 850.933 320.44 850.933 320.44C850.933 320.44 868.682 315.878 867.149 297.868C866.401 289.148 863.419 271.316 860.52 255.207C859.017 246.869 854.43 239.403 847.672 234.294C840.914 229.185 832.48 226.807 824.049 227.634L822.314 227.8C817.896 228.493 813.66 230.063 809.859 232.419C806.057 234.775 802.766 237.868 800.179 241.517C797.592 245.166 795.763 249.295 794.798 253.663C793.833 258.03 793.753 262.546 794.562 266.945V266.945Z" fill="#B78876"/>
<path d="M856.731 266.838C856.808 267.508 856.618 268.182 856.202 268.713C855.787 269.245 855.178 269.591 854.509 269.677C854.185 269.736 853.852 269.73 853.53 269.658C853.208 269.586 852.904 269.45 852.636 269.259C852.368 269.067 852.141 268.823 851.969 268.542C851.797 268.261 851.683 267.948 851.634 267.622C851.557 266.951 851.747 266.278 852.162 265.746C852.578 265.215 853.186 264.869 853.856 264.782C854.18 264.723 854.513 264.729 854.835 264.801C855.156 264.873 855.46 265.009 855.729 265.201C855.997 265.393 856.224 265.636 856.396 265.917C856.568 266.199 856.682 266.512 856.731 266.838V266.838Z" fill="#263238"/>
<path d="M857.515 264.378C857.23 264.735 855.139 263.487 852.371 263.761C849.603 264.034 847.702 265.626 847.369 265.317C847.215 265.174 847.476 264.545 848.296 263.808C849.415 262.858 850.802 262.281 852.264 262.157C853.703 262.013 855.15 262.329 856.398 263.06C857.313 263.63 857.657 264.212 857.515 264.378Z" fill="#263238"/>
<path d="M829.644 270.009C829.712 270.678 829.517 271.348 829.1 271.875C828.683 272.403 828.077 272.748 827.411 272.837C827.087 272.895 826.754 272.887 826.433 272.814C826.112 272.742 825.809 272.606 825.541 272.414C825.273 272.223 825.046 271.98 824.874 271.699C824.701 271.419 824.586 271.107 824.536 270.782C824.465 270.112 824.657 269.442 825.072 268.912C825.486 268.382 826.091 268.034 826.758 267.942C827.083 267.885 827.417 267.893 827.74 267.966C828.062 268.039 828.367 268.176 828.636 268.368C828.905 268.561 829.133 268.805 829.306 269.087C829.479 269.369 829.594 269.683 829.644 270.009Z" fill="#263238"/>
<path d="M830.345 267.539C830.06 267.907 827.969 266.66 825.201 266.933C822.433 267.206 820.544 268.798 820.199 268.489C820.045 268.347 820.306 267.717 821.126 266.98C822.247 266.035 823.633 265.458 825.094 265.329C826.533 265.18 827.982 265.496 829.228 266.232C830.143 266.802 830.44 267.384 830.345 267.539Z" fill="#263238"/>
<path d="M842.404 287.105C842.404 286.939 844.067 286.475 846.811 285.846C847.512 285.703 848.178 285.501 848.249 285.002C848.229 284.269 847.993 283.559 847.572 282.959L844.946 277.779C841.299 270.39 838.591 264.295 838.888 264.153C839.185 264.01 842.38 269.879 846.016 277.221L848.546 282.448C849.072 283.256 849.296 284.224 849.176 285.181C849.104 285.447 848.971 285.694 848.788 285.9C848.604 286.106 848.375 286.267 848.118 286.369C847.735 286.509 847.336 286.605 846.93 286.654C845.445 286.987 843.925 287.139 842.404 287.105Z" fill="#263238"/>
<path d="M830.001 256.609C829.799 257.394 827.008 257.298 823.8 258.011C820.592 258.724 818.038 259.865 817.551 259.199C817.325 258.902 817.705 258.142 818.739 257.31C820.059 256.268 821.605 255.552 823.253 255.219C824.897 254.857 826.604 254.894 828.231 255.326C829.431 255.718 830.084 256.253 830.001 256.609Z" fill="#263238"/>
<path d="M855.721 256.455C855.294 257.132 853.345 256.668 850.969 256.859C848.593 257.049 846.776 257.702 846.217 257.084C845.992 256.787 846.217 256.122 847.025 255.445C848.09 254.604 849.389 254.114 850.744 254.043C852.094 253.933 853.444 254.249 854.605 254.946C855.567 255.516 855.9 256.134 855.721 256.455Z" fill="#263238"/>
<path d="M812.192 245.275L812.097 245.37C809.45 247.91 807.884 251.374 807.726 255.04C807.726 255.171 807.726 255.301 807.726 255.408C807.524 260.623 808.153 265.839 807.904 271.042C807.654 276.246 806.383 281.639 802.926 285.548C801.512 287.152 798.851 288.423 797.402 286.843C796.897 286.177 796.593 285.382 796.523 284.55C794.361 272.242 789.894 261.562 788.658 248.577C788.481 246.841 788.722 245.087 789.36 243.463C789.999 241.838 791.017 240.39 792.329 239.239C794.848 237.018 797.972 234.678 801.132 235.818C804.292 236.959 808.747 242.221 811.325 244.384" fill="#263238"/>
<path d="M801.43 274.5C801.109 274.405 788.695 272.053 790.286 284.325C791.878 296.597 803.877 292.475 803.853 292.118C803.83 291.762 801.43 274.5 801.43 274.5Z" fill="#B78876"/>
<path d="M799.552 287.961C799.552 287.961 799.362 288.14 799.018 288.342C798.782 288.486 798.52 288.582 798.247 288.625C797.973 288.668 797.694 288.656 797.426 288.591C796.071 288.282 794.705 286.358 794.361 284.16C794.192 283.108 794.261 282.033 794.563 281.012C794.63 280.613 794.793 280.236 795.037 279.914C795.281 279.591 795.599 279.332 795.964 279.158C796.202 279.065 796.463 279.057 796.706 279.135C796.948 279.213 797.157 279.372 797.295 279.586C797.509 279.907 797.461 280.168 797.533 280.18C797.604 280.192 797.77 279.942 797.604 279.443C797.496 279.147 797.291 278.895 797.022 278.731C796.659 278.531 796.235 278.476 795.834 278.576C795.342 278.742 794.9 279.032 794.551 279.416C794.201 279.801 793.956 280.268 793.838 280.774C793.452 281.92 793.35 283.143 793.541 284.338C793.945 286.797 795.513 288.947 797.354 289.233C797.697 289.288 798.047 289.264 798.378 289.164C798.71 289.063 799.014 288.887 799.267 288.65C799.552 288.258 799.552 287.973 799.552 287.961Z" fill="#7C5142"/>
<path d="M800.883 237.767C797.319 233.133 804.994 225.245 810.886 222.738C816.778 220.232 825.083 222.406 831.331 223.819C835.264 224.722 839.244 226.112 843.211 225.554C845.872 225.022 848.439 224.097 850.827 222.81C853.212 221.5 855.84 220.692 858.549 220.434C859.905 220.33 861.264 220.6 862.479 221.214C863.693 221.827 864.717 222.761 865.439 223.914C866.698 226.29 865.57 229.854 862.932 230.508C863.743 229.95 864.678 229.597 865.656 229.48C866.633 229.362 867.625 229.484 868.545 229.834C869.465 230.185 870.286 230.753 870.938 231.491C871.59 232.229 872.053 233.114 872.288 234.07C872.522 235.027 872.521 236.026 872.284 236.981C872.047 237.937 871.582 238.821 870.928 239.557C870.275 240.294 869.452 240.86 868.531 241.208C867.61 241.557 866.618 241.676 865.641 241.556C867.268 240.059 870.167 241.996 870.167 244.194C870.167 246.391 868.326 248.197 866.401 249.278C861.483 252.034 855.424 251.892 849.936 250.621C844.447 249.35 839.244 247.057 833.779 245.631C828.314 244.206 819.154 241.639 814.046 244.027C810.292 245.774 808.035 250.728 805.73 249.967C804.639 249.515 803.67 248.812 802.901 247.917C802.131 247.021 801.582 245.958 801.299 244.811C800.768 242.507 800.616 240.132 800.847 237.778" fill="#263238"/>
<path d="M801.584 276.604C801.737 283.129 802.485 289.626 803.817 296.016C805.149 302.427 808.191 308.359 812.621 313.182C818.561 319.277 826.354 325.062 834.789 326.5C843.996 328.02 855.258 326.096 862.754 320.56C866.318 317.934 868.896 312.244 867.791 307.943C869.3 307.231 870.591 306.129 871.531 304.75C872.471 303.372 873.026 301.767 873.137 300.102C873.327 296.776 871.296 292.618 868.67 292.178C870.642 291.846 871.213 288.709 870.464 286.939C869.716 285.169 867.114 284.635 865.142 285.015C863.193 285.525 861.38 286.458 859.832 287.747C858.292 289.038 856.556 290.073 854.688 290.812C848.32 292.879 841.869 287.248 835.181 287.521C829.134 287.759 823.752 292.784 817.753 291.941C816.087 291.623 814.507 290.959 813.115 289.991C811.724 289.023 810.551 287.772 809.674 286.321C807.821 283.482 808.629 272.992 807.904 269.689" fill="#263238"/>
<g opacity="0.6">
<path d="M850.114 304.89C849.613 304.773 849.121 304.622 848.641 304.438C847.477 304.106 846.253 304.045 845.062 304.261C843.871 304.478 842.746 304.965 841.774 305.686C841.014 306.232 840.586 306.672 840.586 306.612C840.586 306.553 840.824 306.03 841.548 305.424C842.524 304.565 843.716 303.99 844.995 303.759C846.275 303.529 847.593 303.653 848.807 304.118C849.686 304.415 850.149 304.83 850.114 304.89Z" fill="#455A64"/>
</g>
<path d="M837.105 291.24C837.556 291.168 837.853 294.174 840.669 295.992C843.484 297.809 846.609 297.239 846.68 297.655C846.739 297.833 846.027 298.308 844.672 298.474C842.917 298.68 841.146 298.26 839.671 297.286C838.258 296.343 837.269 294.885 836.915 293.224C836.641 292.012 836.903 291.24 837.105 291.24Z" fill="white"/>
<path d="M828.171 324.491C828.44 324.552 828.699 324.648 828.943 324.776C829.454 324.966 830.202 325.227 831.188 325.5C833.983 326.256 836.851 326.706 839.742 326.843C841.722 326.959 843.708 326.92 845.682 326.724C847.958 326.52 850.208 326.082 852.394 325.417C854.808 324.696 857.111 323.645 859.237 322.293C861.549 320.898 863.567 319.066 865.177 316.899C867.09 314.348 867.942 311.155 867.553 307.989V307.74L867.767 307.645C869.245 306.958 870.524 305.907 871.485 304.592C871.952 303.971 872.35 303.302 872.673 302.596C872.957 301.91 873.134 301.185 873.196 300.446C873.325 299.107 873.134 297.757 872.638 296.508C872.143 295.258 871.356 294.144 870.345 293.258L870.167 293.116L870.309 292.937C870.845 292.257 871.195 291.45 871.324 290.594C871.453 289.737 871.357 288.863 871.046 288.055C870.802 287.442 870.433 286.887 869.962 286.425C869.492 285.962 868.93 285.603 868.313 285.37C867.526 285.055 866.674 284.937 865.83 285.025C865.248 285.097 864.963 285.203 864.951 285.168C865.226 285.037 865.518 284.949 865.819 284.907C866.947 284.724 868.104 284.919 869.11 285.463C870.116 286.007 870.913 286.868 871.378 287.912C871.73 288.783 871.85 289.731 871.725 290.662C871.6 291.593 871.235 292.475 870.666 293.223V292.902C871.751 293.828 872.599 295 873.141 296.321C873.682 297.641 873.901 299.071 873.778 300.493C873.717 301.309 873.529 302.111 873.22 302.869C872.875 303.614 872.458 304.322 871.972 304.984C870.961 306.394 869.603 307.52 868.028 308.251L868.206 307.894C868.683 311.221 867.83 314.602 865.83 317.303C864.172 319.534 862.094 321.419 859.712 322.851C857.543 324.232 855.187 325.292 852.715 325.999C850.49 326.668 848.2 327.098 845.884 327.282C843.871 327.442 841.85 327.442 839.837 327.282C836.923 327.1 834.04 326.578 831.248 325.726C830.491 325.491 829.749 325.209 829.026 324.883C828.728 324.783 828.441 324.652 828.171 324.491Z" fill="#455A64"/>
<path d="M774.319 293.141C774.092 293.078 773.878 292.973 773.69 292.832C773.154 292.431 772.743 291.887 772.502 291.264C772.1 290.26 772.013 289.158 772.252 288.104C772.627 286.708 773.465 285.48 774.628 284.623C775.995 283.592 777.519 282.79 779.142 282.247C780.961 281.675 782.72 280.927 784.393 280.013C786.154 278.899 787.534 277.274 788.349 275.356C789.244 273.292 789.72 271.072 789.751 268.822C789.846 264.177 788.777 259.77 788.658 255.671C788.54 251.573 789.252 247.747 791.118 245.181C792.514 243.124 794.635 241.669 797.058 241.106C797.714 240.975 798.387 240.943 799.053 241.011C799.286 241.038 799.516 241.082 799.742 241.142C798.862 241.1 797.98 241.168 797.117 241.344C794.782 241.961 792.757 243.415 791.426 245.431C789.692 247.925 788.967 251.632 789.181 255.647C789.395 259.663 790.369 264.07 790.369 268.846C790.32 271.181 789.807 273.483 788.86 275.618C787.987 277.641 786.515 279.349 784.643 280.512C782.924 281.443 781.112 282.191 779.238 282.746C777.661 283.244 776.173 283.99 774.83 284.955C773.727 285.736 772.919 286.866 772.537 288.163C772.278 289.151 772.324 290.195 772.668 291.157C772.981 291.984 773.562 292.683 774.319 293.141V293.141Z" fill="#455A64"/>
<path d="M863.384 230.306C863.552 230.204 863.732 230.12 863.918 230.057C864.144 229.956 864.379 229.877 864.619 229.819C864.942 229.724 865.271 229.657 865.605 229.617C866.714 229.497 867.836 229.63 868.885 230.006C869.935 230.383 870.885 230.993 871.664 231.791C872.443 232.836 873.007 234.025 873.323 235.29C873.639 236.554 873.701 237.869 873.505 239.157C873.272 240.755 872.721 242.29 871.885 243.672C871.048 245.053 869.943 246.253 868.635 247.2C865.622 249.393 862.023 250.634 858.299 250.764C854.262 250.923 850.224 250.491 846.312 249.481C840.098 247.956 834.202 245.346 828.896 241.771C826.628 240.211 824.245 238.825 821.768 237.625C819.599 236.621 817.263 236.025 814.878 235.866C811.403 235.626 807.925 236.272 804.768 237.743C802.546 238.789 801.489 239.692 801.441 239.62C802.417 238.781 803.5 238.073 804.661 237.518C807.836 235.947 811.365 235.227 814.901 235.427C817.364 235.553 819.781 236.137 822.029 237.149C824.542 238.347 826.961 239.733 829.264 241.296C834.533 244.8 840.369 247.364 846.514 248.875C850.366 249.886 854.343 250.334 858.323 250.205C861.933 250.079 865.425 248.889 868.361 246.784C869.622 245.883 870.691 244.74 871.506 243.423C872.322 242.106 872.868 240.64 873.113 239.11C873.323 237.871 873.285 236.604 873.001 235.38C872.718 234.157 872.195 233.002 871.462 231.982V231.982C870.725 231.209 869.826 230.609 868.83 230.225C867.834 229.841 866.765 229.682 865.7 229.76C864.915 229.882 864.141 230.065 863.384 230.306V230.306Z" fill="#455A64"/>
<path d="M857.087 219.84C857.086 220.775 856.896 221.7 856.528 222.56C855.498 224.924 853.709 226.876 851.444 228.108C849.914 228.998 848.236 229.602 846.49 229.89C844.489 230.182 842.456 230.182 840.455 229.89C836.214 229.356 831.83 227.693 827.22 226.255C822.611 224.818 817.966 223.962 813.879 224.841C810.258 225.632 806.978 227.544 804.506 230.306C802.822 232.148 801.532 234.315 800.716 236.674C800.17 238.361 800.063 239.347 799.992 239.335C799.962 239.098 799.962 238.859 799.992 238.622C800.087 237.939 800.234 237.264 800.431 236.603C801.169 234.162 802.43 231.912 804.126 230.009C806.622 227.125 809.979 225.118 813.701 224.283C817.93 223.344 822.706 224.212 827.339 225.661C831.972 227.11 836.321 228.774 840.467 229.32C842.417 229.605 844.397 229.605 846.347 229.32C848.041 229.064 849.675 228.505 851.171 227.669C853.385 226.507 855.164 224.661 856.243 222.406C856.592 221.574 856.874 220.716 857.087 219.84V219.84Z" fill="#455A64"/>
<path d="M947.007 144.651C946.9 144.782 940.223 139.353 932.085 132.522C923.948 125.691 917.449 119.988 917.568 119.905C917.687 119.822 924.351 125.204 932.489 132.047C940.627 138.889 947.125 144.521 947.007 144.651Z" fill="#263238"/>
<path d="M980.888 136.514C980.722 136.514 980.045 125.964 979.391 112.932C978.738 99.8995 978.334 89.3263 978.5 89.3145C978.667 89.3026 979.344 99.8639 980.009 112.908C980.674 125.952 981.055 136.514 980.888 136.514Z" fill="#263238"/>
<path d="M959.314 128.97C959.148 128.97 957.069 123.03 954.658 115.51C952.246 107.99 950.428 101.919 950.595 101.871C950.761 101.824 952.84 107.811 955.252 115.32C957.663 122.828 959.469 128.922 959.314 128.97Z" fill="#263238"/>
<path d="M940.081 155.796C936.953 154.696 933.894 153.406 930.922 151.935C927.862 150.645 924.886 149.165 922.012 147.504C925.14 148.604 928.199 149.894 931.171 151.365C934.229 152.657 937.205 154.137 940.081 155.796Z" fill="#263238"/>
<path d="M908.848 142.145C908.848 142.312 907.839 142.336 906.639 142.145C905.439 141.955 904.488 141.742 904.512 141.575C904.536 141.409 905.522 141.385 906.71 141.575C907.898 141.765 908.848 141.979 908.848 142.145Z" fill="#263238"/>
<path d="M951.366 94.1975C951.188 94.1975 951.058 93.2353 951.058 92.0354C951.058 90.8355 951.188 89.8613 951.366 89.8613C951.545 89.8613 951.675 90.8355 951.675 92.0354C951.675 93.2353 951.533 94.1975 951.366 94.1975Z" fill="#263238"/>
<path d="M1022.9 110.972C1023.03 111.091 1017.54 117.375 1010.66 125.014C1003.78 132.653 998.103 138.759 997.948 138.641C997.794 138.522 1003.31 132.249 1010.18 124.598C1017.06 116.948 1022.78 110.865 1022.9 110.972Z" fill="#263238"/>
<path d="M1031.63 102.333C1031.75 102.452 1031.12 103.284 1030.21 104.187C1029.31 105.09 1028.49 105.707 1028.37 105.589C1028.25 105.47 1028.88 104.638 1029.79 103.747C1030.69 102.856 1031.51 102.167 1031.63 102.333Z" fill="#263238"/>
<path d="M1052.8 132.748C1052.29 133.115 1051.75 133.437 1051.18 133.71C1050.13 134.292 1048.58 135.112 1046.66 136.086C1042.8 138.035 1037.39 140.577 1031.31 143.107C1025.22 145.638 1019.61 147.657 1015.5 149.047C1013.45 149.725 1011.79 150.235 1010.62 150.58C1010.04 150.794 1009.43 150.949 1008.81 151.043C1009.37 150.765 1009.95 150.535 1010.55 150.354L1015.3 148.632C1019.37 147.17 1024.94 145.068 1031.02 142.573C1037.1 140.078 1042.51 137.571 1046.47 135.73L1051.08 133.544C1051.63 133.237 1052.21 132.97 1052.8 132.748V132.748Z" fill="#263238"/>
<path d="M1035.43 161.996C1034.41 162.448 1033.36 162.795 1032.27 163.03C1030.3 163.576 1027.52 164.218 1024.45 164.752C1021.39 165.287 1018.51 165.584 1016.5 165.726C1015.41 165.866 1014.29 165.886 1013.19 165.786C1014.27 165.537 1015.37 165.37 1016.47 165.287C1018.49 165.037 1021.28 164.657 1024.35 164.099C1027.41 163.54 1030.18 163.006 1032.17 162.578C1033.24 162.284 1034.33 162.09 1035.43 161.996V161.996Z" fill="#263238"/>
<path d="M1051.22 159.075C1048.96 159.486 1046.64 159.486 1044.38 159.075C1046.64 158.663 1048.96 158.663 1051.22 159.075Z" fill="#263238"/>
<path d="M961.928 453.816C963.6 454.101 965.198 454.719 966.626 455.633C968.055 456.547 969.285 457.739 970.244 459.139C972.136 461.965 973.356 465.188 973.808 468.559C974.889 475.022 973.143 482.364 970.743 488.47C964.149 485.37 960.633 477.695 959.1 473.68C956.724 467.348 956.119 454.41 961.868 453.816" fill="#44AFF1"/>
<path d="M980.52 497.606C979.527 495.986 978.981 494.133 978.937 492.234C978.894 490.335 979.354 488.458 980.271 486.795C981.211 485.147 982.471 483.704 983.977 482.549C985.482 481.394 987.203 480.552 989.038 480.071C989.859 479.758 990.738 479.627 991.614 479.689C992.49 479.75 993.342 480.002 994.111 480.427C994.751 480.94 995.243 481.615 995.535 482.381C995.827 483.148 995.91 483.978 995.774 484.787C995.48 486.404 994.767 487.915 993.707 489.171C990.262 493.614 986.128 497.273 980.52 497.606" fill="#44AFF1"/>
<path d="M978.857 518.087C978.72 517.648 978.644 517.193 978.631 516.733C978.548 515.854 978.429 514.571 978.346 512.991C978.046 508.857 978.298 504.702 979.095 500.635C979.947 496.527 981.888 492.724 984.714 489.623C985.585 488.712 986.567 487.914 987.636 487.247C987.993 486.973 988.395 486.764 988.824 486.629C987.474 487.643 986.21 488.767 985.047 489.991C982.411 493.096 980.597 496.813 979.772 500.802C978.985 504.814 978.666 508.905 978.821 512.991C978.936 514.687 978.947 516.389 978.857 518.087Z" fill="#263238"/>
<path d="M963.496 463.664C963.829 464.346 964.107 465.053 964.328 465.779C964.815 467.157 965.516 469.153 966.3 471.636C967.927 476.601 970.054 483.516 972.24 491.178C974.426 498.841 976.184 505.85 977.396 510.935C978.002 513.477 978.465 515.532 978.762 516.97C978.96 517.701 979.095 518.448 979.166 519.203C978.875 518.504 978.649 517.781 978.489 517.041C978.073 515.496 977.538 513.477 976.897 511.101C975.554 506.052 973.689 499.078 971.527 491.416C969.365 483.753 967.321 476.827 965.825 471.826L964.078 465.886C963.823 465.163 963.628 464.419 963.496 463.664V463.664Z" fill="#263238"/>
<path d="M971.741 503.713C970.083 500.08 967.585 496.893 964.454 494.415C961.323 491.936 957.647 490.237 953.731 489.457C951.735 489.077 949.276 489.124 948.159 490.835C947.042 492.546 948.005 494.827 949.205 496.466C951.765 499.866 955.276 502.431 959.294 503.835C963.312 505.239 967.656 505.42 971.777 504.355" fill="#44AFF1"/>
<path d="M955.917 495.148C956.361 495.131 956.806 495.179 957.236 495.29C957.746 495.36 958.25 495.468 958.745 495.611C959.412 495.768 960.071 495.962 960.717 496.193C962.405 496.785 964.029 497.545 965.564 498.462C969.354 500.705 972.561 503.811 974.925 507.527C975.875 509.027 976.671 510.619 977.301 512.279C977.558 512.915 977.776 513.565 977.955 514.227C978.119 514.72 978.246 515.224 978.335 515.736C978.46 516.16 978.516 516.601 978.501 517.043C978.37 517.043 978.002 515.225 976.826 512.481C976.127 510.877 975.289 509.339 974.319 507.883C973.12 506.112 971.747 504.464 970.221 502.965C968.674 501.489 966.987 500.168 965.184 499.021C963.695 498.094 962.129 497.299 960.503 496.645C957.747 495.599 955.893 495.29 955.917 495.148Z" fill="#263238"/>
</g>
<defs>
<linearGradient id="paint0_linear_5167_50852" x1="720.5" y1="355" x2="720.5" y2="785" gradientUnits="userSpaceOnUse">
<stop stop-color="#FFEFDB"/>
<stop offset="0.339691" stop-color="#FFEFDB" stop-opacity="0"/>
</linearGradient>
<clipPath id="clip0_5167_50852">
<rect width="1440" height="520" fill="white"/>
</clipPath>
</defs>
</svg>
