<svg width="305" height="227" viewBox="0 0 305 227" fill="none" xmlns="http://www.w3.org/2000/svg">
<path d="M152.5 226.659C236.723 226.659 305 222.673 305 217.756C305 212.839 236.723 208.852 152.5 208.852C68.2766 208.852 0 212.839 0 217.756C0 222.673 68.2766 226.659 152.5 226.659Z" fill="#F5F5F5"/>
<path d="M148.367 219.145H151.215L156.332 145.184H152.555L148.367 219.145Z" fill="#263238"/>
<path d="M126.169 219.145H129.601L130.161 145.184H125.609L126.169 219.145Z" fill="#263238"/>
<path opacity="0.7" d="M125.609 145.184L125.7 157.132L126.169 219.145H129.602L130.07 157.132L130.161 145.184H125.609Z" fill="white"/>
<path opacity="0.2" d="M125.609 145.184L125.7 157.701H130.07L130.161 145.184H125.609Z" fill="black"/>
<path d="M94.8867 219.145H97.7344L102.852 145.184H99.0745L94.8867 219.145Z" fill="#263238"/>
<path opacity="0.7" d="M94.8867 219.145H97.7344L102.603 148.742L102.852 145.184H99.0745L98.8692 148.742L94.8867 219.145Z" fill="white"/>
<path opacity="0.2" d="M99.4414 148.598H102.642L102.855 145.184H99.6174L99.4414 148.598Z" fill="black"/>
<path d="M182.661 219.145H185.915L181.129 145.184H176.812L182.661 219.145Z" fill="#263238"/>
<path opacity="0.7" d="M176.812 145.184L177.097 148.742L182.665 219.145H185.915L181.367 148.742L181.132 145.184H176.812Z" fill="white"/>
<path opacity="0.2" d="M181.129 145.184H176.812L177.097 148.598H181.364L181.129 145.184Z" fill="black"/>
<path d="M182.409 146.322H97.2409C96.9188 146.322 96.6098 146.204 96.382 145.995C96.1542 145.785 96.0262 145.501 96.0262 145.205V142.908H183.641V145.205C183.641 145.353 183.609 145.499 183.547 145.636C183.484 145.772 183.393 145.896 183.279 146C183.164 146.104 183.028 146.186 182.879 146.241C182.73 146.297 182.57 146.324 182.409 146.322Z" fill="#3450A1"/>
<path opacity="0.6" d="M182.409 146.322H97.2409C96.9188 146.322 96.6098 146.204 96.382 145.995C96.1542 145.785 96.0262 145.501 96.0262 145.205V142.908H183.641V145.205C183.641 145.353 183.609 145.499 183.547 145.636C183.484 145.772 183.393 145.896 183.279 146C183.164 146.104 183.028 146.186 182.879 146.241C182.73 146.297 182.57 146.324 182.409 146.322Z" fill="white"/>
<path opacity="0.2" d="M96.0262 145.184H183.641V142.909H96.0262V145.184Z" fill="black"/>
<path d="M93.6714 144.046H185.997C186.277 144.046 186.546 143.926 186.745 143.713C186.943 143.499 187.055 143.21 187.055 142.908C187.053 142.607 186.941 142.318 186.743 142.105C186.545 141.892 186.277 141.772 185.997 141.77H93.6714C93.3907 141.77 93.1216 141.89 92.9232 142.104C92.7248 142.317 92.6133 142.606 92.6133 142.908C92.6133 143.21 92.7248 143.499 92.9232 143.713C93.1216 143.926 93.3907 144.046 93.6714 144.046Z" fill="#3450A1"/>
<path opacity="0.6" d="M93.6714 144.046H185.997C186.277 144.046 186.546 143.926 186.745 143.713C186.943 143.499 187.055 143.21 187.055 142.908C187.053 142.607 186.941 142.318 186.743 142.105C186.545 141.892 186.277 141.772 185.997 141.77H93.6714C93.3907 141.77 93.1216 141.89 92.9232 142.104C92.7248 142.317 92.6133 142.606 92.6133 142.908C92.6133 143.21 92.7248 143.499 92.9232 143.713C93.1216 143.926 93.3907 144.046 93.6714 144.046Z" fill="white"/>
<path d="M271.087 0.744873H124.426C123.078 0.744873 121.984 1.83809 121.984 3.18665V108.987C121.984 110.336 123.078 111.429 124.426 111.429H271.087C272.435 111.429 273.528 110.336 273.528 108.987V3.18665C273.528 1.83809 272.435 0.744873 271.087 0.744873Z" fill="#3450A1"/>
<path opacity="0.4" d="M273.528 6.72827H121.984V106.634H273.528V6.72827Z" fill="black"/>
<path d="M269.98 5.08484C270.766 5.08484 271.404 4.4469 271.404 3.65997C271.404 2.87304 270.766 2.23511 269.98 2.23511C269.193 2.23511 268.555 2.87304 268.555 3.65997C268.555 4.4469 269.193 5.08484 269.98 5.08484Z" fill="white"/>
<path d="M265.175 5.08484C265.962 5.08484 266.6 4.4469 266.6 3.65997C266.6 2.87304 265.962 2.23511 265.175 2.23511C264.388 2.23511 263.75 2.87304 263.75 3.65997C263.75 4.4469 264.388 5.08484 265.175 5.08484Z" fill="white"/>
<path d="M260.366 5.08484C261.153 5.08484 261.791 4.4469 261.791 3.65997C261.791 2.87304 261.153 2.23511 260.366 2.23511C259.579 2.23511 258.941 2.87304 258.941 3.65997C258.941 4.4469 259.579 5.08484 260.366 5.08484Z" fill="white"/>
<path opacity="0.5" d="M268.977 13.1931H126.746V99.6697H268.977V13.1931Z" fill="white"/>
<path d="M236.908 99.4008C234.64 93.1859 232.372 87.9236 232.372 87.9236L222.891 96.2253L224.546 99.4008H236.908Z" fill="#E4897B"/>
<path d="M169.96 99.4006C172.228 96.656 173.828 94.6373 173.828 94.6373L164.562 86.948C164.562 86.948 160.025 93.9455 156.328 99.4233L169.96 99.4006Z" fill="#E4897B"/>
<path d="M172.227 99.4016L177.728 95.5456L175.596 69.9373C168.587 71.0714 158.402 91.4855 158.402 91.4855L166.341 99.4243L172.227 99.4016Z" fill="#44AFF1"/>
<path opacity="0.2" d="M166.353 99.4017H172.227L176.174 96.6344L177.728 95.5003L175.596 69.8806C168.587 71.0828 158.402 91.4288 158.402 91.4288L165.411 98.381L166.353 99.4017Z" fill="white"/>
<path d="M168.079 99.4011L158.405 89.2507L156.738 92.0407L164.484 99.4011H168.079Z" fill="#44AFF1"/>
<path opacity="0.2" d="M172.23 99.4012L176.177 96.634L174.306 85.531C174.306 85.531 166.979 90.1582 165.414 98.4599L166.355 99.4012H172.23Z" fill="black"/>
<path d="M223.502 99.4013C225.838 84.9754 228.118 73.9971 228.118 73.9971C205.674 68.576 175.54 69.937 175.54 69.937C173.181 78.3521 171.786 88.8427 171.004 99.424L223.502 99.4013Z" fill="#44AFF1"/>
<path opacity="0.2" d="M223.502 99.4013C223.661 98.392 223.82 97.3939 223.978 96.4186C226.145 83.4897 228.118 73.9971 228.118 73.9971C205.674 68.576 175.54 69.937 175.54 69.937C173.181 78.3521 171.798 88.8427 171.004 99.424L223.502 99.4013Z" fill="white"/>
<path opacity="0.2" d="M223.503 99.4015C223.662 98.3921 223.821 97.3941 223.98 96.4187L220.668 93.3113C219.866 95.256 219.354 97.3079 219.148 99.4015H223.503Z" fill="black"/>
<path d="M188.32 99.4008H191.881C192.27 92.9094 193.192 86.461 194.637 80.1208L200.932 74.9719L195.976 73.3728L191.439 73.6223L192.653 79.5764C192.653 79.5764 190.498 88.6947 188.32 99.4008Z" fill="#263238"/>
<path d="M210.299 70.9573C206.148 74.7339 195.964 73.339 195.964 73.339C195.964 73.339 189.613 71.5924 190.951 69.6077C194.693 68.9953 196.508 67.2488 197.245 65.0713C197.657 63.686 197.789 62.2323 197.631 60.7956C197.57 59.9963 197.464 59.2012 197.313 58.414L209.902 49.0916C208.257 55.1818 206.239 66.5002 210.299 70.9573Z" fill="#EB996E"/>
<path opacity="0.2" d="M207 54.9558C206.501 62.509 200.297 64.5845 197.258 65.0154C197.67 63.6302 197.801 62.1765 197.643 60.7398L207 54.9558Z" fill="black"/>
<path d="M208.452 66.1609L196.43 71.5933L195.727 67.2383L191.304 68.792C190.532 69.0634 189.875 69.5874 189.439 70.279C189.002 70.9707 188.812 71.7895 188.9 72.6027L189.399 77.3773L195.5 73.975L198.54 78.2732L212.977 71.3211L208.452 66.1609Z" fill="#44AFF1"/>
<path opacity="0.3" d="M208.452 66.1609L196.43 71.5933L195.727 67.2383L191.304 68.792C190.532 69.0634 189.875 69.5874 189.439 70.279C189.002 70.9707 188.812 71.7895 188.9 72.6027L189.399 77.3773L195.5 73.975L198.54 78.2732L212.977 71.3211L208.452 66.1609Z" fill="white"/>
<path d="M184.114 31.5586C184.114 31.5586 182.242 43.671 188.65 48.3549C195.058 53.0388 195.137 30.4812 195.137 30.4812L184.114 31.5586Z" fill="#263238"/>
<path d="M207.306 58.0743C205.951 60.0652 203.98 61.5569 201.696 62.3209C199.412 63.0849 196.941 63.0792 194.66 62.3046C191.702 61.3646 189.21 59.3383 187.686 56.634C187.474 56.266 187.281 55.8875 187.107 55.4999C183.966 48.0827 182.99 35.0858 190.838 30.2998C192.568 29.2362 194.541 28.6313 196.57 28.5425C198.599 28.4536 200.617 28.8836 202.434 29.7918C204.25 30.7 205.805 32.0565 206.951 33.7329C208.097 35.4094 208.797 37.3505 208.984 39.3727C209.96 47.8672 210.924 52.9254 207.306 58.0743Z" fill="#EB996E"/>
<path d="M193.117 50.8574C192.678 50.8423 192.24 50.885 191.813 50.9843C191.621 51.0358 191.419 51.0304 191.348 50.9032C191.271 50.7022 191.257 50.4829 191.306 50.2748C191.348 49.7217 191.395 49.1672 191.452 48.61C191.635 46.2146 191.7 44.268 191.608 44.2601C191.516 44.2522 191.289 46.1879 191.112 48.582L190.997 50.2655C190.945 50.5415 190.988 50.8287 191.12 51.0781C191.168 51.1403 191.229 51.1907 191.299 51.2255C191.369 51.2603 191.445 51.2786 191.523 51.279C191.64 51.2762 191.756 51.2596 191.869 51.2297C192.299 51.1617 192.719 51.0365 193.117 50.8574Z" fill="#263238"/>
<path d="M196.385 43.8066C196.555 44.4984 196.237 45.1335 195.772 45.2129C195.307 45.2923 194.853 44.7819 194.729 44.0788C194.604 43.3756 194.888 42.7519 195.341 42.6838C195.795 42.6158 196.26 43.1034 196.385 43.8066Z" fill="#263238"/>
<path d="M188.478 45.1347C188.649 45.8266 188.32 46.4617 187.866 46.5411C187.412 46.6204 186.936 46.0988 186.823 45.4069C186.709 44.7151 186.981 44.08 187.435 44.0006C187.889 43.9212 188.365 44.4656 188.478 45.1347Z" fill="#263238"/>
<path d="M184.988 42.2523C185.059 42.2735 185.134 42.2774 185.207 42.2636C185.28 42.2498 185.349 42.2187 185.408 42.1729C185.793 41.8205 186.254 41.5614 186.756 41.4159C187.257 41.2704 187.785 41.2422 188.3 41.3337C188.353 41.349 188.408 41.3535 188.463 41.3469C188.517 41.3402 188.57 41.3226 188.618 41.2951C188.665 41.2675 188.707 41.2306 188.74 41.1866C188.773 41.1425 188.797 41.0923 188.81 41.0388C188.838 40.9335 188.824 40.8215 188.772 40.7262C188.719 40.631 188.631 40.56 188.526 40.5284C187.88 40.3938 187.21 40.4152 186.573 40.5907C185.936 40.7662 185.35 41.0909 184.863 41.5378C184.786 41.6163 184.742 41.7223 184.742 41.8327C184.742 41.943 184.786 42.049 184.863 42.1275C184.897 42.1765 184.939 42.2188 184.988 42.2523Z" fill="#263238"/>
<path d="M197.43 40.3818C197.511 40.3649 197.586 40.3256 197.646 40.2684C197.701 40.1729 197.719 40.0596 197.693 39.952C197.668 39.8443 197.602 39.7505 197.509 39.69C196.95 39.3365 196.314 39.1231 195.654 39.0679C194.995 39.0126 194.332 39.117 193.722 39.3724C193.623 39.4213 193.548 39.5069 193.511 39.6109C193.475 39.7148 193.482 39.8287 193.529 39.9282C193.58 40.0247 193.666 40.0977 193.77 40.1316C193.874 40.1655 193.986 40.1576 194.084 40.1096C194.574 39.9276 195.098 39.8606 195.617 39.9137C196.136 39.9668 196.636 40.1386 197.079 40.4158C197.136 40.4368 197.197 40.4447 197.258 40.4388C197.319 40.4329 197.378 40.4134 197.43 40.3818Z" fill="#263238"/>
<path d="M200.922 29.5623V33.4296C201.603 33.659 202.172 34.1366 202.517 34.7671C202.862 35.3976 202.956 36.1349 202.782 36.8319C201.931 40.1776 204.347 44.9409 207.035 46.6307C207.035 46.6307 206.955 45.2244 208.169 45.4172C209.382 45.61 209.927 52.8797 208.044 56.6109C208.044 56.6109 211.129 53.0725 212.184 45.2698C213.148 38.0228 212.683 32.148 210.913 29.6076L200.922 29.5623Z" fill="#263238"/>
<path d="M213.966 45.5988C213.339 47.7029 211.903 49.4727 209.974 50.5209C207.411 51.8932 205.494 49.7384 205.676 46.9938C205.869 44.5554 207.4 40.8242 210.212 40.6087C213.025 40.3933 214.704 43.0471 213.966 45.5988Z" fill="#EB996E"/>
<path d="M193.086 53.7869C193.692 54.7104 194.231 55.677 194.696 56.6789L195.263 56.5201C197.804 55.783 198.734 54.5921 198.995 53.5147C199.116 52.9809 199.116 52.4268 198.995 51.8929C198.922 51.5912 198.808 51.301 198.654 51.031C197.293 52.1876 195.7 53.0385 193.982 53.5261C193.426 53.7075 193.086 53.7869 193.086 53.7869Z" fill="#263238"/>
<path d="M193.949 53.5378L194.448 54.377C196.841 53.6739 198.418 52.8573 198.985 51.9046C198.912 51.6029 198.798 51.3127 198.644 51.0427C197.277 52.2021 195.675 53.0532 193.949 53.5378Z" fill="white"/>
<path d="M195.262 56.5208C197.802 55.7836 198.732 54.5928 198.993 53.5154C198.032 53.8115 197.132 54.2804 196.339 54.899C195.82 55.314 195.443 55.881 195.262 56.5208Z" fill="#DE5753"/>
<path d="M206.092 43.6826L204.958 43.0134C204.958 43.0134 205.673 47.652 204.198 48.9562C204.198 48.9562 199.095 49.5006 197.314 49.9769C196.093 50.4515 195.083 51.349 194.467 52.506C194.467 52.506 190.464 51.6554 188.729 54.6608C187.288 53.3755 186.15 51.7877 185.395 50.0109C185.395 50.0109 185.531 58.4941 190.283 63.0079C195.035 67.5217 202.758 65.2761 206.387 61.749C210.016 58.2219 206.092 43.6826 206.092 43.6826ZM202.69 57.0538C202.384 57.5082 201.964 57.8746 201.472 58.1166C200.981 58.3586 200.434 58.4679 199.887 58.4335C199.341 58.3991 198.812 58.2222 198.355 57.9205C197.897 57.6188 197.527 57.2027 197.28 56.7136L195.692 57.5868C195.692 57.5868 197.439 59.0612 196.112 60.4221C194.785 61.7831 190.679 61.2954 190.26 57.3827C189.84 53.47 194.796 53.0277 194.796 53.0277C195.414 52.4036 196.151 51.9103 196.964 51.5772C197.776 51.244 198.648 51.0777 199.526 51.0883C200.209 51.1161 200.873 51.3214 201.453 51.6839C202.032 52.0465 202.507 52.5538 202.831 53.1559C203.155 53.758 203.317 54.4341 203.3 55.1176C203.283 55.8011 203.088 56.4684 202.735 57.0538H202.69Z" fill="#263238"/>
<path d="M200.912 33.4297C200.912 33.4297 181.632 40.0075 183.9 27.0106C183.9 27.0106 194.3 20.8863 203.362 22.5988C212.423 24.3114 211.72 33.7132 211.72 33.7132L200.912 33.4297Z" fill="#263238"/>
<path d="M239.392 99.401C238.258 95.7038 231.895 75.9702 228.119 73.9968C225.888 76.1006 224.095 78.6253 222.845 81.4253C220.271 86.6649 219.715 97.1668 219.715 97.1668L221.382 99.4351L239.392 99.401Z" fill="#44AFF1"/>
<path opacity="0.2" d="M239.392 99.401C238.258 95.7038 231.895 75.9702 228.119 73.9968C225.888 76.1006 224.095 78.6253 222.845 81.4253C220.271 86.6649 219.715 97.1668 219.715 97.1668L221.382 99.4351L239.392 99.401Z" fill="white"/>
<path d="M137.98 141.689H115.305C115.164 141.689 115.025 141.662 114.896 141.608C114.766 141.554 114.648 141.475 114.548 141.376C114.449 141.277 114.37 141.159 114.317 141.029C114.263 140.899 114.235 140.76 114.235 140.62V139.77H137.98V141.689Z" fill="#263238"/>
<path opacity="0.2" d="M137.98 141.689H115.305C115.164 141.689 115.025 141.662 114.896 141.608C114.766 141.554 114.648 141.475 114.548 141.376C114.449 141.277 114.37 141.159 114.317 141.029C114.263 140.899 114.235 140.76 114.235 140.62V139.77H137.98V141.689Z" fill="white"/>
<path d="M152.129 141.689H133.614C133.33 141.689 133.058 141.577 132.858 141.376C132.657 141.175 132.544 140.903 132.544 140.62V139.77H152.129V141.689Z" fill="#263238"/>
<path opacity="0.5" d="M152.129 141.689H133.614C133.33 141.689 133.058 141.577 132.858 141.376C132.657 141.175 132.544 140.903 132.544 140.62V139.77H152.129V141.689Z" fill="white"/>
<path d="M147.796 141.068H149.715V140.384H147.796V141.068Z" fill="#263238"/>
<path d="M144.807 141.068H146.727V140.384H144.807V141.068Z" fill="#263238"/>
<path d="M150.832 139.77H152.106L153.428 122.427H152.146L150.832 139.77Z" fill="#263238"/>
<path opacity="0.3" d="M150.832 139.77H152.106L153.428 122.427H152.146L150.832 139.77Z" fill="white"/>
<path d="M151.295 139.77H128.871L130.192 122.427H152.616L151.295 139.77Z" fill="#3450A1"/>
<path opacity="0.4" d="M151.295 139.77H128.871L130.192 122.427H152.616L151.295 139.77Z" fill="white"/>
<path d="M98.3419 110.585C97.6498 113.047 97.4767 115.689 101.016 116.649C101.016 116.649 104.32 121.305 100.355 124.428C97.8444 121.122 94.6764 118.372 91.0508 116.35C93.3553 114.289 92.907 108.414 92.3722 105.197L98.3419 110.585Z" fill="#CE7A63"/>
<path d="M102.738 97.7948C103.006 97.7241 103.336 97.9757 103.47 98.3847C103.603 98.7937 103.47 99.2263 103.218 99.2892C102.966 99.3522 102.62 99.1162 102.486 98.6993C102.353 98.2825 102.463 97.8578 102.738 97.7948Z" fill="#2E353A"/>
<path d="M103.526 97.2449L102.621 97.8505C103.266 98.1887 103.526 97.2449 103.526 97.2449Z" fill="#2E353A"/>
<path d="M103.737 102.247C104.013 102.227 104.281 102.147 104.522 102.011C104.762 101.875 104.97 101.687 105.129 101.461C104.245 100.853 103.451 100.125 102.77 99.2976L103.737 102.247Z" fill="#BA4D3C"/>
<path d="M101.755 95.0832C101.49 95.2652 101.273 95.5079 101.121 95.7912C100.969 96.0744 100.887 96.3899 100.882 96.7113C100.883 96.7444 100.878 96.7773 100.866 96.8082C100.854 96.8392 100.837 96.8675 100.814 96.8916C100.791 96.9157 100.764 96.9351 100.734 96.9487C100.704 96.9623 100.671 96.9698 100.638 96.9708C100.606 96.9719 100.573 96.9664 100.543 96.9546C100.512 96.9428 100.484 96.925 100.461 96.9023C100.437 96.8795 100.419 96.8523 100.406 96.8222C100.393 96.7921 100.387 96.7597 100.387 96.727C100.387 96.3211 100.486 95.9213 100.673 95.5613C100.861 95.2013 101.132 94.8917 101.464 94.6584C101.519 94.6204 101.586 94.6049 101.652 94.6151C101.718 94.6254 101.778 94.6606 101.818 94.7135C101.841 94.7515 101.853 94.795 101.853 94.8394C101.853 94.8837 101.841 94.9272 101.818 94.9652C101.81 95.0103 101.788 95.0517 101.755 95.0832Z" fill="#2E353A"/>
<path d="M87.3229 98.0554C87.4889 96.1353 88.4107 94.3598 89.8857 93.1193C91.3607 91.8788 93.268 91.2751 95.1882 91.4407C100.82 91.8576 103.942 99.1802 104.32 104.096C104.744 109.562 99.0579 113.047 93.9297 110.388C90.4926 108.611 89.8319 106.456 87.8499 101.477C87.4053 100.394 87.2247 99.2216 87.3229 98.0554Z" fill="#CE7A63"/>
<path opacity="0.21" d="M84.5766 104.52C77.199 95.2 86.2598 92.518 86.2598 92.518C89.0992 88.5853 93.779 87.7988 98.0577 89.4269C102.336 91.055 101.078 93.9495 99.5128 94.2326C102.439 98.1023 100.763 100.029 99.796 100.305C101.33 110.042 91.9385 113.841 84.5766 104.52Z" fill="#263238"/>
<path d="M91.0651 145.68C89.6162 145.494 88.1833 145.199 86.7785 144.799C86.5696 144.729 86.3648 144.648 86.165 144.555L86.1021 143.524C85.9369 140.441 85.874 137.295 85.8032 134.141L85.6459 124.703H80.2031C80.2031 127.92 80.266 131.105 80.4076 134.306C80.5492 137.508 80.738 140.709 81.0998 143.949L81.2885 145.176L81.3829 145.79C81.4003 145.98 81.4292 146.169 81.4694 146.356C81.5286 146.536 81.5996 146.712 81.6818 146.883C81.8297 147.168 82.0148 147.433 82.2324 147.669C82.5338 147.983 82.8813 148.248 83.2627 148.456C83.5364 148.611 83.8202 148.748 84.1122 148.865C84.5888 149.046 85.0777 149.193 85.5751 149.305C87.2634 149.65 88.9804 149.834 90.7033 149.856C93.9535 149.931 97.2049 149.773 100.433 149.384L100.378 146.718C97.2551 146.427 94.1011 146.144 91.0651 145.68Z" fill="#CE7A63"/>
<path d="M90.3015 122.941C90.3015 126.236 88.3194 132.379 88.3194 132.379L80.1395 127.377C79.7698 123.153 80.6429 117.726 84.6935 116.405C87.4542 115.516 90.27 119.433 90.3015 122.941Z" fill="#3450A1"/>
<path opacity="0.6" d="M84.4291 120.574L82.5493 122.43L82.1875 128.636L88.3224 132.403C88.3224 132.403 90.3045 126.237 90.3045 122.965C90.2853 122.109 90.1286 121.262 89.8404 120.456L87.0168 119.606L84.4291 120.574Z" fill="black"/>
<path d="M107.88 148.181C107.935 148.054 107.964 147.918 107.966 147.78C107.968 147.643 107.942 147.506 107.891 147.378C107.84 147.25 107.764 147.134 107.668 147.035C107.571 146.937 107.457 146.858 107.33 146.804L105.01 145.821C104.511 145.616 103.959 145.577 103.436 145.711L98.387 147.072L97.7656 148.778C98.5522 150.737 101.895 150.351 101.895 150.351L104.294 151.091C104.597 151.185 104.922 151.184 105.225 151.09C105.528 150.996 105.796 150.813 105.993 150.564L107.747 148.401C107.802 148.334 107.847 148.26 107.88 148.181Z" fill="#CE7A63"/>
<path d="M104.202 116.327C103.156 116.146 102.055 115.981 100.985 115.855C97.6932 115.519 94.3813 115.42 91.075 115.556C89.4469 115.556 87.8502 115.705 86.4502 115.855H86.3401C85.1233 116.017 84.0206 116.656 83.2744 117.631C82.5282 118.606 82.1994 119.837 82.3603 121.054C84.3423 135.211 85.2075 141.212 84.6333 149.29L106.515 149.951C109.063 136.769 110.101 128.911 110.447 124.286C110.585 122.42 110.021 120.57 108.866 119.097C107.711 117.625 106.048 116.637 104.202 116.327Z" fill="#3450A1"/>
<path d="M129.598 197.456L134.765 196.969L138.249 209.695L133.082 210.182L129.598 197.456Z" fill="#CE7A63"/>
<path d="M92.0486 149.282C83.735 160.293 84.3957 169.677 92.9846 169.677C100.638 169.677 110.178 170.133 120.513 169.472C122.786 186.139 131.469 205.558 131.469 205.558L137.203 205.023C137.203 205.023 131.973 180.641 131.572 163.613C131.32 153.317 102.25 154.174 102.25 154.174C102.25 154.174 97.1532 149.313 92.0486 149.282Z" fill="#263238"/>
<path opacity="0.3" d="M92.0486 149.282C83.735 160.293 84.3957 169.677 92.9846 169.677C100.638 169.677 110.178 170.133 120.513 169.472C122.786 186.139 131.469 205.558 131.469 205.558L137.203 205.023C137.203 205.023 131.973 180.641 131.572 163.613C131.32 153.317 102.25 154.174 102.25 154.174C102.25 154.174 97.1532 149.313 92.0486 149.282Z" fill="white"/>
<path opacity="0.2" d="M132.258 173.578C131.919 170.141 131.676 166.751 131.605 163.613C131.353 153.317 102.283 154.175 102.283 154.175C101.641 153.592 100.966 153.046 100.262 152.539C99.1369 152.68 98.492 152.775 98.492 152.775C98.492 152.775 94.1032 152.704 89.7301 152.673C83.9648 162.111 85.3019 169.662 92.9863 169.662C97.5324 169.662 102.763 169.819 108.426 169.811C116.118 167.711 124.078 165.092 127.688 163.943C128.883 167.301 130.414 170.529 132.258 173.578Z" fill="black"/>
<path d="M84.7015 147.826L106.866 148.487C107.078 148.487 107.228 148.613 107.228 148.746L106.976 150.729C106.976 150.847 106.787 150.933 106.591 150.933L84.0723 150.272C83.8206 150.272 83.6475 150.107 83.7262 149.958L84.3475 148.015C84.3821 147.953 84.4339 147.902 84.4967 147.868C84.5595 147.835 84.6306 147.82 84.7015 147.826Z" fill="#3450A1"/>
<path d="M138.683 209.349C139.91 210.599 142.002 212.369 144.047 212.873C145.353 213.195 146.155 215.311 143.67 215.059C141.184 214.807 138.534 214.273 137.071 214.115C134.711 213.801 133.862 213.934 131.958 213.746C131.733 213.712 131.529 213.591 131.392 213.409C131.255 213.226 131.196 212.996 131.227 212.77L132.053 208.562C132.07 208.472 132.122 208.393 132.196 208.34C132.271 208.287 132.363 208.265 132.454 208.279L137.889 208.995C138.186 209.022 138.465 209.146 138.683 209.349Z" fill="#263238"/>
<path d="M99.4764 94.2406C99.4764 94.2406 102.166 97.2923 100.381 100.588C100.381 100.588 98.7371 102.649 99.4764 106.974C100.216 111.3 103.527 114.785 96.0865 114.745C89.0864 114.706 80.3009 116.122 81.284 109.287C81.284 109.287 78.0907 106.29 81.6852 103.089C81.6852 103.089 78.9716 99.3294 82.3222 96.3563C82.3222 96.3563 80.5919 90.2136 86.5852 90.5203C86.5852 90.5203 87.9223 84.409 94.3089 87.8382C94.3089 87.8382 97.0146 83.5281 101.112 87.8382C101.112 87.8382 107.782 88.381 103.079 92.2585C103.079 92.2743 103.307 95.4204 99.4764 94.2406Z" fill="#263238"/>
<path d="M104.523 100.58C104.364 100.579 104.21 100.52 104.091 100.414C103.493 99.911 103.249 98.2829 103.178 97.6065L100.032 99.0931L99.8672 98.7312L104.232 96.6941C104.339 96.6377 104.458 96.6082 104.578 96.6082C104.699 96.6082 104.818 96.6377 104.925 96.6941C105.031 96.7499 105.123 96.8292 105.194 96.926C105.265 97.0227 105.312 97.1345 105.334 97.2526C105.507 98.2987 105.609 99.6593 105.153 100.257C105.087 100.343 105.004 100.415 104.909 100.468C104.815 100.521 104.71 100.553 104.602 100.564L104.523 100.58ZM103.556 97.4335C103.627 98.1571 103.871 99.7144 104.343 100.116C104.397 100.163 104.467 100.189 104.539 100.186C104.595 100.182 104.649 100.166 104.698 100.139C104.747 100.112 104.789 100.074 104.822 100.029C105.105 99.6594 105.145 98.6762 104.917 97.3312C104.91 97.2726 104.888 97.2167 104.853 97.1686C104.819 97.1205 104.773 97.0818 104.72 97.056C104.666 97.029 104.607 97.0149 104.547 97.0149C104.487 97.0149 104.428 97.029 104.374 97.056L103.556 97.4335Z" fill="#44AFF1"/>
<path d="M97.4432 100.596C97.4136 100.351 97.4327 100.103 97.4994 99.8654C97.5661 99.6279 97.679 99.4059 97.8318 99.2122C97.9846 99.0185 98.1741 98.8569 98.3895 98.7367C98.6049 98.6165 98.842 98.5401 99.0871 98.5118C100.519 98.3624 101.62 100.085 101.934 101.273C102.28 102.625 101.525 103.868 100.125 103.428C99.0682 103.079 98.1918 102.327 97.687 101.335C97.5524 101.11 97.4691 100.857 97.4432 100.596Z" fill="#CE7A63"/>
<path d="M145.57 186.021L149.951 181.868L155.811 190.771L152.303 193.807L145.57 186.021Z" fill="#CE7A63"/>
<path d="M86.7024 149.463C86.1837 149.458 85.6783 149.627 85.2674 149.944C84.8566 150.26 84.5642 150.706 84.4372 151.209C81.4798 162.74 84.8147 169.708 92.9867 169.708C100.64 169.708 121.522 162.873 128.082 160.75C133.587 176.622 149.436 190.834 149.436 190.834L153.597 187.02C153.597 187.02 144.363 169.236 137.976 153.419C134.311 144.335 98.8857 149.581 98.8857 149.581C98.8857 149.581 91.8384 149.463 86.7024 149.463Z" fill="#263238"/>
<path opacity="0.3" d="M86.7024 149.463C86.1837 149.458 85.6783 149.627 85.2674 149.944C84.8566 150.26 84.5642 150.706 84.4372 151.209C81.4798 162.74 84.8147 169.708 92.9867 169.708C100.64 169.708 121.522 162.873 128.082 160.75C133.587 176.622 149.436 190.834 149.436 190.834L153.597 187.02C153.597 187.02 144.363 169.236 137.976 153.419C134.311 144.335 98.8857 149.581 98.8857 149.581C98.8857 149.581 91.8384 149.463 86.7024 149.463Z" fill="white"/>
<path d="M155.877 188.797C157.623 188.663 160.148 187.334 161.737 185.95C162.948 184.88 164.348 186.107 163.137 187.767C161.925 189.426 159.291 191.786 158.276 192.864C156.616 194.617 156.31 195.467 154.933 196.796C154.762 196.947 154.539 197.025 154.311 197.013C154.083 197.001 153.869 196.901 153.714 196.733L150.977 193.359C150.946 193.324 150.923 193.284 150.908 193.24C150.894 193.196 150.888 193.149 150.892 193.103C150.895 193.057 150.908 193.012 150.93 192.971C150.951 192.929 150.981 192.893 151.016 192.864L155.059 189.159C155.283 188.95 155.572 188.823 155.877 188.797Z" fill="#263238"/>
<path d="M92.8741 200.454V170.809H88.155V200.524L76.1447 203.67C75.1373 203.936 74.2461 204.528 73.6102 205.353C72.9742 206.178 72.6292 207.191 72.6289 208.232V209.2C72.6289 209.669 72.8154 210.119 73.1472 210.451C73.4791 210.783 73.9292 210.969 74.3986 210.969C74.8679 210.969 75.3181 210.783 75.65 210.451C75.9818 210.119 76.1683 209.669 76.1683 209.2C76.166 208.648 76.3472 208.112 76.6832 207.675C77.0192 207.238 77.4911 206.925 78.0245 206.785L88.155 204.111V209.2C88.155 209.669 88.3414 210.119 88.6733 210.451C89.0052 210.783 89.4553 210.969 89.9247 210.969H91.0966C91.5659 210.969 92.0161 210.783 92.348 210.451C92.6798 210.119 92.8663 209.669 92.8663 209.2V204.079L102.95 206.872C103.48 207.019 103.947 207.339 104.277 207.78C104.608 208.221 104.782 208.759 104.774 209.31C104.77 209.78 104.952 210.233 105.281 210.569C105.61 210.905 106.058 211.097 106.528 211.103C106.761 211.105 106.991 211.062 107.207 210.974C107.422 210.887 107.618 210.759 107.784 210.596C107.95 210.433 108.082 210.239 108.173 210.025C108.264 209.811 108.312 209.582 108.314 209.349V208.382C108.325 207.34 107.992 206.325 107.366 205.492C106.74 204.66 105.857 204.058 104.853 203.781L92.8741 200.454Z" fill="#263238"/>
<path d="M71.4883 214.265C71.4867 213.697 71.654 213.141 71.9688 212.667C72.2837 212.194 72.732 211.825 73.2569 211.607C73.7818 211.388 74.3596 211.331 74.9173 211.441C75.4749 211.552 75.9871 211.825 76.3891 212.227C76.7911 212.629 77.0646 213.142 77.1752 213.699C77.2857 214.257 77.2282 214.835 77.0099 215.36C76.7916 215.884 76.4225 216.333 75.9492 216.648C75.4758 216.962 74.9197 217.13 74.3513 217.128C73.5926 217.126 72.8656 216.824 72.3291 216.287C71.7927 215.751 71.4904 215.024 71.4883 214.265Z" fill="#FFE0B9"/>
<path d="M103.738 214.265C103.737 213.697 103.904 213.141 104.218 212.668C104.533 212.195 104.981 211.826 105.505 211.607C106.029 211.389 106.607 211.331 107.164 211.441C107.722 211.551 108.234 211.823 108.636 212.225C109.039 212.626 109.313 213.137 109.424 213.694C109.536 214.251 109.479 214.829 109.262 215.354C109.045 215.879 108.677 216.328 108.205 216.644C107.733 216.96 107.177 217.128 106.609 217.128C105.849 217.128 105.12 216.827 104.582 216.29C104.044 215.753 103.74 215.025 103.738 214.265Z" fill="#FFE0B9"/>
<path d="M87.6211 214.265C87.6195 213.697 87.7866 213.141 88.1011 212.668C88.4156 212.195 88.8634 211.826 89.3879 211.607C89.9123 211.389 90.4898 211.331 91.0472 211.441C91.6046 211.551 92.1168 211.823 92.5191 212.225C92.9214 212.626 93.1956 213.137 93.307 213.694C93.4184 214.251 93.362 214.829 93.145 215.354C92.9279 215.879 92.56 216.328 92.0877 216.644C91.6154 216.96 91.0601 217.128 90.4919 217.128C89.7325 217.126 89.0047 216.824 88.467 216.288C87.9293 215.752 87.6253 215.025 87.6211 214.265Z" fill="#FFE0B9"/>
<path opacity="0.6" d="M92.8754 170.833H88.1641V177.526H92.8754V170.833Z" fill="black"/>
<path opacity="0.6" d="M84.6484 205.087L87.6215 204.3V200.69L84.6484 201.477V205.087Z" fill="black"/>
<path opacity="0.6" d="M96.3364 201.413L93.3555 200.587V204.213L96.3364 205.038V201.413Z" fill="black"/>
<path d="M94.3594 168.843H122.989C123.86 168.845 124.694 169.192 125.309 169.808C125.924 170.425 126.269 171.26 126.269 172.13H94.3594V168.843Z" fill="#FFE0B9"/>
<path opacity="0.5" d="M94.3594 168.843H122.989C123.86 168.845 124.694 169.192 125.309 169.808C125.924 170.425 126.269 171.26 126.269 172.13H94.3594V168.843Z" fill="black"/>
<path d="M74.0456 126.764C63.9859 126.764 56.8206 134.268 57.3476 144.257L58.5038 166.091C58.588 167.706 59.2865 169.228 60.4563 170.345C61.626 171.462 63.1786 172.09 64.796 172.1H105.224L96.8706 144.257C93.9133 134.299 84.1131 126.764 74.0456 126.764Z" fill="#FFE0B9"/>
<path opacity="0.1" d="M74.0456 126.764C63.9859 126.764 56.8206 134.268 57.3476 144.257L58.5038 166.091C58.588 167.706 59.2865 169.228 60.4563 170.345C61.626 171.462 63.1786 172.09 64.796 172.1H105.224L96.8706 144.257C93.9133 134.299 84.1131 126.764 74.0456 126.764Z" fill="black"/>
<path opacity="0.3" d="M72.016 126.905C63.0339 127.849 56.8596 134.983 57.3473 144.287L58.5035 166.09C58.5877 167.705 59.2862 169.227 60.456 170.344C61.6257 171.461 63.1782 172.089 64.7957 172.099H101.149L92.7961 144.256C90.0433 134.975 81.3364 127.833 72.016 126.905Z" fill="black"/>
<path d="M109.819 171.186C109.526 170.891 109.361 170.493 109.361 170.077C109.361 169.662 109.526 169.263 109.819 168.968L118.384 160.403C118.509 160.279 118.594 160.12 118.628 159.947C118.662 159.775 118.645 159.596 118.577 159.433C118.51 159.271 118.396 159.132 118.249 159.034C118.103 158.937 117.931 158.885 117.755 158.885H99.3973C98.9801 158.885 98.58 158.719 98.285 158.424C97.9899 158.129 97.8242 157.729 97.8242 157.312C97.8242 156.895 97.9899 156.495 98.285 156.2C98.58 155.904 98.9801 155.739 99.3973 155.739H117.582C118.335 155.725 119.078 155.914 119.732 156.286C120.387 156.658 120.929 157.2 121.302 157.855C121.717 158.619 121.872 159.498 121.746 160.358C121.62 161.219 121.219 162.015 120.602 162.629L112.037 171.186C111.742 171.479 111.343 171.644 110.928 171.644C110.512 171.644 110.114 171.479 109.819 171.186Z" fill="#263238"/>
<path opacity="0.2" d="M121.302 157.855C120.929 157.2 120.387 156.658 119.732 156.286C119.078 155.914 118.335 155.725 117.582 155.739H99.3973C98.9801 155.739 98.58 155.904 98.285 156.2C97.9899 156.495 97.8242 156.895 97.8242 157.312C97.8242 157.729 97.9899 158.129 98.285 158.424C98.58 158.719 98.9801 158.885 99.3973 158.885H117.755C117.895 158.883 118.034 158.918 118.156 158.987H121.703C121.628 158.591 121.492 158.21 121.302 157.855Z" fill="white"/>
<path d="M148.367 219.144H151.215L156.084 148.741L156.332 145.183H152.555L152.35 148.741L148.367 219.144Z" fill="#BEC1C3"/>
<path opacity="0.2" d="M152.352 148.597H156.085L156.334 145.183H152.557L152.352 148.597Z" fill="black"/>
<path d="M121.274 141.204C118.914 141.511 116.46 141.809 114.109 141.99C112.98 142.099 111.845 142.141 110.711 142.116C110.402 142.108 110.095 142.077 109.791 142.022C109.589 141.144 109.449 140.253 109.374 139.356C109.287 138.247 109.264 137.13 109.287 136.013C109.311 134.896 109.413 133.716 109.531 132.584C109.586 132.009 109.657 131.412 109.743 130.869C109.83 130.326 109.917 129.705 110.003 129.241L104.694 128.108C104.537 128.832 104.427 129.437 104.332 130.09C104.238 130.743 104.167 131.364 104.096 132.041C103.965 133.347 103.904 134.66 103.915 135.973C103.894 138.725 104.335 141.461 105.221 144.067L105.307 144.319L105.378 144.492L105.473 144.712C105.544 144.847 105.622 144.979 105.709 145.105C105.998 145.521 106.377 145.868 106.818 146.12C107.336 146.41 107.904 146.599 108.493 146.678C109.275 146.789 110.067 146.807 110.852 146.733C112.177 146.62 113.491 146.409 114.785 146.104C117.247 145.527 119.663 144.77 122.013 143.839L121.274 141.204Z" fill="#CE7A63"/>
<path d="M126.891 136.894C127.038 136.909 127.181 136.954 127.31 137.025C127.44 137.096 127.554 137.192 127.646 137.308C127.738 137.423 127.807 137.556 127.847 137.698C127.888 137.841 127.9 137.989 127.882 138.136L127.615 141.109C127.595 141.332 127.509 141.544 127.369 141.719C127.229 141.894 127.041 142.024 126.828 142.092L124.122 142.879C124.122 142.879 119.128 146.025 117.516 144.664L119.38 142.085L122.785 138.199C123.169 137.757 123.689 137.455 124.264 137.342L126.545 136.886C126.66 136.87 126.777 136.873 126.891 136.894Z" fill="#CE7A63"/>
<path d="M101.313 122.265C99.5823 124.687 103.043 131.294 103.043 131.294L109.886 130.861C109.886 130.861 111.671 122.367 108.525 118.686C106.826 116.72 103.137 119.74 101.313 122.265Z" fill="#3450A1"/>
</svg>
