<svg width="181" height="181" viewBox="0 0 181 181" fill="none" xmlns="http://www.w3.org/2000/svg">
<ellipse cx="10.9756" cy="11.4209" rx="10.9756" ry="11.4209" transform="matrix(1 0 -0.000269921 1 0.228516 0.784912)" fill="white"/>
<ellipse cx="10.5707" cy="10.9996" rx="10.5707" ry="10.9996" transform="matrix(1 0 -0.000269921 1 39.7402 0.784912)" fill="white"/>
<ellipse cx="9.60975" cy="9.99965" rx="9.60975" ry="9.99965" transform="matrix(1 0 -0.000269921 1 79.2539 0.784912)" fill="white"/>
<ellipse cx="8.64878" cy="8.99969" rx="8.64878" ry="8.99969" transform="matrix(1 0 -0.000269921 1 118.766 0.784668)" fill="white"/>
<ellipse cx="7.20731" cy="7.49974" rx="7.20731" ry="7.49974" transform="matrix(1 0 -0.000269921 1 158.277 0.784668)" fill="white"/>
<ellipse cx="10.9756" cy="11.4209" rx="10.9756" ry="11.4209" transform="matrix(1 0 -0.000269921 1 0.21875 40.0723)" fill="white"/>
<ellipse cx="11.5317" cy="11.9996" rx="11.5317" ry="11.9996" transform="matrix(1 0 -0.000269921 1 39.7305 40.0723)" fill="white"/>
<ellipse cx="10.5707" cy="10.9996" rx="10.5707" ry="10.9996" transform="matrix(1 0 -0.000269921 1 79.2441 40.0723)" fill="white"/>
<ellipse cx="9.60975" cy="9.99965" rx="9.60975" ry="9.99965" transform="matrix(1 0 -0.000269921 1 118.756 40.072)" fill="white"/>
<ellipse cx="8.64878" cy="8.99969" rx="8.64878" ry="8.99969" transform="matrix(1 0 -0.000269921 1 158.268 40.072)" fill="white"/>
<ellipse cx="10.9756" cy="11.4209" rx="10.9756" ry="11.4209" transform="matrix(1 0 -0.000269921 1 0.207031 79.3633)" fill="white"/>
<ellipse cx="10.9756" cy="11.4209" rx="10.9756" ry="11.4209" transform="matrix(1 0 -0.000269921 1 39.7188 79.3633)" fill="white"/>
<ellipse cx="11.5317" cy="11.9996" rx="11.5317" ry="11.9996" transform="matrix(1 0 -0.000269921 1 79.2324 79.3633)" fill="white"/>
<ellipse cx="10.5707" cy="10.9996" rx="10.5707" ry="10.9996" transform="matrix(1 0 -0.000269921 1 118.744 79.363)" fill="white"/>
<ellipse cx="9.60975" cy="9.99965" rx="9.60975" ry="9.99965" transform="matrix(1 0 -0.000269921 1 158.256 79.363)" fill="white"/>
<ellipse cx="10.9756" cy="11.4209" rx="10.9756" ry="11.4209" transform="matrix(1 0 -0.000269921 1 0.197266 118.652)" fill="white"/>
<ellipse cx="10.9756" cy="11.4209" rx="10.9756" ry="11.4209" transform="matrix(1 0 -0.000269921 1 39.709 118.652)" fill="white"/>
<ellipse cx="10.9756" cy="11.4209" rx="10.9756" ry="11.4209" transform="matrix(1 0 -0.000269921 1 79.2227 118.652)" fill="white"/>
<ellipse cx="11.5317" cy="11.9996" rx="11.5317" ry="11.9996" transform="matrix(1 0 -0.000269921 1 118.734 118.652)" fill="white"/>
<ellipse cx="10.5707" cy="10.9996" rx="10.5707" ry="10.9996" transform="matrix(1 0 -0.000269921 1 158.246 118.652)" fill="white"/>
<ellipse cx="10.9756" cy="11.4209" rx="10.9756" ry="11.4209" transform="matrix(1 0 -0.000269921 1 0.185547 157.943)" fill="white"/>
<ellipse cx="10.9756" cy="11.4209" rx="10.9756" ry="11.4209" transform="matrix(1 0 -0.000269921 1 39.6973 157.943)" fill="white"/>
<ellipse cx="10.9756" cy="11.4209" rx="10.9756" ry="11.4209" transform="matrix(1 0 -0.000269921 1 79.2109 157.943)" fill="white"/>
<ellipse cx="10.9756" cy="11.4209" rx="10.9756" ry="11.4209" transform="matrix(1 0 -0.000269921 1 118.723 157.943)" fill="white"/>
<ellipse cx="10.9756" cy="11.4209" rx="10.9756" ry="11.4209" transform="matrix(1 0 -0.000269921 1 158.234 157.943)" fill="white"/>
</svg>
