<svg width="934" height="425" viewBox="0 0 934 425" fill="none" xmlns="http://www.w3.org/2000/svg">
<g clip-path="url(#clip0_887_5747)">
<path d="M47.7593 273.266C58.4276 273.266 67.2351 275.913 74.1819 281.205C81.1287 286.416 85.9253 293.569 88.5717 302.666H76.6629C74.43 296.877 70.8326 292.287 65.8706 288.897C60.9086 285.423 54.8301 283.686 47.6352 283.686C41.9289 283.686 36.8015 285.092 32.253 287.904C27.7872 290.633 24.2311 294.603 21.5847 299.813C19.021 304.94 17.7392 310.977 17.7392 317.924C17.7392 324.788 19.021 330.784 21.5847 335.911C24.2311 341.039 27.7872 345.008 32.253 347.82C36.8015 350.549 41.9289 351.914 47.6352 351.914C54.8301 351.914 60.9086 350.219 65.8706 346.828C70.8326 343.354 74.43 338.723 76.6629 332.934H88.5717C85.9253 342.031 81.1287 349.226 74.1819 354.519C67.2351 359.729 58.4276 362.334 47.7593 362.334C39.572 362.334 32.3357 360.473 26.0505 356.752C19.7653 352.948 14.8447 347.696 11.2886 340.998C7.81515 334.216 6.07845 326.525 6.07845 317.924C6.07845 309.241 7.81515 301.508 11.2886 294.727C14.8447 287.945 19.7653 282.694 26.0505 278.973C32.3357 275.168 39.572 273.266 47.7593 273.266Z" fill="#3450A1"/>
<path d="M98.9908 273.514C98.9908 271.447 99.6937 269.793 101.1 268.552C102.506 267.229 104.366 266.568 106.682 266.568C108.997 266.568 110.858 267.229 112.264 268.552C113.67 269.793 114.373 271.447 114.373 273.514C114.373 275.582 113.67 277.277 112.264 278.6C110.858 279.841 108.997 280.461 106.682 280.461C104.366 280.461 102.506 279.841 101.1 278.6C99.6937 277.277 98.9908 275.582 98.9908 273.514ZM112.264 293.486V361.59H100.976V293.486H112.264ZM156.836 349.557L177.924 293.486H190.081L163.411 361.59H150.013L123.342 293.486H135.499L156.836 349.557Z" fill="#3450A1"/>
<path d="M194.76 273.514C194.76 271.447 195.463 269.793 196.869 268.552C198.275 267.229 200.136 266.568 202.451 266.568C204.767 266.568 206.628 267.229 208.034 268.552C209.44 269.793 210.143 271.447 210.143 273.514C210.143 275.582 209.44 277.277 208.034 278.6C206.628 279.841 204.767 280.461 202.451 280.461C200.136 280.461 198.275 279.841 196.869 278.6C195.463 277.277 194.76 275.582 194.76 273.514ZM208.034 293.486V361.59H196.745V293.486H208.034Z" fill="#3450A1"/>
<path d="M253.62 292.618C262.303 292.618 269.498 294.934 275.204 299.565C280.911 304.196 284.425 310.399 285.749 318.172H273.84C273.013 313.293 270.739 309.489 267.017 306.76C263.378 303.948 258.83 302.542 253.372 302.542C249.402 302.542 245.763 303.452 242.455 305.271C239.23 307.091 236.625 309.902 234.64 313.707C232.655 317.428 231.663 322.059 231.663 327.6C231.663 333.141 232.655 337.814 234.64 341.618C236.625 345.339 239.23 348.11 242.455 349.929C245.763 351.749 249.402 352.658 253.372 352.658C258.83 352.658 263.378 351.252 267.017 348.441C270.739 345.629 273.013 341.783 273.84 336.904H285.749C284.425 344.76 280.911 351.004 275.204 355.635C269.498 360.184 262.303 362.458 253.62 362.458C247.086 362.458 241.297 361.052 236.253 358.24C231.208 355.429 227.238 351.418 224.344 346.208C221.532 340.915 220.126 334.712 220.126 327.6C220.126 320.488 221.532 314.285 224.344 308.993C227.238 303.7 231.208 299.648 236.253 296.836C241.297 294.024 247.086 292.618 253.62 292.618Z" fill="#3450A1"/>
<path d="M384.735 274.135V283.314H360.049V361.59H348.761V283.314H324.075V274.135H384.735Z" fill="#3450A1"/>
<path d="M447.22 323.755C447.22 326.153 447.055 328.22 446.724 329.957H392.266C392.514 337.731 394.706 343.561 398.841 347.448C403.059 351.335 408.186 353.278 414.223 353.278C419.681 353.278 424.23 351.914 427.869 349.185C431.59 346.373 433.864 342.652 434.691 338.02H446.724C445.897 342.734 444.036 346.952 441.142 350.673C438.33 354.395 434.65 357.289 430.102 359.357C425.553 361.424 420.426 362.458 414.719 362.458C408.186 362.458 402.397 361.052 397.352 358.24C392.308 355.429 388.338 351.418 385.444 346.208C382.632 340.915 381.226 334.712 381.226 327.6C381.226 320.488 382.632 314.285 385.444 308.993C388.338 303.7 392.308 299.648 397.352 296.836C402.397 294.024 408.186 292.618 414.719 292.618C421.335 292.618 427.083 294.024 431.962 296.836C436.924 299.648 440.687 303.41 443.251 308.124C445.897 312.838 447.22 318.048 447.22 323.755ZM435.808 324.499C436.056 319.454 435.229 315.236 433.327 311.846C431.425 308.455 428.82 305.933 425.512 304.279C422.204 302.625 418.606 301.798 414.719 301.798C408.517 301.798 403.307 303.741 399.089 307.628C394.871 311.432 392.597 317.056 392.266 324.499H435.808Z" fill="#3450A1"/>
<path d="M490.069 292.618C498.752 292.618 505.947 294.934 511.654 299.565C517.36 304.196 520.875 310.399 522.198 318.172H510.289C509.462 313.293 507.188 309.489 503.466 306.76C499.828 303.948 495.279 302.542 489.821 302.542C485.851 302.542 482.212 303.452 478.904 305.271C475.679 307.091 473.074 309.902 471.089 313.707C469.104 317.428 468.112 322.059 468.112 327.6C468.112 333.141 469.104 337.814 471.089 341.618C473.074 345.339 475.679 348.11 478.904 349.929C482.212 351.749 485.851 352.658 489.821 352.658C495.279 352.658 499.828 351.252 503.466 348.441C507.188 345.629 509.462 341.783 510.289 336.904H522.198C520.875 344.76 517.36 351.004 511.654 355.635C505.947 360.184 498.752 362.458 490.069 362.458C483.536 362.458 477.747 361.052 472.702 358.24C467.657 355.429 463.688 351.418 460.793 346.208C457.981 340.915 456.575 334.712 456.575 327.6C456.575 320.488 457.981 314.285 460.793 308.993C463.688 303.7 467.657 299.648 472.702 296.836C477.747 294.024 483.536 292.618 490.069 292.618Z" fill="#3450A1"/>
<path d="M570.377 292.37C578.316 292.37 584.725 294.934 589.605 300.061C594.484 305.106 596.924 312.425 596.924 322.018V361.59H585.635V323.01C585.635 316.229 583.898 311.019 580.425 307.38C576.951 303.741 572.238 301.922 566.283 301.922C560.081 301.922 555.119 303.948 551.397 308C547.676 311.97 545.815 317.8 545.815 325.491V361.59H534.526V269.793H545.815V309.613C547.552 304.072 550.612 299.813 554.995 296.836C559.46 293.859 564.588 292.37 570.377 292.37Z" fill="#3450A1"/>
<path d="M676.93 333.803C676.93 340.253 673.952 343.479 668.866 343.479C663.408 343.479 660.183 339.881 660.183 332.438H639.094C639.094 352.038 651.623 362.458 669.487 362.458C686.73 362.458 698.142 352.534 698.142 333.803V274.507H676.93V333.803Z" fill="#3450A1"/>
<path d="M780.473 326.98C780.473 305.023 764.843 291.378 744.499 291.378C724.279 291.378 708.524 305.023 708.524 326.98C708.524 348.937 723.906 362.582 744.251 362.582C764.595 362.582 780.473 348.937 780.473 326.98ZM730.109 326.98C730.109 315.195 736.808 309.737 744.499 309.737C751.942 309.737 758.888 315.195 758.888 326.98C758.888 338.641 751.818 344.223 744.251 344.223C736.559 344.223 730.109 338.641 730.109 326.98Z" fill="#3450A1"/>
<path d="M811.154 302.17V269.793H789.941V361.59H811.154V351.914C814.999 357.992 822.318 362.582 832.49 362.582C849.485 362.582 863.007 348.689 863.007 326.856C863.007 305.023 849.609 291.378 832.49 291.378C822.566 291.378 814.999 295.967 811.154 302.17ZM841.422 326.856C841.422 337.896 834.227 344.099 826.164 344.099C818.225 344.099 811.03 338.02 811.03 326.98C811.03 315.939 818.225 309.861 826.164 309.861C834.227 309.861 841.422 315.815 841.422 326.856Z" fill="#3450A1"/>
<path d="M928.255 341.494C927.883 315.691 890.42 323.506 890.42 312.466C890.42 309.117 893.149 307.132 898.111 307.132C904.065 307.132 907.663 310.233 908.283 314.947H927.883C926.518 301.302 916.594 291.378 898.731 291.378C880.62 291.378 870.572 301.053 870.572 312.838C870.572 338.268 908.283 330.205 908.283 341.37C908.283 344.471 905.43 346.952 899.971 346.952C894.141 346.952 889.799 343.727 889.303 338.889H868.339C869.331 352.286 881.736 362.582 900.22 362.582C917.587 362.582 928.255 353.527 928.255 341.494Z" fill="#3450A1"/>
<path d="M486.068 115.984C506.379 95.6725 506.379 62.7416 486.068 42.4304C465.757 22.1192 432.826 22.1192 412.515 42.4304C392.204 62.7416 392.204 95.6725 412.515 115.984C432.826 136.295 465.757 136.295 486.068 115.984Z" fill="#44AFF1"/>
<path d="M377.051 153.113C395.21 171.372 419.532 182.192 445.253 183.454C470.974 184.716 496.238 176.328 516.097 159.934C535.956 143.54 548.978 120.322 552.612 94.8283C556.246 69.3344 550.229 43.4025 535.741 22.1133" stroke="#3450A1" stroke-width="43.35" stroke-linecap="round" stroke-linejoin="bevel"/>
</g>
<defs>
<clipPath id="clip0_887_5747">
<rect width="933.59" height="424.38" fill="white" transform="translate(0 0.441406)"/>
</clipPath>
</defs>
</svg>
