<svg width="334" height="340" viewBox="0 0 334 340" fill="none" xmlns="http://www.w3.org/2000/svg">
<g clip-path="url(#clip0_6486_62998)">
<path d="M258.022 17.29L237.547 27.559C236.797 27.8778 236.157 28.4101 235.708 29.0898C235.259 29.7694 235.019 30.5662 235.02 31.381V40.957C235.001 49.6625 237.54 58.1817 242.321 65.457C246.01 71.057 250.903 78.26 259.044 82.369H262.712C271.777 79.569 278.539 72.24 282.669 65.94C287.449 58.6643 289.987 50.1454 289.97 41.44V31.381C289.97 30.5672 289.731 29.7713 289.283 29.092C288.835 28.4126 288.198 27.8796 287.45 27.559L264.126 17.619C263.083 17.178 259.058 16.849 258.022 17.29Z" fill="#E0E0E0"/>
<path d="M257.195 17.6189L233.871 27.5589C233.121 27.8777 232.482 28.41 232.032 29.0897C231.583 29.7693 231.343 30.5662 231.344 31.3809V40.9569C231.344 49.8285 233.976 58.5007 238.907 65.876C243.838 73.2513 250.845 78.9983 259.043 82.3899C268.101 79.5899 274.863 72.2609 279 65.9609C283.781 58.6778 286.319 50.1519 286.301 41.4399V31.3809C286.301 30.5662 286.062 29.7693 285.612 29.0897C285.163 28.41 284.524 27.8777 283.774 27.5589L260.45 17.6189C259.934 17.4023 259.381 17.2908 258.822 17.2908C258.263 17.2908 257.71 17.4023 257.195 17.6189Z" fill="#F5F5F5"/>
<path d="M286.225 38.843C286.256 38.9878 286.27 39.1359 286.267 39.284C286.267 39.613 286.302 40.033 286.323 40.551C286.344 41.069 286.379 41.776 286.323 42.56C286.267 43.344 286.323 44.24 286.197 45.22C286.071 46.2 286.036 47.32 285.833 48.433C285.742 49.007 285.672 49.602 285.553 50.211C285.434 50.82 285.287 51.436 285.154 52.073C284.508 54.8368 283.606 57.5342 282.459 60.13C281.279 62.7131 279.874 65.1868 278.259 67.522C277.482 68.572 276.761 69.622 275.991 70.455C275.613 70.896 275.291 71.344 274.906 71.736L273.842 72.863C273.177 73.563 272.498 74.179 271.931 74.725C271.364 75.271 270.846 75.698 270.419 76.041L269.502 76.839C269.393 76.9386 269.273 77.0255 269.145 77.098C269.238 76.9818 269.343 76.8762 269.46 76.783L270.405 75.936C270.818 75.579 271.322 75.131 271.868 74.536C272.414 73.941 273.086 73.395 273.73 72.653L274.773 71.512C275.13 71.12 275.473 70.672 275.837 70.231C276.593 69.356 277.293 68.341 278.056 67.291C279.64 64.9665 281.022 62.5097 282.186 59.948C283.32 57.3712 284.222 54.6982 284.881 51.961L285.294 50.113C285.42 49.511 285.497 48.916 285.595 48.349C285.805 47.215 285.889 46.144 285.994 45.164C286.099 44.184 286.113 43.302 286.169 42.518C286.225 41.734 286.218 41.069 286.218 40.516C286.218 39.963 286.218 39.578 286.218 39.249C286.206 39.1138 286.208 38.9778 286.225 38.843Z" fill="#E0E0E0"/>
<path d="M257.084 59.6609L243.707 49.0279L247.417 44.3589L256.391 51.4919L269.495 36.8269L273.94 40.8029L257.084 59.6609Z" fill="white"/>
<path d="M320.277 69.692H317.743V55.909C317.743 54.3496 317.124 52.854 316.021 51.7512C314.918 50.6485 313.423 50.029 311.863 50.029C310.304 50.029 308.808 50.6485 307.705 51.7512C306.603 52.854 305.983 54.3496 305.983 55.909V69.692H303.449V55.909C303.449 53.6812 304.334 51.5446 305.91 49.9693C307.485 48.394 309.621 47.509 311.849 47.509C314.077 47.509 316.214 48.394 317.789 49.9693C319.364 51.5446 320.249 53.6812 320.249 55.909L320.277 69.692Z" fill="#EBEBEB"/>
<path d="M321.04 60.3401H302.679C301.489 60.3401 300.523 61.3054 300.523 62.4961V75.9571C300.523 77.1478 301.489 78.1131 302.679 78.1131H321.04C322.231 78.1131 323.196 77.1478 323.196 75.9571V62.4961C323.196 61.3054 322.231 60.3401 321.04 60.3401Z" fill="#EBEBEB"/>
<path d="M313.603 69.6849C313.828 69.4559 314.006 69.1847 314.126 68.8868C314.246 68.5888 314.306 68.2701 314.303 67.9489C314.306 67.4831 314.179 67.0257 313.936 66.6282C313.693 66.2307 313.344 65.909 312.929 65.6994C312.513 65.4897 312.046 65.4005 311.582 65.4417C311.118 65.4829 310.675 65.653 310.303 65.9327C309.93 66.2125 309.644 66.5907 309.475 67.0248C309.306 67.4589 309.262 67.9315 309.347 68.3894C309.433 68.8472 309.644 69.2721 309.958 69.616C310.272 69.96 310.676 70.2093 311.125 70.3359L310.593 72.7019H312.966L312.49 70.3359C312.904 70.2175 313.28 69.9931 313.582 69.6849" fill="#FAFAFA"/>
<path d="M32.5032 270.858C29.7845 269.157 26.7123 268.101 23.5222 267.771C22.0522 267.617 20.4492 267.659 19.2732 268.548C19.1367 268.626 19.0237 268.739 18.9461 268.876C18.8685 269.013 18.8291 269.168 18.8322 269.325C18.9039 269.547 19.053 269.736 19.2522 269.857C21.1591 271.218 23.4021 272.03 25.738 272.207C28.0739 272.383 30.4135 271.917 32.5032 270.858Z" fill="#E0E0E0"/>
<path d="M32.2729 270.606C30.1935 269.077 28.2518 267.37 26.4699 265.503C24.6843 263.622 23.4305 261.301 22.8369 258.776C22.7186 258.402 22.6831 258.007 22.7326 257.617C22.7822 257.228 22.9157 256.854 23.1239 256.522C27.7439 260.134 31.3769 264.81 32.2729 270.606Z" fill="#E0E0E0"/>
<path d="M32.4537 270.823C32.0277 268.296 32.0656 265.713 32.5657 263.2C33.0798 260.667 34.5262 258.418 36.6187 256.9C37.4167 258.769 37.0737 260.925 36.5137 262.871C35.6434 265.895 34.2837 268.756 32.4887 271.341" fill="#E0E0E0"/>
<path d="M36.9901 278.95C34.2692 279.39 31.7522 280.664 29.7871 282.597C27.7202 284.475 26.2808 286.943 25.6641 289.667C28.3661 289.499 30.6551 287.567 32.3141 285.467C33.9731 283.367 35.1141 280.994 36.9551 278.999" fill="#E0E0E0"/>
<path d="M37.9746 280.245C36.8909 277.495 36.511 274.519 36.8691 271.585C37.2273 268.651 38.3123 265.853 40.0256 263.445C41.5936 269.045 41.0126 275.345 37.9746 280.245Z" fill="#E0E0E0"/>
<path d="M43.9609 287.378C41.4453 287.226 38.9402 287.815 36.7564 289.073C34.5726 290.331 32.8061 292.202 31.6759 294.455C31.5289 294.756 31.3889 295.155 31.5989 295.414C31.7042 295.518 31.8334 295.593 31.9751 295.635C32.1167 295.676 32.2665 295.682 32.4109 295.652C34.8329 295.498 36.9749 294.042 38.7459 292.383C40.5169 290.724 42.0639 288.806 44.0169 287.371" fill="#E0E0E0"/>
<path d="M43.7722 287C42.4824 282.848 42.4023 278.414 43.5412 274.218C43.9962 272.573 44.7522 270.844 46.2712 270.074C46.3321 270.033 46.4008 270.005 46.4731 269.992C46.5454 269.978 46.6196 269.98 46.6912 269.997C46.814 270.062 46.9068 270.173 46.9502 270.305C47.4636 271.454 47.6849 272.711 47.5942 273.966C47.5044 275.219 47.3124 276.462 47.0202 277.683C46.5442 279.951 46.3202 282.387 45.0392 284.347C44.7467 284.819 44.4826 285.307 44.2482 285.81C44.0172 286.307 44.0172 286.51 43.8002 286.874" fill="#E0E0E0"/>
<path d="M59.6279 289.352C59.0949 287.019 59.0775 284.597 59.5768 282.257C60.0762 279.916 61.0802 277.713 62.5189 275.8C62.7219 275.527 62.9949 275.24 63.3379 275.268C63.8559 275.317 63.9889 276.01 63.9679 276.528C63.7532 281.123 62.2491 285.565 59.6279 289.345" fill="#E0E0E0"/>
<path d="M61.0547 290.332C63.8286 290.987 66.7115 291.032 69.5045 290.464C72.2974 289.896 74.9338 288.728 77.2317 287.042C74.5251 285.681 71.4296 285.302 68.4747 285.971C65.5487 286.671 62.8747 287.945 61.0547 290.332Z" fill="#E0E0E0"/>
<path d="M62.2578 287.357C65.3028 282.401 71.1338 279.167 76.9578 278.866C76.2578 281.232 74.3468 283.066 72.1558 284.179C69.9098 285.187 67.5353 285.879 65.0998 286.237C64.1618 286.419 62.8738 286.622 62.2998 287.357" fill="#E0E0E0"/>
<path d="M59.9277 272.916C60.851 270.124 61.4798 267.243 61.8037 264.32C62.1291 261.379 61.5322 258.409 60.0957 255.822C57.2537 261.317 56.9667 267.722 59.8437 273.217" fill="#E0E0E0"/>
<path d="M69.4883 268.1C72.8133 262.066 79.5893 257.243 86.4423 256.564C83.7963 263.151 76.5863 268.24 69.4883 268.1Z" fill="#E0E0E0"/>
<path d="M67.4062 269.269C72.3552 270.025 76.5762 273.189 81.2032 275.107C82.175 275.572 83.2506 275.777 84.3252 275.702C84.8245 275.695 85.3098 275.536 85.7157 275.245C86.1217 274.955 86.4289 274.547 86.5959 274.076C86.7629 273.606 86.7817 273.095 86.6498 272.614C86.518 272.132 86.2417 271.703 85.8582 271.383C85.2033 270.769 84.4321 270.293 83.5903 269.983C78.5503 267.883 73.1393 267.834 67.8333 269.108" fill="#E0E0E0"/>
<path d="M64.5352 272.741C65.6552 273.063 66.0402 273.644 66.9292 274.4C69.9661 276.98 73.5604 278.82 77.4292 279.776C77.8282 279.874 78.3532 279.916 78.5562 279.559C78.7592 279.202 78.5072 278.859 78.2832 278.579C76.6077 276.608 74.4311 275.125 71.9832 274.288C69.5682 273.385 67.4752 272.3 64.5912 272.538" fill="#E0E0E0"/>
<path d="M61.3008 251.762C63.3324 253.635 65.7334 255.062 68.3494 255.952C70.9654 256.841 73.7386 257.174 76.4908 256.928C76.7465 256.936 76.996 256.849 77.1908 256.683C77.5758 256.263 77.1138 255.619 76.6728 255.283C72.2068 251.783 66.7958 250.383 61.3148 251.783" fill="#E0E0E0"/>
<path d="M65.1367 250.355C67.8254 248.378 70.9436 247.064 74.2368 246.522C77.53 245.979 80.9047 246.223 84.0857 247.233C81.6055 249.529 78.425 250.925 75.0557 251.195C71.7257 251.501 68.3678 251.217 65.1367 250.355Z" fill="#E0E0E0"/>
<path d="M63.6105 240.716C63.1765 236.257 63.4565 232.743 63.1485 228.263C63.1485 227.906 63.0505 227.479 62.7145 227.346C62.2455 227.171 61.8605 227.738 61.7065 228.214C61.0568 230.29 60.89 232.486 61.2187 234.636C61.5475 236.786 62.3632 238.832 63.6035 240.618" fill="#E0E0E0"/>
<path d="M63.2891 241.206C66.2126 239.331 68.7327 236.892 70.7021 234.031C72.1581 232.036 73.3901 229.649 73.0611 227.199C72.0341 227.226 71.0255 227.477 70.1054 227.934C69.1854 228.391 68.3761 229.043 67.7341 229.845C66.4627 231.459 65.5381 233.317 65.0181 235.305C64.4301 237.265 64.0171 239.281 63.3171 241.206" fill="#E0E0E0"/>
<path d="M70.5474 239.19C77.2041 236.734 83.3678 233.107 88.7474 228.48C86.5774 227.605 84.0924 228.13 81.9224 229.005C76.996 230.871 72.926 234.48 70.4844 239.148" fill="#E0E0E0"/>
<path d="M65.332 243.649C68.6765 244.124 72.0701 244.14 75.419 243.698C78.688 243.152 81.782 241.85 84.834 240.569C85.1011 240.489 85.33 240.315 85.478 240.079C85.5241 239.937 85.5267 239.785 85.4856 239.641C85.4444 239.498 85.3613 239.37 85.247 239.274C85.0107 239.089 84.7355 238.96 84.442 238.896C81.117 237.972 77.533 238.406 74.264 239.505C71.1505 240.571 68.1569 241.96 65.332 243.649Z" fill="#E0E0E0"/>
<path d="M46.2012 251.916C43.9122 247.296 44.1012 241.906 46.0402 237.146C47.4402 239.246 47.6012 241.962 47.3492 244.489C47.0972 247.016 46.3272 249.606 46.2712 252.14" fill="#E0E0E0"/>
<path d="M37.0364 247.303C34.1721 247.265 31.3314 247.825 28.6963 248.949C26.0613 250.072 23.69 251.734 21.7344 253.827C24.6272 254.174 27.5572 253.632 30.1344 252.273C32.6858 250.918 35.0922 249.307 37.3164 247.464" fill="#E0E0E0"/>
<path d="M30.892 245.245C28.092 245.021 25.411 244.678 22.723 245.497C21.3668 245.879 20.1088 246.549 19.0349 247.461C17.961 248.373 17.0964 249.506 16.5 250.782C19.1364 250.993 21.7811 250.493 24.158 249.333C26.5208 248.175 28.7746 246.807 30.892 245.245Z" fill="#E0E0E0"/>
<path d="M39.9933 245.343C37.4803 243.698 34.8973 242.018 31.9713 241.332C29.0453 240.646 25.6713 241.157 23.6133 243.362C25.9793 244.762 28.8563 244.916 31.6073 244.916C34.3583 244.916 37.7183 244.881 40.3083 245.798" fill="#E0E0E0"/>
<path d="M40.0055 245.476C35.7075 241.276 34.0835 233.674 35.8055 227.906C39.197 233.1 40.6814 239.31 40.0055 245.476Z" fill="#E0E0E0"/>
<path d="M51.8008 233.52C52.6128 231.63 53.2008 229.656 53.9008 227.738C54.5635 225.792 55.5817 223.986 56.9038 222.411C58.2431 220.815 60.1564 219.809 62.2308 219.611C61.5682 222.519 60.3073 225.256 58.5285 227.65C56.7496 230.043 54.4918 232.04 51.8988 233.513" fill="#E0E0E0"/>
<path d="M49.7019 236.012C48.3649 234.164 46.8109 231.658 44.9909 230.279C43.1709 228.9 40.7909 228.067 38.5859 228.592C39.7358 230.607 41.3389 232.326 43.2683 233.614C45.1977 234.902 47.4003 235.723 49.7019 236.012Z" fill="#E0E0E0"/>
<path d="M50.1142 233.674C49.1614 231.47 48.457 229.167 48.0142 226.807C47.5743 224.419 47.9542 221.952 49.0922 219.807C51.4512 224.266 52.2142 229.054 50.2612 233.709" fill="#E0E0E0"/>
<path d="M51.8516 219.8C53.1886 215.383 57.2346 212.1 61.6096 210.63C62.1499 210.408 62.7362 210.321 63.3176 210.378C63.6081 210.408 63.8832 210.524 64.1076 210.711C64.332 210.898 64.4956 211.147 64.5776 211.428C64.7386 212.177 64.1156 212.828 63.5276 213.353C60.1127 216.271 56.1403 218.464 51.8516 219.8Z" fill="#E0E0E0"/>
<path d="M51.8981 216.209C52.0661 213.353 52.2411 210.462 53.1721 207.76C54.1031 205.058 55.8881 202.531 58.4851 201.348C58.9261 204.225 57.6591 207.088 56.1261 209.566C54.5931 212.044 52.7451 214.382 51.8281 217.147" fill="#E0E0E0"/>
<path d="M51.8024 218.169C50.6964 214.949 50.5844 210.854 48.6524 208.047C47.3014 206.087 45.1524 204.75 43.9834 202.671C43.2814 204.665 43.3792 206.852 44.2564 208.775C45.134 210.677 46.3428 212.407 47.8264 213.885C49.2264 215.411 50.4724 216.559 51.8024 218.169Z" fill="#E0E0E0"/>
<path d="M51.8482 313.054C51.7642 313.054 51.6872 291.564 51.6802 265.055C51.6732 238.546 51.7432 217.049 51.8272 217.049C51.9112 217.049 51.9882 238.532 51.9952 265.055C52.0022 291.578 51.9322 313.054 51.8482 313.054Z" fill="#E0E0E0"/>
<path d="M70.6323 248.668C70.3755 248.799 70.1057 248.902 69.8273 248.976L67.6013 249.725C65.7253 250.362 63.1493 251.286 60.3563 252.434C57.5633 253.582 54.9733 254.583 53.4893 255.871C52.888 256.364 52.4088 256.989 52.0893 257.698C51.8723 258.202 51.8373 258.51 51.8093 258.51C51.7813 258.51 51.8093 258.426 51.8093 258.279C51.8449 258.067 51.8987 257.859 51.9703 257.656C52.2507 256.906 52.7124 256.238 53.3143 255.71C54.2122 254.951 55.217 254.328 56.2963 253.862C57.4863 253.302 58.8093 252.721 60.2093 252.147C63.0093 250.999 65.6063 250.103 67.5033 249.515C68.4553 249.221 69.2253 249.004 69.7643 248.857C70.0471 248.767 70.3377 248.704 70.6323 248.668Z" fill="#E0E0E0"/>
<path d="M76.7912 233.548C76.7254 233.638 76.6477 233.718 76.5602 233.786L75.8602 234.437L73.2842 236.775L64.7162 244.405C61.3702 247.387 58.4792 250.229 56.4772 252.371C55.4692 253.442 54.6782 254.331 54.1392 254.947L53.5162 255.647C53.4511 255.735 53.3732 255.813 53.2852 255.878C53.3374 255.78 53.4008 255.688 53.4742 255.605C53.6002 255.43 53.7892 255.171 54.0482 254.856C54.5592 254.212 55.3292 253.302 56.3162 252.21C58.9017 249.384 61.6356 246.697 64.5062 244.16C67.8662 241.192 70.9182 238.518 73.1372 236.6C74.2292 235.662 75.1252 234.899 75.7762 234.332L76.4762 233.73C76.5723 233.655 76.6783 233.594 76.7912 233.548Z" fill="#E0E0E0"/>
<path d="M61.1174 247.436C61.0264 247.394 61.7264 245.784 62.4264 243.74C63.1264 241.696 63.4554 239.981 63.5464 239.995C63.4738 241.311 63.1951 242.608 62.7204 243.838C62.4197 244.71 62.0716 245.566 61.6774 246.4C61.5368 246.768 61.3485 247.117 61.1174 247.436Z" fill="#E0E0E0"/>
<path d="M51.8687 260.442C51.6725 260.265 51.4985 260.065 51.3507 259.847L50.0277 258.153C48.9217 256.718 47.3887 254.737 45.6667 252.553C43.9447 250.369 42.3697 248.444 41.2217 247.037L39.8987 245.385C39.7216 245.189 39.5645 244.975 39.4297 244.748C39.634 244.916 39.8216 245.103 39.9897 245.308C40.3327 245.679 40.8227 246.232 41.3897 246.918C42.5797 248.318 44.1897 250.208 45.9117 252.378C47.6337 254.548 49.1387 256.578 50.2027 258.02C50.7417 258.72 51.1617 259.357 51.4487 259.777C51.6109 259.984 51.7517 260.206 51.8687 260.442Z" fill="#E0E0E0"/>
<path d="M47.7486 255.157C46.9187 254.239 46.3273 253.131 46.0266 251.93C45.6991 250.876 45.5663 249.77 45.6346 248.668H45.7746C45.7555 248.802 45.7103 248.93 45.6416 249.046C45.6416 249.046 45.6416 248.899 45.6416 248.647H45.7816C45.847 249.721 46.0301 250.784 46.3276 251.818C46.7202 252.964 47.1951 254.08 47.7486 255.157Z" fill="#E0E0E0"/>
<path d="M42.4342 248.5C42.0618 248.22 41.6577 247.985 41.2302 247.8C40.1467 247.473 39.0057 247.383 37.8842 247.534C36.7485 247.617 35.622 247.797 34.5172 248.073C34.0581 248.215 33.5905 248.327 33.1172 248.409C33.5259 248.157 33.9727 247.973 34.4402 247.863C35.5485 247.52 36.6921 247.304 37.8492 247.219C39.0103 247.065 40.1915 247.192 41.2932 247.59C41.7675 247.752 42.1708 248.074 42.4342 248.5Z" fill="#E0E0E0"/>
<path d="M41.1737 246.848C41.1737 246.897 40.4737 246.568 39.3257 246.148C36.3341 245.13 33.1329 244.889 30.0227 245.448C28.8327 245.658 28.1187 245.882 28.0977 245.833C28.2482 245.736 28.4138 245.665 28.5877 245.623C29.0455 245.462 29.5131 245.331 29.9877 245.231C31.5519 244.888 33.1578 244.775 34.7547 244.895C36.3487 245.019 37.9165 245.373 39.4097 245.945C39.8605 246.118 40.3001 246.319 40.7257 246.547C40.8895 246.624 41.0406 246.725 41.1737 246.848Z" fill="#E0E0E0"/>
<path d="M51.8002 239.995C51.2522 238.467 50.8033 236.905 50.4563 235.319C50.004 233.759 49.6533 232.171 49.4062 230.566C49.9549 232.094 50.4061 233.656 50.7573 235.242C51.2053 236.803 51.5537 238.39 51.8002 239.995Z" fill="#E0E0E0"/>
<path d="M51.9117 239.995C51.4813 239.028 50.9831 238.092 50.4207 237.195C49.7903 236.346 49.0514 235.584 48.2227 234.927C48.5351 235.007 48.8249 235.158 49.0697 235.368C49.6935 235.821 50.2356 236.378 50.6727 237.013C51.3414 237.88 51.7689 238.909 51.9117 239.995Z" fill="#E0E0E0"/>
<path d="M51.8513 301.595C51.8513 301.595 51.7533 301.077 51.5083 300.195C51.1651 298.911 50.6962 297.663 50.1083 296.471C48.0386 292.583 45.4791 288.977 42.4923 285.74C40.7913 283.794 39.1393 281.96 37.7393 280.203C36.4791 278.661 35.3416 277.023 34.3373 275.303C33.6619 274.141 33.0881 272.924 32.6223 271.663C32.4613 271.215 32.3493 270.865 32.2863 270.627C32.2454 270.506 32.2149 270.382 32.1953 270.256C32.1953 270.256 32.3773 270.746 32.7343 271.621C33.2429 272.854 33.8419 274.047 34.5263 275.191C35.552 276.884 36.6983 278.5 37.9563 280.028C39.3563 281.764 41.0223 283.584 42.7233 285.53C45.7319 288.787 48.2845 292.437 50.3113 296.38C50.8964 297.59 51.3493 298.86 51.6623 300.167C51.7452 300.523 51.8083 300.883 51.8513 301.245C51.8621 301.362 51.8621 301.479 51.8513 301.595Z" fill="#E0E0E0"/>
<path d="M68.8241 282.429C68.5365 282.61 68.2398 282.776 67.9351 282.926C67.1285 283.377 66.3564 283.887 65.6251 284.452C64.5417 285.29 63.5281 286.215 62.5941 287.217C61.5301 288.337 60.4381 289.639 59.3181 291.039C57.0851 293.839 54.9921 296.331 53.7181 298.312C53.0811 299.292 52.6191 300.118 52.3181 300.699C52.1743 301.008 52.0106 301.307 51.8281 301.595C51.8281 301.595 51.8281 301.504 51.9121 301.343C51.9961 301.182 52.0661 300.944 52.2061 300.643C52.6034 299.802 53.0522 298.986 53.5501 298.2C55.2505 295.647 57.0944 293.193 59.0731 290.85C60.1931 289.45 61.3061 288.148 62.3911 287.021C63.3458 286.023 64.3832 285.107 65.4921 284.284C66.2485 283.718 67.0544 283.221 67.9001 282.8C68.1271 282.684 68.3609 282.581 68.6001 282.492C68.7448 282.436 68.8195 282.415 68.8241 282.429Z" fill="#E0E0E0"/>
<path d="M69.1532 288.645C68.5329 288.781 67.9036 288.872 67.2702 288.918C65.7596 289.073 64.2668 289.368 62.8112 289.8C61.3713 290.268 60.0219 290.978 58.8212 291.9C57.9042 292.6 57.4702 293.195 57.4212 293.167C57.3722 293.139 57.4912 292.992 57.6942 292.733C57.9865 292.367 58.3148 292.032 58.6742 291.732C59.8651 290.738 61.2364 289.982 62.7131 289.506C64.187 289.066 65.7068 288.799 67.2422 288.708C67.8759 288.628 68.5156 288.607 69.1532 288.645Z" fill="#E0E0E0"/>
<path d="M57.9765 292.474C57.8785 292.418 58.7255 291.123 59.3765 289.38C60.0275 287.637 60.1395 286.083 60.2445 286.104C60.3043 286.437 60.3043 286.779 60.2445 287.112C60.1491 287.923 59.966 288.721 59.6985 289.492C59.4106 290.253 59.0447 290.983 58.6065 291.669C58.4437 291.971 58.2307 292.243 57.9765 292.474Z" fill="#E0E0E0"/>
<path d="M74.3186 265.727C74.2274 265.796 74.1258 265.85 74.0176 265.888L73.1356 266.287C72.7436 266.455 72.2746 266.665 71.7356 266.945C71.1966 267.225 70.5806 267.505 69.9366 267.89L68.9146 268.471C68.5576 268.681 68.2146 268.919 67.8296 269.171C67.0736 269.626 66.3176 270.193 65.5056 270.767C63.7899 272.069 62.171 273.493 60.6616 275.03C59.1804 276.583 57.8163 278.245 56.5806 280C56.0276 280.833 55.4886 281.61 55.0546 282.38C54.8376 282.758 54.6066 283.122 54.4106 283.486L53.8996 284.536C53.5356 285.194 53.2766 285.824 53.0176 286.363C52.7586 286.902 52.5626 287.378 52.4086 287.763C52.2546 288.148 52.1356 288.421 52.0376 288.659C51.9992 288.766 51.95 288.869 51.8906 288.967C51.904 288.853 51.9347 288.742 51.9816 288.638L52.2966 287.721C52.4366 287.322 52.6116 286.832 52.8566 286.286C53.1016 285.74 53.3466 285.096 53.7036 284.431C53.8716 284.088 54.0536 283.731 54.2356 283.367C54.4176 283.003 54.6486 282.667 54.8726 282.247C55.2996 281.463 55.8316 280.679 56.3776 279.839C58.8347 276.246 61.8804 273.094 65.3866 270.515C66.2056 269.941 66.9756 269.381 67.7386 268.933C68.1236 268.702 68.4806 268.457 68.8376 268.233L69.8806 267.659C70.5386 267.288 71.1686 267.015 71.7076 266.756C72.1633 266.528 72.6306 266.325 73.1076 266.147L74.0176 265.797C74.1154 265.764 74.2162 265.74 74.3186 265.727Z" fill="#E0E0E0"/>
<path d="M60.9023 274.729C61.0133 274.298 61.2584 273.913 61.6023 273.63C62.4304 272.91 63.4868 272.505 64.5843 272.489C65.6573 272.484 66.7206 272.691 67.7133 273.098C68.1326 273.233 68.5308 273.426 68.8963 273.672C68.4679 273.592 68.0482 273.47 67.6433 273.308C66.6616 272.969 65.6301 272.796 64.5913 272.797C63.5615 272.819 62.5657 273.17 61.7493 273.798C61.4428 274.086 61.1596 274.397 60.9023 274.729Z" fill="#E0E0E0"/>
<path d="M58.8789 276.801C59.2774 275.924 59.562 274.999 59.7259 274.05C59.7826 273.089 59.7191 272.125 59.5369 271.18C59.717 271.416 59.8371 271.692 59.8869 271.985C60.2489 273.369 60.0765 274.838 59.4039 276.101C59.1379 276.577 58.9069 276.822 58.8789 276.801Z" fill="#E0E0E0"/>
<path d="M37.0039 304.675C37.4659 312.893 39.9439 321.244 43.7519 329.693H60.3069C63.9399 321.328 66.2429 312.991 66.6489 304.675H37.0039Z" fill="#E0E0E0"/>
<path d="M63.9671 317.968C63.9671 318.052 58.5141 318.122 51.7941 318.122C45.0741 318.122 39.6211 318.052 39.6211 317.968C39.6211 317.884 45.0671 317.8 51.8011 317.8C58.5351 317.8 63.9671 317.884 63.9671 317.968Z" fill="#FAFAFA"/>
<path d="M63.5965 320.943C63.5965 321.027 58.4865 321.097 52.1865 321.097C45.8865 321.097 40.7695 321.027 40.7695 320.943C40.7695 320.859 45.8795 320.789 52.1865 320.789C58.4935 320.789 63.5965 320.859 63.5965 320.943Z" fill="#FAFAFA"/>
<path d="M44.0173 310.1C44.2226 312.637 44.2226 315.186 44.0173 317.723C43.8119 315.186 43.8119 312.637 44.0173 310.1Z" fill="#FAFAFA"/>
<path d="M52.8884 310.1C53.0937 312.728 53.0937 315.368 52.8884 317.996C52.683 315.368 52.683 312.728 52.8884 310.1Z" fill="#FAFAFA"/>
<path d="M61.2165 310.002C61.4218 312.684 61.4218 315.377 61.2165 318.059C61.0112 315.377 61.0112 312.684 61.2165 310.002Z" fill="#FAFAFA"/>
<path d="M66.1225 310.1C66.1225 310.184 59.7315 310.254 51.8495 310.254C43.9675 310.254 37.5625 310.184 37.5625 310.1C37.5625 310.016 43.9605 309.946 51.8495 309.946C59.7385 309.946 66.1225 309.981 66.1225 310.1Z" fill="#FAFAFA"/>
<path d="M322.972 233.471C324.487 232.802 325.772 231.703 326.67 230.311C327.567 228.919 328.036 227.294 328.019 225.638C328.019 220.962 324.519 217.154 320.116 217.14C315.713 217.126 312.157 220.892 312.143 225.54C312.111 227.209 312.574 228.85 313.474 230.257C314.373 231.663 315.669 232.772 317.197 233.443C304.982 235.284 305.535 248.556 305.535 248.556L334.424 248.689C334.424 248.689 335.082 235.298 322.972 233.471Z" fill="#EBEBEB"/>
<path d="M193.11 40.4669C194.174 40.258 195.154 39.7446 195.932 38.9891C196.71 38.2335 197.252 37.2685 197.492 36.2109C197.691 35.5323 197.75 34.8202 197.665 34.1181C197.58 33.416 197.353 32.7386 196.997 32.1271C196.642 31.5156 196.166 30.983 195.598 30.5616C195.03 30.1402 194.382 29.839 193.693 29.6762C193.005 29.5134 192.291 29.4925 191.594 29.6148C190.898 29.7371 190.233 29.9999 189.642 30.3874C189.05 30.7748 188.543 31.2787 188.153 31.8684C187.762 32.458 187.496 33.121 187.37 33.8169C187.101 34.8783 187.152 35.9956 187.519 37.0275C187.885 38.0593 188.55 38.9591 189.428 39.6129C181.357 38.9759 179.754 47.5299 179.754 47.5299L198.164 51.8909C198.164 51.8909 200.572 43.3999 193.11 40.4669Z" fill="#EBEBEB"/>
<path d="M323.765 111.727C324.648 111.175 325.349 110.376 325.782 109.429C326.215 108.482 326.361 107.429 326.201 106.4C326.149 105.719 325.957 105.056 325.638 104.452C325.319 103.848 324.88 103.315 324.347 102.888C323.814 102.46 323.199 102.146 322.541 101.965C321.882 101.785 321.193 101.741 320.517 101.837C319.84 101.932 319.191 102.166 318.608 102.523C318.025 102.879 317.522 103.352 317.129 103.911C316.736 104.47 316.462 105.103 316.324 105.772C316.185 106.441 316.185 107.131 316.324 107.8C316.453 108.842 316.889 109.822 317.575 110.616C318.262 111.409 319.169 111.981 320.181 112.259C312.754 114.506 314.287 122.71 314.287 122.71L332.263 120.197C332.263 120.197 331.458 111.776 323.765 111.727Z" fill="#F5F5F5"/>
<path d="M35.3379 114.268L25.6289 106.547L28.3169 103.159L34.8339 108.332L44.3399 97.699L47.5669 100.583L35.3379 114.268Z" fill="#F5F5F5"/>
<path d="M329.464 329.938C329.464 330.043 259.359 330.12 172.909 330.12C86.4588 330.12 16.3398 330.043 16.3398 329.938C16.3398 329.833 86.4238 329.756 172.909 329.756C259.394 329.756 329.464 329.84 329.464 329.938Z" fill="#263238"/>
<path d="M48.5802 125.447L27.1112 136.22C26.3323 136.56 25.6699 137.12 25.2059 137.831C24.7419 138.543 24.4965 139.375 24.5002 140.224V150.269C24.4755 159.406 27.136 168.349 32.1512 175.987C36.0222 181.881 41.1532 189.413 49.6862 193.718H53.5362C63.0422 190.82 70.1332 183.099 74.4662 176.491C79.4834 168.854 82.1463 159.911 82.1242 150.773V140.224C82.1231 139.371 81.8718 138.537 81.4015 137.826C80.9312 137.114 80.2625 136.556 79.4782 136.22L54.9852 125.797C53.9002 125.335 49.7002 124.985 48.5802 125.447Z" fill="#FF725E"/>
<path opacity="0.3" d="M48.5802 125.447L27.1112 136.22C26.3323 136.56 25.6699 137.12 25.2059 137.831C24.7419 138.543 24.4965 139.375 24.5002 140.224V150.269C24.4755 159.406 27.136 168.349 32.1512 175.987C36.0222 181.881 41.1532 189.413 49.6862 193.718H53.5362C63.0422 190.82 70.1332 183.099 74.4662 176.491C79.4834 168.854 82.1463 159.911 82.1242 150.773V140.224C82.1231 139.371 81.8718 138.537 81.4015 137.826C80.9312 137.114 80.2625 136.556 79.4782 136.22L54.9852 125.797C53.9002 125.335 49.7002 124.985 48.5802 125.447Z" fill="black"/>
<path d="M47.7204 125.797L23.2554 136.22C22.4711 136.556 21.8024 137.114 21.332 137.825C20.8617 138.537 20.6105 139.371 20.6094 140.224V150.269C20.6099 159.572 23.3696 168.666 28.5394 176.4C33.7091 184.134 41.0566 190.161 49.6524 193.718C59.1514 190.82 66.2424 183.099 70.5824 176.491C75.5996 168.854 78.2625 159.911 78.2404 150.773V140.224C78.2399 139.372 77.9896 138.538 77.5206 137.827C77.0516 137.115 76.3844 136.557 75.6014 136.22L51.1014 125.797C50.5661 125.573 49.9914 125.457 49.4109 125.457C48.8303 125.457 48.2557 125.573 47.7204 125.797Z" fill="#FF725E"/>
<path opacity="0.3" d="M55.2301 171.358C63.4877 168.155 67.5853 158.865 64.3824 150.607C61.1795 142.35 51.8889 138.252 43.6314 141.455C35.3738 144.658 31.2762 153.948 34.4791 162.206C37.682 170.464 46.9725 174.561 55.2301 171.358Z" fill="black"/>
<path d="M49.4226 157.297C53.0992 157.297 56.0796 154.317 56.0796 150.64C56.0796 146.964 53.0992 143.983 49.4226 143.983C45.7461 143.983 42.7656 146.964 42.7656 150.64C42.7656 154.317 45.7461 157.297 49.4226 157.297Z" fill="white"/>
<path d="M37.2695 166.859C38.3401 164.619 40.0297 162.733 42.1386 161.423C44.2474 160.113 46.6872 159.434 49.1695 159.467C51.7149 159.468 54.2131 160.154 56.401 161.455C58.5889 162.756 60.3855 164.623 61.6015 166.859C61.6015 166.859 57.6745 172.669 49.0015 172.459C46.7538 172.45 44.536 171.943 42.5075 170.975C40.479 170.007 38.6901 168.601 37.2695 166.859Z" fill="white"/>
<path d="M65.4601 156.408C65.4521 156.322 65.4521 156.235 65.4601 156.149C65.4601 155.96 65.4601 155.708 65.3971 155.393C65.3971 155.225 65.3971 155.036 65.3971 154.833C65.3971 154.63 65.3271 154.406 65.2921 154.133C65.2191 153.578 65.1068 153.028 64.9561 152.488C64.5755 150.993 63.9739 149.563 63.1711 148.246C62.1182 146.498 60.74 144.968 59.1111 143.738C57.1433 142.242 54.8508 141.23 52.4191 140.784C49.6274 140.27 46.749 140.512 44.0821 141.484C43.3604 141.735 42.6584 142.039 41.9821 142.394C41.3058 142.765 40.6556 143.181 40.0361 143.64C39.4059 144.114 38.8052 144.626 38.2371 145.173C37.6803 145.751 37.1612 146.363 36.6831 147.007C35.7031 148.334 34.94 149.809 34.4221 151.375C33.33 154.623 33.33 158.138 34.4221 161.385C34.9369 162.953 35.7003 164.428 36.6831 165.753C37.1611 166.4 37.6802 167.014 38.2371 167.594C38.8034 168.141 39.4043 168.651 40.0361 169.12C41.2514 170.047 42.6049 170.777 44.0471 171.283C46.714 172.255 49.5924 172.497 52.3841 171.983C54.6012 171.566 56.7052 170.685 58.5581 169.397C60.411 168.11 61.9711 166.446 63.1361 164.514C63.93 163.206 64.5223 161.785 64.8931 160.3C65.0432 159.758 65.1555 159.206 65.2291 158.648C65.2291 158.41 65.3131 158.186 65.3341 157.948C65.3551 157.71 65.3341 157.556 65.3341 157.388L65.3971 156.625C65.3899 156.539 65.3899 156.452 65.3971 156.366C65.4046 156.452 65.4046 156.539 65.3971 156.625C65.3971 156.821 65.3971 157.073 65.3971 157.395C65.3971 157.563 65.3971 157.752 65.3971 157.955C65.3971 158.158 65.3411 158.389 65.3061 158.655C65.2501 159.22 65.1471 159.78 64.9981 160.328C64.6429 161.845 64.0549 163.297 63.2551 164.633C61.3529 167.881 58.373 170.359 54.8333 171.638C51.2936 172.917 47.4177 172.915 43.8791 171.633C43.1585 171.374 42.4569 171.065 41.7791 170.709C41.09 170.322 40.4303 169.884 39.8051 169.4C39.154 168.923 38.5365 168.401 37.9571 167.839C37.3999 167.257 36.8808 166.64 36.4031 165.991C35.3954 164.636 34.6108 163.128 34.0791 161.525C33.5475 159.871 33.2667 158.146 33.2461 156.408C33.2656 154.67 33.5488 152.945 34.0861 151.291C34.6125 149.687 35.395 148.179 36.4031 146.825C36.8952 146.167 37.4283 145.54 37.9991 144.949C38.5764 144.387 39.1915 143.866 39.8401 143.388C40.4608 142.915 41.1133 142.484 41.7931 142.1C42.4707 141.742 43.1724 141.431 43.8931 141.169C46.6152 140.183 49.5513 139.941 52.3981 140.469C54.6562 140.903 56.7955 141.815 58.6728 143.143C60.55 144.471 62.1219 146.185 63.2831 148.169C64.0831 149.508 64.6711 150.963 65.0261 152.481C65.175 153.027 65.2781 153.584 65.3341 154.147C65.3341 154.392 65.4111 154.616 65.4251 154.847V155.414C65.4251 155.736 65.4251 155.988 65.4251 156.177C65.4432 156.253 65.4549 156.33 65.4601 156.408Z" fill="#263238"/>
<path d="M78.1568 148.05C78.1894 148.204 78.2059 148.362 78.2058 148.519C78.2058 148.855 78.2058 149.296 78.2618 149.849C78.3178 150.402 78.3178 151.13 78.2618 151.949C78.2618 152.362 78.2618 152.796 78.2618 153.265C78.2618 153.734 78.2618 154.224 78.1708 154.735C78.0728 155.764 78.0028 156.898 77.7858 158.102C77.6948 158.704 77.6178 159.327 77.4918 159.964C77.3658 160.601 77.2118 161.252 77.0718 161.924C76.3987 164.818 75.4614 167.644 74.2718 170.366C73.0425 173.075 71.5737 175.668 69.8828 178.115C69.0708 179.214 68.3218 180.278 67.5098 181.195C67.1178 181.657 66.7538 182.126 66.3688 182.539L65.2558 183.715C64.5558 184.492 63.8558 185.115 63.2538 185.668C62.7501 186.164 62.2196 186.631 61.6648 187.068L60.6288 187.908C60.5152 188.01 60.3908 188.099 60.2578 188.174C60.3573 188.057 60.4675 187.949 60.5868 187.852L61.5738 186.963C62.0148 186.585 62.5398 186.116 63.1138 185.563C63.6878 185.01 64.3878 184.359 65.0668 183.582L66.1588 182.392C66.5368 181.979 66.8588 181.51 67.2788 181.048C68.0698 180.131 68.8048 179.067 69.6098 177.961C71.2713 175.524 72.7187 172.948 73.9358 170.261C75.1187 167.551 76.0558 164.739 76.7358 161.861L77.1698 159.915C77.2958 159.285 77.3798 158.662 77.4848 158.067C77.7088 156.877 77.7928 155.75 77.9048 154.728C77.9678 154.217 78.0098 153.727 78.0238 153.265L78.0868 151.956C78.1498 151.137 78.1358 150.43 78.1358 149.856C78.1358 149.282 78.1358 148.869 78.1358 148.526C78.1308 148.367 78.1379 148.208 78.1568 148.05Z" fill="#263238"/>
<path d="M248.367 329.938H82.8448C81.7604 329.92 80.6901 329.688 79.6953 329.256C78.7005 328.824 77.8007 328.2 77.0472 327.42C76.2937 326.64 75.7014 325.719 75.3041 324.709C74.9068 323.7 74.7123 322.622 74.7318 321.538V68.544C74.7123 67.4596 74.9068 66.382 75.3041 65.3728C75.7014 64.3636 76.2937 63.4426 77.0472 62.6624C77.8007 61.8823 78.7005 61.2583 79.6953 60.8262C80.6901 60.3941 81.7604 60.1623 82.8448 60.144H248.367C249.451 60.1623 250.521 60.3941 251.515 60.8263C252.51 61.2585 253.409 61.8826 254.162 62.6628C254.915 63.4431 255.507 64.3641 255.903 65.3733C256.3 66.3825 256.493 67.46 256.473 68.544V321.552C256.491 322.635 256.296 323.711 255.899 324.719C255.502 325.726 254.91 326.645 254.157 327.424C253.404 328.203 252.505 328.826 251.512 329.257C250.518 329.688 249.45 329.92 248.367 329.938Z" fill="#263238"/>
<path d="M168.778 317.667C168.804 319.195 168.375 320.697 167.545 321.981C166.715 323.264 165.522 324.272 164.118 324.875C162.713 325.478 161.161 325.65 159.659 325.368C158.156 325.086 156.772 324.363 155.682 323.292C154.592 322.221 153.845 320.849 153.537 319.352C153.229 317.855 153.373 316.3 153.952 314.885C154.531 313.47 155.517 312.26 156.786 311.408C158.055 310.556 159.549 310.1 161.078 310.1C163.102 310.083 165.05 310.871 166.494 312.29C167.938 313.709 168.759 315.643 168.778 317.667Z" fill="#455A64"/>
<path d="M184.225 74.4102H147.125C146.78 74.4047 146.439 74.3312 146.121 74.1938C145.804 74.0565 145.517 73.858 145.277 73.6097C145.036 73.3614 144.847 73.0681 144.72 72.7466C144.593 72.4252 144.53 72.0818 144.535 71.7362C144.524 71.0374 144.791 70.3628 145.276 69.8602C145.762 69.3576 146.427 69.0681 147.125 69.0552H184.225C184.924 69.0681 185.589 69.3576 186.075 69.8602C186.56 70.3628 186.827 71.0374 186.816 71.7362C186.821 72.0818 186.758 72.4252 186.631 72.7466C186.504 73.0681 186.315 73.3614 186.074 73.6097C185.834 73.858 185.547 74.0565 185.23 74.1938C184.912 74.3312 184.571 74.4047 184.225 74.4102Z" fill="#455A64"/>
<path d="M250.594 79.4009H80.3125V304.703H250.594V79.4009Z" fill="white"/>
<path d="M250.594 79.4009H243.328V304.703H250.594V79.4009Z" fill="#F5F5F5"/>
<path d="M246.952 160.349C246.352 160.347 245.777 160.107 245.353 159.682C244.929 159.257 244.691 158.681 244.691 158.081V108.248C244.691 107.648 244.929 107.072 245.353 106.647C245.777 106.222 246.352 105.982 246.952 105.98C247.554 105.98 248.131 106.219 248.556 106.644C248.981 107.07 249.22 107.646 249.22 108.248V158.081C249.22 158.682 248.981 159.259 248.556 159.685C248.131 160.11 247.554 160.349 246.952 160.349Z" fill="#E0E0E0"/>
<path d="M228.383 130.676H102.831C101.873 130.676 100.954 130.296 100.277 129.618C99.5993 128.941 99.2188 128.022 99.2188 127.064C99.2188 126.106 99.5993 125.187 100.277 124.51C100.954 123.833 101.873 123.452 102.831 123.452H228.383C229.341 123.452 230.259 123.833 230.937 124.51C231.614 125.187 231.995 126.106 231.995 127.064C231.995 128.022 231.614 128.941 230.937 129.618C230.259 130.296 229.341 130.676 228.383 130.676Z" fill="#E0E0E0"/>
<path d="M209.07 104.3H130.089C129.131 104.3 128.212 103.919 127.534 103.242C126.857 102.565 126.477 101.646 126.477 100.688C126.477 99.73 126.857 98.8112 127.534 98.1339C128.212 97.4565 129.131 97.0759 130.089 97.0759H209.07C210.028 97.0759 210.946 97.4565 211.624 98.1339C212.301 98.8112 212.682 99.73 212.682 100.688C212.682 101.646 212.301 102.565 211.624 103.242C210.946 103.919 210.028 104.3 209.07 104.3Z" fill="#FF725E"/>
<path d="M210.553 145.215H120.659C119.701 145.215 118.782 144.834 118.105 144.157C117.427 143.48 117.047 142.561 117.047 141.603C117.047 140.645 117.427 139.726 118.105 139.049C118.782 138.372 119.701 137.991 120.659 137.991H210.553C211.027 137.991 211.497 138.084 211.935 138.266C212.373 138.447 212.772 138.713 213.107 139.049C213.442 139.384 213.708 139.782 213.89 140.221C214.071 140.659 214.165 141.129 214.165 141.603C214.165 142.077 214.071 142.547 213.89 142.985C213.708 143.423 213.442 143.822 213.107 144.157C212.772 144.492 212.373 144.758 211.935 144.94C211.497 145.122 211.027 145.215 210.553 145.215Z" fill="#E0E0E0"/>
<path d="M169.966 208.6H100.8C99.8415 208.6 98.9228 208.219 98.2454 207.542C97.5681 206.865 97.1875 205.946 97.1875 204.988C97.1875 204.514 97.2809 204.044 97.4625 203.606C97.644 203.168 97.91 202.769 98.2454 202.434C98.5808 202.098 98.979 201.832 99.4173 201.651C99.8555 201.469 100.325 201.376 100.8 201.376H169.966C170.441 201.376 170.911 201.469 171.349 201.651C171.787 201.832 172.185 202.098 172.521 202.434C172.856 202.769 173.122 203.168 173.304 203.606C173.485 204.044 173.578 204.514 173.578 204.988C173.578 205.946 173.198 206.865 172.521 207.542C171.843 208.219 170.924 208.6 169.966 208.6Z" fill="#E0E0E0"/>
<path d="M226.351 193.459H100.8C99.8415 193.459 98.9228 193.079 98.2454 192.401C97.5681 191.724 97.1875 190.805 97.1875 189.847C97.1875 189.373 97.281 188.904 97.4626 188.466C97.6442 188.028 97.9104 187.63 98.2459 187.296C98.5813 186.961 98.9796 186.695 99.4178 186.515C99.856 186.334 100.325 186.241 100.8 186.242H226.351C226.825 186.241 227.295 186.334 227.733 186.515C228.171 186.695 228.57 186.961 228.905 187.296C229.241 187.63 229.507 188.028 229.688 188.466C229.87 188.904 229.963 189.373 229.963 189.847C229.963 190.322 229.87 190.791 229.689 191.229C229.507 191.668 229.241 192.066 228.906 192.401C228.57 192.737 228.172 193.003 227.734 193.184C227.296 193.366 226.826 193.459 226.351 193.459Z" fill="#E0E0E0"/>
<path d="M226.353 234.955H116.46C114.465 234.955 112.848 236.572 112.848 238.567C112.848 240.562 114.465 242.179 116.46 242.179H226.353C228.347 242.179 229.965 240.562 229.965 238.567C229.965 236.572 228.347 234.955 226.353 234.955Z" fill="#E0E0E0"/>
<path d="M226.351 257.6H100.8C99.8415 257.6 98.9228 257.22 98.2454 256.542C97.5681 255.865 97.1875 254.946 97.1875 253.988C97.1912 253.033 97.5734 252.117 98.2504 251.443C98.9274 250.769 99.844 250.39 100.8 250.39H226.351C226.826 250.39 227.296 250.484 227.734 250.665C228.172 250.847 228.57 251.113 228.906 251.448C229.241 251.783 229.507 252.182 229.689 252.62C229.87 253.058 229.963 253.528 229.963 254.002C229.96 254.958 229.578 255.873 228.901 256.547C228.224 257.222 227.307 257.6 226.351 257.6Z" fill="#E0E0E0"/>
<path d="M226.351 273.294H100.8C99.8415 273.294 98.9228 272.913 98.2454 272.236C97.5681 271.559 97.1875 270.64 97.1875 269.682C97.1875 268.724 97.5681 267.805 98.2454 267.128C98.9228 266.45 99.8415 266.07 100.8 266.07H226.351C226.826 266.07 227.296 266.163 227.734 266.345C228.172 266.526 228.57 266.792 228.906 267.128C229.241 267.463 229.507 267.861 229.689 268.3C229.87 268.738 229.963 269.207 229.963 269.682C229.963 270.64 229.583 271.559 228.906 272.236C228.228 272.913 227.309 273.294 226.351 273.294Z" fill="#E0E0E0"/>
<path d="M106.449 238.567C106.449 239.309 106.229 240.035 105.817 240.652C105.404 241.269 104.818 241.75 104.132 242.034C103.446 242.318 102.691 242.392 101.963 242.246C101.235 242.101 100.566 241.743 100.042 241.218C99.5173 240.692 99.1605 240.023 99.0166 239.295C98.8726 238.566 98.9479 237.812 99.2329 237.126C99.518 236.441 100 235.855 100.618 235.444C101.236 235.032 101.962 234.814 102.704 234.815C103.698 234.817 104.651 235.213 105.353 235.916C106.055 236.62 106.449 237.573 106.449 238.567Z" fill="#FF725E"/>
<path d="M226.352 179.354H116.452C115.494 179.354 114.575 178.974 113.898 178.296C113.22 177.619 112.84 176.7 112.84 175.742C112.84 174.784 113.22 173.865 113.898 173.188C114.575 172.511 115.494 172.13 116.452 172.13H226.352C226.826 172.13 227.296 172.224 227.734 172.405C228.172 172.587 228.57 172.853 228.906 173.188C229.241 173.523 229.507 173.922 229.689 174.36C229.87 174.798 229.964 175.268 229.964 175.742C229.964 176.216 229.87 176.686 229.689 177.124C229.507 177.563 229.241 177.961 228.906 178.296C228.57 178.632 228.172 178.898 227.734 179.079C227.296 179.261 226.826 179.354 226.352 179.354Z" fill="#E0E0E0"/>
<path d="M102.705 179.494C104.777 179.494 106.457 177.814 106.457 175.742C106.457 173.67 104.777 171.99 102.705 171.99C100.633 171.99 98.9531 173.67 98.9531 175.742C98.9531 177.814 100.633 179.494 102.705 179.494Z" fill="#FF725E"/>
<path d="M222.843 296.261H194.668C193.142 296.261 191.678 295.655 190.599 294.576C189.52 293.497 188.914 292.033 188.914 290.507C188.914 288.981 189.52 287.517 190.599 286.438C191.678 285.359 193.142 284.753 194.668 284.753H222.843C224.369 284.753 225.833 285.359 226.912 286.438C227.991 287.517 228.597 288.981 228.597 290.507C228.597 292.033 227.991 293.497 226.912 294.576C225.833 295.655 224.369 296.261 222.843 296.261Z" fill="#FF725E"/>
<path d="M77.6999 24.7451L48.4959 39.3961C47.4272 39.8505 46.5157 40.6089 45.8748 41.5772C45.2338 42.5455 44.8916 43.6809 44.8909 44.8421V58.5061C44.8563 70.9417 48.4785 83.113 55.3069 93.5061C60.5709 101.5 67.5429 111.748 79.1559 117.6H84.3919C97.3139 113.659 106.96 103.152 112.861 94.1711C119.689 83.778 123.311 71.6067 123.277 59.1711V44.8421C123.278 43.684 122.94 42.5509 122.305 41.583C121.669 40.615 120.763 39.8547 119.7 39.3961L86.4079 25.2001C84.9239 24.5911 79.1839 24.1151 77.6999 24.7451Z" fill="#FF725E"/>
<path opacity="0.3" d="M77.6999 24.7451L48.4959 39.3961C47.4272 39.8505 46.5157 40.6089 45.8748 41.5772C45.2338 42.5455 44.8916 43.6809 44.8909 44.8421V58.5061C44.8563 70.9417 48.4785 83.113 55.3069 93.5061C60.5709 101.5 67.5429 111.748 79.1559 117.6H84.3919C97.3139 113.659 106.96 103.152 112.861 94.1711C119.689 83.778 123.311 71.6067 123.277 59.1711V44.8421C123.278 43.684 122.94 42.5509 122.305 41.583C121.669 40.615 120.763 39.8547 119.7 39.3961L86.4079 25.2001C84.9239 24.5911 79.1839 24.1151 77.6999 24.7451Z" fill="black"/>
<path d="M76.5252 25.2L43.2543 39.396C42.1864 39.8507 41.2758 40.6094 40.6361 41.5778C39.9963 42.5462 39.6555 43.6814 39.6563 44.842V58.506C39.6579 71.1584 43.4118 83.5261 50.443 94.0448C57.4742 104.564 67.4669 112.761 79.1572 117.6C92.0793 113.659 101.725 103.152 107.619 94.171C114.451 83.7793 118.073 71.6071 118.035 59.171V44.842C118.036 43.6814 117.695 42.5462 117.055 41.5778C116.416 40.6094 115.505 39.8507 114.437 39.396L81.2012 25.2C80.4624 24.8835 79.667 24.7202 78.8633 24.7202C78.0595 24.7202 77.2641 24.8835 76.5252 25.2Z" fill="#FF725E"/>
<path d="M117.929 55.489C117.937 55.5423 117.937 55.5967 117.929 55.65C117.929 55.776 117.929 55.93 117.929 56.119C117.929 56.567 117.964 57.169 117.992 57.932C118.02 58.695 118.062 59.675 117.992 60.795C117.992 61.355 117.992 61.95 117.936 62.58C117.936 62.902 117.936 63.224 117.936 63.56C117.936 63.896 117.873 64.26 117.838 64.589C117.698 65.989 117.607 67.529 117.313 69.16C117.18 69.972 117.075 70.826 116.907 71.687C116.739 72.548 116.529 73.437 116.333 74.347C115.408 78.2817 114.122 82.1223 112.49 85.82C110.822 89.5008 108.831 93.0263 106.54 96.355C105.434 97.853 104.44 99.302 103.32 100.555C102.781 101.185 102.291 101.822 101.766 102.382L100.254 103.992C99.3155 105.042 98.3495 105.875 97.5445 106.652C97.1315 107.03 96.7605 107.394 96.4035 107.709L95.4235 108.5L94.0235 109.648L93.6525 109.942C93.5685 110.005 93.5195 110.033 93.5195 110.026C93.5195 110.019 93.5195 109.984 93.6245 109.907L93.9745 109.592L95.3255 108.395L96.3125 107.534C96.6695 107.219 97.0125 106.834 97.4325 106.456C98.2235 105.672 99.1685 104.832 100.093 103.775L101.584 102.151C102.102 101.591 102.585 100.954 103.11 100.324C104.195 99.078 105.21 97.629 106.288 96.124C108.556 92.8024 110.531 89.2891 112.189 85.624C113.806 81.945 115.092 78.1288 116.032 74.221C116.235 73.318 116.424 72.436 116.62 71.582C116.816 70.728 116.9 69.874 117.04 69.062C117.348 67.438 117.453 65.905 117.607 64.512C117.649 64.169 117.684 63.812 117.719 63.497C117.754 63.182 117.719 62.839 117.761 62.524C117.789 61.894 117.817 61.299 117.845 60.739C117.922 59.626 117.901 58.639 117.901 57.883V56.126V55.65C117.899 55.595 117.909 55.5403 117.929 55.489Z" fill="#263238"/>
<path d="M92.0244 73.8502H88.4754V54.5372C88.4129 52.3928 87.5171 50.3571 85.9781 48.8623C84.4392 47.3676 82.3783 46.5315 80.2329 46.5315C78.0875 46.5315 76.0266 47.3676 74.4877 48.8623C72.9487 50.3571 72.0529 52.3928 71.9904 54.5372V73.8502H68.4414V54.5372C68.5164 51.4597 69.7916 48.5334 71.9948 46.3832C74.198 44.2331 77.1544 43.0295 80.2329 43.0295C83.3114 43.0295 86.2679 44.2331 88.471 46.3832C90.6742 48.5334 91.9494 51.4597 92.0244 54.5372V73.8502Z" fill="#F5F5F5"/>
<path d="M92.0567 60.7461H68.4108C66.1646 60.7461 64.3438 62.5669 64.3438 64.8131V81.5851C64.3438 83.8312 66.1646 85.6521 68.4108 85.6521H92.0567C94.3029 85.6521 96.1238 83.8312 96.1238 81.5851V64.8131C96.1238 62.5669 94.3029 60.7461 92.0567 60.7461Z" fill="white"/>
<path d="M92.0583 85.6522C92.4142 85.6145 92.7673 85.5538 93.1153 85.4702C93.9633 85.2255 94.7079 84.7097 95.235 84.0018C95.7622 83.2939 96.0429 82.4328 96.0343 81.5502C96.0343 80.7312 96.0343 79.8422 96.0343 78.8832C96.0343 76.9722 96.0343 74.7952 96.0343 72.3872C96.0343 69.9792 96.0343 67.3542 96.0343 64.5262C95.9817 63.8214 95.7391 63.1439 95.3324 62.5659C94.9257 61.9879 94.37 61.5308 93.7243 61.2432C93.0357 60.9597 92.2894 60.8445 91.5473 60.9072H89.1953L68.4123 60.9002C67.5387 60.8999 66.6905 61.194 66.0047 61.7351C65.3188 62.2761 64.8354 63.0325 64.6323 63.8822C64.5415 64.3052 64.5039 64.7379 64.5203 65.1702V69.1112C64.5203 72.6112 64.5203 75.9152 64.5203 79.1002C64.5833 80.6822 64.2543 82.3132 65.0663 83.5592C65.4258 84.1712 65.9442 84.6746 66.5665 85.016C67.1889 85.3573 67.892 85.524 68.6013 85.4982H76.4763L87.8793 85.5612H90.9733H91.7783C91.8714 85.5524 91.9652 85.5524 92.0583 85.5612C91.9653 85.5717 91.8714 85.5717 91.7783 85.5612H90.9733H87.8793L76.4763 85.6172H68.6013C68.0229 85.6431 67.4454 85.5502 66.9043 85.3442C66.3632 85.1381 65.8702 84.8233 65.4556 84.4192C65.041 84.0151 64.7136 83.5302 64.4938 82.9946C64.2739 82.459 64.1662 81.8841 64.1773 81.3052V79.1002C64.1773 75.9152 64.1773 72.5762 64.1773 69.1112V65.1982C64.1563 64.7283 64.1963 64.2577 64.2963 63.7982C64.5238 62.8808 65.054 62.0669 65.8013 61.4882C66.5548 60.8922 67.4867 60.5668 68.4473 60.5642H89.1533H91.5053C92.2945 60.5039 93.0865 60.6336 93.8153 60.9422C94.5116 61.2531 95.1102 61.7476 95.5467 62.3729C95.9833 62.9981 96.2414 63.7304 96.2933 64.4912C96.2933 67.3472 96.2933 69.9652 96.2933 72.3732C96.2933 74.7812 96.2933 76.9582 96.2933 78.8692C96.2933 79.8282 96.2933 80.7172 96.2933 81.5362C96.2941 82.3028 96.0807 83.0543 95.6773 83.7062C95.1285 84.6114 94.2462 85.2649 93.2203 85.5262C92.8442 85.6403 92.4501 85.683 92.0583 85.6522Z" fill="#263238"/>
<path d="M82.6716 73.8433C82.992 73.5238 83.246 73.1441 83.419 72.726C83.592 72.3079 83.6806 71.8597 83.6796 71.4073C83.6837 70.7551 83.5055 70.1148 83.1652 69.5585C82.8248 69.0022 82.3357 68.5521 81.7532 68.2589C81.1707 67.9657 80.5178 67.8411 79.8682 67.8991C79.2186 67.9572 78.5982 68.1955 78.0769 68.5874C77.5555 68.9792 77.154 69.5089 76.9177 70.1167C76.6813 70.7245 76.6194 71.3863 76.7391 72.0274C76.8587 72.6685 77.1551 73.2634 77.5948 73.745C78.0345 74.2267 78.6001 74.5759 79.2276 74.7533L78.4786 78.0713H81.8036L81.1036 74.7533C81.6846 74.5873 82.2127 74.2738 82.6366 73.8433" fill="#FF725E"/>
<path d="M299.475 98.8188V127.183C299.538 132.083 300.259 139.783 292.475 139.531C285.762 138.831 283.977 132.44 283.928 127.862C283.928 125.692 283.879 123.879 283.858 123.662C283.858 123.662 276.508 123.06 275.885 115.794C275.584 112.294 275.556 105.007 275.605 98.4198C275.635 95.0083 276.948 91.733 279.282 89.2454C281.617 86.7577 284.802 85.2399 288.205 84.9938L288.905 84.9448C296.514 84.8328 299.601 91.2238 299.475 98.8188Z" fill="#FFBF9D"/>
<path d="M283.879 123.662C287.237 123.404 290.451 122.19 293.14 120.162C293.14 120.162 291.222 125.643 283.921 125.517L283.879 123.662Z" fill="#FF9A6C"/>
<path d="M288.043 101.402C288.19 101.549 289.03 100.87 290.241 100.842C291.452 100.814 292.341 101.402 292.495 101.248C292.649 101.094 292.411 100.905 292.012 100.632C291.479 100.274 290.847 100.093 290.206 100.114C289.569 100.134 288.956 100.357 288.456 100.751C288.092 101.059 287.973 101.332 288.043 101.402Z" fill="#263238"/>
<path d="M288.023 104.839C288.038 105.096 288.153 105.338 288.345 105.511C288.536 105.684 288.788 105.774 289.045 105.763C289.171 105.764 289.295 105.74 289.412 105.692C289.528 105.644 289.633 105.573 289.721 105.483C289.809 105.394 289.878 105.288 289.925 105.171C289.971 105.054 289.993 104.929 289.99 104.804C289.974 104.548 289.859 104.309 289.67 104.137C289.48 103.964 289.231 103.872 288.975 103.88C288.85 103.88 288.725 103.905 288.61 103.953C288.494 104.001 288.388 104.072 288.3 104.161C288.211 104.25 288.141 104.356 288.094 104.472C288.046 104.589 288.023 104.713 288.023 104.839Z" fill="#263238"/>
<path d="M284.997 109.9C284.394 109.76 283.776 109.694 283.156 109.704C282.869 109.704 282.596 109.655 282.533 109.466C282.486 109.173 282.53 108.872 282.659 108.605C282.883 107.905 283.107 107.156 283.359 106.372C284.304 103.194 284.969 100.59 284.843 100.555C284.717 100.52 283.842 103.061 282.897 106.239C282.673 107.023 282.456 107.772 282.246 108.486C282.094 108.843 282.072 109.242 282.183 109.613C282.23 109.712 282.3 109.798 282.386 109.864C282.472 109.931 282.573 109.977 282.68 109.998C282.843 110.017 283.007 110.017 283.17 109.998C283.781 110.038 284.394 110.005 284.997 109.9Z" fill="#263238"/>
<path d="M288.562 96.2221C288.681 96.4951 289.654 96.292 290.823 96.348C291.992 96.404 292.923 96.663 293.084 96.404C293.14 96.285 292.958 96.033 292.566 95.795C292.044 95.502 291.459 95.3365 290.861 95.3122C290.262 95.2879 289.667 95.4054 289.122 95.655C288.709 95.858 288.513 96.0961 288.562 96.2221Z" fill="#263238"/>
<path d="M277.006 98.0419C277.139 98.2659 278.084 98.0419 279.239 97.9859C280.394 97.9299 281.339 98.0979 281.465 97.8669C281.514 97.7549 281.325 97.5589 280.926 97.3839C280.386 97.1684 279.805 97.0728 279.225 97.1039C278.636 97.1201 278.059 97.2634 277.531 97.5239C277.139 97.7269 276.95 97.9369 277.006 98.0419Z" fill="#263238"/>
<path d="M266.001 91.9029C266.042 91.7552 266.112 91.6172 266.207 91.497C266.302 91.3768 266.42 91.2768 266.554 91.2029C267.135 90.9387 267.775 90.8348 268.409 90.9019C270.348 90.8661 272.239 90.2917 273.869 89.2429C274.631 88.1487 275.481 87.1186 276.41 86.1629C278.615 83.8949 280.421 82.3479 282.297 81.5919C284.719 80.6189 288.772 80.1919 291.299 80.8919C293.826 81.5919 296.094 83.6079 296.451 86.1909C297.851 84.9939 299.993 85.0079 301.722 85.7009H301.764C303.682 86.4009 304.774 88.4169 305.341 90.3769C305.908 92.3369 306.153 94.4369 307.189 96.1939C307.406 96.5579 307.665 96.9989 307.476 97.3839C307.389 97.5233 307.261 97.6327 307.11 97.6978C306.958 97.7628 306.791 97.7802 306.629 97.7479C306.305 97.6785 305.999 97.54 305.733 97.3419C305.95 97.8599 306.16 98.3709 306.377 98.8819C305.677 99.0038 304.957 98.9583 304.277 98.7489C303.925 100.496 303.469 102.221 302.912 103.915C302.196 103.83 301.473 104.007 300.875 104.412C300.175 105.021 299.902 106.162 298.775 105.728C298.208 105.504 297.69 104.328 297.494 103.733C296.228 99.8561 295.81 95.7523 296.269 91.6999C295.473 90.852 294.523 90.1631 293.469 89.6699L293.553 89.7469C291.523 89.0469 289.227 88.3469 287.302 89.2989C285.811 90.0409 284.936 91.5879 283.802 92.7989C282.776 93.95 281.526 94.8805 280.129 95.5339C278.732 96.1873 277.217 96.55 275.675 96.5999C275.57 98.6439 275.738 101.535 275.633 103.6L273.911 100.324C273.776 100.097 273.652 99.8633 273.54 99.6239V99.5539C273.368 99.1541 273.174 98.7638 272.959 98.3849C272.721 98.5764 272.422 98.6764 272.116 98.6667C271.811 98.657 271.519 98.5382 271.293 98.3319C271.067 98.1256 270.923 97.8454 270.885 97.5419C270.848 97.2383 270.921 96.9315 271.09 96.6769C271.263 96.4391 271.471 96.2291 271.706 96.0539C271.457 96.2972 271.148 96.4711 270.81 96.5582C270.472 96.6454 270.118 96.6429 269.781 96.5509C269.448 96.4493 269.158 96.2406 268.955 95.9571C268.753 95.6736 268.649 95.3311 268.661 94.9829C268.69 94.7488 268.78 94.5262 268.921 94.3372C269.062 94.1482 269.25 93.9992 269.466 93.9049C268.565 93.9772 267.663 93.7773 266.876 93.3309C266.316 93.0299 265.812 92.5469 266.001 91.9029Z" fill="#263238"/>
<path d="M294.148 87.0378C294.402 87.2504 294.636 87.4846 294.848 87.7378C295.424 88.4294 295.807 89.2597 295.961 90.1458C296.089 90.7536 296.152 91.3729 296.15 91.9938C296.15 92.6938 296.101 93.3938 296.045 94.1358C295.979 94.9274 295.963 95.7223 295.996 96.5158C296.016 96.9395 296.07 97.3609 296.157 97.7758C296.223 98.2183 296.398 98.6373 296.668 98.9938C296.796 99.1351 296.957 99.241 297.138 99.3011C297.318 99.3612 297.511 99.3736 297.697 99.3368C298.053 99.2719 298.375 99.0894 298.614 98.8188C299.01 98.2773 299.252 97.6387 299.314 96.9708H299.167C299.384 97.5204 299.681 98.0347 300.049 98.4969C300.402 98.9217 300.902 99.1969 301.449 99.2668C301.707 99.2925 301.966 99.2465 302.198 99.1338C302.415 99.0206 302.593 98.8451 302.709 98.6298C302.815 98.4317 302.868 98.2101 302.863 97.9858C302.852 97.777 302.768 97.5787 302.625 97.4258L302.548 97.4958C302.981 97.9903 303.513 98.3885 304.109 98.6648C304.319 98.7582 304.48 98.8212 304.592 98.8538L304.767 98.8958L304.606 98.8258C304.494 98.7768 304.333 98.7138 304.137 98.6158C303.56 98.323 303.046 97.9185 302.625 97.4258L302.548 97.4958C302.668 97.6482 302.736 97.8338 302.745 98.027C302.754 98.2202 302.702 98.4113 302.597 98.5739C302.494 98.7636 302.335 98.9175 302.142 99.0148C301.925 99.1196 301.682 99.1585 301.442 99.1268C300.931 99.0682 300.461 98.8181 300.126 98.4268C299.775 97.9727 299.489 97.4706 299.279 96.9358L299.174 96.7048L299.125 96.9568C299.051 97.596 298.809 98.2043 298.425 98.7208C298.206 98.9585 297.917 99.1203 297.599 99.1828C297.441 99.215 297.277 99.2054 297.124 99.1551C296.971 99.1048 296.833 99.0154 296.724 98.8958C296.473 98.5622 296.311 98.1692 296.255 97.7548C296.169 97.3489 296.113 96.9371 296.087 96.5228C296.054 95.7339 296.07 94.9437 296.136 94.1568C296.178 93.4008 296.227 92.6868 296.22 92.0078C296.216 91.3792 296.146 90.7528 296.01 90.1388C295.84 89.236 295.432 88.395 294.827 87.7028C294.641 87.4441 294.411 87.2192 294.148 87.0378Z" fill="#455A64"/>
<path d="M271.672 94.1007L271.735 94.1497C271.792 94.1984 271.853 94.2428 271.917 94.2827C272.012 94.3607 272.116 94.4287 272.225 94.4857C272.368 94.57 272.515 94.6471 272.666 94.7167C273.639 95.1581 274.707 95.3506 275.774 95.2767C277.361 95.1696 278.883 94.6056 280.156 93.6527C281.696 92.4805 282.978 91.003 283.922 89.3127C284.454 88.4377 284.881 87.5347 285.322 86.7017C285.774 85.8883 286.34 85.1435 287.002 84.4897C287.584 83.896 288.306 83.458 289.102 83.2157C289.462 83.116 289.835 83.0735 290.208 83.0897C290.547 83.1154 290.881 83.186 291.202 83.2997C291.767 83.4916 292.285 83.8018 292.721 84.2097C293.05 84.5174 293.327 84.8768 293.54 85.2737C293.709 85.6205 293.834 85.9874 293.911 86.3657C293.911 86.3657 293.911 86.3657 293.911 86.2887C293.911 86.2117 293.911 86.1557 293.876 86.0647C293.818 85.7809 293.724 85.5057 293.596 85.2457C293.106 84.2827 292.263 83.5456 291.244 83.1877C290.907 83.0705 290.556 82.9975 290.201 82.9707C289.814 82.9544 289.427 82.9969 289.053 83.0967C288.234 83.3384 287.49 83.784 286.89 84.3917C286.23 85.0527 285.671 85.8075 285.231 86.6317C284.748 87.4717 284.314 88.3677 283.796 89.2427C282.859 90.9109 281.594 92.3727 280.079 93.5407C278.832 94.4853 277.34 95.0514 275.781 95.1717C274.731 95.2545 273.676 95.0815 272.708 94.6677C272.351 94.5004 272.005 94.311 271.672 94.1007Z" fill="#455A64"/>
<path d="M271.012 90.9088C271.012 90.9088 271.096 90.9858 271.271 91.0908C271.517 91.2403 271.775 91.3713 272.041 91.4828C272.437 91.6511 272.847 91.7846 273.266 91.8818C273.778 92.0024 274.301 92.0727 274.827 92.0918C275.354 92.1048 275.881 92.0696 276.402 91.9868C276.823 91.9157 277.238 91.808 277.641 91.6648C277.915 91.571 278.182 91.4564 278.439 91.3218C278.535 91.2783 278.627 91.2243 278.712 91.1608C278.712 91.1608 278.299 91.3358 277.606 91.5528C277.202 91.6731 276.79 91.7666 276.374 91.8328C275.864 91.9038 275.349 91.9342 274.834 91.9238C274.319 91.901 273.806 91.8378 273.301 91.7348C272.888 91.6441 272.484 91.5224 272.09 91.3708C271.418 91.1118 271.026 90.8808 271.012 90.9088Z" fill="#455A64"/>
<path d="M276.956 101.402C277.096 101.549 277.936 100.87 279.154 100.842C280.372 100.814 281.254 101.402 281.408 101.248C281.562 101.094 281.317 100.905 280.925 100.632C280.389 100.274 279.755 100.093 279.112 100.114C278.478 100.133 277.866 100.357 277.369 100.751C276.998 101.059 276.879 101.332 276.956 101.402Z" fill="#263238"/>
<path d="M278.195 104.839C278.212 105.094 278.327 105.334 278.516 105.506C278.705 105.679 278.954 105.771 279.21 105.763C279.336 105.764 279.461 105.74 279.577 105.692C279.694 105.644 279.799 105.573 279.888 105.484C279.977 105.394 280.047 105.288 280.094 105.171C280.141 105.055 280.164 104.93 280.162 104.804C280.144 104.548 280.028 104.308 279.837 104.136C279.647 103.964 279.397 103.872 279.14 103.88C279.015 103.88 278.891 103.905 278.776 103.953C278.66 104.001 278.555 104.072 278.467 104.162C278.379 104.251 278.31 104.357 278.263 104.473C278.217 104.589 278.194 104.714 278.195 104.839Z" fill="#263238"/>
<path d="M299.285 104.244C299.404 104.181 304.185 102.403 304.374 107.38C304.563 112.357 299.537 111.531 299.523 111.391C299.509 111.251 299.285 104.244 299.285 104.244Z" fill="#FFBF9D"/>
<path d="M301.003 109.445C301.003 109.445 301.094 109.501 301.241 109.564C301.45 109.645 301.682 109.645 301.892 109.564C302.204 109.347 302.454 109.05 302.614 108.704C302.774 108.358 302.838 107.976 302.802 107.597C302.801 107.17 302.703 106.748 302.515 106.365C302.46 106.209 302.367 106.069 302.245 105.958C302.123 105.847 301.975 105.768 301.815 105.728C301.715 105.708 301.611 105.723 301.521 105.77C301.43 105.817 301.359 105.894 301.318 105.987C301.255 106.127 301.318 106.225 301.262 106.239C301.206 106.253 301.157 106.162 301.185 105.952C301.21 105.828 301.274 105.716 301.367 105.63C301.502 105.524 301.671 105.472 301.843 105.483C302.048 105.516 302.242 105.601 302.406 105.729C302.57 105.858 302.699 106.026 302.781 106.218C303.015 106.647 303.138 107.129 303.138 107.618C303.138 108.619 302.676 109.578 301.962 109.816C301.83 109.86 301.69 109.874 301.551 109.857C301.413 109.841 301.281 109.793 301.164 109.718C301.003 109.564 300.954 109.452 301.003 109.445Z" fill="#FF9A6C"/>
<path d="M288.542 110.894C288.584 110.894 288.584 111.188 288.416 111.594C288.172 112.14 287.773 112.603 287.268 112.924C286.777 113.255 286.194 113.421 285.602 113.4C285.147 113.358 284.902 113.204 284.902 113.169C284.902 113.134 285.182 113.169 285.602 113.169C286.136 113.129 286.651 112.956 287.1 112.665C287.553 112.374 287.934 111.984 288.213 111.524C288.402 111.139 288.486 110.88 288.542 110.894Z" fill="#263238"/>
<path d="M313.601 307.713L315.085 324.513L320.349 337.505C320.435 337.731 320.472 337.973 320.458 338.215C320.444 338.457 320.378 338.693 320.265 338.907C320.153 339.122 319.996 339.31 319.805 339.459C319.614 339.608 319.394 339.715 319.159 339.773C318.88 339.856 318.587 339.874 318.3 339.825C318.014 339.777 317.742 339.663 317.507 339.493C314.504 337.309 303.675 329.273 303.556 328.23C303.402 326.872 300.637 310.331 300.637 310.331L313.601 307.713Z" fill="#455A64"/>
<path d="M319.201 339.794L303.297 326.333L303.458 327.579C303.563 328.279 303.577 328.629 304.053 329.056C308.279 332.884 312.72 336.469 317.353 339.794C317.638 339.927 317.948 339.996 318.263 339.996C318.577 339.996 318.888 339.927 319.173 339.794H319.201Z" fill="#263238"/>
<path d="M306.39 321.083C306.623 321.203 306.801 321.408 306.887 321.656C306.973 321.903 306.96 322.174 306.852 322.413C306.712 322.644 306.493 322.816 306.235 322.897C305.978 322.978 305.699 322.963 305.452 322.854C305.209 322.725 305.025 322.509 304.936 322.248C304.848 321.988 304.862 321.704 304.976 321.454C305.146 321.227 305.393 321.071 305.671 321.015C305.949 320.959 306.237 321.009 306.481 321.153" fill="white"/>
<path d="M314.259 332.864C314.364 332.906 314.665 331.982 315.659 331.408C316.291 331.1 316.97 330.903 317.668 330.827C317.668 330.785 317.437 330.68 317.017 330.666C316.463 330.661 315.918 330.809 315.442 331.093C314.978 331.362 314.604 331.761 314.364 332.241C314.21 332.605 314.21 332.857 314.259 332.864Z" fill="#263238"/>
<path d="M315.784 334.985C315.875 335.055 316.386 334.446 317.282 334.11C317.848 333.946 318.423 333.818 319.004 333.725C318.71 333.59 318.388 333.524 318.065 333.531C317.741 333.539 317.423 333.619 317.135 333.767C316.113 334.159 315.7 334.95 315.784 334.985Z" fill="#263238"/>
<path d="M311.563 330.225C312.264 329.668 313.005 329.165 313.782 328.72C314.621 328.376 315.485 328.093 316.365 327.873C315.411 327.729 314.437 327.912 313.6 328.391C312.158 329.084 311.5 330.183 311.563 330.225Z" fill="#263238"/>
<path d="M310.66 325.143C310.716 325.241 311.661 324.751 312.935 324.583C314.209 324.415 315.266 324.583 315.294 324.492C314.543 324.132 313.693 324.033 312.879 324.212C312.055 324.261 311.273 324.59 310.66 325.143Z" fill="#263238"/>
<path d="M310.099 320.215C310.836 319.845 311.639 319.626 312.461 319.571C313.283 319.516 314.108 319.625 314.887 319.893C314.887 319.851 314.698 319.662 314.257 319.48C313.677 319.252 313.053 319.156 312.43 319.2C311.81 319.235 311.206 319.415 310.666 319.725C310.246 319.963 310.057 320.18 310.099 320.215Z" fill="#263238"/>
<path d="M312.303 318.633C312.303 318.633 312.345 318.402 312.261 317.996C312.138 317.418 311.9 316.87 311.561 316.386C311.331 316.003 310.982 315.706 310.567 315.539C310.423 315.496 310.27 315.495 310.126 315.538C309.982 315.58 309.853 315.663 309.755 315.777C309.672 315.889 309.612 316.017 309.578 316.153C309.544 316.289 309.538 316.43 309.559 316.568C309.681 317.145 309.998 317.661 310.457 318.03C310.917 318.399 311.49 318.597 312.079 318.591C312.668 318.6 313.246 318.438 313.743 318.123C314.241 317.808 314.635 317.356 314.879 316.82C314.935 316.689 314.96 316.547 314.952 316.406C314.945 316.264 314.906 316.125 314.837 316.001C314.747 315.88 314.624 315.787 314.482 315.736C314.34 315.685 314.186 315.677 314.039 315.714C313.616 315.851 313.233 316.091 312.926 316.414C312.49 316.815 312.128 317.289 311.855 317.814C311.742 317.999 311.671 318.207 311.645 318.423C312.045 317.74 312.543 317.12 313.122 316.582C313.397 316.311 313.733 316.109 314.102 315.994C314.182 315.972 314.266 315.974 314.344 316.002C314.421 316.03 314.489 316.081 314.536 316.148C314.575 316.233 314.595 316.324 314.595 316.417C314.595 316.51 314.575 316.602 314.536 316.687C314.313 317.141 313.968 317.524 313.538 317.791C313.109 318.058 312.613 318.2 312.107 318.199C311.608 318.201 311.122 318.035 310.729 317.728C310.335 317.42 310.057 316.99 309.937 316.505C309.903 316.313 309.943 316.115 310.049 315.952C310.102 315.887 310.173 315.84 310.253 315.816C310.333 315.792 310.418 315.793 310.497 315.819C310.848 315.96 311.148 316.204 311.358 316.519C311.801 317.159 312.122 317.876 312.303 318.633Z" fill="#263238"/>
<path d="M271.223 308.581L271.881 322.826C271.881 322.826 256.698 328.244 256.551 330.89L285.986 330.673L285.923 308.434L271.223 308.581Z" fill="#455A64"/>
<path d="M280.975 321.559C281.252 321.628 281.493 321.799 281.649 322.038C281.805 322.277 281.864 322.566 281.815 322.847C281.73 323.123 281.545 323.357 281.297 323.504C281.048 323.65 280.753 323.698 280.471 323.638C280.179 323.566 279.925 323.386 279.761 323.134C279.597 322.881 279.536 322.576 279.589 322.28C279.705 321.996 279.923 321.767 280.201 321.637C280.479 321.507 280.795 321.487 281.087 321.58" fill="#E0E0E0"/>
<path d="M285.987 330.673L285.889 328.433L257.7 329.476C257.7 329.476 256.398 330.022 256.552 330.876L285.987 330.673Z" fill="#263238"/>
<path d="M271.403 322.7C271.403 322.833 272.103 322.889 272.803 323.316C273.503 323.743 273.895 324.31 274.028 324.254C274.161 324.198 273.937 323.421 273.069 322.917C272.201 322.413 271.368 322.567 271.403 322.7Z" fill="#263238"/>
<path d="M268.324 323.911C268.324 324.044 268.919 324.268 269.409 324.835C269.899 325.402 270.053 326.011 270.193 326.004C270.333 325.997 270.424 325.227 269.794 324.534C269.164 323.841 268.331 323.785 268.324 323.911Z" fill="#263238"/>
<path d="M266.602 327.397C266.735 327.397 266.924 326.753 266.553 325.997C266.182 325.241 265.503 324.975 265.44 325.087C265.377 325.199 265.804 325.591 266.098 326.2C266.392 326.809 266.462 327.39 266.602 327.397Z" fill="#263238"/>
<path d="M271.634 319.424C271.697 319.55 272.334 319.361 273.167 319.424C274 319.487 274.616 319.704 274.686 319.592C274.756 319.48 274.154 318.997 273.195 318.955C272.236 318.913 271.599 319.319 271.634 319.424Z" fill="#263238"/>
<path d="M266.098 206.276C266.098 207.095 269.514 320.971 269.514 320.971H287.714L291.403 223.559C291.403 223.559 295.708 274.491 295.708 275.59C295.708 276.689 299.502 321.517 299.502 321.517L316.372 320.222L315.259 217.7L313.201 202.664L266.098 206.276Z" fill="#263238"/>
<path d="M293.3 219.954C293.069 220.085 292.822 220.184 292.565 220.248C292.082 220.416 291.375 220.647 290.507 220.948L290.346 220.997V220.836C290.248 219.471 290.129 217.637 290.024 215.628C289.905 213.451 289.821 211.484 289.779 210.028C289.779 209.328 289.744 208.733 289.744 208.334C289.723 208.125 289.737 207.915 289.786 207.711C289.844 207.911 289.877 208.118 289.884 208.327C289.933 208.726 289.982 209.307 290.031 210.014C290.143 211.414 290.269 213.409 290.381 215.614C290.493 217.623 290.57 219.457 290.612 220.829L290.437 220.717C291.319 220.472 292.033 220.276 292.537 220.15C292.784 220.06 293.04 219.994 293.3 219.954Z" fill="#455A64"/>
<path d="M291.899 208.117C291.899 208.117 291.955 208.026 292.144 207.963C292.41 207.893 292.692 207.918 292.942 208.033C293.13 208.102 293.291 208.23 293.401 208.397C293.51 208.565 293.563 208.764 293.551 208.964C293.527 209.217 293.421 209.455 293.249 209.642C293.078 209.83 292.849 209.955 292.599 210C292.344 210.038 292.084 210.005 291.847 209.905C291.61 209.805 291.405 209.642 291.255 209.433C291.15 209.272 291.094 209.083 291.094 208.89C291.094 208.698 291.15 208.509 291.255 208.348C291.4 208.131 291.611 207.966 291.857 207.879C292.039 207.816 292.144 207.83 292.151 207.844C292.158 207.858 291.738 207.977 291.486 208.453C291.412 208.58 291.376 208.726 291.384 208.872C291.391 209.019 291.441 209.16 291.528 209.279C291.641 209.429 291.792 209.545 291.966 209.617C292.14 209.688 292.329 209.712 292.515 209.685C292.688 209.652 292.848 209.567 292.972 209.442C293.097 209.318 293.182 209.158 293.215 208.985C293.229 208.841 293.198 208.697 293.126 208.572C293.055 208.447 292.946 208.346 292.816 208.285C292.536 208.133 292.215 208.074 291.899 208.117Z" fill="#455A64"/>
<path d="M300.259 209.3C300.161 209.3 300.021 208.81 299.951 208.194C299.881 207.578 299.902 207.067 300 207.06C300.098 207.053 300.238 207.543 300.308 208.159C300.378 208.775 300.357 209.3 300.259 209.3Z" fill="#455A64"/>
<path d="M301.518 209.167C301.42 209.167 301.336 208.642 301.336 207.991C301.336 207.34 301.406 206.815 301.511 206.815C301.616 206.815 301.693 207.34 301.693 207.991C301.693 208.642 301.623 209.167 301.518 209.167Z" fill="#455A64"/>
<path d="M279.588 209.951C279.49 209.951 279.336 209.37 279.245 208.635C279.154 207.9 279.161 207.284 279.245 207.277C279.329 207.27 279.497 207.858 279.588 208.6C279.679 209.342 279.686 209.944 279.588 209.951Z" fill="#455A64"/>
<path d="M281.119 210.063C280.796 209.671 280.636 209.17 280.671 208.663C280.596 208.173 280.708 207.673 280.986 207.263C281.091 207.263 280.986 207.907 281.035 208.663C281.084 209.419 281.217 210.035 281.119 210.063Z" fill="#455A64"/>
<path d="M275.368 208.544C275.375 208.712 275.354 208.88 275.305 209.041C275.217 209.495 275.095 209.942 274.941 210.378C274.422 211.847 273.66 213.22 272.687 214.438C271.676 215.693 270.477 216.784 269.131 217.672C268.717 217.945 268.287 218.193 267.843 218.414C267.681 218.505 267.51 218.577 267.332 218.631C267.332 218.589 267.99 218.225 268.991 217.504C270.279 216.59 271.433 215.501 272.421 214.27C273.375 213.069 274.15 211.737 274.724 210.315C275.151 209.23 275.312 208.53 275.368 208.544Z" fill="#455A64"/>
<path d="M314.708 216.216C314.529 216.269 314.343 216.298 314.155 216.3C313.647 216.34 313.137 216.34 312.629 216.3C310.968 216.14 309.369 215.583 307.967 214.676C306.64 213.807 305.569 212.598 304.866 211.176C304.662 210.763 304.502 210.328 304.39 209.881C304.334 209.724 304.307 209.558 304.313 209.391C304.369 209.391 304.523 210.091 305.076 211.092C305.815 212.446 306.875 213.597 308.163 214.445C309.521 215.321 311.056 215.885 312.657 216.097C313.91 216.237 314.701 216.16 314.708 216.216Z" fill="#455A64"/>
<path d="M285.064 273.882C285.064 273.959 282.026 273.301 278.33 272.426C274.634 271.551 271.652 270.767 271.68 270.69C271.708 270.613 274.718 271.264 278.414 272.146C282.11 273.028 285.085 273.805 285.064 273.882Z" fill="#455A64"/>
<path d="M314.379 269.738C314.421 269.808 311.796 271.173 308.52 272.797C305.244 274.421 302.542 275.674 302.5 275.597C302.458 275.52 305.083 274.155 308.359 272.538C311.635 270.921 314.337 269.668 314.379 269.738Z" fill="#455A64"/>
<path d="M257.266 167.713L259.751 170.828V165.473H267.591C267.591 165.473 268.459 177.73 268.291 180.341C268.105 181.702 267.784 183.041 267.332 184.338C267.098 185.093 266.673 185.775 266.099 186.318C265.525 186.861 264.82 187.246 264.053 187.438C263.286 187.629 262.483 187.62 261.721 187.41C260.959 187.201 260.264 186.798 259.702 186.242C258.825 185.388 258.006 184.476 257.252 183.512C253.752 179.032 247.984 168.112 247.984 168.112L254.032 164.5L257.266 167.713Z" fill="#FFBF9D"/>
<path d="M256.77 167.139C257.066 167.636 257.408 168.105 257.792 168.539C258.492 169.358 259.374 170.485 260.417 171.703C261.46 172.921 262.454 173.999 263.217 174.734C263.603 175.158 264.052 175.521 264.547 175.812C264.191 175.368 263.808 174.947 263.399 174.552C262.699 173.782 261.733 172.683 260.69 171.465C258.625 168.987 256.861 167.055 256.77 167.139Z" fill="#FF9A6C"/>
<path d="M275.145 130.06L283.412 126.812L298.637 125.951L305.791 128.674L295.984 134.12L287.528 133.812L275.145 130.06Z" fill="#FFBF9D"/>
<path d="M265.393 207.83C266.142 207.956 316.024 210.077 316.024 210.077L314.302 165.2L314.155 156.394L311.355 129.717C311.355 129.717 303.893 127.148 300.092 125.923C300.092 125.923 296.088 130.123 288.472 129.983C281.031 129.878 279.477 128.198 279.477 128.198L269.075 132.188C269.075 132.188 261.676 134.841 260.402 138.117C259.128 141.393 256.902 159.502 256.902 159.502H267.689L267.402 191.681L265.393 207.83Z" fill="#455A64"/>
<g opacity="0.2">
<path d="M296.758 147.966L298.305 159.278L305.788 162.617L311.318 157.906V147.406L296.758 147.966Z" fill="black"/>
</g>
<path d="M311.122 151.2C311.122 151.291 308.014 151.368 304.178 151.368C300.342 151.368 297.227 151.291 297.227 151.2C299.539 151.024 301.859 150.966 304.178 151.025C306.494 150.966 308.811 151.024 311.122 151.2Z" fill="#263238"/>
<path d="M262.031 142.8C262.067 142.898 262.095 142.998 262.115 143.101C262.164 143.325 262.227 143.605 262.311 143.962C262.58 145.042 262.912 146.105 263.305 147.147C263.802 148.484 264.502 150.059 265.363 151.823C266.224 153.587 266.91 155.694 267.673 157.934C267.673 160.622 267.673 163.534 267.617 166.635C267.547 173.495 267.477 179.704 267.435 184.233C267.393 186.459 267.365 188.272 267.337 189.567C267.337 190.169 267.323 190.652 267.295 191.016C267.299 191.185 267.287 191.353 267.26 191.52C267.248 191.35 267.248 191.179 267.26 191.009C267.26 190.654 267.26 190.171 267.26 189.56C267.26 188.272 267.26 186.452 267.26 184.226C267.26 179.697 267.316 173.488 267.351 166.635C267.351 163.562 267.407 160.622 267.428 157.934V157.983C266.679 155.743 265.958 153.664 265.174 151.879C264.426 150.342 263.757 148.767 263.172 147.161C262.794 146.11 262.488 145.034 262.255 143.941C262.185 143.556 262.129 143.241 262.101 143.059C262.07 142.975 262.047 142.888 262.031 142.8Z" fill="#263238"/>
<path d="M314.917 137.564C314.942 137.883 314.942 138.204 314.917 138.523C314.917 139.223 314.861 140.077 314.819 141.127C314.728 143.381 314.609 146.391 314.476 149.716C314.343 153.041 314.189 156.058 314.091 158.312C314.028 159.362 313.979 160.237 313.937 160.916C313.936 161.236 313.903 161.555 313.839 161.868C313.814 161.549 313.814 161.228 313.839 160.909C313.839 160.209 313.839 159.355 313.888 158.305C313.944 156.1 314.042 153.062 314.182 149.709C314.322 146.356 314.476 143.311 314.616 141.12C314.686 140.021 314.756 139.132 314.819 138.516C314.824 138.196 314.857 137.878 314.917 137.564Z" fill="#263238"/>
<g opacity="0.3">
<path d="M262.061 144.445C261.871 149.371 263.632 154.172 266.961 157.808C265.946 153.181 263.412 148.876 262.061 144.445Z" fill="black"/>
</g>
<g opacity="0.3">
<path d="M283.969 188.846C286.314 188.534 288.453 187.343 289.954 185.514C291.533 183.751 292.885 181.796 293.979 179.697C295.39 176.841 296.191 173.723 296.331 170.541C293.426 178.332 289.17 184.492 283.969 188.846Z" fill="black"/>
</g>
<path d="M297.257 167.146C297.252 167.243 297.238 167.339 297.215 167.433C297.166 167.657 297.103 167.923 297.033 168.245C296.963 168.567 296.851 169.022 296.697 169.512C296.543 170.002 296.396 170.562 296.172 171.171C295.681 172.604 295.106 174.006 294.45 175.371C292.844 178.712 290.782 181.815 288.325 184.59C287.321 185.722 286.246 186.789 285.105 187.782C284.636 188.223 284.167 188.573 283.768 188.895C283.369 189.217 283.019 189.476 282.718 189.679L282.018 190.148C281.857 190.246 281.773 190.302 281.766 190.288C281.827 190.214 281.898 190.148 281.976 190.092L282.627 189.574C282.914 189.364 283.257 189.091 283.642 188.755C284.027 188.419 284.482 188.055 284.944 187.614C286.049 186.599 287.098 185.524 288.087 184.394C289.284 182.999 290.399 181.536 291.426 180.012C292.43 178.476 293.346 176.885 294.17 175.245C294.832 173.898 295.423 172.517 295.941 171.108C296.179 170.513 296.347 169.953 296.508 169.47C296.669 168.987 296.802 168.567 296.9 168.224C296.998 167.881 297.068 167.65 297.138 167.433C297.208 167.216 297.243 167.139 297.257 167.146Z" fill="#263238"/>
<path d="M295.815 153.104C295.804 153.259 295.783 153.414 295.752 153.566C295.696 153.895 295.619 154.329 295.528 154.868C295.437 155.407 295.297 156.121 295.094 156.912C294.891 157.703 294.709 158.62 294.394 159.6C294.254 160.09 294.1 160.608 293.939 161.147C293.778 161.686 293.568 162.232 293.372 162.799C293.001 163.954 292.497 165.144 291.972 166.404C289.672 171.842 286.582 176.912 282.802 181.447C281.913 182.469 281.08 183.463 280.226 184.317C279.806 184.751 279.414 185.185 279.008 185.57C278.602 185.955 278.217 186.333 277.839 186.683C277.139 187.383 276.383 187.992 275.739 188.524C275.095 189.056 274.577 189.497 274.115 189.84L273.058 190.638C272.942 190.739 272.816 190.826 272.68 190.897C272.782 190.784 272.894 190.681 273.016 190.589L274.031 189.742C274.479 189.385 275.025 188.944 275.62 188.391C276.215 187.838 276.936 187.25 277.657 186.515L278.805 185.395C279.204 185.003 279.589 184.569 280.002 184.135C280.849 183.274 281.668 182.28 282.55 181.251C286.298 176.723 289.381 171.684 291.706 166.285C292.224 165.032 292.728 163.856 293.106 162.715C293.309 162.141 293.519 161.602 293.687 161.07C293.855 160.538 294.009 160.027 294.163 159.537C294.485 158.564 294.688 157.661 294.905 156.87C295.122 156.079 295.276 155.4 295.388 154.84C295.5 154.28 295.605 153.881 295.675 153.552C295.705 153.398 295.752 153.248 295.815 153.104Z" fill="#263238"/>
<path d="M256.398 139.153L275.606 168.357C275.698 168.495 275.748 168.656 275.75 168.822C275.752 168.988 275.707 169.15 275.619 169.291C275.531 169.431 275.404 169.543 275.254 169.614C275.104 169.684 274.937 169.709 274.773 169.687L252.653 166.887C252.537 166.871 252.425 166.831 252.324 166.771C252.223 166.711 252.135 166.632 252.065 166.537L230.939 137.683C230.834 137.55 230.771 137.388 230.757 137.219C230.743 137.05 230.779 136.881 230.86 136.732C230.941 136.583 231.064 136.461 231.214 136.381C231.363 136.302 231.533 136.267 231.702 136.283L254.459 137.963C254.852 137.999 255.231 138.125 255.568 138.331C255.904 138.537 256.188 138.819 256.398 139.153Z" fill="#E0E0E0"/>
<path d="M256.397 139.153C256.349 139.058 256.29 138.968 256.222 138.887C256.027 138.645 255.79 138.441 255.522 138.285C255.066 138.047 254.559 137.924 254.045 137.928L252.001 137.76L238.883 136.731L234.536 136.395L232.226 136.22C232.023 136.22 231.848 136.22 231.617 136.22C231.38 136.228 231.154 136.32 230.98 136.479C230.802 136.641 230.688 136.861 230.657 137.099C230.626 137.338 230.681 137.579 230.812 137.781L236.958 146.216C241.298 152.145 246.058 158.662 251.063 165.508C251.385 165.935 251.672 166.348 252.022 166.796C252.129 166.915 252.264 167.006 252.414 167.062C252.551 167.11 252.695 167.139 252.841 167.146L253.625 167.244L256.719 167.636L262.767 168.392L274.205 169.792C274.443 169.792 274.639 169.855 274.905 169.869C275.041 169.87 275.176 169.844 275.302 169.792C275.428 169.741 275.543 169.664 275.64 169.568C275.823 169.38 275.93 169.13 275.941 168.868C275.93 168.612 275.837 168.366 275.675 168.168L274.191 165.9L271.391 161.7L266.379 154.119C263.313 149.506 260.835 145.761 259.106 143.164L257.111 140.189C256.887 139.867 256.712 139.608 256.579 139.426C256.522 139.335 256.459 139.248 256.39 139.167C256.438 139.263 256.491 139.357 256.551 139.447L257.048 140.231C257.496 140.931 258.147 141.946 258.98 143.241L266.162 154.266L271.139 161.868L273.939 166.103L275.395 168.322C275.52 168.469 275.594 168.654 275.605 168.847C275.598 169.031 275.523 169.205 275.395 169.337C275.264 169.466 275.088 169.539 274.905 169.54C274.716 169.54 274.457 169.484 274.24 169.463L262.781 168L256.733 167.237L253.639 166.845L252.862 166.747C252.745 166.737 252.631 166.716 252.519 166.684C252.42 166.646 252.332 166.586 252.26 166.509C251.952 166.089 251.644 165.676 251.336 165.249C246.324 158.417 241.536 151.907 237.21 145.978C235.033 143.024 232.975 140.21 231.043 137.578C230.97 137.474 230.928 137.352 230.919 137.226C230.911 137.1 230.936 136.974 230.994 136.861C231.051 136.748 231.138 136.653 231.246 136.586C231.353 136.519 231.476 136.482 231.603 136.479C231.764 136.479 231.988 136.479 232.177 136.514L234.487 136.682L238.841 136.99L252.001 137.9L254.059 138.04C254.56 138.023 255.058 138.131 255.508 138.355C255.858 138.554 256.161 138.826 256.397 139.153Z" fill="#263238"/>
<path d="M230.938 137.704C231.089 137.743 231.244 137.766 231.4 137.774L232.743 137.914L237.742 138.355L254.737 139.755L254.604 139.678C255.668 141.26 256.767 142.898 257.867 144.578C262.354 151.473 266.266 157.815 269.227 162.323C270.697 164.584 271.922 166.39 272.776 167.636L273.771 169.036C273.878 169.207 274.002 169.366 274.141 169.512C274.049 169.333 273.946 169.16 273.833 168.994L272.896 167.531L269.445 162.162C266.547 157.619 262.662 151.263 258.175 144.361C257.076 142.66 255.97 141.022 254.899 139.461L254.85 139.391H254.8L237.797 138.131L232.792 137.795L231.442 137.718C231.274 137.701 231.106 137.696 230.938 137.704Z" fill="#263238"/>
<path d="M244.105 142.163C244.118 142.105 244.143 142.05 244.178 142.001C244.213 141.953 244.257 141.912 244.308 141.882C244.359 141.851 244.416 141.831 244.475 141.823C244.534 141.814 244.594 141.818 244.651 141.834C244.877 141.885 245.083 141.999 245.246 142.163C245.35 142.258 245.418 142.386 245.437 142.525C245.456 142.665 245.426 142.806 245.351 142.926C245.134 143.199 244.651 143.094 244.413 142.87C244.306 142.788 244.221 142.68 244.167 142.556C244.113 142.433 244.092 142.297 244.105 142.163Z" fill="white"/>
<path d="M254.434 158.529C254.434 158.529 255.302 156.429 253.09 156.177C250.416 156.038 247.736 156.038 245.061 156.177C245.061 156.177 241.876 156.513 242.548 158.795C242.548 158.795 240.672 160.475 241.68 162.295C242.688 164.115 243.08 163.569 243.08 163.569C243.08 163.569 242.814 165.788 244.48 166.117C244.48 166.117 246.3 168.266 247.98 168.133C249.66 168 256.765 164.577 257.234 163.933C257.703 163.289 258.375 162.883 257.976 162.134C257.976 162.134 258.844 160.167 256.968 159.866C256.982 159.831 256.849 158.2 254.434 158.529Z" fill="#FFBF9D"/>
<path d="M244.344 159.278C244.836 159.38 245.34 159.418 245.842 159.39C246.766 159.39 248.04 159.39 249.447 159.39C250.659 159.425 251.872 159.355 253.073 159.18C254.025 158.956 254.403 158.396 254.361 158.382C253.95 158.642 253.494 158.825 253.017 158.921C252.142 159.068 250.847 158.977 249.44 159.026C248.033 159.075 246.759 159.089 245.835 159.131C245.334 159.12 244.833 159.169 244.344 159.278Z" fill="#FF9A6C"/>
<path d="M245.926 162.638C246.074 162.725 246.238 162.779 246.409 162.799C246.869 162.892 247.34 162.923 247.809 162.89C248.492 162.838 249.168 162.713 249.825 162.519C250.567 162.316 251.358 162.029 252.191 161.777C252.965 161.521 253.766 161.354 254.578 161.28C255.28 161.345 255.985 161.204 256.608 160.874C256.851 160.709 257.023 160.46 257.091 160.174C257.136 159.96 257.106 159.738 257.007 159.544C256.832 159.229 256.594 159.208 256.601 159.222C256.608 159.236 256.769 159.32 256.874 159.607C256.941 159.801 256.936 160.014 256.86 160.205C256.785 160.396 256.643 160.554 256.461 160.65C255.863 160.913 255.206 161.012 254.557 160.937C253.716 160.989 252.886 161.149 252.086 161.413L249.734 162.19C249.098 162.387 248.447 162.533 247.788 162.624C247.168 162.666 246.546 162.671 245.926 162.638Z" fill="#FF9A6C"/>
<path d="M248.305 165.473C248.815 165.444 249.318 165.347 249.803 165.186C250.713 164.955 251.959 164.598 253.303 164.157C254.647 163.716 255.879 163.261 256.747 162.904C257.24 162.749 257.711 162.53 258.147 162.253C258.105 162.155 255.921 162.953 253.247 163.8C250.573 164.647 248.277 165.375 248.305 165.473Z" fill="#FF9A6C"/>
<path d="M247.738 168.105C248.157 168.142 248.578 168.094 248.977 167.965C249.954 167.728 250.904 167.392 251.812 166.964C252.876 166.481 253.807 165.984 254.479 165.627C254.863 165.465 255.222 165.248 255.543 164.983C254.203 165.416 252.903 165.967 251.658 166.628C249.565 167.636 247.724 168 247.738 168.105Z" fill="#FF9A6C"/>
<path d="M318.452 148.092C318.452 148.092 313.93 166.208 308.281 172.9C302.807 179.382 294.232 176.4 291.264 168C288.296 159.6 283.004 140.483 283.004 140.483L289.5 135.513L300.7 157.276L305.761 142.443L318.452 148.092Z" fill="#FFBF9D"/>
<path d="M283.302 141.001L278.535 134.092C277.841 133.942 277.162 133.731 276.505 133.462C275.966 133.147 275.434 130.403 275.448 129.871C275.462 129.339 274.524 128.086 274.902 127.729C275.28 127.372 276.554 127.351 276.484 126.84C276.484 126.728 275.539 125.58 276.281 124.74C276.69 124.469 277.146 124.277 277.625 124.173L277.548 121.534C277.548 121.534 278.948 118.426 280.425 119.553C280.425 119.553 285.906 123.753 286.459 124.453C287.012 125.153 289.126 133.896 289.497 135.541" fill="#FFBF9D"/>
<path d="M289.5 135.527C289.493 135.371 289.47 135.216 289.43 135.065C289.353 134.729 289.262 134.295 289.143 133.749C288.891 132.601 288.506 130.949 287.988 128.912C287.722 127.89 287.435 126.812 287.064 125.587C286.973 125.293 286.875 124.992 286.749 124.684C286.605 124.37 286.383 124.098 286.105 123.893C285.601 123.452 285.076 123.018 284.537 122.577C283.452 121.702 282.297 120.792 281.1 119.861C280.798 119.592 280.459 119.368 280.092 119.196C279.878 119.145 279.655 119.145 279.441 119.196C279.227 119.247 279.028 119.348 278.86 119.49C278.235 120.034 277.736 120.708 277.397 121.464V121.506C277.397 121.765 277.397 122.038 277.397 122.311C277.397 122.927 277.397 123.543 277.453 124.145L277.579 123.977C277.249 124.057 276.926 124.165 276.613 124.299C276.439 124.371 276.28 124.476 276.144 124.607C276.024 124.748 275.933 124.912 275.878 125.09C275.789 125.44 275.819 125.809 275.962 126.14C276.021 126.298 276.093 126.45 276.179 126.595L276.298 126.798V126.847C276.302 126.863 276.302 126.88 276.298 126.896C276.298 126.952 276.158 127.036 276.025 127.085C275.892 127.134 275.745 127.183 275.598 127.232C275.446 127.273 275.297 127.322 275.15 127.379C274.967 127.432 274.806 127.545 274.695 127.701C274.622 127.88 274.622 128.081 274.695 128.261C274.738 128.412 274.791 128.559 274.856 128.702C274.975 128.982 275.108 129.248 275.206 129.507C275.256 129.625 275.285 129.75 275.29 129.878C275.293 130.028 275.307 130.178 275.332 130.326C275.374 130.613 275.423 130.893 275.486 131.173C275.595 131.713 275.743 132.244 275.927 132.762C276.016 133.033 276.159 133.283 276.347 133.497C276.576 133.645 276.826 133.756 277.089 133.826C277.572 133.973 278.048 134.092 278.489 134.197L278.412 134.148L281.912 139.16L282.892 140.518C283.001 140.682 283.123 140.836 283.256 140.98C283.167 140.806 283.066 140.638 282.955 140.476L282.031 139.076C281.198 137.837 280.029 136.108 278.594 133.994V133.952H278.601C278.153 133.84 277.684 133.714 277.201 133.567C276.977 133.503 276.763 133.409 276.564 133.287C276.414 133.103 276.3 132.891 276.228 132.664C276.05 132.157 275.909 131.638 275.808 131.11C275.752 130.837 275.703 130.564 275.661 130.284C275.661 130.151 275.661 130.004 275.661 129.878C275.655 129.715 275.622 129.554 275.563 129.402C275.458 129.115 275.325 128.849 275.213 128.576C275.152 128.448 275.103 128.314 275.066 128.177C275.028 128.073 275.028 127.959 275.066 127.855C275.147 127.771 275.248 127.711 275.36 127.68C275.5 127.625 275.643 127.578 275.787 127.54C275.934 127.491 276.088 127.449 276.242 127.386C276.435 127.326 276.596 127.193 276.69 127.015C276.716 126.958 276.728 126.896 276.725 126.833C276.724 126.789 276.712 126.746 276.69 126.707V126.651L276.571 126.448C276.496 126.315 276.431 126.177 276.375 126.035C276.263 125.772 276.238 125.48 276.305 125.202C276.342 125.067 276.409 124.943 276.501 124.838C276.607 124.745 276.728 124.672 276.858 124.621C277.153 124.494 277.457 124.391 277.768 124.313L277.894 124.278V124.145C277.894 123.543 277.859 122.934 277.838 122.318C277.838 122.045 277.838 121.765 277.838 121.513V121.59C278.15 120.883 278.611 120.253 279.189 119.742C279.314 119.627 279.464 119.545 279.628 119.502C279.791 119.459 279.963 119.458 280.127 119.497C280.454 119.657 280.757 119.86 281.03 120.099C282.234 121.03 283.389 121.933 284.474 122.801C285.02 123.235 285.545 123.662 286.042 124.089C286.294 124.268 286.494 124.509 286.623 124.789C286.742 125.076 286.84 125.377 286.938 125.664C287.309 126.84 287.638 127.953 287.89 128.961C288.415 130.97 288.849 132.601 289.15 133.77C289.297 134.309 289.409 134.743 289.493 135.072C289.48 135.224 289.482 135.376 289.5 135.527Z" fill="#FF9A6C"/>
<path d="M277.629 124.173C277.629 124.229 278.182 124.173 279.029 124.271C279.536 124.349 280.036 124.464 280.527 124.614C281.17 124.705 281.823 124.705 282.466 124.614C283.018 124.536 283.58 124.586 284.11 124.758C284.64 124.93 285.124 125.221 285.525 125.608C285.835 125.953 286.084 126.348 286.26 126.777C286.263 126.528 286.215 126.28 286.119 126.05C286.022 125.82 285.88 125.613 285.7 125.44C285.336 125.039 284.886 124.726 284.384 124.523C283.767 124.284 283.102 124.2 282.445 124.278C281.829 124.355 281.206 124.355 280.59 124.278C280.084 124.137 279.566 124.046 279.043 124.005C278.565 123.967 278.085 124.024 277.629 124.173Z" fill="#FF9A6C"/>
<path d="M279.568 124.026C279.645 124.068 279.869 123.746 279.841 123.291C279.813 122.836 279.554 122.549 279.484 122.591C279.414 122.633 279.484 122.941 279.484 123.291C279.484 123.641 279.477 123.991 279.568 124.026Z" fill="#FF9A6C"/>
<path d="M276.32 126.938C277.705 127.07 279.103 126.961 280.45 126.616C280.94 126.455 281.455 126.389 281.969 126.42C282.367 126.508 282.719 126.74 282.956 127.071C283.163 127.4 283.345 127.744 283.502 128.1C283.527 127.676 283.406 127.256 283.159 126.91C282.907 126.502 282.505 126.211 282.039 126.098C281.483 126.033 280.92 126.088 280.387 126.259C278.168 126.763 276.32 126.84 276.32 126.938Z" fill="#FF9A6C"/>
<path d="M275.59 129.43C275.924 129.508 276.271 129.508 276.605 129.43C277.228 129.36 278.068 129.143 278.978 128.961C279.398 128.867 279.828 128.825 280.259 128.835C280.594 128.841 280.917 128.959 281.176 129.171C281.408 129.385 281.567 129.667 281.631 129.976C281.631 129.976 281.694 129.885 281.687 129.696C281.658 129.43 281.537 129.182 281.344 128.996C281.06 128.716 280.684 128.55 280.287 128.527C279.818 128.495 279.346 128.53 278.887 128.632C277.949 128.814 277.137 129.066 276.535 129.192C276.213 129.239 275.896 129.319 275.59 129.43Z" fill="#FF9A6C"/>
<path d="M277.2 131.404C277.144 131.446 277.613 131.936 278.467 131.936L278.299 131.789C278.299 131.936 278.299 132.083 278.348 132.23C278.371 132.83 278.503 133.421 278.74 133.973C278.833 133.382 278.814 132.779 278.684 132.195L278.621 131.754V131.6H278.474C278.043 131.582 277.616 131.516 277.2 131.404Z" fill="#FF9A6C"/>
<path d="M311.297 129.745C311.297 129.745 320.558 131.985 320.537 144.27C320.516 156.555 317.737 162.617 317.737 162.617L300.664 153.3L304.5 143.759L311.297 129.745Z" fill="#455A64"/>
<path d="M317.738 162.617C317.615 162.581 317.498 162.529 317.388 162.463L316.394 161.959L312.754 160.041L300.581 153.482L300.441 153.412L300.497 153.265L301.414 150.871C302.506 148.036 303.514 145.334 304.494 142.877C304.97 141.652 305.418 140.483 305.845 139.377C306.218 138.349 306.67 137.352 307.196 136.395C307.9 134.962 308.96 133.735 310.276 132.832C310.646 132.601 311.054 132.437 311.48 132.349C311.589 132.326 311.699 132.312 311.809 132.307H311.928C311.368 132.423 310.835 132.642 310.353 132.951C309.09 133.875 308.082 135.103 307.42 136.521C306.917 137.475 306.485 138.465 306.125 139.482C305.712 140.581 305.271 141.75 304.802 142.982L301.75 150.99L300.833 153.384L300.749 153.16L312.901 159.831L316.485 161.847L317.444 162.407C317.55 162.466 317.648 162.536 317.738 162.617Z" fill="#263238"/>
</g>
<defs>
<clipPath id="clip0_6486_62998">
<rect width="334" height="340" fill="white"/>
</clipPath>
</defs>
</svg>