<svg width="15" height="9" viewBox="0 0 15 9" fill="none" xmlns="http://www.w3.org/2000/svg">
<path d="M14.7072 0.79357C14.5197 0.606099 14.2654 0.500783 14.0002 0.500783C13.735 0.500783 13.4807 0.606099 13.2932 0.79357L8.00021 6.08657L2.70721 0.79357C2.61497 0.698059 2.50462 0.621877 2.38262 0.569468C2.26061 0.517059 2.12939 0.489473 1.99661 0.488319C1.86384 0.487165 1.73216 0.512467 1.60926 0.562748C1.48636 0.613029 1.37471 0.687282 1.28082 0.781175C1.18693 0.875067 1.11267 0.986719 1.06239 1.10962C1.01211 1.23251 0.986809 1.36419 0.987963 1.49697C0.989117 1.62975 1.0167 1.76097 1.06911 1.88297C1.12152 2.00498 1.1977 2.11532 1.29321 2.20757L7.29321 8.20757C7.48074 8.39504 7.73505 8.50036 8.00021 8.50036C8.26538 8.50036 8.51969 8.39504 8.70721 8.20757L14.7072 2.20757C14.8947 2.02004 15 1.76573 15 1.50057C15 1.23541 14.8947 0.981097 14.7072 0.79357V0.79357Z" fill="#333333"/>
</svg>
