<svg width="48" height="48" viewBox="0 0 48 48" fill="none" xmlns="http://www.w3.org/2000/svg">
<path d="M37.4144 16.5871C37.0394 16.2122 36.5308 16.0016 36.0004 16.0016C35.4701 16.0016 34.9615 16.2122 34.5864 16.5871L24.0004 27.1731L13.4144 16.5871C13.2299 16.3961 13.0092 16.2438 12.7652 16.1389C12.5212 16.0341 12.2588 15.9789 11.9932 15.9766C11.7277 15.9743 11.4643 16.0249 11.2185 16.1255C10.9727 16.2261 10.7494 16.3746 10.5616 16.5623C10.3739 16.7501 10.2253 16.9734 10.1248 17.2192C10.0242 17.465 9.97362 17.7284 9.97593 17.9939C9.97823 18.2595 10.0334 18.5219 10.1382 18.7659C10.243 19.01 10.3954 19.2306 10.5864 19.4151L22.5864 31.4151C22.9615 31.7901 23.4701 32.0007 24.0004 32.0007C24.5308 32.0007 25.0394 31.7901 25.4144 31.4151L37.4144 19.4151C37.7894 19.0401 38 18.5315 38 18.0011C38 17.4708 37.7894 16.9622 37.4144 16.5871Z" fill="#333333"/>
</svg>
