<svg width="48" height="48" viewBox="0 0 48 48" fill="none" xmlns="http://www.w3.org/2000/svg">
<path d="M23.4136 10.5856C23.0385 10.2106 22.5299 10 21.9996 10C21.4692 10 20.9606 10.2106 20.5856 10.5856L8.58557 22.5856C8.21063 22.9606 8 23.4692 8 23.9996C8 24.5299 8.21063 25.0385 8.58557 25.4136L20.5856 37.4136C20.9628 37.7779 21.468 37.9795 21.9924 37.9749C22.5168 37.9704 23.0184 37.76 23.3892 37.3892C23.76 37.0184 23.9704 36.5168 23.9749 35.9924C23.9795 35.468 23.7779 34.9628 23.4136 34.5856L14.8276 25.9996H37.9996C38.53 25.9996 39.0387 25.7889 39.4138 25.4138C39.7889 25.0387 39.9996 24.53 39.9996 23.9996C39.9996 23.4691 39.7889 22.9604 39.4138 22.5854C39.0387 22.2103 38.53 21.9996 37.9996 21.9996H14.8276L23.4136 13.4136C23.7885 13.0385 23.9991 12.5299 23.9991 11.9996C23.9991 11.4692 23.7885 10.9606 23.4136 10.5856Z" fill="#333333"/>
</svg>
