<svg width="44" height="38" viewBox="0 0 44 38" fill="none" xmlns="http://www.w3.org/2000/svg">
<path d="M21.2184 1.11463C20.7183 0.614704 20.0402 0.333862 19.3331 0.333862C18.626 0.333862 17.9478 0.614704 17.4478 1.11463L1.44776 17.1146C0.947834 17.6147 0.666992 18.2929 0.666992 19C0.666992 19.7071 0.947834 20.3852 1.44776 20.8853L17.4478 36.8853C17.9507 37.371 18.6243 37.6398 19.3235 37.6338C20.0227 37.6277 20.6915 37.3472 21.1859 36.8528C21.6804 36.3584 21.9608 35.6896 21.9669 34.9904C21.973 34.2912 21.7042 33.6176 21.2184 33.1146L9.77042 21.6666H40.6664C41.3737 21.6666 42.0519 21.3857 42.552 20.8856C43.0521 20.3855 43.3331 19.7072 43.3331 19C43.3331 18.2927 43.0521 17.6144 42.552 17.1143C42.0519 16.6142 41.3737 16.3333 40.6664 16.3333H9.77042L21.2184 4.88529C21.7183 4.38522 21.9992 3.70706 21.9992 2.99996C21.9992 2.29285 21.7183 1.6147 21.2184 1.11463Z" fill="#333333"/>
</svg>
