<svg width="14" height="9" viewBox="0 0 14 9" fill="none" xmlns="http://www.w3.org/2000/svg">
<path d="M13.7064 8.20679C13.5189 8.39426 13.2646 8.49957 12.9994 8.49957C12.7343 8.49957 12.48 8.39426 12.2924 8.20679L6.99943 2.91379L1.70643 8.20679C1.51783 8.38894 1.26523 8.48974 1.00303 8.48746C0.740833 8.48518 0.49002 8.38001 0.304612 8.1946C0.119204 8.0092 0.014035 7.75838 0.0117566 7.49619C0.00947813 7.23399 0.110273 6.98139 0.292431 6.79279L6.29243 0.792787C6.47996 0.605316 6.73427 0.5 6.99943 0.5C7.2646 0.5 7.5189 0.605316 7.70643 0.792787L13.7064 6.79279C13.8939 6.98031 13.9992 7.23462 13.9992 7.49979C13.9992 7.76495 13.8939 8.01926 13.7064 8.20679Z" fill="#333333"/>
</svg>
