<svg width="48" height="48" viewBox="0 0 48 48" fill="none" xmlns="http://www.w3.org/2000/svg">
<path d="M37.4129 31.4136C37.0378 31.7885 36.5292 31.9991 35.9989 31.9991C35.4685 31.9991 34.9599 31.7885 34.5849 31.4136L23.9989 20.8276L13.4129 31.4136C13.0357 31.7779 12.5305 31.9795 12.0061 31.9749C11.4817 31.9704 10.98 31.76 10.6092 31.3892C10.2384 31.0184 10.0281 30.5168 10.0235 29.9924C10.019 29.468 10.2205 28.9628 10.5849 28.5856L22.5849 16.5856C22.9599 16.2106 23.4685 16 23.9989 16C24.5292 16 25.0378 16.2106 25.4129 16.5856L37.4129 28.5856C37.7878 28.9606 37.9984 29.4692 37.9984 29.9996C37.9984 30.5299 37.7878 31.0385 37.4129 31.4136Z" fill="#333333"/>
</svg>
