<svg width="48" height="48" viewBox="0 0 48 48" fill="none" xmlns="http://www.w3.org/2000/svg">
<path d="M37.4132 24.586C37.7881 24.9611 37.9988 25.4697 37.9988 26C37.9988 26.5303 37.7881 27.0389 37.4132 27.414L25.4132 39.414C25.0381 39.7889 24.5295 39.9996 23.9992 39.9996C23.4689 39.9996 22.9602 39.7889 22.5852 39.414L10.5852 27.414C10.3942 27.2295 10.2418 27.0088 10.137 26.7648C10.0322 26.5208 9.97699 26.2584 9.97468 25.9928C9.97238 25.7272 10.023 25.4639 10.1235 25.2181C10.2241 24.9723 10.3726 24.749 10.5604 24.5612C10.7482 24.3734 10.9715 24.2249 11.2173 24.1244C11.4631 24.0238 11.7264 23.9732 11.992 23.9755C12.2575 23.9778 12.52 24.033 12.764 24.1378C13.008 24.2426 13.2287 24.395 13.4132 24.586L21.9992 33.172V10C21.9992 9.46957 22.2099 8.96086 22.585 8.58579C22.96 8.21071 23.4688 8 23.9992 8C24.5296 8 25.0383 8.21071 25.4134 8.58579C25.7885 8.96086 25.9992 9.46957 25.9992 10V33.172L34.5852 24.586C34.9602 24.2111 35.4689 24.0004 35.9992 24.0004C36.5295 24.0004 37.0381 24.2111 37.4132 24.586Z" fill="#333333"/>
</svg>
