<svg width="12" height="12" viewBox="0 0 12 12" fill="none" xmlns="http://www.w3.org/2000/svg">
<path d="M6.00033 0.666748C6.17714 0.666748 6.34671 0.736986 6.47173 0.86201C6.59675 0.987035 6.66699 1.1566 6.66699 1.33341V5.33341H10.667C10.8438 5.33341 11.0134 5.40365 11.1384 5.52868C11.2634 5.6537 11.3337 5.82327 11.3337 6.00008C11.3337 6.17689 11.2634 6.34646 11.1384 6.47149C11.0134 6.59651 10.8438 6.66675 10.667 6.66675H6.66699V10.6667C6.66699 10.8436 6.59675 11.0131 6.47173 11.1382C6.34671 11.2632 6.17714 11.3334 6.00033 11.3334C5.82351 11.3334 5.65394 11.2632 5.52892 11.1382C5.4039 11.0131 5.33366 10.8436 5.33366 10.6667V6.66675H1.33366C1.15685 6.66675 0.987279 6.59651 0.862254 6.47149C0.73723 6.34646 0.666992 6.17689 0.666992 6.00008C0.666992 5.82327 0.73723 5.6537 0.862254 5.52868C0.987279 5.40365 1.15685 5.33341 1.33366 5.33341H5.33366V1.33341C5.33366 1.1566 5.4039 0.987035 5.52892 0.86201C5.65394 0.736986 5.82351 0.666748 6.00033 0.666748Z" fill="#333333"/>
</svg>
