<svg width="48" height="48" viewBox="0 0 48 48" fill="none" xmlns="http://www.w3.org/2000/svg">
<path fill-rule="evenodd" clip-rule="evenodd" d="M6.55637 12.4544C5.5984 8.69975 8.87147 6 12.0003 6H36.0003C39.1264 6 42.3973 8.69942 41.4471 12.451L41.4456 12.4567C40.7915 15.0079 39.5866 17.3848 37.9155 19.4204C36.2444 21.456 34.1478 23.1009 31.7729 24.2395C30.6154 24.7943 30.0003 25.7476 30.0003 26.596V36.764C29.9999 37.5066 29.7928 38.2356 29.4021 38.8672C29.0115 39.4986 28.4528 40.0089 27.7887 40.3409C27.7886 40.3409 27.7889 40.3408 27.7887 40.3409L23.7887 42.3409C23.179 42.6455 22.5012 42.7895 21.8203 42.7589C21.1394 42.7282 20.4777 42.5241 19.8979 42.1658C19.318 41.8076 18.8394 41.3072 18.5073 40.712C18.1752 40.1168 18.0007 39.4466 18.0003 38.7651V26.596C18.0003 25.748 17.3857 24.7948 16.2267 24.2399C13.8528 23.1008 11.7554 21.4548 10.0852 19.4193C8.41497 17.3837 7.21067 15.0072 6.55692 12.4566L6.55637 12.4544ZM10.432 11.4647C10.9408 13.4492 11.8779 15.2982 13.1775 16.882C14.4771 18.4658 16.1077 19.7459 17.9547 20.6325C20.0873 21.6537 22.0003 23.7964 22.0003 26.596L22.0003 38.7629L25.9999 36.7631L26.0003 26.596C26.0003 23.7964 27.9132 21.6538 30.0437 20.6325M10.432 11.4647C10.3428 11.1143 10.4291 10.8089 10.6818 10.5358C10.9594 10.2357 11.4342 10 12.0003 10H36.0003C36.5633 10 37.0383 10.2351 37.3173 10.5363C37.5713 10.8107 37.658 11.1171 37.57 11.4668C37.0608 13.4508 36.1235 15.2992 34.8238 16.8824C33.5234 18.4664 31.8917 19.7465 30.0437 20.6325" fill="#333333"/>
</svg>
