<svg width="48" height="48" viewBox="0 0 48 48" fill="none" xmlns="http://www.w3.org/2000/svg">
<path d="M10.5856 10.5864C10.9606 10.2115 11.4692 10.0008 11.9996 10.0008C12.5299 10.0008 13.0385 10.2115 13.4136 10.5864L23.9996 21.1724L34.5856 10.5864C34.7701 10.3954 34.9908 10.243 35.2348 10.1382C35.4788 10.0334 35.7412 9.97821 36.0068 9.97591C36.2723 9.9736 36.5357 10.0242 36.7815 10.1248C37.0273 10.2253 37.2506 10.3738 37.4384 10.5616C37.6261 10.7494 37.7747 10.9727 37.8752 11.2185C37.9758 11.4643 38.0264 11.7277 38.0241 11.9932C38.0218 12.2588 37.9666 12.5212 37.8618 12.7652C37.757 13.0092 37.6046 13.2299 37.4136 13.4144L26.8276 24.0004L37.4136 34.5864C37.7779 34.9636 37.9795 35.4688 37.9749 35.9932C37.9704 36.5176 37.76 37.0192 37.3892 37.39C37.0184 37.7609 36.5168 37.9712 35.9924 37.9758C35.468 37.9803 34.9628 37.7787 34.5856 37.4144L23.9996 26.8284L13.4136 37.4144C13.0364 37.7787 12.5312 37.9803 12.0068 37.9758C11.4824 37.9712 10.9808 37.7609 10.6099 37.39C10.2391 37.0192 10.0288 36.5176 10.0242 35.9932C10.0197 35.4688 10.2213 34.9636 10.5856 34.5864L21.1716 24.0004L10.5856 13.4144C10.2106 13.0394 10 12.5307 10 12.0004C10 11.4701 10.2106 10.9615 10.5856 10.5864Z" fill="#333333"/>
</svg>
