<svg width="48" height="48" viewBox="0 0 48 48" fill="none" xmlns="http://www.w3.org/2000/svg">
<path d="M22 9.99966C20.4241 9.99966 18.8637 10.3101 17.4078 10.9131C15.9519 11.5162 14.629 12.4001 13.5147 13.5144C12.4004 14.6287 11.5165 15.9516 10.9134 17.4075C10.3104 18.8634 10 20.4238 10 21.9997C10 23.5755 10.3104 25.136 10.9134 26.5919C11.5165 28.0478 12.4004 29.3706 13.5147 30.4849C14.629 31.5992 15.9519 32.4832 17.4078 33.0862C18.8637 33.6893 20.4241 33.9997 22 33.9997C25.1826 33.9997 28.2348 32.7354 30.4853 30.4849C32.7357 28.2345 34 25.1823 34 21.9997C34 18.8171 32.7357 15.7648 30.4853 13.5144C28.2348 11.2639 25.1826 9.99966 22 9.99966ZM6 21.9997C6.00036 19.4534 6.60844 16.944 7.77368 14.6799C8.93892 12.4159 10.6277 10.4627 12.6996 8.98263C14.7715 7.50255 17.1668 6.53833 19.6863 6.17013C22.2058 5.80192 24.7768 6.04035 27.1857 6.86562C29.5945 7.69088 31.7716 9.07913 33.536 10.915C35.3004 12.7509 36.6012 14.9813 37.3302 17.421C38.0592 19.8607 38.1954 22.4392 37.7275 24.9421C37.2596 27.445 36.2011 29.8001 34.64 31.8117L41.414 38.5857C41.7783 38.9629 41.9799 39.4681 41.9753 39.9925C41.9708 40.5169 41.7605 41.0185 41.3896 41.3893C41.0188 41.7601 40.5172 41.9705 39.9928 41.975C39.4684 41.9796 38.9632 41.778 38.586 41.4137L31.812 34.6397C29.4469 36.4759 26.614 37.6116 23.6355 37.9176C20.657 38.2237 17.6524 37.6879 14.9633 36.371C12.2742 35.0542 10.0086 33.0092 8.42405 30.4686C6.83952 27.9281 5.99967 24.9939 6 21.9997Z" fill="#333333"/>
</svg>
