<svg width="48" height="48" viewBox="0 0 48 48" fill="none" xmlns="http://www.w3.org/2000/svg">
<path fill-rule="evenodd" clip-rule="evenodd" d="M14.3431 8C14.6387 7.16419 15.1186 6.39617 15.7574 5.75736C16.8826 4.63214 18.4087 4 20 4H28C29.5913 4 31.1174 4.63214 32.2426 5.75736C32.8814 6.39617 33.3613 7.16419 33.6569 8H36C37.5913 8 39.1174 8.63214 40.2426 9.75736C41.3679 10.8826 42 12.4087 42 14V38C42 39.5913 41.3679 41.1174 40.2426 42.2426C39.1174 43.3679 37.5913 44 36 44H12C10.4087 44 8.88258 43.3679 7.75736 42.2426C6.63214 41.1174 6 39.5913 6 38V14C6 12.4087 6.63214 10.8826 7.75736 9.75736C8.88258 8.63214 10.4087 8 12 8H14.3431ZM14.3431 12H12C11.4696 12 10.9609 12.2107 10.5858 12.5858C10.2107 12.9609 10 13.4696 10 14V38C10 38.5304 10.2107 39.0391 10.5858 39.4142C10.9609 39.7893 11.4696 40 12 40H36C36.5304 40 37.0391 39.7893 37.4142 39.4142C37.7893 39.0391 38 38.5304 38 38V14C38 13.4696 37.7893 12.9609 37.4142 12.5858C37.0391 12.2107 36.5304 12 36 12H33.6569C33.3613 12.8358 32.8814 13.6038 32.2426 14.2426C31.1174 15.3679 29.5913 16 28 16H20C18.4087 16 16.8826 15.3679 15.7574 14.2426C15.1186 13.6038 14.6387 12.8358 14.3431 12Z" fill="#333333"/>
<path fill-rule="evenodd" clip-rule="evenodd" d="M31.2494 20.4383C32.1119 21.1284 32.2518 22.3869 31.5617 23.2495L23.5617 33.2495C23.2064 33.6937 22.6786 33.9656 22.1106 33.997C21.5426 34.0285 20.988 33.8166 20.5858 33.4143L16.5858 29.4143C15.8047 28.6332 15.8047 27.3669 16.5858 26.5859C17.3668 25.8048 18.6332 25.8048 19.4142 26.5859L21.8342 29.0058L28.4383 20.7507C29.1283 19.8882 30.3869 19.7483 31.2494 20.4383Z" fill="#333333"/>
</svg>
