<svg width="18" height="18" viewBox="0 0 18 18" fill="none" xmlns="http://www.w3.org/2000/svg">
<path d="M8 1.99886C7.21207 1.99886 6.43185 2.15405 5.7039 2.45558C4.97595 2.75711 4.31451 3.19906 3.75736 3.75622C3.20021 4.31337 2.75825 4.9748 2.45672 5.70276C2.15519 6.43071 2 7.21092 2 7.99886C2 8.78679 2.15519 9.567 2.45672 10.295C2.75825 11.0229 3.20021 11.6843 3.75736 12.2415C4.31451 12.7986 4.97595 13.2406 5.7039 13.5421C6.43185 13.8437 7.21207 13.9989 8 13.9989C9.5913 13.9989 11.1174 13.3667 12.2426 12.2415C13.3679 11.1163 14 9.59015 14 7.99886C14 6.40756 13.3679 4.88143 12.2426 3.75622C11.1174 2.631 9.5913 1.99886 8 1.99886ZM4.94163e-08 7.99886C0.000182326 6.72572 0.304218 5.471 0.886839 4.339C1.46946 3.20699 2.31384 2.23038 3.3498 1.49034C4.38577 0.750296 5.5834 0.268189 6.84315 0.0840862C8.10291 -0.100017 9.38842 0.0192008 10.5928 0.431832C11.7973 0.844462 12.8858 1.53859 13.768 2.45652C14.6502 3.37446 15.3006 4.48969 15.6651 5.70953C16.0296 6.92938 16.0977 8.2186 15.8638 9.47006C15.6298 10.7215 15.1006 11.8991 14.32 12.9049L17.707 16.2919C17.8892 16.4805 17.99 16.7331 17.9877 16.9953C17.9854 17.2575 17.8802 17.5083 17.6948 17.6937C17.5094 17.8791 17.2586 17.9843 16.9964 17.9865C16.7342 17.9888 16.4816 17.888 16.293 17.7059L12.906 14.3189C11.7235 15.237 10.307 15.8048 8.81777 15.9578C7.32851 16.1109 5.82619 15.8429 4.48165 15.1845C3.1371 14.5261 2.00429 13.5036 1.21202 12.2333C0.419759 10.9631 -0.00016632 9.49596 4.94163e-08 7.99886Z" fill="#333333"/>
</svg>
