<svg width="48" height="48" viewBox="0 0 48 48" fill="none" xmlns="http://www.w3.org/2000/svg">
<path d="M6 12.0017C6 11.4713 6.21071 10.9626 6.58579 10.5875C6.96086 10.2124 7.46957 10.0017 8 10.0017H40C40.5304 10.0017 41.0391 10.2124 41.4142 10.5875C41.7893 10.9626 42 11.4713 42 12.0017C42 12.5321 41.7893 13.0409 41.4142 13.4159C41.0391 13.791 40.5304 14.0017 40 14.0017H8C7.46957 14.0017 6.96086 13.791 6.58579 13.4159C6.21071 13.0409 6 12.5321 6 12.0017ZM6 24.0017C6 23.4713 6.21071 22.9626 6.58579 22.5875C6.96086 22.2124 7.46957 22.0017 8 22.0017H40C40.5304 22.0017 41.0391 22.2124 41.4142 22.5875C41.7893 22.9626 42 23.4713 42 24.0017C42 24.5321 41.7893 25.0409 41.4142 25.4159C41.0391 25.791 40.5304 26.0017 40 26.0017H8C7.46957 26.0017 6.96086 25.791 6.58579 25.4159C6.21071 25.0409 6 24.5321 6 24.0017ZM6 36.0017C6 35.4713 6.21071 34.9626 6.58579 34.5875C6.96086 34.2124 7.46957 34.0017 8 34.0017H40C40.5304 34.0017 41.0391 34.2124 41.4142 34.5875C41.7893 34.9626 42 35.4713 42 36.0017C42 36.5321 41.7893 37.0409 41.4142 37.4159C41.0391 37.791 40.5304 38.0017 40 38.0017H8C7.46957 38.0017 6.96086 37.791 6.58579 37.4159C6.21071 37.0409 6 36.5321 6 36.0017Z" fill="#333333"/>
</svg>
