<svg width="15" height="16" viewBox="0 0 15 16" fill="none" xmlns="http://www.w3.org/2000/svg">
<desc>
    an icon representing the arrow pointing down
</desc>
<path d="M14.7076 8.293C14.895 8.48053 15.0004 8.73484 15.0004 9C15.0004 9.26516 14.895 9.51947 14.7076 9.707L8.70757 15.707C8.52004 15.8945 8.26573 15.9998 8.00057 15.9998C7.7354 15.9998 7.4811 15.8945 7.29357 15.707L1.29357 9.707C1.19806 9.61475 1.12188 9.50441 1.06947 9.3824C1.01706 9.2604 0.989473 9.12918 0.988319 8.9964C0.987165 8.86362 1.01247 8.73194 1.06275 8.60905C1.11303 8.48615 1.18728 8.3745 1.28117 8.28061C1.37507 8.18671 1.48672 8.11246 1.60962 8.06218C1.73251 8.0119 1.86419 7.9866 1.99697 7.98775C2.12975 7.9889 2.26097 8.01649 2.38297 8.0689C2.50498 8.12131 2.61532 8.19749 2.70757 8.293L7.00057 12.586V1C7.00057 0.734784 7.10593 0.48043 7.29346 0.292893C7.481 0.105357 7.73535 0 8.00057 0C8.26579 0 8.52014 0.105357 8.70768 0.292893C8.89521 0.48043 9.00057 0.734784 9.00057 1V12.586L13.2936 8.293C13.4811 8.10553 13.7354 8.00021 14.0006 8.00021C14.2657 8.00021 14.52 8.10553 14.7076 8.293Z" fill="black"/>
</svg>
