<svg width="24" height="24" viewBox="0 0 24 24" xmlns="http://www.w3.org/2000/svg">
<path d="M6 4H8H16H18C18.5304 4 19.0391 4.21071 19.4142 4.58579C19.7893 4.96086 20 5.46957 20 6V18C20 18.5304 19.7893 19.0391 19.4142 19.4142C19.0391 19.7893 18.5304 20 18 20H6C5.46957 20 4.96086 19.7893 4.58579 19.4142C4.21071 19.0391 4 18.5304 4 18V6C4 5.46957 4.21071 4.96086 4.58579 4.58579C4.96086 4.21071 5.46957 4 6 4Z" fill="current" stroke="current" stroke-width="2" stroke-linecap="round" stroke-linejoin="round"/>
<path fill-rule="evenodd" clip-rule="evenodd" d="M16.7009 10.1132C16.8095 9.98272 16.8915 9.83114 16.9419 9.66751C16.9923 9.50387 17.0102 9.33151 16.9945 9.16065C16.9787 8.98979 16.9297 8.82391 16.8502 8.67287C16.7708 8.52183 16.6626 8.3887 16.5321 8.28138C16.4015 8.17407 16.2513 8.09475 16.0903 8.04815C15.9293 8.00154 15.7608 7.9886 15.5948 8.01008C15.4288 8.03156 15.2688 8.08703 15.1241 8.17319C14.9794 8.25936 14.8531 8.37447 14.7526 8.51168L10.6276 13.8006L9.11647 12.2503C8.88094 12.0169 8.56547 11.8878 8.23802 11.8907C7.91057 11.8936 7.59734 12.0284 7.36579 12.2659C7.13423 12.5035 7.00289 12.8248 7.00005 13.1608C6.9972 13.4967 7.12308 13.8204 7.35057 14.062L9.84831 16.6245C9.97248 16.7519 10.1214 16.8511 10.2855 16.9155C10.4495 16.9798 10.625 17.008 10.8004 16.9981C10.9757 16.9881 11.1471 16.9404 11.3033 16.8579C11.4594 16.7754 11.5969 16.6601 11.7066 16.5194L16.7021 10.1132H16.7009Z" fill="white"/>
</svg>
