<svg width="22" height="20" viewBox="0 0 22 20" fill="none" xmlns="http://www.w3.org/2000/svg">
<path d="M2 1L20 19" stroke="#3450A1" stroke-width="2" stroke-linecap="round" stroke-linejoin="round"/>
<path fill-rule="evenodd" clip-rule="evenodd" d="M4.40039 4.23003C3.96039 4.56003 3.55739 4.90803 3.19039 5.26203C1.96456 6.45224 0.9498 7.842 0.189391 9.37203C0.094322 9.56756 0.0449219 9.78213 0.0449219 9.99954C0.0449219 10.2169 0.094322 10.4315 0.189391 10.627C0.949401 12.1574 1.96383 13.5475 3.18939 14.738C4.94039 16.423 7.51839 18 11.0004 18C13.2364 18 15.1004 17.35 16.6104 16.438L12.6664 12.495C12.0893 12.8805 11.3964 13.054 10.7058 12.9859C10.0151 12.9178 9.36945 12.6124 8.87872 12.1217C8.388 11.631 8.08258 10.9853 8.01451 10.2947C7.94643 9.60401 8.11991 8.91112 8.50539 8.33403L4.40139 4.22903L4.40039 4.23003ZM19.6664 13.838C20.5161 12.8645 21.2371 11.7856 21.8114 10.628C21.9065 10.4325 21.9559 10.2179 21.9559 10.0005C21.9559 9.78312 21.9065 9.56856 21.8114 9.37303C21.0514 7.8427 20.037 6.45259 18.8114 5.26203C17.0604 3.57703 14.4834 2.00003 11.0004 2.00003C10.0525 1.99763 9.10847 2.11968 8.19239 2.36303L19.6664 13.838Z" fill="#3450A1"/>
</svg>
