<svg width="22" height="16" viewBox="0 0 22 16" fill="none" xmlns="http://www.w3.org/2000/svg">
<path fill-rule="evenodd" clip-rule="evenodd" d="M11.0004 0C7.51739 0 4.94039 1.577 3.19039 3.262C1.96456 4.4522 0.9498 5.84196 0.189391 7.372C0.094322 7.56752 0.0449219 7.78209 0.0449219 7.9995C0.0449219 8.21691 0.094322 8.43148 0.189391 8.627C0.949418 10.1573 1.96384 11.5474 3.18939 12.738C4.94039 14.423 7.51839 16 11.0004 16C14.4834 16 17.0604 14.423 18.8104 12.738C20.0362 11.5478 21.051 10.1581 21.8114 8.628C21.9065 8.43248 21.9559 8.21791 21.9559 8.0005C21.9559 7.78309 21.9065 7.56852 21.8114 7.373C21.0514 5.84266 20.037 4.45255 18.8114 3.262C17.0604 1.577 14.4834 0 11.0004 0ZM11.0004 4C9.93952 4 8.92211 4.42143 8.17196 5.17157C7.42182 5.92172 7.00039 6.93913 7.00039 8C7.00039 9.06087 7.42182 10.0783 8.17196 10.8284C8.92211 11.5786 9.93952 12 11.0004 12C12.0613 12 13.0787 11.5786 13.8288 10.8284C14.579 10.0783 15.0004 9.06087 15.0004 8C15.0004 6.93913 14.579 5.92172 13.8288 5.17157C13.0787 4.42143 12.0613 4 11.0004 4ZM11.0004 10C11.5308 10 12.0395 9.78929 12.4146 9.41421C12.7897 9.03914 13.0004 8.53043 13.0004 8C13.0004 7.46957 12.7897 6.96086 12.4146 6.58579C12.0395 6.21071 11.5308 6 11.0004 6C10.47 6 9.96125 6.21071 9.58618 6.58579C9.21111 6.96086 9.00039 7.46957 9.00039 8C9.00039 8.53043 9.21111 9.03914 9.58618 9.41421C9.96125 9.78929 10.47 10 11.0004 10Z" fill="#3450A1"/>
</svg>
