<svg width="405" height="282" viewBox="0 0 405 282" fill="none" xmlns="http://www.w3.org/2000/svg">
<g clip-path="url(#clip0_889_8791)">
<path d="M252.054 18.5241C258.55 18.5241 263.913 20.1356 268.144 23.3587C272.374 26.5314 275.295 30.8875 276.906 36.4271H269.654C268.295 32.9019 266.104 30.1069 263.082 28.0422C260.061 25.927 256.359 24.8695 251.978 24.8695C248.503 24.8695 245.381 25.7256 242.611 27.4378C239.892 29.0997 237.726 31.517 236.115 34.6897C234.554 37.812 233.773 41.4883 233.773 45.7185C233.773 49.8984 234.554 53.5495 236.115 56.6718C237.726 59.7941 239.892 62.2114 242.611 63.9237C245.381 65.5855 248.503 66.4165 251.978 66.4165C256.359 66.4165 260.061 65.3841 263.082 63.3193C266.104 61.2042 268.295 58.3841 269.654 54.8589H276.906C275.295 60.3985 272.374 64.7798 268.144 68.0028C263.913 71.1755 258.55 72.7618 252.054 72.7618C247.068 72.7618 242.661 71.6287 238.834 69.3625C235.007 67.046 232.01 63.8481 229.845 59.769C227.73 55.6394 226.672 50.956 226.672 45.7185C226.672 40.4307 227.73 35.7221 229.845 31.5925C232.01 27.463 235.007 24.2652 238.834 21.999C242.661 19.6824 247.068 18.5241 252.054 18.5241Z" fill="#3450A1"/>
<path d="M283.257 18.6752C283.257 17.4162 283.685 16.409 284.541 15.6536C285.397 14.8478 286.53 14.445 287.94 14.445C289.351 14.445 290.484 14.8478 291.34 15.6536C292.196 16.409 292.624 17.4162 292.624 18.6752C292.624 19.9342 292.196 20.9666 291.34 21.7723C290.484 22.5277 289.351 22.9054 287.94 22.9054C286.53 22.9054 285.397 22.5277 284.541 21.7723C283.685 20.9666 283.257 19.9342 283.257 18.6752ZM291.34 30.8371V72.3086H284.466V30.8371H291.34ZM318.482 64.9812L331.323 30.8371H338.726L322.485 72.3086H314.327L298.086 30.8371H305.489L318.482 64.9812Z" fill="#3450A1"/>
<path d="M341.566 18.6752C341.566 17.4162 341.994 16.409 342.85 15.6536C343.706 14.8478 344.839 14.445 346.249 14.445C347.659 14.445 348.792 14.8478 349.648 15.6536C350.504 16.409 350.933 17.4162 350.933 18.6752C350.933 19.9342 350.504 20.9666 349.648 21.7723C348.792 22.5277 347.659 22.9054 346.249 22.9054C344.839 22.9054 343.706 22.5277 342.85 21.7723C341.994 20.9666 341.566 19.9342 341.566 18.6752ZM349.648 30.8371V72.3086H342.774V30.8371H349.648Z" fill="#3450A1"/>
<path d="M377.412 30.3083C382.699 30.3083 387.081 31.7184 390.556 34.5386C394.03 37.3588 396.171 41.1358 396.977 45.8696H389.725C389.221 42.8984 387.836 40.5818 385.57 38.9199C383.354 37.2077 380.584 36.3516 377.261 36.3516C374.843 36.3516 372.627 36.9055 370.613 38.0134C368.649 39.1214 367.063 40.8336 365.854 43.1502C364.645 45.4164 364.041 48.2365 364.041 51.6106C364.041 54.9848 364.645 57.8301 365.854 60.1467C367.063 62.4129 368.649 64.0999 370.613 65.2078C372.627 66.3158 374.843 66.8697 377.261 66.8697C380.584 66.8697 383.354 66.0136 385.57 64.3014C387.836 62.5891 389.221 60.2474 389.725 57.2761H396.977C396.171 62.0603 394.03 65.8625 390.556 68.6827C387.081 71.4525 382.699 72.8374 377.412 72.8374C373.433 72.8374 369.908 71.9813 366.836 70.269C363.764 68.5568 361.347 66.1143 359.584 62.9416C357.872 59.7186 357.016 55.9416 357.016 51.6106C357.016 47.2797 357.872 43.5027 359.584 40.2796C361.347 37.0566 363.764 34.589 366.836 32.8767C369.908 31.1645 373.433 30.3083 377.412 30.3083Z" fill="#3450A1"/>
<path d="M261.118 104.584V110.174H246.086V157.84H239.212V110.174H224.179V104.584H261.118Z" fill="#3450A1"/>
<path d="M299.162 134.8C299.162 136.261 299.061 137.52 298.86 138.577H265.698C265.849 143.311 267.184 146.861 269.702 149.228C272.27 151.595 275.392 152.779 279.068 152.779C282.392 152.779 285.162 151.948 287.378 150.286C289.644 148.574 291.029 146.307 291.533 143.487H298.86C298.356 146.358 297.223 148.926 295.461 151.192C293.748 153.459 291.507 155.221 288.738 156.48C285.968 157.739 282.845 158.369 279.371 158.369C275.392 158.369 271.867 157.513 268.795 155.8C265.723 154.088 263.306 151.646 261.543 148.473C259.831 145.25 258.975 141.473 258.975 137.142C258.975 132.811 259.831 129.034 261.543 125.811C263.306 122.588 265.723 120.12 268.795 118.408C271.867 116.696 275.392 115.84 279.371 115.84C283.399 115.84 286.899 116.696 289.871 118.408C292.892 120.12 295.184 122.412 296.745 125.282C298.356 128.153 299.162 131.325 299.162 134.8ZM292.212 135.253C292.364 132.181 291.86 129.613 290.702 127.548C289.543 125.484 287.957 123.948 285.943 122.94C283.928 121.933 281.738 121.43 279.371 121.43C275.594 121.43 272.421 122.613 269.853 124.98C267.284 127.297 265.899 130.721 265.698 135.253H292.212Z" fill="#3450A1"/>
<path d="M325.261 115.84C330.549 115.84 334.93 117.25 338.405 120.07C341.88 122.89 344.02 126.667 344.826 131.401H337.574C337.071 128.43 335.686 126.113 333.42 124.451C331.204 122.739 328.434 121.883 325.11 121.883C322.693 121.883 320.477 122.437 318.463 123.545C316.499 124.653 314.912 126.365 313.704 128.681C312.495 130.948 311.891 133.768 311.891 137.142C311.891 140.516 312.495 143.361 313.704 145.678C314.912 147.944 316.499 149.631 318.463 150.739C320.477 151.847 322.693 152.401 325.11 152.401C328.434 152.401 331.204 151.545 333.42 149.833C335.686 148.12 337.071 145.779 337.574 142.807H344.826C344.02 147.592 341.88 151.394 338.405 154.214C334.93 156.984 330.549 158.369 325.261 158.369C321.283 158.369 317.758 157.513 314.686 155.8C311.614 154.088 309.196 151.646 307.434 148.473C305.722 145.25 304.865 141.473 304.865 137.142C304.865 132.811 305.722 129.034 307.434 125.811C309.196 122.588 311.614 120.12 314.686 118.408C317.758 116.696 321.283 115.84 325.261 115.84Z" fill="#3450A1"/>
<path d="M374.166 115.689C379 115.689 382.903 117.25 385.874 120.372C388.846 123.444 390.331 127.901 390.331 133.743V157.84H383.457V134.347C383.457 130.217 382.4 127.045 380.285 124.829C378.169 122.613 375.299 121.505 371.673 121.505C367.896 121.505 364.874 122.739 362.608 125.207C360.342 127.624 359.209 131.174 359.209 135.858V157.84H352.335V101.94H359.209V126.189C360.266 122.814 362.13 120.221 364.799 118.408C367.518 116.595 370.641 115.689 374.166 115.689Z" fill="#3450A1"/>
<path d="M247.974 226.446C247.974 230.374 246.161 232.338 243.064 232.338C239.741 232.338 237.777 230.148 237.777 225.615H224.935C224.935 237.551 232.564 243.896 243.442 243.896C253.942 243.896 260.892 237.853 260.892 226.446V190.338H247.974V226.446Z" fill="#3450A1"/>
<path d="M311.03 222.292C311.03 208.921 301.512 200.612 289.123 200.612C276.81 200.612 267.217 208.921 267.217 222.292C267.217 235.662 276.584 243.972 288.972 243.972C301.361 243.972 311.03 235.662 311.03 222.292ZM280.361 222.292C280.361 215.115 284.44 211.791 289.123 211.791C293.656 211.791 297.886 215.115 297.886 222.292C297.886 229.392 293.58 232.792 288.972 232.792C284.289 232.792 280.361 229.392 280.361 222.292Z" fill="#3450A1"/>
<path d="M329.712 207.184V187.468H316.795V243.367H329.712V237.475C332.054 241.177 336.511 243.972 342.705 243.972C353.054 243.972 361.288 235.511 361.288 222.216C361.288 208.921 353.13 200.612 342.705 200.612C336.662 200.612 332.054 203.407 329.712 207.184ZM348.144 222.216C348.144 228.939 343.763 232.716 338.852 232.716C334.018 232.716 329.637 229.015 329.637 222.292C329.637 215.568 334.018 211.867 338.852 211.867C343.763 211.867 348.144 215.493 348.144 222.216Z" fill="#3450A1"/>
<path d="M401.014 231.13C400.788 215.417 377.975 220.176 377.975 213.453C377.975 211.414 379.637 210.205 382.658 210.205C386.284 210.205 388.475 212.094 388.852 214.964H400.788C399.957 206.655 393.914 200.612 383.036 200.612C372.007 200.612 365.888 206.504 365.888 213.68C365.888 229.166 388.852 224.256 388.852 231.054C388.852 232.943 387.115 234.453 383.791 234.453C380.241 234.453 377.597 232.489 377.295 229.543H364.529C365.133 237.702 372.687 243.972 383.942 243.972C394.518 243.972 401.014 238.457 401.014 231.13Z" fill="#3450A1"/>
<path d="M72.2898 142.99C94.3977 142.99 112.32 125.068 112.32 102.96C112.32 80.8517 94.3977 62.9297 72.2898 62.9297C50.1818 62.9297 32.2598 80.8517 32.2598 102.96C32.2598 125.068 50.1818 142.99 72.2898 142.99Z" fill="#44AFF1"/>
<path d="M16.6797 159.85C30.6603 173.89 49.378 182.207 69.1685 183.172C88.9589 184.137 108.397 177.681 123.678 165.068C138.958 152.454 148.981 134.592 151.783 114.977C154.586 95.3621 149.966 75.4075 138.83 59.0195" stroke="#3450A1" stroke-width="33.36" stroke-linecap="round" stroke-linejoin="bevel"/>
</g>
<defs>
<clipPath id="clip0_889_8791">
<rect width="404.26" height="281.27" fill="white" transform="translate(0 0.410156)"/>
</clipPath>
</defs>
</svg>
