<svg viewBox="0 0 41 36" fill="#3450A1" stroke="#3450A1" xmlns="http://www.w3.org/2000/svg">
<desc>
    a datascience icon that represents the scatter plot and line graph 
</desc>
<path d="M39.448 34.4697H4.34077C16.7162 30.6859 33.7026 24.3907 38.192 2.2421C38.24 2.00901 38.1034 1.77938 37.8879 1.72844C37.6707 1.67923 37.4591 1.82513 37.412 2.05736C32.7516 25.0512 14.1932 30.6203 1.91279 34.3065L1.82576 34.3324V1.55665C1.82576 1.31838 1.64692 1.125 1.42655 1.125C1.20619 1.125 1.02734 1.31838 1.02734 1.55665V34.9013C1.02734 34.9212 1.03533 34.9384 1.03772 34.9574C1.04012 34.9773 1.03693 34.9972 1.04172 35.0161C1.04331 35.0231 1.0497 35.0256 1.05209 35.0325C1.07605 35.112 1.11836 35.1784 1.17665 35.2302C1.18862 35.2406 1.199 35.2475 1.21178 35.2553C1.27405 35.3002 1.34511 35.333 1.42655 35.333H39.448C39.6683 35.333 39.8472 35.1396 39.8472 34.9013C39.8472 34.6631 39.6683 34.4697 39.448 34.4697Z" fill="current" stroke="current" stroke-width="0.48338"/>
<path d="M20.5122 16.7467C21.1878 16.7467 21.7354 16.1546 21.7354 15.4241C21.7354 14.6937 21.1878 14.1016 20.5122 14.1016C19.8367 14.1016 19.2891 14.6937 19.2891 15.4241C19.2891 16.1546 19.8367 16.7467 20.5122 16.7467Z" fill="current" stroke="current" stroke-width="0.48338"/>
<path d="M24.8716 15.8561C25.5472 15.8561 26.0948 15.2639 26.0948 14.5335C26.0948 13.8031 25.5472 13.2109 24.8716 13.2109C24.1961 13.2109 23.6484 13.8031 23.6484 14.5335C23.6484 15.2639 24.1961 15.8561 24.8716 15.8561Z" fill="current" stroke="current" stroke-width="0.48338"/>
<path d="M23.2271 20.2311C23.9026 20.2311 24.4502 19.6389 24.4502 18.9085C24.4502 18.1781 23.9026 17.5859 23.2271 17.5859C22.5515 17.5859 22.0039 18.1781 22.0039 18.9085C22.0039 19.6389 22.5515 20.2311 23.2271 20.2311Z" fill="current" stroke="current" stroke-width="0.48338"/>
<path d="M22.6704 12.2701C23.346 12.2701 23.8936 11.678 23.8936 10.9476C23.8936 10.2171 23.346 9.625 22.6704 9.625C21.9949 9.625 21.4473 10.2171 21.4473 10.9476C21.4473 11.678 21.9949 12.2701 22.6704 12.2701Z" fill="current" stroke="current" stroke-width="0.48338"/>
<path d="M28.7974 13.5748C29.4729 13.5748 30.0206 12.9827 30.0206 12.2523C30.0206 11.5218 29.4729 10.9297 28.7974 10.9297C28.1219 10.9297 27.5742 11.5218 27.5742 12.2523C27.5742 12.9827 28.1219 13.5748 28.7974 13.5748Z" fill="current" stroke="current" stroke-width="0.48338"/>
<path d="M18.3521 13.5748C19.0276 13.5748 19.5752 12.9827 19.5752 12.2523C19.5752 11.5218 19.0276 10.9297 18.3521 10.9297C17.6765 10.9297 17.1289 11.5218 17.1289 12.2523C17.1289 12.9827 17.6765 13.5748 18.3521 13.5748Z" fill="current" stroke="current" stroke-width="0.48338"/>
<path d="M18.3521 20.7389C19.0276 20.7389 19.5752 20.1467 19.5752 19.4163C19.5752 18.6859 19.0276 18.0938 18.3521 18.0938C17.6765 18.0938 17.1289 18.6859 17.1289 19.4163C17.1289 20.1467 17.6765 20.7389 18.3521 20.7389Z" fill="current" stroke="current" stroke-width="0.48338"/>
<path d="M14.9575 17.1022C15.6331 17.1022 16.1807 16.51 16.1807 15.7796C16.1807 15.0492 15.6331 14.457 14.9575 14.457C14.282 14.457 13.7344 15.0492 13.7344 15.7796C13.7344 16.51 14.282 17.1022 14.9575 17.1022Z" fill="current" stroke="current" stroke-width="0.48338"/>
<path d="M19.9986 24.2936C20.6741 24.2936 21.2217 23.7014 21.2217 22.971C21.2217 22.2406 20.6741 21.6484 19.9986 21.6484C19.323 21.6484 18.7754 22.2406 18.7754 22.971C18.7754 23.7014 19.323 24.2936 19.9986 24.2936Z" fill="current" stroke="current" stroke-width="0.48338"/>
<path d="M14.5533 23.4029C15.2288 23.4029 15.7764 22.8108 15.7764 22.0804C15.7764 21.3499 15.2288 20.7578 14.5533 20.7578C13.8777 20.7578 13.3301 21.3499 13.3301 22.0804C13.3301 22.8108 13.8777 23.4029 14.5533 23.4029Z" fill="current" stroke="current" stroke-width="0.48338"/>
<path d="M11.2564 20.2311C11.9319 20.2311 12.4796 19.6389 12.4796 18.9085C12.4796 18.1781 11.9319 17.5859 11.2564 17.5859C10.5808 17.5859 10.0332 18.1781 10.0332 18.9085C10.0332 19.6389 10.5808 20.2311 11.2564 20.2311Z" fill="current" stroke="current" stroke-width="0.48338"/>
<path d="M27.9732 18.4459C28.6487 18.4459 29.1964 17.8538 29.1964 17.1233C29.1964 16.3929 28.6487 15.8008 27.9732 15.8008C27.2976 15.8008 26.75 16.3929 26.75 17.1233C26.75 17.8538 27.2976 18.4459 27.9732 18.4459Z" fill="current" stroke="current" stroke-width="0.48338"/>
<path d="M14.5533 28.3287C15.2288 28.3287 15.7764 27.7366 15.7764 27.0062C15.7764 26.2757 15.2288 25.6836 14.5533 25.6836C13.8777 25.6836 13.3301 26.2757 13.3301 27.0062C13.3301 27.7366 13.8777 28.3287 14.5533 28.3287Z" fill="current" stroke="current" stroke-width="0.48338"/>
</svg>
