<svg viewBox="0 0 42 42" fill="#3450A1" stroke="#3450A1" xmlns="http://www.w3.org/2000/svg">
<desc>
    an operations icon that represents a running operation being managed  
</desc>
<path d="M20.9399 16.7148C18.5649 16.7148 16.6328 18.6382 16.6328 21.0022C16.6328 23.3661 18.5649 25.2895 20.9399 25.2895C23.3149 25.2895 25.2473 23.3661 25.2473 21.0022C25.2473 18.6382 23.3149 16.7148 20.9399 16.7148ZM20.9399 24.2958C19.1155 24.2958 17.6312 22.8183 17.6312 21.0022C17.6312 19.186 19.1155 17.7086 20.9399 17.7086C22.7645 17.7086 24.2489 19.186 24.2489 21.0022C24.2489 22.8183 22.7645 24.2958 20.9399 24.2958Z" fill="current" stroke="current" stroke-width="0.322253"/>
<path d="M29.1716 19.742C29.3122 19.7274 29.4402 19.6537 29.5233 19.5396C29.6064 19.4256 29.6369 19.2815 29.6072 19.1437C29.3834 18.1054 28.9747 17.1248 28.3926 16.2286C28.3156 16.1102 28.192 16.0301 28.0521 16.0078C27.911 15.9845 27.7694 16.0233 27.6594 16.1121C27.1544 16.5187 26.4261 16.4799 25.9662 16.0219C25.506 15.5638 25.467 14.8394 25.8753 14.3358C25.9642 14.2266 26.0023 14.0844 25.9798 13.9452C25.9574 13.8059 25.8767 13.6832 25.758 13.6065C24.8574 13.0272 23.8722 12.6205 22.8295 12.3978C22.6898 12.3682 22.5463 12.3983 22.4317 12.4813C22.3172 12.5638 22.2431 12.6914 22.2282 12.8316C22.1602 13.475 21.6176 13.9602 20.9664 13.9602C20.3151 13.9602 19.7725 13.475 19.7045 12.8316C19.6897 12.6914 19.6156 12.5638 19.501 12.4813C19.3865 12.3983 19.2427 12.3692 19.1032 12.3978C18.0605 12.6205 17.0753 13.0272 16.1747 13.6065C16.056 13.6832 15.9753 13.8059 15.9529 13.9452C15.9305 14.0844 15.9685 14.2266 16.0575 14.3358C16.4657 14.8394 16.4267 15.5638 15.9666 16.0219C15.5059 16.4799 14.7778 16.5187 14.2733 16.1121C14.1634 16.0233 14.0208 15.9835 13.8806 16.0078C13.7407 16.0301 13.6172 16.1102 13.5401 16.2286C12.9581 17.1248 12.5493 18.1054 12.3256 19.1437C12.2958 19.2815 12.3263 19.4256 12.4094 19.5396C12.4925 19.6537 12.6205 19.7274 12.7611 19.742C13.408 19.8099 13.8958 20.3499 13.8958 20.9982C13.8958 21.6464 13.408 22.1865 12.7611 22.2544C12.6205 22.269 12.4925 22.3427 12.4094 22.4567C12.3263 22.5708 12.2958 22.7149 12.3256 22.8527C12.5493 23.8905 12.9578 24.8711 13.5401 25.7678C13.6169 25.8862 13.7407 25.9663 13.8806 25.9886C14.0196 26.0119 14.1631 25.9735 14.2733 25.8843C14.7781 25.4777 15.5069 25.5165 15.9666 25.9745C16.4265 26.4325 16.4657 27.1575 16.0575 27.6606C15.9685 27.7698 15.9305 27.912 15.9529 28.0512C15.9753 28.1905 16.056 28.3132 16.1747 28.3899C17.0753 28.9692 18.0605 29.3758 19.1032 29.5985C19.2417 29.6267 19.3862 29.5981 19.501 29.5151C19.6156 29.4326 19.6897 29.305 19.7045 29.1648C19.7725 28.5214 20.3151 28.0362 20.9664 28.0362C21.6176 28.0362 22.1602 28.5214 22.2282 29.1648C22.2431 29.305 22.3172 29.4326 22.4317 29.5151C22.5178 29.5772 22.6204 29.6097 22.7247 29.6097C22.7596 29.6097 22.7947 29.6058 22.8295 29.5985C23.8722 29.3758 24.8574 28.9692 25.758 28.3899C25.8767 28.3132 25.9574 28.1905 25.9798 28.0512C26.0023 27.912 25.9642 27.7698 25.8753 27.6606C25.467 27.1575 25.5063 26.4325 25.9662 25.9745C26.4266 25.5165 27.1542 25.4772 27.6594 25.8843C27.7694 25.9731 27.9127 26.0124 28.0521 25.9886C28.192 25.9663 28.3158 25.8862 28.3926 25.7678C28.9749 24.8711 29.3834 23.8905 29.6072 22.8527C29.6369 22.7149 29.6064 22.5708 29.5233 22.4567C29.4402 22.3427 29.3122 22.269 29.1716 22.2544C28.5247 22.1865 28.037 21.6464 28.037 20.9982C28.037 20.3499 28.5247 19.8099 29.1716 19.742ZM28.5142 23.1142C28.347 23.7066 28.1099 24.2753 27.8057 24.8139C26.9628 24.4291 25.9452 24.5902 25.2603 25.2719C24.5757 25.9536 24.4131 26.9663 24.7999 27.8052C24.2588 28.1085 23.6875 28.3443 23.0923 28.5107C22.77 27.6446 21.9357 27.0425 20.9664 27.0425C19.997 27.0425 19.1627 27.6446 18.8405 28.5107C18.2453 28.3443 17.6739 28.1085 17.1328 27.8052C17.5197 26.9663 17.3571 25.9536 16.6724 25.2719C15.9873 24.5897 14.9697 24.4281 14.1271 24.8139C13.8229 24.2753 13.5857 23.7066 13.4185 23.1142C14.2889 22.7935 14.8941 21.9628 14.8941 20.9982C14.8941 20.0331 14.2891 19.2029 13.4185 18.8822C13.5857 18.2897 13.8229 17.7206 14.1271 17.1825C14.9699 17.5678 15.9873 17.4062 16.6724 16.7245C17.3573 16.0432 17.5199 15.0301 17.1328 14.1907C17.6739 13.8879 18.2455 13.6521 18.8405 13.4857C19.1625 14.3518 19.997 14.9539 20.9664 14.9539C21.9357 14.9539 22.7703 14.3518 23.0923 13.4857C23.6872 13.6521 24.2588 13.8879 24.7999 14.1907C24.4128 15.0301 24.5754 16.0432 25.2603 16.7245C25.945 17.4062 26.9621 17.5673 27.8057 17.1825C28.1099 17.7206 28.347 18.2897 28.5142 18.8822C27.6436 19.2029 27.0386 20.0331 27.0386 20.9982C27.0386 21.9628 27.6438 22.7935 28.5142 23.1142Z" fill="current" stroke="current" stroke-width="0.322253"/>
<path d="M7.75546 14.5731C11.4803 14.5731 14.5107 11.5565 14.5107 7.84905C14.5107 4.14155 11.4803 1.125 7.75546 1.125C4.0304 1.125 1 4.14155 1 7.84905C1 11.5565 4.0304 14.5731 7.75546 14.5731ZM4.33432 12.4471C4.40067 10.6086 5.92002 9.13243 7.78301 9.13243C9.63259 9.13243 11.1429 10.5875 11.2297 12.4075C10.2627 13.1395 9.0612 13.5794 7.75546 13.5794C6.47352 13.5794 5.29212 13.155 4.33432 12.4471ZM5.88282 6.24737C5.88282 5.20465 6.73517 4.35602 7.78301 4.35602C8.83084 4.35602 9.6832 5.20465 9.6832 6.24737C9.6832 7.29008 8.83084 8.13872 7.78301 8.13872C6.73517 8.13872 5.88282 7.29008 5.88282 6.24737ZM7.75546 2.11871C10.9299 2.11871 13.5123 4.68936 13.5123 7.84905C13.5123 9.27232 12.9852 10.5732 12.1191 11.5763C11.8008 10.2023 10.8415 9.0712 9.57019 8.51418C10.2455 7.98554 10.6815 7.16702 10.6815 6.24737C10.6815 4.65636 9.3812 3.36231 7.78301 3.36231C6.18481 3.36231 4.88447 4.65636 4.88447 6.24737C4.88447 7.16702 5.32051 7.98554 5.99582 8.51418C4.70986 9.07763 3.74154 10.2279 3.43468 11.6234C2.54357 10.614 1.99835 9.29516 1.99835 7.84905C1.99835 4.68936 4.58101 2.11871 7.75546 2.11871Z" fill="current" stroke="current" stroke-width="0.322253"/>
<path d="M34.181 1.125C30.4562 1.125 27.4258 4.14155 27.4258 7.84905C27.4258 11.5565 30.4562 14.5731 34.181 14.5731C37.9061 14.5731 40.9365 11.5565 40.9365 7.84905C40.9365 4.14155 37.9061 1.125 34.181 1.125ZM30.7601 12.4472C30.8264 10.6087 32.3458 9.13243 34.2088 9.13243C36.0583 9.13243 37.5687 10.5875 37.6554 12.4074C36.6885 13.1394 35.4868 13.5794 34.181 13.5794C32.8991 13.5794 31.7178 13.155 30.7601 12.4472ZM32.3086 6.24737C32.3086 5.20465 33.161 4.35602 34.2088 4.35602C35.2566 4.35602 36.109 5.20465 36.109 6.24737C36.109 7.29008 35.2566 8.13872 34.2088 8.13872C33.161 8.13872 32.3086 7.29008 32.3086 6.24737ZM38.5449 11.5762C38.2266 10.2022 37.2673 9.07117 35.996 8.51418C36.6713 7.98554 37.1073 7.16702 37.1073 6.24737C37.1073 4.65636 35.807 3.36231 34.2088 3.36231C32.6106 3.36231 31.3102 4.65636 31.3102 6.24737C31.3102 7.16702 31.7463 7.98554 32.4216 8.51418C31.1356 9.07763 30.1673 10.2279 29.8605 11.6235C28.9693 10.6141 28.4241 9.29522 28.4241 7.84905C28.4241 4.68936 31.0065 2.11871 34.181 2.11871C37.3555 2.11871 39.9381 4.68936 39.9381 7.84905C39.9381 9.27226 39.4109 10.5731 38.5449 11.5762Z" fill="current" stroke="current" stroke-width="0.322253"/>
<path d="M7.75546 40.8739C11.4803 40.8739 14.5107 37.8573 14.5107 34.1498C14.5107 30.4423 11.4803 27.4258 7.75546 27.4258C4.0304 27.4258 1 30.4423 1 34.1498C1 37.8573 4.0304 40.8739 7.75546 40.8739ZM4.33435 38.7479C4.40095 36.9096 5.92017 35.4332 7.78301 35.4332C9.63241 35.4332 11.1427 36.8885 11.2297 38.7083C10.2628 39.4402 9.0612 39.8802 7.75546 39.8802C6.47352 39.8802 5.29215 39.4558 4.33435 38.7479ZM5.88282 32.5481C5.88282 31.5054 6.73517 30.6568 7.78301 30.6568C8.83084 30.6568 9.6832 31.5054 9.6832 32.5481C9.6832 33.5909 8.83084 34.4395 7.78301 34.4395C6.73517 34.4395 5.88282 33.5909 5.88282 32.5481ZM7.75546 28.4195C10.9299 28.4195 13.5123 30.9901 13.5123 34.1498C13.5123 35.5731 12.9851 36.874 12.1191 37.8771C11.8007 36.503 10.8414 35.372 9.57019 34.8149C10.2455 34.2863 10.6815 33.4678 10.6815 32.5481C10.6815 30.9571 9.3812 29.6631 7.78301 29.6631C6.18481 29.6631 4.88447 30.9571 4.88447 32.5481C4.88447 33.4678 5.32051 34.2863 5.99582 34.8149C4.70992 35.3784 3.74167 36.5287 3.43474 37.9243C2.5436 36.9149 1.99835 35.596 1.99835 34.1498C1.99835 30.9901 4.58101 28.4195 7.75546 28.4195Z" fill="current" stroke="current" stroke-width="0.322253"/>
<path d="M34.181 27.4258C30.4562 27.4258 27.4258 30.4423 27.4258 34.1498C27.4258 37.8573 30.4562 40.8739 34.181 40.8739C37.9061 40.8739 40.9365 37.8573 40.9365 34.1498C40.9365 30.4423 37.9061 27.4258 34.181 27.4258ZM30.7601 38.748C30.8267 36.9096 32.3459 35.4332 34.2088 35.4332C36.0582 35.4332 37.5684 36.8885 37.6554 38.7081C36.6884 39.4402 35.4868 39.8802 34.181 39.8802C32.8991 39.8802 31.7179 39.4558 30.7601 38.748ZM32.3086 32.5481C32.3086 31.5054 33.161 30.6568 34.2088 30.6568C35.2566 30.6568 36.109 31.5054 36.109 32.5481C36.109 33.5909 35.2566 34.4395 34.2088 34.4395C33.161 34.4395 32.3086 33.5909 32.3086 32.5481ZM38.5448 37.877C38.2265 36.503 37.2672 35.372 35.996 34.8149C36.6713 34.2863 37.1073 33.4678 37.1073 32.5481C37.1073 30.9571 35.807 29.6631 34.2088 29.6631C32.6106 29.6631 31.3102 30.9571 31.3102 32.5481C31.3102 33.4678 31.7463 34.2863 32.4216 34.8149C31.1357 35.3784 30.1674 36.5287 29.8605 37.9243C28.9694 36.9149 28.4241 35.596 28.4241 34.1498C28.4241 30.9901 31.0065 28.4195 34.181 28.4195C37.3555 28.4195 39.9381 30.9901 39.9381 34.1498C39.9381 35.5731 39.4109 36.8739 38.5448 37.877Z" fill="current" stroke="current" stroke-width="0.322253"/>
</svg>
