<svg width="541" height="446" viewBox="0 0 541 446" fill="none" xmlns="http://www.w3.org/2000/svg">
<path d="M403.32 94.2441H343.742V180.6H403.32V94.2441Z" fill="#E0E0E0"/>
<path d="M400.34 94.2441H340.762V180.6H400.34V94.2441Z" fill="#E0E0E0"/>
<path d="M392.94 103.594H348.164V171.25H392.94V103.594Z" fill="white"/>
<path d="M392.926 171.239C392.926 171.239 392.926 171.132 392.926 170.918V169.956C392.926 169.1 392.926 167.865 392.926 166.249C392.926 163.006 392.926 158.278 392.926 152.302C392.926 140.422 392.926 123.481 392.855 103.594L392.998 103.736H348.234L348.4 103.57C348.4 129.088 348.4 152.623 348.4 171.215L348.269 171.096H380.868H389.861H392.926H392.142H389.766H380.785H348.115H347.984V170.965C347.984 152.373 347.984 128.839 347.984 103.321V103.154H393.069V103.309C393.069 123.243 393.01 140.137 392.998 152.124C392.998 158.064 392.998 162.816 392.998 166.023C392.998 167.627 392.998 168.863 392.998 169.706V170.645C392.995 170.845 392.971 171.044 392.926 171.239Z" fill="#E0E0E0"/>
<path d="M400.505 94.2441C400.199 94.7895 399.845 95.3064 399.447 95.7885C398.758 96.7033 397.772 97.9626 396.656 99.3525C395.539 100.743 394.482 101.919 393.709 102.774C393.308 103.257 392.867 103.706 392.391 104.116C392.749 103.593 393.146 103.096 393.579 102.631L396.454 99.1506L399.317 95.6698C399.67 95.1605 400.067 94.6834 400.505 94.2441Z" fill="#E0E0E0"/>
<path d="M393.164 171.025C395.396 174.563 398.018 177.839 400.981 180.791L393.164 171.025Z" fill="white"/>
<path d="M400.981 180.79C400.484 180.445 400.026 180.046 399.615 179.602C398.577 178.543 397.594 177.433 396.669 176.275C395.743 175.134 394.878 173.944 394.079 172.711C393.718 172.21 393.411 171.673 393.164 171.107C393.575 171.565 393.945 172.058 394.269 172.581C394.922 173.507 395.849 174.766 396.918 176.145C397.987 177.523 399.033 178.675 399.781 179.518C400.212 179.912 400.613 180.337 400.981 180.79Z" fill="#E0E0E0"/>
<path d="M340.762 180.529L348.555 170.906L340.762 180.529Z" fill="white"/>
<path d="M348.555 170.906C347.386 172.606 346.129 174.244 344.789 175.813C342.627 178.474 340.821 180.565 340.762 180.565C341.929 178.86 343.186 177.218 344.528 175.646C345.789 174 347.134 172.417 348.555 170.906Z" fill="#E0E0E0"/>
<path d="M340.762 94.2441C342.109 95.6805 343.374 97.1916 344.551 98.7704C345.821 100.292 347.011 101.878 348.115 103.522C346.768 102.086 345.503 100.575 344.326 98.9961C343.05 97.4796 341.86 95.8932 340.762 94.2441Z" fill="#E0E0E0"/>
<path d="M378.993 117.327H364V159.893H378.993V117.327Z" fill="#C1C1C1"/>
<path d="M284.82 335.86C282.11 336.755 279.609 338.187 277.466 340.071C275.322 341.955 273.581 344.252 272.346 346.825C269.911 351.993 268.692 357.65 268.782 363.362C268.639 374.375 273.403 386.112 278.939 395.628C289.097 388.809 292.97 375.171 294.502 368.126C296.878 356.982 294.502 335.396 284.832 335.86" fill="#F5F5F5"/>
<path d="M266.039 412.212C267.06 409.185 267.261 405.942 266.623 402.812C265.984 399.682 264.529 396.777 262.404 394.392C260.245 392.049 257.642 390.16 254.746 388.834C251.849 387.508 248.718 386.773 245.534 386.67C242.6 386.516 239.344 386.967 237.372 389.153C236.514 390.231 235.959 391.518 235.765 392.882C235.571 394.245 235.744 395.636 236.268 396.911C237.352 399.453 239.09 401.662 241.305 403.314C248.587 409.254 256.749 413.733 266.039 412.188" fill="#F5F5F5"/>
<path d="M273.653 438.681C273.789 436.252 273.678 433.816 273.32 431.41C273.03 428.766 272.424 426.165 271.514 423.665C270.496 420.591 269.278 417.586 267.867 414.672C265.265 409.317 261.38 404.69 256.557 401.2C255.065 400.181 253.473 399.317 251.805 398.622C251.211 398.336 250.572 398.151 249.917 398.075C249.822 398.277 252.471 399.263 255.999 401.901C260.509 405.494 264.162 410.048 266.691 415.23C268.074 418.099 269.3 421.042 270.362 424.045C271.291 426.463 271.968 428.972 272.382 431.529C273.118 435.937 273.463 438.705 273.653 438.681Z" fill="#E0E0E0"/>
<path d="M285.189 352.492C284.808 353.654 284.53 354.846 284.357 356.056C283.906 358.432 283.3 361.759 282.587 365.928C281.15 374.244 279.308 385.816 277.574 398.622C275.839 411.429 274.616 423.059 273.903 431.506C273.546 435.723 273.297 439.133 273.166 441.497C273.025 442.72 273.001 443.953 273.095 445.18C273.382 443.986 273.565 442.77 273.641 441.545C273.938 438.967 274.319 435.605 274.829 431.589C275.768 423.178 277.134 411.571 278.857 398.789C280.579 386.006 282.29 374.648 283.502 366.059C284.072 362.044 284.535 358.694 284.892 356.139C285.095 354.934 285.195 353.714 285.189 352.492Z" fill="#E0E0E0"/>
<path d="M279.293 418.129C282.1 412.02 286.321 406.667 291.608 402.515C296.894 398.362 303.094 395.529 309.694 394.25C313.044 393.632 317.179 393.751 319.02 396.626C320.861 399.501 319.246 403.326 317.214 406.13C312.867 411.782 306.944 416.022 300.192 418.316C293.44 420.61 286.16 420.854 279.27 419.02" fill="#F5F5F5"/>
<path d="M305.013 403.101C304.366 403.131 303.728 403.268 303.124 403.505C301.936 403.837 300.214 404.419 298.135 405.191C292.636 407.19 287.553 410.186 283.142 414.03C280.764 416.227 278.758 418.795 277.202 421.633C275.958 423.963 275.042 426.454 274.482 429.035C274.1 430.761 273.878 432.519 273.816 434.286C273.707 434.926 273.707 435.581 273.816 436.222C274.066 436.222 274.161 433.478 275.266 429.248C276.717 423.741 279.729 418.77 283.938 414.933C288.262 411.201 293.155 408.185 298.432 405.999C302.53 404.229 305.108 403.291 305.013 403.101Z" fill="#E0E0E0"/>
<path d="M511.239 127.674C511.239 127.674 498.789 124.004 493.752 152.622C488.715 181.241 488.311 197.006 488.311 197.006C488.311 197.006 486.564 203.219 481.955 200.915C477.345 198.61 469.517 190.496 463.992 194.084C458.254 197.802 458.337 205.453 462.697 215.385C467.057 225.316 475.765 247.461 476.573 249.456C477.381 251.452 477.096 254.743 473.71 253.686C470.324 252.628 448.762 239.632 443.179 250.324C437.595 261.016 454.298 286.629 456.068 289.528C457.838 292.426 457.637 293.876 456.401 295.087C455.165 296.299 448.323 291.25 442.026 287.805C435.73 284.36 427.83 281.473 425.145 287.864C422.46 294.256 427.521 315.806 458.195 343.974L473.235 356.091L491.447 349.391C529.546 332.664 541.343 313.941 540.892 307.015C540.44 300.089 532.005 300.22 524.937 301.408C517.868 302.596 509.754 305.197 508.97 303.641C508.186 302.085 508.495 300.6 511.097 298.485C513.698 296.371 537.803 277.458 535.985 265.613C534.167 253.769 509.528 259.079 505.976 258.984C502.424 258.889 503.279 255.67 504.634 254.066C505.988 252.462 521.468 234.321 528.81 226.326C536.151 218.331 538.706 211.132 534.488 205.75C530.425 200.558 520.375 205.75 515.278 206.391C510.182 207.033 510.526 200.641 510.526 200.641C510.526 200.641 515.278 185.601 519.757 156.876C524.236 128.15 510.966 127.651 510.966 127.651" fill="#B6C5E0"/>
<path d="M506.689 153.324C506.689 153.324 506.689 153.526 506.63 153.93L506.38 155.7C506.143 157.28 505.798 159.573 505.371 162.496C504.48 168.436 503.137 176.942 501.438 187.444C498.041 208.531 493.122 237.613 487.551 269.724C481.979 301.836 476.977 330.906 473.473 351.97C471.726 362.483 470.313 370.978 469.338 376.918C468.851 379.84 468.471 382.121 468.15 383.701C468.02 384.45 467.925 385.032 467.842 385.459C467.758 385.887 467.711 386.053 467.711 386.053C467.711 386.053 467.711 385.851 467.782 385.448C467.853 385.044 467.925 384.438 468.02 383.677C468.257 382.097 468.602 379.805 469.03 376.882C469.921 370.942 471.263 362.436 472.962 351.934C476.36 330.847 481.278 301.753 486.861 269.641C492.445 237.53 497.47 208.471 501.034 187.36C502.769 176.847 504.183 168.352 505.169 162.412L506.297 155.629L506.606 153.871C506.624 153.687 506.652 153.505 506.689 153.324Z" fill="#E0E0E0"/>
<path d="M474.496 205.916C474.822 206.251 475.109 206.622 475.351 207.021C475.874 207.757 476.539 208.839 477.466 210.181C479.212 212.878 481.529 216.656 484 220.873L490.285 231.719L492.197 234.986C492.469 235.35 492.688 235.75 492.851 236.174C492.52 235.845 492.229 235.478 491.983 235.081C491.473 234.345 490.795 233.264 489.893 231.909C488.17 229.189 485.901 225.375 483.43 221.158L477.074 210.359C476.314 209.076 475.66 207.983 475.138 207.092C474.873 206.73 474.657 206.335 474.496 205.916Z" fill="#E0E0E0"/>
<path d="M494.653 236.068C494.547 235.913 502.138 230.805 511.606 224.639C521.075 218.473 528.808 213.614 528.915 213.757C529.022 213.9 521.419 219.032 511.963 225.186C502.506 231.339 494.748 236.198 494.653 236.068Z" fill="#E0E0E0"/>
<path d="M483.891 284.966C484.319 284.755 484.769 284.591 485.233 284.479L488.94 283.35C492.064 282.388 496.388 281.057 501.093 279.406C505.797 277.755 510.027 276.151 513.08 274.951L516.644 273.537C517.077 273.326 517.536 273.175 518.01 273.086C517.616 273.356 517.194 273.583 516.751 273.763C515.919 274.167 514.719 274.725 513.187 275.379C510.193 276.686 505.987 278.384 501.307 280.024C496.626 281.663 492.23 282.946 489.07 283.79C487.478 284.206 486.195 284.526 485.292 284.728C484.836 284.863 484.366 284.943 483.891 284.966Z" fill="#E0E0E0"/>
<path d="M459.656 261.729C460.036 261.954 460.387 262.226 460.702 262.536C461.343 263.083 462.27 263.891 463.387 264.912C465.644 266.944 468.721 269.771 472.095 272.919C475.469 276.068 478.498 278.955 480.672 281.069C481.753 282.115 482.62 282.982 483.214 283.588C483.542 283.884 483.837 284.214 484.093 284.574C483.709 284.359 483.357 284.091 483.048 283.778C482.395 283.231 481.48 282.412 480.351 281.402C478.106 279.382 475.017 276.555 471.643 273.395C468.269 270.235 465.24 267.36 463.078 265.257C461.985 264.2 461.117 263.344 460.523 262.726C460.192 262.433 459.901 262.097 459.656 261.729Z" fill="#E0E0E0"/>
<path d="M444.664 303.713C445.144 304.012 445.59 304.363 445.995 304.758L449.452 307.788C452.35 310.366 456.318 313.953 460.69 317.957C465.062 321.961 469.006 325.608 471.798 328.269L475.113 331.453C475.547 331.808 475.945 332.206 476.301 332.641C475.827 332.332 475.382 331.983 474.97 331.595L471.513 328.566C468.614 325.988 464.646 322.388 460.274 318.397C455.903 314.405 451.958 310.746 449.178 308.085L445.828 304.972C445.397 304.594 445.007 304.172 444.664 303.713Z" fill="#E0E0E0"/>
<path d="M475.707 331.773C476.245 331.507 476.806 331.288 477.382 331.12L482.039 329.516C485.959 328.162 491.377 326.273 497.305 324.028C503.233 321.782 508.543 319.62 512.369 318.028L516.919 316.139C517.465 315.882 518.034 315.675 518.618 315.521C518.119 315.862 517.585 316.149 517.026 316.377C515.98 316.888 514.46 317.565 512.559 318.444C508.769 320.155 503.471 322.388 497.531 324.633C491.591 326.879 486.15 328.732 482.182 329.92C480.198 330.538 478.618 331.013 477.43 331.322C476.872 331.529 476.295 331.68 475.707 331.773Z" fill="#E0E0E0"/>
<path d="M93.3607 381.419C120.792 365.762 129.702 332.878 131.377 302.738C131.662 297.701 132.695 292.474 130.711 287.853C128.727 283.231 123.441 279.715 118.76 281.414C114.875 282.827 112.82 287.009 110.444 290.407C107.22 294.929 102.785 298.45 97.6494 300.564C94.2992 301.93 90.26 302.572 87.2663 300.564C83.1558 297.772 83.1914 291.749 83.7022 286.771C84.6447 277.458 85.5516 268.159 86.4228 258.877C86.9099 253.9 87.3969 248.803 86.2802 243.932C85.1635 239.061 82.1341 234.333 77.5128 232.575C72.8914 230.817 66.7614 233.003 65.312 237.802C64.718 239.798 64.9319 241.936 64.6111 243.992C64.2903 246.047 63.1023 248.257 61.0471 248.66C58.9919 249.064 57.1386 247.472 55.7843 245.869C51.0323 240.356 48.1929 233.549 45.5199 226.789C42.8469 220.03 40.2809 213.151 36.111 207.223C31.9411 201.295 25.8823 196.365 18.7781 195.343C11.6738 194.321 3.65482 198.004 1.20754 204.847C-1.23974 211.69 2.19358 219.222 6.13774 225.328C12.0207 234.365 19.1747 242.507 27.3792 249.504C28.8523 250.763 30.4442 252.129 30.9432 254.03C31.7154 257.452 28.2583 260.469 24.8844 261.265C21.0471 262.156 17.0436 261.396 13.1232 261.503C9.20277 261.61 4.80718 262.928 3.0133 266.48C0.494737 271.387 4.27258 277.172 8.14546 281.01C15.9071 288.794 24.9538 295.18 34.8873 299.887C38.4513 301.562 42.1817 303.095 44.9022 305.946C47.6227 308.797 49.0008 313.442 46.898 316.792C44.7953 320.142 40.0908 320.855 36.3129 319.786C32.5351 318.717 29.2919 316.317 25.7516 314.606C19.1345 311.387 10.2363 311.042 5.30613 316.567C2.06289 320.202 1.31445 325.595 2.34801 330.371C3.38157 335.147 5.97141 339.424 8.77509 343.439C18.5761 357.339 31.6916 369.005 47.1 375.978C62.5083 382.952 77.0851 385.791 93.432 381.467" fill="#B6C5E0"/>
<path d="M91.7193 403.73C91.5936 389.667 90.1257 375.649 87.3356 361.865C83.8416 345.036 79.3872 328.42 73.9943 312.1L69.7888 299.257C68.4107 295.04 67.0445 290.858 65.4526 286.843C62.3919 279.151 58.9057 271.635 55.0101 264.33C51.3392 257.333 47.6089 250.823 44.0686 244.764C40.5284 238.705 37.0951 233.121 33.7687 228.132C28.5481 220.302 22.7166 212.898 16.3288 205.987C14.0716 203.54 12.2659 201.699 11.0185 200.463L9.59287 199.073C9.43516 198.909 9.26431 198.758 9.08203 198.622C9.21586 198.803 9.36277 198.973 9.52159 199.133L10.8878 200.594C12.0758 201.865 13.8578 203.754 16.0675 206.237C22.3401 213.234 28.0784 220.691 33.2341 228.548C36.5248 233.502 39.8987 239.097 43.4152 245.18C46.9317 251.262 50.6383 257.772 54.2736 264.758C58.1398 272.03 61.6098 279.505 64.6686 287.152C66.2367 291.143 67.591 295.289 68.9572 299.519C70.3234 303.748 71.7134 308.025 73.1271 312.373C78.5012 328.653 82.9671 345.22 86.504 361.996C89.3211 375.723 90.8484 389.683 91.0659 403.694" fill="#E0E0E0"/>
<path d="M65.2422 286.783C65.5576 286.121 65.7891 285.423 65.9312 284.704C66.3233 283.349 66.8104 281.377 67.3925 278.918C68.5805 274.012 69.9229 267.193 71.4079 259.661C72.8929 252.129 74.3541 245.345 75.5897 240.474C76.1955 238.098 76.7064 236.067 77.0865 234.713C77.3185 234.018 77.4777 233.302 77.5618 232.574C77.2097 233.217 76.9345 233.899 76.742 234.606C76.2668 235.936 75.6491 237.885 74.96 240.308C73.5582 245.143 71.99 251.939 70.505 259.482L66.751 278.835C66.2876 281.152 65.8956 283.112 65.563 284.68C65.39 285.369 65.2826 286.073 65.2422 286.783Z" fill="#E0E0E0"/>
<path d="M2.20312 268.927C3.0296 269.178 3.87624 269.357 4.73356 269.462C6.373 269.759 8.73712 270.175 11.6358 270.793C17.457 271.981 25.4285 273.858 34.1366 276.34C42.8446 278.823 50.626 281.437 56.2096 283.468C59.0014 284.466 61.2467 285.334 62.7911 285.928C63.5774 286.288 64.3971 286.57 65.2384 286.771C64.5112 286.3 63.7392 285.902 62.9337 285.583C61.4249 284.882 59.2152 283.92 56.4353 282.839C50.8992 280.629 43.1297 277.932 34.386 275.426C26.9386 273.267 19.3848 271.495 11.7546 270.115C8.83217 269.593 6.44429 269.272 4.79297 269.082C3.93716 268.943 3.06941 268.891 2.20312 268.927Z" fill="#E0E0E0"/>
<path d="M86.6484 360.617C86.855 360.395 87.0272 360.143 87.1593 359.869L88.478 357.647C89.666 355.723 91.1628 352.895 93.0399 349.331C96.8058 342.275 101.712 332.355 106.963 321.33C112.214 310.306 117.014 300.35 120.637 293.222L124.938 284.787L126.126 282.483C126.272 282.22 126.388 281.941 126.47 281.651C126.27 281.874 126.098 282.122 125.959 282.388L124.653 284.609C123.524 286.546 121.968 289.361 120.079 292.925C116.313 299.994 111.418 309.914 106.155 320.938C100.893 331.963 96.1049 341.906 92.4934 349.046L88.181 357.481L86.993 359.786C86.8402 360.046 86.7242 360.326 86.6484 360.617Z" fill="#E0E0E0"/>
<path d="M3.9375 325.334C4.18865 325.515 4.46476 325.659 4.75722 325.762L7.13322 326.819L15.9838 330.621C23.4682 333.816 33.8038 338.366 45.0898 343.403C56.3758 348.441 66.7589 352.907 74.3146 355.949C78.0806 357.481 81.1456 358.681 83.284 359.513L85.7432 360.416C86.0257 360.532 86.3207 360.616 86.6223 360.665C86.3768 360.482 86.1043 360.337 85.8145 360.237L83.4385 359.18L74.5403 355.343C67.0559 352.135 56.7203 347.585 45.4343 342.548C34.1483 337.511 23.7533 333.044 16.2095 330.003C12.4436 328.482 9.37854 327.27 7.24014 326.439L4.78098 325.548C4.50916 325.444 4.22606 325.372 3.9375 325.334Z" fill="#E0E0E0"/>
<path d="M177.707 23.0586V121.116H36.8815L31.7969 23.7476L177.707 23.0586Z" fill="#E0E0E0"/>
<path d="M31.7969 23.7604L31.7969 120.915L172.622 120.915V23.7604L31.7969 23.7604Z" fill="#F7B36F"/>
<path d="M173.301 121.58H31.1328V23.083H173.301V121.58ZM32.4753 120.238H171.958V24.4136H32.4753V120.238Z" fill="#E0E0E0"/>
<path d="M157.372 35.8184H47.0547V108.833H157.372V35.8184Z" fill="white"/>
<path d="M157.382 35.818H156.836H155.327H149.268L126.53 35.9011L47.1122 36.0556L47.433 35.7348C47.433 58.0455 47.433 82.7677 47.433 108.749L47.0766 108.405L157.406 108.476L157.121 108.749C157.192 86.5337 157.24 68.3573 157.275 55.6338C157.275 49.2899 157.275 44.3359 157.347 40.9383C157.347 39.2632 157.347 37.9683 157.347 37.0773C157.347 36.1863 157.347 35.7348 157.347 35.7348C157.347 35.7348 157.347 36.1625 157.347 37.0179C157.347 37.8732 157.347 39.1681 157.347 40.8313C157.347 44.2053 157.347 49.1473 157.418 55.4556C157.418 68.1791 157.501 86.4624 157.561 108.749V109.034H157.287L46.9578 109.106H46.6133V108.749C46.6133 82.7677 46.6133 58.0455 46.6133 35.7348V35.4141H46.9222L126.518 35.5804L149.185 35.6635H155.125H156.658L157.382 35.818Z" fill="#E0E0E0"/>
<path d="M31.7754 23.4746C32.6253 23.9038 33.4226 24.4301 34.1514 25.0428C35.6008 26.0882 37.561 27.5613 39.6756 29.2602C41.7902 30.959 43.6554 32.5509 44.9741 33.7508C45.729 34.3511 46.4037 35.0458 46.9818 35.8179C46.8511 35.9724 43.4178 33.1806 39.236 29.7948C35.0543 26.409 31.6804 23.6409 31.7754 23.4746Z" fill="#E0E0E0"/>
<path d="M172.637 23.748C170.32 26.0255 167.842 28.1337 165.224 30.0563C162.752 32.1628 160.131 34.0884 157.383 35.8181C159.715 33.5437 162.204 31.4358 164.832 29.5098C167.293 27.4062 169.901 25.4807 172.637 23.748Z" fill="#E0E0E0"/>
<path d="M172.518 120.927L156.824 108.191L172.518 120.927Z" fill="white"/>
<path d="M156.824 108.191C159.643 110.044 162.338 112.08 164.891 114.286C167.584 116.32 170.133 118.539 172.517 120.927C169.695 119.079 167 117.043 164.451 114.832C160.079 111.328 156.693 108.346 156.824 108.191Z" fill="#E0E0E0"/>
<path d="M31.7734 120.914C34.0683 118.658 36.5218 116.57 39.1153 114.665C41.5635 112.584 44.1558 110.678 46.8729 108.963C44.584 111.22 42.1342 113.309 39.543 115.212C37.0909 117.294 34.4946 119.199 31.7734 120.914Z" fill="#E0E0E0"/>
<path d="M69.457 58.5805V83.0295H138.872V58.5805H69.457Z" fill="#E0E0E0"/>
<path d="M502.889 0.273438H427.594V109.415H502.889V0.273438Z" fill="#E0E0E0"/>
<path d="M499.124 0.273438H423.828V109.415H499.124V0.273438Z" fill="#455A64"/>
<path d="M489.76 12.0938H433.176V97.5941H489.76V12.0938Z" fill="white"/>
<path d="M489.774 97.5939C489.774 97.5939 489.774 97.4514 489.774 97.1781V95.9901C489.774 94.909 489.774 93.3409 489.774 91.2975C489.774 87.1989 489.774 81.2352 489.774 73.6914C489.774 58.6156 489.714 37.2554 489.679 12.1173L489.869 12.3074H433.177L433.391 12.1054C433.391 44.3596 433.391 74.0953 433.391 97.6414L433.225 97.4751L474.413 97.5702H485.794H488.788H489.821H488.823H485.865H474.52L433.225 97.6533H433.07V97.487C433.07 73.9765 433.07 44.2408 433.07 11.951V11.8916H490.094V12.0817C490.094 37.2792 490.035 58.6632 490.011 73.7745C490.011 81.2946 490.011 87.2583 489.952 91.345C489.952 93.3646 489.952 94.909 489.952 95.9901V97.1781C489.774 97.4632 489.774 97.5939 489.774 97.5939Z" fill="#E0E0E0"/>
<path d="M499.334 0.273438C498.952 0.965477 498.503 1.61809 497.992 2.22176C497.113 3.40976 495.877 4.9898 494.428 6.7124C492.979 8.435 491.684 9.95564 490.698 11.0367C490.21 11.6455 489.669 12.21 489.082 12.7237C489.505 12.0571 489.986 11.429 490.52 10.8466L494.143 6.45104C495.509 4.77596 496.757 3.2672 497.766 2.04356C498.238 1.41008 498.762 0.817898 499.334 0.273438Z" fill="#E0E0E0"/>
<path d="M490.059 97.321C492.877 101.792 496.188 105.933 499.931 109.664L490.059 97.321Z" fill="white"/>
<path d="M499.931 109.665C499.305 109.202 498.728 108.677 498.209 108.096C497.199 107.075 495.833 105.614 494.478 103.903C493.314 102.438 492.224 100.915 491.211 99.3409C490.748 98.7098 490.35 98.0331 490.023 97.3213C490.535 97.9057 490.999 98.5294 491.413 99.1864C492.245 100.374 493.409 101.943 494.764 103.641C496.118 105.34 497.425 106.837 498.387 107.894C498.944 108.447 499.46 109.038 499.931 109.665Z" fill="#E0E0E0"/>
<path d="M423.812 109.331L433.673 97.166L423.812 109.331Z" fill="white"/>
<path d="M433.677 97.166C432.205 99.3205 430.619 101.395 428.925 103.379C426.192 106.729 423.911 109.402 423.828 109.319C425.303 107.167 426.889 105.093 428.58 103.106C430.175 101.039 431.876 99.0564 433.677 97.166Z" fill="#E0E0E0"/>
<path d="M423.812 0.273438C425.498 2.09551 427.084 4.00699 428.564 5.99959C430.158 7.89895 431.649 9.88176 433.031 11.9396C431.342 10.121 429.755 8.20931 428.279 6.21343C426.686 4.31407 425.195 2.33127 423.812 0.273438Z" fill="#E0E0E0"/>
<path d="M472.144 29.4512H453.195V83.2438H472.144V29.4512Z" fill="#B6C5E0"/>
</svg>
