<svg width="15" height="15" viewBox="0 0 15 15" fill="none" xmlns="http://www.w3.org/2000/svg">
<desc>
    icon representing the close button
</desc>
<path d="M0.292787 1.29357C0.480314 1.1061 0.734622 1.00078 0.999786 1.00078C1.26495 1.00078 1.51926 1.1061 1.70679 1.29357L6.99979 6.58657L12.2928 1.29357C12.385 1.19806 12.4954 1.12188 12.6174 1.06947C12.7394 1.01706 12.8706 0.989473 13.0034 0.988319C13.1362 0.987165 13.2678 1.01247 13.3907 1.06275C13.5136 1.11303 13.6253 1.18728 13.7192 1.28117C13.8131 1.37507 13.8873 1.48672 13.9376 1.60962C13.9879 1.73251 14.0132 1.86419 14.012 1.99697C14.0109 2.12975 13.9833 2.26097 13.9309 2.38297C13.8785 2.50498 13.8023 2.61532 13.7068 2.70757L8.41379 8.00057L13.7068 13.2936C13.8889 13.4822 13.9897 13.7348 13.9875 13.997C13.9852 14.2592 13.88 14.51 13.6946 14.6954C13.5092 14.8808 13.2584 14.986 12.9962 14.9882C12.734 14.9905 12.4814 14.8897 12.2928 14.7076L6.99979 9.41457L1.70679 14.7076C1.51818 14.8897 1.26558 14.9905 1.00339 14.9882C0.741188 14.986 0.490376 14.8808 0.304968 14.6954C0.11956 14.51 0.0143906 14.2592 0.0121121 13.997C0.00983372 13.7348 0.110629 13.4822 0.292787 13.2936L5.58579 8.00057L0.292787 2.70757C0.105316 2.52004 0 2.26573 0 2.00057C0 1.73541 0.105316 1.4811 0.292787 1.29357Z" fill="black"/>
</svg>
