<svg width="912" height="148" viewBox="0 0 912 148" fill="none" xmlns="http://www.w3.org/2000/svg">
<desc>
    platform name and logo with a word play
</desc>
<g clip-path="url(#clip0_887_5677)">
<path d="M44.9064 28.214C54.9374 28.214 63.2189 30.7024 69.7507 35.679C76.2826 40.5779 80.7926 47.3041 83.281 55.8577H72.0835C69.984 50.4145 66.6014 46.0988 61.9358 42.9107C57.2702 39.6448 51.5549 38.0118 44.7898 38.0118C39.4243 38.0118 34.6032 39.3337 30.3264 41.9776C26.1274 44.5436 22.7837 48.2761 20.2954 53.175C17.8848 57.9961 16.6795 63.6726 16.6795 70.2044C16.6795 76.6585 17.8848 82.2961 20.2954 87.1172C22.7837 91.9384 26.1274 95.6708 30.3264 98.3147C34.6032 100.881 39.4243 102.164 44.7898 102.164C51.5549 102.164 57.2702 100.57 61.9358 97.3816C66.6014 94.1156 69.984 89.7611 72.0835 84.3179H83.281C80.7926 92.8715 76.2826 99.6366 69.7507 104.613C63.2189 109.512 54.9374 111.962 44.9064 111.962C37.2082 111.962 30.4042 110.212 24.4944 106.713C18.5846 103.136 13.9579 98.198 10.6142 91.8995C7.34832 85.5232 5.71536 78.2915 5.71536 70.2044C5.71536 62.0396 7.34832 54.7691 10.6142 48.3928C13.9579 42.0164 18.5846 37.0787 24.4944 33.5795C30.4042 30.0025 37.2082 28.214 44.9064 28.214Z" fill="#3450A1"/>
<path d="M93.0782 28.4473C93.0782 26.5033 93.7391 24.9481 95.061 23.7817C96.383 22.5376 98.1326 21.9155 100.31 21.9155C102.487 21.9155 104.237 22.5376 105.559 23.7817C106.881 24.9481 107.542 26.5033 107.542 28.4473C107.542 30.3913 106.881 31.9854 105.559 33.2296C104.237 34.396 102.487 34.9792 100.31 34.9792C98.1326 34.9792 96.383 34.396 95.061 33.2296C93.7391 31.9854 93.0782 30.3913 93.0782 28.4473ZM105.559 47.2264V111.262H94.9444V47.2264H105.559ZM147.468 99.9476L167.297 47.2264H178.727L153.65 111.262H141.053L115.975 47.2264H127.406L147.468 99.9476Z" fill="#3450A1"/>
<path d="M183.119 28.4473C183.119 26.5033 183.78 24.9481 185.102 23.7817C186.424 22.5376 188.174 21.9155 190.351 21.9155C192.528 21.9155 194.278 22.5376 195.6 23.7817C196.922 24.9481 197.583 26.5033 197.583 28.4473C197.583 30.3913 196.922 31.9854 195.6 33.2296C194.278 34.396 192.528 34.9792 190.351 34.9792C188.174 34.9792 186.424 34.396 185.102 33.2296C183.78 31.9854 183.119 30.3913 183.119 28.4473ZM195.6 47.2264V111.262H184.985V47.2264H195.6Z" fill="#3450A1"/>
<path d="M238.468 46.4099C246.632 46.4099 253.398 48.5872 258.763 52.9417C264.128 57.2963 267.433 63.1283 268.677 70.4377H257.48C256.702 65.8499 254.564 62.2729 251.065 59.7068C247.643 57.063 243.366 55.7411 238.234 55.7411C234.502 55.7411 231.08 56.5964 227.97 58.3072C224.937 60.0179 222.488 62.6617 220.622 66.2387C218.755 69.7379 217.822 74.0924 217.822 79.3024C217.822 84.5123 218.755 88.9057 220.622 92.4827C222.488 95.9819 224.937 98.5868 227.97 100.298C231.08 102.008 234.502 102.864 238.234 102.864C243.366 102.864 247.643 101.542 251.065 98.8979C254.564 96.254 256.702 92.6382 257.48 88.0504H268.677C267.433 95.4376 264.128 101.308 258.763 105.663C253.398 109.94 246.632 112.078 238.468 112.078C232.325 112.078 226.881 110.756 222.138 108.112C217.395 105.469 213.662 101.697 210.941 96.7984C208.297 91.8217 206.975 85.9897 206.975 79.3024C206.975 72.615 208.297 66.783 210.941 61.8064C213.662 56.8297 217.395 53.0195 222.138 50.3756C226.881 47.7318 232.325 46.4099 238.468 46.4099Z" fill="#3450A1"/>
<path d="M361.753 29.0305V37.6619H338.541V111.262H327.927V37.6619H304.716V29.0305H361.753Z" fill="#3450A1"/>
<path d="M420.508 75.6865C420.508 77.9416 420.352 79.8856 420.041 81.5185H368.836C369.07 88.828 371.13 94.31 375.018 97.9648C378.984 101.619 383.805 103.447 389.482 103.447C394.614 103.447 398.89 102.164 402.312 99.5977C405.811 96.9539 407.95 93.4547 408.727 89.1001H420.041C419.264 93.5324 417.514 97.4982 414.792 100.997C412.149 104.497 408.688 107.218 404.411 109.162C400.135 111.106 395.314 112.078 389.948 112.078C383.805 112.078 378.362 110.756 373.618 108.112C368.875 105.469 365.143 101.697 362.421 96.7984C359.777 91.8217 358.455 85.9897 358.455 79.3024C358.455 72.615 359.777 66.783 362.421 61.8064C365.143 56.8297 368.875 53.0195 373.618 50.3756C378.362 47.7318 383.805 46.4099 389.948 46.4099C396.169 46.4099 401.573 47.7318 406.161 50.3756C410.827 53.0195 414.365 56.5576 416.775 60.9899C419.264 65.4222 420.508 70.3211 420.508 75.6865ZM409.777 76.3864C410.01 71.643 409.233 67.6772 407.444 64.4891C405.656 61.3009 403.206 58.9292 400.096 57.374C396.985 55.8188 393.603 55.0412 389.948 55.0412C384.116 55.0412 379.217 56.8686 375.251 60.5233C371.286 64.1003 369.147 69.388 368.836 76.3864H409.777Z" fill="#3450A1"/>
<path d="M460.788 46.4099C468.953 46.4099 475.718 48.5872 481.083 52.9417C486.449 57.2963 489.754 63.1283 490.998 70.4377H479.8C479.023 65.8499 476.884 62.2729 473.385 59.7068C469.964 57.063 465.687 55.7411 460.555 55.7411C456.822 55.7411 453.401 56.5964 450.29 58.3072C447.258 60.0179 444.808 62.6617 442.942 66.2387C441.076 69.7379 440.143 74.0924 440.143 79.3024C440.143 84.5123 441.076 88.9057 442.942 92.4827C444.808 95.9819 447.258 98.5868 450.29 100.298C453.401 102.008 456.822 102.864 460.555 102.864C465.687 102.864 469.964 101.542 473.385 98.8979C476.884 96.254 479.023 92.6382 479.8 88.0504H490.998C489.754 95.4376 486.449 101.308 481.083 105.663C475.718 109.94 468.953 112.078 460.788 112.078C454.645 112.078 449.202 110.756 444.458 108.112C439.715 105.469 435.982 101.697 433.261 96.7984C430.617 91.8217 429.295 85.9897 429.295 79.3024C429.295 72.615 430.617 66.783 433.261 61.8064C435.982 56.8297 439.715 53.0195 444.458 50.3756C449.202 47.7318 454.645 46.4099 460.788 46.4099Z" fill="#3450A1"/>
<path d="M536.304 46.1766C543.769 46.1766 549.795 48.5872 554.383 53.4083C558.971 58.1516 561.265 65.0334 561.265 74.0536V111.262H550.65V74.9867C550.65 68.6104 549.018 63.7115 545.752 60.29C542.486 56.8686 538.053 55.1579 532.455 55.1579C526.623 55.1579 521.957 57.063 518.458 60.8732C514.959 64.6057 513.209 70.0878 513.209 77.3195V111.262H502.595V24.9481H513.209V62.3896C514.842 57.1796 517.719 53.175 521.84 50.3756C526.039 47.5763 530.861 46.1766 536.304 46.1766Z" fill="#3450A1"/>
<path d="M636.498 85.1344C636.498 91.1996 633.699 94.2323 628.917 94.2323C623.785 94.2323 620.752 90.8497 620.752 83.8513H600.923C600.923 102.28 612.704 112.078 629.5 112.078C645.713 112.078 656.444 102.747 656.444 85.1344V29.3804H636.498V85.1344Z" fill="#3450A1"/>
<path d="M797.216 55.3912V24.9481H777.271V111.262H797.216V102.164C800.832 107.879 807.714 112.195 817.278 112.195C833.258 112.195 845.972 99.1312 845.972 78.6025C845.972 58.0739 833.375 45.2435 817.278 45.2435C807.947 45.2435 800.832 49.5592 797.216 55.3912ZM825.676 78.6025C825.676 88.9835 818.911 94.8155 811.33 94.8155C803.865 94.8155 797.1 89.1001 797.1 78.7192C797.1 68.3382 803.865 62.6228 811.33 62.6228C818.911 62.6228 825.676 68.2216 825.676 78.6025Z" fill="#3450A1"/>
<path d="M907.32 92.366C906.97 68.1049 871.744 75.4532 871.744 65.0723C871.744 61.923 874.31 60.0568 878.976 60.0568C884.575 60.0568 887.957 62.9728 888.541 67.4051H906.97C905.687 54.5747 896.355 45.2435 879.559 45.2435C862.53 45.2435 853.082 54.3414 853.082 65.4222C853.082 89.3334 888.541 81.7518 888.541 92.2494C888.541 95.1654 885.858 97.4982 880.726 97.4982C875.244 97.4982 871.161 94.4656 870.695 89.9166H850.982C851.916 102.514 863.58 112.195 880.959 112.195C897.289 112.195 907.32 103.68 907.32 92.366Z" fill="#3450A1"/>
<path d="M708.33 81.1486C720.16 81.1486 729.75 71.5585 729.75 59.7286C729.75 47.8987 720.16 38.3086 708.33 38.3086C696.5 38.3086 686.91 47.8987 686.91 59.7286C686.91 71.5585 696.5 81.1486 708.33 81.1486Z" fill="#44AFF1"/>
<path d="M678.58 90.1705C686.06 97.6768 696.072 102.122 706.656 102.636C717.241 103.15 727.636 99.6956 735.809 92.9492C743.981 86.2029 749.341 76.65 750.842 66.1598C752.342 55.6695 749.874 44.9969 743.92 36.2305" stroke="#3450A1" stroke-width="17.85" stroke-linecap="round" stroke-linejoin="bevel"/>
</g>
<defs>
<clipPath id="clip0_887_5677">
<rect width="912" height="147" fill="white" transform="translate(0 0.410156)"/>
</clipPath>
</defs>
</svg>
