<svg width="397" height="377" viewBox="0 0 397 377" fill="none" xmlns="http://www.w3.org/2000/svg">
<g clip-path="url(#clip0_5961_52487)">
<path d="M36.624 366.898C35.4968 365.931 32.9881 362.869 34.9289 359.315C35.6324 358.008 37.141 357.364 38.5055 356.77C39.9097 356.296 41.233 355.609 42.4296 354.734C44.5569 352.919 45.1417 349.916 46.557 347.499C48.1758 344.725 51.2015 342.647 54.3967 342.791C58.058 342.961 61.1091 345.947 62.4991 349.365C63.889 352.783 63.9314 356.558 63.9568 360.248C63.9568 362.283 63.8806 364.582 62.3889 365.956C60.8973 367.33 58.931 367.237 57.0664 367.186L37.0647 366.567" fill="#F5F5F5"/>
<path d="M74.8634 311.84H22.2148L31.6902 368.391C31.8843 369.57 32.4097 370.671 33.2051 371.563C34.0004 372.455 35.033 373.102 36.1821 373.429L36.3686 373.48C36.5216 373.529 36.6772 373.568 36.8347 373.599C37.1858 373.675 37.5434 373.718 37.9026 373.726V373.777L38.1569 373.734H61.6589C62.0914 373.735 62.5229 373.692 62.9471 373.607C64.3145 373.393 65.5745 372.738 66.5353 371.741C67.4961 370.744 68.1052 369.461 68.2696 368.085L72.8378 329.118L73.0412 327.566L74.8549 312.128L74.8634 311.84ZM64.9388 347.915H59.5062L60.0825 331.536H66.3372L64.9388 347.915ZM66.8627 331.536H72.0327L70.1088 347.949H65.4389L66.8627 331.536ZM51.4377 366.143L51.1071 351.893H58.879L58.4128 366.151L51.4377 366.143ZM43.0302 351.893H50.5817L50.9122 366.151H44.132L43.0302 351.893ZM43.615 366.151H37.2839C36.6822 362.3 35.894 357.296 35.0464 351.893H42.5047L43.615 366.151ZM42.7674 347.957L41.4538 331.536H50.1155L50.4969 347.949L42.7674 347.957ZM51.0563 347.957L50.641 331.536H59.557L59.0146 347.949L51.0563 347.957ZM50.5901 327.6L50.1833 312.332H60.1927L59.6926 327.532L50.5901 327.6ZM50.0647 327.6H41.1402L39.9621 312.332H49.6748L50.0647 327.6ZM40.6656 327.6H31.2241C30.8936 325.496 30.5715 323.511 30.2918 321.722C29.3087 315.58 28.9442 313.239 28.7408 312.391H39.4367L40.6656 327.6ZM40.9707 331.536L42.242 347.949H34.4278C34.165 346.252 33.9023 344.556 33.6395 342.91C33.0293 339.034 32.4191 335.166 31.8428 331.536H40.9707ZM33.9447 347.949H28.8595L26.0711 331.536H31.3173C32.1225 336.574 33.0124 342.223 33.8599 347.915L33.9447 347.949ZM34.5634 351.884C35.3346 356.821 36.0974 361.681 36.7924 366.143H31.8767L29.4867 351.893L34.5634 351.884ZM58.9722 366.143L59.4045 351.893H64.5913L63.3709 366.151L58.9722 366.143ZM60.252 327.6L60.7605 312.4H67.9815L66.6847 327.6H60.252ZM28.2408 312.332C28.4442 313.426 29.4104 319.414 30.6901 327.532H25.41L22.8674 312.332H28.2408ZM67.9815 366.109H63.9133L65.1253 351.893H69.6765L67.9815 366.109ZM72.4988 327.566H67.1933L68.49 312.366H74.2701L72.4988 327.566Z" fill="#E0E0E0"/>
<path d="M116.4 8.27026H31.5625V131.339H116.4V8.27026Z" fill="#E0E0E0"/>
<path d="M112.154 8.27026H27.3164V131.339H112.154V8.27026Z" fill="#F5F5F5"/>
<path d="M101.611 21.5957H37.8516V118.004H101.611V21.5957Z" fill="white"/>
<path d="M101.611 118.004V110.879C101.611 106.257 101.611 99.5217 101.551 91.0225C101.551 74.0581 101.492 49.9432 101.45 21.5957L101.662 21.8078H37.9104L38.1477 21.5787C38.1477 57.9504 38.1477 91.4806 38.0969 117.987L37.9104 117.801L84.3212 117.903L97.1443 117.945H97.2375L84.4568 117.987L37.9359 118.089H37.7579V117.903C37.7579 91.3958 37.7579 57.8656 37.707 21.4939V21.2649H101.882V21.4769C101.84 49.8838 101.806 74.0072 101.78 91.031C101.78 99.5132 101.729 106.231 101.721 110.845V117.428C101.724 117.625 101.686 117.822 101.611 118.004Z" fill="#E0E0E0"/>
<path d="M112.392 8.27026C111.944 9.04095 111.437 9.77547 110.875 10.4672C109.891 11.7819 108.493 13.5801 106.9 15.5565C105.306 17.5328 103.806 19.2123 102.704 20.4337C102.14 21.1205 101.516 21.7563 100.84 22.3338C101.317 21.589 101.858 20.8879 102.459 20.2387L106.544 15.2766L110.62 10.3145C111.15 9.5829 111.743 8.89891 112.392 8.27026Z" fill="#E0E0E0"/>
<path d="M101.934 117.691C105.103 122.736 108.833 127.405 113.053 131.61L101.934 117.691Z" fill="white"/>
<path d="M113.053 131.61C112.348 131.092 111.7 130.501 111.12 129.846C109.621 128.347 108.207 126.767 106.883 125.113C105.563 123.464 104.329 121.749 103.187 119.972C102.675 119.26 102.241 118.495 101.891 117.691C102.464 118.353 102.988 119.056 103.459 119.794C104.391 121.109 105.705 122.899 107.239 124.824C108.773 126.75 110.239 128.421 111.315 129.625C111.941 130.244 112.522 130.908 113.053 131.61Z" fill="#E0E0E0"/>
<path d="M27.3008 131.237L38.4119 117.512L27.3008 131.237Z" fill="white"/>
<path d="M38.4106 117.512C36.7479 119.944 34.9541 122.283 33.0373 124.519C31.2423 126.856 29.3271 129.098 27.2995 131.237C27.2063 131.16 29.6132 128.022 32.6813 124.23C34.4755 121.895 36.3878 119.653 38.4106 117.512Z" fill="#E0E0E0"/>
<path d="M27.3008 8.27026C29.2115 10.321 31.0109 12.4729 32.6911 14.7167C34.4915 16.8704 36.1721 19.1216 37.7254 21.4601C35.8286 19.4081 34.0461 17.2532 32.386 15.0051C30.5711 12.8533 28.8736 10.6051 27.3008 8.27026Z" fill="#E0E0E0"/>
<path d="M81.7438 41.1726H60.3945V101.837H81.7438V41.1726Z" fill="#E0E0E0"/>
<path d="M373.829 0.0253906H293.746V83.5751H373.829V0.0253906Z" fill="#E0E0E0"/>
<path d="M368.407 0.0253906H288.324V83.5751H368.407V0.0253906Z" fill="#FAFAFA"/>
<path d="M368.431 83.6006H288.34V0H368.431V83.6006ZM288.34 83.5497H368.372V0.0508944H288.34V83.5497Z" fill="#E0E0E0"/>
<path d="M357.642 11.2559H299.086V72.3447H357.642V11.2559Z" fill="white"/>
<path d="M299.086 72.752C298.671 73.3701 298.188 73.9392 297.645 74.4484C296.704 75.4323 295.391 76.7725 293.924 78.223C292.458 79.6734 291.094 80.9712 290.093 81.8873C289.586 82.422 289.017 82.8947 288.398 83.2953C288.813 82.6772 289.296 82.108 289.839 81.5989C290.772 80.6149 292.094 79.2748 293.568 77.8158C295.043 76.3569 296.408 75.0591 297.399 74.143C297.902 73.6116 298.468 73.1443 299.086 72.752Z" fill="#E0E0E0"/>
<path d="M357.641 72.5991C358.26 73.0115 358.829 73.4955 359.336 74.0411C360.327 74.9826 361.658 76.2974 363.107 77.7733C364.556 79.2492 365.853 80.5978 366.777 81.5987C367.311 82.1066 367.784 82.676 368.184 83.2952C367.566 82.8802 366.998 82.3964 366.489 81.8532C365.506 80.9202 364.167 79.5969 362.709 78.121C361.251 76.6451 359.963 75.2795 359.039 74.2871C358.512 73.7782 358.043 73.212 357.641 72.5991Z" fill="#E0E0E0"/>
<path d="M357.48 11.4171C357.896 10.7968 358.382 10.2274 358.93 9.72065C359.862 8.72824 361.176 7.39653 362.65 5.94608C364.125 4.49562 365.473 3.19784 366.473 2.28176C366.98 1.74405 367.549 1.26853 368.168 0.865234C367.758 1.48729 367.274 2.05698 366.727 2.56168C365.795 3.54561 364.473 4.8858 362.998 6.34474C361.523 7.80368 360.167 9.09297 359.167 10.0175C358.663 10.5497 358.096 11.0196 357.48 11.4171Z" fill="#E0E0E0"/>
<path d="M298.926 11.5698C298.306 11.1544 297.737 10.6676 297.231 10.1194C296.248 9.18634 294.909 7.8716 293.46 6.3957C292.01 4.91979 290.714 3.56264 289.798 2.57022C289.261 2.06286 288.786 1.49338 288.383 0.873779C289.004 1.28361 289.574 1.76785 290.078 2.31575C291.061 3.2488 292.4 4.56354 293.858 6.04792C295.316 7.53231 296.604 8.88098 297.528 9.88188C298.064 10.3826 298.534 10.9499 298.926 11.5698Z" fill="#E0E0E0"/>
<path d="M357.479 72.3447V67.9C357.479 65.0076 357.479 60.8004 357.42 55.4566C357.42 44.7521 357.352 29.5096 357.301 11.2644L357.53 11.4849H299.144L299.406 11.2304C299.406 33.6489 299.406 54.6254 299.364 72.3023L299.144 72.0733L341.427 72.192L353.292 72.2514H353.419L341.554 72.3108L299.127 72.421H298.906V10.9929H357.835V11.2219C357.784 29.5265 357.742 44.82 357.716 55.5584C357.716 60.8768 357.716 65.0755 357.657 67.9509V72.0563C357.606 72.1574 357.547 72.2538 357.479 72.3447Z" fill="#E0E0E0"/>
<path d="M338.133 32.0203H318.598V51.5717H338.133V32.0203Z" fill="#EBEBEB"/>
<path d="M246.277 346.956V372.496H283.594H324.759V346.956H246.277Z" fill="#F5F5F5"/>
<path d="M242.98 339.814V346.956H327.496V339.814H283.594H242.98Z" fill="#E0E0E0"/>
<path d="M285.238 372.496H324.758V346.956H327.496V339.814H283.594V346.294L285.238 372.496Z" fill="#E0E0E0"/>
<path d="M273.167 351.07H257.25V354.912H273.167V351.07Z" fill="#E0E0E0"/>
<path d="M275.633 359.722H255.199V367.839H275.633V359.722Z" fill="white"/>
<path d="M258.344 314.308V339.848H295.669H336.825V314.308H258.344Z" fill="#F5F5F5"/>
<path d="M255.43 307.166V314.308H339.954V307.166H296.043H255.43Z" fill="#EBEBEB"/>
<path d="M297.316 339.848H337.209V314.308H339.574V307.166H295.672V313.646L297.316 339.848Z" fill="#EBEBEB"/>
<path d="M285.237 318.422H269.32V322.264H285.237V318.422Z" fill="#E0E0E0"/>
<path d="M287.711 327.074H267.277V335.191H287.711V327.074Z" fill="white"/>
<path d="M397 373.336C397 373.454 308.12 373.556 198.508 373.556C88.8974 373.556 0 373.454 0 373.336C0 373.217 88.8635 373.098 198.5 373.098C308.136 373.098 397 373.208 397 373.336Z" fill="#263238"/>
<path d="M196.585 160.526V161.374H193.195V160.704L195.145 158.397H193.246V157.548H196.543V158.218L194.594 160.526H196.585Z" fill="#263238"/>
<path d="M190.37 156.802V158.804H182.395V157.235L186.954 151.84H182.513V149.838H190.234V151.407L185.658 156.802H190.37Z" fill="#263238"/>
<path d="M178.947 152.213V156.242H162.844V153.087L172.039 142.204H163.081V138.141H178.642V141.296L169.454 152.179L178.947 152.213Z" fill="#263238"/>
<path d="M174.77 103.483H162.472V119.319H139.673V103.483H95.9492V88.2149L133.037 36.5498H157.26L123.587 84.8984H140.368V70.8518H162.455V84.9238H174.77V103.483Z" fill="#FF725E"/>
<path d="M179.473 77.9174C179.473 50.6132 194.83 34.8872 215.976 34.8872C237.122 34.8872 252.36 50.6387 252.36 77.9174C252.36 105.196 237.003 120.948 215.976 120.948C194.949 120.948 179.473 105.256 179.473 77.9174ZM228.85 77.9174C228.85 60.5374 223.417 54.04 215.976 54.04C208.534 54.04 202.983 60.5374 202.983 77.9174C202.983 95.2975 208.416 101.803 215.976 101.803C223.536 101.803 228.85 95.3229 228.85 77.9174Z" fill="#FF725E"/>
<path d="M338.344 103.483H326.055V119.319H303.256V103.483H259.523V88.2149L296.62 36.5498H320.834L287.17 84.8984H303.942V70.8518H326.029V84.9238H338.344V103.483Z" fill="#FF725E"/>
<g opacity="0.3">
<path d="M174.77 103.483H162.472V119.319H139.673V103.483H95.9492V88.2149L133.037 36.5498H157.26L123.587 84.8984H140.368V70.8518H162.455V84.9238H174.77V103.483Z" fill="black"/>
<path d="M179.473 77.9174C179.473 50.6132 194.83 34.8872 215.976 34.8872C237.122 34.8872 252.36 50.6387 252.36 77.9174C252.36 105.196 237.003 120.948 215.976 120.948C194.949 120.948 179.473 105.256 179.473 77.9174ZM228.85 77.9174C228.85 60.5374 223.417 54.04 215.976 54.04C208.534 54.04 202.983 60.5374 202.983 77.9174C202.983 95.2975 208.416 101.803 215.976 101.803C223.536 101.803 228.85 95.3229 228.85 77.9174Z" fill="black"/>
<path d="M338.344 103.483H326.055V119.319H303.256V103.483H259.523V88.2149L296.62 36.5498H320.834L287.17 84.8984H303.942V70.8518H326.029V84.9238H338.344V103.483Z" fill="black"/>
</g>
<path d="M167.912 103.483H155.623V119.319H132.824V103.483H89.1172V88.2149L126.214 36.5498H150.428L116.764 84.8984H133.536V70.8518H155.623V84.9238H167.912V103.483Z" fill="#FF725E"/>
<path d="M172.625 77.9174C172.625 50.6132 187.982 34.8872 209.128 34.8872C230.274 34.8872 245.513 50.6387 245.513 77.9174C245.513 105.196 230.155 120.948 209.128 120.948C188.101 120.948 172.625 105.256 172.625 77.9174ZM222.002 77.9174C222.002 60.5374 216.569 54.04 209.128 54.04C201.687 54.04 196.135 60.5374 196.135 77.9174C196.135 95.2975 201.568 101.803 209.128 101.803C216.688 101.803 222.002 95.3229 222.002 77.9174Z" fill="#FF725E"/>
<path d="M331.503 103.483H319.214V119.319H296.415V103.483H252.742V88.2149L289.839 36.5498H314.019L280.355 84.8984H297.127V70.8518H319.214V84.9238H331.503V103.483Z" fill="#FF725E"/>
<path d="M182.219 16.1502C182.219 11.2559 186.058 7.66797 191.262 7.66797C196.466 7.66797 200.314 11.2475 200.314 16.1502C200.314 21.0529 196.474 24.6324 191.262 24.6324C186.05 24.6324 182.219 21.0359 182.219 16.1502ZM195.661 16.1502C195.686 15.5726 195.598 14.9957 195.401 14.4523C195.203 13.9089 194.901 13.4097 194.511 12.9832C194.121 12.5566 193.651 12.2112 193.128 11.9665C192.605 11.7218 192.038 11.5827 191.461 11.5571C190.296 11.5053 189.157 11.9191 188.297 12.7073C187.436 13.4955 186.923 14.5936 186.872 15.76C186.863 15.8899 186.863 16.0203 186.872 16.1502C186.846 16.7277 186.934 17.3047 187.132 17.8481C187.329 18.3915 187.631 18.8907 188.021 19.3172C188.809 20.1786 189.906 20.6915 191.071 20.7433C192.237 20.795 193.375 20.3813 194.236 19.5931C194.662 19.2028 195.007 18.7323 195.251 18.2086C195.496 17.6848 195.635 17.1179 195.661 16.5404C195.669 16.4104 195.669 16.2801 195.661 16.1502Z" fill="#263238"/>
<path d="M201.73 17.9654C201.73 14.1654 204.731 11.468 208.85 11.468C212.969 11.468 215.961 14.1654 215.961 17.9654C215.961 21.7654 213.011 24.4967 208.85 24.4967C204.688 24.4967 201.73 21.7739 201.73 17.9654ZM211.494 17.9654C211.494 16.0569 210.358 14.9796 208.85 14.9796C207.341 14.9796 206.197 16.0569 206.197 17.9654C206.197 19.8739 207.358 20.9851 208.85 20.9851C210.341 20.9851 211.494 19.8908 211.494 17.9654Z" fill="#263238"/>
<path d="M232.121 17.9822C232.121 21.9858 229.358 24.4965 225.934 24.4965C225.289 24.5296 224.645 24.4291 224.041 24.2014C223.437 23.9737 222.887 23.6237 222.425 23.1733V28.8055H217.992V11.6799H222.23V12.9353C222.698 12.4243 223.277 12.0267 223.921 11.7725C224.566 11.5182 225.26 11.4141 225.951 11.4679C229.358 11.4679 232.121 13.9786 232.121 17.9822ZM227.654 17.9822C227.654 16.0737 226.493 14.9795 225.01 14.9795C223.527 14.9795 222.357 16.0737 222.357 17.9822C222.357 19.8907 223.518 20.9849 225.01 20.9849C226.501 20.9849 227.654 19.8907 227.654 17.9822Z" fill="#263238"/>
<path d="M233.172 23.1988L234.494 20.1707C235.835 20.9333 237.351 21.3337 238.893 21.3327C240.376 21.3327 240.867 21.0104 240.867 20.4845C240.867 18.7881 233.426 20.7135 233.426 15.6666C233.426 13.2916 235.613 11.4764 239.562 11.4764C241.281 11.4415 242.984 11.8074 244.537 12.5452L243.215 15.5479C242.107 14.9281 240.857 14.6067 239.588 14.6148C238.096 14.6148 237.562 15.0389 237.562 15.463C237.562 17.2019 244.978 15.3188 244.978 20.3233C244.978 22.6475 242.842 24.4627 238.749 24.4627C236.813 24.5147 234.896 24.0801 233.172 23.1988Z" fill="#263238"/>
<path d="M246.336 22.0538C246.306 21.5186 246.439 20.9868 246.718 20.5289C246.996 20.0711 247.407 19.7086 247.896 19.4897C248.385 19.2707 248.929 19.2055 249.456 19.3027C249.983 19.3999 250.467 19.6549 250.846 20.034C251.225 20.413 251.48 20.8983 251.577 21.4255C251.674 21.9527 251.609 22.4969 251.39 22.9863C251.171 23.4756 250.809 23.8869 250.352 24.1657C249.894 24.4445 249.363 24.5776 248.828 24.5476C248.18 24.5092 247.568 24.2342 247.109 23.7746C246.649 23.3149 246.374 22.7027 246.336 22.0538ZM246.336 7.99878H251.591L250.701 18.3555H247.192L246.336 7.99878Z" fill="#263238"/>
<path d="M103.998 295.359H93.5391V345.633H103.998V295.359Z" fill="#E0E0E0"/>
<path d="M61.3594 288.887C61.5289 288.887 93.5655 298.938 93.5655 298.938H104.016L140.705 288.887H61.3594Z" fill="#E0E0E0"/>
<path d="M32.1284 120.269C27.4925 121.312 23.348 125.596 24.043 134.146C24.043 134.146 20.3478 134.842 20.5766 141.551C20.8054 148.26 20.1189 189.9 28.4332 212.547C35.2728 231.165 47.0789 270.989 51.0962 284.586C51.492 285.932 52.3129 287.113 53.436 287.953C54.559 288.792 55.9237 289.245 57.3255 289.243H147.774C149.332 289.238 150.874 288.925 152.311 288.323C153.749 287.721 155.054 286.842 156.152 285.735C157.25 284.628 158.119 283.316 158.71 281.873C159.301 280.43 159.603 278.885 159.597 277.326C159.597 277.19 159.597 277.046 159.597 276.91C159.459 273.839 158.136 270.942 155.908 268.827C153.679 266.712 150.718 265.544 147.647 265.569L81.692 266.256C81.692 266.256 77.6493 244.457 73.4879 244.203C73.4879 244.203 75.3355 230.555 68.4027 226.627C68.4027 226.627 69.7842 209.782 62.3937 208.264C62.3937 208.264 63.5464 194.166 57.3086 191.664C57.3086 191.664 60.775 178.941 54.3083 172.511C54.3083 172.511 56.1559 157.71 54.3083 146.606C52.4607 135.503 51.7827 115.884 32.1284 120.269Z" fill="#455A64"/>
<path d="M152.411 278.284H150.614H145.419L126.053 278.343L59.7843 278.42H59.6317L59.5809 278.276L50.258 251.217C44.8423 235.364 39.7148 220.249 35.1974 206.457C34.0702 203.005 32.9854 199.671 31.9683 196.346C31.4402 194.732 31.0045 193.09 30.6632 191.426C30.4872 190.614 30.357 189.793 30.2733 188.967C30.1801 188.118 30.036 187.338 29.9851 186.532C29.4003 180.094 29.2647 174.072 29.1376 168.584C28.9935 157.608 29.1376 148.718 29.2901 142.586C29.3749 139.524 29.4427 137.149 29.4851 135.52L29.5614 133.68C29.5425 133.474 29.5425 133.266 29.5614 133.06V135.596C29.5614 137.225 29.4936 139.609 29.4427 142.662C29.358 148.803 29.2478 157.684 29.4427 168.66C29.5614 174.14 29.7139 180.154 30.2902 186.575C30.3496 187.423 30.4852 188.178 30.5784 188.992C30.665 189.81 30.798 190.623 30.9767 191.426C31.3341 193.092 31.7898 194.735 32.3413 196.346C33.3583 199.629 34.4516 202.988 35.5873 206.44C40.1216 220.223 45.2661 235.33 50.6733 251.183C53.8939 260.514 57.0129 269.658 59.9962 278.25L59.7928 278.106L126.061 278.182L145.427 278.242H151.962C152.11 278.265 152.26 278.279 152.411 278.284Z" fill="#263238"/>
<path d="M71.8521 266.358C71.5938 266.631 71.3099 266.878 71.0045 267.096C70.4367 267.546 69.6315 268.224 68.6653 269.072C66.1427 271.296 63.7965 273.712 61.6478 276.299C59.501 278.887 57.5464 281.628 55.7998 284.502C55.1303 285.604 54.6048 286.512 54.2573 287.148C54.0941 287.488 53.8952 287.809 53.6641 288.107C53.7773 287.748 53.9249 287.402 54.1048 287.072C54.4099 286.41 54.893 285.477 55.5286 284.349C57.2063 281.405 59.1405 278.614 61.3088 276.011C63.4675 273.404 65.862 271.002 68.4619 268.835C69.2408 268.17 70.0526 267.544 70.8943 266.96C71.1914 266.726 71.5124 266.524 71.8521 266.358Z" fill="#263238"/>
<path d="M81.6939 266.222H81.0413L79.1428 266.273L71.8541 266.392H71.7608V266.299L71.6083 265.374C71.5158 265.085 71.4054 264.801 71.2777 264.526C70.9785 263.931 70.4582 263.477 69.8285 263.262C68.3526 262.94 66.8096 263.185 65.5061 263.949L65.2009 264.093L65.3111 263.779C66.3349 260.787 66.482 257.564 65.7349 254.491C64.8951 250.865 62.8735 247.621 59.9886 245.271L59.8785 245.186L59.9293 245.059C60.8351 242.474 60.9562 239.679 60.2775 237.026C59.5988 234.372 58.1507 231.979 56.1154 230.147L56.0052 230.063L56.0561 229.927C57.1577 226.352 57.0945 222.52 55.8756 218.984C54.6567 215.448 52.3453 212.391 49.2759 210.257L49.1742 210.189V210.07C49.2406 207.73 49.167 205.387 48.9538 203.055C48.7498 200.671 48.3098 198.313 47.6401 196.015C46.9451 193.793 45.8942 191.57 44.0381 190.281L43.9025 190.188L43.9534 190.035C44.9377 186.627 45.3248 183.074 45.0975 179.534C44.9633 177.854 44.6041 176.199 44.0296 174.615C43.4387 173.09 42.5774 171.685 41.4871 170.467L41.3854 170.348L41.4616 170.221C43.3204 167.267 44.34 163.863 44.411 160.373C44.4267 157.221 43.4017 154.153 41.4955 151.645V151.534C41.5994 147.346 40.7563 143.188 39.0292 139.371C38.2911 137.824 37.2271 136.455 35.9103 135.359C34.7892 134.454 33.4758 133.819 32.071 133.501C30.9414 133.257 29.7825 133.177 28.63 133.264L27.2485 133.416L26.1129 133.645C25.4348 133.773 24.9348 133.959 24.5958 134.036L24.0703 134.163C24.7318 133.925 25.405 133.721 26.0874 133.552L27.2231 133.298L28.6216 133.12C29.7864 133.017 30.9599 133.086 32.1049 133.323C33.5472 133.628 34.8991 134.264 36.0544 135.181C37.4065 136.29 38.5024 137.679 39.2665 139.252C41.0359 143.103 41.9054 147.306 41.8091 151.543V151.441C43.7749 154.002 44.836 157.144 44.8263 160.373C44.7658 163.938 43.7343 167.419 41.843 170.441V170.195C42.9682 171.44 43.8609 172.876 44.4788 174.436C45.0775 176.074 45.4483 177.787 45.5806 179.526C45.8253 183.122 45.438 186.734 44.4365 190.196L44.25 189.882C46.2586 191.282 47.3181 193.589 48.03 195.82C48.7095 198.144 49.1469 200.531 49.3352 202.945C49.5541 205.296 49.6248 207.659 49.5471 210.019L49.4538 209.824C52.6063 212.009 54.9807 215.142 56.232 218.77C57.4834 222.397 57.5464 226.329 56.4121 229.995L56.3527 229.766C58.4529 231.662 59.9407 234.142 60.626 236.889C61.3114 239.636 61.1632 242.524 60.2005 245.186L60.1412 244.974C63.0859 247.376 65.1394 250.697 65.9722 254.407C66.7215 257.54 66.5537 260.823 65.4891 263.864L65.3026 263.695C66.0252 263.34 66.7919 263.083 67.5825 262.931C68.329 262.762 69.1069 262.795 69.8369 263.025C70.196 263.151 70.5255 263.349 70.8053 263.607C71.0851 263.865 71.3093 264.178 71.4642 264.526C71.5985 264.829 71.7118 265.14 71.8032 265.459L71.9558 266.392L71.8541 266.299H81.0413L81.6939 266.222Z" fill="#263238"/>
<g opacity="0.3">
<path d="M69.5882 226.356L39.3398 230.258C39.795 231.062 40.4295 231.751 41.1938 232.27C41.9582 232.79 42.8319 233.126 43.747 233.252C45.5761 233.483 47.429 233.445 49.2475 233.142C57.0791 232.291 64.9618 232.007 72.8342 232.293C71.9527 230.211 70.8652 228.222 69.5882 226.356Z" fill="black"/>
</g>
<path d="M54.6405 170.874C52.5559 171.148 50.4541 171.27 48.3518 171.239C46.2532 171.35 44.1495 171.322 42.0547 171.154C44.1393 170.88 46.2411 170.758 48.3434 170.789C50.442 170.677 52.5457 170.706 54.6405 170.874Z" fill="#263238"/>
<path d="M54.3594 365.464C54.3594 365.464 59.1988 350.688 65.8688 347.109C76.5816 341.366 101.287 338.626 101.287 338.626L103.991 345.616C103.991 345.616 71.0472 346.914 65.8519 353.564C62.8892 357.375 60.1281 361.338 57.58 365.439L54.3594 365.464Z" fill="#E0E0E0"/>
<path d="M58.5781 373.31C62.4397 373.31 65.5702 370.177 65.5702 366.313C65.5702 362.448 62.4397 359.315 58.5781 359.315C54.7164 359.315 51.5859 362.448 51.5859 366.313C51.5859 370.177 54.7164 373.31 58.5781 373.31Z" fill="#263238"/>
<path d="M143.647 365.201C143.647 365.201 138.808 350.425 132.138 346.846C121.425 341.103 96.7277 338.364 96.7277 338.364L94.0156 345.353C94.0156 345.353 126.959 346.651 132.154 353.309C135.117 357.12 137.878 361.084 140.426 365.184L143.647 365.201Z" fill="#E0E0E0"/>
<path d="M141.18 373.31C145.041 373.31 148.172 370.177 148.172 366.313C148.172 362.448 145.041 359.315 141.18 359.315C137.318 359.315 134.188 362.448 134.188 366.313C134.188 370.177 137.318 373.31 141.18 373.31Z" fill="#263238"/>
<path d="M95.1602 342.393L96.6942 361.41L101.017 362.266V342.393" fill="#E0E0E0"/>
<path d="M98.7617 373.31C102.623 373.31 105.754 370.177 105.754 366.313C105.754 362.448 102.623 359.315 98.7617 359.315C94.9 359.315 91.7695 362.448 91.7695 366.313C91.7695 370.177 94.9 373.31 98.7617 373.31Z" fill="#263238"/>
<path d="M46.7891 193.479C48.469 192.91 50.1923 192.479 51.942 192.19C53.6644 191.763 55.4192 191.479 57.1883 191.342C55.5086 191.911 53.7852 192.342 52.0353 192.631C50.3129 193.058 48.5582 193.341 46.7891 193.479Z" fill="#263238"/>
<path d="M61.7761 208.28C61.2241 208.543 60.6399 208.731 60.0386 208.84C58.619 209.197 57.182 209.48 55.7332 209.689C54.0381 209.935 52.4956 210.113 51.3769 210.181C50.7724 210.265 50.1591 210.265 49.5547 210.181C49.5547 210.053 52.3007 209.79 55.6654 209.256C59.0301 208.722 61.7422 208.162 61.7761 208.28Z" fill="#263238"/>
<path d="M74.2693 244.941C73.6122 245.126 72.9346 245.229 72.2521 245.246C70.9978 245.373 69.2604 245.483 67.3365 245.543C65.4126 245.602 63.6751 245.543 62.4123 245.543C61.7318 245.559 61.0518 245.493 60.3867 245.348C61.0591 245.24 61.7405 245.2 62.4208 245.229L67.328 245.119L72.2267 244.949C72.9056 244.878 73.5898 244.875 74.2693 244.941Z" fill="#263238"/>
<path d="M77.7841 258.224C77.7841 258.359 74.9703 258.97 71.6903 260.37C68.4104 261.769 65.9864 263.364 65.9102 263.254C66.3592 262.796 66.8732 262.407 67.4357 262.1C68.7372 261.278 70.1034 260.563 71.5208 259.962C72.9357 259.36 74.3986 258.878 75.8941 258.521C76.5087 258.341 77.1439 258.241 77.7841 258.224Z" fill="#263238"/>
<path d="M134.332 289.404C134.332 289.523 117.661 289.591 97.0998 289.54C76.5388 289.489 59.8594 289.37 59.8594 289.243C59.8594 289.116 76.5303 289.057 97.0998 289.099C117.669 289.141 134.332 289.277 134.332 289.404Z" fill="#263238"/>
<path d="M103.474 299.303C101.826 299.525 100.161 299.599 98.4991 299.523C96.8347 299.599 95.1669 299.525 93.5156 299.303C95.1673 299.085 96.8347 299.012 98.4991 299.082C100.161 299.012 101.825 299.085 103.474 299.303Z" fill="#263238"/>
<path d="M103.948 339.831C102.418 340.693 100.701 341.167 98.9458 341.213C97.191 341.259 95.4516 340.875 93.8789 340.094C95.5416 340.519 97.2483 340.746 98.9641 340.773C100.656 340.655 102.329 340.339 103.948 339.831Z" fill="#263238"/>
<path d="M206.906 182.698C206.906 182.698 202.923 176.582 200.618 174.496C198.838 172.893 190.201 169.712 186.32 168.329C185.075 167.889 183.766 167.66 182.447 167.651C177.361 167.6 163.92 167.651 157.072 168.872C148.537 170.433 205.16 214.998 205.16 214.998L252.325 215.109L255.41 203.454L223.925 196.948L206.55 183.156" fill="#E0E0E0"/>
<g opacity="0.3">
<path d="M170.105 170.484C170.105 170.484 173.224 170.637 177.572 171.332C181.92 172.028 186.692 172.248 189.082 174.369C190.683 175.785 200.481 176.065 200.481 176.065L186.92 175.565L170.105 170.484Z" fill="black"/>
</g>
<path d="M165.633 169.364C165.918 169.364 166.203 169.398 166.48 169.466C167.031 169.568 167.836 169.729 168.811 169.975C170.769 170.458 173.447 171.205 176.388 172.087L179.634 173.096H179.583C181.794 173.196 183.991 173.505 186.143 174.021C186.321 174.354 186.457 174.707 186.55 175.073C186.321 174.774 186.128 174.449 185.974 174.106L186.024 174.156C183.868 173.792 181.692 173.562 179.507 173.469H179.456L176.202 172.485L168.675 170.255L166.387 169.602C166.127 169.553 165.874 169.474 165.633 169.364Z" fill="#263238"/>
<path d="M288.846 214.668C288.914 214.311 287.914 210.248 287.812 209.841C287.711 209.434 284.609 204.752 284.609 204.752L282.914 204.235C282.914 204.235 275.032 202.36 273.438 202.47L272.328 202.589C272.328 202.589 270.26 202.742 269.446 202.886C268.633 203.03 263.59 204.803 263.59 204.803C262.354 205.065 261.088 205.16 259.827 205.083C258.088 204.802 256.365 204.429 254.666 203.963L252.648 215.075L256.462 214.956C257.652 215.382 258.881 215.686 260.132 215.864C261.505 215.957 265.395 216.381 265.395 216.381C265.395 216.381 271.404 218.926 272.913 215.38C274.421 211.835 268.624 211.47 268.624 211.47L270.421 210.198L275.023 209.723L276.218 210.104L277.532 212.14C277.532 212.14 277.176 216.636 280.074 216.33L280.837 216.245L281.244 211.631L279.871 206.966L282.905 211.572C282.905 211.572 283.168 215.558 284.482 216.076C284.583 216.121 284.693 216.141 284.804 216.135C286.397 216.084 286.711 215.635 286.711 215.635L287.041 214.829C287.041 214.829 288.618 215.881 288.846 214.668Z" fill="#FFBF9D"/>
<path d="M271.613 202.606C272.093 202.536 272.582 202.557 273.054 202.665C274.217 202.826 275.356 203.131 276.444 203.573C277.554 203.998 278.537 204.698 279.301 205.609C279.64 205.972 279.859 206.431 279.928 206.923C279.851 206.923 279.64 206.44 279.08 205.812C278.289 205.009 277.336 204.384 276.283 203.98C273.792 202.988 271.588 202.767 271.613 202.606Z" fill="#FF9A6C"/>
<path d="M274.581 207.458C274.699 207.458 274.784 207.941 274.843 208.518C274.903 209.095 274.92 209.587 274.801 209.621C274.682 209.655 274.47 209.18 274.403 208.569C274.335 207.958 274.453 207.449 274.581 207.458Z" fill="#FF9A6C"/>
<path d="M271.613 207.61C271.707 207.526 272.546 208.459 273.885 209.103C275.224 209.748 276.427 209.951 276.427 210.053C275.472 210.191 274.499 209.993 273.673 209.493C272.786 209.129 272.056 208.462 271.613 207.61Z" fill="#FF9A6C"/>
<path d="M262.004 208.026C262.429 208.066 262.837 208.211 263.19 208.45C264.092 208.949 264.866 209.648 265.453 210.494C265.635 210.766 265.799 211.05 265.945 211.343L265.716 211.224C266.819 211.002 267.963 211.099 269.013 211.504C267.935 211.488 266.857 211.536 265.784 211.648H265.631L265.555 211.512C265.416 211.24 265.26 210.977 265.089 210.723C264.24 209.638 263.193 208.723 262.004 208.026Z" fill="#FF9A6C"/>
<path d="M283.082 204.192C283.534 204.55 283.921 204.983 284.226 205.473C285.856 207.741 286.843 210.408 287.082 213.192C287.176 213.753 287.176 214.327 287.082 214.888C286.819 212.982 286.388 211.103 285.794 209.273C285.041 207.503 284.133 205.803 283.082 204.192Z" fill="#FF9A6C"/>
<path d="M208.007 337.286L207.16 360.239C207.16 360.239 230.153 368.857 230.408 373.098L185.878 373.005L185.785 337.176L208.007 337.286Z" fill="#455A64"/>
<path d="M193.415 358.28C192.987 358.408 192.622 358.691 192.391 359.073C192.159 359.455 192.077 359.91 192.161 360.349C192.211 360.567 192.303 360.774 192.433 360.956C192.563 361.138 192.728 361.293 192.918 361.411C193.107 361.529 193.319 361.609 193.54 361.645C193.76 361.681 193.986 361.673 194.204 361.622C194.657 361.482 195.042 361.179 195.286 360.772C195.531 360.365 195.616 359.882 195.526 359.416C195.359 358.978 195.03 358.62 194.607 358.418C194.184 358.216 193.7 358.184 193.254 358.331" fill="#E0E0E0"/>
<path d="M185.879 372.996L186.015 369.383L228.654 370.825C228.654 370.825 230.628 371.673 230.408 373.09L185.879 372.996Z" fill="#263238"/>
<path d="M207.866 360.01C207.866 360.231 206.764 360.324 205.696 361.02C204.628 361.715 204.052 362.631 203.848 362.546C203.645 362.461 203.975 361.206 205.289 360.383C206.603 359.561 207.908 359.815 207.866 360.01Z" fill="white"/>
<path d="M212.524 361.953C212.575 362.165 211.634 362.529 210.888 363.454C210.142 364.378 209.939 365.345 209.718 365.337C209.498 365.328 209.362 364.09 210.312 362.97C211.261 361.851 212.524 361.749 212.524 361.953Z" fill="white"/>
<path d="M215.169 367.551C214.966 367.602 214.669 366.516 215.228 365.32C215.788 364.124 216.805 363.624 216.924 363.844C217.042 364.065 216.381 364.692 215.94 365.642C215.5 366.592 215.381 367.534 215.169 367.551Z" fill="white"/>
<path d="M207.483 354.76C207.39 354.955 206.39 354.658 205.161 354.76C203.932 354.861 202.975 355.226 202.864 355.039C202.754 354.853 203.67 354.081 205.119 354.005C206.568 353.928 207.585 354.59 207.483 354.76Z" fill="white"/>
<path d="M172.318 334.928L157.91 352.741C157.91 352.741 171.148 373.438 168.835 377L133.238 350.196L154.605 321.467L172.318 334.928Z" fill="#455A64"/>
<path d="M148.036 342.918C147.614 342.768 147.152 342.777 146.736 342.944C146.321 343.111 145.981 343.425 145.781 343.826C145.611 344.237 145.604 344.698 145.762 345.114C145.919 345.53 146.229 345.87 146.629 346.065C147.075 346.224 147.565 346.214 148.004 346.036C148.443 345.857 148.801 345.524 149.01 345.098C149.142 344.647 149.093 344.163 148.875 343.747C148.657 343.331 148.286 343.016 147.841 342.868" fill="#E0E0E0"/>
<path d="M133.238 350.196L135.501 347.389L168.767 374.125C168.767 374.125 169.835 376.008 168.818 376.992L133.238 350.196Z" fill="#263238"/>
<path d="M158.589 353.004C158.453 353.173 157.521 352.597 156.25 352.512C154.978 352.427 153.97 352.817 153.86 352.622C153.75 352.427 154.767 351.63 156.309 351.774C157.852 351.918 158.75 352.868 158.589 353.004Z" fill="white"/>
<path d="M161.158 357.355C161.073 357.559 160.098 357.287 158.954 357.576C157.81 357.864 157.056 358.517 156.886 358.381C156.717 358.246 157.352 357.177 158.776 356.838C160.2 356.498 161.285 357.186 161.158 357.355Z" fill="white"/>
<path d="M159.918 363.42C159.732 363.344 160.139 362.292 161.308 361.673C162.478 361.053 163.563 361.291 163.529 361.495C163.495 361.698 162.605 361.817 161.664 362.343C160.723 362.869 160.105 363.539 159.918 363.42Z" fill="white"/>
<path d="M161.426 348.568C161.24 348.669 160.621 347.83 159.587 347.16C158.553 346.49 157.553 346.218 157.579 346.006C157.604 345.794 158.799 345.718 160.011 346.532C161.223 347.346 161.613 348.5 161.426 348.568Z" fill="white"/>
<path d="M205.711 176.54C210.026 175.388 214.433 174.613 218.882 174.224C223.353 173.844 227.849 174.578 231.967 176.362C232.578 176.642 236.663 179 236.536 179.661C236.451 180.136 232.595 178.584 232.162 178.813C227.992 180.807 223.162 181.053 218.602 180.306C214.179 179.543 209.856 178.288 205.711 176.565" fill="#263238"/>
<path d="M182.668 174.844L222.722 177.482C233.91 178.033 242.911 184.997 242.055 196.143L241.919 197.169C241.241 202.156 238.713 206.705 234.838 209.912C230.963 213.12 226.023 214.751 221.002 214.481C211.306 213.947 200.602 213.243 195.474 212.479C184.838 210.944 184.634 200.061 184.634 200.061C184.634 200.061 183.685 199.943 180.549 199.654L170.379 192.317L182.668 174.844Z" fill="#FFBF9D"/>
<path d="M184.634 200.061C185.31 195.141 187.384 190.518 190.609 186.744C190.609 186.744 182.134 189 181.668 199.756L184.634 200.061Z" fill="#FF9A6C"/>
<path d="M213.458 204.845C213.679 205.015 212.967 206.279 213.179 207.916C213.391 209.553 214.365 210.647 214.187 210.851C214.009 211.054 213.73 210.808 213.28 210.333C212.7 209.685 212.333 208.873 212.229 208.009C212.118 207.155 212.281 206.287 212.696 205.532C213.018 204.981 213.357 204.769 213.458 204.845Z" fill="#263238"/>
<path d="M214.645 190.205C214.839 190.4 213.967 191.554 213.941 193.208C213.916 194.862 214.729 196.083 214.517 196.253C214.433 196.346 214.077 196.142 213.67 195.608C213.188 194.886 212.94 194.033 212.958 193.165C212.976 192.3 213.273 191.464 213.805 190.782C214.195 190.281 214.602 190.112 214.645 190.205Z" fill="#263238"/>
<path d="M205.035 199.679C205.184 200.579 205.224 201.493 205.153 202.402C205.153 202.826 205.153 203.25 205.441 203.344C205.869 203.439 206.316 203.401 206.721 203.233L210.069 202.428C214.832 201.325 218.722 200.587 218.765 200.782C218.807 200.977 214.985 202.021 210.222 203.123L206.831 203.878C206.285 204.082 205.683 204.082 205.136 203.878C204.997 203.797 204.878 203.686 204.789 203.552C204.699 203.418 204.641 203.266 204.619 203.106C204.585 202.867 204.585 202.624 204.619 202.385C204.643 201.469 204.782 200.56 205.035 199.679Z" fill="#263238"/>
<path d="M223.441 196.736C223.059 196.456 223.712 194.93 224.017 192.996C224.322 191.062 224.237 189.416 224.695 189.28C224.907 189.221 225.246 189.603 225.492 190.324C225.776 191.281 225.837 192.291 225.671 193.276C225.505 194.261 225.116 195.195 224.534 196.007C224.068 196.618 223.627 196.864 223.441 196.736Z" fill="#263238"/>
<path d="M221.381 212.343C221.05 211.953 221.601 210.647 221.813 209.061C222.025 207.475 221.914 206.067 222.347 205.804C222.55 205.685 222.898 205.948 223.194 206.584C223.534 207.455 223.634 208.401 223.482 209.324C223.37 210.253 223.003 211.134 222.423 211.868C221.974 212.377 221.567 212.513 221.381 212.343Z" fill="#263238"/>
<path d="M214.721 177.287C214.823 177.117 217.874 170.255 210.568 169.5C203.262 168.745 204.008 176.286 204.212 176.286C204.415 176.286 214.721 177.287 214.721 177.287Z" fill="#FFBF9D"/>
<path d="M207.213 174.335C207.151 174.218 207.1 174.096 207.06 173.97C206.964 173.654 206.995 173.314 207.145 173.02C207.509 172.273 208.798 171.748 210.12 171.849C210.749 171.893 211.36 172.079 211.908 172.392C212.122 172.491 212.31 172.638 212.457 172.822C212.604 173.006 212.706 173.222 212.756 173.452C212.78 173.604 212.75 173.76 212.671 173.892C212.592 174.024 212.469 174.123 212.323 174.173C212.111 174.25 211.967 174.173 211.95 174.224C211.933 174.275 212.061 174.394 212.366 174.369C212.552 174.344 212.725 174.257 212.857 174.123C213.028 173.935 213.119 173.689 213.111 173.436C213.083 173.13 212.977 172.837 212.804 172.585C212.63 172.332 212.395 172.129 212.12 171.994C211.521 171.612 210.836 171.388 210.128 171.34C208.645 171.23 207.187 171.841 206.738 172.867C206.659 173.057 206.623 173.263 206.635 173.469C206.647 173.675 206.705 173.875 206.806 174.055C207.043 174.301 207.204 174.36 207.213 174.335Z" fill="#FF9A6C"/>
<path d="M233.562 210.927C234.105 212.174 238.274 208.976 239.876 206.194C242.283 201.953 244.114 195.371 243.377 191.206C242.453 186.184 240.41 181.875 236.198 179.025C231.889 176.235 226.917 174.639 221.79 174.403C220.24 174.195 218.663 174.406 217.222 175.013C215.527 175.861 214.306 177.753 212.077 177.456C211.676 177.39 211.265 177.405 210.869 177.499C210.473 177.594 210.1 177.767 209.772 178.007C208.221 179.212 209.408 180.976 210.679 181.858C213.391 183.733 216.798 184.242 220.07 184.691C222.377 185.138 224.742 185.204 227.07 184.887C228.324 184.641 229.528 184.174 230.791 184.038C231.418 183.909 232.066 183.918 232.689 184.065C233.313 184.211 233.897 184.492 234.401 184.887C234.598 185.09 234.779 185.309 234.944 185.54C235.737 186.645 236.223 187.941 236.351 189.296C236.479 190.651 236.245 192.015 235.673 193.25C233.825 197.237 230.986 204.073 232.206 206.05C233.969 208.883 235.223 209.638 235.223 209.638L233.562 210.927Z" fill="#263238"/>
<path d="M214.848 173.715C214.711 172.849 214.333 172.039 213.758 171.377C213.182 170.716 212.432 170.23 211.594 169.975C211.594 169.915 211.924 169.882 212.441 170.017C213.099 170.2 213.688 170.571 214.136 171.086C214.586 171.594 214.881 172.222 214.984 172.893C214.984 173.402 214.908 173.715 214.848 173.715Z" fill="white"/>
<path d="M201.449 195.879C201.285 195.495 200.985 195.184 200.607 195.007C200.228 194.83 199.798 194.8 199.398 194.921L199.61 194.828C199.237 194.777 198.858 194.856 198.537 195.053C198.216 195.249 197.972 195.55 197.847 195.905C197.738 196.265 197.739 196.65 197.847 197.011C197.956 197.371 198.168 197.692 198.457 197.932C198.78 198.194 199.176 198.348 199.591 198.374C200.006 198.4 200.418 198.296 200.771 198.076C201.113 197.839 201.365 197.493 201.488 197.095C201.611 196.697 201.597 196.269 201.449 195.879Z" fill="#FF9A6C"/>
<path d="M201.04 197.771C201.286 197.483 201.421 197.116 201.421 196.736C201.456 196.341 201.377 195.943 201.192 195.591C200.861 195.247 200.407 195.046 199.93 195.031C199.452 194.955 198.963 195.058 198.557 195.32C198.393 195.424 198.252 195.56 198.143 195.721C198.033 195.881 197.958 196.062 197.921 196.253C197.89 196.627 197.969 197.001 198.15 197.33C198.15 197.33 198.014 197.33 197.87 197.127C197.683 196.862 197.591 196.542 197.607 196.219C197.63 195.975 197.706 195.738 197.828 195.526C197.951 195.313 198.119 195.13 198.319 194.989C198.811 194.641 199.419 194.498 200.014 194.59C200.313 194.601 200.605 194.677 200.871 194.811C201.137 194.946 201.371 195.137 201.557 195.371C201.78 195.798 201.852 196.288 201.76 196.762C201.731 197.078 201.601 197.375 201.387 197.61C201.159 197.78 201.04 197.797 201.04 197.771Z" fill="#263238"/>
<g opacity="0.1">
<path d="M242.519 189.246C241.355 185.486 239.086 182.164 236.008 179.713C232.93 177.262 229.186 175.796 225.263 175.505L222.314 175.37C221.801 175.302 221.28 175.352 220.788 175.514C220.544 175.602 220.336 175.769 220.198 175.989C220.06 176.208 219.999 176.468 220.026 176.727C220.153 177.304 220.788 177.575 221.356 177.728C224.746 178.635 228.306 178.466 231.586 179.619C234.724 180.724 237.331 182.972 238.886 185.915C240.441 188.858 240.83 192.28 239.977 195.498C239.806 195.976 239.731 196.483 239.756 196.991C239.771 197.245 239.871 197.487 240.04 197.678C240.209 197.869 240.438 197.997 240.688 198.042C240.924 198.025 241.151 197.95 241.35 197.825C241.55 197.699 241.715 197.526 241.833 197.321C243.519 195.074 243.35 191.927 242.519 189.246Z" fill="white"/>
</g>
<path d="M212.858 196.422C212.858 196.473 212.476 196.482 211.942 196.236C211.238 195.903 210.678 195.326 210.367 194.611C210.055 193.897 210.013 193.094 210.247 192.351C210.434 191.791 210.696 191.503 210.739 191.554C210.698 191.841 210.635 192.124 210.552 192.402C210.42 193.078 210.497 193.779 210.772 194.411C211.048 195.043 211.509 195.576 212.095 195.939C212.544 196.253 212.908 196.355 212.858 196.422Z" fill="#FF9A6C"/>
<path d="M210.745 210.359C210.383 209.657 210.261 208.856 210.399 208.079C210.537 207.302 210.926 206.592 211.507 206.058C211.618 206.143 211.033 206.966 210.829 208.162C210.626 209.358 210.872 210.325 210.745 210.359Z" fill="#FF9A6C"/>
<path d="M133.238 238.494C133.747 238.307 169.682 240.063 181.344 241.09C193.006 242.116 213.22 247.621 214.22 261.362C215.067 272.389 214.872 349.238 214.872 349.238H183.514L182.768 268.021L134.086 255.721L133.238 238.494Z" fill="#263238"/>
<g opacity="0.3">
<path d="M158.996 243.668C158.996 243.668 176.455 246.824 190.397 250.785C204.339 254.746 210.492 263.22 212.526 268.267C214.56 273.314 215.526 280.854 211.246 287.928C208.543 292.407 194.991 308.167 194.991 308.167C194.991 308.167 192.194 262.94 192.058 262.253C191.923 261.566 158.996 243.668 158.996 243.668Z" fill="black"/>
</g>
<path d="M210.99 273.407C209.515 264.687 199.65 258.588 187.556 254.05C175.639 249.563 144.459 238.477 144.459 238.477L136.992 236.636H133.653L132.551 233.328C132.551 233.328 111.363 227.196 80.7583 238.494L79.7159 239.342C79.7159 239.342 78.7921 261.684 83.106 266.485C83.106 266.485 131.856 265.798 134.415 266.01C136.975 266.222 172.724 282.457 172.724 282.457L142.12 329.44L167.427 347.134C167.427 347.134 182.682 325.369 192.005 312.357C205.32 293.679 212.736 283.704 210.99 273.407Z" fill="#263238"/>
<path d="M210.99 273.407C210.99 273.407 211.066 273.933 211.193 274.959C211.323 276.479 211.266 278.008 211.024 279.514C210.597 281.952 209.847 284.323 208.795 286.563C207.381 289.604 205.753 292.541 203.921 295.35C199.87 301.737 194.378 309.134 188.284 317.854L167.571 347.236L167.469 347.38L167.325 347.278L142.009 329.601L141.857 329.491L141.958 329.33C151.324 314.953 161.655 299.065 172.546 282.339L172.631 282.652C165.85 279.576 158.895 276.466 151.764 273.322C148.205 271.77 144.62 270.209 140.984 268.691C139.162 267.953 137.339 267.172 135.475 266.528C135.251 266.443 135.022 266.375 134.788 266.324C134.562 266.248 134.324 266.214 134.085 266.222H129.618C113.642 266.307 98.0649 266.528 83.1144 266.723H83.0127L82.9449 266.655C82.1996 265.696 81.647 264.601 81.3177 263.432C80.9586 262.301 80.6755 261.148 80.4701 259.979C80.0647 257.681 79.7818 255.362 79.6226 253.033C79.326 248.41 79.3005 243.863 79.4446 239.385V239.291L79.5209 239.232L80.5634 238.384C89.209 235.186 98.2155 233.066 107.379 232.073C111.668 231.614 115.986 231.472 120.296 231.649C124.438 231.725 128.561 232.226 132.602 233.142H132.695V233.235C133.076 234.397 133.432 235.483 133.788 236.552L133.619 236.433H137.009L144.484 238.282L174.766 249.258L187.225 253.779C190.714 255.068 194.112 256.593 197.395 258.342C203.328 261.498 207.278 265.205 209.032 268.317C209.429 268.988 209.78 269.685 210.083 270.404C210.286 270.93 210.464 271.473 210.617 272.016C210.82 272.906 210.905 273.356 210.905 273.356C210.905 273.356 210.786 272.906 210.574 272.024C210.473 271.583 210.235 271.066 210.015 270.438C209.905 270.116 209.71 269.802 209.549 269.454C209.377 269.077 209.176 268.714 208.947 268.368C207.176 265.289 203.226 261.634 197.302 258.504C194.018 256.773 190.62 255.268 187.132 254L174.766 249.563L144.442 238.638L136.975 236.798H133.585V236.679L132.39 233.379L132.517 233.498C128.545 232.572 124.491 232.049 120.414 231.937C116.124 231.766 111.826 231.914 107.557 232.378C98.4279 233.38 89.4561 235.499 80.843 238.689H80.9024L79.8599 239.537L79.9362 239.385C79.7921 243.838 79.826 248.393 80.1226 252.956C80.2648 255.27 80.5307 257.575 80.9193 259.861C81.1338 261.008 81.4168 262.141 81.7668 263.254C82.0817 264.366 82.6052 265.408 83.3094 266.324L83.1483 266.248C98.1072 266.053 113.659 265.824 129.661 265.739H134.153C134.412 265.735 134.67 265.776 134.915 265.858C135.17 265.91 135.419 265.984 135.661 266.078C137.551 266.731 139.365 267.503 141.196 268.25C144.832 269.768 148.425 271.329 151.976 272.889C159.084 276.011 166.042 279.121 172.851 282.22L173.08 282.322L172.944 282.534L142.331 329.508L142.28 329.237L167.571 346.948H167.325L188.098 317.599C194.209 308.896 199.726 301.483 203.794 295.164C205.617 292.39 207.245 289.494 208.668 286.495C209.728 284.273 210.489 281.92 210.93 279.497C211.177 277.998 211.251 276.475 211.151 274.959C211.032 273.941 210.99 273.407 210.99 273.407Z" fill="#455A64"/>
<path d="M187.915 276.732C187.115 276.918 186.306 277.063 185.491 277.164C181.609 277.876 177.905 279.346 174.591 281.49C173.934 281.985 173.243 282.433 172.523 282.83C173.075 282.212 173.711 281.675 174.413 281.236C176.041 280.075 177.806 279.121 179.668 278.394C181.527 277.662 183.468 277.158 185.448 276.893C186.261 276.742 187.089 276.688 187.915 276.732Z" fill="#455A64"/>
<path d="M182.413 199.527V202.216L175.861 202.826L175.488 201.452L177.251 197.355L182.413 199.527Z" fill="#FF725E"/>
<path d="M177.294 201.647L168.836 218.595L170.709 249.012L166.463 255.645L161.996 247.994L162.767 219.053L175.938 200.4L177.294 201.647Z" fill="#FF725E"/>
<path d="M179.852 173.368C179.852 173.368 167.919 168.838 156.384 168.083C144.849 167.328 130.585 175.073 123.771 178.101C116.957 181.129 90.9041 206.94 85.268 215.524C82.0389 220.461 77.7334 231.64 77.7334 231.64C77.0046 235.542 79.7251 239.342 79.7251 239.342L132.179 239.732H142.019L146.18 230.835C146.18 230.835 154.121 230.266 156.35 225.915C158.579 221.564 166.944 215.126 166.944 215.126L176.462 199.433L182.7 200.757L186.158 174.097L179.852 173.368Z" fill="#E0E0E0"/>
<path d="M140.968 185.302C140.924 185.616 140.844 185.923 140.731 186.218C140.536 186.897 140.29 187.711 139.994 188.678C139.212 191.382 138.572 194.126 138.078 196.897C137.595 199.673 137.264 202.474 137.087 205.286C137.036 206.287 136.985 207.144 136.951 207.831C136.954 208.147 136.922 208.463 136.858 208.772C136.787 208.464 136.759 208.147 136.773 207.831V205.286C136.852 202.442 137.135 199.607 137.621 196.804C138.113 194.015 138.798 191.262 139.672 188.568C140.011 187.533 140.316 186.71 140.519 186.15C140.638 185.853 140.789 185.568 140.968 185.302Z" fill="#263238"/>
<path d="M163.963 289.896C163.963 289.896 167.556 294.086 168.667 295.605C169.667 296.962 170.658 301.932 171.04 306.784C171.082 307.245 170.94 307.704 170.644 308.061C170.349 308.417 169.924 308.641 169.463 308.684C169.226 308.709 168.986 308.683 168.76 308.608C168.519 308.517 168.307 308.364 168.145 308.164C167.983 307.964 167.876 307.725 167.836 307.471C167.065 303.96 166.861 302.467 166.861 302.467C166.76 300.77 166.582 301.008 166.531 302.153C166.48 303.298 167.378 309.634 167.378 309.634C167.378 309.634 169.802 318.278 169.15 319.245C168.904 319.583 168.534 319.81 168.121 319.877C167.709 319.944 167.286 319.844 166.946 319.601C166.851 319.528 166.763 319.445 166.683 319.355C166.353 318.905 163.624 311.721 163.624 311.721L162.904 307.785C162.904 307.785 164.31 320.22 163.522 321.196C163.327 321.495 163.02 321.704 162.671 321.777C162.321 321.85 161.957 321.781 161.658 321.586C161.54 321.505 161.434 321.408 161.344 321.297C160.793 320.805 160.234 315.309 160.234 315.309L158.954 307.972L159.183 321.959C159.183 321.959 159.039 323.282 157.996 323.333C156.954 323.384 156.301 321.849 156.301 321.849L154.801 307.429C154.801 307.429 155.284 315.445 154.742 315.869C154.021 316.429 153.369 316.242 153.131 315.623C152.648 314.376 151.945 307.141 151.945 307.141L151.284 293.416L150.801 288.878L162.802 284.578L163.963 289.896Z" fill="#FFBF9D"/>
<g opacity="0.3">
<path d="M137.961 204.184C134.233 215.736 131.605 227.616 130.113 239.665C130.258 244.027 130.757 248.37 131.605 252.651C132.986 259.513 144.233 289.269 144.233 289.269L151.937 289.939L145.445 237.078L151.937 212.369L137.961 204.184Z" fill="black"/>
</g>
<path d="M172.495 181.646C177.775 183.275 178.767 193.988 177.631 197.042C173.995 206.839 162.376 216.042 162.545 215.507L154.994 245.568L165.698 286.283L148.391 292.517C148.391 292.517 132.602 250.717 132.288 244.169C131.975 237.621 136.679 220.554 137.374 210.35C137.823 203.794 141.145 190.493 149.239 182.664" fill="#E0E0E0"/>
<path d="M149.248 182.571C149.248 182.571 149.121 182.724 148.858 183.012C148.596 183.3 148.189 183.716 147.689 184.293C146.266 185.996 144.995 187.821 143.892 189.747C142.173 192.825 140.781 196.074 139.739 199.442C139.07 201.544 138.535 203.685 138.137 205.855C137.934 207.008 137.747 208.196 137.637 209.426C137.527 210.656 137.451 211.97 137.273 213.234C136.662 218.425 135.527 224.049 134.383 230.105C133.823 233.125 133.23 236.263 132.806 239.512C132.561 241.151 132.484 242.811 132.577 244.466L132.755 245.704L133.043 246.942C133.221 247.791 133.459 248.639 133.696 249.487C134.62 252.829 135.722 256.222 136.874 259.666C138.027 263.109 139.247 266.647 140.51 270.235C143.053 277.402 145.748 284.815 148.596 292.399L148.316 292.271L156.359 289.387L165.623 286.071L165.487 286.334C161.682 271.855 158.08 258.13 154.8 245.619V245.517C157.605 234.423 160.156 224.312 162.385 215.465L162.699 215.55C162.705 215.532 162.708 215.513 162.707 215.494C162.705 215.475 162.7 215.457 162.691 215.44C162.683 215.423 162.67 215.409 162.656 215.397C162.641 215.385 162.624 215.376 162.605 215.372L162.724 215.304L162.961 215.143L163.436 214.786L164.351 214.048C164.945 213.539 165.521 213.031 166.046 212.513C167.165 211.487 168.216 210.435 169.199 209.383C171.061 207.414 172.761 205.297 174.284 203.056C175.633 201.116 176.729 199.012 177.547 196.796C177.971 194.858 178.023 192.857 177.7 190.901C177.225 187.346 176.056 184.7 174.784 183.267C174.138 182.553 173.338 181.996 172.445 181.638C172.445 181.638 172.682 181.723 173.132 181.909C173.413 182.027 173.675 182.184 173.911 182.376C174.262 182.615 174.578 182.9 174.852 183.224C176.166 184.615 177.395 187.279 177.878 190.858C178.015 191.802 178.088 192.754 178.098 193.708C178.13 194.765 178.016 195.821 177.759 196.847C176.952 199.092 175.855 201.222 174.496 203.183C172.974 205.444 171.273 207.58 169.411 209.57C168.419 210.63 167.368 211.69 166.25 212.725C165.69 213.251 165.114 213.769 164.555 214.277C164.258 214.523 163.953 214.778 163.639 215.024L163.156 215.389L162.902 215.558L162.766 215.643H162.605C162.557 215.648 162.509 215.634 162.471 215.604C162.433 215.574 162.408 215.53 162.402 215.482C162.393 215.46 162.393 215.436 162.402 215.414L162.724 215.499L155.206 245.568V245.467L165.928 286.181L165.979 286.376L165.792 286.444L156.529 289.761L148.477 292.645L148.274 292.721L148.197 292.517C145.35 284.926 142.654 277.504 140.12 270.336C138.866 266.748 137.637 263.22 136.493 259.759C135.349 256.298 134.255 252.888 133.323 249.529C133.086 248.681 132.857 247.833 132.679 246.985C132.577 246.561 132.484 246.137 132.391 245.729C132.298 245.322 132.264 244.881 132.204 244.44C132.112 242.762 132.195 241.079 132.45 239.419C132.882 236.145 133.476 233.015 134.052 229.986C135.213 223.93 136.366 218.323 136.993 213.141C137.171 211.852 137.239 210.596 137.366 209.349C137.493 208.102 137.679 206.906 137.891 205.753C138.3 203.577 138.846 201.43 139.527 199.323C140.584 195.945 142.005 192.691 143.765 189.62C144.875 187.685 146.172 185.864 147.638 184.183C148.663 183.097 149.248 182.571 149.248 182.571Z" fill="#263238"/>
<path d="M177.31 188.602C177.225 187.852 177.225 187.095 177.31 186.345C177.391 184.534 177.567 182.727 177.835 180.934C178.1 179.14 178.462 177.361 178.92 175.607C179.066 174.865 179.302 174.145 179.623 173.461C179.55 174.208 179.417 174.949 179.225 175.675C178.945 177.032 178.589 178.915 178.276 181.002C177.962 183.088 177.759 184.988 177.623 186.371C177.587 187.122 177.482 187.869 177.31 188.602Z" fill="#263238"/>
<g opacity="0.3">
<path d="M179.224 174.089C179.046 174.012 178.859 174.191 178.741 174.352C177.634 175.638 176.748 177.1 176.122 178.678C175.181 181.494 176.181 184.615 177.037 187.499C177.835 190.251 178.122 193.126 177.885 195.981L177.673 196.974C178.586 195.188 178.844 193.137 178.402 191.18C177.955 189.243 177.61 187.284 177.368 185.311C177.173 181.672 178.639 178.177 179.368 174.615C179.41 174.445 179.419 174.165 179.224 174.089Z" fill="black"/>
</g>
<path d="M120.094 253.788H114.695V292.449H120.094V253.788Z" fill="#E0E0E0"/>
<path d="M37.5098 228.527C37.9921 229.671 38.8749 230.598 39.9924 231.135C41.11 231.673 42.3851 231.783 43.5782 231.445C56.2311 227.96 69.5714 227.822 82.2933 231.047C100.151 235.483 106.668 245.11 109.092 251.166C109.687 252.616 110.701 253.855 112.004 254.724C113.307 255.593 114.84 256.053 116.406 256.044H117.135C118.484 256.044 119.777 255.507 120.731 254.553C121.685 253.599 122.22 252.304 122.22 250.954C122.214 250.615 122.177 250.278 122.11 249.945C120.263 241.548 109.101 226.958 89.1498 221.564C65.1393 215.066 48.4684 219.392 40.7135 221.81C39.429 222.22 38.36 223.125 37.7418 224.324C37.1235 225.523 37.0065 226.919 37.4166 228.205C37.4416 228.314 37.4727 228.422 37.5098 228.527Z" fill="#455A64"/>
<path d="M37.5098 228.528C37.5098 228.528 37.4335 228.366 37.3149 228.036C36.9379 226.821 37.0289 225.509 37.5701 224.358C38.1113 223.208 39.0634 222.301 40.2389 221.818C47.1539 219.529 54.3598 218.238 61.639 217.984C66.6585 217.806 71.684 218.07 76.6572 218.773C77.9963 218.985 79.3608 219.18 80.7338 219.418L84.9122 220.266L89.1498 221.318C90.5567 221.776 92.0229 222.166 93.4468 222.683C94.9061 223.19 96.3376 223.773 97.7353 224.431C98.4387 224.77 99.1676 225.058 99.8626 225.44L101.964 226.568C104.799 228.18 107.48 230.048 109.974 232.149C112.552 234.334 114.891 236.788 116.949 239.47L117.729 240.496L118.449 241.582C118.678 241.938 118.932 242.294 119.152 242.667L119.796 243.804C120.675 245.33 121.383 246.949 121.907 248.63C122.017 249.063 122.144 249.479 122.254 249.92C122.34 250.367 122.372 250.822 122.348 251.277C122.267 252.641 121.659 253.92 120.653 254.845C119.648 255.769 118.322 256.266 116.957 256.23C115.209 256.327 113.474 255.88 111.991 254.95C110.534 254.024 109.413 252.652 108.796 251.039C108.186 249.528 107.431 248.079 106.541 246.713C106.126 246.018 105.626 245.39 105.16 244.746C104.693 244.102 104.18 243.492 103.626 242.922C101.528 240.641 99.1267 238.661 96.4894 237.035C93.9781 235.492 91.3244 234.194 88.565 233.159C85.9502 232.201 83.2745 231.419 80.5559 230.818C75.6853 229.701 70.7182 229.059 65.7241 228.901C58.4848 228.656 51.2489 229.476 44.2477 231.335C43.6662 231.529 43.0625 231.649 42.4509 231.691C41.7572 231.722 41.0647 231.609 40.416 231.361C39.7674 231.113 39.1764 230.735 38.6794 230.249C38.1812 229.776 37.7959 229.196 37.5522 228.553C37.8447 229.186 38.2496 229.761 38.7472 230.249C39.351 230.788 40.0745 231.175 40.8576 231.378C41.3667 231.507 41.8921 231.562 42.417 231.539C43.0168 231.486 43.6084 231.364 44.1799 231.174C51.2017 229.249 58.4728 228.391 65.7495 228.629C70.7741 228.753 75.7738 229.379 80.6745 230.495C83.4097 231.094 86.1022 231.873 88.7345 232.828C91.5218 233.872 94.2036 235.178 96.7437 236.73C99.4153 238.366 101.848 240.364 103.973 242.667C104.532 243.236 105.007 243.889 105.533 244.508C106.052 245.136 106.52 245.806 106.931 246.51C107.839 247.892 108.608 249.361 109.228 250.895C109.815 252.425 110.879 253.724 112.262 254.602C113.676 255.484 115.328 255.907 116.991 255.815C118.245 255.85 119.463 255.395 120.387 254.546C121.311 253.697 121.868 252.522 121.941 251.268C121.964 250.851 121.935 250.432 121.856 250.021C121.754 249.606 121.627 249.173 121.517 248.775C121 247.124 120.307 245.535 119.449 244.033L118.83 242.896C118.61 242.532 118.364 242.175 118.127 241.819L117.39 240.776L116.618 239.758C114.578 237.103 112.263 234.672 109.711 232.506C107.238 230.421 104.58 228.567 101.77 226.967L99.6931 225.839C99.0066 225.457 98.2777 225.177 97.5827 224.838C96.1843 224.151 94.7435 223.642 93.3451 223.141C91.9467 222.641 90.4804 222.225 89.1074 221.776L84.8698 220.715L80.7084 219.867C79.3354 219.621 77.9794 219.426 76.6487 219.206C71.6963 218.491 66.6913 218.207 61.6898 218.357C54.4399 218.586 47.2572 219.825 40.349 222.039C39.292 222.448 38.4129 223.217 37.8658 224.21C37.4526 224.928 37.2281 225.74 37.2132 226.568C37.1977 227.234 37.2981 227.897 37.5098 228.528Z" fill="#263238"/>
<path d="M46.3668 226.483C46.3668 227.294 46.1267 228.086 45.6769 228.76C45.2271 229.433 44.5878 229.958 43.8398 230.268C43.0918 230.579 42.2687 230.66 41.4746 230.502C40.6806 230.343 39.9512 229.953 39.3787 229.38C38.8062 228.807 38.4163 228.077 38.2583 227.283C38.1004 226.488 38.1815 225.664 38.4913 224.916C38.8011 224.167 39.3258 223.527 39.999 223.077C40.6722 222.627 41.4636 222.386 42.2733 222.386C42.8097 222.385 43.3412 222.49 43.8372 222.694C44.3333 222.899 44.7842 223.199 45.1643 223.578C45.5445 223.957 45.8463 224.407 46.0526 224.902C46.259 225.398 46.3657 225.93 46.3668 226.466V226.483Z" fill="white"/>
<path d="M289.188 199.086H308.494L306.986 209.714C306.986 209.714 305.731 214.939 302.748 214.939H294.383C293.355 214.308 292.465 213.475 291.766 212.491C291.067 211.508 290.573 210.393 290.315 209.214L289.188 199.086Z" fill="#455A64"/>
<path d="M289.188 199.086C289.215 199.197 289.235 199.311 289.247 199.425C289.273 199.741 289.319 200.056 289.382 200.367C289.493 201.215 289.654 202.411 289.857 203.904C290.06 205.397 290.298 207.246 290.569 209.324C290.833 210.46 291.322 211.531 292.008 212.474C292.693 213.417 293.562 214.212 294.561 214.812H302.951C303.53 214.78 304.079 214.546 304.502 214.15C305.389 213.3 306.055 212.246 306.443 211.08C306.615 210.633 306.763 210.177 306.884 209.714C307.401 205.957 307.892 202.386 308.342 199.086L308.494 199.264L294.637 199.213L290.645 199.171H289.188C289.303 199.154 289.42 199.154 289.535 199.171H290.577L294.535 199.128L308.494 199.052H308.664V199.222C308.215 202.521 307.731 206.101 307.231 209.85C307.111 210.328 306.961 210.798 306.782 211.258C306.37 212.476 305.669 213.576 304.74 214.464C304.261 214.905 303.643 215.163 302.994 215.194H294.468C293.436 214.568 292.542 213.74 291.84 212.759C291.138 211.778 290.642 210.664 290.383 209.485C290.103 207.356 289.916 205.498 289.738 203.972C289.56 202.445 289.442 201.283 289.357 200.435L289.255 199.51C289.213 199.372 289.191 199.23 289.188 199.086Z" fill="#263238"/>
<path d="M306.985 204.565L307.273 204.498H307.358C307.567 204.481 307.776 204.481 307.985 204.498H308.061L308.392 204.582L308.663 204.667C308.79 204.71 308.663 204.667 308.612 204.667L308.79 204.752C308.974 204.852 309.152 204.963 309.324 205.083C309.434 205.159 309.324 205.083 309.282 205.083L309.392 205.176L309.629 205.414C309.689 205.482 309.807 205.643 309.697 205.482L309.884 205.761C309.934 205.846 309.979 205.934 310.019 206.024C310.061 206.109 310.019 206.024 310.019 205.974C310.047 206.034 310.069 206.096 310.087 206.16C310.126 206.268 310.157 206.379 310.18 206.491C310.18 206.533 310.239 206.813 310.223 206.678C310.206 206.542 310.223 206.822 310.223 206.864C310.231 206.98 310.231 207.096 310.223 207.212V207.415C310.212 207.479 310.198 207.541 310.18 207.602C310.164 207.7 310.138 207.797 310.104 207.891C310.104 207.967 309.977 208.23 310.104 208.026C310.013 208.223 309.908 208.413 309.79 208.595L309.706 208.713C309.706 208.713 309.824 208.578 309.706 208.671C309.609 208.758 309.518 208.851 309.434 208.951C309.341 209.044 309.189 209.146 309.29 209.078C309.392 209.01 309.163 209.154 309.129 209.171L308.875 209.316L308.748 209.383C308.816 209.383 308.892 209.307 308.748 209.383C308.68 209.383 308.307 209.502 308.087 209.561C307.866 209.621 308.146 209.561 308.163 209.561H307.121L306.748 209.443C306.909 209.511 306.621 209.375 306.621 209.375C306.489 209.297 306.343 209.247 306.191 209.226C306.04 209.205 305.886 209.214 305.738 209.252C305.59 209.291 305.451 209.358 305.329 209.451C305.207 209.543 305.105 209.659 305.027 209.791C304.95 209.923 304.899 210.068 304.878 210.22C304.857 210.372 304.866 210.526 304.905 210.674C304.943 210.822 305.011 210.961 305.103 211.083C305.195 211.205 305.311 211.308 305.442 211.385C306.556 211.965 307.847 212.103 309.058 211.773C310.269 211.443 311.311 210.669 311.977 209.604C312.605 208.489 312.798 207.18 312.519 205.931C312.377 205.324 312.117 204.75 311.754 204.244C311.39 203.737 310.93 203.308 310.401 202.979C309.816 202.612 309.162 202.369 308.48 202.265C307.798 202.161 307.101 202.199 306.434 202.377C306.287 202.418 306.149 202.487 306.028 202.581C305.907 202.675 305.806 202.792 305.731 202.925C305.655 203.058 305.606 203.205 305.588 203.357C305.569 203.509 305.58 203.663 305.62 203.811C305.661 203.958 305.73 204.096 305.824 204.217C305.918 204.338 306.035 204.439 306.168 204.515C306.301 204.59 306.448 204.639 306.599 204.658C306.751 204.677 306.905 204.666 307.053 204.625L306.985 204.565Z" fill="#455A64"/>
<path d="M306.983 204.565C306.862 204.626 306.727 204.649 306.593 204.633C306.392 204.624 306.198 204.565 306.026 204.461C305.854 204.358 305.711 204.213 305.61 204.039C305.525 203.9 305.469 203.746 305.445 203.585C305.421 203.425 305.428 203.26 305.468 203.103C305.507 202.945 305.577 202.797 305.675 202.666C305.772 202.536 305.894 202.426 306.033 202.343C306.389 202.18 306.771 202.082 307.161 202.055C307.591 202.004 308.027 202.004 308.457 202.055C309.446 202.203 310.368 202.64 311.11 203.31C311.976 204.078 312.531 205.137 312.67 206.287C312.842 207.558 312.54 208.847 311.822 209.909C311.427 210.463 310.922 210.93 310.339 211.28C309.756 211.631 309.106 211.857 308.432 211.945C307.829 212.03 307.216 212.013 306.618 211.894C306.331 211.826 306.048 211.741 305.771 211.64L305.364 211.453C305.214 211.387 305.081 211.289 304.974 211.165C304.768 210.924 304.654 210.618 304.652 210.301C304.651 209.984 304.761 209.676 304.964 209.433C305.168 209.19 305.451 209.027 305.763 208.973C306.075 208.919 306.396 208.977 306.669 209.137L306.449 209.273C306.448 209.235 306.462 209.199 306.487 209.171C306.512 209.142 306.547 209.124 306.584 209.12H306.728C306.728 209.027 306.847 209.358 306.661 209.392H306.5C306.415 209.052 306.737 209.146 306.644 209.137H306.694L306.813 209.18C306.971 209.231 307.132 209.271 307.296 209.298L307.381 209.341C307.466 209.383 307.432 209.341 307.423 209.485C307.415 209.629 307.305 209.604 307.296 209.604H307.093C307.093 209.604 307.008 209.561 307.093 209.417C307.178 209.273 307.203 209.349 307.22 209.341H308.067V209.629H307.94C307.902 209.628 307.866 209.613 307.839 209.587C307.823 209.563 307.814 209.535 307.814 209.506C307.814 209.478 307.823 209.449 307.839 209.426V209.375L307.906 209.332H308.042L308.288 209.264L308.542 209.197H308.678C308.618 209.137 308.678 209.485 308.762 209.443L308.627 209.188L308.957 209.01L309.11 208.917H309.203L309.279 208.959C309.304 208.986 309.317 209.021 309.317 209.057C309.317 209.093 309.304 209.128 309.279 209.154H309.144C309.12 209.151 309.097 209.141 309.078 209.126C309.059 209.111 309.043 209.092 309.034 209.069C308.983 208.993 309.084 208.883 309.034 208.908C309.132 208.838 309.223 208.759 309.305 208.671L309.423 208.544C309.423 208.544 309.568 208.543 309.601 208.637C309.635 208.73 309.601 208.705 309.601 208.722L309.551 208.781L309.33 208.62C309.483 208.408 309.593 208.179 309.72 207.967L309.957 208.077V208.119H309.856C309.839 208.118 309.823 208.114 309.808 208.107C309.793 208.099 309.779 208.089 309.768 208.076C309.757 208.064 309.749 208.049 309.743 208.033C309.738 208.017 309.736 208 309.737 207.984V207.89C309.762 207.839 309.782 207.785 309.796 207.729C309.813 207.616 309.841 207.505 309.881 207.398V207.314L309.932 207.237C309.951 207.229 309.971 207.224 309.991 207.224C310.012 207.224 310.032 207.229 310.051 207.237H310.102C310.11 207.271 310.11 207.306 310.102 207.339V207.424C310.186 207.517 309.746 207.475 309.864 207.424V206.949C309.873 206.844 309.873 206.739 309.864 206.635V206.542C309.87 206.502 309.892 206.465 309.924 206.44C309.945 206.42 309.974 206.408 310.004 206.408C310.034 206.408 310.063 206.42 310.085 206.44V206.482V206.533V206.584L310.017 206.627C309.991 206.633 309.963 206.631 309.939 206.621C309.914 206.61 309.894 206.591 309.881 206.567L309.839 206.381C309.798 206.188 309.744 205.998 309.678 205.812L309.881 205.736V205.778C309.884 205.791 309.884 205.803 309.881 205.815C309.878 205.828 309.873 205.839 309.866 205.85C309.859 205.86 309.85 205.869 309.84 205.875C309.829 205.882 309.817 205.887 309.805 205.889H309.703C309.702 205.868 309.696 205.848 309.686 205.83C309.676 205.813 309.661 205.798 309.644 205.787L309.559 205.609L309.356 205.295L309.525 205.185C309.533 205.199 309.538 205.215 309.538 205.231C309.538 205.248 309.533 205.264 309.525 205.278C309.516 205.287 309.505 205.295 309.492 205.3C309.48 205.305 309.467 205.308 309.453 205.308C309.44 205.308 309.427 205.305 309.414 205.3C309.402 205.295 309.391 205.287 309.381 205.278L309.322 205.202C309.286 205.15 309.243 205.105 309.195 205.066L308.949 204.828L309.068 204.693H309.118C308.915 204.972 309.034 204.76 308.991 204.82L308.881 204.752L308.669 204.616C308.546 204.531 308.416 204.458 308.279 204.396L308.347 204.252H308.466C308.466 204.252 308.508 204.353 308.466 204.37H308.678L308.542 204.319L308.288 204.243L308.051 204.184H307.94C307.991 204.184 307.839 204.243 307.94 204.065H308.034V204.184H307.262V204.133H307.389H307.322C307.216 204.16 307.108 204.174 307 204.175C307.098 204.125 307.204 204.09 307.313 204.073H308.034V204.302H307.94C308.042 204.116 307.881 204.201 307.94 204.184H308.076L308.33 204.235L308.593 204.311H308.729C308.678 204.514 308.678 204.438 308.669 204.447H308.584L308.678 204.302C308.82 204.362 308.956 204.436 309.084 204.523L309.305 204.65L309.423 204.718L309.381 204.786L309.322 204.735L309.44 204.599L309.703 204.837C309.703 204.888 309.796 204.922 309.847 204.981L309.907 205.057H309.847V205.015L310.017 204.905C310.085 205.006 310.161 205.108 310.229 205.227L310.322 205.405C310.322 205.405 310.381 205.456 310.322 205.498L310.263 205.549H310.152V205.49L310.356 205.414C310.431 205.61 310.493 205.811 310.542 206.016V206.152H310.373V206.55C310.381 206.663 310.381 206.777 310.373 206.889C310.381 206.92 310.381 206.952 310.373 206.983H310.127V206.906H310.322V206.991C310.306 207.113 310.274 207.233 310.229 207.348C310.213 207.408 310.193 207.468 310.169 207.526V207.602C309.839 207.466 309.957 207.5 309.949 207.483L310.186 207.594C310.051 207.823 309.94 208.068 309.779 208.298L309.559 208.136L309.618 208.069H309.669C309.687 208.069 309.703 208.076 309.717 208.086C309.73 208.097 309.74 208.111 309.746 208.128L309.788 208.179L309.661 208.314C309.576 208.408 309.482 208.493 309.381 208.569C309.322 208.518 309.322 208.476 309.305 208.484C309.288 208.493 309.305 208.484 309.305 208.442L309.262 208.365C309.262 208.365 309.305 208.416 309.262 208.425C309.22 208.433 309.262 208.501 309.262 208.501C309.262 208.519 309.267 208.536 309.276 208.551C309.285 208.566 309.298 208.578 309.313 208.586H309.271L309.11 208.688L308.771 208.874L308.635 208.62H308.796C308.923 208.62 308.949 208.934 308.881 208.866H308.839L308.703 208.917L308.449 208.985L308.186 209.052H308.059C308.059 209.052 308.059 209.12 308.008 208.925V208.773H308.127V209.061C307.955 209.078 307.782 209.078 307.61 209.061H307.254V208.789H307.347V208.917V208.976C307.355 209.001 307.355 209.028 307.347 209.052C307.173 209.019 307 208.977 306.83 208.925L306.703 208.883H306.627V208.747C306.737 208.527 306.677 208.628 306.694 208.603H306.745C306.745 208.603 306.745 208.705 306.703 208.722L306.635 208.84C306.659 208.835 306.681 208.825 306.7 208.81C306.719 208.796 306.734 208.777 306.745 208.756H306.627L306.525 208.9C306.319 208.789 306.082 208.748 305.851 208.785C305.619 208.822 305.407 208.934 305.245 209.103C305.097 209.294 305.017 209.528 305.017 209.769C305.017 210.01 305.097 210.245 305.245 210.435C305.442 210.604 305.669 210.734 305.915 210.817C306.189 210.92 306.473 210.997 306.762 211.046C307.32 211.163 307.893 211.183 308.457 211.105C309.091 211.027 309.701 210.817 310.25 210.49C310.799 210.163 311.273 209.725 311.644 209.205C312.337 208.218 312.639 207.009 312.492 205.812C312.372 204.729 311.859 203.727 311.051 202.996C310.342 202.346 309.458 201.918 308.508 201.766C307.742 201.624 306.952 201.688 306.22 201.953C305.956 202.112 305.765 202.368 305.686 202.665C305.626 202.92 305.669 203.188 305.805 203.412C305.888 203.571 306.009 203.708 306.156 203.812C306.304 203.915 306.474 203.981 306.652 204.006C306.735 204.207 306.846 204.396 306.983 204.565Z" fill="#263238"/>
<path d="M302.214 195.328C302.437 195.117 302.638 194.884 302.816 194.633C303.034 194.282 303.179 193.891 303.243 193.483C303.307 193.075 303.289 192.658 303.188 192.258C303.043 191.709 302.725 191.221 302.282 190.867C301.816 190.459 301.222 190.137 300.671 189.654C300.389 189.4 300.154 189.098 299.976 188.763C299.785 188.401 299.731 187.983 299.824 187.584C299.931 187.179 300.148 186.812 300.451 186.524C300.731 186.227 301.044 185.972 301.299 185.675C301.588 185.423 301.814 185.106 301.96 184.751C302.07 184.4 302.07 184.024 301.96 183.674C301.731 182.986 301.348 182.359 300.841 181.842C300.361 181.349 299.974 180.775 299.697 180.145C299.488 179.579 299.423 178.97 299.51 178.372C299.637 177.511 300.052 176.718 300.688 176.125C300.863 175.972 301.053 175.838 301.256 175.726L301.476 175.633C301.226 175.808 300.985 175.998 300.756 176.201C300.17 176.796 299.798 177.568 299.697 178.398C299.619 178.971 299.689 179.555 299.9 180.094C300.181 180.69 300.562 181.232 301.027 181.697C301.569 182.236 301.976 182.896 302.214 183.623C302.341 184.023 302.341 184.453 302.214 184.853C302.054 185.247 301.808 185.601 301.493 185.888C300.917 186.464 300.231 186.939 300.061 187.652C300.015 187.997 300.061 188.349 300.195 188.671C300.329 188.993 300.546 189.274 300.824 189.484C301.332 189.942 301.926 190.273 302.409 190.705C302.65 190.908 302.856 191.149 303.019 191.418C303.171 191.665 303.282 191.934 303.35 192.215C303.45 192.638 303.461 193.077 303.38 193.503C303.3 193.93 303.131 194.335 302.883 194.692C302.715 194.955 302.485 195.174 302.214 195.328Z" fill="#263238"/>
<path d="M298.509 195.328C298.727 195.114 298.925 194.882 299.102 194.633C299.324 194.284 299.472 193.893 299.536 193.484C299.601 193.075 299.58 192.658 299.475 192.258C299.337 191.706 299.017 191.216 298.568 190.867C298.102 190.459 297.509 190.137 296.966 189.654C296.682 189.402 296.446 189.1 296.271 188.763C296.077 188.402 296.02 187.984 296.11 187.584C296.225 187.182 296.441 186.817 296.737 186.524C297.026 186.227 297.331 185.972 297.585 185.675C297.867 185.419 298.09 185.103 298.238 184.751C298.355 184.401 298.355 184.023 298.238 183.674C298.009 182.986 297.626 182.359 297.119 181.842C296.637 181.349 296.246 180.775 295.966 180.145C295.757 179.579 295.693 178.97 295.78 178.372C295.9 177.507 296.32 176.711 296.966 176.125C297.137 175.967 297.328 175.833 297.534 175.726C297.602 175.683 297.676 175.651 297.754 175.633C297.503 175.808 297.263 175.998 297.034 176.201C296.449 176.797 296.074 177.569 295.966 178.398C295.891 178.972 295.964 179.556 296.178 180.094C296.459 180.69 296.84 181.232 297.305 181.697C297.84 182.242 298.246 182.9 298.492 183.623C298.619 184.023 298.619 184.453 298.492 184.853C298.33 185.246 298.084 185.599 297.771 185.888C297.195 186.464 296.5 186.939 296.331 187.652C296.287 187.997 296.334 188.348 296.468 188.67C296.602 188.991 296.817 189.272 297.093 189.484C297.602 189.942 298.204 190.273 298.678 190.705C298.922 190.908 299.131 191.149 299.297 191.418C299.44 191.669 299.551 191.937 299.628 192.215C299.724 192.638 299.732 193.076 299.652 193.502C299.572 193.928 299.405 194.333 299.161 194.692C298.995 194.951 298.772 195.168 298.509 195.328Z" fill="#263238"/>
<path d="M325.727 144.345L323.855 145.913L347.567 174.245L349.438 172.676L325.727 144.345Z" fill="#263238"/>
<path d="M328.488 140.368L326.617 141.936L350.329 170.268L352.2 168.699L328.488 140.368Z" fill="#263238"/>
<path d="M348.645 172.46L324.945 210.038L327.009 211.342L350.71 173.763L348.645 172.46Z" fill="#263238"/>
<path d="M353.993 173.502L330.754 210.349L332.818 211.653L356.057 174.806L353.993 173.502Z" fill="#263238"/>
<path d="M350.835 169.05L347.114 174.089C346.659 174.703 346.445 175.462 346.512 176.224C346.579 176.985 346.923 177.695 347.479 178.22C347.947 178.658 348.539 178.943 349.173 179.035C349.808 179.128 350.456 179.024 351.03 178.737L356.039 176.192C356.477 175.979 356.859 175.665 357.154 175.276C357.448 174.887 357.647 174.434 357.734 173.953L357.785 173.648C357.884 173.091 357.83 172.517 357.628 171.988C357.427 171.459 357.085 170.995 356.641 170.645L354.098 168.618C353.87 168.429 353.606 168.288 353.323 168.202C353.04 168.115 352.742 168.086 352.448 168.115C352.153 168.144 351.867 168.231 351.607 168.372C351.346 168.512 351.115 168.702 350.928 168.932C350.895 168.969 350.863 169.009 350.835 169.05Z" fill="#263238"/>
<path d="M350.837 169.05C350.884 168.944 350.95 168.846 351.032 168.762C351.264 168.505 351.555 168.307 351.879 168.185C352.391 167.998 352.952 167.998 353.464 168.185C353.777 168.295 354.065 168.465 354.312 168.686L355.159 169.347L356.109 170.077C356.472 170.329 356.812 170.613 357.126 170.925C357.468 171.3 357.719 171.75 357.859 172.238C357.998 172.727 358.023 173.241 357.931 173.741C357.875 174.301 357.681 174.839 357.366 175.305C357.051 175.772 356.624 176.152 356.126 176.413L353.091 177.948L351.557 178.729C351.055 179.031 350.495 179.225 349.913 179.297C349.379 179.344 348.841 179.262 348.346 179.056C347.85 178.851 347.411 178.529 347.067 178.118C346.723 177.706 346.482 177.218 346.367 176.693C346.252 176.169 346.264 175.625 346.404 175.107C346.53 174.667 346.744 174.257 347.032 173.902L347.752 172.952L349.956 170.085C350.212 169.728 350.496 169.391 350.803 169.076C350.6 169.467 350.362 169.839 350.091 170.187L347.998 173.139C347.47 173.751 347.049 174.448 346.752 175.2C346.631 175.657 346.622 176.136 346.726 176.597C346.83 177.058 347.044 177.486 347.349 177.846C347.655 178.207 348.043 178.487 348.481 178.664C348.918 178.842 349.392 178.91 349.862 178.864C350.391 178.796 350.899 178.617 351.354 178.338L352.888 177.558L355.914 176.023C356.285 175.813 356.611 175.532 356.874 175.196C357.137 174.86 357.331 174.475 357.445 174.064C357.559 173.653 357.591 173.223 357.539 172.799C357.487 172.376 357.352 171.967 357.143 171.595C357.054 171.444 356.954 171.3 356.846 171.162C356.549 170.855 356.229 170.572 355.888 170.314C355.566 170.051 355.261 169.797 354.956 169.559L354.108 168.872C353.881 168.662 353.616 168.495 353.329 168.38C352.856 168.219 352.344 168.219 351.871 168.38C351.486 168.534 351.135 168.762 350.837 169.05Z" fill="#455A64"/>
<path d="M313.164 215.109C313.164 215.109 316.063 208.951 327.445 208.968H332.683C332.683 208.968 342.912 211.173 344.141 215.126L313.164 215.109Z" fill="#263238"/>
<path d="M320.221 138.786L322.577 148.116C322.613 148.26 322.705 148.384 322.832 148.46C322.959 148.537 323.112 148.559 323.255 148.524C323.373 148.497 323.477 148.431 323.552 148.337L330.578 141.136C330.675 141.023 330.723 140.877 330.711 140.729C330.7 140.581 330.631 140.444 330.519 140.347C330.438 140.281 330.342 140.237 330.239 140.219L320.848 138.141C320.705 138.119 320.558 138.155 320.44 138.241C320.323 138.327 320.244 138.456 320.221 138.599C320.213 138.661 320.213 138.724 320.221 138.786Z" fill="#263238"/>
<path d="M320.222 138.786C320.178 138.718 320.16 138.637 320.171 138.557C320.182 138.433 320.231 138.316 320.312 138.222C320.392 138.127 320.5 138.061 320.621 138.031C320.788 137.997 320.961 137.997 321.129 138.031L321.697 138.141L323.087 138.421L326.774 139.193L328.994 139.668L330.189 139.922C330.326 139.938 330.456 139.986 330.57 140.063C330.683 140.139 330.777 140.243 330.842 140.364C330.91 140.499 330.937 140.652 330.919 140.803C330.901 140.954 330.839 141.096 330.74 141.212L327.613 144.426L323.706 148.413C323.574 148.569 323.386 148.667 323.182 148.684C322.979 148.702 322.777 148.638 322.621 148.506C322.524 148.424 322.448 148.319 322.4 148.201C322.29 147.785 322.214 147.455 322.121 147.098C321.951 146.394 321.79 145.716 321.629 145.08C321.332 143.824 321.061 142.713 320.832 141.755C320.604 140.796 320.477 140.151 320.341 139.575C320.265 139.315 320.222 139.047 320.214 138.777C320.323 139.024 320.411 139.279 320.477 139.541C320.638 140.109 320.841 140.822 321.078 141.687C321.316 142.552 321.638 143.748 321.968 144.995L322.502 146.997L322.782 148.057C322.799 148.1 322.826 148.14 322.859 148.173C322.892 148.207 322.931 148.233 322.974 148.252C323.018 148.27 323.064 148.279 323.111 148.279C323.158 148.279 323.205 148.27 323.248 148.252C323.3 148.228 323.346 148.193 323.384 148.15L327.274 144.147L330.41 140.94C330.469 140.866 330.498 140.771 330.488 140.675C330.479 140.58 330.432 140.493 330.359 140.431C330.288 140.371 330.197 140.341 330.104 140.347L328.918 140.075L326.697 139.566L323.028 138.718L321.646 138.379L321.087 138.243C320.947 138.187 320.796 138.164 320.646 138.175C320.549 138.196 320.459 138.243 320.387 138.312C320.315 138.381 320.264 138.469 320.239 138.565C320.214 138.701 320.239 138.786 320.222 138.786Z" fill="#455A64"/>
<path d="M313.273 165.386C317.926 159.152 320.561 152.807 320.121 146.318L311.383 137.895C302.907 135.071 291.254 143.968 291.254 143.968C291.254 143.968 294.144 159.661 313.273 165.386Z" fill="#263238"/>
<path d="M324.848 131.72L325.128 131.975C325.739 132.548 326.23 133.236 326.575 133.999C326.92 134.762 327.111 135.586 327.138 136.423C327.165 137.261 327.027 138.095 326.731 138.879C326.436 139.662 325.989 140.38 325.416 140.991L317.526 149.414L307.957 140.431L315.848 132.009C316.419 131.398 317.106 130.906 317.868 130.561C318.63 130.216 319.452 130.024 320.288 129.998C321.124 129.971 321.957 130.109 322.74 130.405C323.522 130.7 324.239 131.147 324.848 131.72Z" fill="#263238"/>
<path d="M319.527 146.021C318.897 146.043 318.269 145.939 317.68 145.716C316.229 145.266 314.891 144.511 313.756 143.502C312.614 142.493 311.696 141.257 311.061 139.872C310.773 139.314 310.594 138.707 310.535 138.082C310.848 138.617 311.131 139.169 311.383 139.736C312.067 141.034 312.98 142.198 314.078 143.171C315.18 144.139 316.446 144.903 317.815 145.427C318.849 145.818 319.536 145.945 319.527 146.021Z" fill="#455A64"/>
<path d="M353.862 172.07C353.862 172.226 353.815 172.379 353.729 172.508C353.642 172.638 353.519 172.739 353.375 172.799C353.231 172.859 353.073 172.874 352.92 172.844C352.767 172.813 352.626 172.738 352.516 172.628C352.406 172.518 352.331 172.377 352.3 172.224C352.27 172.071 352.285 171.912 352.345 171.768C352.405 171.624 352.506 171.501 352.635 171.414C352.765 171.328 352.917 171.281 353.073 171.281C353.177 171.281 353.279 171.302 353.375 171.341C353.471 171.381 353.558 171.439 353.631 171.512C353.704 171.586 353.762 171.673 353.802 171.768C353.841 171.864 353.862 171.966 353.862 172.07Z" fill="#455A64"/>
<path d="M324.67 144.757C324.67 144.913 324.624 145.066 324.537 145.196C324.451 145.325 324.328 145.426 324.184 145.486C324.04 145.546 323.881 145.561 323.728 145.531C323.575 145.501 323.435 145.425 323.325 145.315C323.214 145.205 323.139 145.064 323.109 144.911C323.078 144.758 323.094 144.6 323.154 144.455C323.213 144.311 323.314 144.188 323.444 144.101C323.574 144.015 323.726 143.969 323.882 143.969C324.091 143.969 324.291 144.052 324.439 144.2C324.587 144.347 324.67 144.548 324.67 144.757Z" fill="#455A64"/>
<path d="M327.662 141.695C327.662 141.851 327.616 142.004 327.53 142.134C327.443 142.263 327.32 142.364 327.176 142.424C327.032 142.484 326.873 142.499 326.72 142.469C326.567 142.439 326.427 142.363 326.317 142.253C326.207 142.143 326.131 142.002 326.101 141.849C326.071 141.696 326.086 141.538 326.146 141.393C326.206 141.249 326.307 141.126 326.436 141.039C326.566 140.953 326.718 140.906 326.874 140.906C326.978 140.906 327.08 140.927 327.176 140.967C327.271 141.006 327.358 141.064 327.432 141.138C327.505 141.211 327.563 141.298 327.602 141.393C327.642 141.489 327.662 141.592 327.662 141.695Z" fill="#455A64"/>
<path d="M350.666 174.937C350.666 175.093 350.62 175.246 350.533 175.375C350.447 175.505 350.324 175.606 350.18 175.666C350.036 175.726 349.877 175.741 349.724 175.711C349.571 175.68 349.431 175.605 349.321 175.495C349.21 175.385 349.135 175.244 349.105 175.091C349.075 174.938 349.09 174.779 349.15 174.635C349.209 174.491 349.311 174.368 349.44 174.281C349.57 174.194 349.722 174.148 349.878 174.148C350.087 174.148 350.288 174.231 350.435 174.379C350.583 174.527 350.666 174.728 350.666 174.937Z" fill="#455A64"/>
<path d="M319.417 228.867L319.18 365.727H191.644V228.494H183.465V365.727V373.336H191.644H319.18H327.358V365.727L327.596 228.867H319.417Z" fill="#E0E0E0"/>
<path d="M319.419 228.901H327.64C327.64 247.146 327.58 299.388 327.53 373.37V373.539H183.246V228.265H191.865V365.719L191.662 365.515L319.198 365.558L319.037 365.719C319.283 281.27 319.436 230.139 319.436 228.858C319.436 230.139 319.436 281.27 319.368 365.719V365.88H319.198L191.662 365.922H191.459V228.511L191.679 228.731H183.5L183.721 228.511V373.327L183.509 373.115L327.402 373.158L327.233 373.327C327.419 299.346 327.547 247.104 327.597 228.858L327.64 228.901H319.419Z" fill="#263238"/>
<path d="M352.225 215.109H167.43V229.868H352.225V215.109Z" fill="#AE7461"/>
<path d="M213.757 214.837L213.282 214.948C212.977 215.007 212.519 215.075 211.934 215.211C210.765 215.448 209.087 215.855 207.044 216.457C205.002 217.06 202.586 217.874 199.925 218.824C197.264 219.774 194.348 220.843 191.221 221.801C188.285 222.71 185.277 223.362 182.229 223.752C179.754 224.069 177.25 224.089 174.77 223.812C173.086 223.623 171.428 223.245 169.829 222.683C169.393 222.539 168.966 222.369 168.549 222.175C168.261 222.056 168.117 221.979 168.117 221.979C168.117 221.979 168.278 222.022 168.575 222.132C168.871 222.242 169.295 222.429 169.863 222.59C171.466 223.108 173.12 223.455 174.796 223.625C177.277 223.88 179.78 223.845 182.254 223.523C185.284 223.119 188.275 222.46 191.195 221.555C194.314 220.597 197.23 219.537 199.9 218.603C202.569 217.67 204.985 216.865 207.036 216.288C208.659 215.814 210.305 215.423 211.968 215.117C212.553 214.999 213.019 214.948 213.324 214.897C213.63 214.846 213.757 214.837 213.757 214.837Z" fill="#6F4439"/>
<path d="M308.009 228.468C307.941 228.406 307.878 228.338 307.823 228.265C307.653 228.061 307.475 227.857 307.289 227.671C306.568 226.932 305.743 226.303 304.839 225.805C303.408 225.023 301.85 224.501 300.237 224.261C298.099 223.962 295.926 224.017 293.805 224.422C291.225 224.922 288.678 225.577 286.177 226.382C283.308 227.329 280.343 227.955 277.337 228.248C275.699 228.367 274.053 228.255 272.447 227.917C270.777 227.55 269.152 227.004 267.599 226.288C264.421 224.889 261.353 222.989 257.962 221.615C251.14 218.866 243.927 218.654 237.622 219.46C232.057 220.269 226.607 221.729 221.383 223.811C216.891 225.508 213.357 227.204 210.908 228.273L208.085 229.554C207.441 229.851 207.094 229.995 207.094 229.995C207.094 229.995 207.424 229.817 208.06 229.512L210.857 228.18C213.298 227.043 216.832 225.389 221.315 223.642C226.554 221.522 232.029 220.044 237.622 219.24C243.91 218.391 251.182 218.62 258.047 221.386C261.437 222.777 264.531 224.677 267.684 226.068C269.219 226.78 270.828 227.323 272.481 227.688C274.068 228.04 275.698 228.162 277.32 228.053C280.31 227.765 283.259 227.153 286.117 226.229C288.619 225.432 291.166 224.786 293.745 224.295C295.888 223.897 298.081 223.854 300.237 224.168C301.861 224.424 303.428 224.964 304.865 225.762C305.766 226.277 306.586 226.923 307.297 227.679C307.553 227.925 307.791 228.189 308.009 228.468Z" fill="#6F4439"/>
<path d="M351.149 219.672C349.196 220.436 347.187 221.049 345.14 221.504C344.191 221.725 343.148 221.954 342.021 222.115C340.894 222.276 339.673 222.446 338.393 222.59C332.824 223.089 327.21 222.677 321.773 221.369C320.528 221.046 319.341 220.758 318.265 220.385C317.188 220.012 316.171 219.672 315.264 219.325C313.305 218.574 311.406 217.672 309.586 216.627C309.722 216.678 309.855 216.737 309.984 216.805L311.111 217.34C311.595 217.586 312.196 217.874 312.908 218.188C313.62 218.502 314.417 218.858 315.332 219.172C316.248 219.486 317.231 219.876 318.324 220.198C319.417 220.521 320.595 220.843 321.833 221.157C327.239 222.424 332.811 222.825 338.343 222.344C339.614 222.208 340.826 222.107 341.953 221.903C343.08 221.7 344.114 221.53 345.064 221.326C346.013 221.123 346.86 220.894 347.606 220.699C348.352 220.504 348.988 220.325 349.496 220.156L350.691 219.783C350.841 219.734 350.994 219.697 351.149 219.672Z" fill="#6F4439"/>
<path d="M245.319 211.394H188.611C187.553 211.394 186.695 212.252 186.695 213.311V213.421C186.695 214.48 187.553 215.338 188.611 215.338H245.319C246.377 215.338 247.234 214.48 247.234 213.421V213.311C247.234 212.252 246.377 211.394 245.319 211.394Z" fill="#455A64"/>
<path d="M261.453 162.74L247.282 213.718C247.134 214.245 246.784 214.692 246.308 214.962C245.831 215.232 245.268 215.303 244.74 215.16C244.213 215.011 243.766 214.661 243.496 214.184C243.227 213.707 243.156 213.144 243.299 212.615L257.478 161.595C257.625 161.066 257.975 160.618 258.451 160.347C258.928 160.077 259.493 160.007 260.021 160.153C260.546 160.303 260.992 160.654 261.261 161.13C261.531 161.606 261.603 162.169 261.462 162.697L261.453 162.74Z" fill="#455A64"/>
<path d="M249.921 166.684C249.836 166.777 245.869 163.062 241.064 158.405C236.259 153.748 232.436 149.923 232.521 149.804C232.606 149.686 236.564 153.418 241.369 158.083C246.175 162.748 250.005 166.599 249.921 166.684Z" fill="#263238"/>
<path d="M247.989 172.783C247.505 172.638 247.032 172.46 246.574 172.248L242.802 170.662C239.607 169.322 235.174 167.498 230.284 165.573C225.394 163.647 220.885 161.985 217.639 160.797L213.757 159.347C213.281 159.194 212.816 159.007 212.367 158.787C212.861 158.877 213.346 159.01 213.816 159.186C214.74 159.474 216.071 159.907 217.707 160.466C220.987 161.578 225.487 163.198 230.42 165.132C235.352 167.066 239.742 168.94 242.895 170.348L246.624 172.045C247.097 172.257 247.553 172.503 247.989 172.783Z" fill="#263238"/>
<path d="M247.209 178.856C246.053 179.034 244.879 179.06 243.717 178.932C242.548 178.956 241.381 178.833 240.242 178.568C242.567 178.371 244.908 178.468 247.209 178.856Z" fill="#263238"/>
<path d="M350.394 349.212C350.394 349.212 346.877 324.962 347.165 310.856C347.453 296.75 347.165 280.871 347.165 280.871H348.792C348.792 280.871 347.691 308.862 348.886 325.767C350.081 342.672 353.234 349.212 353.234 349.212H350.411" fill="#263238"/>
<path d="M360.896 253.584C360.64 252.727 360.125 251.971 359.421 251.421C358.387 250.768 357.039 251.039 355.887 251.421C350.979 253.16 346.632 262.312 344.648 267.13L351.157 289.099C362.921 278.208 364.955 263.881 360.896 253.584Z" fill="#455A64"/>
<path d="M359.041 252.312C359.016 252.408 358.982 252.502 358.939 252.591C358.863 252.803 358.753 253.075 358.626 253.397C358.337 254.084 357.939 255.094 357.456 256.341C356.498 258.834 355.278 262.278 354.185 266.248C353.091 270.217 352.345 273.805 351.888 276.426C351.65 277.741 351.481 278.81 351.371 279.548C351.311 279.896 351.269 280.176 351.227 280.396C351.217 280.495 351.194 280.592 351.159 280.684C351.15 280.586 351.15 280.486 351.159 280.388C351.159 280.159 351.21 279.879 351.244 279.539C351.328 278.793 351.472 277.716 351.684 276.392C352.804 269.51 354.695 262.775 357.32 256.315C357.82 255.068 358.244 254.076 358.566 253.397C358.71 253.083 358.829 252.82 358.931 252.617C358.949 252.509 358.987 252.406 359.041 252.312Z" fill="#263238"/>
<path d="M348.267 294.392C345.301 292.704 342.818 290.28 341.059 287.353C339.3 284.426 338.324 281.096 338.224 277.682C337.987 272.813 339.487 268.029 341.182 263.449C341.285 263.037 341.527 262.674 341.868 262.422C342.149 262.318 342.452 262.286 342.749 262.331C343.045 262.375 343.326 262.494 343.563 262.677C347.996 265.221 350.691 270.031 352.115 274.934C353.146 278.186 353.489 281.618 353.124 285.01C352.562 288.576 350.868 291.865 348.293 294.392" fill="#455A64"/>
<path d="M348.269 294.392C348.26 294.293 348.26 294.194 348.269 294.095V293.247C348.269 292.509 348.269 291.448 348.176 290.142C348.005 286.729 347.626 283.33 347.04 279.963C346.371 276.028 345.548 272.508 344.938 269.963L344.218 266.943L344.031 266.095C344.005 266.001 343.988 265.904 343.98 265.807C344.023 265.894 344.057 265.984 344.082 266.078C344.141 266.299 344.218 266.562 344.319 266.926C344.514 267.63 344.794 268.623 345.125 269.92C345.777 272.465 346.633 275.985 347.311 279.93C347.888 283.295 348.242 286.696 348.371 290.108V294.061C348.354 294.176 348.319 294.287 348.269 294.392Z" fill="#263238"/>
<g opacity="0.3">
<path d="M348.267 294.392C345.301 292.704 342.818 290.28 341.059 287.353C339.3 284.426 338.324 281.096 338.224 277.682C337.987 272.813 339.487 268.029 341.182 263.449C341.285 263.037 341.527 262.674 341.868 262.422C342.149 262.318 342.452 262.286 342.749 262.331C343.045 262.375 343.326 262.494 343.563 262.677C347.996 265.221 350.691 270.031 352.115 274.934C353.146 278.186 353.489 281.618 353.124 285.01C352.562 288.576 350.868 291.865 348.293 294.392" fill="black"/>
</g>
<path d="M355.16 331.535C361.169 332.859 366.11 337.1 371.916 339.169C375.747 340.535 380.086 341.018 383.146 343.699C382.417 341.841 380.671 340.603 378.976 339.551C374.2 336.547 369.099 334.094 363.771 332.239C361.05 331.298 358.084 330.543 355.296 331.289" fill="#455A64"/>
<path d="M346.462 336.854C338.935 336.726 331.011 330.314 323.527 329.932C331.359 327.387 342.588 329.466 346.462 336.854Z" fill="#455A64"/>
<path d="M349.402 318.812C353.281 317.533 357.418 317.242 361.437 317.964C365.436 318.694 369.365 319.761 373.184 321.153C372.794 318.541 370.684 316.581 368.692 314.842C367.243 313.482 365.665 312.266 363.98 311.212C362.286 310.152 360.324 309.599 358.327 309.617C357.127 309.693 355.956 310.011 354.882 310.552C353.809 311.093 352.856 311.845 352.081 312.764C350.563 314.427 349.624 316.537 349.402 318.778" fill="#455A64"/>
<path d="M333.962 310.466C329.224 306.42 322.046 306.81 315.816 306.954C325.825 311.728 335.263 317.615 343.954 324.504C344.209 320.093 339.946 315.58 333.962 310.466Z" fill="#455A64"/>
<g opacity="0.3">
<path d="M333.962 310.466C329.224 306.42 322.046 306.81 315.816 306.954C325.825 311.728 335.263 317.615 343.954 324.504C344.209 320.093 339.946 315.58 333.962 310.466Z" fill="black"/>
</g>
<path d="M351.541 304.876C353.854 303.274 356.288 301.856 358.822 300.635C361.322 299.507 363.644 297.7 366.051 296.394C369.179 294.697 371.882 292.348 374.747 290.253C377.611 288.157 380.764 286.257 384.273 285.706C381.384 285.188 378.413 285.359 375.603 286.207C372.805 287.046 370.079 288.107 367.45 289.379C363.754 291.075 359.991 292.772 356.974 295.461C353.957 298.149 351.219 300.83 351.541 304.876Z" fill="#455A64"/>
<path d="M371.771 336.854L371.534 336.743L370.881 336.404C370.314 336.107 369.5 335.658 368.474 335.14L366.779 334.292C366.152 333.987 365.516 333.698 364.822 333.393C363.326 332.721 361.775 332.182 360.186 331.781C358.613 331.341 356.956 331.297 355.363 331.654C354.665 331.807 353.98 332.011 353.312 332.265C352.739 332.496 352.189 332.78 351.668 333.113C350.906 333.587 350.208 334.157 349.591 334.809C349.151 335.276 348.939 335.556 348.922 335.547C348.956 335.467 349.001 335.393 349.057 335.327C349.195 335.118 349.348 334.919 349.515 334.733C350.109 334.039 350.797 333.431 351.558 332.926C352.094 332.578 352.662 332.28 353.253 332.036C353.927 331.767 354.621 331.552 355.329 331.391C356.961 331.009 358.664 331.044 360.279 331.493C361.882 331.9 363.445 332.451 364.949 333.138C365.644 333.452 366.296 333.758 366.898 334.063L368.593 334.911C369.61 335.454 370.415 335.929 370.966 336.26L371.593 336.642C371.703 336.794 371.78 336.845 371.771 336.854Z" fill="#263238"/>
<path d="M340.887 333.113C341.051 333.14 341.21 333.189 341.361 333.257C341.778 333.411 342.186 333.589 342.582 333.792C343.904 334.453 345.118 335.311 346.184 336.336C347.251 337.355 348.157 338.53 348.87 339.822C349.091 340.211 349.286 340.613 349.455 341.027C349.531 341.173 349.583 341.331 349.608 341.493C349.565 341.493 349.286 340.874 348.709 339.924C347.196 337.433 345.053 335.385 342.497 333.987C341.944 333.727 341.406 333.435 340.887 333.113Z" fill="#263238"/>
<path d="M324.199 310.084C324.31 310.102 324.418 310.133 324.521 310.177L325.428 310.499L326.852 311.025C327.403 311.237 328.005 311.543 328.691 311.873C332.221 313.51 335.516 315.613 338.489 318.125C340.115 319.517 341.641 321.023 343.057 322.629C344.209 323.94 345.293 325.31 346.303 326.734C347.15 327.956 347.811 328.974 348.261 329.669L348.769 330.517C348.838 330.605 348.896 330.702 348.939 330.806C348.859 330.726 348.788 330.638 348.727 330.543C348.6 330.373 348.405 330.11 348.167 329.762C347.693 329.075 347.023 328.066 346.142 326.879C345.26 325.691 344.167 324.334 342.87 322.824C341.451 321.238 339.927 319.747 338.311 318.362C335.355 315.851 332.094 313.722 328.606 312.026C327.937 311.721 327.344 311.407 326.793 311.178L325.386 310.61L324.538 310.236C324.419 310.201 324.305 310.15 324.199 310.084Z" fill="#263238"/>
<path d="M360.703 314.571C360.5 314.571 360.298 314.545 360.102 314.494L359.407 314.367C359.144 314.316 358.83 314.316 358.483 314.282C357.102 314.154 355.71 314.336 354.408 314.814C353.106 315.292 351.927 316.055 350.957 317.048C350.387 317.616 349.881 318.244 349.448 318.922C349.055 319.555 348.709 320.215 348.414 320.899C348.431 320.696 348.482 320.498 348.567 320.313C348.757 319.793 348.998 319.293 349.287 318.82C349.699 318.11 350.204 317.457 350.787 316.878C351.479 316.142 352.29 315.528 353.186 315.063C354.82 314.215 356.671 313.875 358.5 314.087C358.847 314.138 359.169 314.155 359.432 314.223L360.127 314.393C360.324 314.435 360.517 314.495 360.703 314.571Z" fill="#263238"/>
<path d="M368.262 291.058C368.18 291.133 368.085 291.194 367.983 291.236L367.135 291.695C366.398 292.085 365.347 292.67 364.075 293.391C362.574 294.262 361.117 295.207 359.711 296.224C357.974 297.444 356.346 298.812 354.846 300.312C354.073 301.07 353.404 301.925 352.854 302.857C352.363 303.799 351.888 304.715 351.456 305.597C350.676 307.137 349.977 308.717 349.362 310.33C348.954 311.439 348.615 312.572 348.345 313.723C348.27 314.146 348.174 314.565 348.057 314.978C348.049 314.868 348.049 314.757 348.057 314.647C348.072 314.329 348.124 314.013 348.21 313.706C348.447 312.555 348.761 311.421 349.15 310.313C349.745 308.673 350.429 307.067 351.201 305.504C351.634 304.655 352.1 303.697 352.591 302.747C353.144 301.78 353.825 300.892 354.617 300.109C356.127 298.596 357.773 297.224 359.533 296.012C361.143 294.875 362.66 293.951 363.948 293.204C365.237 292.458 366.304 291.915 367.05 291.55L367.898 291.135L368.262 291.058Z" fill="#263238"/>
<path d="M347.159 313.867C347.089 313.66 347.041 313.447 347.015 313.231C346.921 312.773 346.811 312.187 346.684 311.492C345.98 307.661 344.778 303.94 343.107 300.423L342.379 298.811C342.272 298.618 342.19 298.413 342.133 298.2C342.265 298.375 342.378 298.562 342.472 298.76C342.667 299.133 342.946 299.668 343.319 300.338C344.193 302.088 344.938 303.899 345.548 305.758C346.144 307.621 346.597 309.526 346.904 311.458C347.023 312.204 347.108 312.798 347.15 313.222C347.174 313.436 347.177 313.652 347.159 313.867Z" fill="#263238"/>
<path d="M346.617 296.758C346.381 293.904 345.547 291.133 344.168 288.624C342.314 285.169 339.725 282.163 336.584 279.818C333.443 277.473 329.826 275.846 325.988 275.052L342.82 300.151L344.998 304.638C346.359 302.25 346.926 299.49 346.617 296.758Z" fill="#455A64"/>
<path d="M374.922 340.492H327.52V348.898H374.922V340.492Z" fill="#FF725E"/>
<path d="M331.062 347.227L337.419 373.319H366.566L371.38 347.227H331.062Z" fill="#FF725E"/>
<path d="M374.899 348.907C374.899 349 364.203 349.077 351.024 349.077C337.845 349.077 327.141 349 327.141 348.907C327.141 348.814 337.828 348.737 351.024 348.737C364.22 348.737 374.899 348.814 374.899 348.907Z" fill="#263238"/>
</g>
<defs>
<clipPath id="clip0_5961_52487">
<rect width="397" height="377" fill="white"/>
</clipPath>
</defs>
</svg>
