<svg width="200" height="200" viewBox="0 0 200 200" fill="none" xmlns="http://www.w3.org/2000/svg">
<circle cx="100" cy="100" r="100" fill="#FFEFDB"/>
<path d="M99.4136 86.5856C99.0385 86.2106 98.5299 86 97.9996 86C97.4692 86 96.9606 86.2106 96.5856 86.5856L84.5856 98.5856C84.2106 98.9606 84 99.4692 84 99.9996C84 100.53 84.2106 101.039 84.5856 101.414L96.5856 113.414C96.9628 113.778 97.468 113.979 97.9924 113.975C98.5168 113.97 99.0184 113.76 99.3892 113.389C99.76 113.018 99.9704 112.517 99.9749 111.992C99.9795 111.468 99.7779 110.963 99.4136 110.586L90.8276 102H114C114.53 102 115.039 101.789 115.414 101.414C115.789 101.039 116 100.53 116 99.9996C116 99.4691 115.789 98.9604 115.414 98.5854C115.039 98.2103 114.53 97.9996 114 97.9996H90.8276L99.4136 89.4136C99.7885 89.0385 99.9991 88.5299 99.9991 87.9996C99.9991 87.4692 99.7885 86.9606 99.4136 86.5856Z" fill="#333333"/>
</svg>
