<svg width="200" height="200" viewBox="0 0 200 200" fill="none" xmlns="http://www.w3.org/2000/svg">
<circle cx="100" cy="100" r="100" fill="#FFEFDB"/>
<path d="M82 88.002C82 87.4715 82.2107 86.9628 82.5858 86.5877C82.9609 86.2127 83.4696 86.002 84 86.002H116C116.53 86.002 117.039 86.2127 117.414 86.5877C117.789 86.9628 118 87.4715 118 88.002C118 88.5324 117.789 89.0411 117.414 89.4162C117.039 89.7912 116.53 90.002 116 90.002H84C83.4696 90.002 82.9609 89.7912 82.5858 89.4162C82.2107 89.0411 82 88.5324 82 88.002ZM82 100.002C82 99.4715 82.2107 98.9628 82.5858 98.5877C82.9609 98.2127 83.4696 98.002 84 98.002H116C116.53 98.002 117.039 98.2127 117.414 98.5877C117.789 98.9628 118 99.4715 118 100.002C118 100.532 117.789 101.041 117.414 101.416C117.039 101.791 116.53 102.002 116 102.002H84C83.4696 102.002 82.9609 101.791 82.5858 101.416C82.2107 101.041 82 100.532 82 100.002ZM82 112.002C82 111.472 82.2107 110.963 82.5858 110.588C82.9609 110.213 83.4696 110.002 84 110.002H116C116.53 110.002 117.039 110.213 117.414 110.588C117.789 110.963 118 111.472 118 112.002C118 112.532 117.789 113.041 117.414 113.416C117.039 113.791 116.53 114.002 116 114.002H84C83.4696 114.002 82.9609 113.791 82.5858 113.416C82.2107 113.041 82 112.532 82 112.002Z" fill="#333333"/>
</svg>
