<svg width="200" height="200" viewBox="0 0 200 200" fill="none" xmlns="http://www.w3.org/2000/svg">
<circle cx="100" cy="100" r="100" fill="#FFEFDB"/>
<path d="M113.414 92.5871C113.039 92.2122 112.531 92.0016 112 92.0016C111.47 92.0016 110.961 92.2122 110.586 92.5871L100 103.173L89.4144 92.5871C89.2299 92.3961 89.0092 92.2438 88.7652 92.1389C88.5212 92.0341 88.2588 91.9789 87.9932 91.9766C87.7277 91.9743 87.4643 92.0249 87.2185 92.1255C86.9727 92.2261 86.7494 92.3746 86.5616 92.5623C86.3739 92.7501 86.2253 92.9734 86.1248 93.2192C86.0242 93.465 85.9736 93.7284 85.9759 93.9939C85.9782 94.2595 86.0334 94.5219 86.1382 94.7659C86.243 95.01 86.3954 95.2306 86.5864 95.4151L98.5864 107.415C98.9615 107.79 99.4701 108.001 100 108.001C100.531 108.001 101.039 107.79 101.414 107.415L113.414 95.4151C113.789 95.0401 114 94.5315 114 94.0011C114 93.4708 113.789 92.9622 113.414 92.5871Z" fill="#333333"/>
</svg>
