<svg width="200" height="200" viewBox="0 0 200 200" fill="none" xmlns="http://www.w3.org/2000/svg">
<circle cx="100" cy="100" r="100" fill="#FFEFDB"/>
<path d="M113.414 107.414C113.039 107.789 112.53 107.999 112 107.999C111.47 107.999 110.961 107.789 110.586 107.414L99.9998 96.8276L89.4138 107.414C89.0366 107.778 88.5314 107.979 88.007 107.975C87.4826 107.97 86.981 107.76 86.6102 107.389C86.2394 107.018 86.029 106.517 86.0245 105.992C86.0199 105.468 86.2215 104.963 86.5858 104.586L98.5858 92.5856C98.9609 92.2106 99.4695 92 99.9998 92C100.53 92 101.039 92.2106 101.414 92.5856L113.414 104.586C113.789 104.961 113.999 105.469 113.999 106C113.999 106.53 113.789 107.039 113.414 107.414Z" fill="#333333"/>
</svg>
