<svg width="200" height="200" viewBox="0 0 200 200" fill="none" xmlns="http://www.w3.org/2000/svg">
<circle cx="100" cy="100" r="100" fill="#FFEFDB"/>
<path fill-rule="evenodd" clip-rule="evenodd" d="M90.3431 84C90.6387 83.1642 91.1186 82.3962 91.7574 81.7574C92.8826 80.6321 94.4087 80 96 80H104C105.591 80 107.117 80.6321 108.243 81.7574C108.881 82.3962 109.361 83.1642 109.657 84H112C113.591 84 115.117 84.6321 116.243 85.7574C117.368 86.8826 118 88.4087 118 90V114C118 115.591 117.368 117.117 116.243 118.243C115.117 119.368 113.591 120 112 120H88C86.4087 120 84.8826 119.368 83.7574 118.243C82.6321 117.117 82 115.591 82 114V90C82 88.4087 82.6321 86.8826 83.7574 85.7574C84.8826 84.6321 86.4087 84 88 84H90.3431ZM90.3431 88H88C87.4696 88 86.9609 88.2107 86.5858 88.5858C86.2107 88.9609 86 89.4696 86 90V114C86 114.53 86.2107 115.039 86.5858 115.414C86.9609 115.789 87.4696 116 88 116H112C112.53 116 113.039 115.789 113.414 115.414C113.789 115.039 114 114.53 114 114V90C114 89.4696 113.789 88.9609 113.414 88.5858C113.039 88.2107 112.53 88 112 88H109.657C109.361 88.8358 108.881 89.6038 108.243 90.2426C107.117 91.3679 105.591 92 104 92H96C94.4087 92 92.8826 91.3679 91.7574 90.2426C91.1186 89.6038 90.6387 88.8358 90.3431 88Z" fill="#333333"/>
<path fill-rule="evenodd" clip-rule="evenodd" d="M107.249 96.4383C108.112 97.1284 108.252 98.3869 107.562 99.2495L99.5617 109.249C99.2064 109.694 98.6786 109.966 98.1106 109.997C97.5426 110.028 96.988 109.817 96.5858 109.414L92.5858 105.414C91.8047 104.633 91.8047 103.367 92.5858 102.586C93.3668 101.805 94.6332 101.805 95.4142 102.586L97.8342 105.006L104.438 96.7507C105.128 95.8882 106.387 95.7483 107.249 96.4383Z" fill="#333333"/>
</svg>
