<svg width="200" height="200" viewBox="0 0 200 200" fill="none" xmlns="http://www.w3.org/2000/svg">
<circle cx="100" cy="100" r="100" fill="#FFEFDB"/>
<path d="M86.5856 86.5871C86.9606 86.2122 87.4692 86.0016 87.9996 86.0016C88.5299 86.0016 89.0385 86.2122 89.4136 86.5871L99.9996 97.1731L110.586 86.5871C110.77 86.3961 110.991 86.2438 111.235 86.1389C111.479 86.0341 111.741 85.9789 112.007 85.9766C112.272 85.9743 112.536 86.0249 112.781 86.1255C113.027 86.2261 113.251 86.3746 113.438 86.5623C113.626 86.7501 113.775 86.9734 113.875 87.2192C113.976 87.465 114.026 87.7284 114.024 87.9939C114.022 88.2595 113.967 88.5219 113.862 88.7659C113.757 89.01 113.605 89.2306 113.414 89.4151L102.828 100.001L113.414 110.587C113.778 110.964 113.979 111.47 113.975 111.994C113.97 112.518 113.76 113.02 113.389 113.391C113.018 113.762 112.517 113.972 111.992 113.976C111.468 113.981 110.963 113.779 110.586 113.415L99.9996 102.829L89.4136 113.415C89.0364 113.779 88.5312 113.981 88.0068 113.976C87.4824 113.972 86.9808 113.762 86.6099 113.391C86.2391 113.02 86.0288 112.518 86.0242 111.994C86.0197 111.47 86.2213 110.964 86.5856 110.587L97.1716 100.001L86.5856 89.4151C86.2106 89.0401 86 88.5315 86 88.0011C86 87.4708 86.2106 86.9622 86.5856 86.5871Z" fill="#333333"/>
</svg>
