<svg width="200" height="200" viewBox="0 0 200 200" fill="none" xmlns="http://www.w3.org/2000/svg">
<circle cx="100" cy="100" r="100" fill="#FFEFDB"/>
<path fill-rule="evenodd" clip-rule="evenodd" d="M82.5564 88.4544C81.5984 84.6997 84.8715 82 88.0003 82H112C115.126 82 118.397 84.6994 117.447 88.451L117.446 88.4567C116.792 91.0079 115.587 93.3848 113.915 95.4204C112.244 97.456 110.148 99.1009 107.773 100.239C106.615 100.794 106 101.748 106 102.596V112.764C106 113.507 105.793 114.236 105.402 114.867C105.011 115.499 104.453 116.009 103.789 116.341C103.789 116.341 103.789 116.341 103.789 116.341L99.7887 118.341C99.179 118.646 98.5012 118.79 97.8203 118.759C97.1394 118.728 96.4777 118.524 95.8979 118.166C95.318 117.808 94.8394 117.307 94.5073 116.712C94.1752 116.117 94.0007 115.447 94.0003 114.765V102.596C94.0003 101.748 93.3857 100.795 92.2267 100.24C89.8528 99.1008 87.7554 97.4548 86.0852 95.4193C84.415 93.3837 83.2107 91.0072 82.5569 88.4566L82.5564 88.4544ZM86.432 87.4647C86.9408 89.4492 87.8779 91.2982 89.1775 92.882C90.4771 94.4658 92.1077 95.7459 93.9547 96.6325C96.0873 97.6537 98.0003 99.7964 98.0003 102.596L98.0003 114.763L102 112.763L102 102.596C102 99.7964 103.913 97.6538 106.044 96.6325M86.432 87.4647C86.3428 87.1143 86.4291 86.8089 86.6818 86.5358C86.9594 86.2357 87.4342 86 88.0003 86H112C112.563 86 113.038 86.2351 113.317 86.5363C113.571 86.8107 113.658 87.1171 113.57 87.4668C113.061 89.4508 112.123 91.2992 110.824 92.8824C109.523 94.4664 107.892 95.7465 106.044 96.6325" fill="#333333"/>
</svg>
