<svg width="200" height="200" viewBox="0 0 200 200" fill="none" xmlns="http://www.w3.org/2000/svg">
<circle cx="100" cy="100" r="100" fill="#FFEFDB"/>
<path d="M113.414 100.586C113.789 100.961 114 101.47 114 102C114 102.53 113.789 103.039 113.414 103.414L101.414 115.414C101.039 115.789 100.53 116 100 116C99.4698 116 98.9612 115.789 98.5862 115.414L86.5862 103.414C86.3951 103.23 86.2428 103.009 86.138 102.765C86.0331 102.521 85.978 102.258 85.9757 101.993C85.9734 101.727 86.024 101.464 86.1245 101.218C86.2251 100.972 86.3736 100.749 86.5614 100.561C86.7492 100.373 86.9725 100.225 87.2183 100.124C87.464 100.024 87.7274 99.9732 87.993 99.9755C88.2585 99.9778 88.521 100.033 88.765 100.138C89.009 100.243 89.2297 100.395 89.4142 100.586L98.0002 109.172V86C98.0002 85.4696 98.2109 84.9609 98.5859 84.5858C98.961 84.2107 99.4697 84 100 84C100.531 84 101.039 84.2107 101.414 84.5858C101.789 84.9609 102 85.4696 102 86V109.172L110.586 100.586C110.961 100.211 111.47 100 112 100C112.53 100 113.039 100.211 113.414 100.586Z" fill="#333333"/>
</svg>
