<svg width="200" height="200" viewBox="0 0 200 200" fill="none" xmlns="http://www.w3.org/2000/svg">
<circle cx="100" cy="100" r="100" fill="#FFEFDB"/>
<path d="M100 84C100.53 84 101.039 84.2107 101.414 84.5858C101.789 84.9609 102 85.4696 102 86V98H114C114.53 98 115.039 98.2107 115.414 98.5858C115.789 98.9609 116 99.4696 116 100C116 100.53 115.789 101.039 115.414 101.414C115.039 101.789 114.53 102 114 102H102V114C102 114.53 101.789 115.039 101.414 115.414C101.039 115.789 100.53 116 100 116C99.4696 116 98.9609 115.789 98.5858 115.414C98.2107 115.039 98 114.53 98 114V102H86C85.4696 102 84.9609 101.789 84.5858 101.414C84.2107 101.039 84 100.53 84 100C84 99.4696 84.2107 98.9609 84.5858 98.5858C84.9609 98.2107 85.4696 98 86 98H98V86C98 85.4696 98.2107 84.9609 98.5858 84.5858C98.9609 84.2107 99.4696 84 100 84Z" fill="#333333"/>
</svg>
