<svg width="200" height="200" viewBox="0 0 200 200" fill="none" xmlns="http://www.w3.org/2000/svg">
<circle cx="100" cy="100" r="100" fill="#FFEFDB"/>
<path d="M98 85.9997C96.4241 85.9997 94.8637 86.3101 93.4078 86.9131C91.9519 87.5162 90.629 88.4001 89.5147 89.5144C88.4004 90.6287 87.5165 91.9516 86.9134 93.4075C86.3104 94.8634 86 96.4238 86 97.9997C86 99.5755 86.3104 101.136 86.9134 102.592C87.5165 104.048 88.4004 105.371 89.5147 106.485C90.629 107.599 91.9519 108.483 93.4078 109.086C94.8637 109.689 96.4241 110 98 110C101.183 110 104.235 108.735 106.485 106.485C108.736 104.235 110 101.182 110 97.9997C110 94.8171 108.736 91.7648 106.485 89.5144C104.235 87.2639 101.183 85.9997 98 85.9997ZM82 97.9997C82.0004 95.4534 82.6084 92.944 83.7737 90.6799C84.9389 88.4159 86.6277 86.4627 88.6996 84.9826C90.7715 83.5025 93.1668 82.5383 95.6863 82.1701C98.2058 81.8019 100.777 82.0404 103.186 82.8656C105.595 83.6909 107.772 85.0791 109.536 86.915C111.3 88.7509 112.601 90.9813 113.33 93.421C114.059 95.8607 114.195 98.4392 113.728 100.942C113.26 103.445 112.201 105.8 110.64 107.812L117.414 114.586C117.778 114.963 117.98 115.468 117.975 115.992C117.971 116.517 117.76 117.018 117.39 117.389C117.019 117.76 116.517 117.97 115.993 117.975C115.468 117.98 114.963 117.778 114.586 117.414L107.812 110.64C105.447 112.476 102.614 113.612 99.6355 113.918C96.657 114.224 93.6524 113.688 90.9633 112.371C88.2742 111.054 86.0086 109.009 84.424 106.469C82.8395 103.928 81.9997 100.994 82 97.9997Z" fill="#333333"/>
</svg>
