<svg width="142" height="142" viewBox="0 0 142 142" fill="none" xmlns="http://www.w3.org/2000/svg">
<path d="M103.589 40.2207H89.3467V60.8647H103.589V40.2207Z" fill="#E0E0E0"/>
<path d="M102.876 40.2207H88.6338V60.8647H102.876V40.2207Z" fill="#C1C1C1"/>
<path d="M101.107 42.4551H90.4033V58.6289H101.107V42.4551Z" fill="white"/>
<path d="M101.104 58.6256C101.104 58.6256 101.104 58.6001 101.104 58.549V58.3189C101.104 58.1145 101.104 57.8191 101.104 57.4328C101.104 56.6575 101.104 55.5272 101.104 54.0987C101.104 51.2587 101.104 47.2089 101.087 42.4547L101.121 42.4888H90.42L90.4597 42.449C90.4597 48.5493 90.4597 54.1754 90.4597 58.62L90.4285 58.5916H98.2215H100.371H101.104H100.917H100.349H98.2016H90.3916H90.3604V58.5603C90.3604 54.1157 90.3604 48.4897 90.3604 42.3894V42.3496H101.138V42.3865C101.138 47.1521 101.124 51.1905 101.121 54.0561C101.121 55.4761 101.121 56.6121 101.121 57.3789C101.121 57.7623 101.121 58.0577 101.121 58.2593V58.4836C101.12 58.5315 101.115 58.579 101.104 58.6256Z" fill="#E0E0E0"/>
<path d="M102.916 40.2207C102.843 40.3511 102.759 40.4746 102.664 40.5899C102.499 40.8086 102.263 41.1096 101.996 41.4419C101.729 41.7742 101.476 42.0553 101.292 42.2598C101.196 42.3753 101.09 42.4827 100.977 42.5807C101.062 42.4555 101.157 42.3369 101.261 42.2257L101.948 41.3936L102.632 40.5615C102.717 40.4398 102.812 40.3257 102.916 40.2207Z" fill="#E0E0E0"/>
<path d="M101.161 58.5762C101.695 59.4219 102.321 60.2049 103.03 60.9107L101.161 58.5762Z" fill="white"/>
<path d="M103.03 60.9103C102.911 60.8278 102.801 60.7326 102.703 60.6263C102.455 60.3733 102.22 60.1079 101.999 59.8311C101.778 59.5583 101.571 59.2739 101.38 58.9791C101.294 58.8594 101.22 58.7309 101.161 58.5957C101.259 58.7051 101.348 58.8229 101.425 58.9479C101.581 59.1694 101.803 59.4704 102.059 59.7999C102.314 60.1293 102.564 60.4048 102.743 60.6064C102.846 60.7005 102.942 60.8021 103.03 60.9103Z" fill="#E0E0E0"/>
<path d="M88.6338 60.8473L90.4968 58.5469L88.6338 60.8473Z" fill="white"/>
<path d="M90.4968 58.5469C90.2173 58.9532 89.9168 59.3447 89.5966 59.7198C89.0797 60.356 88.648 60.8558 88.6338 60.8558C88.9128 60.4482 89.2133 60.0557 89.5341 59.68C89.8357 59.2863 90.157 58.9081 90.4968 58.5469Z" fill="#E0E0E0"/>
<path d="M88.6338 40.2207C88.9559 40.5641 89.2583 40.9253 89.5397 41.3027C89.8432 41.6664 90.1276 42.0456 90.3917 42.4387C90.0697 42.0954 89.7672 41.7341 89.4858 41.3567C89.1809 40.9942 88.8964 40.6149 88.6338 40.2207Z" fill="#E0E0E0"/>
<path d="M97.7726 45.7383H94.1885V55.914H97.7726V45.7383Z" fill="#C1C1C1"/>
<path d="M75.2599 97.9803C74.6121 98.1942 74.0142 98.5366 73.5018 98.987C72.9894 99.4374 72.5731 99.9866 72.2779 100.602C71.6959 101.837 71.4044 103.189 71.4259 104.555C71.3918 107.188 72.5307 109.993 73.8541 112.268C76.2823 110.638 77.2081 107.378 77.5745 105.694C78.1425 103.03 77.5745 97.8695 75.2628 97.9803" fill="#F5F5F5"/>
<path d="M70.7704 116.234C71.0145 115.51 71.0626 114.735 70.91 113.987C70.7573 113.238 70.4093 112.544 69.9013 111.974C69.3854 111.414 68.763 110.962 68.0706 110.645C67.3782 110.328 66.6296 110.152 65.8685 110.128C65.167 110.091 64.3889 110.199 63.9174 110.721C63.7122 110.979 63.5796 111.287 63.5331 111.613C63.4867 111.939 63.5282 112.271 63.6533 112.576C63.9125 113.183 64.328 113.712 64.8575 114.107C66.5984 115.527 68.5495 116.597 70.7704 116.228" fill="#F5F5F5"/>
<path d="M72.5909 122.561C72.6236 121.98 72.5969 121.398 72.5114 120.823C72.4421 120.19 72.2972 119.569 72.0797 118.971C71.8364 118.236 71.5451 117.518 71.2078 116.821C70.5858 115.541 69.657 114.435 68.5042 113.6C68.1475 113.357 67.7668 113.15 67.3682 112.984C67.226 112.916 67.0733 112.872 66.9166 112.854C66.8939 112.902 67.5272 113.138 68.3707 113.768C69.4488 114.627 70.322 115.716 70.9267 116.954C71.2574 117.64 71.5503 118.344 71.8042 119.062C72.0264 119.64 72.1882 120.24 72.287 120.851C72.4631 121.905 72.5455 122.566 72.5909 122.561Z" fill="#E0E0E0"/>
<path d="M75.3478 101.957C75.2568 102.235 75.1903 102.52 75.149 102.809C75.0411 103.377 74.8963 104.172 74.7259 105.169C74.3822 107.157 73.942 109.923 73.5274 112.985C73.1127 116.046 72.8202 118.827 72.6498 120.846C72.5646 121.854 72.505 122.669 72.4738 123.234C72.4401 123.527 72.4344 123.821 72.4567 124.115C72.5254 123.829 72.5691 123.539 72.5874 123.246C72.6584 122.629 72.7492 121.826 72.8714 120.866C73.0957 118.855 73.4223 116.08 73.8341 113.025C74.2459 109.969 74.6549 107.254 74.9446 105.2C75.0809 104.24 75.1916 103.44 75.2768 102.829C75.3255 102.541 75.3492 102.249 75.3478 101.957Z" fill="#E0E0E0"/>
<path d="M73.9393 117.648C74.6101 116.188 75.6193 114.908 76.8831 113.915C78.147 112.923 79.6291 112.245 81.2068 111.94C82.0077 111.792 82.996 111.82 83.4362 112.508C83.8764 113.195 83.4902 114.109 83.0046 114.78C81.9653 116.131 80.5494 117.144 78.9353 117.693C77.3212 118.241 75.5809 118.3 73.9336 117.861" fill="#F5F5F5"/>
<path d="M80.0878 114.055C79.933 114.062 79.7805 114.095 79.6363 114.151C79.3523 114.231 78.9405 114.37 78.4435 114.555C77.1289 115.032 75.9138 115.749 74.8594 116.667C74.2909 117.193 73.8113 117.806 73.4394 118.485C73.1419 119.042 72.923 119.637 72.789 120.254C72.6978 120.667 72.6446 121.087 72.63 121.51C72.6038 121.663 72.6038 121.819 72.63 121.973C72.6896 121.973 72.7123 121.317 72.9765 120.306C73.3234 118.989 74.0433 117.8 75.0497 116.883C76.0833 115.991 77.253 115.27 78.5145 114.748C79.4943 114.324 80.1105 114.1 80.0878 114.055Z" fill="#E0E0E0"/>
<path d="M129.388 48.2124C129.388 48.2124 126.412 47.3348 125.208 54.1764C124.004 61.0179 123.907 64.7866 123.907 64.7866C123.907 64.7866 123.489 66.2719 122.388 65.721C121.286 65.17 119.414 63.2303 118.093 64.088C116.722 64.9769 116.742 66.8058 117.784 69.1801C118.826 71.5543 120.908 76.8481 121.101 77.3252C121.294 77.8023 121.226 78.589 120.417 78.3362C119.607 78.0835 114.453 74.9765 113.118 77.5325C111.783 80.0885 115.776 86.2116 116.199 86.9045C116.622 87.5975 116.574 87.944 116.279 88.2336C115.983 88.5233 114.348 87.3163 112.842 86.4927C111.337 85.6691 109.449 84.979 108.807 86.5069C108.165 88.0348 109.375 93.1866 116.708 99.9202L120.303 102.817L124.657 101.215C133.765 97.2166 136.585 92.7407 136.477 91.085C136.369 89.4293 134.352 89.4605 132.663 89.7445C130.973 90.0285 129.033 90.6505 128.846 90.2784C128.658 89.9064 128.732 89.5514 129.354 89.0459C129.976 88.5404 135.738 84.0191 135.304 81.1876C134.869 78.3561 128.979 79.6256 128.13 79.6029C127.281 79.5802 127.485 78.8105 127.809 78.4271C128.133 78.0437 131.833 73.707 133.589 71.7957C135.344 69.8844 135.954 68.1634 134.946 66.8768C133.975 65.6358 131.572 66.8768 130.354 67.0302C129.135 67.1836 129.218 65.6556 129.218 65.6556C129.218 65.6556 130.354 62.0602 131.424 55.1931C132.495 48.326 129.323 48.2067 129.323 48.2067" fill="#B6C5E0"/>
<path d="M128.299 54.3438C128.299 54.3438 128.299 54.392 128.285 54.4886L128.226 54.9117C128.169 55.2895 128.086 55.8376 127.984 56.5362C127.771 57.9562 127.45 59.9897 127.044 62.5002C126.232 67.5412 125.056 74.4935 123.724 82.1701C122.392 89.8466 121.197 96.7961 120.359 101.831C119.941 104.345 119.603 106.375 119.371 107.795C119.254 108.494 119.163 109.039 119.087 109.417C119.055 109.596 119.033 109.735 119.013 109.837C118.993 109.94 118.981 109.979 118.981 109.979C118.981 109.979 118.981 109.931 118.998 109.835C119.016 109.738 119.033 109.593 119.055 109.411C119.112 109.034 119.194 108.486 119.297 107.787C119.51 106.367 119.831 104.333 120.237 101.823C121.049 96.7819 122.225 89.8267 123.56 82.1502C124.894 74.4737 126.096 67.527 126.948 62.4803C127.362 59.9669 127.7 57.9363 127.936 56.5163L128.206 54.8947L128.28 54.4744C128.284 54.4305 128.291 54.3869 128.299 54.3438Z" fill="#E0E0E0"/>
<path d="M120.604 66.916C120.681 66.9961 120.75 67.0847 120.808 67.1801C120.933 67.3562 121.092 67.6147 121.314 67.9356C121.731 68.5803 122.285 69.4834 122.876 70.4916L124.378 73.0845L124.835 73.8655C124.9 73.9525 124.953 74.0481 124.991 74.1495C124.912 74.0707 124.843 73.9831 124.784 73.8882C124.662 73.7121 124.5 73.4537 124.284 73.1299C123.872 72.4796 123.33 71.5679 122.739 70.5597L121.22 67.9782C121.038 67.6715 120.882 67.4102 120.757 67.1972C120.694 67.1106 120.642 67.0161 120.604 66.916Z" fill="#E0E0E0"/>
<path d="M125.423 74.1233C125.398 74.0864 127.212 72.8652 129.476 71.3912C131.739 69.9173 133.588 68.7557 133.614 68.7898C133.639 68.8239 131.822 70.0508 129.561 71.5219C127.3 72.993 125.446 74.1546 125.423 74.1233Z" fill="#E0E0E0"/>
<path d="M122.85 85.8146C122.952 85.7641 123.06 85.7251 123.171 85.6982L124.057 85.4284C124.804 85.1983 125.837 84.8803 126.962 84.4855C128.087 84.0907 129.098 83.7073 129.827 83.4205L130.679 83.0825C130.783 83.0321 130.893 82.9958 131.006 82.9746C130.912 83.0392 130.811 83.0935 130.705 83.1365C130.506 83.2331 130.219 83.3665 129.853 83.5227C129.137 83.8351 128.132 84.2412 127.013 84.6332C125.894 85.0251 124.843 85.3318 124.088 85.5335C123.707 85.6329 123.401 85.7095 123.185 85.7578C123.076 85.7901 122.963 85.8092 122.85 85.8146Z" fill="#E0E0E0"/>
<path d="M117.057 80.2578C117.147 80.3118 117.231 80.3766 117.307 80.4509C117.46 80.5816 117.681 80.7747 117.948 81.0189C118.488 81.5046 119.224 82.1805 120.03 82.9331C120.837 83.6857 121.561 84.3758 122.081 84.8813C122.339 85.1313 122.546 85.3386 122.688 85.4834C122.767 85.5541 122.837 85.6332 122.899 85.7191C122.807 85.6678 122.722 85.6038 122.649 85.5289C122.492 85.3982 122.274 85.2023 122.004 84.9609C121.467 84.4781 120.729 83.8021 119.922 83.0467C119.116 82.2913 118.391 81.604 117.875 81.1013C117.613 80.8485 117.406 80.6441 117.264 80.4964C117.185 80.4262 117.115 80.346 117.057 80.2578Z" fill="#E0E0E0"/>
<path d="M113.473 90.2949C113.587 90.3665 113.694 90.4503 113.791 90.5448L114.617 91.269C115.31 91.8853 116.259 92.743 117.304 93.7001C118.349 94.6572 119.292 95.529 119.959 96.1652L120.752 96.9263C120.855 97.0113 120.951 97.1064 121.036 97.2103C120.922 97.1366 120.816 97.053 120.717 96.9604L119.891 96.2362C119.198 95.6199 118.25 94.7594 117.204 93.8052C116.159 92.8509 115.216 91.9762 114.552 91.34L113.751 90.596C113.648 90.5057 113.555 90.4048 113.473 90.2949Z" fill="#E0E0E0"/>
<path d="M120.894 97.0043C121.022 96.9406 121.156 96.8884 121.294 96.8481L122.407 96.4647C123.344 96.1409 124.64 95.6893 126.057 95.1526C127.474 94.6158 128.743 94.0989 129.658 93.7184L130.746 93.2668C130.876 93.2053 131.012 93.1558 131.152 93.1191C131.032 93.2005 130.905 93.2691 130.771 93.3236C130.521 93.4457 130.158 93.6076 129.703 93.8178C128.797 94.2267 127.531 94.7607 126.111 95.2974C124.691 95.8342 123.39 96.2772 122.441 96.5612C121.967 96.7089 121.589 96.8225 121.305 96.8963C121.172 96.9457 121.034 96.9819 120.894 97.0043Z" fill="#E0E0E0"/>
<path d="M29.4907 108.871C36.0483 105.128 38.1783 97.2666 38.5788 90.0615C38.6469 88.8574 38.894 87.6078 38.4197 86.503C37.9454 85.3982 36.6816 84.5576 35.5627 84.9637C34.634 85.3017 34.1427 86.3014 33.5747 87.1136C32.8039 88.1947 31.7437 89.0364 30.516 89.5418C29.7151 89.8684 28.7495 90.0218 28.0338 89.5418C27.0512 88.8744 27.0597 87.4345 27.1818 86.2446C27.4071 84.018 27.6239 81.7952 27.8322 79.5762C27.9486 78.3863 28.0651 77.1679 27.7981 76.0035C27.5312 74.8391 26.807 73.7088 25.7022 73.2885C24.5974 72.8682 23.132 73.3907 22.7855 74.5381C22.6435 75.0152 22.6946 75.5264 22.618 76.0177C22.5413 76.509 22.2573 77.0373 21.766 77.1338C21.2746 77.2304 20.8316 76.8498 20.5078 76.4664C19.3718 75.1487 18.6931 73.5214 18.0541 71.9054C17.4151 70.2894 16.8016 68.6451 15.8048 67.2279C14.808 65.8108 13.3596 64.6322 11.6612 64.3879C9.96291 64.1437 8.04591 65.0241 7.46087 66.6599C6.87583 68.2958 7.69659 70.0963 8.63947 71.5561C10.0458 73.7164 11.756 75.6628 13.7174 77.3355C14.0696 77.6365 14.4501 77.9631 14.5694 78.4175C14.754 79.2354 13.9276 79.9568 13.121 80.1471C12.2037 80.3601 11.2466 80.1783 10.3094 80.2039C9.37219 80.2294 8.32139 80.5447 7.89255 81.3938C7.29047 82.5668 8.19359 83.9498 9.11943 84.8672C10.9749 86.728 13.1376 88.2546 15.5123 89.3799C16.3643 89.7804 17.256 90.1467 17.9064 90.8283C18.5568 91.5099 18.8862 92.6204 18.3835 93.4212C17.8808 94.2221 16.7562 94.3925 15.8531 94.1369C14.95 93.8813 14.1746 93.3076 13.3283 92.8987C11.7464 92.129 9.61927 92.0467 8.44067 93.3673C7.66535 94.2363 7.48643 95.5257 7.73351 96.6674C7.98059 97.809 8.59971 98.8314 9.26995 99.7914C11.613 103.114 14.7483 105.903 18.4318 107.57C22.1153 109.237 25.6 109.916 29.5078 108.882" fill="#B6C5E0"/>
<path d="M29.0988 114.204C29.0687 110.843 28.7178 107.491 28.0508 104.196C27.2156 100.173 26.1507 96.201 24.8615 92.2996L23.8561 89.2295C23.5267 88.2213 23.2001 87.2216 22.8195 86.2617C22.0879 84.4229 21.2545 82.6262 20.3232 80.8799C19.4456 79.2072 18.5539 77.6508 17.7075 76.2024C16.8612 74.754 16.0405 73.4192 15.2453 72.2264C13.9973 70.3547 12.6032 68.5846 11.0761 66.9327C10.5365 66.3476 10.1049 65.9074 9.80667 65.6121L9.46587 65.2798C9.42817 65.2406 9.38733 65.2045 9.34375 65.1719C9.37574 65.2151 9.41086 65.2559 9.44883 65.294L9.77543 65.6433C10.0594 65.9472 10.4854 66.3988 11.0137 66.9923C12.5132 68.6649 13.885 70.4478 15.1175 72.3258C15.9041 73.5101 16.7107 74.8478 17.5513 76.3018C18.392 77.7559 19.2781 79.3122 20.1471 80.9822C21.0714 82.7205 21.9009 84.5076 22.6321 86.3356C23.007 87.2898 23.3308 88.281 23.6574 89.292C23.984 90.303 24.3162 91.3254 24.6542 92.3649C25.9389 96.2569 27.0065 100.217 27.852 104.228C28.5255 107.509 28.8906 110.846 28.9426 114.196" fill="#E0E0E0"/>
<path d="M22.7686 86.248C22.844 86.0898 22.8993 85.9229 22.9333 85.751C23.027 85.4272 23.1434 84.9558 23.2826 84.3679C23.5666 83.195 23.8875 81.5648 24.2425 79.7643C24.5975 77.9637 24.9468 76.3421 25.2422 75.1777C25.387 74.6097 25.5092 74.124 25.6 73.8003C25.6555 73.6342 25.6936 73.4629 25.7136 73.2891C25.6295 73.4427 25.5637 73.6057 25.5177 73.7747C25.4041 74.0928 25.2564 74.5585 25.0917 75.1379C24.7566 76.2938 24.3817 77.9183 24.0267 79.7217L23.1292 84.348C23.0185 84.9018 22.9248 85.3704 22.8452 85.7453C22.8039 85.9101 22.7782 86.0784 22.7686 86.248Z" fill="#E0E0E0"/>
<path d="M7.69922 81.9793C7.89679 82.0392 8.09919 82.082 8.30414 82.1071C8.69606 82.1781 9.26122 82.2775 9.95418 82.4252C11.3458 82.7092 13.2514 83.1579 15.3331 83.7514C17.4149 84.345 19.2751 84.9698 20.6099 85.4554C21.2773 85.694 21.814 85.9013 22.1832 86.0433C22.3712 86.1294 22.5671 86.197 22.7683 86.2449C22.5944 86.1323 22.4099 86.0372 22.2173 85.9609C21.8566 85.7934 21.3284 85.5633 20.6638 85.3049C19.3404 84.7767 17.483 84.132 15.3928 83.5327C13.6124 83.0168 11.8066 82.5931 9.98258 82.2633C9.28394 82.1383 8.7131 82.0616 8.31834 82.0162C8.11375 81.9829 7.90631 81.9705 7.69922 81.9793Z" fill="#E0E0E0"/>
<path d="M27.8857 103.899C27.9351 103.846 27.9763 103.785 28.0079 103.72L28.3231 103.189C28.6071 102.729 28.9649 102.053 29.4137 101.201C30.3139 99.514 31.4869 97.1426 32.7421 94.5071C33.9974 91.8716 35.1448 89.4916 36.011 87.7876L37.0391 85.7712L37.3231 85.2203C37.358 85.1574 37.3857 85.0907 37.4054 85.0215C37.3575 85.0748 37.3164 85.134 37.2833 85.1976L36.9709 85.7286C36.7011 86.1916 36.3291 86.8646 35.8775 87.7166C34.9772 89.4064 33.8071 91.7778 32.549 94.4134C31.2909 97.0489 30.1464 99.426 29.283 101.133L28.2521 103.149L27.9681 103.7C27.9316 103.762 27.9039 103.829 27.8857 103.899Z" fill="#E0E0E0"/>
<path d="M8.11426 95.4648C8.1743 95.5082 8.2403 95.5426 8.31022 95.5671L8.87822 95.8198L10.994 96.7286C12.7832 97.4926 15.254 98.5803 17.952 99.7845C20.65 100.989 23.1322 102.056 24.9384 102.784C25.8387 103.15 26.5714 103.437 27.0826 103.636L27.6705 103.851C27.738 103.879 27.8086 103.899 27.8807 103.911C27.822 103.867 27.7568 103.833 27.6875 103.809L27.1195 103.556L24.9924 102.639C23.2032 101.872 20.7324 100.784 18.0344 99.58C15.3364 98.3758 12.8514 97.308 11.048 96.581C10.1477 96.2174 9.41498 95.9278 8.90378 95.729L8.3159 95.516C8.25092 95.4911 8.18324 95.4739 8.11426 95.4648Z" fill="#E0E0E0"/>
<path d="M49.6553 23.2031V46.6445H15.9899L14.7744 23.3678L49.6553 23.2031Z" fill="#E0E0E0"/>
<path d="M14.7744 23.3702L14.7744 46.5957H48.4398V23.3702L14.7744 23.3702Z" fill="#F7B36F"/>
<path d="M48.6005 46.7554H14.6143V23.209H48.6005V46.7554ZM14.9352 46.4345H48.2796V23.5271H14.9352V46.4345Z" fill="#E0E0E0"/>
<path d="M44.7931 26.2539H18.4209V43.7085H44.7931V26.2539Z" fill="white"/>
<path d="M44.7956 26.2528H44.665H44.3043H42.8559L37.4201 26.2727L18.4347 26.3096L18.5114 26.2329C18.5114 31.5665 18.5114 37.4765 18.5114 43.6876L18.4262 43.6052L44.8013 43.6223L44.7331 43.6876C44.7501 38.3768 44.7615 34.0316 44.77 30.9899C44.77 29.4734 44.77 28.2891 44.7871 27.4769C44.7871 27.0764 44.7871 26.7669 44.7871 26.5539C44.7871 26.3409 44.7871 26.2329 44.7871 26.2329C44.7871 26.2329 44.7871 26.3352 44.7871 26.5396C44.7871 26.7441 44.7871 27.0537 44.7871 27.4513C44.7871 28.2579 44.7871 29.4393 44.8041 30.9473C44.8041 33.989 44.824 38.3597 44.8382 43.6876V43.7557H44.7729L18.3978 43.7728H18.3154V43.6876C18.3154 37.4765 18.3154 31.5665 18.3154 26.2329V26.1562H18.3893L37.4173 26.196L42.836 26.2159H44.256H44.6224L44.7956 26.2528Z" fill="#E0E0E0"/>
<path d="M14.768 23.3027C14.9712 23.4053 15.1618 23.5311 15.336 23.6776C15.6825 23.9275 16.1511 24.2797 16.6566 24.6858C17.1622 25.0919 17.608 25.4725 17.9233 25.7593C18.1038 25.9028 18.2651 26.0689 18.4032 26.2535C18.372 26.2904 17.5512 25.623 16.5516 24.8136C15.5519 24.0042 14.7453 23.3425 14.768 23.3027Z" fill="#E0E0E0"/>
<path d="M48.4425 23.3672C47.8886 23.9116 47.2963 24.4156 46.6703 24.8752C46.0794 25.3788 45.453 25.8391 44.7959 26.2526C45.3534 25.7089 45.9485 25.205 46.5766 24.7446C47.165 24.2417 47.7886 23.7814 48.4425 23.3672Z" fill="#E0E0E0"/>
<path d="M48.4138 46.5992L44.6621 43.5547L48.4138 46.5992Z" fill="white"/>
<path d="M44.662 43.5547C45.336 43.9975 45.9802 44.4842 46.5904 45.0116C47.2343 45.4978 47.8435 46.0283 48.4136 46.5992C47.7388 46.1574 47.0946 45.6707 46.4853 45.1422C45.4402 44.3044 44.6308 43.5916 44.662 43.5547Z" fill="#E0E0E0"/>
<path d="M14.7686 46.5953C15.3171 46.0561 15.9037 45.5569 16.5237 45.1015C17.1089 44.6039 17.7287 44.1484 18.3782 43.7383C17.831 44.278 17.2454 44.7772 16.6259 45.2321C16.0397 45.7298 15.4191 46.1853 14.7686 46.5953Z" fill="#E0E0E0"/>
<path d="M23.7764 31.6943V37.5391H40.3705V31.6943H23.7764Z" fill="#E0E0E0"/>
<path d="M127.392 17.7559H109.392V43.8469H127.392V17.7559Z" fill="#E0E0E0"/>
<path d="M126.491 17.7559H108.491V43.8469H126.491V17.7559Z" fill="#455A64"/>
<path d="M124.253 20.582H110.726V41.0215H124.253V20.582Z" fill="white"/>
<path d="M124.256 41.021C124.256 41.021 124.256 40.9869 124.256 40.9216V40.6376C124.256 40.3791 124.256 40.0042 124.256 39.5158C124.256 38.536 124.256 37.1103 124.256 35.3069C124.256 31.7029 124.241 26.5966 124.233 20.5872L124.278 20.6326H110.726L110.777 20.5843C110.777 28.2949 110.777 35.4034 110.777 41.0323L110.737 40.9926L120.583 41.0153H123.304H124.02H124.267H124.028H123.321H120.609L110.737 41.0352H110.7V40.9954C110.7 35.375 110.7 28.2665 110.7 20.5474V20.5332H124.332V20.5786C124.332 26.6023 124.318 31.7143 124.312 35.3268C124.312 37.1245 124.312 38.5502 124.298 39.5271C124.298 40.0099 124.298 40.3791 124.298 40.6376V40.9216C124.256 40.9897 124.256 41.021 124.256 41.021Z" fill="#E0E0E0"/>
<path d="M126.542 17.7559C126.45 17.9213 126.343 18.0773 126.221 18.2216C126.011 18.5056 125.715 18.8833 125.369 19.2951C125.022 19.7069 124.713 20.0705 124.477 20.3289C124.36 20.4744 124.231 20.6094 124.091 20.7322C124.192 20.5728 124.307 20.4227 124.434 20.2835L125.301 19.2327C125.627 18.8322 125.925 18.4715 126.167 18.179C126.28 18.0276 126.405 17.886 126.542 17.7559Z" fill="#E0E0E0"/>
<path d="M124.324 40.9551C124.998 42.0239 125.79 43.0137 126.684 43.9058L124.324 40.9551Z" fill="white"/>
<path d="M126.684 43.9058C126.534 43.7954 126.396 43.6697 126.272 43.531C126.031 43.2867 125.704 42.9374 125.38 42.5284C125.102 42.1782 124.841 41.8142 124.599 41.4379C124.489 41.287 124.393 41.1253 124.315 40.9551C124.438 41.0948 124.549 41.2439 124.648 41.401C124.847 41.685 125.125 42.0598 125.449 42.466C125.772 42.8721 126.085 43.2299 126.315 43.4827C126.448 43.6147 126.571 43.7561 126.684 43.9058Z" fill="#E0E0E0"/>
<path d="M108.488 43.8261L110.845 40.918L108.488 43.8261Z" fill="white"/>
<path d="M110.846 40.918C110.494 41.433 110.115 41.9288 109.71 42.4033C109.056 43.2042 108.511 43.8432 108.491 43.8233C108.844 43.3087 109.223 42.8129 109.627 42.338C110.008 41.8438 110.415 41.3699 110.846 40.918Z" fill="#E0E0E0"/>
<path d="M108.488 17.7559C108.891 18.1914 109.27 18.6484 109.624 19.1247C110.005 19.5788 110.362 20.0528 110.692 20.5447C110.288 20.11 109.909 19.653 109.556 19.1759C109.175 18.7218 108.819 18.2478 108.488 17.7559Z" fill="#E0E0E0"/>
<path d="M120.042 24.7305H115.512V37.59H120.042V24.7305Z" fill="#B6C5E0"/>
<path d="M131.188 124.109C131.188 124.152 103.521 124.183 69.4041 124.183C35.2872 124.183 7.61426 124.163 7.61426 124.109C7.61426 124.055 35.273 124.035 69.4041 124.035C103.535 124.035 131.188 124.081 131.188 124.109Z" fill="#263238"/>
<path d="M96.4749 74.9746C96.6858 75.8322 96.6612 76.7308 96.4038 77.5756C96.1463 78.4204 95.6656 79.18 95.0123 79.7742C94.1461 80.541 93.0243 80.9841 92.2291 81.8275C91.7369 82.3884 91.3984 83.0673 91.2466 83.7979C91.0948 84.5286 91.1348 85.2861 91.3629 85.9966C91.6042 86.702 91.9861 87.3511 92.4855 87.9047C92.9848 88.4582 93.5913 88.9048 94.2682 89.2172C95.1899 89.6478 96.2005 89.8543 97.2172 89.8198C98.234 89.7852 99.2282 89.5106 100.119 89.0184C102.314 87.7773 103.592 85.2866 103.916 82.7846C104.239 80.2826 103.731 77.7493 103.064 75.3154" fill="#263238"/>
<path d="M124.162 119.095C126.434 118.723 128.564 119.416 130.813 119.913C131.411 120.09 132.043 120.125 132.657 120.013C133.631 119.763 134.324 118.814 134.474 117.82C134.596 116.949 134.394 116.064 133.906 115.332C133.711 115.017 133.444 114.751 133.128 114.557C132.789 114.387 132.419 114.29 132.04 114.273C130.662 114.162 129.279 114.423 128.036 115.028C126.796 115.631 125.672 116.446 124.713 117.437C124.236 117.914 124.378 118.462 124.168 119.104" fill="#263238"/>
<path d="M78.1003 82.4249C77.7359 80.2585 77.7802 78.0431 78.2309 75.8929C78.4214 74.8416 78.8067 73.835 79.3669 72.9251C79.5578 72.5858 79.8483 72.3132 80.199 72.1441C80.4538 72.0595 80.7271 72.0474 80.9883 72.1091C81.2496 72.1707 81.4886 72.3038 81.6787 72.4935C81.9213 72.7461 82.1076 73.0473 82.2251 73.3773C82.3426 73.7073 82.3886 74.0585 82.3603 74.4076C82.3096 75.1058 82.1386 75.7899 81.8547 76.4297C80.9772 78.6733 79.5827 80.5363 78.0917 82.4221" fill="#263238"/>
<path d="M122.12 90.6348C122.634 91.0011 134.048 115.587 134.048 115.587C133.13 115.195 132.113 115.096 131.137 115.303L130.518 115.468C129.409 115.766 128.359 116.245 127.408 116.888L124.15 119.092C124.021 119.017 123.912 118.914 123.832 118.789C123.751 118.664 123.702 118.521 123.687 118.373V118.279L114.838 103.091L122.12 90.6348Z" fill="#FF725E"/>
<path d="M79.261 51.4941L82.3055 68.7983C83.2853 71.1271 94.7106 85.2362 94.7106 85.2362L90.9334 97.3743L75.9269 76.8553C74.5334 75.3654 73.7754 73.3911 73.8139 71.3514L74.3989 52.863L79.261 51.4941Z" fill="#FFBE9D"/>
<path d="M95.4635 82.5234L103.299 83.117L110.132 84.1763C110.132 84.1763 122.12 87.3259 122.12 88.638C122.12 89.0753 118.848 99.4953 117.008 105.738C116.557 107.254 116.189 108.793 115.906 110.35L122.12 124.107H92.632V111.494C92.632 111.494 90.644 94.9286 90.9933 92.6651C91.3426 90.4016 95.4635 82.5234 95.4635 82.5234Z" fill="#FF725E"/>
<path d="M75.5439 44.5025C75.59 42.74 75.7704 40.9836 76.0835 39.2485C76.1261 39.0014 76.2284 38.7032 76.4755 38.6805C76.7822 38.6408 76.9384 39.0355 76.9781 39.3422C77.2505 41.4347 77.1631 43.5584 76.7197 45.6215" fill="#EB996E"/>
<path d="M79.0366 81.1439C82.3992 78.1392 82.5128 72.9334 82.2259 68.7899C82.1698 68.4873 82.2157 68.1746 82.3566 67.901C82.6775 67.4437 83.4585 67.617 83.7766 68.077C84.0947 68.5371 84.0606 69.142 84.0435 69.6987C84.2168 69.2272 84.9552 69.2301 85.3017 69.5936C85.6481 69.9571 85.7078 70.5052 85.7475 71.0136L85.8583 72.3995L95.6819 81.7715C95.6819 81.7715 95.9517 80.9195 96.673 81.4108C97.3944 81.9022 97.8601 82.9388 97.8601 82.9388L90.9391 98.0447L78.0938 82.4247C78.3407 81.9521 78.6587 81.5201 79.0366 81.1439Z" fill="#FF725E"/>
<path d="M92.3685 91.5977C91.3435 92.9049 90.5781 94.3962 90.1135 95.9911C89.6505 97.5965 89.7011 99.3065 90.2583 100.882C90.6894 101.971 91.3955 102.931 92.3079 103.667C93.2202 104.402 94.3076 104.889 95.4641 105.079" fill="#FF725E"/>
<path d="M124.162 119.095L123.79 124.108H131.069L132.773 115.233C130.556 115.109 128.369 115.794 126.619 117.161L124.162 119.095Z" fill="#FFBE9D"/>
<path d="M82.459 80.0341C82.5001 79.8962 82.5533 79.7622 82.618 79.6336C82.7316 79.3837 82.885 79.0145 83.0582 78.5544C83.2315 78.0944 83.4161 77.5377 83.5893 76.9129C83.7693 76.231 83.9125 75.5399 84.0181 74.8425C84.1162 74.1449 84.176 73.4423 84.1971 72.7381C84.1971 72.0877 84.1971 71.5027 84.1573 71.0114C84.1175 70.5201 84.0806 70.1253 84.0437 69.8527C84.0192 69.711 84.0059 69.5676 84.0039 69.4238C84.0501 69.5603 84.0825 69.7012 84.1005 69.8441C84.1742 70.2274 84.2282 70.6141 84.2624 71.0029C84.3178 71.5805 84.3415 72.1607 84.3334 72.741C84.3118 74.1636 84.1056 75.5774 83.7199 76.947C83.5614 77.5053 83.3717 78.0542 83.1519 78.5914C82.9645 79.0514 82.7969 79.4149 82.6663 79.6592C82.6067 79.7892 82.5374 79.9145 82.459 80.0341Z" fill="#263238"/>
<path d="M84.5977 77.3945C84.6903 77.1502 84.7965 76.9113 84.9157 76.6788C85.4129 75.5261 85.7014 74.2943 85.7677 73.0408C85.7673 72.7798 85.7815 72.5191 85.8103 72.2598C85.8662 72.5171 85.8872 72.7807 85.8728 73.0436C85.863 74.3173 85.5721 75.5731 85.0208 76.7214C84.9124 76.9647 84.7699 77.1913 84.5977 77.3945Z" fill="#263238"/>
<path d="M96.1344 85.2513C96.1117 85.2371 96.2309 85.0525 96.2991 84.7174C96.3787 84.2794 96.3534 83.8288 96.2253 83.4025C96.0903 82.9733 95.9262 82.5539 95.734 82.1472C95.6443 81.9789 95.5774 81.7993 95.5352 81.6133C95.6476 81.7651 95.7428 81.9289 95.8192 82.1018C96.0439 82.5018 96.2257 82.9245 96.3616 83.3627C96.4974 83.8114 96.5082 84.2886 96.3928 84.743C96.3571 84.9337 96.2674 85.1101 96.1344 85.2513Z" fill="#263238"/>
<path d="M94.4271 105.256C94.3826 105.238 94.3407 105.214 94.3021 105.185L93.967 104.963C93.683 104.768 93.2598 104.481 92.7657 104.092C92.1815 103.642 91.6474 103.13 91.1724 102.567C90.5879 101.868 90.1668 101.048 89.9399 100.167C89.723 99.2846 89.6672 98.3706 89.7751 97.4687C89.8622 96.7372 90.025 96.0167 90.2608 95.3188C90.4171 94.8486 90.5981 94.3869 90.8032 93.9357C90.8771 93.7767 90.9339 93.6517 90.9765 93.5722C90.9953 93.528 91.0191 93.4861 91.0475 93.4473C90.9937 93.6211 90.9302 93.7918 90.8572 93.9585C90.7294 94.2822 90.5448 94.7537 90.3602 95.3501C90.1421 96.0449 89.9918 96.7591 89.9115 97.4829C89.8125 98.3684 89.8702 99.2643 90.0819 100.13C90.3029 100.992 90.7111 101.795 91.2775 102.481C91.7424 103.042 92.2629 103.554 92.831 104.009C93.3138 104.407 93.7199 104.705 94.0011 104.918L94.3191 105.162C94.393 105.219 94.4299 105.25 94.4271 105.256Z" fill="#263238"/>
<path d="M110.516 108.065C110.477 108.085 110.435 108.101 110.391 108.11C110.306 108.133 110.184 108.175 110.022 108.207C109.564 108.306 109.098 108.362 108.63 108.374C107.07 108.422 105.53 108.002 104.211 107.167C102.891 106.332 101.852 105.122 101.226 103.691C101.036 103.263 100.886 102.818 100.781 102.362C100.741 102.2 100.727 102.078 100.71 101.987C100.7 101.943 100.695 101.898 100.695 101.854C100.753 102.014 100.801 102.178 100.837 102.345C101.289 104.06 102.302 105.574 103.713 106.647C105.125 107.721 106.854 108.292 108.627 108.269C109.091 108.267 109.553 108.227 110.011 108.15C110.177 108.113 110.346 108.084 110.516 108.065Z" fill="#263238"/>
<path d="M115.034 113.6C114.994 113.6 115.369 112.018 115.886 110.093C116.403 108.167 116.829 106.614 116.866 106.625C116.903 106.636 116.531 108.204 116.028 110.13C115.525 112.055 115.074 113.6 115.034 113.6Z" fill="#263238"/>
<path d="M118.996 110.252C118.962 110.272 117.82 108.406 116.44 106.083C115.06 103.76 113.981 101.86 114.018 101.84C114.054 101.82 115.193 103.683 116.574 106.006C117.954 108.329 119.044 110.229 118.996 110.252Z" fill="#263238"/>
<path d="M129.899 114.849C129.899 114.878 129.484 114.912 128.837 115.076C128.458 115.172 128.087 115.295 127.726 115.443C127.286 115.629 126.86 115.849 126.454 116.102C126.053 116.36 125.673 116.649 125.318 116.968C125.028 117.232 124.758 117.517 124.508 117.82C124.082 118.334 123.872 118.694 123.847 118.672C123.881 118.58 123.926 118.492 123.98 118.41C124.112 118.178 124.261 117.956 124.426 117.746C124.669 117.432 124.936 117.138 125.224 116.866C125.581 116.535 125.967 116.236 126.377 115.974C126.791 115.717 127.226 115.496 127.678 115.315C128.046 115.169 128.426 115.054 128.814 114.971C129.074 114.911 129.337 114.871 129.603 114.852C129.701 114.837 129.801 114.836 129.899 114.849Z" fill="#263238"/>
<path d="M131.29 113.139C131.29 113.17 130.833 113.113 130.103 113.176C129.677 113.214 129.255 113.288 128.842 113.397C127.828 113.666 126.881 114.141 126.059 114.792C125.724 115.058 125.413 115.351 125.127 115.669C124.641 116.215 124.414 116.612 124.389 116.598C124.427 116.497 124.477 116.402 124.539 116.314C124.6 116.204 124.668 116.099 124.744 115.999C124.838 115.861 124.94 115.728 125.048 115.601C125.327 115.268 125.637 114.962 125.973 114.687C126.39 114.353 126.839 114.062 127.314 113.818C127.792 113.584 128.292 113.399 128.808 113.267C129.23 113.161 129.662 113.095 130.097 113.071C130.263 113.062 130.429 113.062 130.594 113.071C130.72 113.071 130.846 113.079 130.972 113.093C131.079 113.095 131.186 113.11 131.29 113.139Z" fill="#263238"/>
<g opacity="0.3">
<path d="M100.999 102.459C100.332 103.726 100.889 105.271 101.499 106.568C101.973 107.574 102.502 108.593 103.365 109.295C103.789 109.642 104.281 109.897 104.808 110.045C105.336 110.193 105.888 110.23 106.431 110.154C106.974 110.079 107.495 109.891 107.962 109.605C108.429 109.318 108.831 108.938 109.144 108.488C107.334 108.461 105.574 107.887 104.096 106.842C102.618 105.796 101.491 104.328 100.863 102.629" fill="black"/>
</g>
<g opacity="0.3">
<path d="M114.038 101.838C113.526 103.056 113.913 104.723 114.447 105.93C114.981 107.137 115.549 108.486 115.12 109.739C115.009 109.961 114.952 110.206 114.952 110.454C114.981 110.699 115.236 110.934 115.466 110.821C115.585 110.737 115.667 110.611 115.696 110.469C116.1 109.253 116.504 108.039 116.909 106.825" fill="black"/>
</g>
<path d="M87.1709 85.7951C87.2167 85.0324 87.3115 84.2735 87.4549 83.5231C87.5514 82.7685 87.6965 82.021 87.8894 81.2852C87.8465 82.0481 87.7516 82.8072 87.6054 83.5572C87.5098 84.3119 87.3647 85.0594 87.1709 85.7951Z" fill="#FAFAFA"/>
<path d="M84.1806 85.168C84.1437 85.1907 83.6552 84.5091 82.9793 83.7252C82.3034 82.9414 81.7069 82.3535 81.7353 82.3223C82.2446 82.6947 82.7012 83.1341 83.0929 83.6287C83.5207 84.0924 83.8863 84.6099 84.1806 85.168Z" fill="#FAFAFA"/>
<path d="M86.7474 77.8529C86.662 78.0359 86.5542 78.2076 86.4265 78.3641C86.2107 78.668 85.8954 79.0741 85.5291 79.5001C85.1627 79.9261 84.8106 80.3095 84.5464 80.5708C84.414 80.7226 84.2622 80.8562 84.0949 80.9684C84.0636 80.94 84.6856 80.2669 85.4155 79.4036C86.1454 78.5402 86.7134 77.816 86.7474 77.8529Z" fill="#FAFAFA"/>
<path d="M85.7453 74.2759C85.7027 74.2929 85.5408 73.9322 85.2284 73.5715C84.916 73.2109 84.5809 73.0035 84.6036 72.9609C84.899 73.046 85.1578 73.2268 85.3392 73.475C85.5576 73.691 85.7001 73.972 85.7453 74.2759Z" fill="#FAFAFA"/>
<path d="M83.1548 76.4811C82.9228 76.5904 82.6723 76.655 82.4164 76.6714C82.1681 76.7362 81.9095 76.7517 81.6553 76.7168C82.1353 76.5427 82.6445 76.4627 83.1548 76.4811Z" fill="#FAFAFA"/>
<path d="M89.6904 79.6359C89.6969 79.1938 89.6655 78.752 89.5967 78.3153C89.4791 77.8888 89.3242 77.4735 89.1338 77.0742C89.4559 77.4051 89.6672 77.8279 89.7387 78.2841C89.8602 78.7291 89.8434 79.2006 89.6904 79.6359Z" fill="#FAFAFA"/>
<path d="M93.1801 83.3905C92.6562 82.5543 91.9529 81.8452 91.1211 81.3145C91.5908 81.4967 92.0168 81.7757 92.3715 82.1333C92.7263 82.491 93.0018 82.9193 93.1801 83.3905Z" fill="#FAFAFA"/>
<path d="M87.5769 89.9051C86.7314 90.2219 85.7948 90.1902 84.9727 89.8171C84.9869 89.7745 85.5406 89.9534 86.2705 89.9733C87.0004 89.9932 87.5656 89.8625 87.5769 89.9051Z" fill="#FAFAFA"/>
<path d="M90.2068 91.2546C90.1671 91.2375 90.3886 90.5843 90.5732 89.7551C90.7578 88.9258 90.8401 88.2385 90.8827 88.2442C90.912 88.7637 90.8563 89.2846 90.718 89.7863C90.6278 90.3 90.4552 90.7959 90.2068 91.2546Z" fill="#FAFAFA"/>
<path d="M95.9523 91.4725C95.503 91.0929 95.0878 90.6748 94.7112 90.2229C94.2956 89.8047 93.9156 89.3525 93.5752 88.8711C94.0227 89.2527 94.437 89.6717 94.8134 90.1235C95.2287 90.5419 95.6095 90.993 95.9523 91.4725Z" fill="#FAFAFA"/>
<path d="M98.6275 98.1109C98.2869 97.8638 97.9762 97.5779 97.7017 97.2589C97.3938 96.9728 97.1194 96.6527 96.8838 96.3047C97.2244 96.5518 97.5351 96.8378 97.8096 97.1567C98.1202 97.4402 98.3949 97.7606 98.6275 98.1109Z" fill="#FAFAFA"/>
<path d="M93.6551 98.7444C93.3286 99.0919 92.9442 99.3802 92.5191 99.5964C92.1192 99.8626 91.6748 100.055 91.207 100.164C91.207 100.125 91.775 99.8804 92.4453 99.4799C93.1155 99.0795 93.6267 98.7103 93.6551 98.7444Z" fill="#FAFAFA"/>
<path d="M95.9432 105.056C95.9006 105.056 96.071 104.3 96.1562 103.366C96.2414 102.432 96.2159 101.662 96.2585 101.662C96.3628 102.224 96.3782 102.799 96.3039 103.366C96.2756 103.945 96.1538 104.516 95.9432 105.056Z" fill="#FAFAFA"/>
<path d="M104.552 99.9256C104.083 99.6385 103.666 99.2724 103.322 98.8436C102.942 98.4471 102.635 97.9865 102.416 97.4832C102.453 97.4576 102.842 98.0739 103.433 98.747C104.023 99.4201 104.58 99.8887 104.552 99.9256Z" fill="#FAFAFA"/>
<path d="M107.695 102.603C107.661 102.578 108.093 101.987 108.576 101.229C109.058 100.47 109.413 99.8341 109.45 99.854C109.266 100.37 109.013 100.859 108.698 101.308C108.425 101.784 108.088 102.22 107.695 102.603Z" fill="#FAFAFA"/>
<path d="M107.236 96.0481C106.266 95.887 105.314 95.6301 104.396 95.2812C104.885 95.3396 105.368 95.4442 105.838 95.5937C106.318 95.6976 106.786 95.8498 107.236 96.0481Z" fill="#FAFAFA"/>
<path d="M104.944 107.584C104.894 107.137 104.894 106.685 104.944 106.238C104.948 105.788 104.999 105.34 105.097 104.9C105.148 105.348 105.148 105.799 105.097 106.247C105.095 106.697 105.043 107.145 104.944 107.584Z" fill="#FAFAFA"/>
<path d="M106.926 111.535C107.075 111.076 107.194 110.609 107.284 110.135C107.323 109.654 107.331 109.171 107.306 108.689C107.453 109.162 107.495 109.661 107.429 110.151C107.363 110.642 107.192 111.112 106.926 111.529V111.535Z" fill="#FAFAFA"/>
<path d="M101.788 110.662C101.643 109.681 101.836 108.68 102.333 107.822C102.373 107.839 102.112 108.439 101.964 109.225C101.817 110.012 101.831 110.659 101.788 110.662Z" fill="#FAFAFA"/>
<path d="M97.1019 112.664C96.6389 112.343 96.1933 111.997 95.7671 111.628C95.311 111.297 94.8721 110.944 94.4521 110.568C94.9627 110.823 95.4396 111.139 95.8721 111.511C96.3257 111.846 96.7384 112.233 97.1019 112.664Z" fill="#FAFAFA"/>
<path d="M100.275 107.094C99.1883 107.783 98.0488 108.386 96.8672 108.897C97.4019 108.529 97.964 108.203 98.5485 107.92C99.1019 107.601 99.6792 107.324 100.275 107.094Z" fill="#FAFAFA"/>
<path d="M110.132 119.597C110.072 119.616 110.01 119.632 109.947 119.642C109.825 119.665 109.646 119.71 109.413 119.742C108.756 119.842 108.091 119.885 107.425 119.869C105.707 119.844 104.014 119.455 102.457 118.728C100.9 118 99.5156 116.951 98.3942 115.649C97.7428 114.9 97.1849 114.074 96.7328 113.19C96.4247 112.597 96.17 111.979 95.9717 111.341C95.895 111.116 95.8581 110.938 95.824 110.818C95.8051 110.757 95.7927 110.694 95.7871 110.631C95.8143 110.688 95.8362 110.748 95.8524 110.81C95.895 110.926 95.9405 111.094 96.0257 111.324C96.5702 112.881 97.4091 114.318 98.4965 115.558C99.6207 116.83 100.993 117.859 102.529 118.583C104.064 119.306 105.732 119.708 107.428 119.764C108.092 119.789 108.757 119.762 109.416 119.685C109.652 119.662 109.831 119.625 109.953 119.614C110.012 119.601 110.072 119.596 110.132 119.597Z" fill="#263238"/>
<path d="M101.646 118.126C101.549 117.675 101.596 117.206 101.779 116.783C101.918 116.343 102.193 115.958 102.563 115.684C102.313 116.047 102.097 116.433 101.919 116.837C101.789 117.257 101.697 117.689 101.646 118.126Z" fill="#FAFAFA"/>
<path d="M99.3096 117.15C99.0399 117.359 98.7925 117.595 98.5712 117.855C98.3866 118.141 98.2306 118.444 98.1055 118.761C98.115 118.401 98.2359 118.053 98.4516 117.764C98.6672 117.476 98.967 117.261 99.3096 117.15Z" fill="#FAFAFA"/>
<path d="M108.297 122.5C107.833 122.463 107.384 122.314 106.988 122.067C106.593 121.82 106.263 121.482 106.025 121.08C106.643 121.747 107.427 122.237 108.297 122.5Z" fill="#FAFAFA"/>
<path d="M109.695 114.633C109.636 115.05 109.459 115.442 109.187 115.764C108.914 116.086 108.556 116.324 108.153 116.45C108.485 116.221 108.793 115.96 109.073 115.669C109.316 115.346 109.524 114.999 109.695 114.633Z" fill="#FAFAFA"/>
<path d="M113.668 120.499C113.634 120.47 114.009 119.996 114.355 119.343C114.702 118.69 114.886 118.113 114.923 118.127C114.762 119.03 114.321 119.86 113.662 120.499H113.668Z" fill="#FAFAFA"/>
<path d="M118.919 121.268C118.936 121.31 118.419 121.515 117.899 121.943C117.38 122.372 117.067 122.832 117.03 122.795C117.193 122.404 117.462 122.065 117.806 121.816C118.119 121.533 118.504 121.343 118.919 121.268Z" fill="#FAFAFA"/>
<path d="M114.915 114.546C114.87 114.56 114.631 113.731 114.1 112.811C113.569 111.891 113.001 111.243 113.038 111.215C113.194 111.325 113.331 111.459 113.444 111.612C114.042 112.311 114.497 113.119 114.784 113.992C114.856 114.169 114.9 114.356 114.915 114.546Z" fill="#FAFAFA"/>
<path d="M115.699 106.09C114.815 106.395 113.901 106.606 112.973 106.717C113.857 106.413 114.771 106.203 115.699 106.09Z" fill="#FAFAFA"/>
<path d="M113.282 103.564C112.958 103.262 112.666 102.927 112.413 102.564C112.124 102.23 111.871 101.865 111.66 101.477C111.987 101.774 112.279 102.109 112.529 102.473C112.821 102.807 113.074 103.173 113.282 103.564Z" fill="#FAFAFA"/>
<path d="M119.28 102.046C118.36 102.024 117.455 101.809 116.622 101.416C117.072 101.493 117.517 101.596 117.954 101.726C118.402 101.806 118.845 101.913 119.28 102.046Z" fill="#FAFAFA"/>
<path d="M123.54 101.969C123.662 101.567 123.807 101.173 123.975 100.788C124.094 100.384 124.24 99.9888 124.409 99.6035C124.386 100.029 124.29 100.446 124.125 100.839C123.998 101.247 123.8 101.63 123.54 101.969Z" fill="#FAFAFA"/>
<path d="M122.569 107.741C121.688 107.544 120.892 107.073 120.297 106.395C120.325 106.361 120.774 106.752 121.396 107.119C122.018 107.485 122.583 107.698 122.569 107.741Z" fill="#FAFAFA"/>
<path d="M125.335 107.566C125.392 106.995 125.496 106.431 125.647 105.879C125.75 105.317 125.9 104.765 126.096 104.229C125.936 105.362 125.679 106.479 125.326 107.568L125.335 107.566Z" fill="#FAFAFA"/>
<path d="M123.026 114.017C122.317 113.215 121.684 112.349 121.135 111.43C121.507 111.815 121.843 112.233 122.14 112.679C122.476 113.097 122.773 113.545 123.026 114.017Z" fill="#FAFAFA"/>
<path d="M126.968 111.549C126.928 111.569 126.67 111.055 126.261 110.481C125.852 109.908 125.457 109.49 125.488 109.459C125.845 109.709 126.149 110.028 126.383 110.396C126.654 110.737 126.853 111.129 126.968 111.549Z" fill="#FAFAFA"/>
<path d="M130.665 110.994C130.341 110.614 130.038 110.217 129.756 109.804C129.434 109.424 129.13 109.028 128.848 108.617C129.603 109.283 130.221 110.091 130.665 110.994Z" fill="#FAFAFA"/>
<path d="M129.788 113.447C129.737 113.105 129.622 112.777 129.45 112.478C129.242 112.202 128.985 111.967 128.691 111.785C128.691 111.768 128.822 111.785 129.001 111.873C129.232 111.996 129.427 112.176 129.569 112.396C129.714 112.615 129.8 112.867 129.822 113.129C129.85 113.316 129.813 113.447 129.788 113.447Z" fill="#FAFAFA"/>
<path d="M126.914 116.806C126.891 116.806 126.899 116.729 126.877 116.63C126.85 116.502 126.781 116.387 126.681 116.303C126.576 116.226 126.447 116.187 126.317 116.193C126.215 116.193 126.15 116.218 126.138 116.193C126.127 116.167 126.181 116.116 126.303 116.082C126.383 116.061 126.467 116.059 126.549 116.076C126.63 116.092 126.706 116.128 126.772 116.179C126.837 116.23 126.89 116.296 126.926 116.37C126.962 116.445 126.98 116.527 126.979 116.61C126.976 116.747 126.931 116.812 126.914 116.806Z" fill="#FAFAFA"/>
<path d="M97.3665 122.176C96.8361 121.972 96.3541 121.659 95.9512 121.259C95.5483 120.858 95.2333 120.377 95.0264 119.848C95.6056 120.806 96.4086 121.609 97.3665 122.188V122.176Z" fill="#FAFAFA"/>
<path d="M79.2898 51.6875C78.8326 47.3678 78.0062 43.3038 77.7818 39.0693C77.7907 38.9632 77.7773 38.8563 77.7426 38.7556C77.7079 38.6548 77.6526 38.5625 77.5802 38.4843C77.5183 38.4482 77.4498 38.425 77.3787 38.4161C77.3076 38.4073 77.2355 38.413 77.1667 38.433C77.0979 38.4529 77.0338 38.4866 76.9785 38.532C76.9231 38.5775 76.8775 38.6337 76.8446 38.6973C76.7207 38.9631 76.6716 39.2577 76.7026 39.5493C76.7075 41.8012 76.3231 44.037 75.5666 46.158C75.081 47.5354 74.4306 48.856 74.0671 50.2675C73.7036 51.6789 74.388 52.1589 75.0242 53.4738" fill="#FFBE9D"/>
<path d="M75.0327 53.469C74.4701 53.0374 74.0338 52.4625 73.7694 51.8045C73.5051 51.1465 73.4226 50.4296 73.5303 49.7287C73.6752 48.8767 74.0983 48.1042 74.4335 47.309C74.7686 46.5138 75.027 45.6306 74.8225 44.7928C74.7095 44.4818 74.6332 44.1587 74.5953 43.83C74.5953 43.5006 74.8083 43.1314 75.1378 43.1172C75.2623 43.1272 75.3828 43.1661 75.4897 43.2306C75.5967 43.2952 75.6872 43.3837 75.7541 43.4892C76.3079 44.1737 76.7509 46.173 76.4726 47.6669" fill="#FFBE9D"/>
<path d="M76.4727 47.667C76.4727 47.667 76.5011 47.437 76.5181 47.0223C76.5359 46.4375 76.4873 45.8525 76.3733 45.2786C76.2968 44.8833 76.1827 44.4962 76.0325 44.1227C75.9534 43.9194 75.8463 43.7283 75.7144 43.5547C75.6551 43.4615 75.5775 43.3815 75.4861 43.3194C75.3948 43.2574 75.2917 43.2147 75.1833 43.194C75.0716 43.1993 74.9648 43.2411 74.8791 43.3129C74.7935 43.3847 74.7337 43.4826 74.709 43.5916C74.6481 43.8337 74.664 44.0888 74.7545 44.3215C74.8499 44.5813 74.9166 44.8508 74.9533 45.1252C74.9807 45.4093 74.9702 45.6958 74.922 45.9772C74.7232 47.1302 74.1098 48.0618 73.786 48.9848C73.6264 49.416 73.541 49.8711 73.5333 50.3309C73.5316 50.7314 73.5909 51.1298 73.7093 51.5124C73.8813 52.0706 74.172 52.585 74.5613 53.0204C74.8453 53.3243 75.0299 53.4578 75.0214 53.472C74.9707 53.4462 74.923 53.4148 74.8794 53.3782C74.7512 53.2806 74.6306 53.1733 74.5187 53.0573C74.1037 52.6292 73.7927 52.1112 73.6099 51.5436C73.4805 51.1523 73.4134 50.7431 73.4111 50.3309C73.4136 49.8564 73.4971 49.3857 73.6582 48.9393C73.9706 47.9964 74.5755 47.0649 74.763 45.9545C74.8114 45.6846 74.822 45.4093 74.7942 45.1366C74.7601 44.8699 74.6963 44.608 74.6039 44.3556C74.5057 44.0947 74.4918 43.8096 74.5642 43.5405C74.6065 43.4061 74.6839 43.2855 74.7885 43.1912C74.8409 43.1424 74.9026 43.1048 74.9701 43.0809C75.0375 43.057 75.1091 43.0471 75.1805 43.052C75.3106 43.0692 75.4355 43.1138 75.5471 43.1828C75.6588 43.2518 75.7545 43.3437 75.828 43.4524C75.9661 43.6404 76.077 43.8469 76.1574 44.0659C76.3075 44.4473 76.4179 44.8432 76.4869 45.2473C76.5944 45.8296 76.6278 46.4231 76.5863 47.0138C76.5763 47.1741 76.5554 47.3335 76.5238 47.4909C76.5152 47.5517 76.498 47.611 76.4727 47.667Z" fill="#EB996E"/>
<path d="M113.6 70.7288C113.693 71.135 113.913 71.5011 114.228 71.7738C114.543 72.0466 114.937 72.2117 115.353 72.2453C115.769 72.2657 116.184 72.18 116.558 71.9962C116.932 71.8124 117.253 71.5365 117.491 71.1945C117.963 70.4991 118.153 69.6504 118.022 68.8203C117.86 67.6247 117.065 66.4745 115.912 66.1195C114.759 65.7645 113.325 66.4035 113.007 67.5622L111.678 69.4167L113.6 70.7288Z" fill="#263238"/>
<path d="M112.029 67.0864C112.158 66.0586 112.079 65.0155 111.797 64.0188C111.515 63.0221 111.036 62.0922 110.388 61.2843C109.74 60.4764 108.936 59.807 108.024 59.3157C107.112 58.8244 106.111 58.5213 105.08 58.4244C100.959 58.0324 97.2925 61.1025 96.6762 65.1978C96.1337 68.7875 95.668 72.4114 95.685 73.7178C95.7361 77.6938 98.0564 79.233 98.9993 79.6818C99.3378 79.8038 99.6881 79.8904 100.044 79.9402C100.048 79.9409 100.051 79.9422 100.054 79.9442C100.057 79.9461 100.059 79.9486 100.061 79.9516C100.063 79.9545 100.064 79.9578 100.065 79.9612C100.065 79.9646 100.065 79.9681 100.064 79.9714L99.1839 84.5154C98.7835 87.5003 100.451 90.1642 103.43 90.5987C106.409 91.0332 108.758 88.7414 109.215 85.7537L112.029 67.0864Z" fill="#FFBE9D"/>
<path d="M97.3607 67.517C97.4261 67.6107 97.9486 67.3295 98.6217 67.4289C99.2948 67.5283 99.735 67.9373 99.8202 67.8635C99.8628 67.8322 99.8031 67.676 99.6128 67.4886C99.3516 67.2443 99.0213 67.0866 98.6671 67.037C98.3175 66.9862 97.9608 67.0468 97.6476 67.2103C97.4118 67.3381 97.3267 67.4744 97.3607 67.517Z" fill="#263238"/>
<path d="M103.336 68.812C103.401 68.9057 103.927 68.6246 104.597 68.724C105.267 68.8234 105.713 69.2323 105.798 69.1585C105.838 69.1272 105.781 68.971 105.588 68.7808C105.327 68.5379 104.998 68.3813 104.645 68.332C104.296 68.281 103.939 68.3417 103.626 68.5053C103.396 68.6331 103.305 68.7694 103.336 68.812Z" fill="#263238"/>
<path d="M101.013 71.9886C100.675 71.8267 100.318 71.7075 99.9506 71.6336C99.7802 71.591 99.624 71.5313 99.6126 71.4121C99.6238 71.2331 99.6892 71.0617 99.8001 70.9207L100.499 69.6882C101.473 67.9302 102.203 66.4761 102.135 66.4364C102.066 66.3966 101.214 67.7911 100.24 69.5604L99.5615 70.8015C99.4255 70.9943 99.3594 71.2277 99.3741 71.4632C99.3921 71.5257 99.4235 71.5835 99.4662 71.6325C99.5088 71.6816 99.5617 71.7207 99.6211 71.7472C99.7121 71.786 99.8075 71.8136 99.9051 71.8295C100.266 71.9292 100.638 71.9827 101.013 71.9886Z" fill="#263238"/>
<path d="M100.07 79.9681C100.07 79.9681 102.626 80.5588 106.162 79.082C106.162 79.082 104.639 82.3622 99.834 81.195L100.07 79.9681Z" fill="#EB996E"/>
<path d="M101.061 73.6494C101.212 73.5109 101.395 73.4123 101.593 73.3627C101.792 73.3131 101.999 73.314 102.197 73.3654C102.344 73.4015 102.481 73.4662 102.602 73.5559C102.723 73.6457 102.825 73.7585 102.902 73.8879C102.975 74.0127 103.009 74.1572 102.997 74.3016C102.985 74.446 102.929 74.5833 102.836 74.6945C102.712 74.8001 102.558 74.8655 102.395 74.8822C102.232 74.8989 102.068 74.8662 101.925 74.7882C101.623 74.6312 101.357 74.4148 101.141 74.1521C101.072 74.0879 101.016 74.0107 100.976 73.9249C100.956 73.8841 100.95 73.8383 100.957 73.7937C100.964 73.749 100.985 73.7076 101.016 73.6749" fill="#EB996E"/>
<path d="M102.921 72.7408C102.814 72.718 102.706 73.4479 102.007 73.8768C101.308 74.3056 100.542 74.1096 100.522 74.2119C100.505 74.2573 100.675 74.3794 101.002 74.4362C101.428 74.5036 101.864 74.4192 102.234 74.1977C102.589 73.984 102.848 73.6409 102.956 73.2406C103.027 72.9367 102.973 72.7436 102.921 72.7408Z" fill="#263238"/>
<path d="M103.799 66.6252C103.838 66.8183 104.523 66.8297 105.295 67.0399C106.068 67.25 106.678 67.5567 106.806 67.4091C106.863 67.3381 106.778 67.1506 106.548 66.9348C106.236 66.668 105.868 66.4756 105.471 66.3723C105.074 66.269 104.658 66.2574 104.256 66.3384C103.944 66.4122 103.785 66.5343 103.799 66.6252Z" fill="#263238"/>
<path d="M98.0398 65.4467C98.1335 65.6171 98.622 65.5262 99.1758 65.6C99.7296 65.6739 100.19 65.8499 100.312 65.7079C100.371 65.6369 100.312 65.4722 100.133 65.299C99.8818 65.0849 99.5726 64.9505 99.2448 64.9131C98.9169 64.8756 98.5854 64.9368 98.2925 65.0888C98.0852 65.2166 97.9972 65.3643 98.0398 65.4467Z" fill="#263238"/>
<path d="M95.8986 64.3076C96.7194 65.5601 99.3265 64.7848 100.9 63.9242C101.722 64.4485 102.716 64.6314 103.67 64.4341C104.625 64.2368 105.465 63.6749 106.012 62.8678C106.912 64.0038 108.744 63.6346 109.42 62.3424C110.096 61.0502 109.704 59.2695 108.795 58.1392C107.886 57.0088 106.54 56.4352 105.217 56.1938C102.078 55.6258 98.662 56.8299 96.7847 59.6671C95.9185 60.9763 95.3988 62.74 95.9128 64.3076" fill="#263238"/>
<path d="M104.572 56.6411C104.572 56.6979 103.831 56.5559 102.666 56.749C101.154 57.0006 99.7674 57.7467 98.7243 58.8705C97.7424 60.0471 97.0933 61.4651 96.8442 62.9772C96.7578 63.6075 96.7246 64.244 96.7448 64.88C96.6843 64.7158 96.6489 64.5435 96.6397 64.3688C96.5901 63.8962 96.5977 63.4195 96.6624 62.9488C96.8683 61.378 97.5209 59.8995 98.5425 58.6888C99.6223 57.5195 101.077 56.765 102.655 56.5559C103.126 56.4926 103.602 56.485 104.075 56.5332C104.245 56.5435 104.413 56.5799 104.572 56.6411Z" fill="#455A64"/>
<path d="M100.329 62.4803C100.282 62.3365 100.261 62.1856 100.267 62.0344C100.252 61.6225 100.295 61.2104 100.394 60.8104C100.546 60.1395 100.834 59.5068 101.24 58.9513C101.645 58.3957 102.16 57.929 102.753 57.58C103.346 57.231 104.004 57.0069 104.686 56.9217C105.369 56.8364 106.061 56.8918 106.722 57.0843C107.12 57.1936 107.503 57.356 107.858 57.5671C107.995 57.6384 108.117 57.7347 108.219 57.8511C107.723 57.6167 107.208 57.4266 106.679 57.2831C105.393 56.9555 104.029 57.1495 102.886 57.823C101.742 58.4965 100.911 59.5948 100.573 60.8786C100.295 61.8271 100.383 62.4803 100.329 62.4803Z" fill="#455A64"/>
<path d="M107.858 61.1155C107.55 62.2271 107.373 63.3708 107.33 64.5235C107.287 65.6826 107.647 66.8206 108.349 67.744C109.445 69.0646 111.274 69.4679 112.961 69.7888C113.864 67.5376 114.136 65.083 113.748 62.6888C113.555 61.5273 113.18 60.343 112.362 59.4967C111.754 58.8968 110.964 58.5156 110.116 58.4128C109.268 58.31 108.41 58.4915 107.676 58.9287" fill="#263238"/>
<path d="M108.795 66.6152C108.352 67.5752 108.383 68.6856 108.536 69.7392C108.69 70.7929 108.957 71.8238 108.945 72.8803C108.934 73.9368 108.599 75.0586 107.77 75.7203C107.518 75.8879 107.282 76.078 107.065 76.2883C106.958 76.395 106.886 76.5321 106.86 76.681C106.834 76.8299 106.854 76.9833 106.918 77.1204C107.077 77.376 107.557 77.3703 107.625 77.0778L107.582 77.1516C107.54 77.2224 107.518 77.3029 107.517 77.3851C107.516 77.4673 107.537 77.5482 107.577 77.6199C107.617 77.6915 107.676 77.7513 107.746 77.7933C107.817 77.8352 107.898 77.8578 107.98 77.8588C108.27 77.8449 108.554 77.7717 108.815 77.6438C109.076 77.5158 109.308 77.3357 109.496 77.1147C110.039 76.4871 110.255 75.6436 110.397 74.8427C110.834 72.335 110.749 69.7307 111.442 67.2855" fill="#263238"/>
<path d="M99.1647 83.0831C99.3603 83.9373 99.7374 84.7395 100.27 85.4352C100.803 86.1308 101.48 86.7036 102.254 87.1147C103.028 87.5258 103.881 87.7656 104.756 87.8177C105.631 87.8699 106.507 87.7332 107.324 87.4169C108.795 86.8489 109.982 85.7413 111.127 84.6593C111.332 85.8911 111.275 87.1521 110.961 88.3607C110.647 89.5693 110.083 90.6984 109.304 91.6748C108.526 92.6511 107.551 93.4529 106.443 94.0282C105.334 94.6034 104.117 94.9393 102.871 95.0139C100.988 95.1275 98.9659 94.5538 97.7816 93.0855C96.9552 92.0631 96.6229 90.7085 96.6456 89.3935C96.703 88.0766 96.9537 86.7752 97.3897 85.5311C97.7248 84.4576 98.2559 83.2591 99.3408 82.9609" fill="#FF725E"/>
<path d="M112.637 69.8642C113.773 70.4748 114.381 71.7528 114.599 73.0138C114.818 74.2747 114.707 75.5698 114.761 76.8449C114.815 78.1201 115.059 79.4606 115.869 80.4517C116.721 81.5082 118.07 82.008 119.277 82.6527C121.924 84.0727 124.105 86.4952 124.9 89.3977C125.695 92.3002 124.974 95.6457 122.801 97.7331C120.813 99.6246 117.945 100.289 115.207 100.289C113.256 100.289 111.112 99.8688 109.893 98.3437C108.675 96.8186 108.757 94.6801 109.183 92.8C109.609 90.92 110.39 89.0938 110.422 87.1655C110.13 88.3593 109.622 89.4894 108.922 90.4996C108.72 90.7836 108.377 91.096 108.07 90.9313C107.763 90.7666 107.857 90.2355 108.016 89.8805C110.368 84.6464 109.55 74.0958 110.944 68.3164" fill="#263238"/>
<path d="M110.7 69.269C110.771 69.2463 113.517 68.7266 113.162 71.4416C112.807 74.1566 110.157 73.2422 110.163 73.1655C110.169 73.0888 110.7 69.269 110.7 69.269Z" fill="#FFBE9D"/>
<path d="M111.127 72.2465C111.127 72.2465 111.169 72.2834 111.246 72.3317C111.352 72.3942 111.478 72.4135 111.598 72.3856C111.899 72.3175 112.2 71.8915 112.277 71.4058C112.313 71.1734 112.297 70.9359 112.232 70.71C112.217 70.6218 112.182 70.5384 112.128 70.4671C112.074 70.3958 112.003 70.3388 111.922 70.3011C111.871 70.283 111.815 70.2824 111.764 70.2994C111.713 70.3163 111.668 70.3499 111.638 70.3948C111.593 70.4658 111.601 70.5226 111.587 70.5254C111.573 70.5283 111.536 70.4715 111.57 70.3635C111.594 70.298 111.64 70.2428 111.701 70.2073C111.743 70.182 111.79 70.1656 111.839 70.1592C111.888 70.1529 111.937 70.1567 111.985 70.1704C112.093 70.2072 112.191 70.271 112.268 70.356C112.345 70.441 112.399 70.5443 112.425 70.6561C112.509 70.9064 112.531 71.1734 112.49 71.4342C112.402 71.9795 112.056 72.4538 111.638 72.5163C111.562 72.5284 111.485 72.5232 111.412 72.5011C111.338 72.4789 111.271 72.4404 111.215 72.3885C111.124 72.3118 111.118 72.2493 111.127 72.2465Z" fill="#EB996E"/>
<path d="M96.3584 88.934C96.4916 88.6441 96.6454 88.3641 96.8185 88.0962C97.2143 87.441 97.5426 86.7473 97.7983 86.0258C98.0467 85.3037 98.1301 84.5351 98.0425 83.7765C97.9872 83.4652 97.9152 83.1571 97.8267 82.8535C97.8802 82.9227 97.9215 83.0005 97.9488 83.0836C98.0415 83.3012 98.1082 83.5291 98.1476 83.7623C98.267 84.5374 98.1959 85.3299 97.9403 86.0712C97.6825 86.8036 97.3363 87.5017 96.9094 88.1501C96.7503 88.4 96.6254 88.5988 96.5203 88.7323C96.4152 88.8658 96.3669 88.9396 96.3584 88.934Z" fill="#263238"/>
<path d="M97.7409 85.8008C97.7012 85.8008 97.6245 85.5679 97.3803 85.406C97.136 85.2441 96.8918 85.2441 96.8861 85.2015C96.8804 85.1589 96.9457 85.1532 97.0565 85.1504C97.2033 85.1517 97.3461 85.1983 97.4654 85.2839C97.5857 85.3679 97.6785 85.4854 97.7324 85.6218C97.7693 85.7269 97.7608 85.7951 97.7409 85.8008Z" fill="#FAFAFA"/>
<path d="M99.497 85.7967C99.2842 85.5575 99.0504 85.338 98.7984 85.1406C98.5187 84.9841 98.2237 84.8565 97.918 84.7601C98.0871 84.7367 98.2593 84.7475 98.4241 84.7919C98.589 84.8363 98.7433 84.9133 98.8779 85.0185C99.178 85.1871 99.4002 85.4664 99.497 85.7967Z" fill="#FAFAFA"/>
<path d="M100.599 91.5584C100.605 91.1668 100.661 90.7776 100.763 90.3997C100.818 90.0095 100.922 89.6277 101.073 89.2637C101.066 89.6562 101.011 90.0464 100.908 90.4252C100.853 90.8145 100.749 91.1952 100.599 91.5584Z" fill="#FAFAFA"/>
<path d="M105.029 92.4277C104.958 91.6124 104.984 90.7916 105.106 89.9824C105.181 90.7976 105.155 91.6188 105.029 92.4277Z" fill="#FAFAFA"/>
<path d="M14.5717 105.049L10.1924 124.119L19.4536 124.148L23.7307 107.378L14.5717 105.049Z" fill="#B78876"/>
<path d="M60.051 81.6206C59.1706 80.442 58.1596 79.3089 57.6966 77.9116C57.4723 77.2357 57.3842 76.52 57.1457 75.8497C56.9071 75.1795 56.4726 74.5263 55.808 74.2735C55.1435 74.0208 54.638 74.2735 54.2063 74.7507L51.0283 84.046L52.8601 91.1857C54.6891 90.7739 56.9781 90.2855 58.6878 89.5158C60.3975 88.7462 61.5278 87.5136 61.6471 85.6421C61.7294 84.1738 60.9314 82.8021 60.051 81.6206Z" fill="#263238"/>
<path d="M31.1314 79.9779C31.1314 79.9779 20.0838 84.786 18.7035 86.9558C17.3233 89.1256 12.7793 104.595 12.7793 104.595L24.4233 108.003L24.2245 124.109H52.7665L52.5308 95.7087L48.9524 80.0148C48.9524 80.0148 42.6504 79.6087 42.0654 79.3219C41.4803 79.035 31.1314 79.9779 31.1314 79.9779Z" fill="#3450A1"/>
<path d="M70.3914 40.6132C70.4823 39.9628 70.025 39.2472 70.3545 38.6763C70.5724 38.3821 70.8838 38.1708 71.2377 38.0771C71.4092 37.9987 71.5946 37.9553 71.783 37.9493C71.877 37.9478 71.9693 37.9739 72.0486 38.0244C72.1278 38.0748 72.1905 38.1475 72.2289 38.2333C72.2493 38.3419 72.2398 38.454 72.2012 38.5576C72.1627 38.6612 72.0967 38.7523 72.0102 38.8212C71.8372 38.9571 71.6916 39.1249 71.5814 39.3153C71.5042 39.7828 71.5403 40.2619 71.6864 40.7126C72.0648 41.7043 72.3788 42.7193 72.6265 43.7514" fill="#B78876"/>
<path d="M68.0605 40.8337C68.1003 39.8482 68.9125 35.9659 68.9409 34.9805C69.6083 35.1849 69.9946 35.8949 70.1195 36.5822C70.2445 37.2695 70.1792 37.9767 70.2985 38.6639C70.4575 39.5869 70.9375 40.4191 71.4203 41.2199C71.9031 42.0208 72.4086 42.8359 72.6273 43.7447C72.8459 44.6535 73.6696 47.0164 73.0277 47.698" fill="#B78876"/>
<path d="M67.876 47.4805L63.9256 66.2472C63.7864 67.0992 48.9531 80.0354 48.9531 80.0354L51.8812 91.7333L71.1932 72.8388C72.5876 71.3482 73.3465 69.3729 73.309 67.3321L72.9795 49.7241L67.876 47.4805Z" fill="#B78876"/>
<path d="M67.2002 40.9539L67.8761 47.4859L72.9881 49.7351C72.9881 49.7351 73.0506 49.2722 73.2721 47.0087C73.5135 44.5152 70.8325 43.4445 69.6369 41.6127C69.1257 40.8261 69.2592 39.3777 68.8644 37.5828C68.819 37.3755 68.535 36.1202 68.3816 35.4471C68.3009 35.0731 68.0818 34.7434 67.7682 34.5241C67.5353 34.3707 67.274 34.2941 67.0837 34.5241C66.8934 34.7541 67.2002 40.9539 67.2002 40.9539Z" fill="#B78876"/>
<path d="M70.392 48.5655C70.96 48.0742 71.0963 47.1938 70.8833 46.4639C70.6225 45.7452 70.211 45.0906 69.6763 44.5441C69.1423 43.9989 68.6933 43.3767 68.3443 42.6981C68.1285 42.2096 68.0263 41.67 67.7763 41.19C67.5264 40.7101 67.1033 40.2699 66.5693 40.25C66.9982 42.9508 66.9868 44.51 67.8644 47.4693" fill="#B78876"/>
<path d="M67.1004 43.3346C67.1004 43.3346 67.0805 43.2608 67.0493 43.1188C67.018 42.9768 66.9641 42.741 66.9129 42.4996C66.7908 41.9316 66.6289 41.2074 66.4614 40.3753L66.4443 40.2958H66.5267C66.7015 40.2894 66.8759 40.3178 67.0396 40.3792C67.2034 40.4406 67.3534 40.5339 67.4809 40.6536C67.8709 41.0247 68.1485 41.4981 68.2818 42.0197C68.3951 42.425 68.5443 42.8194 68.7277 43.1983C68.8667 43.4471 69.0344 43.6788 69.2275 43.8884C69.298 43.9689 69.3555 44.06 69.3979 44.1582C69.3202 44.0861 69.248 44.0083 69.1821 43.9253C68.9707 43.7256 68.7873 43.4983 68.6368 43.2494C68.4362 42.8693 68.2726 42.4708 68.1483 42.0594C68.0163 41.564 67.7511 41.1142 67.3815 40.7587C67.1512 40.5426 66.8453 40.4253 66.5295 40.4321L66.5977 40.3469C66.9413 42.0566 67.1629 43.3374 67.1004 43.3346Z" fill="#7C5142"/>
<path d="M69.3976 41.6728C69.1915 40.7942 69.0341 39.9049 68.9262 39.0089C68.7684 38.12 68.6594 37.2231 68.5996 36.3223C68.8072 37.2015 68.9646 38.0919 69.0711 38.989C69.2287 39.877 69.3378 40.7729 69.3976 41.6728Z" fill="#7C5142"/>
<path d="M71.0251 41.8946C71.0251 41.8946 71.045 41.923 71.062 41.994H71.0194C70.8082 41.3863 70.6356 40.766 70.5025 40.1366C70.3804 39.5885 70.2924 39.0887 70.2384 38.7166C70.1946 38.522 70.1774 38.3223 70.1873 38.123C70.2299 38.123 70.4031 39.0063 70.6474 40.111C70.8433 40.9943 71.0251 41.7384 71.062 41.9883H71.0194C71.0166 41.9286 71.0166 41.8946 71.0251 41.8946Z" fill="#7C5142"/>
<path d="M72.0331 45.4919C72.0104 45.4919 71.9081 45.3443 71.7036 45.1256C71.1634 44.5516 70.4301 44.1976 69.6446 44.1316C69.4803 44.133 69.3161 44.1226 69.1533 44.1003C69.3105 44.0394 69.4793 44.0141 69.6475 44.0265C70.0568 44.0316 70.46 44.1266 70.8285 44.3048C71.1971 44.4829 71.522 44.7399 71.7803 45.0574C71.8966 45.1811 71.9831 45.3297 72.0331 45.4919Z" fill="#7C5142"/>
<path d="M68.3388 47.9963C68.1984 47.7519 68.085 47.4928 68.0009 47.2238C67.7674 46.5865 67.5721 45.936 67.4158 45.2755C67.2569 44.6206 67.1375 43.9568 67.058 43.2875C67.0115 43.0061 66.9944 42.7206 67.0069 42.4355C67.0781 42.7069 67.1294 42.9831 67.1602 43.262C67.2454 43.7703 67.3761 44.4747 67.5578 45.25C67.7396 46.0253 67.9441 46.7041 68.1003 47.1982C68.1982 47.4584 68.2779 47.725 68.3388 47.9963Z" fill="#7C5142"/>
<path d="M45.4854 80.3723C45.7384 79.9848 46.1309 79.7096 46.5815 79.6039C47.032 79.4981 47.506 79.5699 47.905 79.8043C49.9896 78.1003 52.1224 76.4474 54.207 74.752C53.5254 78.16 53.071 82.9113 54.5961 86.0296C54.5961 86.0296 56.5187 89.6023 59.5803 89.057L56.8482 91.7323L52.5399 95.7282" fill="#3450A1"/>
<path d="M44.8096 81.9638C44.8128 81.5065 44.9522 81.0606 45.21 80.6829C45.4277 80.2796 45.7597 79.9496 46.1643 79.7344C45.5226 80.3439 45.0549 81.1134 44.8096 81.9638Z" fill="#263238"/>
<path d="M47.0616 84.0659C46.9433 83.8766 46.8624 83.6665 46.823 83.4468C46.7004 82.9201 46.6858 82.374 46.78 81.8415C46.8742 81.309 47.0753 80.8011 47.3711 80.3484C47.4839 80.1548 47.6323 79.9842 47.8085 79.8457C47.8284 79.8627 47.6636 80.0559 47.462 80.4137C47.1997 80.8665 47.0181 81.3614 46.9252 81.8763C46.8363 82.3922 46.8363 82.9195 46.9252 83.4355C46.9962 83.8047 47.0843 84.0432 47.0616 84.0659Z" fill="#263238"/>
<path d="M57.4958 91.3591C57.2862 91.4895 57.0571 91.5854 56.8171 91.6431C56.161 91.8013 55.4745 91.7808 54.8291 91.5835C53.8732 91.2799 53.0368 90.6839 52.4378 89.8795C51.7183 88.893 51.2327 87.7558 51.0178 86.5539C50.6167 84.3896 50.5021 82.1819 50.677 79.9878C50.7423 79.1358 50.836 78.4712 50.9155 77.9998C50.9525 77.7669 50.9865 77.588 51.0121 77.4659C51.0209 77.4029 51.0362 77.3411 51.0575 77.2812C51.0595 77.3451 51.0538 77.409 51.0405 77.4715L50.9723 78.0083C50.9127 78.4741 50.8332 79.1443 50.7821 79.9963C50.6368 82.181 50.7646 84.3753 51.1626 86.5283C51.3753 87.6991 51.8458 88.808 52.54 89.7744C53.1143 90.5706 53.9238 91.1665 54.8546 91.4784C55.4831 91.6809 56.1534 91.7171 56.8 91.5835C57.0367 91.5244 57.2692 91.4494 57.4958 91.3591Z" fill="#3450A1"/>
<path d="M24.4772 112.798C24.4374 112.798 24.4033 108.759 24.4033 103.781C24.4033 98.8022 24.4374 94.7637 24.4772 94.7637C24.5169 94.7637 24.551 98.7993 24.551 103.781C24.551 108.762 24.5198 112.798 24.4772 112.798Z" fill="#263238"/>
<path d="M24.2507 91.6474C24.2195 91.6474 24.228 91.2442 24.0888 90.6165C24.0059 90.2498 23.887 89.8921 23.7338 89.5487C23.543 89.1309 23.3078 88.7348 23.0323 88.3672C22.7492 88.0048 22.4284 87.6735 22.0753 87.3789C21.7845 87.1413 21.4716 86.932 21.1409 86.7541C20.5729 86.4559 20.1781 86.3565 20.1867 86.3281C20.2836 86.3331 20.3793 86.3522 20.4707 86.3849C20.5783 86.4117 20.6837 86.4469 20.7859 86.49C20.9252 86.538 21.0609 86.5959 21.192 86.6632C21.5332 86.8302 21.8551 87.034 22.1519 87.271C22.5165 87.5687 22.847 87.9059 23.1374 88.2764C23.4209 88.6534 23.6592 89.0623 23.8474 89.4947C24.0021 89.8483 24.1173 90.2178 24.1911 90.5966C24.2202 90.741 24.2401 90.8871 24.2507 91.034C24.264 91.1442 24.2697 91.2553 24.2677 91.3663C24.2729 91.4603 24.2672 91.5547 24.2507 91.6474Z" fill="#263238"/>
<path d="M43.7015 79.8535C43.7251 79.9323 43.7413 80.0131 43.7498 80.0949C43.7881 80.3252 43.8128 80.5575 43.8237 80.7907C43.8576 81.6524 43.7374 82.5131 43.4687 83.3325C43.0685 84.5544 42.3592 85.6521 41.4097 86.519C40.2187 87.5598 38.7231 88.1874 37.146 88.3082C35.569 88.429 33.9952 88.0365 32.6596 87.1892C31.592 86.4748 30.7271 85.4965 30.1491 84.3492C29.7619 83.5792 29.5147 82.7464 29.4192 81.8898C29.3961 81.6576 29.3857 81.4244 29.3879 81.1912C29.3811 81.1099 29.3811 81.0282 29.3879 80.9469C29.4013 81.0267 29.4079 81.1074 29.4078 81.1883C29.4151 81.4201 29.4341 81.6514 29.4646 81.8813C29.581 82.7255 29.8403 83.5438 30.2314 84.3009C30.8109 85.425 31.6683 86.3822 32.7221 87.0813C34.0335 87.9059 35.5748 88.2883 37.1195 88.1722C38.6643 88.0562 40.1311 87.4479 41.3046 86.4366C42.2438 85.5876 42.9497 84.512 43.3551 83.3126C43.6272 82.5049 43.7616 81.6572 43.7527 80.8049C43.7527 80.5039 43.7271 80.271 43.7044 80.1119C43.6817 79.9529 43.6987 79.8564 43.7015 79.8535Z" fill="#263238"/>
<path d="M24.2331 104.492C24.2331 104.532 21.8731 103.791 18.9933 102.839C16.1136 101.888 13.7876 101.084 13.8018 101.044C13.816 101.005 16.159 101.746 19.0416 102.697C21.9242 103.649 24.2445 104.452 24.2331 104.492Z" fill="#3450A1"/>
<path d="M52.2552 100.552C52.2552 100.595 45.993 100.654 38.2682 100.686C30.5434 100.717 24.2783 100.711 24.2783 100.686C24.2783 100.66 30.5405 100.583 38.2682 100.552C45.9958 100.521 52.2552 100.512 52.2552 100.552Z" fill="#455A64"/>
<path d="M52.3972 103.025C52.3972 103.065 46.1009 103.099 38.3392 103.099C30.5774 103.099 24.2783 103.065 24.2783 103.025C24.2783 102.985 30.5718 102.951 38.3392 102.951C46.1066 102.951 52.3972 102.982 52.3972 103.025Z" fill="#455A64"/>
<path d="M48.541 106.029C48.5217 106.108 48.4951 106.185 48.4614 106.259C48.399 106.418 48.3138 106.634 48.2087 106.907L48.0212 107.373C47.9474 107.543 47.8594 107.722 47.7685 107.918C47.581 108.304 47.3879 108.753 47.1181 109.224L46.7092 109.968C46.5672 110.227 46.3968 110.482 46.232 110.755C45.9083 111.303 45.5107 111.854 45.096 112.442C44.1738 113.691 43.158 114.868 42.0572 115.964C40.9408 117.044 39.7436 118.037 38.476 118.934C37.8796 119.332 37.3201 119.721 36.772 120.033C36.488 120.192 36.2381 120.357 35.9768 120.496L35.2157 120.888C34.7414 121.147 34.287 121.334 33.8979 121.513C33.702 121.598 33.5202 121.683 33.3498 121.754L32.8784 121.933L32.228 122.175C32.153 122.207 32.075 122.232 31.9951 122.249C32.066 122.208 32.1401 122.174 32.2166 122.146L32.8585 121.879L33.3214 121.689C33.4918 121.615 33.6707 121.527 33.8638 121.436C34.2501 121.252 34.6988 121.059 35.1674 120.794L35.9143 120.397C36.1728 120.255 36.4312 120.087 36.7038 119.928C37.252 119.613 37.8058 119.221 38.4078 118.824C40.9375 117.039 43.1624 114.857 44.9966 112.363C45.4084 111.78 45.8089 111.226 46.1326 110.69C46.3002 110.42 46.4734 110.167 46.6183 109.912L47.0301 109.173C47.3141 108.71 47.5044 108.264 47.6975 107.881C47.7912 107.688 47.8849 107.512 47.9616 107.344C48.0383 107.177 48.1008 107.023 48.1604 106.884C48.2768 106.617 48.3706 106.407 48.4444 106.248C48.4728 106.173 48.5051 106.1 48.541 106.029Z" fill="#263238"/>
<g opacity="0.3">
<path d="M47.3882 108.488C45.4797 110.811 43.4803 112.496 40.6773 113.58C39.3339 114.097 37.9281 114.452 36.6274 115.069C35.3267 115.685 34.0998 116.614 33.5034 117.928C33.0519 118.945 33.2705 120.484 34.3554 120.706C34.7769 120.758 35.2044 120.692 35.5908 120.516C41.143 118.502 44.7924 113.416 47.3711 108.488" fill="black"/>
</g>
<path d="M27.5277 57.959C26.3292 58.899 26.2497 60.657 26.3093 62.1792C26.369 63.7015 26.386 65.4339 25.2756 66.4847C24.3668 67.3509 22.7764 67.6718 22.5151 68.9015C22.449 69.1912 22.4754 69.4944 22.5907 69.7683C22.706 70.0422 22.9043 70.2731 23.1577 70.4283C23.4111 70.5836 23.7068 70.6554 24.0032 70.6337C24.2996 70.612 24.5817 70.4978 24.8098 70.3073C24.4236 71.2701 24.5997 72.5026 25.4204 73.1473C26.2412 73.792 27.6754 73.4853 27.9764 72.4969C27.9299 72.6604 27.917 72.8317 27.9387 73.0003C27.9603 73.1689 28.016 73.3314 28.1023 73.4778C28.1886 73.6243 28.3038 73.7517 28.4408 73.8523C28.5778 73.9529 28.7338 74.0247 28.8994 74.0632C29.065 74.1017 29.2367 74.1062 29.404 74.0763C29.5714 74.0465 29.7309 73.983 29.873 73.8896C30.0151 73.7963 30.1367 73.6751 30.2306 73.5333C30.3244 73.3915 30.3884 73.2322 30.4188 73.0649" fill="#263238"/>
<path d="M44.9196 68.9824C44.9767 69.1819 45.0742 69.3675 45.2061 69.5277C45.338 69.6879 45.5014 69.8193 45.6862 69.9137C45.871 70.0081 46.0732 70.0635 46.2803 70.0764C46.4874 70.0894 46.6949 70.0596 46.89 69.989C47.0852 69.9184 47.2637 69.8084 47.4145 69.6659C47.5653 69.5233 47.6852 69.3513 47.7667 69.1605C47.8483 68.9697 47.8897 68.7642 47.8885 68.5567C47.8873 68.3492 47.8434 68.1441 47.7596 67.9543C47.5238 67.3636 46.9076 66.9177 46.8934 66.2844C46.8564 65.5176 47.663 65.0092 48.3702 64.711C49.0773 64.4128 49.9066 64.0152 50.0174 63.257C50.1281 62.4987 49.4948 61.9165 48.9666 61.3968C48.4383 60.877 47.93 60.0875 48.302 59.4457C48.4923 59.1191 48.87 58.943 49.1142 58.6562C49.6652 58.02 49.4437 56.9522 48.8075 56.4097C48.1714 55.8673 47.2597 55.7423 46.4276 55.8417C45.5955 55.9411 44.8003 56.2535 43.9852 56.4552C42.6336 56.7814 41.229 56.8236 39.8603 56.5792C38.4915 56.3348 37.1884 55.809 36.0332 55.0352" fill="#263238"/>
<path d="M28.343 63.815L31.2654 80.7527C31.3865 81.4616 31.6467 82.1396 32.031 82.7474C32.4153 83.3553 32.9161 83.8811 33.5046 84.2945C34.093 84.7079 34.7575 85.0008 35.4596 85.1563C36.1618 85.3117 36.8878 85.3266 37.5958 85.2002C38.9372 84.9599 40.14 84.2262 40.9673 83.1433C41.7947 82.0605 42.1866 80.7071 42.0659 79.3498C41.9324 77.8474 41.8188 76.6035 41.8188 76.6035C41.8188 76.6035 46.0618 75.5129 45.6954 71.2075C45.5165 69.1229 44.8037 64.8601 44.1107 61.0091C43.7514 59.0159 42.6549 57.231 41.0393 56.0096C39.4238 54.7881 37.4076 54.2197 35.3919 54.4174L34.9773 54.4572C33.921 54.6227 32.9086 54.9982 31.9997 55.5614C31.0909 56.1246 30.3041 56.8641 29.6857 57.7363C29.0674 58.6085 28.63 59.5958 28.3994 60.6398C28.1688 61.6838 28.1496 62.7634 28.343 63.815Z" fill="#B78876"/>
<path d="M43.2048 63.79C43.2233 63.9502 43.178 64.1113 43.0786 64.2383C42.9792 64.3654 42.8337 64.4482 42.6737 64.4688C42.5962 64.4829 42.5166 64.4814 42.4397 64.4642C42.3628 64.447 42.2901 64.4146 42.226 64.3687C42.1619 64.3229 42.1076 64.2646 42.0665 64.1974C42.0253 64.1302 41.9981 64.0554 41.9865 63.9774C41.968 63.8172 42.0133 63.6561 42.1127 63.5291C42.2121 63.402 42.3576 63.3193 42.5176 63.2987C42.5951 63.2845 42.6747 63.286 42.7516 63.3032C42.8285 63.3204 42.9012 63.3529 42.9653 63.3987C43.0294 63.4445 43.0837 63.5028 43.1248 63.57C43.166 63.6372 43.1932 63.712 43.2048 63.79Z" fill="#263238"/>
<path d="M43.3925 63.2032C43.3243 63.2884 42.8245 62.9902 42.1627 63.0555C41.501 63.1209 41.0466 63.5014 40.9671 63.4276C40.9302 63.3935 40.9927 63.243 41.1886 63.0669C41.4561 62.8399 41.7876 62.7019 42.1372 62.6721C42.4812 62.6378 42.8271 62.7134 43.1255 62.888C43.3442 63.0243 43.4265 63.1634 43.3925 63.2032Z" fill="#263238"/>
<path d="M36.7296 64.5482C36.7457 64.7081 36.699 64.8681 36.5994 64.9942C36.4998 65.1203 36.355 65.2028 36.1956 65.2241C36.1181 65.2379 36.0387 65.236 35.9619 65.2187C35.8852 65.2013 35.8126 65.1688 35.7486 65.1231C35.6846 65.0773 35.6303 65.0192 35.5891 64.9522C35.5478 64.8851 35.5204 64.8105 35.5084 64.7328C35.4913 64.5728 35.5373 64.4125 35.6364 64.2858C35.7355 64.1591 35.8801 64.076 36.0394 64.054C36.1173 64.0402 36.1971 64.0421 36.2742 64.0596C36.3513 64.0771 36.4242 64.1099 36.4885 64.1559C36.5528 64.2019 36.6072 64.2603 36.6486 64.3277C36.69 64.3951 36.7175 64.47 36.7296 64.5482Z" fill="#263238"/>
<path d="M36.8964 63.9587C36.8282 64.0468 36.3284 63.7486 35.6667 63.8139C35.0049 63.8792 34.5534 64.2598 34.471 64.1859C34.4341 64.1519 34.4966 64.0013 34.6925 63.8253C34.9606 63.5992 35.2918 63.4614 35.6411 63.4305C35.9851 63.3948 36.3316 63.4705 36.6294 63.6463C36.8481 63.7827 36.9191 63.9218 36.8964 63.9587Z" fill="#263238"/>
<path d="M39.7796 68.6359C39.7796 68.5962 40.1772 68.4854 40.8332 68.3349C41.0008 68.3008 41.1598 68.2525 41.1768 68.1332C41.1721 67.958 41.1157 67.7881 41.015 67.6448L40.3873 66.4065C39.5154 64.64 38.8679 63.1831 38.9389 63.149C39.0099 63.115 39.7739 64.5179 40.6429 66.273L41.2478 67.5226C41.3737 67.7157 41.427 67.9472 41.3984 68.1758C41.3813 68.2396 41.3496 68.2985 41.3057 68.3478C41.2618 68.3971 41.207 68.4355 41.1456 68.4598C41.0539 68.4934 40.9586 68.5163 40.8616 68.528C40.5066 68.6078 40.1433 68.644 39.7796 68.6359Z" fill="#263238"/>
<path d="M36.8146 61.3444C36.7663 61.5319 36.0989 61.5091 35.3321 61.6795C34.5653 61.8499 33.9547 62.1226 33.8382 61.9635C33.7843 61.8925 33.8752 61.7108 34.1222 61.512C34.4377 61.2628 34.8074 61.0916 35.2014 61.0121C35.5945 60.9256 36.0025 60.9344 36.3914 61.0377C36.6782 61.1314 36.8344 61.2592 36.8146 61.3444Z" fill="#263238"/>
<path d="M42.9636 61.3082C42.8614 61.4701 42.3956 61.3593 41.8276 61.4048C41.2596 61.4502 40.8251 61.6064 40.6916 61.4587C40.6377 61.3877 40.6916 61.2287 40.8848 61.0668C41.1392 60.8657 41.4498 60.7486 41.7737 60.7317C42.0964 60.7053 42.4192 60.7808 42.6967 60.9475C42.9267 61.0839 43.0062 61.2315 42.9636 61.3082Z" fill="#263238"/>
<path d="M32.5575 58.6347L32.5348 58.6575C31.9019 59.2648 31.5276 60.0928 31.4897 60.9692C31.4897 61.0005 31.4897 61.0317 31.4897 61.0573C31.4414 62.304 31.5919 63.5508 31.5323 64.7947C31.4727 66.0386 31.1688 67.328 30.3423 68.2623C30.0044 68.6457 29.3682 68.9496 29.0217 68.5719C28.9012 68.4128 28.8283 68.2227 28.8116 68.0238C28.2947 65.0815 27.2269 62.5284 26.9315 59.4243C26.8891 59.0092 26.9467 58.5899 27.0993 58.2016C27.252 57.8133 27.4953 57.4671 27.8091 57.192C28.4111 56.6609 29.1581 56.1015 29.9135 56.3741C30.6689 56.6467 31.7339 57.9049 32.3502 58.4217" fill="#263238"/>
<path d="M29.9847 65.622C29.908 65.5992 26.9402 65.0369 27.3208 67.9706C27.7014 70.9044 30.5698 69.9189 30.5641 69.8337C30.5584 69.7485 29.9847 65.622 29.9847 65.622Z" fill="#B78876"/>
<path d="M29.5356 68.8393C29.5356 68.8393 29.4902 68.8819 29.4078 68.9301C29.3514 68.9646 29.2888 68.9876 29.2235 68.9979C29.1582 69.0081 29.0915 69.0054 29.0272 68.9898C28.7035 68.9159 28.3769 68.4559 28.2945 67.9305C28.2542 67.6791 28.2707 67.422 28.3428 67.1779C28.359 67.0825 28.3979 66.9925 28.4562 66.9154C28.5145 66.8383 28.5906 66.7763 28.6779 66.7348C28.7346 66.7126 28.7972 66.7106 28.8552 66.7293C28.9131 66.7479 28.9629 66.786 28.996 66.8371C29.0471 66.9137 29.0358 66.9762 29.0528 66.9791C29.0698 66.9819 29.1096 66.9223 29.0698 66.803C29.0442 66.732 28.9951 66.6719 28.9307 66.6326C28.8441 66.5849 28.7426 66.5717 28.6467 66.5957C28.529 66.6354 28.4235 66.7045 28.34 66.7965C28.2565 66.8884 28.1978 67.0001 28.1696 67.1211C28.0773 67.3951 28.0529 67.6875 28.0986 67.9731C28.1951 68.5609 28.57 69.075 29.0102 69.1431C29.092 69.1564 29.1757 69.1508 29.255 69.1266C29.3342 69.1025 29.4069 69.0606 29.4674 69.004C29.5356 68.9103 29.5356 68.8421 29.5356 68.8393Z" fill="#7C5142"/>
<path d="M29.8539 56.8401C29.0019 55.7325 30.8365 53.8468 32.2452 53.2475C33.6538 52.6483 35.639 53.168 37.1328 53.506C38.0728 53.7218 39.0242 54.0541 39.9728 53.9206C40.6088 53.7935 41.2224 53.5724 41.7932 53.2646C42.3635 52.9516 42.9917 52.7583 43.6392 52.6966C43.9636 52.6719 44.2885 52.7363 44.5788 52.883C44.8692 53.0297 45.1139 53.2529 45.2864 53.5287C45.5875 54.0967 45.3177 54.9487 44.6872 55.1049C44.8811 54.9714 45.1045 54.8871 45.3382 54.859C45.5719 54.831 45.8089 54.8601 46.0289 54.9439C46.2489 55.0276 46.4452 55.1636 46.6011 55.34C46.757 55.5163 46.8677 55.7279 46.9237 55.9565C46.9798 56.1852 46.9795 56.424 46.9229 56.6524C46.8663 56.8809 46.755 57.0922 46.5988 57.2682C46.4425 57.4442 46.2458 57.5797 46.0256 57.6629C45.8054 57.7461 45.5684 57.7747 45.3347 57.7461C45.7238 57.3882 46.4168 57.8512 46.4168 58.3766C46.4168 58.902 45.9766 59.3336 45.5165 59.5921C44.3407 60.251 42.8923 60.2169 41.5802 59.913C40.2682 59.6091 39.0242 59.061 37.7178 58.7202C36.4114 58.3794 34.2218 57.766 33.0006 58.3368C32.1032 58.7543 31.5636 59.9386 31.0126 59.7568C30.7519 59.6486 30.5202 59.4807 30.3362 59.2666C30.1522 59.0525 30.0211 58.7983 29.9533 58.5242C29.8264 57.9734 29.79 57.4055 29.8454 56.843" fill="#263238"/>
<path d="M30.0215 66.1255C30.0581 67.6854 30.2368 69.2387 30.5554 70.7661C30.8738 72.2988 31.601 73.7169 32.6598 74.8699C34.0798 76.3268 35.9429 77.7099 37.9593 78.0535C40.1603 78.4171 42.8526 77.957 44.6446 76.6335C45.4966 76.0059 46.1129 74.6455 45.8488 73.6175C46.2095 73.4473 46.5182 73.1837 46.7429 72.8542C46.9676 72.5246 47.1001 72.141 47.1268 71.7431C47.1722 70.9479 46.6866 69.9539 46.059 69.8488C46.5304 69.7693 46.6667 69.0195 46.4878 68.5963C46.3089 68.1732 45.6869 68.0454 45.2155 68.1363C44.7495 68.2582 44.3161 68.4812 43.946 68.7895C43.578 69.0981 43.1628 69.3454 42.7163 69.5222C41.194 70.0163 39.6519 68.6702 38.053 68.7355C36.6074 68.7923 35.3209 69.9936 33.8867 69.792C33.4886 69.7161 33.1109 69.5573 32.7782 69.3258C32.4454 69.0944 32.1652 68.7955 31.9555 68.4487C31.5125 67.7699 31.7056 65.2622 31.5324 64.4727" fill="#263238"/>
<g opacity="0.6">
<path d="M41.6224 72.8871C41.5027 72.8591 41.3851 72.8231 41.2703 72.7792C40.9921 72.6996 40.6994 72.6851 40.4147 72.7369C40.1301 72.7886 39.8611 72.9051 39.6287 73.0774C39.447 73.208 39.3447 73.3131 39.3447 73.2989C39.3447 73.2847 39.4015 73.1597 39.5748 73.0149C39.808 72.8095 40.093 72.6719 40.3988 72.6168C40.7047 72.5617 41.0198 72.5914 41.31 72.7025C41.5202 72.7735 41.6309 72.8729 41.6224 72.8871Z" fill="#455A64"/>
</g>
<path d="M38.513 69.6233C38.6209 69.6063 38.6919 70.3248 39.365 70.7593C40.0381 71.1939 40.785 71.0575 40.8021 71.1569C40.8163 71.1995 40.6459 71.3131 40.3221 71.3529C39.9025 71.4021 39.4791 71.3015 39.1265 71.0689C38.7887 70.8433 38.5523 70.4948 38.4676 70.0976C38.4023 69.8079 38.4647 69.6233 38.513 69.6233Z" fill="white"/>
<path d="M36.377 77.5726C36.4412 77.5872 36.5032 77.6101 36.5616 77.6407C36.6837 77.6862 36.8626 77.7486 37.0983 77.814C37.7663 77.9945 38.4519 78.1021 39.1431 78.1349C39.6165 78.1628 40.0913 78.1533 40.5631 78.1065C41.1073 78.0577 41.645 77.9531 42.1677 77.7941C42.7448 77.6217 43.2953 77.3704 43.8036 77.0472C44.3562 76.7138 44.8385 76.2758 45.2236 75.7578C45.6809 75.1478 45.8845 74.3845 45.7916 73.6278V73.5682L45.8427 73.5454C46.1959 73.3812 46.5018 73.1301 46.7316 72.8156C46.8431 72.6672 46.9383 72.5072 47.0156 72.3384C47.0834 72.1745 47.1256 72.0012 47.1406 71.8244C47.1715 71.5045 47.1258 71.1818 47.0072 70.883C46.8887 70.5842 46.7008 70.3179 46.459 70.1062L46.4164 70.0721L46.4504 70.0295C46.5785 69.867 46.6621 69.6739 46.693 69.4692C46.7239 69.2646 46.7009 69.0554 46.6265 68.8623C46.5681 68.7158 46.4799 68.5831 46.3675 68.4726C46.255 68.3621 46.1208 68.2762 45.9733 68.2204C45.7851 68.1453 45.5814 68.117 45.3798 68.1381C45.2406 68.1551 45.1724 68.1807 45.1696 68.1722C45.2351 68.141 45.305 68.1199 45.3769 68.1097C45.6467 68.066 45.9233 68.1128 46.1638 68.2427C46.4042 68.3727 46.5948 68.5786 46.706 68.8282C46.7901 69.0364 46.8186 69.2629 46.7888 69.4855C46.7589 69.708 46.6717 69.919 46.5356 70.0977V70.021C46.7951 70.2425 46.9979 70.5227 47.1273 70.8383C47.2568 71.1539 47.309 71.4959 47.2797 71.8358C47.2652 72.0309 47.2201 72.2226 47.1462 72.4038C47.0639 72.5818 46.964 72.7511 46.848 72.9093C46.6063 73.2465 46.2815 73.5155 45.9052 73.6903L45.9478 73.6051C46.0618 74.4004 45.8577 75.2085 45.3798 75.8544C44.9834 76.3876 44.4865 76.8381 43.9172 77.1806C43.3986 77.5106 42.8353 77.7641 42.2444 77.9332C41.7125 78.0931 41.1651 78.1959 40.6114 78.24C40.1303 78.2781 39.6469 78.2781 39.1658 78.24C38.4692 78.1964 37.7801 78.0715 37.1125 77.8679C36.9315 77.8117 36.7542 77.7443 36.5814 77.6663C36.5101 77.6424 36.4416 77.611 36.377 77.5726Z" fill="#455A64"/>
<path d="M23.5032 70.0776C23.4489 70.0627 23.3978 70.0376 23.3527 70.0038C23.2248 69.9079 23.1263 69.778 23.0687 69.6289C22.9728 69.389 22.952 69.1255 23.0091 68.8735C23.0987 68.5398 23.299 68.2464 23.5771 68.0413C23.9038 67.7951 24.2683 67.6032 24.6563 67.4733C25.0911 67.3367 25.5115 67.1579 25.9116 66.9394C26.3325 66.6729 26.6624 66.2846 26.8573 65.8261C27.0711 65.3327 27.185 64.8018 27.1924 64.2641C27.2151 63.1537 26.9595 62.1001 26.9311 61.1203C26.9027 60.1405 27.0731 59.226 27.519 58.6125C27.853 58.1208 28.36 57.773 28.939 57.6384C29.096 57.6071 29.2568 57.5995 29.4161 57.6157C29.4717 57.6221 29.5268 57.6326 29.5809 57.6469C29.3704 57.6369 29.1596 57.6531 28.9532 57.6952C28.3951 57.8426 27.9108 58.1904 27.5929 58.6722C27.1782 59.2686 27.005 60.1547 27.0561 61.1146C27.1072 62.0745 27.3401 63.1281 27.3401 64.2698C27.3283 64.828 27.2057 65.3782 26.9794 65.8886C26.7706 66.3724 26.4188 66.7807 25.9712 67.0587C25.5602 67.2812 25.1272 67.4601 24.679 67.5926C24.302 67.7118 23.9464 67.8901 23.6254 68.1209C23.3617 68.3076 23.1686 68.5777 23.0772 68.8877C23.0154 69.1239 23.0262 69.3734 23.1085 69.6033C23.1833 69.8011 23.3223 69.9681 23.5032 70.0776Z" fill="#455A64"/>
<path d="M44.7951 55.0579C44.8354 55.0334 44.8782 55.0134 44.9229 54.9982C44.9768 54.9741 45.0329 54.9551 45.0904 54.9414C45.1675 54.9187 45.2463 54.9025 45.3261 54.8931C45.5912 54.8643 45.8593 54.8961 46.1102 54.9861C46.3612 55.0762 46.5883 55.2221 46.7745 55.4129C46.9608 55.6626 47.0956 55.9469 47.1711 56.2491C47.2467 56.5514 47.2615 56.8656 47.2147 57.1737C47.159 57.5557 47.0273 57.9227 46.8273 58.2529C46.6273 58.5832 46.3631 58.87 46.0503 59.0963C45.3303 59.6206 44.4697 59.9174 43.5795 59.9483C42.6145 59.9863 41.6491 59.883 40.714 59.6416C39.2285 59.277 37.8191 58.6531 36.5505 57.7985C36.0083 57.4257 35.4387 57.0944 34.8465 56.8073C34.3279 56.5673 33.7695 56.4249 33.1993 56.387C32.3687 56.3296 31.5372 56.484 30.7825 56.8357C30.2514 57.0856 29.9987 57.3015 29.9873 57.2844C30.2205 57.0836 30.4793 56.9146 30.7569 56.7817C31.5161 56.4063 32.3595 56.2341 33.205 56.2819C33.7937 56.3121 34.3715 56.4517 34.909 56.6937C35.5097 56.9801 36.0878 57.3114 36.6386 57.6849C37.8981 58.5226 39.2933 59.1356 40.7623 59.4968C41.683 59.7384 42.6338 59.8456 43.5852 59.8149C44.4483 59.7846 45.2832 59.5001 45.985 58.9969C46.2863 58.7815 46.5418 58.5084 46.7368 58.1934C46.9318 57.8785 47.0624 57.528 47.121 57.1623C47.1711 56.8663 47.162 56.5633 47.0942 56.2708C47.0264 55.9783 46.9014 55.7022 46.7263 55.4583C46.5501 55.2736 46.3352 55.1303 46.0971 55.0384C45.8589 54.9466 45.6034 54.9086 45.3489 54.9272C45.1612 54.9565 44.976 55.0001 44.7951 55.0579Z" fill="#455A64"/>
<path d="M43.29 52.5547C43.2897 52.7782 43.2443 52.9994 43.1565 53.205C42.9103 53.7701 42.4825 54.2368 41.941 54.5313C41.5754 54.7441 41.1741 54.8884 40.7567 54.9573C40.2783 55.0271 39.7924 55.0271 39.314 54.9573C38.3001 54.8295 37.2522 54.4319 36.1502 54.0883C35.0483 53.7446 33.9379 53.5402 32.9609 53.7503C32.0952 53.9394 31.3112 54.3965 30.7202 55.0567C30.3176 55.4971 30.0093 56.0151 29.8142 56.579C29.6836 56.9822 29.658 57.218 29.641 57.2151C29.634 57.1585 29.634 57.1013 29.641 57.0447C29.6637 56.8814 29.6988 56.72 29.746 56.5619C29.9225 55.9786 30.2239 55.4407 30.6293 54.9857C31.2261 54.2962 32.0285 53.8164 32.9183 53.6168C33.9294 53.3925 35.071 53.5998 36.1786 53.9463C37.2862 54.2928 38.3257 54.6904 39.3168 54.821C39.783 54.8891 40.2565 54.8891 40.7226 54.821C41.1276 54.7598 41.5182 54.626 41.8757 54.4262C42.405 54.1486 42.8303 53.7073 43.0884 53.1681C43.1718 52.9693 43.2392 52.7642 43.29 52.5547Z" fill="#455A64"/>
<path d="M64.786 34.58C64.7604 34.6112 63.1643 33.3134 61.2189 31.6804C59.2735 30.0474 57.72 28.6842 57.7484 28.6643C57.7768 28.6444 59.3701 29.9309 61.3155 31.5668C63.2609 33.2026 64.8144 34.5488 64.786 34.58Z" fill="#263238"/>
<path d="M72.8855 32.6349C72.8457 32.6349 72.6838 30.113 72.5276 26.9975C72.3714 23.882 72.2749 21.3544 72.3146 21.3516C72.3544 21.3487 72.5163 23.8735 72.6753 26.9918C72.8343 30.1101 72.9252 32.6349 72.8855 32.6349Z" fill="#263238"/>
<path d="M67.7277 30.8316C67.6879 30.8316 67.1909 29.4116 66.6144 27.6139C66.0379 25.8162 65.6034 24.3649 65.6431 24.3536C65.6829 24.3422 66.1799 25.7736 66.7564 27.5685C67.3329 29.3633 67.7646 30.8203 67.7277 30.8316Z" fill="#263238"/>
<path d="M63.1302 37.244C62.3823 36.9809 61.6511 36.6727 60.9405 36.321C60.2091 36.0127 59.4978 35.6589 58.8105 35.2617C59.5584 35.5248 60.2896 35.833 61.0002 36.1847C61.7313 36.4937 62.4426 36.8475 63.1302 37.244Z" fill="#263238"/>
<path d="M55.6637 33.9808C55.6637 34.0206 55.4223 34.0262 55.1354 33.9808C54.8486 33.9354 54.6214 33.8842 54.6271 33.8445C54.6327 33.8047 54.8685 33.799 55.1525 33.8445C55.4365 33.8899 55.6637 33.941 55.6637 33.9808Z" fill="#263238"/>
<path d="M65.8277 22.519C65.7851 22.519 65.7539 22.289 65.7539 22.0021C65.7539 21.7153 65.7851 21.4824 65.8277 21.4824C65.8703 21.4824 65.9016 21.7153 65.9016 22.0021C65.9016 22.289 65.8675 22.519 65.8277 22.519Z" fill="#263238"/>
<path d="M82.9276 26.5296C82.9589 26.558 81.6468 28.0604 80.0025 29.8865C78.3581 31.7126 77.0006 33.1724 76.9636 33.144C76.9267 33.1156 78.2445 31.6161 79.8888 29.7871C81.5332 27.9581 82.8992 26.5041 82.9276 26.5296Z" fill="#263238"/>
<path d="M85.015 24.4649C85.0434 24.4933 84.8929 24.6921 84.677 24.908C84.4612 25.1238 84.2652 25.2715 84.2368 25.2431C84.2084 25.2147 84.359 25.0159 84.5748 24.8029C84.7906 24.5899 84.9866 24.4252 85.015 24.4649Z" fill="#263238"/>
<path d="M90.0761 31.7344C89.9543 31.8221 89.825 31.8991 89.6898 31.9644C89.4371 32.1036 89.0679 32.2995 88.6078 32.5324C87.6848 32.9982 86.3926 33.6059 84.9385 34.2109C83.4844 34.8158 82.1411 35.2986 81.1585 35.6309C80.67 35.7927 80.2724 35.9149 79.9941 35.9972C79.8533 36.0484 79.7077 36.0855 79.5596 36.108C79.6939 36.0415 79.8335 35.9864 79.977 35.9433L81.113 35.5315C82.0843 35.1821 83.4163 34.6795 84.8704 34.0831C86.3244 33.4867 87.6166 32.8874 88.5624 32.4472L89.6643 31.9247C89.7967 31.8512 89.9343 31.7875 90.0761 31.7344Z" fill="#263238"/>
<path d="M85.9239 38.7266C85.6812 38.8346 85.4281 38.9174 85.1685 38.9736C84.697 39.1043 84.0325 39.2576 83.2997 39.3854C82.567 39.5132 81.8797 39.5842 81.3998 39.6183C81.137 39.6518 80.8713 39.6565 80.6074 39.6325C80.8653 39.5731 81.1274 39.5332 81.3913 39.5132C81.8741 39.4536 82.5415 39.3627 83.2742 39.2292C84.0069 39.0958 84.6686 38.968 85.1457 38.8657C85.4003 38.7955 85.6608 38.7489 85.9239 38.7266Z" fill="#263238"/>
<path d="M89.6983 38.0289C89.1575 38.1274 88.6033 38.1274 88.0625 38.0289C88.6033 37.9305 89.1575 37.9305 89.6983 38.0289Z" fill="#263238"/>
<path d="M68.3534 108.488C68.7531 108.556 69.1351 108.704 69.4766 108.923C69.8181 109.141 70.1122 109.426 70.3414 109.761C70.7938 110.436 71.0852 111.207 71.1934 112.013C71.4518 113.558 71.0343 115.313 70.4606 116.773C68.8844 116.031 68.0438 114.197 67.6774 113.237C67.1094 111.723 66.9646 108.63 68.3392 108.488" fill="#44AFF1"/>
<path d="M72.798 118.957C72.5607 118.57 72.4301 118.126 72.4196 117.673C72.4092 117.219 72.5191 116.77 72.7384 116.372C72.9632 115.978 73.2644 115.633 73.6243 115.357C73.9842 115.081 74.3955 114.88 74.8343 114.765C75.0304 114.69 75.2406 114.659 75.45 114.673C75.6595 114.688 75.8632 114.748 76.047 114.85C76.2 114.973 76.3175 115.134 76.3874 115.317C76.4573 115.5 76.477 115.699 76.4446 115.892C76.3742 116.279 76.2038 116.64 75.9504 116.94C75.1268 118.002 74.1385 118.877 72.798 118.957Z" fill="#44AFF1"/>
<path d="M72.4004 123.852C72.3676 123.747 72.3495 123.638 72.3465 123.529C72.3266 123.318 72.2982 123.012 72.2783 122.634C72.2066 121.646 72.2667 120.653 72.4572 119.68C72.6611 118.698 73.125 117.789 73.8006 117.048C74.0089 116.83 74.2436 116.639 74.4992 116.48C74.5846 116.414 74.6807 116.364 74.7832 116.332C74.4603 116.574 74.1583 116.843 73.8801 117.136C73.2501 117.878 72.8165 118.767 72.6191 119.72C72.4311 120.679 72.3549 121.657 72.3919 122.634C72.4192 123.04 72.4221 123.446 72.4004 123.852Z" fill="#263238"/>
<path d="M68.7275 110.842C68.8072 111.005 68.8736 111.174 68.9263 111.347C69.0428 111.677 69.2103 112.154 69.3978 112.747C69.7869 113.935 70.2952 115.587 70.8178 117.419C71.3403 119.251 71.7607 120.927 72.0503 122.142C72.1952 122.75 72.3059 123.241 72.3769 123.585C72.4242 123.76 72.4565 123.938 72.4735 124.119C72.4041 123.952 72.3499 123.779 72.3116 123.602C72.2122 123.233 72.0844 122.75 71.9311 122.182C71.6101 120.975 71.1643 119.308 70.6474 117.476C70.1305 115.644 69.642 113.989 69.2842 112.793L68.8667 111.373C68.8057 111.2 68.7591 111.022 68.7275 110.842Z" fill="#263238"/>
<path d="M70.6989 120.417C70.3024 119.549 69.7054 118.787 68.9568 118.194C68.2083 117.602 67.3297 117.196 66.3934 117.009C65.9163 116.918 65.3284 116.93 65.0615 117.339C64.7945 117.748 65.0245 118.293 65.3114 118.685C65.9234 119.498 66.7628 120.111 67.7233 120.446C68.6838 120.782 69.7223 120.825 70.7074 120.57" fill="#44AFF1"/>
<path d="M66.9161 118.368C67.0222 118.364 67.1285 118.375 67.2313 118.402C67.3532 118.419 67.4738 118.444 67.592 118.479C67.7516 118.516 67.909 118.563 68.0634 118.618C68.4669 118.759 68.8551 118.941 69.2222 119.16C70.1282 119.697 70.895 120.439 71.4601 121.327C71.6871 121.686 71.8774 122.066 72.0281 122.463C72.0895 122.615 72.1416 122.771 72.1843 122.929C72.2236 123.047 72.2539 123.167 72.2752 123.29C72.305 123.391 72.3184 123.497 72.3149 123.602C72.2837 123.602 72.1956 123.168 71.9145 122.512C71.7475 122.128 71.5469 121.76 71.3152 121.412C71.0285 120.989 70.7002 120.595 70.3354 120.237C69.9658 119.884 69.5625 119.568 69.1313 119.294C68.7755 119.072 68.4011 118.882 68.0123 118.726C67.3534 118.476 66.9104 118.402 66.9161 118.368Z" fill="#263238"/>
</svg>
