<svg width="935" height="187" viewBox="0 0 935 187" fill="none" xmlns="http://www.w3.org/2000/svg">
<path d="M5.33415 93.1167C5.33415 84.6813 7.23625 77.1143 11.0405 70.4156C14.8447 63.6342 20.0134 58.3414 26.5467 54.5372C33.1627 50.733 40.4817 48.8309 48.5036 48.8309C57.9314 48.8309 66.16 51.1051 73.1895 55.6536C80.219 60.2021 85.3464 66.6527 88.5717 75.0054H75.0503C72.652 69.7953 69.1786 65.7844 64.6301 62.9726C60.1643 60.1608 54.7888 58.7548 48.5036 58.7548C42.4665 58.7548 37.0496 60.1608 32.253 62.9726C27.4564 65.7844 23.6936 69.7953 20.9645 75.0054C18.2354 80.1328 16.8708 86.1699 16.8708 93.1167C16.8708 99.9808 18.2354 106.018 20.9645 111.228C23.6936 116.355 27.4564 120.325 32.253 123.137C37.0496 125.949 42.4665 127.355 48.5036 127.355C54.7888 127.355 60.1643 125.99 64.6301 123.261C69.1786 120.449 72.652 116.438 75.0503 111.228H88.5717C85.3464 119.498 80.219 125.907 73.1895 130.456C66.16 134.922 57.9314 137.154 48.5036 137.154C40.4817 137.154 33.1627 135.294 26.5467 131.572C20.0134 127.768 14.8447 122.517 11.0405 115.818C7.23625 109.119 5.33415 101.552 5.33415 93.1167Z" fill="#3450A1"/>
<path d="M107.302 57.3903C105.152 57.3903 103.333 56.646 101.844 55.1574C100.355 53.6688 99.611 51.8494 99.611 49.6992C99.611 47.549 100.355 45.7296 101.844 44.241C103.333 42.7524 105.152 42.0081 107.302 42.0081C109.37 42.0081 111.106 42.7524 112.512 44.241C114.001 45.7296 114.745 47.549 114.745 49.6992C114.745 51.8494 114.001 53.6688 112.512 55.1574C111.106 56.646 109.37 57.3903 107.302 57.3903ZM112.76 68.4307V136.41H101.472V68.4307H112.76ZM157.306 125.99L178.394 68.4307H190.427L163.757 136.41H150.607L123.936 68.4307H136.093L157.306 125.99Z" fill="#3450A1"/>
<path d="M203.072 57.3903C200.921 57.3903 199.102 56.646 197.613 55.1574C196.125 53.6688 195.381 51.8494 195.381 49.6992C195.381 47.549 196.125 45.7296 197.613 44.241C199.102 42.7524 200.921 42.0081 203.072 42.0081C205.139 42.0081 206.876 42.7524 208.282 44.241C209.77 45.7296 210.515 47.549 210.515 49.6992C210.515 51.8494 209.77 53.6688 208.282 55.1574C206.876 56.646 205.139 57.3903 203.072 57.3903ZM208.53 68.4307V136.41H197.241V68.4307H208.53Z" fill="#3450A1"/>
<path d="M219.754 102.296C219.754 95.2669 221.16 89.1471 223.972 83.937C226.784 78.6442 230.67 74.5506 235.632 71.6561C240.677 68.7616 246.425 67.3143 252.875 67.3143C261.228 67.3143 268.092 69.3405 273.468 73.3928C278.926 77.4451 282.523 83.0687 284.26 90.2636H272.103C270.945 86.1286 268.671 82.8619 265.28 80.4636C261.972 78.0653 257.837 76.8662 252.875 76.8662C246.425 76.8662 241.215 79.0991 237.245 83.5649C233.276 87.948 231.291 94.1918 231.291 102.296C231.291 110.484 233.276 116.81 237.245 121.276C241.215 125.742 246.425 127.975 252.875 127.975C257.837 127.975 261.972 126.817 265.28 124.501C268.588 122.186 270.863 118.878 272.103 114.577H284.26C282.441 121.524 278.802 127.106 273.344 131.324C267.885 135.459 261.063 137.527 252.875 137.527C246.425 137.527 240.677 136.079 235.632 133.185C230.67 130.29 226.784 126.197 223.972 120.904C221.16 115.611 219.754 109.409 219.754 102.296Z" fill="#3450A1"/>
<path d="M384.859 49.9473V59.127H361.29V136.41H350.001V59.127H326.308V49.9473H384.859Z" fill="#3450A1"/>
<path d="M447.096 99.8154C447.096 101.966 446.972 104.24 446.724 106.638H392.39C392.804 113.337 395.078 118.588 399.213 122.393C403.431 126.114 408.517 127.975 414.471 127.975C419.351 127.975 423.403 126.858 426.628 124.625C429.936 122.31 432.252 119.25 433.575 115.446H445.732C443.912 121.979 440.274 127.313 434.815 131.448C429.357 135.5 422.576 137.527 414.471 137.527C408.021 137.527 402.232 136.079 397.104 133.185C392.06 130.29 388.09 126.197 385.195 120.904C382.301 115.528 380.854 109.326 380.854 102.296C380.854 95.2669 382.26 89.1058 385.071 83.813C387.883 78.5202 391.811 74.4679 396.856 71.6561C401.984 68.7616 407.855 67.3143 414.471 67.3143C420.922 67.3143 426.628 68.7202 431.59 71.532C436.552 74.3438 440.356 78.2307 443.003 83.1927C445.732 88.072 447.096 93.6129 447.096 99.8154ZM435.436 97.4585C435.436 93.1581 434.485 89.4779 432.583 86.418C430.68 83.2754 428.075 80.9185 424.767 79.3472C421.542 77.6932 417.945 76.8662 413.975 76.8662C408.269 76.8662 403.389 78.6856 399.337 82.3244C395.368 85.9632 393.093 91.0079 392.514 97.4585H435.436Z" fill="#3450A1"/>
<path d="M456.203 102.296C456.203 95.2669 457.609 89.1471 460.421 83.937C463.233 78.6442 467.12 74.5506 472.082 71.6561C477.126 68.7616 482.874 67.3143 489.325 67.3143C497.677 67.3143 504.541 69.3405 509.917 73.3928C515.375 77.4451 518.973 83.0687 520.709 90.2636H508.552C507.395 86.1286 505.12 82.8619 501.73 80.4636C498.422 78.0653 494.287 76.8662 489.325 76.8662C482.874 76.8662 477.664 79.0991 473.694 83.5649C469.725 87.948 467.74 94.1918 467.74 102.296C467.74 110.484 469.725 116.81 473.694 121.276C477.664 125.742 482.874 127.975 489.325 127.975C494.287 127.975 498.422 126.817 501.73 124.501C505.038 122.186 507.312 118.878 508.552 114.577H520.709C518.89 121.524 515.251 127.106 509.793 131.324C504.335 135.459 497.512 137.527 489.325 137.527C482.874 137.527 477.126 136.079 472.082 133.185C467.12 130.29 463.233 126.197 460.421 120.904C457.609 115.611 456.203 109.409 456.203 102.296Z" fill="#3450A1"/>
<path d="M568.764 67.1903C573.892 67.1903 578.523 68.3067 582.658 70.5396C586.793 72.6898 590.018 75.9565 592.334 80.3396C594.732 84.7227 595.931 90.0568 595.931 96.342V136.41H584.767V97.9547C584.767 91.1733 583.071 86.0045 579.681 82.4484C576.29 78.8096 571.659 76.9902 565.787 76.9902C559.833 76.9902 555.077 78.851 551.521 82.5725C548.048 86.294 546.311 91.7108 546.311 98.823V136.41H535.023V44.6132H546.311V78.1067C548.544 74.6333 551.604 71.9455 555.491 70.0434C559.46 68.1413 563.885 67.1903 568.764 67.1903Z" fill="#3450A1"/>
<path d="M698.142 49.3271V108.623C698.142 117.803 695.537 124.874 690.327 129.836C685.2 134.798 678.253 137.279 669.487 137.279C660.307 137.279 652.947 134.673 647.406 129.463C641.865 124.253 639.094 116.852 639.094 107.258H660.183C660.183 110.897 660.927 113.668 662.416 115.57C663.904 117.389 666.055 118.299 668.866 118.299C671.43 118.299 673.415 117.472 674.821 115.818C676.227 114.164 676.93 111.766 676.93 108.623V49.3271H698.142Z" fill="#3450A1"/>
<path d="M744.251 137.403C737.469 137.403 731.349 135.955 725.891 133.061C720.516 130.166 716.257 126.031 713.114 120.656C710.054 115.28 708.524 108.995 708.524 101.8C708.524 94.688 710.095 88.4442 713.238 83.0687C716.381 77.6105 720.681 73.4341 726.139 70.5396C731.597 67.6451 737.717 66.1978 744.499 66.1978C751.28 66.1978 757.4 67.6451 762.858 70.5396C768.316 73.4341 772.617 77.6105 775.759 83.0687C778.902 88.4442 780.473 94.688 780.473 101.8C780.473 108.912 778.861 115.198 775.635 120.656C772.493 126.031 768.151 130.166 762.61 133.061C757.152 135.955 751.032 137.403 744.251 137.403ZM744.251 119.043C748.303 119.043 751.735 117.555 754.547 114.577C757.441 111.6 758.888 107.341 758.888 101.8C758.888 96.2593 757.483 92.0003 754.671 89.0231C751.942 86.0459 748.551 84.5573 744.499 84.5573C740.364 84.5573 736.932 86.0459 734.203 89.0231C731.473 91.9176 730.109 96.1766 730.109 101.8C730.109 107.341 731.432 111.6 734.078 114.577C736.808 117.555 740.198 119.043 744.251 119.043Z" fill="#3450A1"/>
<path d="M811.154 76.9902C813.138 73.7649 815.992 71.1599 819.713 69.175C823.435 67.1902 827.694 66.1978 832.49 66.1978C838.197 66.1978 843.365 67.6451 847.997 70.5396C852.628 73.4341 856.267 77.5691 858.913 82.9446C861.642 88.3201 863.007 94.564 863.007 101.676C863.007 108.788 861.642 115.074 858.913 120.532C856.267 125.907 852.628 130.084 847.997 133.061C843.365 135.955 838.197 137.403 832.49 137.403C827.611 137.403 823.352 136.452 819.713 134.549C816.074 132.565 813.221 129.96 811.154 126.734V136.41H789.941V44.6132H811.154V76.9902ZM841.422 101.676C841.422 96.3834 839.933 92.2484 836.956 89.2712C834.062 86.2113 830.464 84.6813 826.164 84.6813C821.946 84.6813 818.349 86.2113 815.371 89.2712C812.477 92.3311 811.03 96.5074 811.03 101.8C811.03 107.093 812.477 111.269 815.371 114.329C818.349 117.389 821.946 118.919 826.164 118.919C830.381 118.919 833.979 117.389 836.956 114.329C839.933 111.187 841.422 106.969 841.422 101.676Z" fill="#3450A1"/>
<path d="M900.22 137.403C894.182 137.403 888.807 136.369 884.093 134.301C879.379 132.234 875.658 129.422 872.929 125.866C870.199 122.227 868.67 118.175 868.339 113.709H889.303C889.551 116.107 890.668 118.051 892.653 119.539C894.637 121.028 897.077 121.772 899.971 121.772C902.618 121.772 904.644 121.276 906.05 120.284C907.539 119.209 908.283 117.844 908.283 116.19C908.283 114.205 907.249 112.758 905.182 111.848C903.114 110.856 899.765 109.781 895.134 108.623C890.172 107.465 886.037 106.266 882.729 105.026C879.421 103.702 876.567 101.676 874.169 98.9471C871.771 96.1353 870.572 92.3724 870.572 87.6585C870.572 83.6889 871.647 80.0915 873.797 76.8662C876.03 73.5582 879.255 70.9531 883.473 69.051C887.773 67.1489 892.859 66.1978 898.731 66.1978C907.414 66.1978 914.237 68.3481 919.199 72.6485C924.244 76.9489 927.138 82.6552 927.883 89.7674H908.283C907.952 87.3691 906.877 85.467 905.058 84.0611C903.321 82.6552 901.005 81.9522 898.111 81.9522C895.63 81.9522 893.728 82.4484 892.404 83.4408C891.081 84.3505 890.42 85.6324 890.42 87.2864C890.42 89.2712 891.453 90.7598 893.521 91.7522C895.671 92.7446 898.979 93.737 903.445 94.7294C908.572 96.0526 912.749 97.3758 915.974 98.699C919.199 99.9395 922.011 102.007 924.409 104.901C926.89 107.713 928.172 111.517 928.255 116.314C928.255 120.366 927.097 124.005 924.781 127.23C922.549 130.373 919.282 132.854 914.982 134.673C910.764 136.493 905.843 137.403 900.22 137.403Z" fill="#3450A1"/>
</svg>
