<svg width="922" height="110" viewBox="0 0 922 110" fill="none" xmlns="http://www.w3.org/2000/svg">
<g clip-path="url(#clip0_890_5567)">
<path d="M201.16 35.7365C209.842 35.7365 217.01 37.8903 222.664 42.1979C228.318 46.4382 232.222 52.2603 234.375 59.664H224.683C222.866 54.9525 219.938 51.217 215.9 48.4574C211.861 45.6306 206.914 44.2171 201.059 44.2171C196.415 44.2171 192.242 45.3613 188.54 47.6498C184.905 49.8709 182.011 53.1016 179.857 57.3419C177.771 61.5149 176.727 66.4283 176.727 72.0821C176.727 77.6685 177.771 82.5483 179.857 86.7213C182.011 90.8943 184.905 94.125 188.54 96.4134C192.242 98.6346 196.415 99.7451 201.059 99.7451C206.914 99.7451 211.861 98.3653 215.9 95.6058C219.938 92.7789 222.866 89.0097 224.683 84.2982H234.375C232.222 91.702 228.318 97.5576 222.664 101.865C217.01 106.106 209.842 108.226 201.16 108.226C194.496 108.226 188.607 106.711 183.492 103.683C178.376 100.586 174.372 96.3125 171.477 90.8606C168.651 85.3415 167.237 79.082 167.237 72.0821C167.237 65.0149 168.651 58.7217 171.477 53.2026C174.372 47.6834 178.376 43.4094 183.492 40.3806C188.607 37.2845 194.496 35.7365 201.16 35.7365Z" fill="#3450A1"/>
<path d="M242.855 35.9384C242.855 34.2557 243.427 32.9096 244.571 31.9C245.715 30.8231 247.23 30.2846 249.114 30.2846C250.999 30.2846 252.513 30.8231 253.658 31.9C254.802 32.9096 255.374 34.2557 255.374 35.9384C255.374 37.6211 254.802 39.0008 253.658 40.0778C252.513 41.0874 250.999 41.5922 249.114 41.5922C247.23 41.5922 245.715 41.0874 244.571 40.0778C243.427 39.0008 242.855 37.6211 242.855 35.9384ZM253.658 52.193V107.62H244.47V52.193H253.658ZM289.933 97.8269L307.096 52.193H316.99L295.284 107.62H284.38L262.674 52.193H272.568L289.933 97.8269Z" fill="#3450A1"/>
<path d="M320.805 35.9384C320.805 34.2557 321.377 32.9096 322.521 31.9C323.665 30.8231 325.18 30.2846 327.064 30.2846C328.949 30.2846 330.463 30.8231 331.607 31.9C332.752 32.9096 333.324 34.2557 333.324 35.9384C333.324 37.6211 332.752 39.0008 331.607 40.0778C330.463 41.0874 328.949 41.5922 327.064 41.5922C325.18 41.5922 323.665 41.0874 322.521 40.0778C321.377 39.0008 320.805 37.6211 320.805 35.9384ZM331.607 52.193V107.62H322.42V52.193H331.607Z" fill="#3450A1"/>
<path d="M368.703 51.4862C375.771 51.4862 381.626 53.3708 386.27 57.14C390.915 60.9092 393.775 65.9572 394.852 72.284H385.16C384.487 68.3129 382.636 65.2168 379.607 62.9957C376.646 60.7072 372.944 59.563 368.501 59.563C365.271 59.563 362.309 60.3034 359.617 61.7842C356.992 63.2649 354.872 65.5533 353.257 68.6494C351.641 71.6782 350.833 75.4474 350.833 79.957C350.833 84.4665 351.641 88.2693 353.257 91.3654C354.872 94.3942 356.992 96.649 359.617 98.1298C362.309 99.6105 365.271 100.351 368.501 100.351C372.944 100.351 376.646 99.2067 379.607 96.9182C382.636 94.6298 384.487 91.5 385.16 87.529H394.852C393.775 93.9231 390.915 99.0047 386.27 102.774C381.626 106.476 375.771 108.327 368.703 108.327C363.386 108.327 358.675 107.183 354.569 104.894C350.463 102.606 347.233 99.3413 344.877 95.101C342.588 90.7933 341.444 85.7453 341.444 79.957C341.444 74.1686 342.588 69.1206 344.877 64.813C347.233 60.5053 350.463 57.2073 354.569 54.9189C358.675 52.6304 363.386 51.4862 368.703 51.4862Z" fill="#3450A1"/>
<path d="M475.425 36.4432V43.9142H455.334V107.62H446.146V43.9142H426.055V36.4432H475.425Z" fill="#3450A1"/>
<path d="M526.275 76.8272C526.275 78.7791 526.14 80.4618 525.871 81.8752H481.55C481.751 88.202 483.535 92.9471 486.9 96.1106C490.333 99.274 494.506 100.856 499.419 100.856C503.862 100.856 507.564 99.7451 510.525 97.524C513.554 95.2356 515.405 92.2068 516.078 88.4376H525.871C525.198 92.2741 523.683 95.7067 521.328 98.7355C519.039 101.764 516.044 104.12 512.342 105.803C508.64 107.485 504.467 108.327 499.823 108.327C494.506 108.327 489.795 107.183 485.689 104.894C481.583 102.606 478.352 99.3413 475.997 95.101C473.708 90.7933 472.564 85.7453 472.564 79.957C472.564 74.1686 473.708 69.1206 475.997 64.813C478.352 60.5053 481.583 57.2073 485.689 54.9189C489.795 52.6304 494.506 51.4862 499.823 51.4862C505.208 51.4862 509.886 52.6304 513.857 54.9189C517.895 57.2073 520.958 60.2698 523.044 64.1062C525.198 67.9427 526.275 72.183 526.275 76.8272ZM516.986 77.433C517.188 73.3272 516.515 69.8946 514.967 67.135C513.419 64.3755 511.299 62.3226 508.607 60.9765C505.915 59.6303 502.987 58.9573 499.823 58.9573C494.775 58.9573 490.535 60.539 487.102 63.7024C483.67 66.7985 481.819 71.3754 481.55 77.433H516.986Z" fill="#3450A1"/>
<path d="M561.153 51.4862C568.221 51.4862 574.076 53.3708 578.72 57.14C583.365 60.9092 586.225 65.9572 587.302 72.284H577.61C576.937 68.3129 575.086 65.2168 572.057 62.9957C569.096 60.7072 565.394 59.563 560.951 59.563C557.721 59.563 554.759 60.3034 552.067 61.7842C549.442 63.2649 547.322 65.5533 545.706 68.6494C544.091 71.6782 543.283 75.4474 543.283 79.957C543.283 84.4665 544.091 88.2693 545.706 91.3654C547.322 94.3942 549.442 96.649 552.067 98.1298C554.759 99.6105 557.721 100.351 560.951 100.351C565.394 100.351 569.096 99.2067 572.057 96.9182C575.086 94.6298 576.937 91.5 577.61 87.529H587.302C586.225 93.9231 583.365 99.0047 578.72 102.774C574.076 106.476 568.221 108.327 561.153 108.327C555.836 108.327 551.125 107.183 547.019 104.894C542.913 102.606 539.683 99.3413 537.327 95.101C535.038 90.7933 533.894 85.7453 533.894 79.957C533.894 74.1686 535.038 69.1206 537.327 64.813C539.683 60.5053 542.913 57.2073 547.019 54.9189C551.125 52.6304 555.836 51.4862 561.153 51.4862Z" fill="#3450A1"/>
<path d="M626.517 51.2843C632.979 51.2843 638.195 53.3708 642.166 57.5438C646.137 61.6495 648.123 67.6062 648.123 75.4138V107.62H638.936V76.2214C638.936 70.7023 637.522 66.462 634.695 63.5005C631.868 60.539 628.032 59.0582 623.186 59.0582C618.138 59.0582 614.099 60.7072 611.071 64.0053C608.042 67.236 606.527 71.9811 606.527 78.2406V107.62H597.34V32.9096H606.527V65.3178C607.941 60.8082 610.431 57.3419 613.998 54.9189C617.633 52.4958 621.806 51.2843 626.517 51.2843Z" fill="#3450A1"/>
<path d="M713.238 85.005C713.238 90.2549 710.815 92.8798 706.675 92.8798C702.233 92.8798 699.608 89.952 699.608 83.8944H682.445C682.445 99.8461 692.642 108.327 707.18 108.327C721.214 108.327 730.502 100.25 730.502 85.005V36.7461H713.238V85.005Z" fill="#3450A1"/>
<path d="M797.514 79.4522C797.514 61.5822 784.793 50.4766 768.235 50.4766C751.779 50.4766 738.957 61.5822 738.957 79.4522C738.957 97.3221 751.476 108.428 768.033 108.428C784.591 108.428 797.514 97.3221 797.514 79.4522ZM756.524 79.4522C756.524 69.861 761.976 65.4187 768.235 65.4187C774.293 65.4187 779.947 69.861 779.947 79.4522C779.947 88.9424 774.192 93.4856 768.033 93.4856C761.774 93.4856 756.524 88.9424 756.524 79.4522Z" fill="#3450A1"/>
<path d="M822.484 59.2602V32.9096H805.219V107.62H822.484V99.7451C825.613 104.692 831.57 108.428 839.849 108.428C853.68 108.428 864.685 97.1202 864.685 79.3512C864.685 61.5822 853.781 50.4766 839.849 50.4766C831.772 50.4766 825.613 54.2122 822.484 59.2602ZM847.118 79.3512C847.118 88.3366 841.262 93.3846 834.7 93.3846C828.238 93.3846 822.383 88.4376 822.383 79.4522C822.383 70.4667 828.238 65.5197 834.7 65.5197C841.262 65.5197 847.118 70.3658 847.118 79.3512Z" fill="#3450A1"/>
<path d="M917.794 91.2645C917.492 70.2648 887.002 76.6253 887.002 67.6398C887.002 64.9139 889.223 63.2986 893.261 63.2986C898.107 63.2986 901.035 65.8226 901.54 69.659H917.492C916.381 58.5534 908.304 50.4766 893.766 50.4766C879.026 50.4766 870.848 58.3515 870.848 67.9427C870.848 88.6395 901.54 82.0771 901.54 91.1635C901.54 93.6875 899.218 95.7067 894.776 95.7067C890.03 95.7067 886.497 93.0818 886.093 89.1443H869.031C869.838 100.048 879.934 108.428 894.977 108.428C909.112 108.428 917.794 101.058 917.794 91.2645Z" fill="#3450A1"/>
<path d="M50.4 70.17C65.8143 70.17 78.31 57.6743 78.31 42.26C78.31 26.8457 65.8143 14.35 50.4 14.35C34.9857 14.35 22.49 26.8457 22.49 42.26C22.49 57.6743 34.9857 70.17 50.4 70.17Z" fill="#44AFF1"/>
<path d="M11.6299 81.93C21.3786 91.7152 34.428 97.5103 48.2242 98.1815C62.0205 98.8526 75.5707 94.3515 86.2232 85.5588C96.8757 76.7661 103.864 64.3148 105.82 50.6414C107.776 36.9681 104.56 23.0569 96.7999 11.63" stroke="#3450A1" stroke-width="23.26" stroke-linecap="round" stroke-linejoin="bevel"/>
</g>
<defs>
<clipPath id="clip0_890_5567">
<rect width="922" height="110" fill="white"/>
</clipPath>
</defs>
</svg>
