<svg width="923" height="160" viewBox="0 0 923 160" fill="none" xmlns="http://www.w3.org/2000/svg">
<g clip-path="url(#clip0_889_8775)">
<path d="M166.63 73.0657C166.63 66.2005 168.178 60.0419 171.275 54.5901C174.371 49.0709 178.577 44.7633 183.895 41.6672C189.279 38.5711 195.236 37.023 201.764 37.023C209.437 37.023 216.134 38.874 221.855 42.5758C227.577 46.2777 231.75 51.5276 234.375 58.3256H223.37C221.418 54.0853 218.591 50.8209 214.889 48.5325C211.255 46.244 206.88 45.0998 201.764 45.0998C196.851 45.0998 192.442 46.244 188.539 48.5325C184.635 50.8209 181.572 54.0853 179.351 58.3256C177.13 62.4986 176.02 67.412 176.02 73.0657C176.02 78.6522 177.13 83.5656 179.351 87.8059C181.572 91.9789 184.635 95.2096 188.539 97.4981C192.442 99.7865 196.851 100.931 201.764 100.931C206.88 100.931 211.255 99.8201 214.889 97.599C218.591 95.3106 221.418 92.0462 223.37 87.8059H234.375C231.75 94.5366 227.577 99.7528 221.855 103.455C216.134 107.089 209.437 108.907 201.764 108.907C195.236 108.907 189.279 107.392 183.895 104.363C178.577 101.267 174.371 96.9933 171.275 91.5414C168.178 86.0896 166.63 79.931 166.63 73.0657Z" fill="#3450A1"/>
<path d="M249.619 43.9893C247.869 43.9893 246.388 43.3835 245.176 42.172C243.965 40.9605 243.359 39.4797 243.359 37.7297C243.359 35.9798 243.965 34.499 245.176 33.2875C246.388 32.076 247.869 31.4702 249.619 31.4702C251.301 31.4702 252.715 32.076 253.859 33.2875C255.07 34.499 255.676 35.9798 255.676 37.7297C255.676 39.4797 255.07 40.9605 253.859 42.172C252.715 43.3835 251.301 43.9893 249.619 43.9893ZM254.061 52.9747V108.301H244.874V52.9747H254.061ZM290.315 99.8201L307.478 52.9747H317.271L295.565 108.301H284.863L263.157 52.9747H273.051L290.315 99.8201Z" fill="#3450A1"/>
<path d="M327.568 43.9893C325.818 43.9893 324.337 43.3835 323.126 42.172C321.914 40.9605 321.308 39.4797 321.308 37.7297C321.308 35.9798 321.914 34.499 323.126 33.2875C324.337 32.076 325.818 31.4702 327.568 31.4702C329.251 31.4702 330.664 32.076 331.808 33.2875C333.02 34.499 333.625 35.9798 333.625 37.7297C333.625 39.4797 333.02 40.9605 331.808 42.172C330.664 43.3835 329.251 43.9893 327.568 43.9893ZM332.01 52.9747V108.301H322.823V52.9747H332.01Z" fill="#3450A1"/>
<path d="M341.14 80.5368C341.14 74.8157 342.284 69.835 344.573 65.5947C346.861 61.2871 350.025 57.9554 354.063 55.5997C358.169 53.2439 362.847 52.0661 368.096 52.0661C374.894 52.0661 380.481 53.7151 384.856 57.0131C389.298 60.3111 392.226 64.888 393.639 70.7437H383.745C382.803 67.3783 380.952 64.7197 378.192 62.7678C375.5 60.8159 372.135 59.84 368.096 59.84C362.847 59.84 358.606 61.6573 355.375 65.2918C352.145 68.8591 350.529 73.9407 350.529 80.5368C350.529 87.2001 352.145 92.3491 355.375 95.9837C358.606 99.6182 362.847 101.436 368.096 101.436C372.135 101.436 375.5 100.493 378.192 98.6086C380.885 96.724 382.736 94.0318 383.745 90.5318H393.639C392.159 96.1856 389.197 100.729 384.755 104.161C380.313 107.527 374.76 109.209 368.096 109.209C362.847 109.209 358.169 108.032 354.063 105.676C350.025 103.32 346.861 99.9884 344.573 95.6808C342.284 91.3732 341.14 86.3252 341.14 80.5368Z" fill="#3450A1"/>
<path d="M475.525 37.9317V45.4027H456.343V108.301H447.155V45.4027H427.872V37.9317H475.525Z" fill="#3450A1"/>
<path d="M526.174 78.5176C526.174 80.2676 526.073 82.1185 525.871 84.0704H481.65C481.987 89.5222 483.838 93.7962 487.203 96.8923C490.636 99.9211 494.775 101.436 499.621 101.436C503.592 101.436 506.89 100.527 509.515 98.7096C512.208 96.825 514.092 94.3346 515.169 91.2385H525.063C523.583 96.5558 520.621 100.897 516.179 104.262C511.737 107.56 506.217 109.209 499.621 109.209C494.371 109.209 489.66 108.032 485.487 105.676C481.381 103.32 478.151 99.9884 475.795 95.6808C473.439 91.3058 472.261 86.2578 472.261 80.5368C472.261 74.8157 473.405 69.8014 475.694 65.4937C477.982 61.1861 481.179 57.8881 485.285 55.5997C489.458 53.2439 494.237 52.0661 499.621 52.0661C504.871 52.0661 509.515 53.2103 513.554 55.4987C517.592 57.7871 520.688 60.9505 522.842 64.9889C525.063 68.96 526.174 73.4696 526.174 78.5176ZM516.684 76.5993C516.684 73.0994 515.91 70.1042 514.362 67.6139C512.813 65.0562 510.693 63.138 508.001 61.8592C505.376 60.513 502.448 59.84 499.218 59.84C494.573 59.84 490.602 61.3207 487.304 64.2822C484.074 67.2437 482.223 71.3494 481.751 76.5993H516.684Z" fill="#3450A1"/>
<path d="M533.591 80.5368C533.591 74.8157 534.735 69.835 537.024 65.5947C539.312 61.2871 542.476 57.9554 546.514 55.5997C550.62 53.2439 555.298 52.0661 560.548 52.0661C567.346 52.0661 572.932 53.7151 577.307 57.0131C581.749 60.3111 584.677 64.888 586.09 70.7437H576.196C575.254 67.3783 573.403 64.7197 570.644 62.7678C567.951 60.8159 564.586 59.84 560.548 59.84C555.298 59.84 551.057 61.6573 547.827 65.2918C544.596 68.8591 542.981 73.9407 542.981 80.5368C542.981 87.2001 544.596 92.3491 547.827 95.9837C551.057 99.6182 555.298 101.436 560.548 101.436C564.586 101.436 567.951 100.493 570.644 98.6086C573.336 96.724 575.187 94.0318 576.196 90.5318H586.09C584.61 96.1856 581.648 100.729 577.206 104.161C572.764 107.527 567.211 109.209 560.548 109.209C555.298 109.209 550.62 108.032 546.514 105.676C542.476 103.32 539.312 99.9884 537.024 95.6808C534.735 91.3732 533.591 86.3252 533.591 80.5368Z" fill="#3450A1"/>
<path d="M625.204 51.9651C629.377 51.9651 633.146 52.8737 636.511 54.691C639.877 56.441 642.502 59.0996 644.386 62.6669C646.338 66.2341 647.314 70.5754 647.314 75.6907V108.301H638.228V77.0032C638.228 71.484 636.848 67.2774 634.088 64.3832C631.329 61.4217 627.56 59.9409 622.781 59.9409C617.935 59.9409 614.065 61.4553 611.17 64.4841C608.343 67.5129 606.93 71.9215 606.93 77.7099V108.301H597.743V33.5904H606.93V60.8496C608.747 58.0227 611.238 55.8352 614.401 54.2872C617.632 52.7391 621.233 51.9651 625.204 51.9651Z" fill="#3450A1"/>
<path d="M730.5 37.4269V85.6857C730.5 93.1568 728.38 98.9115 724.14 102.95C719.967 106.988 714.313 109.008 707.179 109.008C699.707 109.008 693.717 106.887 689.208 102.647C684.698 98.4067 682.443 92.3828 682.443 84.5752H699.607C699.607 87.5367 700.212 89.7914 701.424 91.3395C702.635 92.8202 704.385 93.5606 706.674 93.5606C708.76 93.5606 710.376 92.8876 711.52 91.5414C712.664 90.1953 713.236 88.2434 713.236 85.6857V37.4269H730.5Z" fill="#3450A1"/>
<path d="M768.032 109.108C762.513 109.108 757.532 107.931 753.09 105.575C748.715 103.219 745.249 99.8538 742.691 95.4789C740.201 91.1039 738.956 85.9886 738.956 80.1329C738.956 74.3446 740.235 69.2629 742.792 64.888C745.35 60.4457 748.85 57.0468 753.292 54.691C757.734 52.3353 762.715 51.1574 768.234 51.1574C773.753 51.1574 778.734 52.3353 783.176 54.691C787.619 57.0468 791.118 60.4457 793.676 64.888C796.234 69.2629 797.513 74.3446 797.513 80.1329C797.513 85.9213 796.2 91.0366 793.575 95.4789C791.017 99.8538 787.484 103.219 782.974 105.575C778.532 107.931 773.551 109.108 768.032 109.108ZM768.032 94.1664C771.33 94.1664 774.124 92.9549 776.412 90.5318C778.768 88.1088 779.946 84.6425 779.946 80.1329C779.946 75.6234 778.801 72.1571 776.513 69.7341C774.292 67.311 771.532 66.0995 768.234 66.0995C764.869 66.0995 762.076 67.311 759.855 69.7341C757.633 72.0898 756.523 75.5561 756.523 80.1329C756.523 84.6425 757.6 88.1088 759.754 90.5318C761.975 92.9549 764.734 94.1664 768.032 94.1664Z" fill="#3450A1"/>
<path d="M822.483 59.9409C824.098 57.316 826.42 55.1958 829.449 53.5805C832.478 51.9651 835.944 51.1574 839.848 51.1574C844.492 51.1574 848.699 52.3353 852.468 54.691C856.237 57.0468 859.198 60.4121 861.352 64.787C863.573 69.162 864.684 74.2436 864.684 80.032C864.684 85.8204 863.573 90.9357 861.352 95.3779C859.198 99.7528 856.237 103.152 852.468 105.575C848.699 107.931 844.492 109.108 839.848 109.108C835.877 109.108 832.41 108.334 829.449 106.786C826.487 105.171 824.165 103.051 822.483 100.426V108.301H805.219V33.5904H822.483V59.9409ZM847.117 80.032C847.117 75.7244 845.905 72.359 843.482 69.936C841.127 67.4456 838.199 66.2005 834.699 66.2005C831.266 66.2005 828.338 67.4456 825.915 69.936C823.56 72.4263 822.382 75.8253 822.382 80.1329C822.382 84.4406 823.56 87.8396 825.915 90.3299C828.338 92.8202 831.266 94.0654 834.699 94.0654C838.131 94.0654 841.059 92.8202 843.482 90.3299C845.905 87.7722 847.117 84.3396 847.117 80.032Z" fill="#3450A1"/>
<path d="M894.976 109.108C890.063 109.108 885.688 108.267 881.851 106.584C878.015 104.902 874.986 102.613 872.765 99.7192C870.544 96.7577 869.299 93.4597 869.03 89.8251H886.092C886.294 91.777 887.202 93.3587 888.818 94.5702C890.433 95.7817 892.419 96.3875 894.774 96.3875C896.928 96.3875 898.577 95.9837 899.721 95.176C900.933 94.301 901.539 93.1904 901.539 91.8443C901.539 90.2289 900.697 89.0511 899.015 88.3107C897.332 87.503 894.606 86.628 890.837 85.6857C886.799 84.7434 883.433 83.7675 880.741 82.7579C878.049 81.681 875.727 80.032 873.775 77.8109C871.823 75.5224 870.847 72.46 870.847 68.6235C870.847 65.3928 871.722 62.4649 873.472 59.84C875.289 57.1477 877.914 55.0276 881.347 53.4795C884.847 51.9314 888.986 51.1574 893.765 51.1574C900.832 51.1574 906.385 52.9074 910.423 56.4073C914.529 59.9073 916.885 64.5514 917.49 70.3398H901.539C901.269 68.3879 900.394 66.8399 898.914 65.6957C897.5 64.5514 895.616 63.9793 893.26 63.9793C891.241 63.9793 889.693 64.3832 888.616 65.1909C887.539 65.9312 887 66.9745 887 68.3206C887 69.936 887.842 71.1475 889.524 71.9552C891.274 72.7629 893.967 73.5705 897.601 74.3782C901.774 75.4551 905.173 76.532 907.798 77.6089C910.423 78.6185 912.712 80.3012 914.663 82.6569C916.683 84.9454 917.726 88.0415 917.793 91.9453C917.793 95.2433 916.851 98.2048 914.966 100.83C913.149 103.387 910.49 105.407 906.991 106.887C903.558 108.368 899.553 109.108 894.976 109.108Z" fill="#3450A1"/>
<path d="M50.4002 70.8512C65.8145 70.8512 78.3102 58.3555 78.3102 42.9412C78.3102 27.527 65.8145 15.0312 50.4002 15.0312C34.986 15.0312 22.4902 27.527 22.4902 42.9412C22.4902 58.3555 34.986 70.8512 50.4002 70.8512Z" fill="#44AFF1"/>
<path d="M11.6309 82.6086C21.3796 92.3937 34.4289 98.1889 48.2252 98.8601C62.0215 99.5312 75.5717 95.0301 86.2242 86.2374C96.8767 77.4447 103.865 64.9934 105.821 51.32C107.777 37.6467 104.561 23.7354 96.8009 12.3086" stroke="#3450A1" stroke-width="23.26" stroke-linecap="round" stroke-linejoin="bevel"/>
</g>
<defs>
<clipPath id="clip0_889_8775">
<rect width="922.14" height="158.76" fill="white" transform="translate(0 0.679688)"/>
</clipPath>
</defs>
</svg>
